G75*
%MOIN*%
%OFA0B0*%
%FSLAX25Y25*%
%IPPOS*%
%LPD*%
%AMOC8*
5,1,8,0,0,1.08239X$1,22.5*
%
%ADD10R,0.06902X0.03162*%
%ADD11R,0.07887X0.05524*%
%ADD12R,0.08674X0.08674*%
%ADD13R,0.05918X0.07099*%
%ADD14R,0.05249X0.10406*%
%ADD15R,0.04146X0.01587*%
%ADD16R,0.01587X0.04146*%
%ADD17R,0.11233X0.11233*%
%ADD18R,0.04737X0.05131*%
%ADD19R,0.05131X0.04737*%
%ADD20R,0.03800X0.06800*%
%ADD21R,0.07099X0.05918*%
%ADD22R,0.05800X0.03300*%
%ADD23C,0.00500*%
%ADD24R,0.05800X0.08300*%
%ADD25C,0.07400*%
%ADD26R,0.10643X0.05524*%
%ADD27C,0.04343*%
%ADD28R,0.03300X0.05800*%
%ADD29C,0.07099*%
%ADD30R,0.03162X0.06902*%
%ADD31R,0.05524X0.07887*%
%ADD32C,0.08200*%
%ADD33C,0.03778*%
D10*
X0154594Y0103594D03*
X0154594Y0107531D03*
X0154594Y0111468D03*
X0154594Y0115405D03*
X0154594Y0119342D03*
X0154594Y0123279D03*
X0154594Y0261094D03*
X0154594Y0265031D03*
X0154594Y0268968D03*
X0154594Y0272905D03*
X0154594Y0276842D03*
X0154594Y0280779D03*
X0154594Y0418593D03*
X0154594Y0422530D03*
X0154594Y0426467D03*
X0154594Y0430404D03*
X0154594Y0434341D03*
X0154594Y0438278D03*
X0154594Y0576094D03*
X0154594Y0580031D03*
X0154594Y0583968D03*
X0154594Y0587905D03*
X0154594Y0591842D03*
X0154594Y0595779D03*
X0312394Y0595779D03*
X0312394Y0591842D03*
X0312394Y0587905D03*
X0312394Y0583968D03*
X0312394Y0580031D03*
X0312394Y0576094D03*
X0312394Y0438278D03*
X0312394Y0434341D03*
X0312394Y0430404D03*
X0312394Y0426467D03*
X0312394Y0422530D03*
X0312394Y0418593D03*
X0312394Y0280779D03*
X0312394Y0276842D03*
X0312394Y0272905D03*
X0312394Y0268968D03*
X0312394Y0265031D03*
X0312394Y0261094D03*
X0312394Y0123279D03*
X0312394Y0119342D03*
X0312394Y0115405D03*
X0312394Y0111468D03*
X0312394Y0107531D03*
X0312394Y0103594D03*
D11*
X0321154Y0098476D03*
X0321154Y0128397D03*
X0321154Y0255976D03*
X0321154Y0285897D03*
X0321154Y0413475D03*
X0321154Y0443397D03*
X0321154Y0570976D03*
X0321154Y0600897D03*
X0163354Y0600897D03*
X0163354Y0570976D03*
X0163354Y0443397D03*
X0163354Y0413475D03*
X0163354Y0285897D03*
X0163354Y0255976D03*
X0163354Y0128397D03*
X0163354Y0098476D03*
D12*
X0221994Y0097283D03*
X0221994Y0120905D03*
X0220806Y0257343D03*
X0220806Y0280965D03*
X0221694Y0418217D03*
X0221694Y0441839D03*
X0221794Y0571416D03*
X0221794Y0595038D03*
X0068594Y0594605D03*
X0068594Y0570983D03*
X0068078Y0435605D03*
X0068078Y0411983D03*
X0068454Y0278965D03*
X0068454Y0255343D03*
X0068494Y0121905D03*
X0068494Y0098283D03*
D13*
X0066734Y0139794D03*
X0059254Y0139794D03*
X0076054Y0139794D03*
X0083534Y0139794D03*
X0084434Y0298594D03*
X0076954Y0298594D03*
X0067134Y0298594D03*
X0059654Y0298594D03*
X0059254Y0456194D03*
X0066734Y0456194D03*
X0076454Y0456194D03*
X0083934Y0456194D03*
X0083834Y0613194D03*
X0076354Y0613194D03*
X0066634Y0613194D03*
X0059154Y0613194D03*
X0211272Y0612794D03*
X0218753Y0612794D03*
X0229154Y0613194D03*
X0236634Y0613194D03*
X0238634Y0456194D03*
X0231154Y0456194D03*
X0219534Y0456194D03*
X0212054Y0456194D03*
X0215134Y0298594D03*
X0207654Y0298594D03*
X0226254Y0298594D03*
X0233734Y0298594D03*
X0232534Y0139794D03*
X0225054Y0139794D03*
X0214734Y0139794D03*
X0207254Y0139794D03*
D14*
X0207836Y0316744D03*
X0197836Y0316744D03*
X0187836Y0316744D03*
X0177836Y0316744D03*
X0167836Y0316744D03*
X0157836Y0316744D03*
X0147836Y0316744D03*
X0147836Y0350602D03*
X0157836Y0350602D03*
X0167836Y0350602D03*
X0177836Y0350602D03*
X0187836Y0350602D03*
X0197836Y0350602D03*
X0207836Y0350602D03*
X0217836Y0350602D03*
X0227836Y0350602D03*
X0237836Y0350602D03*
X0237836Y0316744D03*
X0227836Y0316744D03*
X0217836Y0316744D03*
D15*
X0197369Y0407069D03*
X0197369Y0408644D03*
X0197369Y0410219D03*
X0197369Y0411794D03*
X0197369Y0413369D03*
X0197369Y0414943D03*
X0197369Y0416518D03*
X0181818Y0416518D03*
X0181818Y0414943D03*
X0181818Y0413369D03*
X0181818Y0411794D03*
X0181818Y0410219D03*
X0181818Y0408644D03*
X0181818Y0407069D03*
X0181818Y0519069D03*
X0181818Y0520644D03*
X0181818Y0522219D03*
X0181818Y0523794D03*
X0181818Y0525369D03*
X0181818Y0526943D03*
X0181818Y0528518D03*
X0197369Y0528518D03*
X0197369Y0526943D03*
X0197369Y0525369D03*
X0197369Y0523794D03*
X0197369Y0522219D03*
X0197369Y0520644D03*
X0197369Y0519069D03*
X0197369Y0199518D03*
X0197369Y0197943D03*
X0197369Y0196369D03*
X0197369Y0194794D03*
X0197369Y0193219D03*
X0197369Y0191644D03*
X0197369Y0190069D03*
X0181818Y0190069D03*
X0181818Y0191644D03*
X0181818Y0193219D03*
X0181818Y0194794D03*
X0181818Y0196369D03*
X0181818Y0197943D03*
X0181818Y0199518D03*
D16*
X0184869Y0202569D03*
X0186444Y0202569D03*
X0188019Y0202569D03*
X0189594Y0202569D03*
X0191169Y0202569D03*
X0192743Y0202569D03*
X0194318Y0202569D03*
X0194318Y0187018D03*
X0192743Y0187018D03*
X0191169Y0187018D03*
X0189594Y0187018D03*
X0188019Y0187018D03*
X0186444Y0187018D03*
X0184869Y0187018D03*
X0184869Y0404018D03*
X0186444Y0404018D03*
X0188019Y0404018D03*
X0189594Y0404018D03*
X0191169Y0404018D03*
X0192743Y0404018D03*
X0194318Y0404018D03*
X0194318Y0419569D03*
X0192743Y0419569D03*
X0191169Y0419569D03*
X0189594Y0419569D03*
X0188019Y0419569D03*
X0186444Y0419569D03*
X0184869Y0419569D03*
X0184869Y0516018D03*
X0186444Y0516018D03*
X0188019Y0516018D03*
X0189594Y0516018D03*
X0191169Y0516018D03*
X0192743Y0516018D03*
X0194318Y0516018D03*
X0194318Y0531569D03*
X0192743Y0531569D03*
X0191169Y0531569D03*
X0189594Y0531569D03*
X0188019Y0531569D03*
X0186444Y0531569D03*
X0184869Y0531569D03*
D17*
X0189594Y0523794D03*
X0189594Y0411794D03*
X0189594Y0194794D03*
D18*
X0185184Y0164946D03*
X0185184Y0158253D03*
X0201397Y0157761D03*
X0201397Y0164454D03*
X0223035Y0190761D03*
X0223035Y0197454D03*
X0201350Y0223094D03*
X0201350Y0229787D03*
X0193082Y0229787D03*
X0193082Y0223094D03*
X0184814Y0223094D03*
X0184814Y0229787D03*
X0155623Y0197928D03*
X0155623Y0191235D03*
X0180394Y0381547D03*
X0180394Y0388240D03*
X0199294Y0388040D03*
X0199294Y0381347D03*
X0207094Y0381347D03*
X0207094Y0388040D03*
X0201594Y0445547D03*
X0201594Y0452240D03*
X0193494Y0452240D03*
X0193494Y0445547D03*
X0185894Y0445547D03*
X0185894Y0452240D03*
X0180694Y0484647D03*
X0180694Y0491340D03*
X0197494Y0491640D03*
X0197494Y0484947D03*
X0205777Y0485028D03*
X0205777Y0491720D03*
X0214216Y0519028D03*
X0214216Y0525720D03*
X0208931Y0550485D03*
X0208931Y0557178D03*
X0197669Y0557178D03*
X0197669Y0550485D03*
X0189414Y0550485D03*
X0189414Y0557178D03*
X0158506Y0526539D03*
X0158506Y0519846D03*
X0146394Y0401040D03*
X0146394Y0394347D03*
X0242794Y0397040D03*
X0242794Y0390347D03*
D19*
X0241447Y0368594D03*
X0248140Y0368594D03*
X0256447Y0368594D03*
X0263140Y0368594D03*
X0233140Y0368594D03*
X0226447Y0368594D03*
X0217140Y0368594D03*
X0210447Y0368594D03*
X0201140Y0368594D03*
X0194447Y0368594D03*
X0185140Y0368594D03*
X0178447Y0368594D03*
X0169140Y0368594D03*
X0162447Y0368594D03*
X0154140Y0368594D03*
X0147447Y0368594D03*
X0139140Y0368594D03*
X0132447Y0368594D03*
X0124140Y0368594D03*
X0117447Y0368594D03*
X0179647Y0459294D03*
X0186340Y0459294D03*
X0119440Y0504594D03*
X0112747Y0504594D03*
X0112847Y0519694D03*
X0119540Y0519694D03*
X0176553Y0236693D03*
X0183246Y0236693D03*
D20*
X0088754Y0340212D03*
X0088754Y0362212D03*
X0073754Y0362212D03*
X0073754Y0340212D03*
D21*
X0059919Y0346685D03*
X0059919Y0354165D03*
D22*
X0177494Y0447494D03*
X0177494Y0451494D03*
X0188794Y0488394D03*
X0188794Y0492394D03*
X0179894Y0551494D03*
X0179894Y0555494D03*
X0189194Y0386694D03*
X0189194Y0382694D03*
X0177694Y0226494D03*
X0177694Y0222494D03*
X0193494Y0163694D03*
X0193494Y0159694D03*
D23*
X0193994Y0160944D02*
X0192994Y0160944D01*
X0192994Y0162444D01*
X0193994Y0162444D01*
X0193994Y0160944D01*
X0193994Y0160965D02*
X0192994Y0160965D01*
X0192994Y0161463D02*
X0193994Y0161463D01*
X0193994Y0161962D02*
X0192994Y0161962D01*
X0178194Y0223744D02*
X0177194Y0223744D01*
X0177194Y0225244D01*
X0178194Y0225244D01*
X0178194Y0223744D01*
X0178194Y0223777D02*
X0177194Y0223777D01*
X0177194Y0224276D02*
X0178194Y0224276D01*
X0178194Y0224774D02*
X0177194Y0224774D01*
X0188694Y0383944D02*
X0188694Y0385444D01*
X0189694Y0385444D01*
X0189694Y0383944D01*
X0188694Y0383944D01*
X0188694Y0384298D02*
X0189694Y0384298D01*
X0189694Y0384796D02*
X0188694Y0384796D01*
X0188694Y0385295D02*
X0189694Y0385295D01*
X0177994Y0448744D02*
X0176994Y0448744D01*
X0176994Y0450244D01*
X0177994Y0450244D01*
X0177994Y0448744D01*
X0177994Y0449104D02*
X0176994Y0449104D01*
X0176994Y0449603D02*
X0177994Y0449603D01*
X0177994Y0450101D02*
X0176994Y0450101D01*
X0188294Y0489644D02*
X0188294Y0491144D01*
X0189294Y0491144D01*
X0189294Y0489644D01*
X0188294Y0489644D01*
X0188294Y0489982D02*
X0189294Y0489982D01*
X0189294Y0490481D02*
X0188294Y0490481D01*
X0188294Y0490979D02*
X0189294Y0490979D01*
X0180394Y0552744D02*
X0179394Y0552744D01*
X0179394Y0554244D01*
X0180394Y0554244D01*
X0180394Y0552744D01*
X0180394Y0552795D02*
X0179394Y0552795D01*
X0179394Y0553293D02*
X0180394Y0553293D01*
X0180394Y0553792D02*
X0179394Y0553792D01*
X0083244Y0326494D02*
X0083244Y0325494D01*
X0081744Y0325494D01*
X0081744Y0326494D01*
X0083244Y0326494D01*
X0083244Y0326470D02*
X0081744Y0326470D01*
X0081744Y0325972D02*
X0083244Y0325972D01*
D24*
X0127594Y0504494D03*
X0128294Y0519494D03*
X0141294Y0519494D03*
X0140594Y0504494D03*
D25*
X0137994Y0540794D03*
X0127994Y0540794D03*
X0117994Y0540794D03*
X0107994Y0540794D03*
X0080594Y0546094D03*
X0070594Y0546094D03*
D26*
X0243867Y0525242D03*
X0243867Y0517368D03*
X0243867Y0501620D03*
X0243867Y0493746D03*
X0265520Y0493746D03*
X0265520Y0501620D03*
X0265520Y0517368D03*
X0265520Y0525242D03*
D27*
X0254694Y0529179D03*
X0254694Y0489809D03*
D28*
X0084494Y0325994D03*
X0080494Y0325994D03*
X0076494Y0325994D03*
D29*
X0059635Y0100498D03*
X0059635Y0126089D03*
X0077352Y0126089D03*
X0077352Y0100498D03*
X0077452Y0257998D03*
X0077452Y0283589D03*
X0059735Y0283589D03*
X0059735Y0257998D03*
X0059235Y0415065D03*
X0059235Y0440656D03*
X0076952Y0440656D03*
X0076952Y0415065D03*
X0077452Y0572998D03*
X0077452Y0598589D03*
X0059735Y0598589D03*
X0059735Y0572998D03*
X0212835Y0573098D03*
X0212835Y0598689D03*
X0230552Y0598689D03*
X0230552Y0573098D03*
X0230552Y0440318D03*
X0212835Y0440318D03*
X0212835Y0414728D03*
X0230552Y0414728D03*
X0229652Y0284389D03*
X0229652Y0258798D03*
X0211935Y0258798D03*
X0211935Y0284389D03*
X0213035Y0125089D03*
X0230752Y0125089D03*
X0230752Y0099498D03*
X0213035Y0099498D03*
D30*
X0139994Y0477394D03*
X0136057Y0477394D03*
X0132120Y0477394D03*
X0128183Y0477394D03*
X0124246Y0477394D03*
X0120309Y0477394D03*
D31*
X0115191Y0486154D03*
X0145112Y0486154D03*
D32*
X0081491Y0482683D03*
X0081491Y0492683D03*
X0081491Y0502683D03*
X0081491Y0512683D03*
X0081491Y0522683D03*
X0081491Y0532683D03*
X0071491Y0532683D03*
X0071491Y0522683D03*
X0071491Y0512683D03*
X0071491Y0502683D03*
X0071491Y0492683D03*
X0071491Y0482683D03*
X0299405Y0482683D03*
X0309405Y0482683D03*
X0309405Y0492683D03*
X0309405Y0502683D03*
X0299405Y0502683D03*
X0299405Y0492683D03*
X0299405Y0512683D03*
X0299405Y0522683D03*
X0309405Y0522683D03*
X0309405Y0512683D03*
X0309405Y0532683D03*
X0299405Y0532683D03*
D33*
X0315704Y0513392D03*
X0318460Y0506699D03*
X0320428Y0502369D03*
X0323184Y0499613D03*
X0313594Y0458794D03*
X0296594Y0462794D03*
X0292594Y0462794D03*
X0290594Y0458794D03*
X0277594Y0470794D03*
X0282594Y0487794D03*
X0265594Y0508794D03*
X0246806Y0472447D03*
X0244711Y0475677D03*
X0232594Y0491794D03*
X0229594Y0488794D03*
X0226431Y0486631D03*
X0223269Y0484469D03*
X0216594Y0485794D03*
X0214129Y0490557D03*
X0211373Y0497250D03*
X0218594Y0502794D03*
X0210594Y0508794D03*
X0205861Y0506699D03*
X0201531Y0507093D03*
X0197200Y0516148D03*
X0201531Y0532746D03*
X0205861Y0536353D03*
X0215594Y0541794D03*
X0224594Y0532559D03*
X0224594Y0528794D03*
X0227515Y0524809D03*
X0232594Y0498739D03*
X0226594Y0475464D03*
X0227594Y0469794D03*
X0205468Y0477959D03*
X0197594Y0496857D03*
X0175153Y0516148D03*
X0169641Y0517723D03*
X0164129Y0522447D03*
X0170594Y0533794D03*
X0170049Y0544249D03*
X0172828Y0546794D03*
X0176594Y0547794D03*
X0168206Y0559182D03*
X0166283Y0542707D03*
X0155594Y0535794D03*
X0151594Y0523794D03*
X0133594Y0536109D03*
X0123184Y0548069D03*
X0103594Y0515794D03*
X0111594Y0511794D03*
X0120035Y0488589D03*
X0124365Y0472054D03*
X0132239Y0472054D03*
X0135594Y0490794D03*
X0150594Y0459730D03*
X0144594Y0454794D03*
X0150743Y0448431D03*
X0156255Y0453943D03*
X0161594Y0450794D03*
X0167594Y0450794D03*
X0171609Y0440951D03*
X0173609Y0436014D03*
X0166704Y0436046D03*
X0164948Y0430109D03*
X0162192Y0434865D03*
X0167279Y0423235D03*
X0172594Y0428794D03*
X0181452Y0440951D03*
X0184594Y0427794D03*
X0189720Y0441739D03*
X0175546Y0455124D03*
X0174280Y0464794D03*
X0167594Y0459794D03*
X0163594Y0484794D03*
X0162161Y0418117D03*
X0162594Y0407794D03*
X0163705Y0394682D03*
X0170594Y0403794D03*
X0164594Y0359794D03*
X0151594Y0359794D03*
X0136594Y0359794D03*
X0133594Y0353794D03*
X0118594Y0361578D03*
X0146019Y0409455D03*
X0178594Y0359794D03*
X0192594Y0360794D03*
X0207594Y0360794D03*
X0216594Y0358794D03*
X0221594Y0368794D03*
X0220828Y0375794D03*
X0218049Y0379339D03*
X0214283Y0378794D03*
X0211373Y0381502D03*
X0211828Y0391794D03*
X0215594Y0391794D03*
X0219594Y0390794D03*
X0223594Y0390794D03*
X0234594Y0395794D03*
X0238309Y0379509D03*
X0235699Y0376794D03*
X0231934Y0375794D03*
X0226594Y0374794D03*
X0225895Y0362095D03*
X0226334Y0340951D03*
X0229090Y0338195D03*
X0238539Y0338195D03*
X0226334Y0324022D03*
X0239326Y0309455D03*
X0239326Y0303156D03*
X0244838Y0303943D03*
X0220035Y0298431D03*
X0239594Y0241794D03*
X0223184Y0201975D03*
X0223184Y0185439D03*
X0201594Y0152794D03*
X0194594Y0154794D03*
X0184995Y0169691D03*
X0177121Y0187014D03*
X0169247Y0179140D03*
X0167279Y0174809D03*
X0159798Y0182290D03*
X0150594Y0178794D03*
X0146594Y0178794D03*
X0145594Y0153794D03*
X0142594Y0150794D03*
X0138594Y0140794D03*
X0116098Y0150400D03*
X0079594Y0085794D03*
X0162192Y0103943D03*
X0197594Y0066542D03*
X0225153Y0145282D03*
X0197200Y0185046D03*
X0197200Y0226384D03*
X0188932Y0226384D03*
X0167066Y0204613D03*
X0164594Y0210794D03*
X0214594Y0235794D03*
X0267672Y0156699D03*
X0303594Y0133794D03*
X0303816Y0122016D03*
X0321066Y0111424D03*
X0311594Y0171794D03*
X0290594Y0238794D03*
X0302403Y0256985D03*
X0323066Y0271904D03*
X0309594Y0349794D03*
X0293263Y0366148D03*
X0323972Y0385833D03*
X0323184Y0408668D03*
X0251594Y0359794D03*
X0240594Y0361794D03*
X0249594Y0383794D03*
X0230271Y0421266D03*
X0205594Y0414794D03*
X0204594Y0418559D03*
X0204594Y0422324D03*
X0204594Y0426090D03*
X0199594Y0396794D03*
X0105594Y0485794D03*
X0094594Y0477794D03*
X0081594Y0467794D03*
X0082633Y0462605D03*
X0073594Y0472794D03*
X0063594Y0464794D03*
X0069594Y0442794D03*
X0077594Y0406464D03*
X0082594Y0400794D03*
X0068594Y0392794D03*
X0076334Y0331502D03*
X0078594Y0242794D03*
X0092594Y0495794D03*
X0075153Y0507487D03*
X0062948Y0505124D03*
X0060192Y0510880D03*
X0057043Y0555912D03*
X0077594Y0561794D03*
X0092594Y0544794D03*
X0151594Y0559794D03*
X0163243Y0583094D03*
X0167009Y0583794D03*
X0169809Y0587579D03*
X0172349Y0584794D03*
X0171931Y0591131D03*
X0174594Y0593794D03*
X0180594Y0573794D03*
X0198594Y0566794D03*
X0202594Y0562794D03*
X0209594Y0561794D03*
X0217279Y0563786D03*
X0221594Y0584794D03*
X0245594Y0619794D03*
X0304594Y0583794D03*
X0324066Y0583865D03*
X0322791Y0575991D03*
X0320594Y0625794D03*
X0276728Y0076778D03*
M02*
