G75*
%MOIN*%
%OFA0B0*%
%FSLAX25Y25*%
%IPPOS*%
%LPD*%
%AMOC8*
5,1,8,0,0,1.08239X$1,22.5*
%
%ADD10R,0.06102X0.02362*%
%ADD11R,0.07087X0.04724*%
%ADD12R,0.07874X0.07874*%
%ADD13R,0.05118X0.06299*%
%ADD14R,0.04449X0.09606*%
%ADD15R,0.02608X0.02608*%
%ADD16R,0.01772X0.00787*%
%ADD17R,0.00787X0.01772*%
%ADD18R,0.03937X0.04331*%
%ADD19R,0.04331X0.03937*%
%ADD20R,0.03000X0.06000*%
%ADD21R,0.06299X0.05118*%
%ADD22R,0.05000X0.07500*%
%ADD23R,0.09843X0.04724*%
%ADD24R,0.02362X0.06102*%
%ADD25R,0.04724X0.07087*%
D10*
X0154594Y0103594D03*
X0154594Y0107531D03*
X0154594Y0111468D03*
X0154594Y0115405D03*
X0154594Y0119342D03*
X0154594Y0123279D03*
X0154594Y0261094D03*
X0154594Y0265031D03*
X0154594Y0268968D03*
X0154594Y0272905D03*
X0154594Y0276842D03*
X0154594Y0280779D03*
X0154594Y0418593D03*
X0154594Y0422530D03*
X0154594Y0426467D03*
X0154594Y0430404D03*
X0154594Y0434341D03*
X0154594Y0438278D03*
X0154594Y0576094D03*
X0154594Y0580031D03*
X0154594Y0583968D03*
X0154594Y0587905D03*
X0154594Y0591842D03*
X0154594Y0595779D03*
X0312394Y0595779D03*
X0312394Y0591842D03*
X0312394Y0587905D03*
X0312394Y0583968D03*
X0312394Y0580031D03*
X0312394Y0576094D03*
X0312394Y0438278D03*
X0312394Y0434341D03*
X0312394Y0430404D03*
X0312394Y0426467D03*
X0312394Y0422530D03*
X0312394Y0418593D03*
X0312394Y0280779D03*
X0312394Y0276842D03*
X0312394Y0272905D03*
X0312394Y0268968D03*
X0312394Y0265031D03*
X0312394Y0261094D03*
X0312394Y0123279D03*
X0312394Y0119342D03*
X0312394Y0115405D03*
X0312394Y0111468D03*
X0312394Y0107531D03*
X0312394Y0103594D03*
D11*
X0321154Y0098476D03*
X0321154Y0128397D03*
X0321154Y0255976D03*
X0321154Y0285897D03*
X0321154Y0413475D03*
X0321154Y0443397D03*
X0321154Y0570976D03*
X0321154Y0600897D03*
X0163354Y0600897D03*
X0163354Y0570976D03*
X0163354Y0443397D03*
X0163354Y0413475D03*
X0163354Y0285897D03*
X0163354Y0255976D03*
X0163354Y0128397D03*
X0163354Y0098476D03*
D12*
X0068494Y0098283D03*
X0068494Y0121905D03*
X0068454Y0255343D03*
X0068454Y0278965D03*
X0068078Y0411983D03*
X0068078Y0435605D03*
X0068594Y0570983D03*
X0068594Y0594605D03*
X0221794Y0595038D03*
X0221794Y0571416D03*
X0221694Y0441839D03*
X0221694Y0418217D03*
X0220806Y0280965D03*
X0220806Y0257343D03*
X0221994Y0120905D03*
X0221994Y0097283D03*
D13*
X0225054Y0139794D03*
X0232534Y0139794D03*
X0214734Y0139794D03*
X0207254Y0139794D03*
X0207654Y0298594D03*
X0215134Y0298594D03*
X0226254Y0298594D03*
X0233734Y0298594D03*
X0231154Y0456194D03*
X0238634Y0456194D03*
X0219534Y0456194D03*
X0212054Y0456194D03*
X0211272Y0612794D03*
X0218753Y0612794D03*
X0229154Y0613194D03*
X0236634Y0613194D03*
X0083834Y0613194D03*
X0076354Y0613194D03*
X0066634Y0613194D03*
X0059154Y0613194D03*
X0059254Y0456194D03*
X0066734Y0456194D03*
X0076454Y0456194D03*
X0083934Y0456194D03*
X0084434Y0298594D03*
X0076954Y0298594D03*
X0067134Y0298594D03*
X0059654Y0298594D03*
X0059254Y0139794D03*
X0066734Y0139794D03*
X0076054Y0139794D03*
X0083534Y0139794D03*
D14*
X0147836Y0316744D03*
X0157836Y0316744D03*
X0167836Y0316744D03*
X0177836Y0316744D03*
X0187836Y0316744D03*
X0197836Y0316744D03*
X0207836Y0316744D03*
X0217836Y0316744D03*
X0227836Y0316744D03*
X0237836Y0316744D03*
X0237836Y0350602D03*
X0227836Y0350602D03*
X0217836Y0350602D03*
X0207836Y0350602D03*
X0197836Y0350602D03*
X0187836Y0350602D03*
X0177836Y0350602D03*
X0167836Y0350602D03*
X0157836Y0350602D03*
X0147836Y0350602D03*
D15*
X0186985Y0409185D03*
X0186985Y0414402D03*
X0192202Y0414402D03*
X0192202Y0409185D03*
X0192202Y0521185D03*
X0186985Y0521185D03*
X0186985Y0526402D03*
X0192202Y0526402D03*
X0192202Y0197402D03*
X0192202Y0192185D03*
X0186985Y0192185D03*
X0186985Y0197402D03*
D16*
X0182606Y0197943D03*
X0182606Y0196369D03*
X0182606Y0194794D03*
X0182606Y0193219D03*
X0182606Y0191644D03*
X0182606Y0190069D03*
X0182606Y0199518D03*
X0196582Y0199518D03*
X0196582Y0197943D03*
X0196582Y0196369D03*
X0196582Y0194794D03*
X0196582Y0193219D03*
X0196582Y0191644D03*
X0196582Y0190069D03*
X0196582Y0407069D03*
X0196582Y0408644D03*
X0196582Y0410219D03*
X0196582Y0411794D03*
X0196582Y0413369D03*
X0196582Y0414943D03*
X0196582Y0416518D03*
X0182606Y0416518D03*
X0182606Y0414943D03*
X0182606Y0413369D03*
X0182606Y0411794D03*
X0182606Y0410219D03*
X0182606Y0408644D03*
X0182606Y0407069D03*
X0182606Y0519069D03*
X0182606Y0520644D03*
X0182606Y0522219D03*
X0182606Y0523794D03*
X0182606Y0525369D03*
X0182606Y0526943D03*
X0182606Y0528518D03*
X0196582Y0528518D03*
X0196582Y0526943D03*
X0196582Y0525369D03*
X0196582Y0523794D03*
X0196582Y0522219D03*
X0196582Y0520644D03*
X0196582Y0519069D03*
D17*
X0194318Y0516806D03*
X0192743Y0516806D03*
X0191169Y0516806D03*
X0189594Y0516806D03*
X0188019Y0516806D03*
X0186444Y0516806D03*
X0184869Y0516806D03*
X0184869Y0530782D03*
X0186444Y0530782D03*
X0188019Y0530782D03*
X0189594Y0530782D03*
X0191169Y0530782D03*
X0192743Y0530782D03*
X0194318Y0530782D03*
X0194318Y0418782D03*
X0192743Y0418782D03*
X0191169Y0418782D03*
X0189594Y0418782D03*
X0188019Y0418782D03*
X0186444Y0418782D03*
X0184869Y0418782D03*
X0184869Y0404806D03*
X0186444Y0404806D03*
X0188019Y0404806D03*
X0189594Y0404806D03*
X0191169Y0404806D03*
X0192743Y0404806D03*
X0194318Y0404806D03*
X0194318Y0201782D03*
X0192743Y0201782D03*
X0191169Y0201782D03*
X0189594Y0201782D03*
X0188019Y0201782D03*
X0186444Y0201782D03*
X0184869Y0201782D03*
X0184869Y0187806D03*
X0186444Y0187806D03*
X0188019Y0187806D03*
X0189594Y0187806D03*
X0191169Y0187806D03*
X0192743Y0187806D03*
X0194318Y0187806D03*
D18*
X0201397Y0164454D03*
X0201397Y0157761D03*
X0185184Y0158253D03*
X0185184Y0164946D03*
X0155623Y0191235D03*
X0155623Y0197928D03*
X0184814Y0223094D03*
X0184814Y0229787D03*
X0193082Y0229787D03*
X0193082Y0223094D03*
X0201350Y0223094D03*
X0201350Y0229787D03*
X0223035Y0197454D03*
X0223035Y0190761D03*
X0207094Y0381347D03*
X0207094Y0388040D03*
X0199294Y0388040D03*
X0199294Y0381347D03*
X0180394Y0381547D03*
X0180394Y0388240D03*
X0146394Y0394347D03*
X0146394Y0401040D03*
X0185894Y0445547D03*
X0185894Y0452240D03*
X0193494Y0452240D03*
X0193494Y0445547D03*
X0201594Y0445547D03*
X0201594Y0452240D03*
X0197494Y0484947D03*
X0197494Y0491640D03*
X0205777Y0491720D03*
X0205777Y0485028D03*
X0214216Y0519028D03*
X0214216Y0525720D03*
X0208931Y0550485D03*
X0208931Y0557178D03*
X0197669Y0557178D03*
X0197669Y0550485D03*
X0189414Y0550485D03*
X0189414Y0557178D03*
X0158506Y0526539D03*
X0158506Y0519846D03*
X0180694Y0491340D03*
X0180694Y0484647D03*
X0242794Y0397040D03*
X0242794Y0390347D03*
D19*
X0241447Y0368594D03*
X0248140Y0368594D03*
X0256447Y0368594D03*
X0263140Y0368594D03*
X0233140Y0368594D03*
X0226447Y0368594D03*
X0217140Y0368594D03*
X0210447Y0368594D03*
X0201140Y0368594D03*
X0194447Y0368594D03*
X0185140Y0368594D03*
X0178447Y0368594D03*
X0169140Y0368594D03*
X0162447Y0368594D03*
X0154140Y0368594D03*
X0147447Y0368594D03*
X0139140Y0368594D03*
X0132447Y0368594D03*
X0124140Y0368594D03*
X0117447Y0368594D03*
X0179647Y0459294D03*
X0186340Y0459294D03*
X0119440Y0504594D03*
X0112747Y0504594D03*
X0112847Y0519694D03*
X0119540Y0519694D03*
X0176553Y0236693D03*
X0183246Y0236693D03*
D20*
X0088754Y0340212D03*
X0088754Y0362212D03*
X0073754Y0362212D03*
X0073754Y0340212D03*
D21*
X0059919Y0346685D03*
X0059919Y0354165D03*
D22*
X0127594Y0504494D03*
X0128294Y0519494D03*
X0141294Y0519494D03*
X0140594Y0504494D03*
D23*
X0243867Y0501620D03*
X0243867Y0493746D03*
X0243867Y0517368D03*
X0243867Y0525242D03*
X0265520Y0525242D03*
X0265520Y0517368D03*
X0265520Y0501620D03*
X0265520Y0493746D03*
D24*
X0139994Y0477394D03*
X0136057Y0477394D03*
X0132120Y0477394D03*
X0128183Y0477394D03*
X0124246Y0477394D03*
X0120309Y0477394D03*
D25*
X0115191Y0486154D03*
X0145112Y0486154D03*
M02*
