%
M48
M72
T01C0.01378
T02C0.03543
T03C0.03937
T04C0.04000
%
T01
X79594Y85794
X116098Y150400
X138594Y140794
X142594Y150794
X145594Y153794
X146594Y178794
X150594Y178794
X159798Y182290
X169247Y179140
X167279Y174809
X177121Y187014
X184995Y169691
X194594Y154794
X201594Y152794
X197200Y185046
X223184Y185439
X223184Y201975
X214594Y235794
X197200Y226384
X188932Y226384
X167066Y204613
X164594Y210794
X220035Y298431
X226334Y324022
X229090Y338195
X226334Y340951
X238539Y338195
X240594Y361794
X235699Y376794
X238309Y379509
X231934Y375794
X226594Y374794
X220828Y375794
X218049Y379339
X214283Y378794
X211373Y381502
X211828Y391794
X215594Y391794
X219594Y390794
X223594Y390794
X234594Y395794
X249594Y383794
X251594Y359794
X225895Y362095
X221594Y368794
X216594Y358794
X207594Y360794
X192594Y360794
X178594Y359794
X164594Y359794
X151594Y359794
X136594Y359794
X133594Y353794
X118594Y361578
X146019Y409455
X162594Y407794
X162161Y418117
X164948Y430109
X162192Y434865
X166704Y436046
X173609Y436014
X171609Y440951
X167594Y450794
X161594Y450794
X156255Y453943
X150743Y448431
X144594Y454794
X150594Y459730
X163594Y484794
X174280Y464794
X175546Y455124
X167594Y459794
X181452Y440951
X184594Y427794
X189720Y441739
X204594Y426090
X204594Y422324
X204594Y418559
X205594Y414794
X199594Y396794
X170594Y403794
X163705Y394682
X167279Y423235
X172594Y428794
X205468Y477959
X214129Y490557
X216594Y485794
X223269Y484469
X226431Y486631
X229594Y488794
X232594Y491794
X232594Y498739
X227515Y524809
X224594Y528794
X224594Y532559
X215594Y541794
X205861Y536353
X201531Y532746
X197200Y516148
X201531Y507093
X205861Y506699
X210594Y508794
X218594Y502794
X211373Y497250
X197594Y496857
X175153Y516148
X169641Y517723
X164129Y522447
X170594Y533794
X170049Y544249
X172828Y546794
X176594Y547794
X168206Y559182
X166283Y542707
X155594Y535794
X151594Y523794
X133594Y536109
X123184Y548069
X103594Y515794
X111594Y511794
X120035Y488589
X124365Y472054
X132239Y472054
X135594Y490794
X105594Y485794
X94594Y477794
X81594Y467794
X82633Y462605
X73594Y472794
X63594Y464794
X69594Y442794
X77594Y406464
X82594Y400794
X68594Y392794
X76334Y331502
X78594Y242794
X162192Y103943
X197594Y66542
X225153Y145282
X267672Y156699
X303594Y133794
X303816Y122016
X321066Y111424
X311594Y171794
X290594Y238794
X302403Y256985
X323066Y271904
X309594Y349794
X293263Y366148
X323972Y385833
X323184Y408668
X313594Y458794
X296594Y462794
X292594Y462794
X290594Y458794
X277594Y470794
X282594Y487794
X265594Y508794
X246806Y472447
X244711Y475677
X227594Y469794
X226594Y475464
X230271Y421266
X239326Y309455
X239326Y303156
X244838Y303943
X239594Y241794
X276728Y76778
X92594Y495794
X75153Y507487
X62948Y505124
X60192Y510880
X57043Y555912
X77594Y561794
X92594Y544794
X151594Y559794
X163243Y583094
X167009Y583794
X169809Y587579
X172349Y584794
X171931Y591131
X174594Y593794
X180594Y573794
X198594Y566794
X202594Y562794
X209594Y561794
X217279Y563786
X221594Y584794
X245594Y619794
X304594Y583794
X324066Y583865
X322791Y575991
X320594Y625794
X315704Y513392
X318460Y506699
X320428Y502369
X323184Y499613
T02
X254694Y489809
X254694Y529179
T03
X59635Y100498
X59635Y126089
X77352Y126089
X77352Y100498
X77452Y257998
X77452Y283589
X59735Y283589
X59735Y257998
X59235Y415065
X59235Y440656
X76952Y440656
X76952Y415065
X107994Y540794
X117994Y540794
X127994Y540794
X137994Y540794
X80594Y546094
X70594Y546094
X77452Y572998
X77452Y598589
X59735Y598589
X59735Y572998
X212835Y573098
X212835Y598689
X230552Y598689
X230552Y573098
X230552Y440318
X212835Y440318
X212835Y414728
X230552Y414728
X229652Y284389
X229652Y258798
X211935Y258798
X211935Y284389
X213035Y125089
X230752Y125089
X230752Y99498
X213035Y99498
T04
X299405Y482683
X309405Y482683
X309405Y492683
X309405Y502683
X299405Y502683
X299405Y492683
X299405Y512683
X299405Y522683
X309405Y522683
X309405Y512683
X309405Y532683
X299405Y532683
X81491Y532683
X81491Y522683
X81491Y512683
X81491Y502683
X81491Y492683
X81491Y482683
X71491Y482683
X71491Y492683
X71491Y502683
X71491Y512683
X71491Y522683
X71491Y532683
M30
