G04 EAGLE Gerber RS-274X export*
G75*
%MOMM*%
%FSLAX34Y34*%
%LPD*%
%INTop Paste*%
%IPPOS*%
%AMOC8*
5,1,8,0,0,1.08239X$1,22.5*%
G01*
%ADD10R,1.550000X0.600000*%
%ADD11R,1.800000X1.200000*%
%ADD12R,2.000000X2.000000*%
%ADD13R,1.300000X1.600000*%
%ADD14R,1.130000X2.440000*%
%ADD15R,0.662500X0.662500*%
%ADD16R,0.450000X0.200000*%
%ADD17R,0.200000X0.450000*%
%ADD18R,1.000000X1.100000*%
%ADD19R,1.100000X1.000000*%
%ADD20R,0.762000X1.524000*%
%ADD21R,1.600000X1.300000*%
%ADD22R,1.270000X1.905000*%
%ADD23R,2.500000X1.200000*%
%ADD24R,0.600000X1.550000*%
%ADD25R,1.200000X1.800000*%


D10*
X672592Y134112D03*
X672592Y144112D03*
X672592Y154112D03*
X672592Y164112D03*
X672592Y174112D03*
X672592Y184112D03*
D11*
X694842Y121112D03*
X694842Y197112D03*
D10*
X271780Y134112D03*
X271780Y144112D03*
X271780Y154112D03*
X271780Y164112D03*
X271780Y174112D03*
X271780Y184112D03*
D11*
X294030Y121112D03*
X294030Y197112D03*
D10*
X672592Y534162D03*
X672592Y544162D03*
X672592Y554162D03*
X672592Y564162D03*
X672592Y574162D03*
X672592Y584162D03*
D11*
X694842Y521162D03*
X694842Y597162D03*
D10*
X271780Y534162D03*
X271780Y544162D03*
X271780Y554162D03*
X271780Y564162D03*
X271780Y574162D03*
X271780Y584162D03*
D11*
X294030Y521162D03*
X294030Y597162D03*
D10*
X672592Y934211D03*
X672592Y944211D03*
X672592Y954211D03*
X672592Y964211D03*
X672592Y974211D03*
X672592Y984211D03*
D11*
X694842Y921211D03*
X694842Y997211D03*
D12*
X442214Y933254D03*
X442214Y993254D03*
X52030Y917420D03*
X52030Y977420D03*
X442468Y1322380D03*
X442468Y1382380D03*
X53340Y1321280D03*
X53340Y1381280D03*
D13*
X424536Y226060D03*
X405536Y226060D03*
X48616Y226060D03*
X29616Y226060D03*
X425552Y629412D03*
X406552Y629412D03*
X30632Y629412D03*
X49632Y629412D03*
X436728Y1029716D03*
X417728Y1029716D03*
X48616Y1029716D03*
X29616Y1029716D03*
X480162Y1428496D03*
X461162Y1428496D03*
X48362Y1428496D03*
X29362Y1428496D03*
D12*
X442976Y118082D03*
X442976Y178082D03*
X53086Y120622D03*
X53086Y180622D03*
X439960Y524634D03*
X439960Y584634D03*
X52986Y519554D03*
X52986Y579554D03*
D14*
X254616Y675514D03*
X280016Y675514D03*
X305416Y675514D03*
X330816Y675514D03*
X356216Y675514D03*
X381616Y675514D03*
X407016Y675514D03*
X432416Y675514D03*
X457816Y675514D03*
X483216Y675514D03*
X483216Y761514D03*
X457816Y761514D03*
X432416Y761514D03*
X407016Y761514D03*
X381616Y761514D03*
X356216Y761514D03*
X330816Y761514D03*
X305416Y761514D03*
X280016Y761514D03*
X254616Y761514D03*
D15*
X354055Y359135D03*
X367305Y372385D03*
X354055Y372385D03*
X367305Y359135D03*
D16*
X342930Y377760D03*
X342930Y373760D03*
X342930Y369760D03*
X342930Y365760D03*
X342930Y361760D03*
X342930Y357760D03*
X342930Y353760D03*
D17*
X348680Y348010D03*
X352680Y348010D03*
X356680Y348010D03*
X360680Y348010D03*
X364680Y348010D03*
X368680Y348010D03*
X372680Y348010D03*
D16*
X378430Y353760D03*
X378430Y357760D03*
X378430Y361760D03*
X378430Y365760D03*
X378430Y369760D03*
X378430Y373760D03*
X378430Y377760D03*
D17*
X372680Y383510D03*
X368680Y383510D03*
X364680Y383510D03*
X360680Y383510D03*
X356680Y383510D03*
X352680Y383510D03*
X348680Y383510D03*
D18*
X274394Y356722D03*
X274394Y373722D03*
X390660Y288696D03*
X390660Y271696D03*
X445622Y372516D03*
X445622Y355516D03*
X390540Y437642D03*
X390540Y454642D03*
X369540Y437642D03*
X369540Y454642D03*
X348540Y437642D03*
X348540Y454642D03*
X349480Y289946D03*
X349480Y272946D03*
D19*
X327556Y472184D03*
X344556Y472184D03*
D15*
X354055Y1194795D03*
X367305Y1208045D03*
X354055Y1208045D03*
X367305Y1194795D03*
D16*
X342930Y1213420D03*
X342930Y1209420D03*
X342930Y1205420D03*
X342930Y1201420D03*
X342930Y1197420D03*
X342930Y1193420D03*
X342930Y1189420D03*
D17*
X348680Y1183670D03*
X352680Y1183670D03*
X356680Y1183670D03*
X360680Y1183670D03*
X364680Y1183670D03*
X368680Y1183670D03*
X372680Y1183670D03*
D16*
X378430Y1189420D03*
X378430Y1193420D03*
X378430Y1197420D03*
X378430Y1201420D03*
X378430Y1205420D03*
X378430Y1209420D03*
X378430Y1213420D03*
D17*
X372680Y1219170D03*
X368680Y1219170D03*
X364680Y1219170D03*
X360680Y1219170D03*
X356680Y1219170D03*
X352680Y1219170D03*
X348680Y1219170D03*
D18*
X401786Y1119954D03*
X401786Y1102954D03*
X281716Y1191394D03*
X281716Y1208394D03*
X423220Y1206314D03*
X423220Y1189314D03*
X409796Y1269216D03*
X409796Y1286216D03*
X381192Y1269216D03*
X381192Y1286216D03*
X360224Y1269216D03*
X360224Y1286216D03*
X338074Y1118988D03*
X338074Y1101988D03*
X380746Y1102750D03*
X380746Y1119750D03*
D20*
X104548Y791002D03*
X104548Y735122D03*
X66448Y791002D03*
X66448Y735122D03*
D21*
X31306Y751564D03*
X31306Y770564D03*
D15*
X354055Y910315D03*
X367305Y923565D03*
X354055Y923565D03*
X367305Y910315D03*
D16*
X342930Y928940D03*
X342930Y924940D03*
X342930Y920940D03*
X342930Y916940D03*
X342930Y912940D03*
X342930Y908940D03*
X342930Y904940D03*
D17*
X348680Y899190D03*
X352680Y899190D03*
X356680Y899190D03*
X360680Y899190D03*
X364680Y899190D03*
X368680Y899190D03*
X372680Y899190D03*
D16*
X378430Y904940D03*
X378430Y908940D03*
X378430Y912940D03*
X378430Y916940D03*
X378430Y920940D03*
X378430Y924940D03*
X378430Y928940D03*
D17*
X372680Y934690D03*
X368680Y934690D03*
X364680Y934690D03*
X360680Y934690D03*
X356680Y934690D03*
X352680Y934690D03*
X348680Y934690D03*
D18*
X495808Y879466D03*
X495808Y862466D03*
X405130Y866766D03*
X405130Y849766D03*
X250952Y872626D03*
X250952Y889626D03*
X391160Y1002674D03*
X391160Y1019674D03*
X370586Y1002674D03*
X370586Y1019674D03*
X351282Y1002674D03*
X351282Y1019674D03*
X337312Y867274D03*
X337312Y850274D03*
X385318Y849766D03*
X385318Y866766D03*
D19*
X335416Y1037590D03*
X352416Y1037590D03*
D22*
X203200Y1152398D03*
X236220Y1152398D03*
D19*
X182744Y1152906D03*
X165744Y1152906D03*
D22*
X204978Y1190498D03*
X237998Y1190498D03*
D19*
X182490Y1190752D03*
X165490Y1190752D03*
X232528Y807212D03*
X215528Y807212D03*
X308728Y807212D03*
X291728Y807212D03*
X349368Y807212D03*
X332368Y807212D03*
X390008Y807212D03*
X373008Y807212D03*
X430648Y807212D03*
X413648Y807212D03*
X471288Y807212D03*
X454288Y807212D03*
X509388Y807212D03*
X492388Y807212D03*
X547488Y807212D03*
X530488Y807212D03*
X270628Y807212D03*
X253628Y807212D03*
X194428Y807212D03*
X177428Y807212D03*
D23*
X553534Y1125098D03*
X553534Y1145098D03*
X553534Y1185098D03*
X553534Y1205098D03*
X498534Y1125098D03*
X498534Y1145098D03*
X498534Y1185098D03*
X498534Y1205098D03*
D13*
X450748Y226060D03*
X469748Y226060D03*
X72288Y226060D03*
X91288Y226060D03*
X453796Y629412D03*
X472796Y629412D03*
X74574Y629412D03*
X93574Y629412D03*
X466242Y1029716D03*
X485242Y1029716D03*
X73304Y1029716D03*
X92304Y1029716D03*
X415744Y1427480D03*
X434744Y1427480D03*
X73050Y1428496D03*
X92050Y1428496D03*
D10*
X672592Y1334262D03*
X672592Y1344262D03*
X672592Y1354262D03*
X672592Y1364262D03*
X672592Y1374262D03*
X672592Y1384262D03*
D11*
X694842Y1321262D03*
X694842Y1397262D03*
D10*
X271780Y934211D03*
X271780Y944211D03*
X271780Y954211D03*
X271780Y964211D03*
X271780Y974211D03*
X271780Y984211D03*
D11*
X294030Y921211D03*
X294030Y997211D03*
D10*
X271780Y1334262D03*
X271780Y1344262D03*
X271780Y1354262D03*
X271780Y1364262D03*
X271780Y1374262D03*
X271780Y1384262D03*
D11*
X294030Y1321262D03*
X294030Y1397262D03*
D24*
X234696Y1083564D03*
X224696Y1083564D03*
X214696Y1083564D03*
X204696Y1083564D03*
X194696Y1083564D03*
X184696Y1083564D03*
D25*
X247696Y1105814D03*
X171696Y1105814D03*
M02*
