G04 EAGLE Gerber RS-274X export*
G75*
%MOMM*%
%FSLAX34Y34*%
%LPD*%
%INTop Soldermask*%
%IPPOS*%
%AMOC8*
5,1,8,0,0,1.08239X$1,22.5*%
G01*
%ADD10R,1.753200X0.803200*%
%ADD11R,2.003200X1.403200*%
%ADD12R,2.203200X2.203200*%
%ADD13R,1.503200X1.803200*%
%ADD14R,1.333200X2.643200*%
%ADD15R,1.053200X0.403200*%
%ADD16R,0.403200X1.053200*%
%ADD17R,2.853200X2.853200*%
%ADD18R,1.203200X1.303200*%
%ADD19R,1.303200X1.203200*%
%ADD20R,0.965200X1.727200*%
%ADD21R,1.803200X1.503200*%
%ADD22R,1.473200X0.838200*%
%ADD23R,1.473200X2.108200*%
%ADD24C,1.879600*%
%ADD25R,2.703200X1.403200*%
%ADD26C,1.103200*%
%ADD27R,0.838200X1.473200*%
%ADD28C,1.812800*%
%ADD29R,0.803200X1.753200*%
%ADD30R,1.403200X2.003200*%
%ADD31C,2.082800*%

G36*
X337377Y1274330D02*
X337377Y1274330D01*
X337443Y1274332D01*
X337486Y1274350D01*
X337533Y1274358D01*
X337590Y1274392D01*
X337650Y1274417D01*
X337685Y1274448D01*
X337726Y1274473D01*
X337768Y1274524D01*
X337816Y1274568D01*
X337838Y1274610D01*
X337867Y1274647D01*
X337888Y1274709D01*
X337919Y1274768D01*
X337927Y1274822D01*
X337939Y1274859D01*
X337938Y1274899D01*
X337946Y1274953D01*
X337946Y1278763D01*
X337935Y1278828D01*
X337933Y1278894D01*
X337915Y1278937D01*
X337907Y1278984D01*
X337873Y1279041D01*
X337848Y1279101D01*
X337817Y1279136D01*
X337792Y1279177D01*
X337741Y1279219D01*
X337697Y1279267D01*
X337655Y1279289D01*
X337618Y1279318D01*
X337556Y1279339D01*
X337497Y1279370D01*
X337443Y1279378D01*
X337406Y1279390D01*
X337366Y1279389D01*
X337312Y1279397D01*
X334772Y1279397D01*
X334707Y1279386D01*
X334641Y1279384D01*
X334598Y1279366D01*
X334551Y1279358D01*
X334494Y1279324D01*
X334434Y1279299D01*
X334399Y1279268D01*
X334358Y1279243D01*
X334317Y1279192D01*
X334268Y1279148D01*
X334246Y1279106D01*
X334217Y1279069D01*
X334196Y1279007D01*
X334165Y1278948D01*
X334157Y1278894D01*
X334145Y1278857D01*
X334145Y1278853D01*
X334145Y1278852D01*
X334146Y1278817D01*
X334138Y1278763D01*
X334138Y1274953D01*
X334149Y1274888D01*
X334151Y1274822D01*
X334169Y1274779D01*
X334177Y1274732D01*
X334211Y1274675D01*
X334236Y1274615D01*
X334267Y1274580D01*
X334292Y1274539D01*
X334343Y1274498D01*
X334387Y1274449D01*
X334429Y1274427D01*
X334466Y1274398D01*
X334528Y1274377D01*
X334587Y1274346D01*
X334641Y1274338D01*
X334678Y1274326D01*
X334718Y1274327D01*
X334772Y1274319D01*
X337312Y1274319D01*
X337377Y1274330D01*
G37*
G36*
X359983Y1114056D02*
X359983Y1114056D01*
X360049Y1114058D01*
X360092Y1114076D01*
X360139Y1114084D01*
X360196Y1114118D01*
X360256Y1114143D01*
X360291Y1114174D01*
X360332Y1114199D01*
X360374Y1114250D01*
X360422Y1114294D01*
X360444Y1114336D01*
X360473Y1114373D01*
X360494Y1114435D01*
X360525Y1114494D01*
X360533Y1114548D01*
X360545Y1114585D01*
X360544Y1114625D01*
X360552Y1114679D01*
X360552Y1118489D01*
X360541Y1118554D01*
X360539Y1118620D01*
X360521Y1118663D01*
X360513Y1118710D01*
X360479Y1118767D01*
X360454Y1118827D01*
X360423Y1118862D01*
X360398Y1118903D01*
X360347Y1118945D01*
X360303Y1118993D01*
X360261Y1119015D01*
X360224Y1119044D01*
X360162Y1119065D01*
X360103Y1119096D01*
X360049Y1119104D01*
X360012Y1119116D01*
X359972Y1119115D01*
X359918Y1119123D01*
X357378Y1119123D01*
X357313Y1119112D01*
X357247Y1119110D01*
X357204Y1119092D01*
X357157Y1119084D01*
X357100Y1119050D01*
X357040Y1119025D01*
X357005Y1118994D01*
X356964Y1118969D01*
X356923Y1118918D01*
X356874Y1118874D01*
X356852Y1118832D01*
X356823Y1118795D01*
X356802Y1118733D01*
X356771Y1118674D01*
X356763Y1118620D01*
X356751Y1118583D01*
X356751Y1118579D01*
X356751Y1118578D01*
X356752Y1118543D01*
X356744Y1118489D01*
X356744Y1114679D01*
X356755Y1114614D01*
X356757Y1114548D01*
X356775Y1114505D01*
X356783Y1114458D01*
X356817Y1114401D01*
X356842Y1114341D01*
X356873Y1114306D01*
X356898Y1114265D01*
X356949Y1114224D01*
X356993Y1114175D01*
X357035Y1114153D01*
X357072Y1114124D01*
X357134Y1114103D01*
X357193Y1114072D01*
X357247Y1114064D01*
X357284Y1114052D01*
X357324Y1114053D01*
X357378Y1114045D01*
X359918Y1114045D01*
X359983Y1114056D01*
G37*
G36*
X331281Y1010170D02*
X331281Y1010170D01*
X331347Y1010172D01*
X331390Y1010190D01*
X331437Y1010198D01*
X331494Y1010232D01*
X331554Y1010257D01*
X331589Y1010288D01*
X331630Y1010313D01*
X331672Y1010364D01*
X331720Y1010408D01*
X331742Y1010450D01*
X331771Y1010487D01*
X331792Y1010549D01*
X331823Y1010608D01*
X331831Y1010662D01*
X331843Y1010699D01*
X331842Y1010739D01*
X331850Y1010793D01*
X331850Y1014603D01*
X331839Y1014668D01*
X331837Y1014734D01*
X331819Y1014777D01*
X331811Y1014824D01*
X331777Y1014881D01*
X331752Y1014941D01*
X331721Y1014976D01*
X331696Y1015017D01*
X331645Y1015059D01*
X331601Y1015107D01*
X331559Y1015129D01*
X331522Y1015158D01*
X331460Y1015179D01*
X331401Y1015210D01*
X331347Y1015218D01*
X331310Y1015230D01*
X331270Y1015229D01*
X331216Y1015237D01*
X328676Y1015237D01*
X328611Y1015226D01*
X328545Y1015224D01*
X328502Y1015206D01*
X328455Y1015198D01*
X328398Y1015164D01*
X328338Y1015139D01*
X328303Y1015108D01*
X328262Y1015083D01*
X328221Y1015032D01*
X328172Y1014988D01*
X328150Y1014946D01*
X328121Y1014909D01*
X328100Y1014847D01*
X328069Y1014788D01*
X328061Y1014734D01*
X328049Y1014697D01*
X328049Y1014693D01*
X328049Y1014692D01*
X328050Y1014657D01*
X328042Y1014603D01*
X328042Y1010793D01*
X328053Y1010728D01*
X328055Y1010662D01*
X328073Y1010619D01*
X328081Y1010572D01*
X328115Y1010515D01*
X328140Y1010455D01*
X328171Y1010420D01*
X328196Y1010379D01*
X328247Y1010338D01*
X328291Y1010289D01*
X328333Y1010267D01*
X328370Y1010238D01*
X328432Y1010217D01*
X328491Y1010186D01*
X328545Y1010178D01*
X328582Y1010166D01*
X328622Y1010167D01*
X328676Y1010159D01*
X331216Y1010159D01*
X331281Y1010170D01*
G37*
G36*
X360999Y850658D02*
X360999Y850658D01*
X361065Y850660D01*
X361108Y850678D01*
X361155Y850686D01*
X361212Y850720D01*
X361272Y850745D01*
X361307Y850776D01*
X361348Y850801D01*
X361390Y850852D01*
X361438Y850896D01*
X361460Y850938D01*
X361489Y850975D01*
X361510Y851037D01*
X361541Y851096D01*
X361549Y851150D01*
X361561Y851187D01*
X361560Y851227D01*
X361568Y851281D01*
X361568Y855091D01*
X361557Y855156D01*
X361555Y855222D01*
X361537Y855265D01*
X361529Y855312D01*
X361495Y855369D01*
X361470Y855429D01*
X361439Y855464D01*
X361414Y855505D01*
X361363Y855547D01*
X361319Y855595D01*
X361277Y855617D01*
X361240Y855646D01*
X361178Y855667D01*
X361119Y855698D01*
X361065Y855706D01*
X361028Y855718D01*
X360988Y855717D01*
X360934Y855725D01*
X358394Y855725D01*
X358329Y855714D01*
X358263Y855712D01*
X358220Y855694D01*
X358173Y855686D01*
X358116Y855652D01*
X358056Y855627D01*
X358021Y855596D01*
X357980Y855571D01*
X357939Y855520D01*
X357890Y855476D01*
X357868Y855434D01*
X357839Y855397D01*
X357818Y855335D01*
X357787Y855276D01*
X357779Y855222D01*
X357767Y855185D01*
X357767Y855181D01*
X357767Y855180D01*
X357768Y855145D01*
X357760Y855091D01*
X357760Y851281D01*
X357771Y851216D01*
X357773Y851150D01*
X357791Y851107D01*
X357799Y851060D01*
X357833Y851003D01*
X357858Y850943D01*
X357889Y850908D01*
X357914Y850867D01*
X357965Y850826D01*
X358009Y850777D01*
X358051Y850755D01*
X358088Y850726D01*
X358150Y850705D01*
X358209Y850674D01*
X358263Y850666D01*
X358300Y850654D01*
X358340Y850655D01*
X358394Y850647D01*
X360934Y850647D01*
X360999Y850658D01*
G37*
G36*
X371921Y279158D02*
X371921Y279158D01*
X371987Y279160D01*
X372030Y279178D01*
X372077Y279186D01*
X372134Y279220D01*
X372194Y279245D01*
X372229Y279276D01*
X372270Y279301D01*
X372312Y279352D01*
X372360Y279396D01*
X372382Y279438D01*
X372411Y279475D01*
X372432Y279537D01*
X372463Y279596D01*
X372471Y279650D01*
X372483Y279687D01*
X372482Y279727D01*
X372490Y279781D01*
X372490Y283591D01*
X372479Y283656D01*
X372477Y283722D01*
X372459Y283765D01*
X372451Y283812D01*
X372417Y283869D01*
X372392Y283929D01*
X372361Y283964D01*
X372336Y284005D01*
X372285Y284047D01*
X372241Y284095D01*
X372199Y284117D01*
X372162Y284146D01*
X372100Y284167D01*
X372041Y284198D01*
X371987Y284206D01*
X371950Y284218D01*
X371910Y284217D01*
X371856Y284225D01*
X369316Y284225D01*
X369251Y284214D01*
X369185Y284212D01*
X369142Y284194D01*
X369095Y284186D01*
X369038Y284152D01*
X368978Y284127D01*
X368943Y284096D01*
X368902Y284071D01*
X368861Y284020D01*
X368812Y283976D01*
X368790Y283934D01*
X368761Y283897D01*
X368740Y283835D01*
X368709Y283776D01*
X368701Y283722D01*
X368689Y283685D01*
X368689Y283681D01*
X368689Y283680D01*
X368690Y283645D01*
X368682Y283591D01*
X368682Y279781D01*
X368693Y279716D01*
X368695Y279650D01*
X368713Y279607D01*
X368721Y279560D01*
X368755Y279503D01*
X368780Y279443D01*
X368811Y279408D01*
X368836Y279367D01*
X368887Y279326D01*
X368931Y279277D01*
X368973Y279255D01*
X369010Y279226D01*
X369072Y279205D01*
X369131Y279174D01*
X369185Y279166D01*
X369222Y279154D01*
X369262Y279155D01*
X369316Y279147D01*
X371856Y279147D01*
X371921Y279158D01*
G37*
G36*
X331789Y438670D02*
X331789Y438670D01*
X331855Y438672D01*
X331898Y438690D01*
X331945Y438698D01*
X332002Y438732D01*
X332062Y438757D01*
X332097Y438788D01*
X332138Y438813D01*
X332180Y438864D01*
X332228Y438908D01*
X332250Y438950D01*
X332279Y438987D01*
X332300Y439049D01*
X332331Y439108D01*
X332339Y439162D01*
X332351Y439199D01*
X332350Y439239D01*
X332358Y439293D01*
X332358Y443103D01*
X332347Y443168D01*
X332345Y443234D01*
X332327Y443277D01*
X332319Y443324D01*
X332285Y443381D01*
X332260Y443441D01*
X332229Y443476D01*
X332204Y443517D01*
X332153Y443559D01*
X332109Y443607D01*
X332067Y443629D01*
X332030Y443658D01*
X331968Y443679D01*
X331909Y443710D01*
X331855Y443718D01*
X331818Y443730D01*
X331778Y443729D01*
X331724Y443737D01*
X329184Y443737D01*
X329119Y443726D01*
X329053Y443724D01*
X329010Y443706D01*
X328963Y443698D01*
X328906Y443664D01*
X328846Y443639D01*
X328811Y443608D01*
X328770Y443583D01*
X328729Y443532D01*
X328680Y443488D01*
X328658Y443446D01*
X328629Y443409D01*
X328608Y443347D01*
X328577Y443288D01*
X328569Y443234D01*
X328557Y443197D01*
X328557Y443193D01*
X328557Y443192D01*
X328558Y443157D01*
X328550Y443103D01*
X328550Y439293D01*
X328561Y439228D01*
X328563Y439162D01*
X328581Y439119D01*
X328589Y439072D01*
X328623Y439015D01*
X328648Y438955D01*
X328679Y438920D01*
X328704Y438879D01*
X328755Y438838D01*
X328799Y438789D01*
X328841Y438767D01*
X328878Y438738D01*
X328940Y438717D01*
X328999Y438686D01*
X329053Y438678D01*
X329090Y438666D01*
X329130Y438667D01*
X329184Y438659D01*
X331724Y438659D01*
X331789Y438670D01*
G37*
G36*
X90616Y697115D02*
X90616Y697115D01*
X90682Y697117D01*
X90725Y697135D01*
X90772Y697143D01*
X90829Y697177D01*
X90889Y697202D01*
X90924Y697233D01*
X90965Y697258D01*
X91007Y697309D01*
X91055Y697353D01*
X91077Y697395D01*
X91106Y697432D01*
X91127Y697494D01*
X91158Y697553D01*
X91166Y697607D01*
X91178Y697644D01*
X91177Y697684D01*
X91185Y697738D01*
X91185Y700278D01*
X91174Y700343D01*
X91172Y700409D01*
X91154Y700452D01*
X91146Y700499D01*
X91112Y700556D01*
X91087Y700616D01*
X91056Y700651D01*
X91031Y700692D01*
X90980Y700734D01*
X90936Y700782D01*
X90894Y700804D01*
X90857Y700833D01*
X90795Y700854D01*
X90736Y700885D01*
X90682Y700893D01*
X90645Y700905D01*
X90605Y700904D01*
X90551Y700912D01*
X86741Y700912D01*
X86676Y700901D01*
X86610Y700899D01*
X86567Y700881D01*
X86520Y700873D01*
X86463Y700839D01*
X86403Y700814D01*
X86368Y700783D01*
X86327Y700758D01*
X86286Y700707D01*
X86237Y700663D01*
X86215Y700621D01*
X86186Y700584D01*
X86165Y700522D01*
X86134Y700463D01*
X86126Y700409D01*
X86114Y700372D01*
X86114Y700369D01*
X86115Y700332D01*
X86107Y700278D01*
X86107Y697738D01*
X86118Y697673D01*
X86120Y697607D01*
X86138Y697564D01*
X86146Y697517D01*
X86180Y697460D01*
X86205Y697400D01*
X86236Y697365D01*
X86261Y697324D01*
X86312Y697283D01*
X86356Y697234D01*
X86398Y697212D01*
X86435Y697183D01*
X86497Y697162D01*
X86556Y697131D01*
X86610Y697123D01*
X86647Y697111D01*
X86687Y697112D01*
X86741Y697104D01*
X90551Y697104D01*
X90616Y697115D01*
G37*
D10*
X672592Y134112D03*
X672592Y144112D03*
X672592Y154112D03*
X672592Y164112D03*
X672592Y174112D03*
X672592Y184112D03*
D11*
X694842Y121112D03*
X694842Y197112D03*
D10*
X271780Y134112D03*
X271780Y144112D03*
X271780Y154112D03*
X271780Y164112D03*
X271780Y174112D03*
X271780Y184112D03*
D11*
X294030Y121112D03*
X294030Y197112D03*
D10*
X672592Y534162D03*
X672592Y544162D03*
X672592Y554162D03*
X672592Y564162D03*
X672592Y574162D03*
X672592Y584162D03*
D11*
X694842Y521162D03*
X694842Y597162D03*
D10*
X271780Y534162D03*
X271780Y544162D03*
X271780Y554162D03*
X271780Y564162D03*
X271780Y574162D03*
X271780Y584162D03*
D11*
X294030Y521162D03*
X294030Y597162D03*
D10*
X672592Y934211D03*
X672592Y944211D03*
X672592Y954211D03*
X672592Y964211D03*
X672592Y974211D03*
X672592Y984211D03*
D11*
X694842Y921211D03*
X694842Y997211D03*
D12*
X442214Y933254D03*
X442214Y993254D03*
X52030Y917420D03*
X52030Y977420D03*
X442468Y1322380D03*
X442468Y1382380D03*
X53340Y1321280D03*
X53340Y1381280D03*
D13*
X424536Y226060D03*
X405536Y226060D03*
X48616Y226060D03*
X29616Y226060D03*
X425552Y629412D03*
X406552Y629412D03*
X30632Y629412D03*
X49632Y629412D03*
X436728Y1029716D03*
X417728Y1029716D03*
X48616Y1029716D03*
X29616Y1029716D03*
X480162Y1428496D03*
X461162Y1428496D03*
X48362Y1428496D03*
X29362Y1428496D03*
D12*
X442976Y118082D03*
X442976Y178082D03*
X53086Y120622D03*
X53086Y180622D03*
X439960Y524634D03*
X439960Y584634D03*
X52986Y519554D03*
X52986Y579554D03*
D14*
X254616Y675514D03*
X280016Y675514D03*
X305416Y675514D03*
X330816Y675514D03*
X356216Y675514D03*
X381616Y675514D03*
X407016Y675514D03*
X432416Y675514D03*
X457816Y675514D03*
X483216Y675514D03*
X483216Y761514D03*
X457816Y761514D03*
X432416Y761514D03*
X407016Y761514D03*
X381616Y761514D03*
X356216Y761514D03*
X330816Y761514D03*
X305416Y761514D03*
X280016Y761514D03*
X254616Y761514D03*
D15*
X340930Y377760D03*
X340930Y373760D03*
X340930Y369760D03*
X340930Y365760D03*
X340930Y361760D03*
X340930Y357760D03*
X340930Y353760D03*
D16*
X348680Y346010D03*
X352680Y346010D03*
X356680Y346010D03*
X360680Y346010D03*
X364680Y346010D03*
X368680Y346010D03*
X372680Y346010D03*
D15*
X380430Y353760D03*
X380430Y357760D03*
X380430Y361760D03*
X380430Y365760D03*
X380430Y369760D03*
X380430Y373760D03*
X380430Y377760D03*
D16*
X372680Y385510D03*
X368680Y385510D03*
X364680Y385510D03*
X360680Y385510D03*
X356680Y385510D03*
X352680Y385510D03*
X348680Y385510D03*
D17*
X360680Y365760D03*
D18*
X274394Y356722D03*
X274394Y373722D03*
X390660Y288696D03*
X390660Y271696D03*
X445622Y372516D03*
X445622Y355516D03*
X390540Y437642D03*
X390540Y454642D03*
X369540Y437642D03*
X369540Y454642D03*
X348540Y437642D03*
X348540Y454642D03*
X349480Y289946D03*
X349480Y272946D03*
D19*
X327556Y472184D03*
X344556Y472184D03*
D15*
X340930Y1213420D03*
X340930Y1209420D03*
X340930Y1205420D03*
X340930Y1201420D03*
X340930Y1197420D03*
X340930Y1193420D03*
X340930Y1189420D03*
D16*
X348680Y1181670D03*
X352680Y1181670D03*
X356680Y1181670D03*
X360680Y1181670D03*
X364680Y1181670D03*
X368680Y1181670D03*
X372680Y1181670D03*
D15*
X380430Y1189420D03*
X380430Y1193420D03*
X380430Y1197420D03*
X380430Y1201420D03*
X380430Y1205420D03*
X380430Y1209420D03*
X380430Y1213420D03*
D16*
X372680Y1221170D03*
X368680Y1221170D03*
X364680Y1221170D03*
X360680Y1221170D03*
X356680Y1221170D03*
X352680Y1221170D03*
X348680Y1221170D03*
D17*
X360680Y1201420D03*
D18*
X401786Y1119954D03*
X401786Y1102954D03*
X281716Y1191394D03*
X281716Y1208394D03*
X423220Y1206314D03*
X423220Y1189314D03*
X409796Y1269216D03*
X409796Y1286216D03*
X381192Y1269216D03*
X381192Y1286216D03*
X360224Y1269216D03*
X360224Y1286216D03*
X338074Y1118988D03*
X338074Y1101988D03*
X380746Y1102750D03*
X380746Y1119750D03*
D20*
X104548Y791002D03*
X104548Y735122D03*
X66448Y791002D03*
X66448Y735122D03*
D21*
X31306Y751564D03*
X31306Y770564D03*
D22*
X358648Y1121664D03*
X358648Y1111504D03*
X336042Y1271778D03*
X336042Y1281938D03*
X330454Y436118D03*
X330454Y446278D03*
X370586Y286766D03*
X370586Y276606D03*
D15*
X340930Y928940D03*
X340930Y924940D03*
X340930Y920940D03*
X340930Y916940D03*
X340930Y912940D03*
X340930Y908940D03*
X340930Y904940D03*
D16*
X348680Y897190D03*
X352680Y897190D03*
X356680Y897190D03*
X360680Y897190D03*
X364680Y897190D03*
X368680Y897190D03*
X372680Y897190D03*
D15*
X380430Y904940D03*
X380430Y908940D03*
X380430Y912940D03*
X380430Y916940D03*
X380430Y920940D03*
X380430Y924940D03*
X380430Y928940D03*
D16*
X372680Y936690D03*
X368680Y936690D03*
X364680Y936690D03*
X360680Y936690D03*
X356680Y936690D03*
X352680Y936690D03*
X348680Y936690D03*
D17*
X360680Y916940D03*
D18*
X495808Y879466D03*
X495808Y862466D03*
X405130Y866766D03*
X405130Y849766D03*
X250952Y872626D03*
X250952Y889626D03*
X391160Y1002674D03*
X391160Y1019674D03*
X370586Y1002674D03*
X370586Y1019674D03*
X351282Y1002674D03*
X351282Y1019674D03*
X337312Y867274D03*
X337312Y850274D03*
X385318Y849766D03*
X385318Y866766D03*
D22*
X359664Y858266D03*
X359664Y848106D03*
X329946Y1007618D03*
X329946Y1017778D03*
D19*
X335416Y1037590D03*
X352416Y1037590D03*
D23*
X203200Y1152398D03*
X236220Y1152398D03*
D19*
X182744Y1152906D03*
X165744Y1152906D03*
D23*
X204978Y1190498D03*
X237998Y1190498D03*
D19*
X182490Y1190752D03*
X165490Y1190752D03*
X232528Y807212D03*
X215528Y807212D03*
X308728Y807212D03*
X291728Y807212D03*
X349368Y807212D03*
X332368Y807212D03*
X390008Y807212D03*
X373008Y807212D03*
X430648Y807212D03*
X413648Y807212D03*
X471288Y807212D03*
X454288Y807212D03*
X509388Y807212D03*
X492388Y807212D03*
X547488Y807212D03*
X530488Y807212D03*
X270628Y807212D03*
X253628Y807212D03*
X194428Y807212D03*
X177428Y807212D03*
D24*
X83820Y1258062D03*
X58420Y1258062D03*
X229616Y1244600D03*
X204216Y1244600D03*
X178816Y1244600D03*
X153416Y1244600D03*
D25*
X553534Y1125098D03*
X553534Y1145098D03*
X553534Y1185098D03*
X553534Y1205098D03*
X498534Y1125098D03*
X498534Y1145098D03*
X498534Y1185098D03*
X498534Y1205098D03*
D26*
X526034Y1115098D03*
X526034Y1215098D03*
D27*
X73406Y699008D03*
X83566Y699008D03*
X93726Y699008D03*
D28*
X465222Y188710D03*
X420222Y188710D03*
X465222Y123710D03*
X420222Y123710D03*
X75586Y191250D03*
X30586Y191250D03*
X75586Y126250D03*
X30586Y126250D03*
X462428Y593332D03*
X417428Y593332D03*
X462428Y528332D03*
X417428Y528332D03*
X75840Y591300D03*
X30840Y591300D03*
X75840Y526300D03*
X30840Y526300D03*
X464714Y989392D03*
X419714Y989392D03*
X464714Y924392D03*
X419714Y924392D03*
X74570Y990250D03*
X29570Y990250D03*
X74570Y925250D03*
X29570Y925250D03*
X464714Y1391654D03*
X419714Y1391654D03*
X464714Y1326654D03*
X419714Y1326654D03*
X75840Y1391400D03*
X30840Y1391400D03*
X75840Y1326400D03*
X30840Y1326400D03*
D13*
X450748Y226060D03*
X469748Y226060D03*
X72288Y226060D03*
X91288Y226060D03*
X453796Y629412D03*
X472796Y629412D03*
X74574Y629412D03*
X93574Y629412D03*
X466242Y1029716D03*
X485242Y1029716D03*
X73304Y1029716D03*
X92304Y1029716D03*
X415744Y1427480D03*
X434744Y1427480D03*
X73050Y1428496D03*
X92050Y1428496D03*
D10*
X672592Y1334262D03*
X672592Y1344262D03*
X672592Y1354262D03*
X672592Y1364262D03*
X672592Y1374262D03*
X672592Y1384262D03*
D11*
X694842Y1321262D03*
X694842Y1397262D03*
D10*
X271780Y934211D03*
X271780Y944211D03*
X271780Y954211D03*
X271780Y964211D03*
X271780Y974211D03*
X271780Y984211D03*
D11*
X294030Y921211D03*
X294030Y997211D03*
D10*
X271780Y1334262D03*
X271780Y1344262D03*
X271780Y1354262D03*
X271780Y1364262D03*
X271780Y1374262D03*
X271780Y1384262D03*
D11*
X294030Y1321262D03*
X294030Y1397262D03*
D29*
X234696Y1083564D03*
X224696Y1083564D03*
X214696Y1083564D03*
X204696Y1083564D03*
X194696Y1083564D03*
X184696Y1083564D03*
D30*
X247696Y1105814D03*
X171696Y1105814D03*
D31*
X86100Y1224000D03*
X60700Y1224000D03*
X86100Y1198600D03*
X60700Y1198600D03*
X86100Y1173200D03*
X60700Y1173200D03*
X86100Y1147800D03*
X60700Y1147800D03*
X86100Y1122400D03*
X60700Y1122400D03*
X86100Y1097000D03*
X60700Y1097000D03*
X665000Y1224000D03*
X639600Y1224000D03*
X665000Y1198600D03*
X639600Y1198600D03*
X665000Y1173200D03*
X639600Y1173200D03*
X665000Y1147800D03*
X639600Y1147800D03*
X665000Y1122400D03*
X639600Y1122400D03*
X665000Y1097000D03*
X639600Y1097000D03*
M02*
