M48
;GenerationSoftware,Autodesk,EAGLE,9.6.2*%
;CreationDate,2020-10-16T23:10:18Z*%
FMAT,2
ICI,OFF
METRIC,TZ,000.000
T5C0.350
T4C0.508
T3C0.900
T2C1.000
T1C1.016
%
G90
M71
T1
X63960Y109700
X66500Y109700
X63960Y112240
X66500Y112240
X63960Y114780
X66500Y114780
X63960Y117320
X66500Y117320
X63960Y119860
X66500Y119860
X63960Y122400
X66500Y122400
X6070Y109700
X8610Y109700
X6070Y112240
X8610Y112240
X6070Y114780
X8610Y114780
X6070Y117320
X8610Y117320
X6070Y119860
X8610Y119860
X6070Y122400
X8610Y122400
T2
X3084Y132640
X7584Y132640
X3084Y139140
X7584Y139140
X41971Y132665
X46471Y132665
X41971Y139165
X46471Y139165
X2957Y92525
X7457Y92525
X2957Y99025
X7457Y99025
X41971Y92439
X46471Y92439
X41971Y98939
X46471Y98939
X3084Y52630
X7584Y52630
X3084Y59130
X7584Y59130
X41743Y52833
X46243Y52833
X41743Y59333
X46243Y59333
X3059Y12625
X7559Y12625
X3059Y19125
X7559Y19125
X42022Y12371
X46522Y12371
X42022Y18871
X46522Y18871
X15342Y124460
X17882Y124460
X20422Y124460
X22962Y124460
X5842Y125806
X8382Y125806
T3
X52603Y121510
X52603Y111510
T4
X24892Y36170
X30318Y32604
X26162Y33274
X28702Y34544
X25705Y37592
X23825Y30258
X23825Y21336
X25451Y17526
X25908Y38862
X22338Y31510
X23012Y22352
X26924Y19812
X30670Y53476
X30555Y57383
X31496Y52578
X31496Y58166
X28753Y137363
X28143Y128219
X25705Y135941
X25705Y129438
X69850Y141224
X29667Y123698
X28448Y123698
X70866Y137922
X68580Y141478
X27940Y117094
X29210Y116586
X30988Y136906
X15494Y105651
X13767Y118618
X19304Y120904
X29972Y115570
X32106Y116535
X44604Y109374
X48514Y105156
X39116Y117094
X41351Y117094
X44196Y112268
X49784Y106680
X48514Y106680
X44450Y110744
X49784Y107899
X44853Y122279
X43434Y122428
X31725Y98552
X30912Y97536
X42977Y124460
X42164Y125476
X30480Y96266
X45822Y134112
X70612Y62738
X66294Y105410
X33020Y15443
X65075Y105664
X40030Y65532
X62687Y111150
X30175Y135433
X32207Y134620
X37897Y140310
X57912Y111506
X70358Y122682
X71374Y135128
X30480Y94996
X16256Y113284
X12954Y114554
X9550Y68326
X29210Y88392
X5080Y72390
X30293Y89341
X14986Y118618
X34846Y83210
X27686Y82296
X34290Y82042
X30988Y82042
X45466Y88900
X44196Y79299
X40386Y93218
X46990Y82296
X39878Y94488
X50800Y82296
X39878Y95707
X54356Y82804
X34747Y129032
X22047Y111049
X35966Y98044
X35763Y42164
X30480Y111049
X28753Y110642
X16154Y122733
X23063Y110338
X39421Y126594
X31699Y111049
X26111Y110134
X36982Y42469
X36982Y97333
X20066Y110236
X17272Y112268
X13208Y113030
X34849Y31902
X11176Y23876
X25451Y30734
X27178Y32342
X30480Y33823
X33274Y31750
X24130Y34950
X45720Y61366
X45618Y30480
X69596Y58166
X70029Y50292
X65735Y56693
X58014Y46330
X65735Y55474
X65735Y53137
X57658Y120396
X55118Y116586
X29210Y56388
X3810Y95250
X33528Y34036
X6096Y60706
X7366Y81788
X13462Y125730
X52578Y113538
X43942Y119380
X46990Y101092
X61468Y113284
X37592Y103886
X44196Y125476
X38608Y114300
X27178Y108204
X22352Y103886
X68326Y147828
X66040Y128270
X60706Y122682
X31242Y126238
X44704Y128778
X45212Y85598
X26416Y103378
X31242Y84074
X21336Y77216
X18288Y85090
X26416Y44450
X33782Y51054
X57404Y43434
X45720Y45720
X49276Y22860
X52578Y27686
X37592Y25654
X67310Y90678
X31242Y78486
X24638Y83820
X39624Y87884
X8636Y88646
X70842Y48006
X53035Y87986
X39116Y48158
X44602Y39116
X49987Y89306
X42875Y108204
T5
X25908Y35052
X67310Y83820
X62484Y103886
X50038Y126746
X44958Y115316
M30