  0
SECTION
  2
HEADER
  9
$ACADVER
  1
AC1009
  9
$INSBASE
 10
0.0
 20
0.0
 30
0.0
  9
$EXTMIN
 10
130.7650953227193895
 20
113.194009434412294
 30
0.0
  9
$EXTMAX
 10
215.7650954425199075
 20
303.387967006553481
 30
5.0
  9
$LIMMIN
 10
0.0
 20
0.0
  9
$LIMMAX
 10
12.0
 20
9.0
  9
$ORTHOMODE
 70
     0
  9
$REGENMODE
 70
     1
  9
$FILLMODE
 70
     1
  9
$QTEXTMODE
 70
     0
  9
$MIRRTEXT
 70
     0
  9
$DRAGMODE
 70
     2
  9
$LTSCALE
 40
1.0
  9
$OSMODE
 70
    37
  9
$ATTMODE
 70
     1
  9
$TEXTSIZE
 40
0.2
  9
$TRACEWID
 40
0.05
  9
$TEXTSTYLE
  7
STANDARD
  9
$CLAYER
  8
0
  9
$CELTYPE
  6
BYLAYER
  9
$CECOLOR
 62
   256
  9
$DIMSCALE
 40
1.0
  9
$DIMASZ
 40
0.18
  9
$DIMEXO
 40
0.0625
  9
$DIMDLI
 40
0.38
  9
$DIMRND
 40
0.0
  9
$DIMDLE
 40
0.0
  9
$DIMEXE
 40
0.18
  9
$DIMTP
 40
0.0
  9
$DIMTM
 40
0.0
  9
$DIMTXT
 40
0.18
  9
$DIMCEN
 40
0.09
  9
$DIMTSZ
 40
0.0
  9
$DIMTOL
 70
     0
  9
$DIMLIM
 70
     0
  9
$DIMTIH
 70
     1
  9
$DIMTOH
 70
     1
  9
$DIMSE1
 70
     0
  9
$DIMSE2
 70
     0
  9
$DIMTAD
 70
     0
  9
$DIMZIN
 70
     0
  9
$DIMBLK
  1

  9
$DIMASO
 70
     1
  9
$DIMSHO
 70
     1
  9
$DIMPOST
  1

  9
$DIMAPOST
  1

  9
$DIMALT
 70
     0
  9
$DIMALTD
 70
     2
  9
$DIMALTF
 40
25.3999999999999986
  9
$DIMLFAC
 40
1.0
  9
$DIMTOFL
 70
     0
  9
$DIMTVP
 40
0.0
  9
$DIMTIX
 70
     0
  9
$DIMSOXD
 70
     0
  9
$DIMSAH
 70
     0
  9
$DIMBLK1
  1

  9
$DIMBLK2
  1

  9
$DIMSTYLE
  2
STANDARD
  9
$DIMCLRD
 70
     0
  9
$DIMCLRE
 70
     0
  9
$DIMCLRT
 70
     0
  9
$DIMTFAC
 40
1.0
  9
$DIMGAP
 40
0.09
  9
$LUNITS
 70
     2
  9
$LUPREC
 70
     4
  9
$SKETCHINC
 40
0.1
  9
$FILLETRAD
 40
0.0
  9
$AUNITS
 70
     0
  9
$AUPREC
 70
     0
  9
$MENU
  1
.
  9
$ELEVATION
 40
0.0
  9
$PELEVATION
 40
0.0
  9
$THICKNESS
 40
0.0
  9
$LIMCHECK
 70
     0
  9
$BLIPMODE
 70
     0
  9
$CHAMFERA
 40
0.0
  9
$CHAMFERB
 40
0.0
  9
$SKPOLY
 70
     0
  9
$TDCREATE
 40
2459096.5822453708387911
  9
$TDUPDATE
 40
2459096.6528009260073304
  9
$TDINDWG
 40
0.0705555556
  9
$TDUSRTIMER
 40
0.0705555556
  9
$USRTIMER
 70
     1
  9
$ANGBASE
 50
0.0
  9
$ANGDIR
 70
     0
  9
$PDMODE
 70
     0
  9
$PDSIZE
 40
0.0
  9
$PLINEWID
 40
0.0
  9
$COORDS
 70
     1
  9
$SPLFRAME
 70
     0
  9
$SPLINETYPE
 70
     6
  9
$SPLINESEGS
 70
     8
  9
$ATTDIA
 70
     1
  9
$ATTREQ
 70
     1
  9
$HANDLING
 70
     1
  9
$HANDSEED
  5
5C8
  9
$SURFTAB1
 70
     6
  9
$SURFTAB2
 70
     6
  9
$SURFTYPE
 70
     6
  9
$SURFU
 70
     6
  9
$SURFV
 70
     6
  9
$UCSNAME
  2

  9
$UCSORG
 10
0.0
 20
0.0
 30
0.0
  9
$UCSXDIR
 10
1.0
 20
0.0
 30
0.0
  9
$UCSYDIR
 10
0.0
 20
1.0
 30
0.0
  9
$PUCSNAME
  2

  9
$PUCSORG
 10
0.0
 20
0.0
 30
0.0
  9
$PUCSXDIR
 10
1.0
 20
0.0
 30
0.0
  9
$PUCSYDIR
 10
0.0
 20
1.0
 30
0.0
  9
$USERI1
 70
     0
  9
$USERI2
 70
     0
  9
$USERI3
 70
     0
  9
$USERI4
 70
     0
  9
$USERI5
 70
     0
  9
$USERR1
 40
0.0
  9
$USERR2
 40
0.0
  9
$USERR3
 40
0.0
  9
$USERR4
 40
0.0
  9
$USERR5
 40
0.0
  9
$WORLDVIEW
 70
     1
  9
$SHADEDGE
 70
     3
  9
$SHADEDIF
 70
    70
  9
$TILEMODE
 70
     1
  9
$MAXACTVP
 70
    64
  9
$PLIMCHECK
 70
     0
  9
$PEXTMIN
 10
1.0000000000000000E+20
 20
1.0000000000000000E+20
 30
1.0000000000000000E+20
  9
$PEXTMAX
 10
-1.0000000000000000E+20
 20
-1.0000000000000000E+20
 30
-1.0000000000000000E+20
  9
$PLIMMIN
 10
-0.7524054877282309
 20
-0.5025428238148726
  9
$PLIMMAX
 10
35.247595473455327
 20
23.4974562150015593
  9
$UNITMODE
 70
     0
  9
$VISRETAIN
 70
     1
  9
$PLINEGEN
 70
     0
  9
$PSLTSCALE
 70
     1
  0
ENDSEC
  0
SECTION
  2
TABLES
  0
TABLE
  2
VPORT
 70
     1
  0
VPORT
  2
*ACTIVE
 70
     0
 10
0.0
 20
0.0
 11
1.0
 21
1.0
 12
61.8329996908978501
 22
-208.9418746550364006
 13
0.0
 23
0.0
 14
0.5
 24
0.5
 15
0.5
 25
0.5
 16
-0.0000000000000853
 26
0.0
 36
443.8624746145908944
 17
173.2650931924513031
 27
208.2951736450195028
 37
2.5
 40
692.3750756706431275
 41
1.4230769230769229
 42
50.0
 43
0.0
 44
0.0
 50
0.0
 51
0.0
 71
     0
 72
  1000
 73
     1
 74
     3
 75
     0
 76
     0
 77
     0
 78
     0
  0
ENDTAB
  0
TABLE
  2
LTYPE
 70
     1
  0
LTYPE
  2
CONTINUOUS
 70
     0
  3
Solid line
 72
    65
 73
     0
 40
0.0
  0
ENDTAB
  0
TABLE
  2
LAYER
 70
     5
  0
LAYER
  2
0
 70
     0
 62
     7
  6
CONTINUOUS
  0
LAYER
  2
TITLE_BLOCK
 70
     0
 62
     7
  6
CONTINUOUS
  0
LAYER
  2
A-DETL-___4
 70
     0
 62
     4
  6
CONTINUOUS
  0
LAYER
  2
A-DETL-___2
 70
     0
 62
     2
  6
CONTINUOUS
  0
LAYER
  2
DEFPOINTS
 70
     0
 62
     7
  6
CONTINUOUS
  0
ENDTAB
  0
TABLE
  2
STYLE
 70
     2
  0
STYLE
  2
STANDARD
 70
     0
 40
0.0
 41
1.0
 50
0.0
 71
     0
 42
0.2
  3
txt
  4

  0
STYLE
  2
ROMAN
 70
     0
 40
0.0
 41
1.0
 50
0.0
 71
     0
 42
0.2
  3
ROMANS.SHX
  4

  0
ENDTAB
  0
TABLE
  2
VIEW
 70
     3
  0
ENDTAB
  0
TABLE
  2
UCS
 70
     0
  0
ENDTAB
  0
TABLE
  2
APPID
 70
     5
  0
APPID
  2
ACAD
 70
     0
  0
APPID
  2
RAK
 70
     0
  0
APPID
  2
ACAD_NAV_VCDISPLAY
 70
     0
  0
APPID
  2
ACAD_PSEXT
 70
     0
  0
APPID
  2
ACAD_MLEADERVER
 70
     0
  0
ENDTAB
  0
TABLE
  2
DIMSTYLE
 70
     1
  0
DIMSTYLE
  2
STANDARD
 70
     0
  3

  4

  5

  6

  7

 40
1.0
 41
0.18
 42
0.0625
 43
0.38
 44
0.18
 45
0.0
 46
0.0
 47
0.0
 48
0.0
140
0.18
141
0.09
142
0.0
143
25.3999999999999986
144
1.0
145
0.0
146
1.0
147
0.09
 71
     0
 72
     0
 73
     1
 74
     1
 75
     0
 76
     0
 77
     0
 78
     0
170
     0
171
     2
172
     0
173
     0
174
     0
175
     0
176
     0
177
     0
178
     0
  0
ENDTAB
  0
ENDSEC
  0
SECTION
  2
BLOCKS
  0
BLOCK
  8
0
  2
$MODEL_SPACE
 70
     2
 10
0.0
 20
0.0
 30
0.0
  3
$MODEL_SPACE
  1

  0
ENDBLK
  5
9
  8
0
  0
BLOCK
 67
     1
  8
0
  2
$PAPER_SPACE
 70
     0
 10
0.0
 20
0.0
 30
0.0
  3
$PAPER_SPACE
  1

  0
ENDBLK
  5
E
 67
     1
  8
0
  0
BLOCK
  8
0
  2
*D3
 70
     1
 10
0.0
 20
0.0
 30
0.0
  3
*D3
  1

  0
LINE
  5
138
  8
0
 62
     0
 10
175.8162960129702128
 20
300.790987794520106
 30
0.0
 11
175.9337960129736018
 21
300.790987794520106
 31
0.0
  0
LINE
  5
139
  8
0
 62
     0
 10
175.8162960129693886
 20
115.7909886453777943
 30
0.0
 11
175.9337960129707028
 21
115.7909886453777943
 31
0.0
  0
LINE
  5
13A
  8
0
 62
     0
 10
175.753796012973595
 20
300.6109877945199855
 30
0.0
 11
175.7537960129722023
 21
208.4709882199489925
 31
0.0
  0
LINE
  5
13B
  8
0
 62
     0
 10
175.753796012970696
 20
115.9709886453778012
 30
0.0
 11
175.7537960129722023
 21
208.1109882199488936
 31
0.0
  0
SOLID
  5
13C
  8
0
 62
     0
 10
175.7237960129735939
 20
300.6109877945199855
 30
0.0
 11
175.7837960129735961
 21
300.6109877945199855
 31
0.0
 12
175.753796012973595
 22
300.790987794520106
 32
0.0
 13
175.753796012973595
 23
300.790987794520106
 33
0.0
  0
SOLID
  5
13D
  8
0
 62
     0
 10
175.7237960129706948
 20
115.9709886453778012
 30
0.0
 11
175.7837960129706971
 21
115.9709886453778012
 31
0.0
 12
175.753796012970696
 22
115.7909886453777943
 32
0.0
 13
175.753796012970696
 23
115.7909886453777943
 33
0.0
  0
INSERT
  5
13E
  8
0
  2
*U8
 10
0.0
 20
0.0
 30
0.0
  0
POINT
  5
13F
  8
DEFPOINTS
 62
     0
 10
175.7537960129654948
 20
300.7909877945227208
 30
-5.0
  0
POINT
  5
140
  8
DEFPOINTS
 62
     0
 10
175.753796012967598
 20
115.7909886453804944
 30
-5.0
  0
POINT
  5
141
  8
DEFPOINTS
 62
     0
 10
175.7537960129687917
 20
115.7909886453804944
 30
0.0
  0
ENDBLK
  5
137
  8
0
  0
BLOCK
  8
0
  2
*U4
 70
     1
 10
0.0
 20
0.0
 30
0.0
  3
*U4
  1

  0
ARC
  5
1CC
  8
A-DETL-___4
 10
5328.4716747276734168
 20
4842.0082466569192547
 30
0.0
 40
7.5
 50
180.0
 51
0.0
  0
LINE
  5
1CD
  8
A-DETL-___4
 10
5320.9716747276734168
 20
4842.0082466569192547
 30
0.0
 11
5320.9716747276734168
 21
4842.0082466569192547
 31
5.0
  0
ARC
  5
1CE
  8
A-DETL-___4
 10
-5328.4716747276734168
 20
4842.0082466569192547
 30
-5.0
 40
7.5
210
0.0
220
0.0
230
-1.0
 50
180.0
 51
0.0
  0
LINE
  5
1CF
  8
A-DETL-___4
 10
5335.9716747276734168
 20
4842.0082466569192547
 30
0.0
 11
5335.9716747276734168
 21
4842.0082466569192547
 31
5.0
  0
LINE
  5
1D0
  8
A-DETL-___4
 10
5320.9716747276734168
 20
4857.0082466569210737
 30
0.0
 11
5320.9716747276734168
 21
4842.0082466569192547
 31
0.0
210
1.0
220
-0.0000000000000001
230
0.0
  0
LINE
  5
1D1
  8
A-DETL-___4
 10
5320.9716747276734168
 20
4857.0082466569210737
 30
0.0
 11
5320.9716747276734168
 21
4857.0082466569210737
 31
5.0
210
1.0
220
-0.0000000000000001
230
0.0
  0
LINE
  5
1D2
  8
A-DETL-___4
 10
5320.9716747276734168
 20
4842.0082466569192547
 30
5.0
 11
5320.9716747276734168
 21
4857.0082466569210737
 31
5.0
210
1.0
220
-0.0000000000000001
230
0.0
  0
LINE
  5
1D3
  8
A-DETL-___4
 10
5320.9716747276734168
 20
4842.0082466569192547
 30
0.0
 11
5320.9716747276734168
 21
4842.0082466569192547
 31
5.0
210
1.0
220
-0.0000000000000001
230
0.0
  0
ARC
  5
1D4
  8
A-DETL-___4
 10
5328.4716747276734168
 20
4857.0082466569210737
 30
0.0
 40
7.5
 50
0.0
 51
180.0
  0
LINE
  5
1D5
  8
A-DETL-___4
 10
5335.9716747276734168
 20
4857.0082466569210737
 30
0.0
 11
5335.9716747276734168
 21
4857.0082466569210737
 31
5.0
  0
ARC
  5
1D6
  8
A-DETL-___4
 10
-5328.4716747276734168
 20
4857.0082466569210737
 30
-5.0
 40
7.5
210
0.0
220
0.0
230
-1.0
 50
0.0
 51
180.0
  0
LINE
  5
1D7
  8
A-DETL-___4
 10
5320.9716747276734168
 20
4857.0082466569210737
 30
0.0
 11
5320.9716747276734168
 21
4857.0082466569210737
 31
5.0
  0
LINE
  5
1D8
  8
A-DETL-___4
 10
5335.9716747276734168
 20
4842.0082466569192547
 30
0.0
 11
5335.9716747276734168
 21
4857.0082466569210737
 31
0.0
210
-1.0
220
0.0000000000000001
230
0.0
  0
LINE
  5
1D9
  8
A-DETL-___4
 10
5335.9716747276734168
 20
4842.0082466569192547
 30
0.0
 11
5335.9716747276734168
 21
4842.0082466569192547
 31
5.0
210
-1.0
220
0.0000000000000001
230
0.0
  0
LINE
  5
1DA
  8
A-DETL-___4
 10
5335.9716747276734168
 20
4857.0082466569210737
 30
5.0
 11
5335.9716747276734168
 21
4842.0082466569192547
 31
5.0
210
-1.0
220
0.0000000000000001
230
0.0
  0
LINE
  5
1DB
  8
A-DETL-___4
 10
5335.9716747276734168
 20
4857.0082466569210737
 30
0.0
 11
5335.9716747276734168
 21
4857.0082466569210737
 31
5.0
210
-1.0
220
0.0000000000000001
230
0.0
  0
ARC
  5
1DC
  8
A-DETL-___4
 10
5328.4716747276734168
 20
4937.0082466569219832
 30
0.0
 40
7.5
 50
0.0
 51
180.0
  0
LINE
  5
1DD
  8
A-DETL-___4
 10
5335.9716747276734168
 20
4937.0082466569219832
 30
0.0
 11
5335.9716747276734168
 21
4937.0082466569219832
 31
5.0
  0
ARC
  5
1DE
  8
A-DETL-___4
 10
-5328.4716747276734168
 20
4937.0082466569219832
 30
-5.0
 40
7.5
210
0.0
220
0.0
230
-1.0
 50
0.0
 51
180.0
  0
LINE
  5
1DF
  8
A-DETL-___4
 10
5320.9716747276734168
 20
4937.0082466569219832
 30
0.0
 11
5320.9716747276734168
 21
4937.0082466569219832
 31
5.0
  0
LINE
  5
1E0
  8
A-DETL-___4
 10
5335.9716747276734168
 20
4922.0082466569219832
 30
0.0
 11
5335.9716747276734168
 21
4937.0082466569219832
 31
0.0
210
-1.0
220
0.0000000000000001
230
0.0
  0
LINE
  5
1E1
  8
A-DETL-___4
 10
5335.9716747276734168
 20
4922.0082466569219832
 30
0.0
 11
5335.9716747276734168
 21
4922.0082466569219832
 31
5.0
210
-1.0
220
0.0000000000000001
230
0.0
  0
LINE
  5
1E2
  8
A-DETL-___4
 10
5335.9716747276734168
 20
4937.0082466569219832
 30
5.0
 11
5335.9716747276734168
 21
4922.0082466569219832
 31
5.0
210
-1.0
220
0.0000000000000001
230
0.0
  0
LINE
  5
1E3
  8
A-DETL-___4
 10
5335.9716747276734168
 20
4937.0082466569219832
 30
0.0
 11
5335.9716747276734168
 21
4937.0082466569219832
 31
5.0
210
-1.0
220
0.0000000000000001
230
0.0
  0
ARC
  5
1E4
  8
A-DETL-___4
 10
5328.4716747276734168
 20
4922.0082466569219832
 30
0.0
 40
7.5
 50
180.0
 51
0.0
  0
LINE
  5
1E5
  8
A-DETL-___4
 10
5320.9716747276734168
 20
4922.0082466569219832
 30
0.0
 11
5320.9716747276734168
 21
4922.0082466569219832
 31
5.0
  0
ARC
  5
1E6
  8
A-DETL-___4
 10
-5328.4716747276734168
 20
4922.0082466569219832
 30
-5.0
 40
7.5
210
0.0
220
0.0
230
-1.0
 50
180.0
 51
0.0
  0
LINE
  5
1E7
  8
A-DETL-___4
 10
5335.9716747276734168
 20
4922.0082466569219832
 30
0.0
 11
5335.9716747276734168
 21
4922.0082466569219832
 31
5.0
  0
LINE
  5
1E8
  8
A-DETL-___4
 10
5320.9716747276734168
 20
4937.0082466569219832
 30
0.0
 11
5320.9716747276734168
 21
4922.0082466569219832
 31
0.0
210
1.0
220
-0.0000000000000001
230
0.0
  0
LINE
  5
1E9
  8
A-DETL-___4
 10
5320.9716747276734168
 20
4937.0082466569219832
 30
0.0
 11
5320.9716747276734168
 21
4937.0082466569219832
 31
5.0
210
1.0
220
-0.0000000000000001
230
0.0
  0
LINE
  5
1EA
  8
A-DETL-___4
 10
5320.9716747276734168
 20
4922.0082466569219832
 30
5.0
 11
5320.9716747276734168
 21
4937.0082466569219832
 31
5.0
210
1.0
220
-0.0000000000000001
230
0.0
  0
LINE
  5
1EB
  8
A-DETL-___4
 10
5320.9716747276734168
 20
4922.0082466569219832
 30
0.0
 11
5320.9716747276734168
 21
4922.0082466569219832
 31
5.0
210
1.0
220
-0.0000000000000001
230
0.0
  0
LINE
  5
1EC
  8
A-DETL-___4
 10
5348.4716747276715978
 20
4967.2582466569219832
 30
0.0
 11
5308.4716747276706883
 21
4967.2582466569219832
 31
0.0
210
0.0000000000000001
220
1.0
230
0.0
  0
LINE
  5
1ED
  8
A-DETL-___4
 10
5308.4716747276706883
 20
4967.2582466569219832
 30
0.0
 11
5308.4716747276706883
 21
4967.2582466569219832
 31
5.0
210
0.0000000000000001
220
1.0
230
0.0
  0
LINE
  5
1EE
  8
A-DETL-___4
 10
5348.4716747276715978
 20
4967.2582466569219832
 30
5.0
 11
5308.4716747276706883
 21
4967.2582466569219832
 31
5.0
210
0.0000000000000001
220
1.0
230
0.0
  0
LINE
  5
1EF
  8
A-DETL-___4
 10
5348.4716747276715978
 20
4967.2582466569219832
 30
0.0
 11
5348.4716747276715978
 21
4967.2582466569219832
 31
5.0
210
0.0000000000000001
220
1.0
230
0.0
  0
LINE
  5
1F0
  8
A-DETL-___4
 10
5348.4716747276715978
 20
4811.7582466569210737
 30
0.0
 11
5348.4716747276715978
 21
4967.2582466569219832
 31
0.0
210
1.0
220
-0.0000000000000001
230
0.0
  0
LINE
  5
1F1
  8
A-DETL-___4
 10
5348.4716747276715978
 20
4967.2582466569219832
 30
0.0
 11
5348.4716747276715978
 21
4967.2582466569219832
 31
5.0
210
1.0
220
-0.0000000000000001
230
0.0
  0
LINE
  5
1F2
  8
A-DETL-___4
 10
5348.4716747276715978
 20
4811.7582466569210737
 30
5.0
 11
5348.4716747276715978
 21
4967.2582466569219832
 31
5.0
210
1.0
220
-0.0000000000000001
230
0.0
  0
LINE
  5
1F3
  8
A-DETL-___4
 10
5348.4716747276715978
 20
4811.7582466569210737
 30
0.0
 11
5348.4716747276715978
 21
4811.7582466569210737
 31
5.0
210
1.0
220
-0.0000000000000001
230
0.0
  0
LINE
  5
1F4
  8
A-DETL-___4
 10
5308.4716747276743263
 20
4811.7582466569210737
 30
0.0
 11
5348.4716747276715978
 21
4811.7582466569210737
 31
0.0
210
-0.0000000000000001
220
-1.0
230
0.0
  0
LINE
  5
1F5
  8
A-DETL-___4
 10
5348.4716747276715978
 20
4811.7582466569210737
 30
0.0
 11
5348.4716747276715978
 21
4811.7582466569210737
 31
5.0
210
-0.0000000000000001
220
-1.0
230
0.0
  0
LINE
  5
1F6
  8
A-DETL-___4
 10
5308.4716747276743263
 20
4811.7582466569210737
 30
5.0
 11
5348.4716747276715978
 21
4811.7582466569210737
 31
5.0
210
-0.0000000000000001
220
-1.0
230
0.0
  0
LINE
  5
1F7
  8
A-DETL-___4
 10
5308.4716747276743263
 20
4811.7582466569210737
 30
0.0
 11
5308.4716747276743263
 21
4811.7582466569210737
 31
5.0
210
-0.0000000000000001
220
-1.0
230
0.0
  0
LINE
  5
1F8
  8
A-DETL-___4
 10
5308.4716747276743263
 20
4807.2582466569210737
 30
0.0
 11
5308.4716747276743263
 21
4811.7582466569210737
 31
0.0
210
1.0
220
-0.0000000000000001
230
0.0
  0
LINE
  5
1F9
  8
A-DETL-___4
 10
5308.4716747276743263
 20
4811.7582466569210737
 30
0.0
 11
5308.4716747276743263
 21
4811.7582466569210737
 31
5.0
210
1.0
220
-0.0000000000000001
230
0.0
  0
LINE
  5
1FA
  8
A-DETL-___4
 10
5308.4716747276743263
 20
4807.2582466569210737
 30
5.0
 11
5308.4716747276743263
 21
4811.7582466569210737
 31
5.0
210
1.0
220
-0.0000000000000001
230
0.0
  0
LINE
  5
1FB
  8
A-DETL-___4
 10
5308.4716747276743263
 20
4807.2582466569210737
 30
0.0
 11
5308.4716747276743263
 21
4807.2582466569210737
 31
5.0
210
1.0
220
-0.0000000000000001
230
0.0
  0
LINE
  5
1FC
  8
A-DETL-___4
 10
5348.4716747276788738
 20
4807.2582466569210737
 30
0.0
 11
5308.4716747276743263
 21
4807.2582466569210737
 31
0.0
210
0.0000000000000001
220
1.0
230
0.0
  0
LINE
  5
1FD
  8
A-DETL-___4
 10
5308.4716747276743263
 20
4807.2582466569210737
 30
0.0
 11
5308.4716747276743263
 21
4807.2582466569210737
 31
5.0
210
0.0000000000000001
220
1.0
230
0.0
  0
LINE
  5
1FE
  8
A-DETL-___4
 10
5348.4716747276788738
 20
4807.2582466569210737
 30
5.0
 11
5308.4716747276743263
 21
4807.2582466569210737
 31
5.0
210
0.0000000000000001
220
1.0
230
0.0
  0
LINE
  5
1FF
  8
A-DETL-___4
 10
5348.4716747276788738
 20
4807.2582466569210737
 30
0.0
 11
5348.4716747276788738
 21
4807.2582466569210737
 31
5.0
210
0.0000000000000001
220
1.0
230
0.0
  0
LINE
  5
200
  8
A-DETL-___4
 10
5348.4716747276788738
 20
4799.0082470823499534
 30
0.0
 11
5348.4716747276788738
 21
4807.2582466569210737
 31
0.0
210
1.0
220
-0.0000000000000001
230
0.0
  0
LINE
  5
201
  8
A-DETL-___4
 10
5348.4716747276788738
 20
4807.2582466569210737
 30
0.0
 11
5348.4716747276788738
 21
4807.2582466569210737
 31
5.0
210
1.0
220
-0.0000000000000001
230
0.0
  0
LINE
  5
202
  8
A-DETL-___4
 10
5348.4716747276788738
 20
4799.0082470823499534
 30
5.0
 11
5348.4716747276788738
 21
4807.2582466569210737
 31
5.0
210
1.0
220
-0.0000000000000001
230
0.0
  0
LINE
  5
203
  8
A-DETL-___4
 10
5348.4716747276788738
 20
4799.0082470823499534
 30
0.0
 11
5348.4716747276788738
 21
4799.0082470823499534
 31
5.0
210
1.0
220
-0.0000000000000001
230
0.0
  0
ARC
  5
204
  8
A-DETL-___4
 10
5346.4716747276797832
 20
4799.0082470823499534
 30
0.0
 40
1.9999999999990901
 50
269.9999999999739089
 51
0.0000000000260592
  0
LINE
  5
205
  8
A-DETL-___4
 10
5348.4716747276788738
 20
4799.0082470823499534
 30
0.0
 11
5348.4716747276788738
 21
4799.0082470823499534
 31
5.0
  0
ARC
  5
206
  8
A-DETL-___4
 10
5346.4716747276797832
 20
4799.0082470823499534
 30
5.0
 40
1.9999999999990901
 50
269.9999999999739089
 51
0.0000000000260592
  0
LINE
  5
207
  8
A-DETL-___4
 10
5346.4716747276788738
 20
4797.0082470823508629
 30
0.0
 11
5346.4716747276788738
 21
4797.0082470823508629
 31
5.0
  0
LINE
  5
208
  8
A-DETL-___4
 10
5290.4716747276788738
 20
4797.0082470823508629
 30
0.0
 11
5346.4716747276788738
 21
4797.0082470823508629
 31
0.0
210
-0.0000000000000163
220
-1.0
230
0.0
  0
LINE
  5
209
  8
A-DETL-___4
 10
5346.4716747276788738
 20
4797.0082470823508629
 30
0.0
 11
5346.4716747276788738
 21
4797.0082470823508629
 31
5.0
210
-0.0000000000000163
220
-1.0
230
0.0
  0
LINE
  5
20A
  8
A-DETL-___4
 10
5290.4716747276788738
 20
4797.0082470823508629
 30
5.0
 11
5346.4716747276788738
 21
4797.0082470823508629
 31
5.0
210
-0.0000000000000163
220
-1.0
230
0.0
  0
LINE
  5
20B
  8
A-DETL-___4
 10
5290.4716747276788738
 20
4797.0082470823508629
 30
0.0
 11
5290.4716747276788738
 21
4797.0082470823508629
 31
5.0
210
-0.0000000000000163
220
-1.0
230
0.0
  0
ARC
  5
20C
  8
A-DETL-___4
 10
5290.4716747276779643
 20
4799.0082470823499534
 30
0.0
 40
1.9999999999990901
 50
180.0
 51
270.0000000000521254
  0
LINE
  5
20D
  8
A-DETL-___4
 10
5290.4716747276788738
 20
4797.0082470823508629
 30
0.0
 11
5290.4716747276788738
 21
4797.0082470823508629
 31
5.0
  0
ARC
  5
20E
  8
A-DETL-___4
 10
5290.4716747276779643
 20
4799.0082470823499534
 30
5.0
 40
1.9999999999990901
 50
180.0
 51
270.0000000000521254
  0
LINE
  5
20F
  8
A-DETL-___4
 10
5288.4716747276788738
 20
4799.0082470823508629
 30
0.0
 11
5288.4716747276788738
 21
4799.0082470823508629
 31
5.0
  0
LINE
  5
210
  8
A-DETL-___4
 10
5288.4716747276788738
 20
4799.5082273242132942
 30
0.0
 11
5288.4716747276788738
 21
4799.0082470823508629
 31
0.0
210
-1.0
220
0.0000000000000001
230
0.0
  0
LINE
  5
211
  8
A-DETL-___4
 10
5288.4716747276788738
 20
4799.0082470823508629
 30
0.0
 11
5288.4716747276788738
 21
4799.0082470823508629
 31
5.0
210
-1.0
220
0.0000000000000001
230
0.0
  0
LINE
  5
212
  8
A-DETL-___4
 10
5288.4716747276788738
 20
4799.5082273242132942
 30
5.0
 11
5288.4716747276788738
 21
4799.0082470823508629
 31
5.0
210
-1.0
220
0.0000000000000001
230
0.0
  0
LINE
  5
213
  8
A-DETL-___4
 10
5288.4716747276788738
 20
4799.5082273242132942
 30
0.0
 11
5288.4716747276788738
 21
4799.5082273242132942
 31
5.0
210
-1.0
220
0.0000000000000001
230
0.0
  0
ARC
  5
214
  8
A-DETL-___4
 10
-5286.4716747276797832
 20
4799.5082273242142037
 30
0.0
 40
1.9999999999990901
210
0.0
220
0.0
230
-1.0
 50
89.9999999999739515
 51
180.0000000000260059
  0
LINE
  5
215
  8
A-DETL-___4
 10
5288.4716747276788738
 20
4799.5082273242132942
 30
0.0
 11
5288.4716747276788738
 21
4799.5082273242132942
 31
5.0
  0
ARC
  5
216
  8
A-DETL-___4
 10
-5286.4716747276797832
 20
4799.5082273242142037
 30
-5.0
 40
1.9999999999990901
210
0.0
220
0.0
230
-1.0
 50
89.9999999999739515
 51
180.0000000000260059
  0
LINE
  5
217
  8
A-DETL-___4
 10
5286.4716747276779643
 20
4801.5082273242132942
 30
0.0
 11
5286.4716747276779643
 21
4801.5082273242132942
 31
5.0
  0
LINE
  5
218
  8
A-DETL-___4
 10
5272.4716747276788738
 20
4801.5082273242132942
 30
0.0
 11
5286.4716747276779643
 21
4801.5082273242132942
 31
0.0
210
-0.0000000000000001
220
-1.0
230
0.0
  0
LINE
  5
219
  8
A-DETL-___4
 10
5286.4716747276779643
 20
4801.5082273242132942
 30
0.0
 11
5286.4716747276779643
 21
4801.5082273242132942
 31
5.0
210
-0.0000000000000001
220
-1.0
230
0.0
  0
LINE
  5
21A
  8
A-DETL-___4
 10
5272.4716747276788738
 20
4801.5082273242132942
 30
5.0
 11
5286.4716747276779643
 21
4801.5082273242132942
 31
5.0
210
-0.0000000000000001
220
-1.0
230
0.0
  0
LINE
  5
21B
  8
A-DETL-___4
 10
5272.4716747276788738
 20
4801.5082273242132942
 30
0.0
 11
5272.4716747276788738
 21
4801.5082273242132942
 31
5.0
210
-0.0000000000000001
220
-1.0
230
0.0
  0
LINE
  5
21C
  8
A-DETL-___4
 10
5272.4716747276788738
 20
4796.4151461453629963
 30
0.0
 11
5272.4716747276788738
 21
4801.5082273242132942
 31
0.0
210
1.0
220
-0.0000000000000001
230
0.0
  0
LINE
  5
21D
  8
A-DETL-___4
 10
5272.4716747276788738
 20
4801.5082273242132942
 30
0.0
 11
5272.4716747276788738
 21
4801.5082273242132942
 31
5.0
210
1.0
220
-0.0000000000000001
230
0.0
  0
LINE
  5
21E
  8
A-DETL-___4
 10
5272.4716747276788738
 20
4796.4151461453629963
 30
5.0
 11
5272.4716747276788738
 21
4801.5082273242132942
 31
5.0
210
1.0
220
-0.0000000000000001
230
0.0
  0
LINE
  5
21F
  8
A-DETL-___4
 10
5272.4716747276788738
 20
4796.4151461453629963
 30
0.0
 11
5272.4716747276788738
 21
4796.4151461453629963
 31
5.0
210
1.0
220
-0.0000000000000001
230
0.0
  0
ARC
  5
220
  8
A-DETL-___4
 10
5270.4716747349275465
 20
4796.4112716171239299
 30
0.0
 40
2.0000037457402859
 50
180.0
 51
0.110997538152402
  0
LINE
  5
221
  8
A-DETL-___4
 10
5272.4716747276788738
 20
4796.4151461453629963
 30
0.0
 11
5272.4716747276788738
 21
4796.4151461453629963
 31
5.0
  0
ARC
  5
222
  8
A-DETL-___4
 10
5270.4716747349275465
 20
4796.4112716171239299
 30
5.0
 40
2.0000037457402859
 50
180.0
 51
0.110997538152402
  0
LINE
  5
223
  8
A-DETL-___4
 10
5268.4716709891872597
 20
4796.4112716387226101
 30
0.0
 11
5268.4716709891872597
 21
4796.4112716387226101
 31
5.0
  0
LINE
  5
224
  8
A-DETL-___4
 10
5268.4716718865483926
 20
4879.5082466569210737
 30
0.0
 11
5268.4716709891872597
 21
4796.4112716387226101
 31
0.0
210
-1.0
220
0.0000000107989628
230
0.0
  0
LINE
  5
225
  8
A-DETL-___4
 10
5268.4716709891872597
 20
4796.4112716387226101
 30
0.0
 11
5268.4716709891872597
 21
4796.4112716387226101
 31
5.0
210
-1.0
220
0.0000000107989628
230
0.0
  0
LINE
  5
226
  8
A-DETL-___4
 10
5268.4716718865483926
 20
4879.5082466569210737
 30
5.0
 11
5268.4716709891872597
 21
4796.4112716387226101
 31
5.0
210
-1.0
220
0.0000000107989628
230
0.0
  0
LINE
  5
227
  8
A-DETL-___4
 10
5268.4716718865483926
 20
4879.5082466569210737
 30
0.0
 11
5268.4716718865483926
 21
4879.5082466569210737
 31
5.0
210
-1.0
220
0.0000000107989628
230
0.0
  0
LINE
  5
228
  8
A-DETL-___4
 10
5263.4716746078829601
 20
4879.5082466569210737
 30
0.0
 11
5268.4716718865483926
 21
4879.5082466569210737
 31
0.0
210
-0.0000000000000001
220
-1.0
230
0.0
  0
LINE
  5
229
  8
A-DETL-___4
 10
5268.4716718865483926
 20
4879.5082466569210737
 30
0.0
 11
5268.4716718865483926
 21
4879.5082466569210737
 31
5.0
210
-0.0000000000000001
220
-1.0
230
0.0
  0
LINE
  5
22A
  8
A-DETL-___4
 10
5263.4716746078829601
 20
4879.5082466569210737
 30
5.0
 11
5268.4716718865483926
 21
4879.5082466569210737
 31
5.0
210
-0.0000000000000001
220
-1.0
230
0.0
  0
LINE
  5
22B
  8
A-DETL-___4
 10
5263.4716746078829601
 20
4879.5082466569210737
 30
0.0
 11
5263.4716746078829601
 21
4879.5082466569210737
 31
5.0
210
-0.0000000000000001
220
-1.0
230
0.0
  0
LINE
  5
22C
  8
A-DETL-___4
 10
5263.4716746078829601
 20
4899.5082466569201642
 30
0.0
 11
5263.4716746078829601
 21
4879.5082466569210737
 31
0.0
210
-1.0
220
0.0000000000000001
230
0.0
  0
LINE
  5
22D
  8
A-DETL-___4
 10
5263.4716746078829601
 20
4879.5082466569210737
 30
0.0
 11
5263.4716746078829601
 21
4879.5082466569210737
 31
5.0
210
-1.0
220
0.0000000000000001
230
0.0
  0
LINE
  5
22E
  8
A-DETL-___4
 10
5263.4716746078829601
 20
4899.5082466569201642
 30
5.0
 11
5263.4716746078829601
 21
4879.5082466569210737
 31
5.0
210
-1.0
220
0.0000000000000001
230
0.0
  0
LINE
  5
22F
  8
A-DETL-___4
 10
5263.4716746078829601
 20
4899.5082466569201642
 30
0.0
 11
5263.4716746078829601
 21
4899.5082466569201642
 31
5.0
210
-1.0
220
0.0000000000000001
230
0.0
  0
LINE
  5
230
  8
A-DETL-___4
 10
5268.4716738303650345
 20
4899.5082466569201642
 30
0.0
 11
5263.4716746078829601
 21
4899.5082466569201642
 31
0.0
210
0.0000000000000001
220
1.0
230
0.0
  0
LINE
  5
231
  8
A-DETL-___4
 10
5263.4716746078829601
 20
4899.5082466569201642
 30
0.0
 11
5263.4716746078829601
 21
4899.5082466569201642
 31
5.0
210
0.0000000000000001
220
1.0
230
0.0
  0
LINE
  5
232
  8
A-DETL-___4
 10
5268.4716738303650345
 20
4899.5082466569201642
 30
5.0
 11
5263.4716746078829601
 21
4899.5082466569201642
 31
5.0
210
0.0000000000000001
220
1.0
230
0.0
  0
LINE
  5
233
  8
A-DETL-___4
 10
5268.4716738303650345
 20
4899.5082466569201642
 30
0.0
 11
5268.4716738303650345
 21
4899.5082466569201642
 31
5.0
210
0.0000000000000001
220
1.0
230
0.0
  0
LINE
  5
234
  8
A-DETL-___4
 10
5268.4716747276852402
 20
4982.601354658989294
 30
0.0
 11
5268.4716738303650345
 21
4899.5082466569201642
 31
0.0
210
-1.0
220
0.0000000107989618
230
0.0
  0
LINE
  5
235
  8
A-DETL-___4
 10
5268.4716738303650345
 20
4899.5082466569201642
 30
0.0
 11
5268.4716738303650345
 21
4899.5082466569201642
 31
5.0
210
-1.0
220
0.0000000107989618
230
0.0
  0
LINE
  5
236
  8
A-DETL-___4
 10
5268.4716747276852402
 20
4982.601354658989294
 30
5.0
 11
5268.4716738303650345
 21
4899.5082466569201642
 31
5.0
210
-1.0
220
0.0000000107989618
230
0.0
  0
LINE
  5
237
  8
A-DETL-___4
 10
5268.4716747276852402
 20
4982.601354658989294
 30
0.0
 11
5268.4716747276852402
 21
4982.601354658989294
 31
5.0
210
-1.0
220
0.0000000107989618
230
0.0
  0
ARC
  5
238
  8
A-DETL-___4
 10
5270.471674734932094
 20
4982.6052216977841454
 30
0.0
 40
2.0000037457398472
 50
0.1109968889374659
 51
180.110782362675792
  0
LINE
  5
239
  8
A-DETL-___4
 10
5268.4716747276852402
 20
4982.601354658989294
 30
0.0
 11
5268.4716747276852402
 21
4982.601354658989294
 31
5.0
  0
ARC
  5
23A
  8
A-DETL-___4
 10
5270.471674734932094
 20
4982.6052216977841454
 30
5.0
 40
2.0000037457398472
 50
0.1109968889374659
 51
180.110782362675792
  0
LINE
  5
23B
  8
A-DETL-___4
 10
5272.4716747276852402
 20
4982.609096224960922
 30
0.0
 11
5272.4716747276852402
 21
4982.609096224960922
 31
5.0
  0
LINE
  5
23C
  8
A-DETL-___4
 10
5272.4716747276834212
 20
4977.5082659896315818
 30
0.0
 11
5272.4716747276852402
 21
4982.609096224960922
 31
0.0
210
1.0
220
-0.0000000000003567
230
0.0
  0
LINE
  5
23D
  8
A-DETL-___4
 10
5272.4716747276852402
 20
4982.609096224960922
 30
0.0
 11
5272.4716747276852402
 21
4982.609096224960922
 31
5.0
210
1.0
220
-0.0000000000003567
230
0.0
  0
LINE
  5
23E
  8
A-DETL-___4
 10
5272.4716747276834212
 20
4977.5082659896315818
 30
5.0
 11
5272.4716747276852402
 21
4982.609096224960922
 31
5.0
210
1.0
220
-0.0000000000003567
230
0.0
  0
LINE
  5
23F
  8
A-DETL-___4
 10
5272.4716747276834212
 20
4977.5082659896315818
 30
0.0
 11
5272.4716747276834212
 21
4977.5082659896315818
 31
5.0
210
1.0
220
-0.0000000000003567
230
0.0
  0
LINE
  5
240
  8
A-DETL-___4
 10
5286.4716747276816022
 20
4977.5082659896334007
 30
0.0
 11
5272.4716747276834212
 21
4977.5082659896315818
 31
0.0
210
0.0000000000000001
220
1.0
230
0.0
  0
LINE
  5
241
  8
A-DETL-___4
 10
5272.4716747276834212
 20
4977.5082659896315818
 30
0.0
 11
5272.4716747276834212
 21
4977.5082659896315818
 31
5.0
210
0.0000000000000001
220
1.0
230
0.0
  0
LINE
  5
242
  8
A-DETL-___4
 10
5286.4716747276816022
 20
4977.5082659896334007
 30
5.0
 11
5272.4716747276834212
 21
4977.5082659896315818
 31
5.0
210
0.0000000000000001
220
1.0
230
0.0
  0
LINE
  5
243
  8
A-DETL-___4
 10
5286.4716747276816022
 20
4977.5082659896334007
 30
0.0
 11
5286.4716747276816022
 21
4977.5082659896334007
 31
5.0
210
0.0000000000000001
220
1.0
230
0.0
  0
ARC
  5
244
  8
A-DETL-___4
 10
-5286.4716747276843307
 20
4979.5082659896315818
 30
0.0
 40
1.999999999999575
210
0.0
220
0.0
230
-1.0
 50
172.7566694748996099
 51
270.0000000000260911
  0
LINE
  5
245
  8
A-DETL-___4
 10
5286.4716747276816022
 20
4977.5082659896334007
 30
0.0
 11
5286.4716747276816022
 21
4977.5082659896334007
 31
5.0
  0
ARC
  5
246
  8
A-DETL-___4
 10
-5286.4716747276843307
 20
4979.5082659896315818
 30
-5.0
 40
1.999999999999575
210
0.0
220
0.0
230
-1.0
 50
172.7566694748996099
 51
270.0000000000260911
  0
LINE
  5
247
  8
A-DETL-___4
 10
5288.4557139938051478
 20
4979.7604329789173789
 30
0.0
 11
5288.4557139938051478
 21
4979.7604329789173789
 31
5.0
  0
ARC
  5
248
  8
A-DETL-___4
 10
5290.4402709537271221
 20
4980.0084927959460401
 30
0.0
 40
1.999999999999335
 50
90.8996888264241392
 51
187.1247376834041063
  0
LINE
  5
249
  8
A-DETL-___4
 10
5288.4557139938051478
 20
4979.7604329789173789
 30
0.0
 11
5288.4557139938051478
 21
4979.7604329789173789
 31
5.0
  0
ARC
  5
24A
  8
A-DETL-___4
 10
5290.4402709537271221
 20
4980.0084927959460401
 30
5.0
 40
1.999999999999335
 50
90.8996888264241392
 51
187.1247376834041063
  0
LINE
  5
24B
  8
A-DETL-___4
 10
5290.4088671797699135
 20
4982.0082462314931036
 30
0.0
 11
5290.4088671797699135
 21
4982.0082462314931036
 31
5.0
  0
LINE
  5
24C
  8
A-DETL-___4
 10
5346.4716747276843307
 20
4982.0082462314949225
 30
0.0
 11
5290.4088671797699135
 21
4982.0082462314931036
 31
0.0
210
-0.0000000000000162
220
1.0
230
0.0
  0
LINE
  5
24D
  8
A-DETL-___4
 10
5290.4088671797699135
 20
4982.0082462314931036
 30
0.0
 11
5290.4088671797699135
 21
4982.0082462314931036
 31
5.0
210
-0.0000000000000162
220
1.0
230
0.0
  0
LINE
  5
24E
  8
A-DETL-___4
 10
5346.4716747276843307
 20
4982.0082462314949225
 30
5.0
 11
5290.4088671797699135
 21
4982.0082462314931036
 31
5.0
210
-0.0000000000000162
220
1.0
230
0.0
  0
LINE
  5
24F
  8
A-DETL-___4
 10
5346.4716747276843307
 20
4982.0082462314949225
 30
0.0
 11
5346.4716747276843307
 21
4982.0082462314949225
 31
5.0
210
-0.0000000000000162
220
1.0
230
0.0
  0
ARC
  5
250
  8
A-DETL-___4
 10
5346.4716747276816022
 20
4980.008246231494013
 30
0.0
 40
2.0000000000009091
 50
0.0
 51
90.0000000000521254
  0
LINE
  5
251
  8
A-DETL-___4
 10
5346.4716747276843307
 20
4982.0082462314949225
 30
0.0
 11
5346.4716747276843307
 21
4982.0082462314949225
 31
5.0
  0
ARC
  5
252
  8
A-DETL-___4
 10
5346.4716747276816022
 20
4980.008246231494013
 30
5.0
 40
2.0000000000009091
 50
0.0
 51
90.0000000000521254
  0
LINE
  5
253
  8
A-DETL-___4
 10
5348.4716747276834212
 20
4980.0082462314912846
 30
0.0
 11
5348.4716747276834212
 21
4980.0082462314912846
 31
5.0
  0
LINE
  5
254
  8
A-DETL-___4
 10
5348.4716747276706883
 20
4971.7582466569210737
 30
0.0
 11
5348.4716747276834212
 21
4980.0082462314912846
 31
0.0
210
1.0
220
-0.0000000000014332
230
0.0
  0
LINE
  5
255
  8
A-DETL-___4
 10
5348.4716747276834212
 20
4980.0082462314912846
 30
0.0
 11
5348.4716747276834212
 21
4980.0082462314912846
 31
5.0
210
1.0
220
-0.0000000000014332
230
0.0
  0
LINE
  5
256
  8
A-DETL-___4
 10
5348.4716747276706883
 20
4971.7582466569210737
 30
5.0
 11
5348.4716747276834212
 21
4980.0082462314912846
 31
5.0
210
1.0
220
-0.0000000000014332
230
0.0
  0
LINE
  5
257
  8
A-DETL-___4
 10
5348.4716747276706883
 20
4971.7582466569210737
 30
0.0
 11
5348.4716747276706883
 21
4971.7582466569210737
 31
5.0
210
1.0
220
-0.0000000000014332
230
0.0
  0
LINE
  5
258
  8
A-DETL-___4
 10
5308.4716747276706883
 20
4971.7582466569210737
 30
0.0
 11
5348.4716747276706883
 21
4971.7582466569210737
 31
0.0
210
-0.0000000000000001
220
-1.0
230
0.0
  0
LINE
  5
259
  8
A-DETL-___4
 10
5348.4716747276706883
 20
4971.7582466569210737
 30
0.0
 11
5348.4716747276706883
 21
4971.7582466569210737
 31
5.0
210
-0.0000000000000001
220
-1.0
230
0.0
  0
LINE
  5
25A
  8
A-DETL-___4
 10
5308.4716747276706883
 20
4971.7582466569210737
 30
5.0
 11
5348.4716747276706883
 21
4971.7582466569210737
 31
5.0
210
-0.0000000000000001
220
-1.0
230
0.0
  0
LINE
  5
25B
  8
A-DETL-___4
 10
5308.4716747276706883
 20
4971.7582466569210737
 30
0.0
 11
5308.4716747276706883
 21
4971.7582466569210737
 31
5.0
210
-0.0000000000000001
220
-1.0
230
0.0
  0
LINE
  5
25C
  8
A-DETL-___4
 10
5308.4716747276706883
 20
4967.2582466569219832
 30
0.0
 11
5308.4716747276706883
 21
4971.7582466569210737
 31
0.0
210
1.0
220
-0.0000000000000001
230
0.0
  0
LINE
  5
25D
  8
A-DETL-___4
 10
5308.4716747276706883
 20
4971.7582466569210737
 30
0.0
 11
5308.4716747276706883
 21
4971.7582466569210737
 31
5.0
210
1.0
220
-0.0000000000000001
230
0.0
  0
LINE
  5
25E
  8
A-DETL-___4
 10
5308.4716747276706883
 20
4967.2582466569219832
 30
5.0
 11
5308.4716747276706883
 21
4971.7582466569210737
 31
5.0
210
1.0
220
-0.0000000000000001
230
0.0
  0
LINE
  5
25F
  8
A-DETL-___4
 10
5308.4716747276706883
 20
4967.2582466569219832
 30
0.0
 11
5308.4716747276706883
 21
4967.2582466569219832
 31
5.0
210
1.0
220
-0.0000000000000001
230
0.0
  0
ARC
  5
260
  8
A-DETL-___4
 10
5328.4716747276734168
 20
4842.0082466569192547
 30
5.0
 40
7.5
 50
180.0
 51
0.0
  0
LINE
  5
261
  8
A-DETL-___4
 10
5320.9716747276734168
 20
4842.0082466569192547
 30
5.0
 11
5320.9716747276734168
 21
4857.0082466569210737
 31
5.0
  0
ARC
  5
262
  8
A-DETL-___4
 10
5328.4716747276734168
 20
4857.0082466569210737
 30
5.0
 40
7.5
 50
0.0
 51
180.0
  0
LINE
  5
263
  8
A-DETL-___4
 10
5335.9716747276734168
 20
4857.0082466569210737
 30
5.0
 11
5335.9716747276734168
 21
4842.0082466569192547
 31
5.0
  0
ARC
  5
264
  8
A-DETL-___4
 10
5328.4716747276734168
 20
4937.0082466569219832
 30
5.0
 40
7.5
 50
0.0
 51
180.0
  0
LINE
  5
265
  8
A-DETL-___4
 10
5335.9716747276734168
 20
4937.0082466569219832
 30
5.0
 11
5335.9716747276734168
 21
4922.0082466569219832
 31
5.0
  0
ARC
  5
266
  8
A-DETL-___4
 10
5328.4716747276734168
 20
4922.0082466569219832
 30
5.0
 40
7.5
 50
180.0
 51
0.0
  0
LINE
  5
267
  8
A-DETL-___4
 10
5320.9716747276734168
 20
4922.0082466569219832
 30
5.0
 11
5320.9716747276734168
 21
4937.0082466569219832
 31
5.0
  0
LINE
  5
268
  8
A-DETL-___4
 10
5308.4716747276706883
 20
4967.2582466569219832
 30
5.0
 11
5308.4716747276706883
 21
4971.7582466569210737
 31
5.0
  0
LINE
  5
269
  8
A-DETL-___4
 10
5308.4716747276706883
 20
4971.7582466569210737
 30
5.0
 11
5348.4716747276706883
 21
4971.7582466569210737
 31
5.0
  0
LINE
  5
26A
  8
A-DETL-___4
 10
5348.4716747276706883
 20
4971.7582466569210737
 30
5.0
 11
5348.4716747276834212
 21
4980.0082462314912846
 31
5.0
  0
ARC
  5
26B
  8
A-DETL-___4
 10
5346.4716747276816022
 20
4980.008246231494013
 30
5.0
 40
2.0000000000009091
 50
0.0
 51
90.0000000000521254
  0
LINE
  5
26C
  8
A-DETL-___4
 10
5346.4716747276843307
 20
4982.0082462314949225
 30
5.0
 11
5290.4088671797699135
 21
4982.0082462314931036
 31
5.0
  0
ARC
  5
26D
  8
A-DETL-___4
 10
5290.4402709537271221
 20
4980.0084927959460401
 30
5.0
 40
1.999999999999335
 50
90.8996888264241392
 51
187.1247376834041063
  0
ARC
  5
26E
  8
A-DETL-___4
 10
5286.4716747276843307
 20
4979.5082659896315818
 30
5.0
 40
1.999999999999575
 50
269.9999999999739089
 51
7.2433305251003759
  0
LINE
  5
26F
  8
A-DETL-___4
 10
5286.4716747276816022
 20
4977.5082659896334007
 30
5.0
 11
5272.4716747276834212
 21
4977.5082659896315818
 31
5.0
  0
LINE
  5
270
  8
A-DETL-___4
 10
5272.4716747276834212
 20
4977.5082659896315818
 30
5.0
 11
5272.4716747276852402
 21
4982.609096224960922
 31
5.0
  0
ARC
  5
271
  8
A-DETL-___4
 10
5270.471674734932094
 20
4982.6052216977841454
 30
5.0
 40
2.0000037457398472
 50
0.1109968889374659
 51
180.110782362675792
  0
LINE
  5
272
  8
A-DETL-___4
 10
5268.4716747276852402
 20
4982.601354658989294
 30
5.0
 11
5268.4716738303650345
 21
4899.5082466569201642
 31
5.0
  0
LINE
  5
273
  8
A-DETL-___4
 10
5268.4716738303650345
 20
4899.5082466569201642
 30
5.0
 11
5263.4716746078829601
 21
4899.5082466569201642
 31
5.0
  0
LINE
  5
274
  8
A-DETL-___4
 10
5263.4716746078829601
 20
4899.5082466569201642
 30
5.0
 11
5263.4716746078829601
 21
4879.5082466569210737
 31
5.0
  0
LINE
  5
275
  8
A-DETL-___4
 10
5263.4716746078829601
 20
4879.5082466569210737
 30
5.0
 11
5268.4716718865483926
 21
4879.5082466569210737
 31
5.0
  0
LINE
  5
276
  8
A-DETL-___4
 10
5268.4716718865483926
 20
4879.5082466569210737
 30
5.0
 11
5268.4716709891872597
 21
4796.4112716387226101
 31
5.0
  0
ARC
  5
277
  8
A-DETL-___4
 10
5270.4716747349275465
 20
4796.4112716171239299
 30
5.0
 40
2.0000037457402859
 50
180.0
 51
0.110997538152402
  0
LINE
  5
278
  8
A-DETL-___4
 10
5272.4716747276788738
 20
4796.4151461453629963
 30
5.0
 11
5272.4716747276788738
 21
4801.5082273242132942
 31
5.0
  0
LINE
  5
279
  8
A-DETL-___4
 10
5272.4716747276788738
 20
4801.5082273242132942
 30
5.0
 11
5286.4716747276779643
 21
4801.5082273242132942
 31
5.0
  0
ARC
  5
27A
  8
A-DETL-___4
 10
5286.4716747276797832
 20
4799.5082273242142037
 30
5.0
 40
1.9999999999990901
 50
359.9999999999740226
 51
90.0000000000260485
  0
LINE
  5
27B
  8
A-DETL-___4
 10
5288.4716747276788738
 20
4799.5082273242132942
 30
5.0
 11
5288.4716747276788738
 21
4799.0082470823508629
 31
5.0
  0
ARC
  5
27C
  8
A-DETL-___4
 10
5290.4716747276779643
 20
4799.0082470823499534
 30
5.0
 40
1.9999999999990901
 50
180.0
 51
270.0000000000521254
  0
LINE
  5
27D
  8
A-DETL-___4
 10
5290.4716747276788738
 20
4797.0082470823508629
 30
5.0
 11
5346.4716747276788738
 21
4797.0082470823508629
 31
5.0
  0
ARC
  5
27E
  8
A-DETL-___4
 10
5346.4716747276797832
 20
4799.0082470823499534
 30
5.0
 40
1.9999999999990901
 50
269.9999999999739089
 51
0.0000000000260592
  0
LINE
  5
27F
  8
A-DETL-___4
 10
5348.4716747276788738
 20
4799.0082470823499534
 30
5.0
 11
5348.4716747276788738
 21
4807.2582466569210737
 31
5.0
  0
LINE
  5
280
  8
A-DETL-___4
 10
5348.4716747276788738
 20
4807.2582466569210737
 30
5.0
 11
5308.4716747276743263
 21
4807.2582466569210737
 31
5.0
  0
LINE
  5
281
  8
A-DETL-___4
 10
5308.4716747276743263
 20
4807.2582466569210737
 30
5.0
 11
5308.4716747276743263
 21
4811.7582466569210737
 31
5.0
  0
LINE
  5
282
  8
A-DETL-___4
 10
5308.4716747276743263
 20
4811.7582466569210737
 30
5.0
 11
5348.4716747276715978
 21
4811.7582466569210737
 31
5.0
  0
LINE
  5
283
  8
A-DETL-___4
 10
5348.4716747276715978
 20
4811.7582466569210737
 30
5.0
 11
5348.4716747276715978
 21
4967.2582466569219832
 31
5.0
  0
LINE
  5
284
  8
A-DETL-___4
 10
5348.4716747276715978
 20
4967.2582466569219832
 30
5.0
 11
5308.4716747276706883
 21
4967.2582466569219832
 31
5.0
  0
ARC
  5
285
  8
A-DETL-___4
 10
-5328.4716747276734168
 20
4842.0082466569192547
 30
0.0
 40
7.5
210
0.0
220
0.0
230
-1.0
 50
180.0
 51
0.0
  0
LINE
  5
286
  8
A-DETL-___4
 10
5335.9716747276734168
 20
4842.0082466569192547
 30
0.0
 11
5335.9716747276734168
 21
4857.0082466569210737
 31
0.0
210
0.0
220
0.0
230
-1.0
  0
ARC
  5
287
  8
A-DETL-___4
 10
-5328.4716747276734168
 20
4857.0082466569210737
 30
0.0
 40
7.5
210
0.0
220
0.0
230
-1.0
 50
0.0
 51
180.0
  0
LINE
  5
288
  8
A-DETL-___4
 10
5320.9716747276734168
 20
4857.0082466569210737
 30
0.0
 11
5320.9716747276734168
 21
4842.0082466569192547
 31
0.0
210
0.0
220
0.0
230
-1.0
  0
ARC
  5
289
  8
A-DETL-___4
 10
-5328.4716747276734168
 20
4937.0082466569219832
 30
0.0
 40
7.5
210
0.0
220
0.0
230
-1.0
 50
0.0
 51
180.0
  0
LINE
  5
28A
  8
A-DETL-___4
 10
5320.9716747276734168
 20
4937.0082466569219832
 30
0.0
 11
5320.9716747276734168
 21
4922.0082466569219832
 31
0.0
210
0.0
220
0.0
230
-1.0
  0
ARC
  5
28B
  8
A-DETL-___4
 10
-5328.4716747276734168
 20
4922.0082466569219832
 30
0.0
 40
7.5
210
0.0
220
0.0
230
-1.0
 50
180.0
 51
0.0
  0
LINE
  5
28C
  8
A-DETL-___4
 10
5335.9716747276734168
 20
4922.0082466569219832
 30
0.0
 11
5335.9716747276734168
 21
4937.0082466569219832
 31
0.0
210
0.0
220
0.0
230
-1.0
  0
LINE
  5
28D
  8
A-DETL-___4
 10
5308.4716747276706883
 20
4967.2582466569219832
 30
0.0
 11
5308.4716747276706883
 21
4971.7582466569210737
 31
0.0
210
0.0
220
0.0
230
-1.0
  0
LINE
  5
28E
  8
A-DETL-___4
 10
5348.4716747276715978
 20
4967.2582466569219832
 30
0.0
 11
5308.4716747276706883
 21
4967.2582466569219832
 31
0.0
210
0.0
220
0.0
230
-1.0
  0
LINE
  5
28F
  8
A-DETL-___4
 10
5348.4716747276715978
 20
4811.7582466569210737
 30
0.0
 11
5348.4716747276715978
 21
4967.2582466569219832
 31
0.0
210
0.0
220
0.0
230
-1.0
  0
LINE
  5
290
  8
A-DETL-___4
 10
5308.4716747276743263
 20
4811.7582466569210737
 30
0.0
 11
5348.4716747276715978
 21
4811.7582466569210737
 31
0.0
210
0.0
220
0.0
230
-1.0
  0
LINE
  5
291
  8
A-DETL-___4
 10
5308.4716747276743263
 20
4807.2582466569210737
 30
0.0
 11
5308.4716747276743263
 21
4811.7582466569210737
 31
0.0
210
0.0
220
0.0
230
-1.0
  0
LINE
  5
292
  8
A-DETL-___4
 10
5348.4716747276788738
 20
4807.2582466569210737
 30
0.0
 11
5308.4716747276743263
 21
4807.2582466569210737
 31
0.0
210
0.0
220
0.0
230
-1.0
  0
LINE
  5
293
  8
A-DETL-___4
 10
5348.4716747276788738
 20
4799.0082470823499534
 30
0.0
 11
5348.4716747276788738
 21
4807.2582466569210737
 31
0.0
210
0.0
220
0.0
230
-1.0
  0
ARC
  5
294
  8
A-DETL-___4
 10
-5346.4716747276797832
 20
4799.0082470823499534
 30
0.0
 40
1.9999999999990901
210
0.0
220
0.0
230
-1.0
 50
179.9999999999739089
 51
270.0000000000259774
  0
LINE
  5
295
  8
A-DETL-___4
 10
5290.4716747276788738
 20
4797.0082470823508629
 30
0.0
 11
5346.4716747276788738
 21
4797.0082470823508629
 31
0.0
210
0.0
220
0.0
230
-1.0
  0
ARC
  5
296
  8
A-DETL-___4
 10
-5290.4716747276779643
 20
4799.0082470823499534
 30
0.0
 40
1.9999999999990901
210
0.0
220
0.0
230
-1.0
 50
269.9999999999478746
 51
0.0
  0
LINE
  5
297
  8
A-DETL-___4
 10
5288.4716747276788738
 20
4799.5082273242132942
 30
0.0
 11
5288.4716747276788738
 21
4799.0082470823508629
 31
0.0
210
0.0
220
0.0
230
-1.0
  0
ARC
  5
298
  8
A-DETL-___4
 10
-5286.4716747276797832
 20
4799.5082273242142037
 30
0.0
 40
1.9999999999990901
210
0.0
220
0.0
230
-1.0
 50
89.9999999999739515
 51
180.0000000000260059
  0
LINE
  5
299
  8
A-DETL-___4
 10
5272.4716747276788738
 20
4801.5082273242132942
 30
0.0
 11
5286.4716747276779643
 21
4801.5082273242132942
 31
0.0
210
0.0
220
0.0
230
-1.0
  0
LINE
  5
29A
  8
A-DETL-___4
 10
5272.4716747276788738
 20
4796.4151461453629963
 30
0.0
 11
5272.4716747276788738
 21
4801.5082273242132942
 31
0.0
210
0.0
220
0.0
230
-1.0
  0
ARC
  5
29B
  8
A-DETL-___4
 10
-5270.4716747349275465
 20
4796.4112716171239299
 30
0.0
 40
2.0000037457402859
210
0.0
220
0.0
230
-1.0
 50
179.8890024618476104
 51
0.0
  0
LINE
  5
29C
  8
A-DETL-___4
 10
5268.4716718865483926
 20
4879.5082466569210737
 30
0.0
 11
5268.4716709891872597
 21
4796.4112716387226101
 31
0.0
210
0.0
220
0.0
230
-1.0
  0
LINE
  5
29D
  8
A-DETL-___4
 10
5263.4716746078829601
 20
4879.5082466569210737
 30
0.0
 11
5268.4716718865483926
 21
4879.5082466569210737
 31
0.0
210
0.0
220
0.0
230
-1.0
  0
LINE
  5
29E
  8
A-DETL-___4
 10
5263.4716746078829601
 20
4899.5082466569201642
 30
0.0
 11
5263.4716746078829601
 21
4879.5082466569210737
 31
0.0
210
0.0
220
0.0
230
-1.0
  0
LINE
  5
29F
  8
A-DETL-___4
 10
5268.4716738303650345
 20
4899.5082466569201642
 30
0.0
 11
5263.4716746078829601
 21
4899.5082466569201642
 31
0.0
210
0.0
220
0.0
230
-1.0
  0
LINE
  5
2A0
  8
A-DETL-___4
 10
5268.4716747276852402
 20
4982.601354658989294
 30
0.0
 11
5268.4716738303650345
 21
4899.5082466569201642
 31
0.0
210
0.0
220
0.0
230
-1.0
  0
ARC
  5
2A1
  8
A-DETL-___4
 10
-5270.471674734932094
 20
4982.6052216977841454
 30
0.0
 40
2.0000037457398472
210
0.0
220
0.0
230
-1.0
 50
359.8892176373241796
 51
179.8890031110624932
  0
LINE
  5
2A2
  8
A-DETL-___4
 10
5272.4716747276834212
 20
4977.5082659896315818
 30
0.0
 11
5272.4716747276852402
 21
4982.609096224960922
 31
0.0
210
0.0
220
0.0
230
-1.0
  0
LINE
  5
2A3
  8
A-DETL-___4
 10
5286.4716747276816022
 20
4977.5082659896334007
 30
0.0
 11
5272.4716747276834212
 21
4977.5082659896315818
 31
0.0
210
0.0
220
0.0
230
-1.0
  0
ARC
  5
2A4
  8
A-DETL-___4
 10
-5286.4716747276843307
 20
4979.5082659896315818
 30
0.0
 40
1.999999999999575
210
0.0
220
0.0
230
-1.0
 50
172.7566694748996099
 51
270.0000000000260911
  0
ARC
  5
2A5
  8
A-DETL-___4
 10
-5290.4402709537271221
 20
4980.0084927959460401
 30
0.0
 40
1.999999999999335
210
0.0
220
0.0
230
-1.0
 50
352.8752623165959221
 51
89.100311173575804
  0
LINE
  5
2A6
  8
A-DETL-___4
 10
5346.4716747276843307
 20
4982.0082462314949225
 30
0.0
 11
5290.4088671797699135
 21
4982.0082462314931036
 31
0.0
210
0.0
220
0.0
230
-1.0
  0
ARC
  5
2A7
  8
A-DETL-___4
 10
-5346.4716747276816022
 20
4980.008246231494013
 30
0.0
 40
2.0000000000009091
210
0.0
220
0.0
230
-1.0
 50
89.9999999999478888
 51
180.0
  0
LINE
  5
2A8
  8
A-DETL-___4
 10
5348.4716747276706883
 20
4971.7582466569210737
 30
0.0
 11
5348.4716747276834212
 21
4980.0082462314912846
 31
0.0
210
0.0
220
0.0
230
-1.0
  0
LINE
  5
2A9
  8
A-DETL-___4
 10
5308.4716747276706883
 20
4971.7582466569210737
 30
0.0
 11
5348.4716747276706883
 21
4971.7582466569210737
 31
0.0
210
0.0
220
0.0
230
-1.0
  0
ENDBLK
  5
2AB
  8
0
  0
BLOCK
  8
0
  2
*U5
 70
     1
 10
0.0
 20
0.0
 30
0.0
  3
*U5
  1

  0
ARC
  5
2D4
  8
A-DETL-___4
 10
5328.4716747276734168
 20
4842.0082466569192547
 30
0.0
 40
7.5
 50
180.0
 51
0.0
  0
LINE
  5
2D5
  8
A-DETL-___4
 10
5320.9716747276734168
 20
4842.0082466569192547
 30
0.0
 11
5320.9716747276734168
 21
4842.0082466569192547
 31
5.0
  0
ARC
  5
2D6
  8
A-DETL-___4
 10
-5328.4716747276734168
 20
4842.0082466569192547
 30
-5.0
 40
7.5
210
0.0
220
0.0
230
-1.0
 50
180.0
 51
0.0
  0
LINE
  5
2D7
  8
A-DETL-___4
 10
5335.9716747276734168
 20
4842.0082466569192547
 30
0.0
 11
5335.9716747276734168
 21
4842.0082466569192547
 31
5.0
  0
LINE
  5
2D8
  8
A-DETL-___4
 10
5320.9716747276734168
 20
4857.0082466569210737
 30
0.0
 11
5320.9716747276734168
 21
4842.0082466569192547
 31
0.0
210
1.0
220
-0.0000000000000001
230
0.0
  0
LINE
  5
2D9
  8
A-DETL-___4
 10
5320.9716747276734168
 20
4857.0082466569210737
 30
0.0
 11
5320.9716747276734168
 21
4857.0082466569210737
 31
5.0
210
1.0
220
-0.0000000000000001
230
0.0
  0
LINE
  5
2DA
  8
A-DETL-___4
 10
5320.9716747276734168
 20
4842.0082466569192547
 30
5.0
 11
5320.9716747276734168
 21
4857.0082466569210737
 31
5.0
210
1.0
220
-0.0000000000000001
230
0.0
  0
LINE
  5
2DB
  8
A-DETL-___4
 10
5320.9716747276734168
 20
4842.0082466569192547
 30
0.0
 11
5320.9716747276734168
 21
4842.0082466569192547
 31
5.0
210
1.0
220
-0.0000000000000001
230
0.0
  0
ARC
  5
2DC
  8
A-DETL-___4
 10
5328.4716747276734168
 20
4857.0082466569210737
 30
0.0
 40
7.5
 50
0.0
 51
180.0
  0
LINE
  5
2DD
  8
A-DETL-___4
 10
5335.9716747276734168
 20
4857.0082466569210737
 30
0.0
 11
5335.9716747276734168
 21
4857.0082466569210737
 31
5.0
  0
ARC
  5
2DE
  8
A-DETL-___4
 10
-5328.4716747276734168
 20
4857.0082466569210737
 30
-5.0
 40
7.5
210
0.0
220
0.0
230
-1.0
 50
0.0
 51
180.0
  0
LINE
  5
2DF
  8
A-DETL-___4
 10
5320.9716747276734168
 20
4857.0082466569210737
 30
0.0
 11
5320.9716747276734168
 21
4857.0082466569210737
 31
5.0
  0
LINE
  5
2E0
  8
A-DETL-___4
 10
5335.9716747276734168
 20
4842.0082466569192547
 30
0.0
 11
5335.9716747276734168
 21
4857.0082466569210737
 31
0.0
210
-1.0
220
0.0000000000000001
230
0.0
  0
LINE
  5
2E1
  8
A-DETL-___4
 10
5335.9716747276734168
 20
4842.0082466569192547
 30
0.0
 11
5335.9716747276734168
 21
4842.0082466569192547
 31
5.0
210
-1.0
220
0.0000000000000001
230
0.0
  0
LINE
  5
2E2
  8
A-DETL-___4
 10
5335.9716747276734168
 20
4857.0082466569210737
 30
5.0
 11
5335.9716747276734168
 21
4842.0082466569192547
 31
5.0
210
-1.0
220
0.0000000000000001
230
0.0
  0
LINE
  5
2E3
  8
A-DETL-___4
 10
5335.9716747276734168
 20
4857.0082466569210737
 30
0.0
 11
5335.9716747276734168
 21
4857.0082466569210737
 31
5.0
210
-1.0
220
0.0000000000000001
230
0.0
  0
ARC
  5
2E4
  8
A-DETL-___4
 10
5328.4716747276734168
 20
4937.0082466569219832
 30
0.0
 40
7.5
 50
0.0
 51
180.0
  0
LINE
  5
2E5
  8
A-DETL-___4
 10
5335.9716747276734168
 20
4937.0082466569219832
 30
0.0
 11
5335.9716747276734168
 21
4937.0082466569219832
 31
5.0
  0
ARC
  5
2E6
  8
A-DETL-___4
 10
-5328.4716747276734168
 20
4937.0082466569219832
 30
-5.0
 40
7.5
210
0.0
220
0.0
230
-1.0
 50
0.0
 51
180.0
  0
LINE
  5
2E7
  8
A-DETL-___4
 10
5320.9716747276734168
 20
4937.0082466569219832
 30
0.0
 11
5320.9716747276734168
 21
4937.0082466569219832
 31
5.0
  0
LINE
  5
2E8
  8
A-DETL-___4
 10
5335.9716747276734168
 20
4922.0082466569219832
 30
0.0
 11
5335.9716747276734168
 21
4937.0082466569219832
 31
0.0
210
-1.0
220
0.0000000000000001
230
0.0
  0
LINE
  5
2E9
  8
A-DETL-___4
 10
5335.9716747276734168
 20
4922.0082466569219832
 30
0.0
 11
5335.9716747276734168
 21
4922.0082466569219832
 31
5.0
210
-1.0
220
0.0000000000000001
230
0.0
  0
LINE
  5
2EA
  8
A-DETL-___4
 10
5335.9716747276734168
 20
4937.0082466569219832
 30
5.0
 11
5335.9716747276734168
 21
4922.0082466569219832
 31
5.0
210
-1.0
220
0.0000000000000001
230
0.0
  0
LINE
  5
2EB
  8
A-DETL-___4
 10
5335.9716747276734168
 20
4937.0082466569219832
 30
0.0
 11
5335.9716747276734168
 21
4937.0082466569219832
 31
5.0
210
-1.0
220
0.0000000000000001
230
0.0
  0
ARC
  5
2EC
  8
A-DETL-___4
 10
5328.4716747276734168
 20
4922.0082466569219832
 30
0.0
 40
7.5
 50
180.0
 51
0.0
  0
LINE
  5
2ED
  8
A-DETL-___4
 10
5320.9716747276734168
 20
4922.0082466569219832
 30
0.0
 11
5320.9716747276734168
 21
4922.0082466569219832
 31
5.0
  0
ARC
  5
2EE
  8
A-DETL-___4
 10
-5328.4716747276734168
 20
4922.0082466569219832
 30
-5.0
 40
7.5
210
0.0
220
0.0
230
-1.0
 50
180.0
 51
0.0
  0
LINE
  5
2EF
  8
A-DETL-___4
 10
5335.9716747276734168
 20
4922.0082466569219832
 30
0.0
 11
5335.9716747276734168
 21
4922.0082466569219832
 31
5.0
  0
LINE
  5
2F0
  8
A-DETL-___4
 10
5320.9716747276734168
 20
4937.0082466569219832
 30
0.0
 11
5320.9716747276734168
 21
4922.0082466569219832
 31
0.0
210
1.0
220
-0.0000000000000001
230
0.0
  0
LINE
  5
2F1
  8
A-DETL-___4
 10
5320.9716747276734168
 20
4937.0082466569219832
 30
0.0
 11
5320.9716747276734168
 21
4937.0082466569219832
 31
5.0
210
1.0
220
-0.0000000000000001
230
0.0
  0
LINE
  5
2F2
  8
A-DETL-___4
 10
5320.9716747276734168
 20
4922.0082466569219832
 30
5.0
 11
5320.9716747276734168
 21
4937.0082466569219832
 31
5.0
210
1.0
220
-0.0000000000000001
230
0.0
  0
LINE
  5
2F3
  8
A-DETL-___4
 10
5320.9716747276734168
 20
4922.0082466569219832
 30
0.0
 11
5320.9716747276734168
 21
4922.0082466569219832
 31
5.0
210
1.0
220
-0.0000000000000001
230
0.0
  0
LINE
  5
2F4
  8
A-DETL-___4
 10
5348.4716747276715978
 20
4967.2582466569219832
 30
0.0
 11
5308.4716747276706883
 21
4967.2582466569219832
 31
0.0
210
0.0000000000000001
220
1.0
230
0.0
  0
LINE
  5
2F5
  8
A-DETL-___4
 10
5308.4716747276706883
 20
4967.2582466569219832
 30
0.0
 11
5308.4716747276706883
 21
4967.2582466569219832
 31
5.0
210
0.0000000000000001
220
1.0
230
0.0
  0
LINE
  5
2F6
  8
A-DETL-___4
 10
5348.4716747276715978
 20
4967.2582466569219832
 30
5.0
 11
5308.4716747276706883
 21
4967.2582466569219832
 31
5.0
210
0.0000000000000001
220
1.0
230
0.0
  0
LINE
  5
2F7
  8
A-DETL-___4
 10
5348.4716747276715978
 20
4967.2582466569219832
 30
0.0
 11
5348.4716747276715978
 21
4967.2582466569219832
 31
5.0
210
0.0000000000000001
220
1.0
230
0.0
  0
LINE
  5
2F8
  8
A-DETL-___4
 10
5348.4716747276715978
 20
4811.7582466569210737
 30
0.0
 11
5348.4716747276715978
 21
4967.2582466569219832
 31
0.0
210
1.0
220
-0.0000000000000001
230
0.0
  0
LINE
  5
2F9
  8
A-DETL-___4
 10
5348.4716747276715978
 20
4967.2582466569219832
 30
0.0
 11
5348.4716747276715978
 21
4967.2582466569219832
 31
5.0
210
1.0
220
-0.0000000000000001
230
0.0
  0
LINE
  5
2FA
  8
A-DETL-___4
 10
5348.4716747276715978
 20
4811.7582466569210737
 30
5.0
 11
5348.4716747276715978
 21
4967.2582466569219832
 31
5.0
210
1.0
220
-0.0000000000000001
230
0.0
  0
LINE
  5
2FB
  8
A-DETL-___4
 10
5348.4716747276715978
 20
4811.7582466569210737
 30
0.0
 11
5348.4716747276715978
 21
4811.7582466569210737
 31
5.0
210
1.0
220
-0.0000000000000001
230
0.0
  0
LINE
  5
2FC
  8
A-DETL-___4
 10
5308.4716747276743263
 20
4811.7582466569210737
 30
0.0
 11
5348.4716747276715978
 21
4811.7582466569210737
 31
0.0
210
-0.0000000000000001
220
-1.0
230
0.0
  0
LINE
  5
2FD
  8
A-DETL-___4
 10
5348.4716747276715978
 20
4811.7582466569210737
 30
0.0
 11
5348.4716747276715978
 21
4811.7582466569210737
 31
5.0
210
-0.0000000000000001
220
-1.0
230
0.0
  0
LINE
  5
2FE
  8
A-DETL-___4
 10
5308.4716747276743263
 20
4811.7582466569210737
 30
5.0
 11
5348.4716747276715978
 21
4811.7582466569210737
 31
5.0
210
-0.0000000000000001
220
-1.0
230
0.0
  0
LINE
  5
2FF
  8
A-DETL-___4
 10
5308.4716747276743263
 20
4811.7582466569210737
 30
0.0
 11
5308.4716747276743263
 21
4811.7582466569210737
 31
5.0
210
-0.0000000000000001
220
-1.0
230
0.0
  0
LINE
  5
300
  8
A-DETL-___4
 10
5308.4716747276743263
 20
4807.2582466569210737
 30
0.0
 11
5308.4716747276743263
 21
4811.7582466569210737
 31
0.0
210
1.0
220
-0.0000000000000001
230
0.0
  0
LINE
  5
301
  8
A-DETL-___4
 10
5308.4716747276743263
 20
4811.7582466569210737
 30
0.0
 11
5308.4716747276743263
 21
4811.7582466569210737
 31
5.0
210
1.0
220
-0.0000000000000001
230
0.0
  0
LINE
  5
302
  8
A-DETL-___4
 10
5308.4716747276743263
 20
4807.2582466569210737
 30
5.0
 11
5308.4716747276743263
 21
4811.7582466569210737
 31
5.0
210
1.0
220
-0.0000000000000001
230
0.0
  0
LINE
  5
303
  8
A-DETL-___4
 10
5308.4716747276743263
 20
4807.2582466569210737
 30
0.0
 11
5308.4716747276743263
 21
4807.2582466569210737
 31
5.0
210
1.0
220
-0.0000000000000001
230
0.0
  0
LINE
  5
304
  8
A-DETL-___4
 10
5348.4716747276788738
 20
4807.2582466569210737
 30
0.0
 11
5308.4716747276743263
 21
4807.2582466569210737
 31
0.0
210
0.0000000000000001
220
1.0
230
0.0
  0
LINE
  5
305
  8
A-DETL-___4
 10
5308.4716747276743263
 20
4807.2582466569210737
 30
0.0
 11
5308.4716747276743263
 21
4807.2582466569210737
 31
5.0
210
0.0000000000000001
220
1.0
230
0.0
  0
LINE
  5
306
  8
A-DETL-___4
 10
5348.4716747276788738
 20
4807.2582466569210737
 30
5.0
 11
5308.4716747276743263
 21
4807.2582466569210737
 31
5.0
210
0.0000000000000001
220
1.0
230
0.0
  0
LINE
  5
307
  8
A-DETL-___4
 10
5348.4716747276788738
 20
4807.2582466569210737
 30
0.0
 11
5348.4716747276788738
 21
4807.2582466569210737
 31
5.0
210
0.0000000000000001
220
1.0
230
0.0
  0
LINE
  5
308
  8
A-DETL-___4
 10
5348.4716747276788738
 20
4799.0082470823499534
 30
0.0
 11
5348.4716747276788738
 21
4807.2582466569210737
 31
0.0
210
1.0
220
-0.0000000000000001
230
0.0
  0
LINE
  5
309
  8
A-DETL-___4
 10
5348.4716747276788738
 20
4807.2582466569210737
 30
0.0
 11
5348.4716747276788738
 21
4807.2582466569210737
 31
5.0
210
1.0
220
-0.0000000000000001
230
0.0
  0
LINE
  5
30A
  8
A-DETL-___4
 10
5348.4716747276788738
 20
4799.0082470823499534
 30
5.0
 11
5348.4716747276788738
 21
4807.2582466569210737
 31
5.0
210
1.0
220
-0.0000000000000001
230
0.0
  0
LINE
  5
30B
  8
A-DETL-___4
 10
5348.4716747276788738
 20
4799.0082470823499534
 30
0.0
 11
5348.4716747276788738
 21
4799.0082470823499534
 31
5.0
210
1.0
220
-0.0000000000000001
230
0.0
  0
ARC
  5
30C
  8
A-DETL-___4
 10
5346.4716747276797832
 20
4799.0082470823499534
 30
0.0
 40
1.9999999999990901
 50
269.9999999999739089
 51
0.0000000000260592
  0
LINE
  5
30D
  8
A-DETL-___4
 10
5348.4716747276788738
 20
4799.0082470823499534
 30
0.0
 11
5348.4716747276788738
 21
4799.0082470823499534
 31
5.0
  0
ARC
  5
30E
  8
A-DETL-___4
 10
5346.4716747276797832
 20
4799.0082470823499534
 30
5.0
 40
1.9999999999990901
 50
269.9999999999739089
 51
0.0000000000260592
  0
LINE
  5
30F
  8
A-DETL-___4
 10
5346.4716747276788738
 20
4797.0082470823508629
 30
0.0
 11
5346.4716747276788738
 21
4797.0082470823508629
 31
5.0
  0
LINE
  5
310
  8
A-DETL-___4
 10
5290.4716747276788738
 20
4797.0082470823508629
 30
0.0
 11
5346.4716747276788738
 21
4797.0082470823508629
 31
0.0
210
-0.0000000000000163
220
-1.0
230
0.0
  0
LINE
  5
311
  8
A-DETL-___4
 10
5346.4716747276788738
 20
4797.0082470823508629
 30
0.0
 11
5346.4716747276788738
 21
4797.0082470823508629
 31
5.0
210
-0.0000000000000163
220
-1.0
230
0.0
  0
LINE
  5
312
  8
A-DETL-___4
 10
5290.4716747276788738
 20
4797.0082470823508629
 30
5.0
 11
5346.4716747276788738
 21
4797.0082470823508629
 31
5.0
210
-0.0000000000000163
220
-1.0
230
0.0
  0
LINE
  5
313
  8
A-DETL-___4
 10
5290.4716747276788738
 20
4797.0082470823508629
 30
0.0
 11
5290.4716747276788738
 21
4797.0082470823508629
 31
5.0
210
-0.0000000000000163
220
-1.0
230
0.0
  0
ARC
  5
314
  8
A-DETL-___4
 10
5290.4716747276779643
 20
4799.0082470823499534
 30
0.0
 40
1.9999999999990901
 50
180.0
 51
270.0000000000521254
  0
LINE
  5
315
  8
A-DETL-___4
 10
5290.4716747276788738
 20
4797.0082470823508629
 30
0.0
 11
5290.4716747276788738
 21
4797.0082470823508629
 31
5.0
  0
ARC
  5
316
  8
A-DETL-___4
 10
5290.4716747276779643
 20
4799.0082470823499534
 30
5.0
 40
1.9999999999990901
 50
180.0
 51
270.0000000000521254
  0
LINE
  5
317
  8
A-DETL-___4
 10
5288.4716747276788738
 20
4799.0082470823508629
 30
0.0
 11
5288.4716747276788738
 21
4799.0082470823508629
 31
5.0
  0
LINE
  5
318
  8
A-DETL-___4
 10
5288.4716747276788738
 20
4799.5082273242132942
 30
0.0
 11
5288.4716747276788738
 21
4799.0082470823508629
 31
0.0
210
-1.0
220
0.0000000000000001
230
0.0
  0
LINE
  5
319
  8
A-DETL-___4
 10
5288.4716747276788738
 20
4799.0082470823508629
 30
0.0
 11
5288.4716747276788738
 21
4799.0082470823508629
 31
5.0
210
-1.0
220
0.0000000000000001
230
0.0
  0
LINE
  5
31A
  8
A-DETL-___4
 10
5288.4716747276788738
 20
4799.5082273242132942
 30
5.0
 11
5288.4716747276788738
 21
4799.0082470823508629
 31
5.0
210
-1.0
220
0.0000000000000001
230
0.0
  0
LINE
  5
31B
  8
A-DETL-___4
 10
5288.4716747276788738
 20
4799.5082273242132942
 30
0.0
 11
5288.4716747276788738
 21
4799.5082273242132942
 31
5.0
210
-1.0
220
0.0000000000000001
230
0.0
  0
ARC
  5
31C
  8
A-DETL-___4
 10
-5286.4716747276797832
 20
4799.5082273242142037
 30
0.0
 40
1.9999999999990901
210
0.0
220
0.0
230
-1.0
 50
89.9999999999739515
 51
180.0000000000260059
  0
LINE
  5
31D
  8
A-DETL-___4
 10
5288.4716747276788738
 20
4799.5082273242132942
 30
0.0
 11
5288.4716747276788738
 21
4799.5082273242132942
 31
5.0
  0
ARC
  5
31E
  8
A-DETL-___4
 10
-5286.4716747276797832
 20
4799.5082273242142037
 30
-5.0
 40
1.9999999999990901
210
0.0
220
0.0
230
-1.0
 50
89.9999999999739515
 51
180.0000000000260059
  0
LINE
  5
31F
  8
A-DETL-___4
 10
5286.4716747276779643
 20
4801.5082273242132942
 30
0.0
 11
5286.4716747276779643
 21
4801.5082273242132942
 31
5.0
  0
LINE
  5
320
  8
A-DETL-___4
 10
5272.4716747276788738
 20
4801.5082273242132942
 30
0.0
 11
5286.4716747276779643
 21
4801.5082273242132942
 31
0.0
210
-0.0000000000000001
220
-1.0
230
0.0
  0
LINE
  5
321
  8
A-DETL-___4
 10
5286.4716747276779643
 20
4801.5082273242132942
 30
0.0
 11
5286.4716747276779643
 21
4801.5082273242132942
 31
5.0
210
-0.0000000000000001
220
-1.0
230
0.0
  0
LINE
  5
322
  8
A-DETL-___4
 10
5272.4716747276788738
 20
4801.5082273242132942
 30
5.0
 11
5286.4716747276779643
 21
4801.5082273242132942
 31
5.0
210
-0.0000000000000001
220
-1.0
230
0.0
  0
LINE
  5
323
  8
A-DETL-___4
 10
5272.4716747276788738
 20
4801.5082273242132942
 30
0.0
 11
5272.4716747276788738
 21
4801.5082273242132942
 31
5.0
210
-0.0000000000000001
220
-1.0
230
0.0
  0
LINE
  5
324
  8
A-DETL-___4
 10
5272.4716747276788738
 20
4796.4151461453629963
 30
0.0
 11
5272.4716747276788738
 21
4801.5082273242132942
 31
0.0
210
1.0
220
-0.0000000000000001
230
0.0
  0
LINE
  5
325
  8
A-DETL-___4
 10
5272.4716747276788738
 20
4801.5082273242132942
 30
0.0
 11
5272.4716747276788738
 21
4801.5082273242132942
 31
5.0
210
1.0
220
-0.0000000000000001
230
0.0
  0
LINE
  5
326
  8
A-DETL-___4
 10
5272.4716747276788738
 20
4796.4151461453629963
 30
5.0
 11
5272.4716747276788738
 21
4801.5082273242132942
 31
5.0
210
1.0
220
-0.0000000000000001
230
0.0
  0
LINE
  5
327
  8
A-DETL-___4
 10
5272.4716747276788738
 20
4796.4151461453629963
 30
0.0
 11
5272.4716747276788738
 21
4796.4151461453629963
 31
5.0
210
1.0
220
-0.0000000000000001
230
0.0
  0
ARC
  5
328
  8
A-DETL-___4
 10
5270.4716747349275465
 20
4796.4112716171239299
 30
0.0
 40
2.0000037457402859
 50
180.0
 51
0.110997538152402
  0
LINE
  5
329
  8
A-DETL-___4
 10
5272.4716747276788738
 20
4796.4151461453629963
 30
0.0
 11
5272.4716747276788738
 21
4796.4151461453629963
 31
5.0
  0
ARC
  5
32A
  8
A-DETL-___4
 10
5270.4716747349275465
 20
4796.4112716171239299
 30
5.0
 40
2.0000037457402859
 50
180.0
 51
0.110997538152402
  0
LINE
  5
32B
  8
A-DETL-___4
 10
5268.4716709891872597
 20
4796.4112716387226101
 30
0.0
 11
5268.4716709891872597
 21
4796.4112716387226101
 31
5.0
  0
LINE
  5
32C
  8
A-DETL-___4
 10
5268.4716718865483926
 20
4879.5082466569210737
 30
0.0
 11
5268.4716709891872597
 21
4796.4112716387226101
 31
0.0
210
-1.0
220
0.0000000107989628
230
0.0
  0
LINE
  5
32D
  8
A-DETL-___4
 10
5268.4716709891872597
 20
4796.4112716387226101
 30
0.0
 11
5268.4716709891872597
 21
4796.4112716387226101
 31
5.0
210
-1.0
220
0.0000000107989628
230
0.0
  0
LINE
  5
32E
  8
A-DETL-___4
 10
5268.4716718865483926
 20
4879.5082466569210737
 30
5.0
 11
5268.4716709891872597
 21
4796.4112716387226101
 31
5.0
210
-1.0
220
0.0000000107989628
230
0.0
  0
LINE
  5
32F
  8
A-DETL-___4
 10
5268.4716718865483926
 20
4879.5082466569210737
 30
0.0
 11
5268.4716718865483926
 21
4879.5082466569210737
 31
5.0
210
-1.0
220
0.0000000107989628
230
0.0
  0
LINE
  5
330
  8
A-DETL-___4
 10
5263.4716746078829601
 20
4879.5082466569210737
 30
0.0
 11
5268.4716718865483926
 21
4879.5082466569210737
 31
0.0
210
-0.0000000000000001
220
-1.0
230
0.0
  0
LINE
  5
331
  8
A-DETL-___4
 10
5268.4716718865483926
 20
4879.5082466569210737
 30
0.0
 11
5268.4716718865483926
 21
4879.5082466569210737
 31
5.0
210
-0.0000000000000001
220
-1.0
230
0.0
  0
LINE
  5
332
  8
A-DETL-___4
 10
5263.4716746078829601
 20
4879.5082466569210737
 30
5.0
 11
5268.4716718865483926
 21
4879.5082466569210737
 31
5.0
210
-0.0000000000000001
220
-1.0
230
0.0
  0
LINE
  5
333
  8
A-DETL-___4
 10
5263.4716746078829601
 20
4879.5082466569210737
 30
0.0
 11
5263.4716746078829601
 21
4879.5082466569210737
 31
5.0
210
-0.0000000000000001
220
-1.0
230
0.0
  0
LINE
  5
334
  8
A-DETL-___4
 10
5263.4716746078829601
 20
4899.5082466569201642
 30
0.0
 11
5263.4716746078829601
 21
4879.5082466569210737
 31
0.0
210
-1.0
220
0.0000000000000001
230
0.0
  0
LINE
  5
335
  8
A-DETL-___4
 10
5263.4716746078829601
 20
4879.5082466569210737
 30
0.0
 11
5263.4716746078829601
 21
4879.5082466569210737
 31
5.0
210
-1.0
220
0.0000000000000001
230
0.0
  0
LINE
  5
336
  8
A-DETL-___4
 10
5263.4716746078829601
 20
4899.5082466569201642
 30
5.0
 11
5263.4716746078829601
 21
4879.5082466569210737
 31
5.0
210
-1.0
220
0.0000000000000001
230
0.0
  0
LINE
  5
337
  8
A-DETL-___4
 10
5263.4716746078829601
 20
4899.5082466569201642
 30
0.0
 11
5263.4716746078829601
 21
4899.5082466569201642
 31
5.0
210
-1.0
220
0.0000000000000001
230
0.0
  0
LINE
  5
338
  8
A-DETL-___4
 10
5268.4716738303650345
 20
4899.5082466569201642
 30
0.0
 11
5263.4716746078829601
 21
4899.5082466569201642
 31
0.0
210
0.0000000000000001
220
1.0
230
0.0
  0
LINE
  5
339
  8
A-DETL-___4
 10
5263.4716746078829601
 20
4899.5082466569201642
 30
0.0
 11
5263.4716746078829601
 21
4899.5082466569201642
 31
5.0
210
0.0000000000000001
220
1.0
230
0.0
  0
LINE
  5
33A
  8
A-DETL-___4
 10
5268.4716738303650345
 20
4899.5082466569201642
 30
5.0
 11
5263.4716746078829601
 21
4899.5082466569201642
 31
5.0
210
0.0000000000000001
220
1.0
230
0.0
  0
LINE
  5
33B
  8
A-DETL-___4
 10
5268.4716738303650345
 20
4899.5082466569201642
 30
0.0
 11
5268.4716738303650345
 21
4899.5082466569201642
 31
5.0
210
0.0000000000000001
220
1.0
230
0.0
  0
LINE
  5
33C
  8
A-DETL-___4
 10
5268.4716747276852402
 20
4982.601354658989294
 30
0.0
 11
5268.4716738303650345
 21
4899.5082466569201642
 31
0.0
210
-1.0
220
0.0000000107989618
230
0.0
  0
LINE
  5
33D
  8
A-DETL-___4
 10
5268.4716738303650345
 20
4899.5082466569201642
 30
0.0
 11
5268.4716738303650345
 21
4899.5082466569201642
 31
5.0
210
-1.0
220
0.0000000107989618
230
0.0
  0
LINE
  5
33E
  8
A-DETL-___4
 10
5268.4716747276852402
 20
4982.601354658989294
 30
5.0
 11
5268.4716738303650345
 21
4899.5082466569201642
 31
5.0
210
-1.0
220
0.0000000107989618
230
0.0
  0
LINE
  5
33F
  8
A-DETL-___4
 10
5268.4716747276852402
 20
4982.601354658989294
 30
0.0
 11
5268.4716747276852402
 21
4982.601354658989294
 31
5.0
210
-1.0
220
0.0000000107989618
230
0.0
  0
ARC
  5
340
  8
A-DETL-___4
 10
5270.471674734932094
 20
4982.6052216977841454
 30
0.0
 40
2.0000037457398472
 50
0.1109968889374659
 51
180.110782362675792
  0
LINE
  5
341
  8
A-DETL-___4
 10
5268.4716747276852402
 20
4982.601354658989294
 30
0.0
 11
5268.4716747276852402
 21
4982.601354658989294
 31
5.0
  0
ARC
  5
342
  8
A-DETL-___4
 10
5270.471674734932094
 20
4982.6052216977841454
 30
5.0
 40
2.0000037457398472
 50
0.1109968889374659
 51
180.110782362675792
  0
LINE
  5
343
  8
A-DETL-___4
 10
5272.4716747276852402
 20
4982.609096224960922
 30
0.0
 11
5272.4716747276852402
 21
4982.609096224960922
 31
5.0
  0
LINE
  5
344
  8
A-DETL-___4
 10
5272.4716747276834212
 20
4977.5082659896315818
 30
0.0
 11
5272.4716747276852402
 21
4982.609096224960922
 31
0.0
210
1.0
220
-0.0000000000003567
230
0.0
  0
LINE
  5
345
  8
A-DETL-___4
 10
5272.4716747276852402
 20
4982.609096224960922
 30
0.0
 11
5272.4716747276852402
 21
4982.609096224960922
 31
5.0
210
1.0
220
-0.0000000000003567
230
0.0
  0
LINE
  5
346
  8
A-DETL-___4
 10
5272.4716747276834212
 20
4977.5082659896315818
 30
5.0
 11
5272.4716747276852402
 21
4982.609096224960922
 31
5.0
210
1.0
220
-0.0000000000003567
230
0.0
  0
LINE
  5
347
  8
A-DETL-___4
 10
5272.4716747276834212
 20
4977.5082659896315818
 30
0.0
 11
5272.4716747276834212
 21
4977.5082659896315818
 31
5.0
210
1.0
220
-0.0000000000003567
230
0.0
  0
LINE
  5
348
  8
A-DETL-___4
 10
5286.4716747276816022
 20
4977.5082659896334007
 30
0.0
 11
5272.4716747276834212
 21
4977.5082659896315818
 31
0.0
210
0.0000000000000001
220
1.0
230
0.0
  0
LINE
  5
349
  8
A-DETL-___4
 10
5272.4716747276834212
 20
4977.5082659896315818
 30
0.0
 11
5272.4716747276834212
 21
4977.5082659896315818
 31
5.0
210
0.0000000000000001
220
1.0
230
0.0
  0
LINE
  5
34A
  8
A-DETL-___4
 10
5286.4716747276816022
 20
4977.5082659896334007
 30
5.0
 11
5272.4716747276834212
 21
4977.5082659896315818
 31
5.0
210
0.0000000000000001
220
1.0
230
0.0
  0
LINE
  5
34B
  8
A-DETL-___4
 10
5286.4716747276816022
 20
4977.5082659896334007
 30
0.0
 11
5286.4716747276816022
 21
4977.5082659896334007
 31
5.0
210
0.0000000000000001
220
1.0
230
0.0
  0
ARC
  5
34C
  8
A-DETL-___4
 10
-5286.4716747276843307
 20
4979.5082659896315818
 30
0.0
 40
1.999999999999575
210
0.0
220
0.0
230
-1.0
 50
172.7566694748996099
 51
270.0000000000260911
  0
LINE
  5
34D
  8
A-DETL-___4
 10
5286.4716747276816022
 20
4977.5082659896334007
 30
0.0
 11
5286.4716747276816022
 21
4977.5082659896334007
 31
5.0
  0
ARC
  5
34E
  8
A-DETL-___4
 10
-5286.4716747276843307
 20
4979.5082659896315818
 30
-5.0
 40
1.999999999999575
210
0.0
220
0.0
230
-1.0
 50
172.7566694748996099
 51
270.0000000000260911
  0
LINE
  5
34F
  8
A-DETL-___4
 10
5288.4557139938051478
 20
4979.7604329789173789
 30
0.0
 11
5288.4557139938051478
 21
4979.7604329789173789
 31
5.0
  0
ARC
  5
350
  8
A-DETL-___4
 10
5290.4402709537271221
 20
4980.0084927959460401
 30
0.0
 40
1.999999999999335
 50
90.8996888264241392
 51
187.1247376834041063
  0
LINE
  5
351
  8
A-DETL-___4
 10
5288.4557139938051478
 20
4979.7604329789173789
 30
0.0
 11
5288.4557139938051478
 21
4979.7604329789173789
 31
5.0
  0
ARC
  5
352
  8
A-DETL-___4
 10
5290.4402709537271221
 20
4980.0084927959460401
 30
5.0
 40
1.999999999999335
 50
90.8996888264241392
 51
187.1247376834041063
  0
LINE
  5
353
  8
A-DETL-___4
 10
5290.4088671797699135
 20
4982.0082462314931036
 30
0.0
 11
5290.4088671797699135
 21
4982.0082462314931036
 31
5.0
  0
LINE
  5
354
  8
A-DETL-___4
 10
5346.4716747276843307
 20
4982.0082462314949225
 30
0.0
 11
5290.4088671797699135
 21
4982.0082462314931036
 31
0.0
210
-0.0000000000000162
220
1.0
230
0.0
  0
LINE
  5
355
  8
A-DETL-___4
 10
5290.4088671797699135
 20
4982.0082462314931036
 30
0.0
 11
5290.4088671797699135
 21
4982.0082462314931036
 31
5.0
210
-0.0000000000000162
220
1.0
230
0.0
  0
LINE
  5
356
  8
A-DETL-___4
 10
5346.4716747276843307
 20
4982.0082462314949225
 30
5.0
 11
5290.4088671797699135
 21
4982.0082462314931036
 31
5.0
210
-0.0000000000000162
220
1.0
230
0.0
  0
LINE
  5
357
  8
A-DETL-___4
 10
5346.4716747276843307
 20
4982.0082462314949225
 30
0.0
 11
5346.4716747276843307
 21
4982.0082462314949225
 31
5.0
210
-0.0000000000000162
220
1.0
230
0.0
  0
ARC
  5
358
  8
A-DETL-___4
 10
5346.4716747276816022
 20
4980.008246231494013
 30
0.0
 40
2.0000000000009091
 50
0.0
 51
90.0000000000521254
  0
LINE
  5
359
  8
A-DETL-___4
 10
5346.4716747276843307
 20
4982.0082462314949225
 30
0.0
 11
5346.4716747276843307
 21
4982.0082462314949225
 31
5.0
  0
ARC
  5
35A
  8
A-DETL-___4
 10
5346.4716747276816022
 20
4980.008246231494013
 30
5.0
 40
2.0000000000009091
 50
0.0
 51
90.0000000000521254
  0
LINE
  5
35B
  8
A-DETL-___4
 10
5348.4716747276834212
 20
4980.0082462314912846
 30
0.0
 11
5348.4716747276834212
 21
4980.0082462314912846
 31
5.0
  0
LINE
  5
35C
  8
A-DETL-___4
 10
5348.4716747276706883
 20
4971.7582466569210737
 30
0.0
 11
5348.4716747276834212
 21
4980.0082462314912846
 31
0.0
210
1.0
220
-0.0000000000014332
230
0.0
  0
LINE
  5
35D
  8
A-DETL-___4
 10
5348.4716747276834212
 20
4980.0082462314912846
 30
0.0
 11
5348.4716747276834212
 21
4980.0082462314912846
 31
5.0
210
1.0
220
-0.0000000000014332
230
0.0
  0
LINE
  5
35E
  8
A-DETL-___4
 10
5348.4716747276706883
 20
4971.7582466569210737
 30
5.0
 11
5348.4716747276834212
 21
4980.0082462314912846
 31
5.0
210
1.0
220
-0.0000000000014332
230
0.0
  0
LINE
  5
35F
  8
A-DETL-___4
 10
5348.4716747276706883
 20
4971.7582466569210737
 30
0.0
 11
5348.4716747276706883
 21
4971.7582466569210737
 31
5.0
210
1.0
220
-0.0000000000014332
230
0.0
  0
LINE
  5
360
  8
A-DETL-___4
 10
5308.4716747276706883
 20
4971.7582466569210737
 30
0.0
 11
5348.4716747276706883
 21
4971.7582466569210737
 31
0.0
210
-0.0000000000000001
220
-1.0
230
0.0
  0
LINE
  5
361
  8
A-DETL-___4
 10
5348.4716747276706883
 20
4971.7582466569210737
 30
0.0
 11
5348.4716747276706883
 21
4971.7582466569210737
 31
5.0
210
-0.0000000000000001
220
-1.0
230
0.0
  0
LINE
  5
362
  8
A-DETL-___4
 10
5308.4716747276706883
 20
4971.7582466569210737
 30
5.0
 11
5348.4716747276706883
 21
4971.7582466569210737
 31
5.0
210
-0.0000000000000001
220
-1.0
230
0.0
  0
LINE
  5
363
  8
A-DETL-___4
 10
5308.4716747276706883
 20
4971.7582466569210737
 30
0.0
 11
5308.4716747276706883
 21
4971.7582466569210737
 31
5.0
210
-0.0000000000000001
220
-1.0
230
0.0
  0
LINE
  5
364
  8
A-DETL-___4
 10
5308.4716747276706883
 20
4967.2582466569219832
 30
0.0
 11
5308.4716747276706883
 21
4971.7582466569210737
 31
0.0
210
1.0
220
-0.0000000000000001
230
0.0
  0
LINE
  5
365
  8
A-DETL-___4
 10
5308.4716747276706883
 20
4971.7582466569210737
 30
0.0
 11
5308.4716747276706883
 21
4971.7582466569210737
 31
5.0
210
1.0
220
-0.0000000000000001
230
0.0
  0
LINE
  5
366
  8
A-DETL-___4
 10
5308.4716747276706883
 20
4967.2582466569219832
 30
5.0
 11
5308.4716747276706883
 21
4971.7582466569210737
 31
5.0
210
1.0
220
-0.0000000000000001
230
0.0
  0
LINE
  5
367
  8
A-DETL-___4
 10
5308.4716747276706883
 20
4967.2582466569219832
 30
0.0
 11
5308.4716747276706883
 21
4967.2582466569219832
 31
5.0
210
1.0
220
-0.0000000000000001
230
0.0
  0
ARC
  5
368
  8
A-DETL-___4
 10
5328.4716747276734168
 20
4842.0082466569192547
 30
5.0
 40
7.5
 50
180.0
 51
0.0
  0
LINE
  5
369
  8
A-DETL-___4
 10
5320.9716747276734168
 20
4842.0082466569192547
 30
5.0
 11
5320.9716747276734168
 21
4857.0082466569210737
 31
5.0
  0
ARC
  5
36A
  8
A-DETL-___4
 10
5328.4716747276734168
 20
4857.0082466569210737
 30
5.0
 40
7.5
 50
0.0
 51
180.0
  0
LINE
  5
36B
  8
A-DETL-___4
 10
5335.9716747276734168
 20
4857.0082466569210737
 30
5.0
 11
5335.9716747276734168
 21
4842.0082466569192547
 31
5.0
  0
ARC
  5
36C
  8
A-DETL-___4
 10
5328.4716747276734168
 20
4937.0082466569219832
 30
5.0
 40
7.5
 50
0.0
 51
180.0
  0
LINE
  5
36D
  8
A-DETL-___4
 10
5335.9716747276734168
 20
4937.0082466569219832
 30
5.0
 11
5335.9716747276734168
 21
4922.0082466569219832
 31
5.0
  0
ARC
  5
36E
  8
A-DETL-___4
 10
5328.4716747276734168
 20
4922.0082466569219832
 30
5.0
 40
7.5
 50
180.0
 51
0.0
  0
LINE
  5
36F
  8
A-DETL-___4
 10
5320.9716747276734168
 20
4922.0082466569219832
 30
5.0
 11
5320.9716747276734168
 21
4937.0082466569219832
 31
5.0
  0
LINE
  5
370
  8
A-DETL-___4
 10
5308.4716747276706883
 20
4967.2582466569219832
 30
5.0
 11
5308.4716747276706883
 21
4971.7582466569210737
 31
5.0
  0
LINE
  5
371
  8
A-DETL-___4
 10
5308.4716747276706883
 20
4971.7582466569210737
 30
5.0
 11
5348.4716747276706883
 21
4971.7582466569210737
 31
5.0
  0
LINE
  5
372
  8
A-DETL-___4
 10
5348.4716747276706883
 20
4971.7582466569210737
 30
5.0
 11
5348.4716747276834212
 21
4980.0082462314912846
 31
5.0
  0
ARC
  5
373
  8
A-DETL-___4
 10
5346.4716747276816022
 20
4980.008246231494013
 30
5.0
 40
2.0000000000009091
 50
0.0
 51
90.0000000000521254
  0
LINE
  5
374
  8
A-DETL-___4
 10
5346.4716747276843307
 20
4982.0082462314949225
 30
5.0
 11
5290.4088671797699135
 21
4982.0082462314931036
 31
5.0
  0
ARC
  5
375
  8
A-DETL-___4
 10
5290.4402709537271221
 20
4980.0084927959460401
 30
5.0
 40
1.999999999999335
 50
90.8996888264241392
 51
187.1247376834041063
  0
ARC
  5
376
  8
A-DETL-___4
 10
5286.4716747276843307
 20
4979.5082659896315818
 30
5.0
 40
1.999999999999575
 50
269.9999999999739089
 51
7.2433305251003759
  0
LINE
  5
377
  8
A-DETL-___4
 10
5286.4716747276816022
 20
4977.5082659896334007
 30
5.0
 11
5272.4716747276834212
 21
4977.5082659896315818
 31
5.0
  0
LINE
  5
378
  8
A-DETL-___4
 10
5272.4716747276834212
 20
4977.5082659896315818
 30
5.0
 11
5272.4716747276852402
 21
4982.609096224960922
 31
5.0
  0
ARC
  5
379
  8
A-DETL-___4
 10
5270.471674734932094
 20
4982.6052216977841454
 30
5.0
 40
2.0000037457398472
 50
0.1109968889374659
 51
180.110782362675792
  0
LINE
  5
37A
  8
A-DETL-___4
 10
5268.4716747276852402
 20
4982.601354658989294
 30
5.0
 11
5268.4716738303650345
 21
4899.5082466569201642
 31
5.0
  0
LINE
  5
37B
  8
A-DETL-___4
 10
5268.4716738303650345
 20
4899.5082466569201642
 30
5.0
 11
5263.4716746078829601
 21
4899.5082466569201642
 31
5.0
  0
LINE
  5
37C
  8
A-DETL-___4
 10
5263.4716746078829601
 20
4899.5082466569201642
 30
5.0
 11
5263.4716746078829601
 21
4879.5082466569210737
 31
5.0
  0
LINE
  5
37D
  8
A-DETL-___4
 10
5263.4716746078829601
 20
4879.5082466569210737
 30
5.0
 11
5268.4716718865483926
 21
4879.5082466569210737
 31
5.0
  0
LINE
  5
37E
  8
A-DETL-___4
 10
5268.4716718865483926
 20
4879.5082466569210737
 30
5.0
 11
5268.4716709891872597
 21
4796.4112716387226101
 31
5.0
  0
ARC
  5
37F
  8
A-DETL-___4
 10
5270.4716747349275465
 20
4796.4112716171239299
 30
5.0
 40
2.0000037457402859
 50
180.0
 51
0.110997538152402
  0
LINE
  5
380
  8
A-DETL-___4
 10
5272.4716747276788738
 20
4796.4151461453629963
 30
5.0
 11
5272.4716747276788738
 21
4801.5082273242132942
 31
5.0
  0
LINE
  5
381
  8
A-DETL-___4
 10
5272.4716747276788738
 20
4801.5082273242132942
 30
5.0
 11
5286.4716747276779643
 21
4801.5082273242132942
 31
5.0
  0
ARC
  5
382
  8
A-DETL-___4
 10
5286.4716747276797832
 20
4799.5082273242142037
 30
5.0
 40
1.9999999999990901
 50
359.9999999999740226
 51
90.0000000000260485
  0
LINE
  5
383
  8
A-DETL-___4
 10
5288.4716747276788738
 20
4799.5082273242132942
 30
5.0
 11
5288.4716747276788738
 21
4799.0082470823508629
 31
5.0
  0
ARC
  5
384
  8
A-DETL-___4
 10
5290.4716747276779643
 20
4799.0082470823499534
 30
5.0
 40
1.9999999999990901
 50
180.0
 51
270.0000000000521254
  0
LINE
  5
385
  8
A-DETL-___4
 10
5290.4716747276788738
 20
4797.0082470823508629
 30
5.0
 11
5346.4716747276788738
 21
4797.0082470823508629
 31
5.0
  0
ARC
  5
386
  8
A-DETL-___4
 10
5346.4716747276797832
 20
4799.0082470823499534
 30
5.0
 40
1.9999999999990901
 50
269.9999999999739089
 51
0.0000000000260592
  0
LINE
  5
387
  8
A-DETL-___4
 10
5348.4716747276788738
 20
4799.0082470823499534
 30
5.0
 11
5348.4716747276788738
 21
4807.2582466569210737
 31
5.0
  0
LINE
  5
388
  8
A-DETL-___4
 10
5348.4716747276788738
 20
4807.2582466569210737
 30
5.0
 11
5308.4716747276743263
 21
4807.2582466569210737
 31
5.0
  0
LINE
  5
389
  8
A-DETL-___4
 10
5308.4716747276743263
 20
4807.2582466569210737
 30
5.0
 11
5308.4716747276743263
 21
4811.7582466569210737
 31
5.0
  0
LINE
  5
38A
  8
A-DETL-___4
 10
5308.4716747276743263
 20
4811.7582466569210737
 30
5.0
 11
5348.4716747276715978
 21
4811.7582466569210737
 31
5.0
  0
LINE
  5
38B
  8
A-DETL-___4
 10
5348.4716747276715978
 20
4811.7582466569210737
 30
5.0
 11
5348.4716747276715978
 21
4967.2582466569219832
 31
5.0
  0
LINE
  5
38C
  8
A-DETL-___4
 10
5348.4716747276715978
 20
4967.2582466569219832
 30
5.0
 11
5308.4716747276706883
 21
4967.2582466569219832
 31
5.0
  0
ARC
  5
38D
  8
A-DETL-___4
 10
-5328.4716747276734168
 20
4842.0082466569192547
 30
0.0
 40
7.5
210
0.0
220
0.0
230
-1.0
 50
180.0
 51
0.0
  0
LINE
  5
38E
  8
A-DETL-___4
 10
5335.9716747276734168
 20
4842.0082466569192547
 30
0.0
 11
5335.9716747276734168
 21
4857.0082466569210737
 31
0.0
210
0.0
220
0.0
230
-1.0
  0
ARC
  5
38F
  8
A-DETL-___4
 10
-5328.4716747276734168
 20
4857.0082466569210737
 30
0.0
 40
7.5
210
0.0
220
0.0
230
-1.0
 50
0.0
 51
180.0
  0
LINE
  5
390
  8
A-DETL-___4
 10
5320.9716747276734168
 20
4857.0082466569210737
 30
0.0
 11
5320.9716747276734168
 21
4842.0082466569192547
 31
0.0
210
0.0
220
0.0
230
-1.0
  0
ARC
  5
391
  8
A-DETL-___4
 10
-5328.4716747276734168
 20
4937.0082466569219832
 30
0.0
 40
7.5
210
0.0
220
0.0
230
-1.0
 50
0.0
 51
180.0
  0
LINE
  5
392
  8
A-DETL-___4
 10
5320.9716747276734168
 20
4937.0082466569219832
 30
0.0
 11
5320.9716747276734168
 21
4922.0082466569219832
 31
0.0
210
0.0
220
0.0
230
-1.0
  0
ARC
  5
393
  8
A-DETL-___4
 10
-5328.4716747276734168
 20
4922.0082466569219832
 30
0.0
 40
7.5
210
0.0
220
0.0
230
-1.0
 50
180.0
 51
0.0
  0
LINE
  5
394
  8
A-DETL-___4
 10
5335.9716747276734168
 20
4922.0082466569219832
 30
0.0
 11
5335.9716747276734168
 21
4937.0082466569219832
 31
0.0
210
0.0
220
0.0
230
-1.0
  0
LINE
  5
395
  8
A-DETL-___4
 10
5308.4716747276706883
 20
4967.2582466569219832
 30
0.0
 11
5308.4716747276706883
 21
4971.7582466569210737
 31
0.0
210
0.0
220
0.0
230
-1.0
  0
LINE
  5
396
  8
A-DETL-___4
 10
5348.4716747276715978
 20
4967.2582466569219832
 30
0.0
 11
5308.4716747276706883
 21
4967.2582466569219832
 31
0.0
210
0.0
220
0.0
230
-1.0
  0
LINE
  5
397
  8
A-DETL-___4
 10
5348.4716747276715978
 20
4811.7582466569210737
 30
0.0
 11
5348.4716747276715978
 21
4967.2582466569219832
 31
0.0
210
0.0
220
0.0
230
-1.0
  0
LINE
  5
398
  8
A-DETL-___4
 10
5308.4716747276743263
 20
4811.7582466569210737
 30
0.0
 11
5348.4716747276715978
 21
4811.7582466569210737
 31
0.0
210
0.0
220
0.0
230
-1.0
  0
LINE
  5
399
  8
A-DETL-___4
 10
5308.4716747276743263
 20
4807.2582466569210737
 30
0.0
 11
5308.4716747276743263
 21
4811.7582466569210737
 31
0.0
210
0.0
220
0.0
230
-1.0
  0
LINE
  5
39A
  8
A-DETL-___4
 10
5348.4716747276788738
 20
4807.2582466569210737
 30
0.0
 11
5308.4716747276743263
 21
4807.2582466569210737
 31
0.0
210
0.0
220
0.0
230
-1.0
  0
LINE
  5
39B
  8
A-DETL-___4
 10
5348.4716747276788738
 20
4799.0082470823499534
 30
0.0
 11
5348.4716747276788738
 21
4807.2582466569210737
 31
0.0
210
0.0
220
0.0
230
-1.0
  0
ARC
  5
39C
  8
A-DETL-___4
 10
-5346.4716747276797832
 20
4799.0082470823499534
 30
0.0
 40
1.9999999999990901
210
0.0
220
0.0
230
-1.0
 50
179.9999999999739089
 51
270.0000000000259774
  0
LINE
  5
39D
  8
A-DETL-___4
 10
5290.4716747276788738
 20
4797.0082470823508629
 30
0.0
 11
5346.4716747276788738
 21
4797.0082470823508629
 31
0.0
210
0.0
220
0.0
230
-1.0
  0
ARC
  5
39E
  8
A-DETL-___4
 10
-5290.4716747276779643
 20
4799.0082470823499534
 30
0.0
 40
1.9999999999990901
210
0.0
220
0.0
230
-1.0
 50
269.9999999999478746
 51
0.0
  0
LINE
  5
39F
  8
A-DETL-___4
 10
5288.4716747276788738
 20
4799.5082273242132942
 30
0.0
 11
5288.4716747276788738
 21
4799.0082470823508629
 31
0.0
210
0.0
220
0.0
230
-1.0
  0
ARC
  5
3A0
  8
A-DETL-___4
 10
-5286.4716747276797832
 20
4799.5082273242142037
 30
0.0
 40
1.9999999999990901
210
0.0
220
0.0
230
-1.0
 50
89.9999999999739515
 51
180.0000000000260059
  0
LINE
  5
3A1
  8
A-DETL-___4
 10
5272.4716747276788738
 20
4801.5082273242132942
 30
0.0
 11
5286.4716747276779643
 21
4801.5082273242132942
 31
0.0
210
0.0
220
0.0
230
-1.0
  0
LINE
  5
3A2
  8
A-DETL-___4
 10
5272.4716747276788738
 20
4796.4151461453629963
 30
0.0
 11
5272.4716747276788738
 21
4801.5082273242132942
 31
0.0
210
0.0
220
0.0
230
-1.0
  0
ARC
  5
3A3
  8
A-DETL-___4
 10
-5270.4716747349275465
 20
4796.4112716171239299
 30
0.0
 40
2.0000037457402859
210
0.0
220
0.0
230
-1.0
 50
179.8890024618476104
 51
0.0
  0
LINE
  5
3A4
  8
A-DETL-___4
 10
5268.4716718865483926
 20
4879.5082466569210737
 30
0.0
 11
5268.4716709891872597
 21
4796.4112716387226101
 31
0.0
210
0.0
220
0.0
230
-1.0
  0
LINE
  5
3A5
  8
A-DETL-___4
 10
5263.4716746078829601
 20
4879.5082466569210737
 30
0.0
 11
5268.4716718865483926
 21
4879.5082466569210737
 31
0.0
210
0.0
220
0.0
230
-1.0
  0
LINE
  5
3A6
  8
A-DETL-___4
 10
5263.4716746078829601
 20
4899.5082466569201642
 30
0.0
 11
5263.4716746078829601
 21
4879.5082466569210737
 31
0.0
210
0.0
220
0.0
230
-1.0
  0
LINE
  5
3A7
  8
A-DETL-___4
 10
5268.4716738303650345
 20
4899.5082466569201642
 30
0.0
 11
5263.4716746078829601
 21
4899.5082466569201642
 31
0.0
210
0.0
220
0.0
230
-1.0
  0
LINE
  5
3A8
  8
A-DETL-___4
 10
5268.4716747276852402
 20
4982.601354658989294
 30
0.0
 11
5268.4716738303650345
 21
4899.5082466569201642
 31
0.0
210
0.0
220
0.0
230
-1.0
  0
ARC
  5
3A9
  8
A-DETL-___4
 10
-5270.471674734932094
 20
4982.6052216977841454
 30
0.0
 40
2.0000037457398472
210
0.0
220
0.0
230
-1.0
 50
359.8892176373241796
 51
179.8890031110624932
  0
LINE
  5
3AA
  8
A-DETL-___4
 10
5272.4716747276834212
 20
4977.5082659896315818
 30
0.0
 11
5272.4716747276852402
 21
4982.609096224960922
 31
0.0
210
0.0
220
0.0
230
-1.0
  0
LINE
  5
3AB
  8
A-DETL-___4
 10
5286.4716747276816022
 20
4977.5082659896334007
 30
0.0
 11
5272.4716747276834212
 21
4977.5082659896315818
 31
0.0
210
0.0
220
0.0
230
-1.0
  0
ARC
  5
3AC
  8
A-DETL-___4
 10
-5286.4716747276843307
 20
4979.5082659896315818
 30
0.0
 40
1.999999999999575
210
0.0
220
0.0
230
-1.0
 50
172.7566694748996099
 51
270.0000000000260911
  0
ARC
  5
3AD
  8
A-DETL-___4
 10
-5290.4402709537271221
 20
4980.0084927959460401
 30
0.0
 40
1.999999999999335
210
0.0
220
0.0
230
-1.0
 50
352.8752623165959221
 51
89.100311173575804
  0
LINE
  5
3AE
  8
A-DETL-___4
 10
5346.4716747276843307
 20
4982.0082462314949225
 30
0.0
 11
5290.4088671797699135
 21
4982.0082462314931036
 31
0.0
210
0.0
220
0.0
230
-1.0
  0
ARC
  5
3AF
  8
A-DETL-___4
 10
-5346.4716747276816022
 20
4980.008246231494013
 30
0.0
 40
2.0000000000009091
210
0.0
220
0.0
230
-1.0
 50
89.9999999999478888
 51
180.0
  0
LINE
  5
3B0
  8
A-DETL-___4
 10
5348.4716747276706883
 20
4971.7582466569210737
 30
0.0
 11
5348.4716747276834212
 21
4980.0082462314912846
 31
0.0
210
0.0
220
0.0
230
-1.0
  0
LINE
  5
3B1
  8
A-DETL-___4
 10
5308.4716747276706883
 20
4971.7582466569210737
 30
0.0
 11
5348.4716747276706883
 21
4971.7582466569210737
 31
0.0
210
0.0
220
0.0
230
-1.0
  0
ENDBLK
  5
3B3
  8
0
  0
BLOCK
  8
0
  2
*U6
 70
     1
 10
0.0
 20
0.0
 30
0.0
  3
*U6
  1

  0
ARC
  5
3DC
  8
A-DETL-___4
 10
5328.4716747276734168
 20
4842.0082466569192547
 30
0.0
 40
7.5
 50
180.0
 51
0.0
  0
LINE
  5
3DD
  8
A-DETL-___4
 10
5320.9716747276734168
 20
4842.0082466569192547
 30
0.0
 11
5320.9716747276734168
 21
4842.0082466569192547
 31
5.0
  0
ARC
  5
3DE
  8
A-DETL-___4
 10
-5328.4716747276734168
 20
4842.0082466569192547
 30
-5.0
 40
7.5
210
0.0
220
0.0
230
-1.0
 50
180.0
 51
0.0
  0
LINE
  5
3DF
  8
A-DETL-___4
 10
5335.9716747276734168
 20
4842.0082466569192547
 30
0.0
 11
5335.9716747276734168
 21
4842.0082466569192547
 31
5.0
  0
LINE
  5
3E0
  8
A-DETL-___4
 10
5320.9716747276734168
 20
4857.0082466569210737
 30
0.0
 11
5320.9716747276734168
 21
4842.0082466569192547
 31
0.0
210
1.0
220
-0.0000000000000001
230
0.0
  0
LINE
  5
3E1
  8
A-DETL-___4
 10
5320.9716747276734168
 20
4857.0082466569210737
 30
0.0
 11
5320.9716747276734168
 21
4857.0082466569210737
 31
5.0
210
1.0
220
-0.0000000000000001
230
0.0
  0
LINE
  5
3E2
  8
A-DETL-___4
 10
5320.9716747276734168
 20
4842.0082466569192547
 30
5.0
 11
5320.9716747276734168
 21
4857.0082466569210737
 31
5.0
210
1.0
220
-0.0000000000000001
230
0.0
  0
LINE
  5
3E3
  8
A-DETL-___4
 10
5320.9716747276734168
 20
4842.0082466569192547
 30
0.0
 11
5320.9716747276734168
 21
4842.0082466569192547
 31
5.0
210
1.0
220
-0.0000000000000001
230
0.0
  0
ARC
  5
3E4
  8
A-DETL-___4
 10
5328.4716747276734168
 20
4857.0082466569210737
 30
0.0
 40
7.5
 50
0.0
 51
180.0
  0
LINE
  5
3E5
  8
A-DETL-___4
 10
5335.9716747276734168
 20
4857.0082466569210737
 30
0.0
 11
5335.9716747276734168
 21
4857.0082466569210737
 31
5.0
  0
ARC
  5
3E6
  8
A-DETL-___4
 10
-5328.4716747276734168
 20
4857.0082466569210737
 30
-5.0
 40
7.5
210
0.0
220
0.0
230
-1.0
 50
0.0
 51
180.0
  0
LINE
  5
3E7
  8
A-DETL-___4
 10
5320.9716747276734168
 20
4857.0082466569210737
 30
0.0
 11
5320.9716747276734168
 21
4857.0082466569210737
 31
5.0
  0
LINE
  5
3E8
  8
A-DETL-___4
 10
5335.9716747276734168
 20
4842.0082466569192547
 30
0.0
 11
5335.9716747276734168
 21
4857.0082466569210737
 31
0.0
210
-1.0
220
0.0000000000000001
230
0.0
  0
LINE
  5
3E9
  8
A-DETL-___4
 10
5335.9716747276734168
 20
4842.0082466569192547
 30
0.0
 11
5335.9716747276734168
 21
4842.0082466569192547
 31
5.0
210
-1.0
220
0.0000000000000001
230
0.0
  0
LINE
  5
3EA
  8
A-DETL-___4
 10
5335.9716747276734168
 20
4857.0082466569210737
 30
5.0
 11
5335.9716747276734168
 21
4842.0082466569192547
 31
5.0
210
-1.0
220
0.0000000000000001
230
0.0
  0
LINE
  5
3EB
  8
A-DETL-___4
 10
5335.9716747276734168
 20
4857.0082466569210737
 30
0.0
 11
5335.9716747276734168
 21
4857.0082466569210737
 31
5.0
210
-1.0
220
0.0000000000000001
230
0.0
  0
ARC
  5
3EC
  8
A-DETL-___4
 10
5328.4716747276734168
 20
4937.0082466569219832
 30
0.0
 40
7.5
 50
0.0
 51
180.0
  0
LINE
  5
3ED
  8
A-DETL-___4
 10
5335.9716747276734168
 20
4937.0082466569219832
 30
0.0
 11
5335.9716747276734168
 21
4937.0082466569219832
 31
5.0
  0
ARC
  5
3EE
  8
A-DETL-___4
 10
-5328.4716747276734168
 20
4937.0082466569219832
 30
-5.0
 40
7.5
210
0.0
220
0.0
230
-1.0
 50
0.0
 51
180.0
  0
LINE
  5
3EF
  8
A-DETL-___4
 10
5320.9716747276734168
 20
4937.0082466569219832
 30
0.0
 11
5320.9716747276734168
 21
4937.0082466569219832
 31
5.0
  0
LINE
  5
3F0
  8
A-DETL-___4
 10
5335.9716747276734168
 20
4922.0082466569219832
 30
0.0
 11
5335.9716747276734168
 21
4937.0082466569219832
 31
0.0
210
-1.0
220
0.0000000000000001
230
0.0
  0
LINE
  5
3F1
  8
A-DETL-___4
 10
5335.9716747276734168
 20
4922.0082466569219832
 30
0.0
 11
5335.9716747276734168
 21
4922.0082466569219832
 31
5.0
210
-1.0
220
0.0000000000000001
230
0.0
  0
LINE
  5
3F2
  8
A-DETL-___4
 10
5335.9716747276734168
 20
4937.0082466569219832
 30
5.0
 11
5335.9716747276734168
 21
4922.0082466569219832
 31
5.0
210
-1.0
220
0.0000000000000001
230
0.0
  0
LINE
  5
3F3
  8
A-DETL-___4
 10
5335.9716747276734168
 20
4937.0082466569219832
 30
0.0
 11
5335.9716747276734168
 21
4937.0082466569219832
 31
5.0
210
-1.0
220
0.0000000000000001
230
0.0
  0
ARC
  5
3F4
  8
A-DETL-___4
 10
5328.4716747276734168
 20
4922.0082466569219832
 30
0.0
 40
7.5
 50
180.0
 51
0.0
  0
LINE
  5
3F5
  8
A-DETL-___4
 10
5320.9716747276734168
 20
4922.0082466569219832
 30
0.0
 11
5320.9716747276734168
 21
4922.0082466569219832
 31
5.0
  0
ARC
  5
3F6
  8
A-DETL-___4
 10
-5328.4716747276734168
 20
4922.0082466569219832
 30
-5.0
 40
7.5
210
0.0
220
0.0
230
-1.0
 50
180.0
 51
0.0
  0
LINE
  5
3F7
  8
A-DETL-___4
 10
5335.9716747276734168
 20
4922.0082466569219832
 30
0.0
 11
5335.9716747276734168
 21
4922.0082466569219832
 31
5.0
  0
LINE
  5
3F8
  8
A-DETL-___4
 10
5320.9716747276734168
 20
4937.0082466569219832
 30
0.0
 11
5320.9716747276734168
 21
4922.0082466569219832
 31
0.0
210
1.0
220
-0.0000000000000001
230
0.0
  0
LINE
  5
3F9
  8
A-DETL-___4
 10
5320.9716747276734168
 20
4937.0082466569219832
 30
0.0
 11
5320.9716747276734168
 21
4937.0082466569219832
 31
5.0
210
1.0
220
-0.0000000000000001
230
0.0
  0
LINE
  5
3FA
  8
A-DETL-___4
 10
5320.9716747276734168
 20
4922.0082466569219832
 30
5.0
 11
5320.9716747276734168
 21
4937.0082466569219832
 31
5.0
210
1.0
220
-0.0000000000000001
230
0.0
  0
LINE
  5
3FB
  8
A-DETL-___4
 10
5320.9716747276734168
 20
4922.0082466569219832
 30
0.0
 11
5320.9716747276734168
 21
4922.0082466569219832
 31
5.0
210
1.0
220
-0.0000000000000001
230
0.0
  0
LINE
  5
3FC
  8
A-DETL-___4
 10
5348.4716747276715978
 20
4967.2582466569219832
 30
0.0
 11
5308.4716747276706883
 21
4967.2582466569219832
 31
0.0
210
0.0000000000000001
220
1.0
230
0.0
  0
LINE
  5
3FD
  8
A-DETL-___4
 10
5308.4716747276706883
 20
4967.2582466569219832
 30
0.0
 11
5308.4716747276706883
 21
4967.2582466569219832
 31
5.0
210
0.0000000000000001
220
1.0
230
0.0
  0
LINE
  5
3FE
  8
A-DETL-___4
 10
5348.4716747276715978
 20
4967.2582466569219832
 30
5.0
 11
5308.4716747276706883
 21
4967.2582466569219832
 31
5.0
210
0.0000000000000001
220
1.0
230
0.0
  0
LINE
  5
3FF
  8
A-DETL-___4
 10
5348.4716747276715978
 20
4967.2582466569219832
 30
0.0
 11
5348.4716747276715978
 21
4967.2582466569219832
 31
5.0
210
0.0000000000000001
220
1.0
230
0.0
  0
LINE
  5
400
  8
A-DETL-___4
 10
5348.4716747276715978
 20
4811.7582466569210737
 30
0.0
 11
5348.4716747276715978
 21
4967.2582466569219832
 31
0.0
210
1.0
220
-0.0000000000000001
230
0.0
  0
LINE
  5
401
  8
A-DETL-___4
 10
5348.4716747276715978
 20
4967.2582466569219832
 30
0.0
 11
5348.4716747276715978
 21
4967.2582466569219832
 31
5.0
210
1.0
220
-0.0000000000000001
230
0.0
  0
LINE
  5
402
  8
A-DETL-___4
 10
5348.4716747276715978
 20
4811.7582466569210737
 30
5.0
 11
5348.4716747276715978
 21
4967.2582466569219832
 31
5.0
210
1.0
220
-0.0000000000000001
230
0.0
  0
LINE
  5
403
  8
A-DETL-___4
 10
5348.4716747276715978
 20
4811.7582466569210737
 30
0.0
 11
5348.4716747276715978
 21
4811.7582466569210737
 31
5.0
210
1.0
220
-0.0000000000000001
230
0.0
  0
LINE
  5
404
  8
A-DETL-___4
 10
5308.4716747276743263
 20
4811.7582466569210737
 30
0.0
 11
5348.4716747276715978
 21
4811.7582466569210737
 31
0.0
210
-0.0000000000000001
220
-1.0
230
0.0
  0
LINE
  5
405
  8
A-DETL-___4
 10
5348.4716747276715978
 20
4811.7582466569210737
 30
0.0
 11
5348.4716747276715978
 21
4811.7582466569210737
 31
5.0
210
-0.0000000000000001
220
-1.0
230
0.0
  0
LINE
  5
406
  8
A-DETL-___4
 10
5308.4716747276743263
 20
4811.7582466569210737
 30
5.0
 11
5348.4716747276715978
 21
4811.7582466569210737
 31
5.0
210
-0.0000000000000001
220
-1.0
230
0.0
  0
LINE
  5
407
  8
A-DETL-___4
 10
5308.4716747276743263
 20
4811.7582466569210737
 30
0.0
 11
5308.4716747276743263
 21
4811.7582466569210737
 31
5.0
210
-0.0000000000000001
220
-1.0
230
0.0
  0
LINE
  5
408
  8
A-DETL-___4
 10
5308.4716747276743263
 20
4807.2582466569210737
 30
0.0
 11
5308.4716747276743263
 21
4811.7582466569210737
 31
0.0
210
1.0
220
-0.0000000000000001
230
0.0
  0
LINE
  5
409
  8
A-DETL-___4
 10
5308.4716747276743263
 20
4811.7582466569210737
 30
0.0
 11
5308.4716747276743263
 21
4811.7582466569210737
 31
5.0
210
1.0
220
-0.0000000000000001
230
0.0
  0
LINE
  5
40A
  8
A-DETL-___4
 10
5308.4716747276743263
 20
4807.2582466569210737
 30
5.0
 11
5308.4716747276743263
 21
4811.7582466569210737
 31
5.0
210
1.0
220
-0.0000000000000001
230
0.0
  0
LINE
  5
40B
  8
A-DETL-___4
 10
5308.4716747276743263
 20
4807.2582466569210737
 30
0.0
 11
5308.4716747276743263
 21
4807.2582466569210737
 31
5.0
210
1.0
220
-0.0000000000000001
230
0.0
  0
LINE
  5
40C
  8
A-DETL-___4
 10
5348.4716747276788738
 20
4807.2582466569210737
 30
0.0
 11
5308.4716747276743263
 21
4807.2582466569210737
 31
0.0
210
0.0000000000000001
220
1.0
230
0.0
  0
LINE
  5
40D
  8
A-DETL-___4
 10
5308.4716747276743263
 20
4807.2582466569210737
 30
0.0
 11
5308.4716747276743263
 21
4807.2582466569210737
 31
5.0
210
0.0000000000000001
220
1.0
230
0.0
  0
LINE
  5
40E
  8
A-DETL-___4
 10
5348.4716747276788738
 20
4807.2582466569210737
 30
5.0
 11
5308.4716747276743263
 21
4807.2582466569210737
 31
5.0
210
0.0000000000000001
220
1.0
230
0.0
  0
LINE
  5
40F
  8
A-DETL-___4
 10
5348.4716747276788738
 20
4807.2582466569210737
 30
0.0
 11
5348.4716747276788738
 21
4807.2582466569210737
 31
5.0
210
0.0000000000000001
220
1.0
230
0.0
  0
LINE
  5
410
  8
A-DETL-___4
 10
5348.4716747276788738
 20
4799.0082470823499534
 30
0.0
 11
5348.4716747276788738
 21
4807.2582466569210737
 31
0.0
210
1.0
220
-0.0000000000000001
230
0.0
  0
LINE
  5
411
  8
A-DETL-___4
 10
5348.4716747276788738
 20
4807.2582466569210737
 30
0.0
 11
5348.4716747276788738
 21
4807.2582466569210737
 31
5.0
210
1.0
220
-0.0000000000000001
230
0.0
  0
LINE
  5
412
  8
A-DETL-___4
 10
5348.4716747276788738
 20
4799.0082470823499534
 30
5.0
 11
5348.4716747276788738
 21
4807.2582466569210737
 31
5.0
210
1.0
220
-0.0000000000000001
230
0.0
  0
LINE
  5
413
  8
A-DETL-___4
 10
5348.4716747276788738
 20
4799.0082470823499534
 30
0.0
 11
5348.4716747276788738
 21
4799.0082470823499534
 31
5.0
210
1.0
220
-0.0000000000000001
230
0.0
  0
ARC
  5
414
  8
A-DETL-___4
 10
5346.4716747276797832
 20
4799.0082470823499534
 30
0.0
 40
1.9999999999990901
 50
269.9999999999739089
 51
0.0000000000260592
  0
LINE
  5
415
  8
A-DETL-___4
 10
5348.4716747276788738
 20
4799.0082470823499534
 30
0.0
 11
5348.4716747276788738
 21
4799.0082470823499534
 31
5.0
  0
ARC
  5
416
  8
A-DETL-___4
 10
5346.4716747276797832
 20
4799.0082470823499534
 30
5.0
 40
1.9999999999990901
 50
269.9999999999739089
 51
0.0000000000260592
  0
LINE
  5
417
  8
A-DETL-___4
 10
5346.4716747276788738
 20
4797.0082470823508629
 30
0.0
 11
5346.4716747276788738
 21
4797.0082470823508629
 31
5.0
  0
LINE
  5
418
  8
A-DETL-___4
 10
5290.4716747276788738
 20
4797.0082470823508629
 30
0.0
 11
5346.4716747276788738
 21
4797.0082470823508629
 31
0.0
210
-0.0000000000000163
220
-1.0
230
0.0
  0
LINE
  5
419
  8
A-DETL-___4
 10
5346.4716747276788738
 20
4797.0082470823508629
 30
0.0
 11
5346.4716747276788738
 21
4797.0082470823508629
 31
5.0
210
-0.0000000000000163
220
-1.0
230
0.0
  0
LINE
  5
41A
  8
A-DETL-___4
 10
5290.4716747276788738
 20
4797.0082470823508629
 30
5.0
 11
5346.4716747276788738
 21
4797.0082470823508629
 31
5.0
210
-0.0000000000000163
220
-1.0
230
0.0
  0
LINE
  5
41B
  8
A-DETL-___4
 10
5290.4716747276788738
 20
4797.0082470823508629
 30
0.0
 11
5290.4716747276788738
 21
4797.0082470823508629
 31
5.0
210
-0.0000000000000163
220
-1.0
230
0.0
  0
ARC
  5
41C
  8
A-DETL-___4
 10
5290.4716747276779643
 20
4799.0082470823499534
 30
0.0
 40
1.9999999999990901
 50
180.0
 51
270.0000000000521254
  0
LINE
  5
41D
  8
A-DETL-___4
 10
5290.4716747276788738
 20
4797.0082470823508629
 30
0.0
 11
5290.4716747276788738
 21
4797.0082470823508629
 31
5.0
  0
ARC
  5
41E
  8
A-DETL-___4
 10
5290.4716747276779643
 20
4799.0082470823499534
 30
5.0
 40
1.9999999999990901
 50
180.0
 51
270.0000000000521254
  0
LINE
  5
41F
  8
A-DETL-___4
 10
5288.4716747276788738
 20
4799.0082470823508629
 30
0.0
 11
5288.4716747276788738
 21
4799.0082470823508629
 31
5.0
  0
LINE
  5
420
  8
A-DETL-___4
 10
5288.4716747276788738
 20
4799.5082273242132942
 30
0.0
 11
5288.4716747276788738
 21
4799.0082470823508629
 31
0.0
210
-1.0
220
0.0000000000000001
230
0.0
  0
LINE
  5
421
  8
A-DETL-___4
 10
5288.4716747276788738
 20
4799.0082470823508629
 30
0.0
 11
5288.4716747276788738
 21
4799.0082470823508629
 31
5.0
210
-1.0
220
0.0000000000000001
230
0.0
  0
LINE
  5
422
  8
A-DETL-___4
 10
5288.4716747276788738
 20
4799.5082273242132942
 30
5.0
 11
5288.4716747276788738
 21
4799.0082470823508629
 31
5.0
210
-1.0
220
0.0000000000000001
230
0.0
  0
LINE
  5
423
  8
A-DETL-___4
 10
5288.4716747276788738
 20
4799.5082273242132942
 30
0.0
 11
5288.4716747276788738
 21
4799.5082273242132942
 31
5.0
210
-1.0
220
0.0000000000000001
230
0.0
  0
ARC
  5
424
  8
A-DETL-___4
 10
-5286.4716747276797832
 20
4799.5082273242142037
 30
0.0
 40
1.9999999999990901
210
0.0
220
0.0
230
-1.0
 50
89.9999999999739515
 51
180.0000000000260059
  0
LINE
  5
425
  8
A-DETL-___4
 10
5288.4716747276788738
 20
4799.5082273242132942
 30
0.0
 11
5288.4716747276788738
 21
4799.5082273242132942
 31
5.0
  0
ARC
  5
426
  8
A-DETL-___4
 10
-5286.4716747276797832
 20
4799.5082273242142037
 30
-5.0
 40
1.9999999999990901
210
0.0
220
0.0
230
-1.0
 50
89.9999999999739515
 51
180.0000000000260059
  0
LINE
  5
427
  8
A-DETL-___4
 10
5286.4716747276779643
 20
4801.5082273242132942
 30
0.0
 11
5286.4716747276779643
 21
4801.5082273242132942
 31
5.0
  0
LINE
  5
428
  8
A-DETL-___4
 10
5272.4716747276788738
 20
4801.5082273242132942
 30
0.0
 11
5286.4716747276779643
 21
4801.5082273242132942
 31
0.0
210
-0.0000000000000001
220
-1.0
230
0.0
  0
LINE
  5
429
  8
A-DETL-___4
 10
5286.4716747276779643
 20
4801.5082273242132942
 30
0.0
 11
5286.4716747276779643
 21
4801.5082273242132942
 31
5.0
210
-0.0000000000000001
220
-1.0
230
0.0
  0
LINE
  5
42A
  8
A-DETL-___4
 10
5272.4716747276788738
 20
4801.5082273242132942
 30
5.0
 11
5286.4716747276779643
 21
4801.5082273242132942
 31
5.0
210
-0.0000000000000001
220
-1.0
230
0.0
  0
LINE
  5
42B
  8
A-DETL-___4
 10
5272.4716747276788738
 20
4801.5082273242132942
 30
0.0
 11
5272.4716747276788738
 21
4801.5082273242132942
 31
5.0
210
-0.0000000000000001
220
-1.0
230
0.0
  0
LINE
  5
42C
  8
A-DETL-___4
 10
5272.4716747276788738
 20
4796.4151461453629963
 30
0.0
 11
5272.4716747276788738
 21
4801.5082273242132942
 31
0.0
210
1.0
220
-0.0000000000000001
230
0.0
  0
LINE
  5
42D
  8
A-DETL-___4
 10
5272.4716747276788738
 20
4801.5082273242132942
 30
0.0
 11
5272.4716747276788738
 21
4801.5082273242132942
 31
5.0
210
1.0
220
-0.0000000000000001
230
0.0
  0
LINE
  5
42E
  8
A-DETL-___4
 10
5272.4716747276788738
 20
4796.4151461453629963
 30
5.0
 11
5272.4716747276788738
 21
4801.5082273242132942
 31
5.0
210
1.0
220
-0.0000000000000001
230
0.0
  0
LINE
  5
42F
  8
A-DETL-___4
 10
5272.4716747276788738
 20
4796.4151461453629963
 30
0.0
 11
5272.4716747276788738
 21
4796.4151461453629963
 31
5.0
210
1.0
220
-0.0000000000000001
230
0.0
  0
ARC
  5
430
  8
A-DETL-___4
 10
5270.4716747349275465
 20
4796.4112716171239299
 30
0.0
 40
2.0000037457402859
 50
180.0
 51
0.110997538152402
  0
LINE
  5
431
  8
A-DETL-___4
 10
5272.4716747276788738
 20
4796.4151461453629963
 30
0.0
 11
5272.4716747276788738
 21
4796.4151461453629963
 31
5.0
  0
ARC
  5
432
  8
A-DETL-___4
 10
5270.4716747349275465
 20
4796.4112716171239299
 30
5.0
 40
2.0000037457402859
 50
180.0
 51
0.110997538152402
  0
LINE
  5
433
  8
A-DETL-___4
 10
5268.4716709891872597
 20
4796.4112716387226101
 30
0.0
 11
5268.4716709891872597
 21
4796.4112716387226101
 31
5.0
  0
LINE
  5
434
  8
A-DETL-___4
 10
5268.4716718865483926
 20
4879.5082466569210737
 30
0.0
 11
5268.4716709891872597
 21
4796.4112716387226101
 31
0.0
210
-1.0
220
0.0000000107989628
230
0.0
  0
LINE
  5
435
  8
A-DETL-___4
 10
5268.4716709891872597
 20
4796.4112716387226101
 30
0.0
 11
5268.4716709891872597
 21
4796.4112716387226101
 31
5.0
210
-1.0
220
0.0000000107989628
230
0.0
  0
LINE
  5
436
  8
A-DETL-___4
 10
5268.4716718865483926
 20
4879.5082466569210737
 30
5.0
 11
5268.4716709891872597
 21
4796.4112716387226101
 31
5.0
210
-1.0
220
0.0000000107989628
230
0.0
  0
LINE
  5
437
  8
A-DETL-___4
 10
5268.4716718865483926
 20
4879.5082466569210737
 30
0.0
 11
5268.4716718865483926
 21
4879.5082466569210737
 31
5.0
210
-1.0
220
0.0000000107989628
230
0.0
  0
LINE
  5
438
  8
A-DETL-___4
 10
5263.4716746078829601
 20
4879.5082466569210737
 30
0.0
 11
5268.4716718865483926
 21
4879.5082466569210737
 31
0.0
210
-0.0000000000000001
220
-1.0
230
0.0
  0
LINE
  5
439
  8
A-DETL-___4
 10
5268.4716718865483926
 20
4879.5082466569210737
 30
0.0
 11
5268.4716718865483926
 21
4879.5082466569210737
 31
5.0
210
-0.0000000000000001
220
-1.0
230
0.0
  0
LINE
  5
43A
  8
A-DETL-___4
 10
5263.4716746078829601
 20
4879.5082466569210737
 30
5.0
 11
5268.4716718865483926
 21
4879.5082466569210737
 31
5.0
210
-0.0000000000000001
220
-1.0
230
0.0
  0
LINE
  5
43B
  8
A-DETL-___4
 10
5263.4716746078829601
 20
4879.5082466569210737
 30
0.0
 11
5263.4716746078829601
 21
4879.5082466569210737
 31
5.0
210
-0.0000000000000001
220
-1.0
230
0.0
  0
LINE
  5
43C
  8
A-DETL-___4
 10
5263.4716746078829601
 20
4899.5082466569201642
 30
0.0
 11
5263.4716746078829601
 21
4879.5082466569210737
 31
0.0
210
-1.0
220
0.0000000000000001
230
0.0
  0
LINE
  5
43D
  8
A-DETL-___4
 10
5263.4716746078829601
 20
4879.5082466569210737
 30
0.0
 11
5263.4716746078829601
 21
4879.5082466569210737
 31
5.0
210
-1.0
220
0.0000000000000001
230
0.0
  0
LINE
  5
43E
  8
A-DETL-___4
 10
5263.4716746078829601
 20
4899.5082466569201642
 30
5.0
 11
5263.4716746078829601
 21
4879.5082466569210737
 31
5.0
210
-1.0
220
0.0000000000000001
230
0.0
  0
LINE
  5
43F
  8
A-DETL-___4
 10
5263.4716746078829601
 20
4899.5082466569201642
 30
0.0
 11
5263.4716746078829601
 21
4899.5082466569201642
 31
5.0
210
-1.0
220
0.0000000000000001
230
0.0
  0
LINE
  5
440
  8
A-DETL-___4
 10
5268.4716738303650345
 20
4899.5082466569201642
 30
0.0
 11
5263.4716746078829601
 21
4899.5082466569201642
 31
0.0
210
0.0000000000000001
220
1.0
230
0.0
  0
LINE
  5
441
  8
A-DETL-___4
 10
5263.4716746078829601
 20
4899.5082466569201642
 30
0.0
 11
5263.4716746078829601
 21
4899.5082466569201642
 31
5.0
210
0.0000000000000001
220
1.0
230
0.0
  0
LINE
  5
442
  8
A-DETL-___4
 10
5268.4716738303650345
 20
4899.5082466569201642
 30
5.0
 11
5263.4716746078829601
 21
4899.5082466569201642
 31
5.0
210
0.0000000000000001
220
1.0
230
0.0
  0
LINE
  5
443
  8
A-DETL-___4
 10
5268.4716738303650345
 20
4899.5082466569201642
 30
0.0
 11
5268.4716738303650345
 21
4899.5082466569201642
 31
5.0
210
0.0000000000000001
220
1.0
230
0.0
  0
LINE
  5
444
  8
A-DETL-___4
 10
5268.4716747276852402
 20
4982.601354658989294
 30
0.0
 11
5268.4716738303650345
 21
4899.5082466569201642
 31
0.0
210
-1.0
220
0.0000000107989618
230
0.0
  0
LINE
  5
445
  8
A-DETL-___4
 10
5268.4716738303650345
 20
4899.5082466569201642
 30
0.0
 11
5268.4716738303650345
 21
4899.5082466569201642
 31
5.0
210
-1.0
220
0.0000000107989618
230
0.0
  0
LINE
  5
446
  8
A-DETL-___4
 10
5268.4716747276852402
 20
4982.601354658989294
 30
5.0
 11
5268.4716738303650345
 21
4899.5082466569201642
 31
5.0
210
-1.0
220
0.0000000107989618
230
0.0
  0
LINE
  5
447
  8
A-DETL-___4
 10
5268.4716747276852402
 20
4982.601354658989294
 30
0.0
 11
5268.4716747276852402
 21
4982.601354658989294
 31
5.0
210
-1.0
220
0.0000000107989618
230
0.0
  0
ARC
  5
448
  8
A-DETL-___4
 10
5270.471674734932094
 20
4982.6052216977841454
 30
0.0
 40
2.0000037457398472
 50
0.1109968889374659
 51
180.110782362675792
  0
LINE
  5
449
  8
A-DETL-___4
 10
5268.4716747276852402
 20
4982.601354658989294
 30
0.0
 11
5268.4716747276852402
 21
4982.601354658989294
 31
5.0
  0
ARC
  5
44A
  8
A-DETL-___4
 10
5270.471674734932094
 20
4982.6052216977841454
 30
5.0
 40
2.0000037457398472
 50
0.1109968889374659
 51
180.110782362675792
  0
LINE
  5
44B
  8
A-DETL-___4
 10
5272.4716747276852402
 20
4982.609096224960922
 30
0.0
 11
5272.4716747276852402
 21
4982.609096224960922
 31
5.0
  0
LINE
  5
44C
  8
A-DETL-___4
 10
5272.4716747276834212
 20
4977.5082659896315818
 30
0.0
 11
5272.4716747276852402
 21
4982.609096224960922
 31
0.0
210
1.0
220
-0.0000000000003567
230
0.0
  0
LINE
  5
44D
  8
A-DETL-___4
 10
5272.4716747276852402
 20
4982.609096224960922
 30
0.0
 11
5272.4716747276852402
 21
4982.609096224960922
 31
5.0
210
1.0
220
-0.0000000000003567
230
0.0
  0
LINE
  5
44E
  8
A-DETL-___4
 10
5272.4716747276834212
 20
4977.5082659896315818
 30
5.0
 11
5272.4716747276852402
 21
4982.609096224960922
 31
5.0
210
1.0
220
-0.0000000000003567
230
0.0
  0
LINE
  5
44F
  8
A-DETL-___4
 10
5272.4716747276834212
 20
4977.5082659896315818
 30
0.0
 11
5272.4716747276834212
 21
4977.5082659896315818
 31
5.0
210
1.0
220
-0.0000000000003567
230
0.0
  0
LINE
  5
450
  8
A-DETL-___4
 10
5286.4716747276816022
 20
4977.5082659896334007
 30
0.0
 11
5272.4716747276834212
 21
4977.5082659896315818
 31
0.0
210
0.0000000000000001
220
1.0
230
0.0
  0
LINE
  5
451
  8
A-DETL-___4
 10
5272.4716747276834212
 20
4977.5082659896315818
 30
0.0
 11
5272.4716747276834212
 21
4977.5082659896315818
 31
5.0
210
0.0000000000000001
220
1.0
230
0.0
  0
LINE
  5
452
  8
A-DETL-___4
 10
5286.4716747276816022
 20
4977.5082659896334007
 30
5.0
 11
5272.4716747276834212
 21
4977.5082659896315818
 31
5.0
210
0.0000000000000001
220
1.0
230
0.0
  0
LINE
  5
453
  8
A-DETL-___4
 10
5286.4716747276816022
 20
4977.5082659896334007
 30
0.0
 11
5286.4716747276816022
 21
4977.5082659896334007
 31
5.0
210
0.0000000000000001
220
1.0
230
0.0
  0
ARC
  5
454
  8
A-DETL-___4
 10
-5286.4716747276843307
 20
4979.5082659896315818
 30
0.0
 40
1.999999999999575
210
0.0
220
0.0
230
-1.0
 50
172.7566694748996099
 51
270.0000000000260911
  0
LINE
  5
455
  8
A-DETL-___4
 10
5286.4716747276816022
 20
4977.5082659896334007
 30
0.0
 11
5286.4716747276816022
 21
4977.5082659896334007
 31
5.0
  0
ARC
  5
456
  8
A-DETL-___4
 10
-5286.4716747276843307
 20
4979.5082659896315818
 30
-5.0
 40
1.999999999999575
210
0.0
220
0.0
230
-1.0
 50
172.7566694748996099
 51
270.0000000000260911
  0
LINE
  5
457
  8
A-DETL-___4
 10
5288.4557139938051478
 20
4979.7604329789173789
 30
0.0
 11
5288.4557139938051478
 21
4979.7604329789173789
 31
5.0
  0
ARC
  5
458
  8
A-DETL-___4
 10
5290.4402709537271221
 20
4980.0084927959460401
 30
0.0
 40
1.999999999999335
 50
90.8996888264241392
 51
187.1247376834041063
  0
LINE
  5
459
  8
A-DETL-___4
 10
5288.4557139938051478
 20
4979.7604329789173789
 30
0.0
 11
5288.4557139938051478
 21
4979.7604329789173789
 31
5.0
  0
ARC
  5
45A
  8
A-DETL-___4
 10
5290.4402709537271221
 20
4980.0084927959460401
 30
5.0
 40
1.999999999999335
 50
90.8996888264241392
 51
187.1247376834041063
  0
LINE
  5
45B
  8
A-DETL-___4
 10
5290.4088671797699135
 20
4982.0082462314931036
 30
0.0
 11
5290.4088671797699135
 21
4982.0082462314931036
 31
5.0
  0
LINE
  5
45C
  8
A-DETL-___4
 10
5346.4716747276843307
 20
4982.0082462314949225
 30
0.0
 11
5290.4088671797699135
 21
4982.0082462314931036
 31
0.0
210
-0.0000000000000162
220
1.0
230
0.0
  0
LINE
  5
45D
  8
A-DETL-___4
 10
5290.4088671797699135
 20
4982.0082462314931036
 30
0.0
 11
5290.4088671797699135
 21
4982.0082462314931036
 31
5.0
210
-0.0000000000000162
220
1.0
230
0.0
  0
LINE
  5
45E
  8
A-DETL-___4
 10
5346.4716747276843307
 20
4982.0082462314949225
 30
5.0
 11
5290.4088671797699135
 21
4982.0082462314931036
 31
5.0
210
-0.0000000000000162
220
1.0
230
0.0
  0
LINE
  5
45F
  8
A-DETL-___4
 10
5346.4716747276843307
 20
4982.0082462314949225
 30
0.0
 11
5346.4716747276843307
 21
4982.0082462314949225
 31
5.0
210
-0.0000000000000162
220
1.0
230
0.0
  0
ARC
  5
460
  8
A-DETL-___4
 10
5346.4716747276816022
 20
4980.008246231494013
 30
0.0
 40
2.0000000000009091
 50
0.0
 51
90.0000000000521254
  0
LINE
  5
461
  8
A-DETL-___4
 10
5346.4716747276843307
 20
4982.0082462314949225
 30
0.0
 11
5346.4716747276843307
 21
4982.0082462314949225
 31
5.0
  0
ARC
  5
462
  8
A-DETL-___4
 10
5346.4716747276816022
 20
4980.008246231494013
 30
5.0
 40
2.0000000000009091
 50
0.0
 51
90.0000000000521254
  0
LINE
  5
463
  8
A-DETL-___4
 10
5348.4716747276834212
 20
4980.0082462314912846
 30
0.0
 11
5348.4716747276834212
 21
4980.0082462314912846
 31
5.0
  0
LINE
  5
464
  8
A-DETL-___4
 10
5348.4716747276706883
 20
4971.7582466569210737
 30
0.0
 11
5348.4716747276834212
 21
4980.0082462314912846
 31
0.0
210
1.0
220
-0.0000000000014332
230
0.0
  0
LINE
  5
465
  8
A-DETL-___4
 10
5348.4716747276834212
 20
4980.0082462314912846
 30
0.0
 11
5348.4716747276834212
 21
4980.0082462314912846
 31
5.0
210
1.0
220
-0.0000000000014332
230
0.0
  0
LINE
  5
466
  8
A-DETL-___4
 10
5348.4716747276706883
 20
4971.7582466569210737
 30
5.0
 11
5348.4716747276834212
 21
4980.0082462314912846
 31
5.0
210
1.0
220
-0.0000000000014332
230
0.0
  0
LINE
  5
467
  8
A-DETL-___4
 10
5348.4716747276706883
 20
4971.7582466569210737
 30
0.0
 11
5348.4716747276706883
 21
4971.7582466569210737
 31
5.0
210
1.0
220
-0.0000000000014332
230
0.0
  0
LINE
  5
468
  8
A-DETL-___4
 10
5308.4716747276706883
 20
4971.7582466569210737
 30
0.0
 11
5348.4716747276706883
 21
4971.7582466569210737
 31
0.0
210
-0.0000000000000001
220
-1.0
230
0.0
  0
LINE
  5
469
  8
A-DETL-___4
 10
5348.4716747276706883
 20
4971.7582466569210737
 30
0.0
 11
5348.4716747276706883
 21
4971.7582466569210737
 31
5.0
210
-0.0000000000000001
220
-1.0
230
0.0
  0
LINE
  5
46A
  8
A-DETL-___4
 10
5308.4716747276706883
 20
4971.7582466569210737
 30
5.0
 11
5348.4716747276706883
 21
4971.7582466569210737
 31
5.0
210
-0.0000000000000001
220
-1.0
230
0.0
  0
LINE
  5
46B
  8
A-DETL-___4
 10
5308.4716747276706883
 20
4971.7582466569210737
 30
0.0
 11
5308.4716747276706883
 21
4971.7582466569210737
 31
5.0
210
-0.0000000000000001
220
-1.0
230
0.0
  0
LINE
  5
46C
  8
A-DETL-___4
 10
5308.4716747276706883
 20
4967.2582466569219832
 30
0.0
 11
5308.4716747276706883
 21
4971.7582466569210737
 31
0.0
210
1.0
220
-0.0000000000000001
230
0.0
  0
LINE
  5
46D
  8
A-DETL-___4
 10
5308.4716747276706883
 20
4971.7582466569210737
 30
0.0
 11
5308.4716747276706883
 21
4971.7582466569210737
 31
5.0
210
1.0
220
-0.0000000000000001
230
0.0
  0
LINE
  5
46E
  8
A-DETL-___4
 10
5308.4716747276706883
 20
4967.2582466569219832
 30
5.0
 11
5308.4716747276706883
 21
4971.7582466569210737
 31
5.0
210
1.0
220
-0.0000000000000001
230
0.0
  0
LINE
  5
46F
  8
A-DETL-___4
 10
5308.4716747276706883
 20
4967.2582466569219832
 30
0.0
 11
5308.4716747276706883
 21
4967.2582466569219832
 31
5.0
210
1.0
220
-0.0000000000000001
230
0.0
  0
ARC
  5
470
  8
A-DETL-___4
 10
5328.4716747276734168
 20
4842.0082466569192547
 30
5.0
 40
7.5
 50
180.0
 51
0.0
  0
LINE
  5
471
  8
A-DETL-___4
 10
5320.9716747276734168
 20
4842.0082466569192547
 30
5.0
 11
5320.9716747276734168
 21
4857.0082466569210737
 31
5.0
  0
ARC
  5
472
  8
A-DETL-___4
 10
5328.4716747276734168
 20
4857.0082466569210737
 30
5.0
 40
7.5
 50
0.0
 51
180.0
  0
LINE
  5
473
  8
A-DETL-___4
 10
5335.9716747276734168
 20
4857.0082466569210737
 30
5.0
 11
5335.9716747276734168
 21
4842.0082466569192547
 31
5.0
  0
ARC
  5
474
  8
A-DETL-___4
 10
5328.4716747276734168
 20
4937.0082466569219832
 30
5.0
 40
7.5
 50
0.0
 51
180.0
  0
LINE
  5
475
  8
A-DETL-___4
 10
5335.9716747276734168
 20
4937.0082466569219832
 30
5.0
 11
5335.9716747276734168
 21
4922.0082466569219832
 31
5.0
  0
ARC
  5
476
  8
A-DETL-___4
 10
5328.4716747276734168
 20
4922.0082466569219832
 30
5.0
 40
7.5
 50
180.0
 51
0.0
  0
LINE
  5
477
  8
A-DETL-___4
 10
5320.9716747276734168
 20
4922.0082466569219832
 30
5.0
 11
5320.9716747276734168
 21
4937.0082466569219832
 31
5.0
  0
LINE
  5
478
  8
A-DETL-___4
 10
5308.4716747276706883
 20
4967.2582466569219832
 30
5.0
 11
5308.4716747276706883
 21
4971.7582466569210737
 31
5.0
  0
LINE
  5
479
  8
A-DETL-___4
 10
5308.4716747276706883
 20
4971.7582466569210737
 30
5.0
 11
5348.4716747276706883
 21
4971.7582466569210737
 31
5.0
  0
LINE
  5
47A
  8
A-DETL-___4
 10
5348.4716747276706883
 20
4971.7582466569210737
 30
5.0
 11
5348.4716747276834212
 21
4980.0082462314912846
 31
5.0
  0
ARC
  5
47B
  8
A-DETL-___4
 10
5346.4716747276816022
 20
4980.008246231494013
 30
5.0
 40
2.0000000000009091
 50
0.0
 51
90.0000000000521254
  0
LINE
  5
47C
  8
A-DETL-___4
 10
5346.4716747276843307
 20
4982.0082462314949225
 30
5.0
 11
5290.4088671797699135
 21
4982.0082462314931036
 31
5.0
  0
ARC
  5
47D
  8
A-DETL-___4
 10
5290.4402709537271221
 20
4980.0084927959460401
 30
5.0
 40
1.999999999999335
 50
90.8996888264241392
 51
187.1247376834041063
  0
ARC
  5
47E
  8
A-DETL-___4
 10
5286.4716747276843307
 20
4979.5082659896315818
 30
5.0
 40
1.999999999999575
 50
269.9999999999739089
 51
7.2433305251003759
  0
LINE
  5
47F
  8
A-DETL-___4
 10
5286.4716747276816022
 20
4977.5082659896334007
 30
5.0
 11
5272.4716747276834212
 21
4977.5082659896315818
 31
5.0
  0
LINE
  5
480
  8
A-DETL-___4
 10
5272.4716747276834212
 20
4977.5082659896315818
 30
5.0
 11
5272.4716747276852402
 21
4982.609096224960922
 31
5.0
  0
ARC
  5
481
  8
A-DETL-___4
 10
5270.471674734932094
 20
4982.6052216977841454
 30
5.0
 40
2.0000037457398472
 50
0.1109968889374659
 51
180.110782362675792
  0
LINE
  5
482
  8
A-DETL-___4
 10
5268.4716747276852402
 20
4982.601354658989294
 30
5.0
 11
5268.4716738303650345
 21
4899.5082466569201642
 31
5.0
  0
LINE
  5
483
  8
A-DETL-___4
 10
5268.4716738303650345
 20
4899.5082466569201642
 30
5.0
 11
5263.4716746078829601
 21
4899.5082466569201642
 31
5.0
  0
LINE
  5
484
  8
A-DETL-___4
 10
5263.4716746078829601
 20
4899.5082466569201642
 30
5.0
 11
5263.4716746078829601
 21
4879.5082466569210737
 31
5.0
  0
LINE
  5
485
  8
A-DETL-___4
 10
5263.4716746078829601
 20
4879.5082466569210737
 30
5.0
 11
5268.4716718865483926
 21
4879.5082466569210737
 31
5.0
  0
LINE
  5
486
  8
A-DETL-___4
 10
5268.4716718865483926
 20
4879.5082466569210737
 30
5.0
 11
5268.4716709891872597
 21
4796.4112716387226101
 31
5.0
  0
ARC
  5
487
  8
A-DETL-___4
 10
5270.4716747349275465
 20
4796.4112716171239299
 30
5.0
 40
2.0000037457402859
 50
180.0
 51
0.110997538152402
  0
LINE
  5
488
  8
A-DETL-___4
 10
5272.4716747276788738
 20
4796.4151461453629963
 30
5.0
 11
5272.4716747276788738
 21
4801.5082273242132942
 31
5.0
  0
LINE
  5
489
  8
A-DETL-___4
 10
5272.4716747276788738
 20
4801.5082273242132942
 30
5.0
 11
5286.4716747276779643
 21
4801.5082273242132942
 31
5.0
  0
ARC
  5
48A
  8
A-DETL-___4
 10
5286.4716747276797832
 20
4799.5082273242142037
 30
5.0
 40
1.9999999999990901
 50
359.9999999999740226
 51
90.0000000000260485
  0
LINE
  5
48B
  8
A-DETL-___4
 10
5288.4716747276788738
 20
4799.5082273242132942
 30
5.0
 11
5288.4716747276788738
 21
4799.0082470823508629
 31
5.0
  0
ARC
  5
48C
  8
A-DETL-___4
 10
5290.4716747276779643
 20
4799.0082470823499534
 30
5.0
 40
1.9999999999990901
 50
180.0
 51
270.0000000000521254
  0
LINE
  5
48D
  8
A-DETL-___4
 10
5290.4716747276788738
 20
4797.0082470823508629
 30
5.0
 11
5346.4716747276788738
 21
4797.0082470823508629
 31
5.0
  0
ARC
  5
48E
  8
A-DETL-___4
 10
5346.4716747276797832
 20
4799.0082470823499534
 30
5.0
 40
1.9999999999990901
 50
269.9999999999739089
 51
0.0000000000260592
  0
LINE
  5
48F
  8
A-DETL-___4
 10
5348.4716747276788738
 20
4799.0082470823499534
 30
5.0
 11
5348.4716747276788738
 21
4807.2582466569210737
 31
5.0
  0
LINE
  5
490
  8
A-DETL-___4
 10
5348.4716747276788738
 20
4807.2582466569210737
 30
5.0
 11
5308.4716747276743263
 21
4807.2582466569210737
 31
5.0
  0
LINE
  5
491
  8
A-DETL-___4
 10
5308.4716747276743263
 20
4807.2582466569210737
 30
5.0
 11
5308.4716747276743263
 21
4811.7582466569210737
 31
5.0
  0
LINE
  5
492
  8
A-DETL-___4
 10
5308.4716747276743263
 20
4811.7582466569210737
 30
5.0
 11
5348.4716747276715978
 21
4811.7582466569210737
 31
5.0
  0
LINE
  5
493
  8
A-DETL-___4
 10
5348.4716747276715978
 20
4811.7582466569210737
 30
5.0
 11
5348.4716747276715978
 21
4967.2582466569219832
 31
5.0
  0
LINE
  5
494
  8
A-DETL-___4
 10
5348.4716747276715978
 20
4967.2582466569219832
 30
5.0
 11
5308.4716747276706883
 21
4967.2582466569219832
 31
5.0
  0
ARC
  5
495
  8
A-DETL-___4
 10
-5328.4716747276734168
 20
4842.0082466569192547
 30
0.0
 40
7.5
210
0.0
220
0.0
230
-1.0
 50
180.0
 51
0.0
  0
LINE
  5
496
  8
A-DETL-___4
 10
5335.9716747276734168
 20
4842.0082466569192547
 30
0.0
 11
5335.9716747276734168
 21
4857.0082466569210737
 31
0.0
210
0.0
220
0.0
230
-1.0
  0
ARC
  5
497
  8
A-DETL-___4
 10
-5328.4716747276734168
 20
4857.0082466569210737
 30
0.0
 40
7.5
210
0.0
220
0.0
230
-1.0
 50
0.0
 51
180.0
  0
LINE
  5
498
  8
A-DETL-___4
 10
5320.9716747276734168
 20
4857.0082466569210737
 30
0.0
 11
5320.9716747276734168
 21
4842.0082466569192547
 31
0.0
210
0.0
220
0.0
230
-1.0
  0
ARC
  5
499
  8
A-DETL-___4
 10
-5328.4716747276734168
 20
4937.0082466569219832
 30
0.0
 40
7.5
210
0.0
220
0.0
230
-1.0
 50
0.0
 51
180.0
  0
LINE
  5
49A
  8
A-DETL-___4
 10
5320.9716747276734168
 20
4937.0082466569219832
 30
0.0
 11
5320.9716747276734168
 21
4922.0082466569219832
 31
0.0
210
0.0
220
0.0
230
-1.0
  0
ARC
  5
49B
  8
A-DETL-___4
 10
-5328.4716747276734168
 20
4922.0082466569219832
 30
0.0
 40
7.5
210
0.0
220
0.0
230
-1.0
 50
180.0
 51
0.0
  0
LINE
  5
49C
  8
A-DETL-___4
 10
5335.9716747276734168
 20
4922.0082466569219832
 30
0.0
 11
5335.9716747276734168
 21
4937.0082466569219832
 31
0.0
210
0.0
220
0.0
230
-1.0
  0
LINE
  5
49D
  8
A-DETL-___4
 10
5308.4716747276706883
 20
4967.2582466569219832
 30
0.0
 11
5308.4716747276706883
 21
4971.7582466569210737
 31
0.0
210
0.0
220
0.0
230
-1.0
  0
LINE
  5
49E
  8
A-DETL-___4
 10
5348.4716747276715978
 20
4967.2582466569219832
 30
0.0
 11
5308.4716747276706883
 21
4967.2582466569219832
 31
0.0
210
0.0
220
0.0
230
-1.0
  0
LINE
  5
49F
  8
A-DETL-___4
 10
5348.4716747276715978
 20
4811.7582466569210737
 30
0.0
 11
5348.4716747276715978
 21
4967.2582466569219832
 31
0.0
210
0.0
220
0.0
230
-1.0
  0
LINE
  5
4A0
  8
A-DETL-___4
 10
5308.4716747276743263
 20
4811.7582466569210737
 30
0.0
 11
5348.4716747276715978
 21
4811.7582466569210737
 31
0.0
210
0.0
220
0.0
230
-1.0
  0
LINE
  5
4A1
  8
A-DETL-___4
 10
5308.4716747276743263
 20
4807.2582466569210737
 30
0.0
 11
5308.4716747276743263
 21
4811.7582466569210737
 31
0.0
210
0.0
220
0.0
230
-1.0
  0
LINE
  5
4A2
  8
A-DETL-___4
 10
5348.4716747276788738
 20
4807.2582466569210737
 30
0.0
 11
5308.4716747276743263
 21
4807.2582466569210737
 31
0.0
210
0.0
220
0.0
230
-1.0
  0
LINE
  5
4A3
  8
A-DETL-___4
 10
5348.4716747276788738
 20
4799.0082470823499534
 30
0.0
 11
5348.4716747276788738
 21
4807.2582466569210737
 31
0.0
210
0.0
220
0.0
230
-1.0
  0
ARC
  5
4A4
  8
A-DETL-___4
 10
-5346.4716747276797832
 20
4799.0082470823499534
 30
0.0
 40
1.9999999999990901
210
0.0
220
0.0
230
-1.0
 50
179.9999999999739089
 51
270.0000000000259774
  0
LINE
  5
4A5
  8
A-DETL-___4
 10
5290.4716747276788738
 20
4797.0082470823508629
 30
0.0
 11
5346.4716747276788738
 21
4797.0082470823508629
 31
0.0
210
0.0
220
0.0
230
-1.0
  0
ARC
  5
4A6
  8
A-DETL-___4
 10
-5290.4716747276779643
 20
4799.0082470823499534
 30
0.0
 40
1.9999999999990901
210
0.0
220
0.0
230
-1.0
 50
269.9999999999478746
 51
0.0
  0
LINE
  5
4A7
  8
A-DETL-___4
 10
5288.4716747276788738
 20
4799.5082273242132942
 30
0.0
 11
5288.4716747276788738
 21
4799.0082470823508629
 31
0.0
210
0.0
220
0.0
230
-1.0
  0
ARC
  5
4A8
  8
A-DETL-___4
 10
-5286.4716747276797832
 20
4799.5082273242142037
 30
0.0
 40
1.9999999999990901
210
0.0
220
0.0
230
-1.0
 50
89.9999999999739515
 51
180.0000000000260059
  0
LINE
  5
4A9
  8
A-DETL-___4
 10
5272.4716747276788738
 20
4801.5082273242132942
 30
0.0
 11
5286.4716747276779643
 21
4801.5082273242132942
 31
0.0
210
0.0
220
0.0
230
-1.0
  0
LINE
  5
4AA
  8
A-DETL-___4
 10
5272.4716747276788738
 20
4796.4151461453629963
 30
0.0
 11
5272.4716747276788738
 21
4801.5082273242132942
 31
0.0
210
0.0
220
0.0
230
-1.0
  0
ARC
  5
4AB
  8
A-DETL-___4
 10
-5270.4716747349275465
 20
4796.4112716171239299
 30
0.0
 40
2.0000037457402859
210
0.0
220
0.0
230
-1.0
 50
179.8890024618476104
 51
0.0
  0
LINE
  5
4AC
  8
A-DETL-___4
 10
5268.4716718865483926
 20
4879.5082466569210737
 30
0.0
 11
5268.4716709891872597
 21
4796.4112716387226101
 31
0.0
210
0.0
220
0.0
230
-1.0
  0
LINE
  5
4AD
  8
A-DETL-___4
 10
5263.4716746078829601
 20
4879.5082466569210737
 30
0.0
 11
5268.4716718865483926
 21
4879.5082466569210737
 31
0.0
210
0.0
220
0.0
230
-1.0
  0
LINE
  5
4AE
  8
A-DETL-___4
 10
5263.4716746078829601
 20
4899.5082466569201642
 30
0.0
 11
5263.4716746078829601
 21
4879.5082466569210737
 31
0.0
210
0.0
220
0.0
230
-1.0
  0
LINE
  5
4AF
  8
A-DETL-___4
 10
5268.4716738303650345
 20
4899.5082466569201642
 30
0.0
 11
5263.4716746078829601
 21
4899.5082466569201642
 31
0.0
210
0.0
220
0.0
230
-1.0
  0
LINE
  5
4B0
  8
A-DETL-___4
 10
5268.4716747276852402
 20
4982.601354658989294
 30
0.0
 11
5268.4716738303650345
 21
4899.5082466569201642
 31
0.0
210
0.0
220
0.0
230
-1.0
  0
ARC
  5
4B1
  8
A-DETL-___4
 10
-5270.471674734932094
 20
4982.6052216977841454
 30
0.0
 40
2.0000037457398472
210
0.0
220
0.0
230
-1.0
 50
359.8892176373241796
 51
179.8890031110624932
  0
LINE
  5
4B2
  8
A-DETL-___4
 10
5272.4716747276834212
 20
4977.5082659896315818
 30
0.0
 11
5272.4716747276852402
 21
4982.609096224960922
 31
0.0
210
0.0
220
0.0
230
-1.0
  0
LINE
  5
4B3
  8
A-DETL-___4
 10
5286.4716747276816022
 20
4977.5082659896334007
 30
0.0
 11
5272.4716747276834212
 21
4977.5082659896315818
 31
0.0
210
0.0
220
0.0
230
-1.0
  0
ARC
  5
4B4
  8
A-DETL-___4
 10
-5286.4716747276843307
 20
4979.5082659896315818
 30
0.0
 40
1.999999999999575
210
0.0
220
0.0
230
-1.0
 50
172.7566694748996099
 51
270.0000000000260911
  0
ARC
  5
4B5
  8
A-DETL-___4
 10
-5290.4402709537271221
 20
4980.0084927959460401
 30
0.0
 40
1.999999999999335
210
0.0
220
0.0
230
-1.0
 50
352.8752623165959221
 51
89.100311173575804
  0
LINE
  5
4B6
  8
A-DETL-___4
 10
5346.4716747276843307
 20
4982.0082462314949225
 30
0.0
 11
5290.4088671797699135
 21
4982.0082462314931036
 31
0.0
210
0.0
220
0.0
230
-1.0
  0
ARC
  5
4B7
  8
A-DETL-___4
 10
-5346.4716747276816022
 20
4980.008246231494013
 30
0.0
 40
2.0000000000009091
210
0.0
220
0.0
230
-1.0
 50
89.9999999999478888
 51
180.0
  0
LINE
  5
4B8
  8
A-DETL-___4
 10
5348.4716747276706883
 20
4971.7582466569210737
 30
0.0
 11
5348.4716747276834212
 21
4980.0082462314912846
 31
0.0
210
0.0
220
0.0
230
-1.0
  0
LINE
  5
4B9
  8
A-DETL-___4
 10
5308.4716747276706883
 20
4971.7582466569210737
 30
0.0
 11
5348.4716747276706883
 21
4971.7582466569210737
 31
0.0
210
0.0
220
0.0
230
-1.0
  0
ENDBLK
  5
4BB
  8
0
  0
BLOCK
  8
0
  2
*U7
 70
     1
 10
0.0
 20
0.0
 30
0.0
  3
*U7
  1

  0
ARC
  5
4E4
  8
A-DETL-___4
 10
195.7650954425097893
 20
160.7909882199483036
 30
0.0
 40
7.5
 50
180.0
 51
0.0
  0
LINE
  5
4E5
  8
A-DETL-___4
 10
188.2650954425097893
 20
160.7909882199483036
 30
0.0
 11
188.2650954425097893
 21
160.7909882199483036
 31
5.0
  0
ARC
  5
4E6
  8
A-DETL-___4
 10
-195.7650954425097893
 20
160.7909882199483036
 30
-5.0
 40
7.5
210
0.0
220
0.0
230
-1.0
 50
180.0
 51
0.0
  0
LINE
  5
4E7
  8
A-DETL-___4
 10
203.2650954425097893
 20
160.7909882199483036
 30
0.0
 11
203.2650954425097893
 21
160.7909882199483036
 31
5.0
  0
LINE
  5
4E8
  8
A-DETL-___4
 10
188.2650954425097893
 20
175.7909882199492131
 30
0.0
 11
188.2650954425097893
 21
160.7909882199483036
 31
0.0
210
1.0
220
-0.0000000000000001
230
0.0
  0
LINE
  5
4E9
  8
A-DETL-___4
 10
188.2650954425097893
 20
175.7909882199492131
 30
0.0
 11
188.2650954425097893
 21
175.7909882199492131
 31
5.0
210
1.0
220
-0.0000000000000001
230
0.0
  0
LINE
  5
4EA
  8
A-DETL-___4
 10
188.2650954425097893
 20
160.7909882199483036
 30
5.0
 11
188.2650954425097893
 21
175.7909882199492131
 31
5.0
210
1.0
220
-0.0000000000000001
230
0.0
  0
LINE
  5
4EB
  8
A-DETL-___4
 10
188.2650954425097893
 20
160.7909882199483036
 30
0.0
 11
188.2650954425097893
 21
160.7909882199483036
 31
5.0
210
1.0
220
-0.0000000000000001
230
0.0
  0
ARC
  5
4EC
  8
A-DETL-___4
 10
195.7650954425097893
 20
175.7909882199492131
 30
0.0
 40
7.5
 50
0.0
 51
180.0
  0
LINE
  5
4ED
  8
A-DETL-___4
 10
203.2650954425097893
 20
175.7909882199492131
 30
0.0
 11
203.2650954425097893
 21
175.7909882199492131
 31
5.0
  0
ARC
  5
4EE
  8
A-DETL-___4
 10
-195.7650954425097893
 20
175.7909882199492131
 30
-5.0
 40
7.5
210
0.0
220
0.0
230
-1.0
 50
0.0
 51
180.0
  0
LINE
  5
4EF
  8
A-DETL-___4
 10
188.2650954425097893
 20
175.7909882199492131
 30
0.0
 11
188.2650954425097893
 21
175.7909882199492131
 31
5.0
  0
LINE
  5
4F0
  8
A-DETL-___4
 10
203.2650954425097893
 20
160.7909882199483036
 30
0.0
 11
203.2650954425097893
 21
175.7909882199492131
 31
0.0
210
-1.0
220
0.0000000000000001
230
0.0
  0
LINE
  5
4F1
  8
A-DETL-___4
 10
203.2650954425097893
 20
160.7909882199483036
 30
0.0
 11
203.2650954425097893
 21
160.7909882199483036
 31
5.0
210
-1.0
220
0.0000000000000001
230
0.0
  0
LINE
  5
4F2
  8
A-DETL-___4
 10
203.2650954425097893
 20
175.7909882199492131
 30
5.0
 11
203.2650954425097893
 21
160.7909882199483036
 31
5.0
210
-1.0
220
0.0000000000000001
230
0.0
  0
LINE
  5
4F3
  8
A-DETL-___4
 10
203.2650954425097893
 20
175.7909882199492131
 30
0.0
 11
203.2650954425097893
 21
175.7909882199492131
 31
5.0
210
-1.0
220
0.0000000000000001
230
0.0
  0
ARC
  5
4F4
  8
A-DETL-___4
 10
195.7650954425097893
 20
255.7909882199519984
 30
0.0
 40
7.5
 50
0.0
 51
180.0
  0
LINE
  5
4F5
  8
A-DETL-___4
 10
203.2650954425097893
 20
255.7909882199519984
 30
0.0
 11
203.2650954425097893
 21
255.7909882199519984
 31
5.0
  0
ARC
  5
4F6
  8
A-DETL-___4
 10
-195.7650954425097893
 20
255.7909882199519984
 30
-5.0
 40
7.5
210
0.0
220
0.0
230
-1.0
 50
0.0
 51
180.0
  0
LINE
  5
4F7
  8
A-DETL-___4
 10
188.2650954425097893
 20
255.7909882199519984
 30
0.0
 11
188.2650954425097893
 21
255.7909882199519984
 31
5.0
  0
LINE
  5
4F8
  8
A-DETL-___4
 10
203.2650954425097893
 20
240.7909882199510037
 30
0.0
 11
203.2650954425097893
 21
255.7909882199519984
 31
0.0
210
-1.0
220
0.0000000000000001
230
0.0
  0
LINE
  5
4F9
  8
A-DETL-___4
 10
203.2650954425097893
 20
240.7909882199510037
 30
0.0
 11
203.2650954425097893
 21
240.7909882199510037
 31
5.0
210
-1.0
220
0.0000000000000001
230
0.0
  0
LINE
  5
4FA
  8
A-DETL-___4
 10
203.2650954425097893
 20
255.7909882199519984
 30
5.0
 11
203.2650954425097893
 21
240.7909882199510037
 31
5.0
210
-1.0
220
0.0000000000000001
230
0.0
  0
LINE
  5
4FB
  8
A-DETL-___4
 10
203.2650954425097893
 20
255.7909882199519984
 30
0.0
 11
203.2650954425097893
 21
255.7909882199519984
 31
5.0
210
-1.0
220
0.0000000000000001
230
0.0
  0
ARC
  5
4FC
  8
A-DETL-___4
 10
195.7650954425097893
 20
240.7909882199510037
 30
0.0
 40
7.5
 50
180.0
 51
0.0
  0
LINE
  5
4FD
  8
A-DETL-___4
 10
188.2650954425097893
 20
240.7909882199510037
 30
0.0
 11
188.2650954425097893
 21
240.7909882199510037
 31
5.0
  0
ARC
  5
4FE
  8
A-DETL-___4
 10
-195.7650954425097893
 20
240.7909882199510037
 30
-5.0
 40
7.5
210
0.0
220
0.0
230
-1.0
 50
180.0
 51
0.0
  0
LINE
  5
4FF
  8
A-DETL-___4
 10
203.2650954425097893
 20
240.7909882199510037
 30
0.0
 11
203.2650954425097893
 21
240.7909882199510037
 31
5.0
  0
LINE
  5
500
  8
A-DETL-___4
 10
188.2650954425097893
 20
255.7909882199519984
 30
0.0
 11
188.2650954425097893
 21
240.7909882199510037
 31
0.0
210
1.0
220
-0.0000000000000001
230
0.0
  0
LINE
  5
501
  8
A-DETL-___4
 10
188.2650954425097893
 20
255.7909882199519984
 30
0.0
 11
188.2650954425097893
 21
255.7909882199519984
 31
5.0
210
1.0
220
-0.0000000000000001
230
0.0
  0
LINE
  5
502
  8
A-DETL-___4
 10
188.2650954425097893
 20
240.7909882199510037
 30
5.0
 11
188.2650954425097893
 21
255.7909882199519984
 31
5.0
210
1.0
220
-0.0000000000000001
230
0.0
  0
LINE
  5
503
  8
A-DETL-___4
 10
188.2650954425097893
 20
240.7909882199510037
 30
0.0
 11
188.2650954425097893
 21
240.7909882199510037
 31
5.0
210
1.0
220
-0.0000000000000001
230
0.0
  0
LINE
  5
504
  8
A-DETL-___4
 10
215.7650954425089083
 20
286.0409882199509752
 30
0.0
 11
175.7650954425079988
 21
286.0409882199509752
 31
0.0
210
0.0000000000000001
220
1.0
230
0.0
  0
LINE
  5
505
  8
A-DETL-___4
 10
175.7650954425079988
 20
286.0409882199509752
 30
0.0
 11
175.7650954425079988
 21
286.0409882199509752
 31
5.0
210
0.0000000000000001
220
1.0
230
0.0
  0
LINE
  5
506
  8
A-DETL-___4
 10
215.7650954425089083
 20
286.0409882199509752
 30
5.0
 11
175.7650954425079988
 21
286.0409882199509752
 31
5.0
210
0.0000000000000001
220
1.0
230
0.0
  0
LINE
  5
507
  8
A-DETL-___4
 10
215.7650954425089083
 20
286.0409882199509752
 30
0.0
 11
215.7650954425089083
 21
286.0409882199509752
 31
5.0
210
0.0000000000000001
220
1.0
230
0.0
  0
LINE
  5
508
  8
A-DETL-___4
 10
215.7650954425089083
 20
130.5409882199500942
 30
0.0
 11
215.7650954425089083
 21
286.0409882199509752
 31
0.0
210
1.0
220
-0.0000000000000001
230
0.0
  0
LINE
  5
509
  8
A-DETL-___4
 10
215.7650954425089083
 20
286.0409882199509752
 30
0.0
 11
215.7650954425089083
 21
286.0409882199509752
 31
5.0
210
1.0
220
-0.0000000000000001
230
0.0
  0
LINE
  5
50A
  8
A-DETL-___4
 10
215.7650954425089083
 20
130.5409882199500942
 30
5.0
 11
215.7650954425089083
 21
286.0409882199509752
 31
5.0
210
1.0
220
-0.0000000000000001
230
0.0
  0
LINE
  5
50B
  8
A-DETL-___4
 10
215.7650954425089083
 20
130.5409882199500942
 30
0.0
 11
215.7650954425089083
 21
130.5409882199500942
 31
5.0
210
1.0
220
-0.0000000000000001
230
0.0
  0
LINE
  5
50C
  8
A-DETL-___4
 10
175.7650954425106988
 20
130.5409882199500942
 30
0.0
 11
215.7650954425089083
 21
130.5409882199500942
 31
0.0
210
-0.0000000000000001
220
-1.0
230
0.0
  0
LINE
  5
50D
  8
A-DETL-___4
 10
215.7650954425089083
 20
130.5409882199500942
 30
0.0
 11
215.7650954425089083
 21
130.5409882199500942
 31
5.0
210
-0.0000000000000001
220
-1.0
230
0.0
  0
LINE
  5
50E
  8
A-DETL-___4
 10
175.7650954425106988
 20
130.5409882199500942
 30
5.0
 11
215.7650954425089083
 21
130.5409882199500942
 31
5.0
210
-0.0000000000000001
220
-1.0
230
0.0
  0
LINE
  5
50F
  8
A-DETL-___4
 10
175.7650954425106988
 20
130.5409882199500942
 30
0.0
 11
175.7650954425106988
 21
130.5409882199500942
 31
5.0
210
-0.0000000000000001
220
-1.0
230
0.0
  0
LINE
  5
510
  8
A-DETL-___4
 10
175.7650954425106988
 20
126.0409882199500942
 30
0.0
 11
175.7650954425106988
 21
130.5409882199500942
 31
0.0
210
1.0
220
-0.0000000000000001
230
0.0
  0
LINE
  5
511
  8
A-DETL-___4
 10
175.7650954425106988
 20
130.5409882199500942
 30
0.0
 11
175.7650954425106988
 21
130.5409882199500942
 31
5.0
210
1.0
220
-0.0000000000000001
230
0.0
  0
LINE
  5
512
  8
A-DETL-___4
 10
175.7650954425106988
 20
126.0409882199500942
 30
5.0
 11
175.7650954425106988
 21
130.5409882199500942
 31
5.0
210
1.0
220
-0.0000000000000001
230
0.0
  0
LINE
  5
513
  8
A-DETL-___4
 10
175.7650954425106988
 20
126.0409882199500942
 30
0.0
 11
175.7650954425106988
 21
126.0409882199500942
 31
5.0
210
1.0
220
-0.0000000000000001
230
0.0
  0
LINE
  5
514
  8
A-DETL-___4
 10
215.7650954425153031
 20
126.0409882199500942
 30
0.0
 11
175.7650954425106988
 21
126.0409882199500942
 31
0.0
210
0.0000000000000001
220
1.0
230
0.0
  0
LINE
  5
515
  8
A-DETL-___4
 10
175.7650954425106988
 20
126.0409882199500942
 30
0.0
 11
175.7650954425106988
 21
126.0409882199500942
 31
5.0
210
0.0000000000000001
220
1.0
230
0.0
  0
LINE
  5
516
  8
A-DETL-___4
 10
215.7650954425153031
 20
126.0409882199500942
 30
5.0
 11
175.7650954425106988
 21
126.0409882199500942
 31
5.0
210
0.0000000000000001
220
1.0
230
0.0
  0
LINE
  5
517
  8
A-DETL-___4
 10
215.7650954425153031
 20
126.0409882199500942
 30
0.0
 11
215.7650954425153031
 21
126.0409882199500942
 31
5.0
210
0.0000000000000001
220
1.0
230
0.0
  0
LINE
  5
518
  8
A-DETL-___4
 10
215.7650954425153031
 20
117.7909886453798975
 30
0.0
 11
215.7650954425153031
 21
126.0409882199500942
 31
0.0
210
1.0
220
-0.0000000000000001
230
0.0
  0
LINE
  5
519
  8
A-DETL-___4
 10
215.7650954425153031
 20
126.0409882199500942
 30
0.0
 11
215.7650954425153031
 21
126.0409882199500942
 31
5.0
210
1.0
220
-0.0000000000000001
230
0.0
  0
LINE
  5
51A
  8
A-DETL-___4
 10
215.7650954425153031
 20
117.7909886453798975
 30
5.0
 11
215.7650954425153031
 21
126.0409882199500942
 31
5.0
210
1.0
220
-0.0000000000000001
230
0.0
  0
LINE
  5
51B
  8
A-DETL-___4
 10
215.7650954425153031
 20
117.7909886453798975
 30
0.0
 11
215.7650954425153031
 21
117.7909886453798975
 31
5.0
210
1.0
220
-0.0000000000000001
230
0.0
  0
ARC
  5
51C
  8
A-DETL-___4
 10
213.7650954425162126
 20
117.7909886453790023
 30
0.0
 40
1.9999999999990901
 50
269.9999999999739089
 51
0.0000000000260592
  0
LINE
  5
51D
  8
A-DETL-___4
 10
215.7650954425153031
 20
117.7909886453798975
 30
0.0
 11
215.7650954425153031
 21
117.7909886453798975
 31
5.0
  0
ARC
  5
51E
  8
A-DETL-___4
 10
213.7650954425162126
 20
117.7909886453790023
 30
5.0
 40
1.9999999999990901
 50
269.9999999999739089
 51
0.0000000000260592
  0
LINE
  5
51F
  8
A-DETL-___4
 10
213.7650954425153031
 20
115.7909886453798975
 30
0.0
 11
213.7650954425153031
 21
115.7909886453798975
 31
5.0
  0
LINE
  5
520
  8
A-DETL-___4
 10
157.7650954425153031
 20
115.790988645380807
 30
0.0
 11
213.7650954425153031
 21
115.7909886453798975
 31
0.0
210
-0.0000000000000163
220
-1.0
230
0.0
  0
LINE
  5
521
  8
A-DETL-___4
 10
213.7650954425153031
 20
115.7909886453798975
 30
0.0
 11
213.7650954425153031
 21
115.7909886453798975
 31
5.0
210
-0.0000000000000163
220
-1.0
230
0.0
  0
LINE
  5
522
  8
A-DETL-___4
 10
157.7650954425153031
 20
115.790988645380807
 30
5.0
 11
213.7650954425153031
 21
115.7909886453798975
 31
5.0
210
-0.0000000000000163
220
-1.0
230
0.0
  0
LINE
  5
523
  8
A-DETL-___4
 10
157.7650954425153031
 20
115.790988645380807
 30
0.0
 11
157.7650954425153031
 21
115.790988645380807
 31
5.0
210
-0.0000000000000163
220
-1.0
230
0.0
  0
ARC
  5
524
  8
A-DETL-___4
 10
157.7650954425143937
 20
117.7909886453798975
 30
0.0
 40
1.9999999999990901
 50
180.0
 51
270.0000000000521254
  0
LINE
  5
525
  8
A-DETL-___4
 10
157.7650954425153031
 20
115.790988645380807
 30
0.0
 11
157.7650954425153031
 21
115.790988645380807
 31
5.0
  0
ARC
  5
526
  8
A-DETL-___4
 10
157.7650954425143937
 20
117.7909886453798975
 30
5.0
 40
1.9999999999990901
 50
180.0
 51
270.0000000000521254
  0
LINE
  5
527
  8
A-DETL-___4
 10
155.7650954425153031
 20
117.790988645380807
 30
0.0
 11
155.7650954425153031
 21
117.790988645380807
 31
5.0
  0
LINE
  5
528
  8
A-DETL-___4
 10
155.7650954425153031
 20
118.2909688872423004
 30
0.0
 11
155.7650954425153031
 21
117.790988645380807
 31
0.0
210
-1.0
220
0.0000000000000001
230
0.0
  0
LINE
  5
529
  8
A-DETL-___4
 10
155.7650954425153031
 20
117.790988645380807
 30
0.0
 11
155.7650954425153031
 21
117.790988645380807
 31
5.0
210
-1.0
220
0.0000000000000001
230
0.0
  0
LINE
  5
52A
  8
A-DETL-___4
 10
155.7650954425153031
 20
118.2909688872423004
 30
5.0
 11
155.7650954425153031
 21
117.790988645380807
 31
5.0
210
-1.0
220
0.0000000000000001
230
0.0
  0
LINE
  5
52B
  8
A-DETL-___4
 10
155.7650954425153031
 20
118.2909688872423004
 30
0.0
 11
155.7650954425153031
 21
118.2909688872423004
 31
5.0
210
-1.0
220
0.0000000000000001
230
0.0
  0
ARC
  5
52C
  8
A-DETL-___4
 10
-153.7650954425162126
 20
118.2909688872431957
 30
0.0
 40
1.9999999999990901
210
0.0
220
0.0
230
-1.0
 50
89.9999999999739515
 51
180.0000000000260059
  0
LINE
  5
52D
  8
A-DETL-___4
 10
155.7650954425153031
 20
118.2909688872423004
 30
0.0
 11
155.7650954425153031
 21
118.2909688872423004
 31
5.0
  0
ARC
  5
52E
  8
A-DETL-___4
 10
-153.7650954425162126
 20
118.2909688872431957
 30
-5.0
 40
1.9999999999990901
210
0.0
220
0.0
230
-1.0
 50
89.9999999999739515
 51
180.0000000000260059
  0
LINE
  5
52F
  8
A-DETL-___4
 10
153.7650954425153031
 20
120.2909688872423004
 30
0.0
 11
153.7650954425153031
 21
120.2909688872423004
 31
5.0
  0
LINE
  5
530
  8
A-DETL-___4
 10
139.7650954425153031
 20
120.2909688872423004
 30
0.0
 11
153.7650954425153031
 21
120.2909688872423004
 31
0.0
210
-0.0000000000000001
220
-1.0
230
0.0
  0
LINE
  5
531
  8
A-DETL-___4
 10
153.7650954425153031
 20
120.2909688872423004
 30
0.0
 11
153.7650954425153031
 21
120.2909688872423004
 31
5.0
210
-0.0000000000000001
220
-1.0
230
0.0
  0
LINE
  5
532
  8
A-DETL-___4
 10
139.7650954425153031
 20
120.2909688872423004
 30
5.0
 11
153.7650954425153031
 21
120.2909688872423004
 31
5.0
210
-0.0000000000000001
220
-1.0
230
0.0
  0
LINE
  5
533
  8
A-DETL-___4
 10
139.7650954425153031
 20
120.2909688872423004
 30
0.0
 11
139.7650954425153031
 21
120.2909688872423004
 31
5.0
210
-0.0000000000000001
220
-1.0
230
0.0
  0
LINE
  5
534
  8
A-DETL-___4
 10
139.7650954425153031
 20
115.1978877083920025
 30
0.0
 11
139.7650954425153031
 21
120.2909688872423004
 31
0.0
210
1.0
220
-0.0000000000000001
230
0.0
  0
LINE
  5
535
  8
A-DETL-___4
 10
139.7650954425153031
 20
120.2909688872423004
 30
0.0
 11
139.7650954425153031
 21
120.2909688872423004
 31
5.0
210
1.0
220
-0.0000000000000001
230
0.0
  0
LINE
  5
536
  8
A-DETL-___4
 10
139.7650954425153031
 20
115.1978877083920025
 30
5.0
 11
139.7650954425153031
 21
120.2909688872423004
 31
5.0
210
1.0
220
-0.0000000000000001
230
0.0
  0
LINE
  5
537
  8
A-DETL-___4
 10
139.7650954425153031
 20
115.1978877083920025
 30
0.0
 11
139.7650954425153031
 21
115.1978877083920025
 31
5.0
210
1.0
220
-0.0000000000000001
230
0.0
  0
ARC
  5
538
  8
A-DETL-___4
 10
137.7650954497640043
 20
115.194013180152993
 30
0.0
 40
2.0000037457402859
 50
180.0
 51
0.110997538152402
  0
LINE
  5
539
  8
A-DETL-___4
 10
139.7650954425153031
 20
115.1978877083920025
 30
0.0
 11
139.7650954425153031
 21
115.1978877083920025
 31
5.0
  0
ARC
  5
53A
  8
A-DETL-___4
 10
137.7650954497640043
 20
115.194013180152993
 30
5.0
 40
2.0000037457402859
 50
180.0
 51
0.110997538152402
  0
LINE
  5
53B
  8
A-DETL-___4
 10
135.7650917040236891
 20
115.1940132017516021
 30
0.0
 11
135.7650917040236891
 21
115.1940132017516021
 31
5.0
  0
LINE
  5
53C
  8
A-DETL-___4
 10
135.7650926013847936
 20
198.2909882199500942
 30
0.0
 11
135.7650917040236891
 21
115.1940132017516021
 31
0.0
210
-1.0
220
0.0000000107989628
230
0.0
  0
LINE
  5
53D
  8
A-DETL-___4
 10
135.7650917040236891
 20
115.1940132017516021
 30
0.0
 11
135.7650917040236891
 21
115.1940132017516021
 31
5.0
210
-1.0
220
0.0000000107989628
230
0.0
  0
LINE
  5
53E
  8
A-DETL-___4
 10
135.7650926013847936
 20
198.2909882199500942
 30
5.0
 11
135.7650917040236891
 21
115.1940132017516021
 31
5.0
210
-1.0
220
0.0000000107989628
230
0.0
  0
LINE
  5
53F
  8
A-DETL-___4
 10
135.7650926013847936
 20
198.2909882199500942
 30
0.0
 11
135.7650926013847936
 21
198.2909882199500942
 31
5.0
210
-1.0
220
0.0000000107989628
230
0.0
  0
LINE
  5
540
  8
A-DETL-___4
 10
130.7650953227193895
 20
198.2909882199500942
 30
0.0
 11
135.7650926013847936
 21
198.2909882199500942
 31
0.0
210
-0.0000000000000001
220
-1.0
230
0.0
  0
LINE
  5
541
  8
A-DETL-___4
 10
135.7650926013847936
 20
198.2909882199500942
 30
0.0
 11
135.7650926013847936
 21
198.2909882199500942
 31
5.0
210
-0.0000000000000001
220
-1.0
230
0.0
  0
LINE
  5
542
  8
A-DETL-___4
 10
130.7650953227193895
 20
198.2909882199500942
 30
5.0
 11
135.7650926013847936
 21
198.2909882199500942
 31
5.0
210
-0.0000000000000001
220
-1.0
230
0.0
  0
LINE
  5
543
  8
A-DETL-___4
 10
130.7650953227193895
 20
198.2909882199500942
 30
0.0
 11
130.7650953227193895
 21
198.2909882199500942
 31
5.0
210
-0.0000000000000001
220
-1.0
230
0.0
  0
LINE
  5
544
  8
A-DETL-___4
 10
130.7650953227193895
 20
218.2909882199492131
 30
0.0
 11
130.7650953227193895
 21
198.2909882199500942
 31
0.0
210
-1.0
220
0.0000000000000001
230
0.0
  0
LINE
  5
545
  8
A-DETL-___4
 10
130.7650953227193895
 20
198.2909882199500942
 30
0.0
 11
130.7650953227193895
 21
198.2909882199500942
 31
5.0
210
-1.0
220
0.0000000000000001
230
0.0
  0
LINE
  5
546
  8
A-DETL-___4
 10
130.7650953227193895
 20
218.2909882199492131
 30
5.0
 11
130.7650953227193895
 21
198.2909882199500942
 31
5.0
210
-1.0
220
0.0000000000000001
230
0.0
  0
LINE
  5
547
  8
A-DETL-___4
 10
130.7650953227193895
 20
218.2909882199492131
 30
0.0
 11
130.7650953227193895
 21
218.2909882199492131
 31
5.0
210
-1.0
220
0.0000000000000001
230
0.0
  0
LINE
  5
548
  8
A-DETL-___4
 10
135.7650945452014071
 20
218.2909882199492131
 30
0.0
 11
130.7650953227193895
 21
218.2909882199492131
 31
0.0
210
0.0000000000000001
220
1.0
230
0.0
  0
LINE
  5
549
  8
A-DETL-___4
 10
130.7650953227193895
 20
218.2909882199492131
 30
0.0
 11
130.7650953227193895
 21
218.2909882199492131
 31
5.0
210
0.0000000000000001
220
1.0
230
0.0
  0
LINE
  5
54A
  8
A-DETL-___4
 10
135.7650945452014071
 20
218.2909882199492131
 30
5.0
 11
130.7650953227193895
 21
218.2909882199492131
 31
5.0
210
0.0000000000000001
220
1.0
230
0.0
  0
LINE
  5
54B
  8
A-DETL-___4
 10
135.7650945452014071
 20
218.2909882199492131
 30
0.0
 11
135.7650945452014071
 21
218.2909882199492131
 31
5.0
210
0.0000000000000001
220
1.0
230
0.0
  0
LINE
  5
54C
  8
A-DETL-___4
 10
135.7650954425216128
 20
301.3840962220173765
 30
0.0
 11
135.7650945452014071
 21
218.2909882199492131
 31
0.0
210
-1.0
220
0.0000000107989618
230
0.0
  0
LINE
  5
54D
  8
A-DETL-___4
 10
135.7650945452014071
 20
218.2909882199492131
 30
0.0
 11
135.7650945452014071
 21
218.2909882199492131
 31
5.0
210
-1.0
220
0.0000000107989618
230
0.0
  0
LINE
  5
54E
  8
A-DETL-___4
 10
135.7650954425216128
 20
301.3840962220173765
 30
5.0
 11
135.7650945452014071
 21
218.2909882199492131
 31
5.0
210
-1.0
220
0.0000000107989618
230
0.0
  0
LINE
  5
54F
  8
A-DETL-___4
 10
135.7650954425216128
 20
301.3840962220173765
 30
0.0
 11
135.7650954425216128
 21
301.3840962220173765
 31
5.0
210
-1.0
220
0.0000000107989618
230
0.0
  0
ARC
  5
550
  8
A-DETL-___4
 10
137.765095449768495
 20
301.3879632608141037
 30
0.0
 40
2.0000037457398472
 50
0.1109968889374659
 51
180.110782362675792
  0
LINE
  5
551
  8
A-DETL-___4
 10
135.7650954425216128
 20
301.3840962220173765
 30
0.0
 11
135.7650954425216128
 21
301.3840962220173765
 31
5.0
  0
ARC
  5
552
  8
A-DETL-___4
 10
137.765095449768495
 20
301.3879632608141037
 30
5.0
 40
2.0000037457398472
 50
0.1109968889374659
 51
180.110782362675792
  0
LINE
  5
553
  8
A-DETL-___4
 10
139.7650954425216128
 20
301.3918377879900277
 30
0.0
 11
139.7650954425216128
 21
301.3918377879900277
 31
5.0
  0
LINE
  5
554
  8
A-DETL-___4
 10
139.7650954425197938
 20
296.2910075526605738
 30
0.0
 11
139.7650954425216128
 21
301.3918377879900277
 31
0.0
210
1.0
220
-0.0000000000003567
230
0.0
  0
LINE
  5
555
  8
A-DETL-___4
 10
139.7650954425216128
 20
301.3918377879900277
 30
0.0
 11
139.7650954425216128
 21
301.3918377879900277
 31
5.0
210
1.0
220
-0.0000000000003567
230
0.0
  0
LINE
  5
556
  8
A-DETL-___4
 10
139.7650954425197938
 20
296.2910075526605738
 30
5.0
 11
139.7650954425216128
 21
301.3918377879900277
 31
5.0
210
1.0
220
-0.0000000000003567
230
0.0
  0
LINE
  5
557
  8
A-DETL-___4
 10
139.7650954425197938
 20
296.2910075526605738
 30
0.0
 11
139.7650954425197938
 21
296.2910075526605738
 31
5.0
210
1.0
220
-0.0000000000003567
230
0.0
  0
LINE
  5
558
  8
A-DETL-___4
 10
153.7650954425189127
 20
296.2910075526615969
 30
0.0
 11
139.7650954425197938
 21
296.2910075526605738
 31
0.0
210
0.0000000000000001
220
1.0
230
0.0
  0
LINE
  5
559
  8
A-DETL-___4
 10
139.7650954425197938
 20
296.2910075526605738
 30
0.0
 11
139.7650954425197938
 21
296.2910075526605738
 31
5.0
210
0.0000000000000001
220
1.0
230
0.0
  0
LINE
  5
55A
  8
A-DETL-___4
 10
153.7650954425189127
 20
296.2910075526615969
 30
5.0
 11
139.7650954425197938
 21
296.2910075526605738
 31
5.0
210
0.0000000000000001
220
1.0
230
0.0
  0
LINE
  5
55B
  8
A-DETL-___4
 10
153.7650954425189127
 20
296.2910075526615969
 30
0.0
 11
153.7650954425189127
 21
296.2910075526615969
 31
5.0
210
0.0000000000000001
220
1.0
230
0.0
  0
ARC
  5
55C
  8
A-DETL-___4
 10
-153.7650954425197938
 20
298.2910075526605738
 30
0.0
 40
1.999999999999575
210
0.0
220
0.0
230
-1.0
 50
172.7566694748996099
 51
270.0000000000260911
  0
LINE
  5
55D
  8
A-DETL-___4
 10
153.7650954425189127
 20
296.2910075526615969
 30
0.0
 11
153.7650954425189127
 21
296.2910075526615969
 31
5.0
  0
ARC
  5
55E
  8
A-DETL-___4
 10
-153.7650954425197938
 20
298.2910075526605738
 30
-5.0
 40
1.999999999999575
210
0.0
220
0.0
230
-1.0
 50
172.7566694748996099
 51
270.0000000000260911
  0
LINE
  5
55F
  8
A-DETL-___4
 10
155.7491347086416056
 20
298.5431745419464278
 30
0.0
 11
155.7491347086416056
 21
298.5431745419464278
 31
5.0
  0
ARC
  5
560
  8
A-DETL-___4
 10
157.7336916685634947
 20
298.7912343589759985
 30
0.0
 40
1.999999999999335
 50
90.8996888264241392
 51
187.1247376834041063
  0
LINE
  5
561
  8
A-DETL-___4
 10
155.7491347086416056
 20
298.5431745419464278
 30
0.0
 11
155.7491347086416056
 21
298.5431745419464278
 31
5.0
  0
ARC
  5
562
  8
A-DETL-___4
 10
157.7336916685634947
 20
298.7912343589759985
 30
5.0
 40
1.999999999999335
 50
90.8996888264241392
 51
187.1247376834041063
  0
LINE
  5
563
  8
A-DETL-___4
 10
157.7022878946071955
 20
300.7909877945222092
 30
0.0
 11
157.7022878946071955
 21
300.7909877945222092
 31
5.0
  0
LINE
  5
564
  8
A-DETL-___4
 10
213.7650954425199075
 20
300.7909877945240282
 30
0.0
 11
157.7022878946071955
 21
300.7909877945222092
 31
0.0
210
-0.0000000000000162
220
1.0
230
0.0
  0
LINE
  5
565
  8
A-DETL-___4
 10
157.7022878946071955
 20
300.7909877945222092
 30
0.0
 11
157.7022878946071955
 21
300.7909877945222092
 31
5.0
210
-0.0000000000000162
220
1.0
230
0.0
  0
LINE
  5
566
  8
A-DETL-___4
 10
213.7650954425199075
 20
300.7909877945240282
 30
5.0
 11
157.7022878946071955
 21
300.7909877945222092
 31
5.0
210
-0.0000000000000162
220
1.0
230
0.0
  0
LINE
  5
567
  8
A-DETL-___4
 10
213.7650954425199075
 20
300.7909877945240282
 30
0.0
 11
213.7650954425199075
 21
300.7909877945240282
 31
5.0
210
-0.0000000000000162
220
1.0
230
0.0
  0
ARC
  5
568
  8
A-DETL-___4
 10
213.7650954425189127
 20
298.7909877945231187
 30
0.0
 40
2.0000000000009091
 50
0.0
 51
90.0000000000521254
  0
LINE
  5
569
  8
A-DETL-___4
 10
213.7650954425199075
 20
300.7909877945240282
 30
0.0
 11
213.7650954425199075
 21
300.7909877945240282
 31
5.0
  0
ARC
  5
56A
  8
A-DETL-___4
 10
213.7650954425189127
 20
298.7909877945231187
 30
5.0
 40
2.0000000000009091
 50
0.0
 51
90.0000000000521254
  0
LINE
  5
56B
  8
A-DETL-___4
 10
215.7650954425199075
 20
298.7909877945202766
 30
0.0
 11
215.7650954425199075
 21
298.7909877945202766
 31
5.0
  0
LINE
  5
56C
  8
A-DETL-___4
 10
215.7650954425079988
 20
290.5409882199509752
 30
0.0
 11
215.7650954425199075
 21
298.7909877945202766
 31
0.0
210
1.0
220
-0.0000000000014332
230
0.0
  0
LINE
  5
56D
  8
A-DETL-___4
 10
215.7650954425199075
 20
298.7909877945202766
 30
0.0
 11
215.7650954425199075
 21
298.7909877945202766
 31
5.0
210
1.0
220
-0.0000000000014332
230
0.0
  0
LINE
  5
56E
  8
A-DETL-___4
 10
215.7650954425079988
 20
290.5409882199509752
 30
5.0
 11
215.7650954425199075
 21
298.7909877945202766
 31
5.0
210
1.0
220
-0.0000000000014332
230
0.0
  0
LINE
  5
56F
  8
A-DETL-___4
 10
215.7650954425079988
 20
290.5409882199509752
 30
0.0
 11
215.7650954425079988
 21
290.5409882199509752
 31
5.0
210
1.0
220
-0.0000000000014332
230
0.0
  0
LINE
  5
570
  8
A-DETL-___4
 10
175.7650954425079988
 20
290.5409882199509752
 30
0.0
 11
215.7650954425079988
 21
290.5409882199509752
 31
0.0
210
-0.0000000000000001
220
-1.0
230
0.0
  0
LINE
  5
571
  8
A-DETL-___4
 10
215.7650954425079988
 20
290.5409882199509752
 30
0.0
 11
215.7650954425079988
 21
290.5409882199509752
 31
5.0
210
-0.0000000000000001
220
-1.0
230
0.0
  0
LINE
  5
572
  8
A-DETL-___4
 10
175.7650954425079988
 20
290.5409882199509752
 30
5.0
 11
215.7650954425079988
 21
290.5409882199509752
 31
5.0
210
-0.0000000000000001
220
-1.0
230
0.0
  0
LINE
  5
573
  8
A-DETL-___4
 10
175.7650954425079988
 20
290.5409882199509752
 30
0.0
 11
175.7650954425079988
 21
290.5409882199509752
 31
5.0
210
-0.0000000000000001
220
-1.0
230
0.0
  0
LINE
  5
574
  8
A-DETL-___4
 10
175.7650954425079988
 20
286.0409882199509752
 30
0.0
 11
175.7650954425079988
 21
290.5409882199509752
 31
0.0
210
1.0
220
-0.0000000000000001
230
0.0
  0
LINE
  5
575
  8
A-DETL-___4
 10
175.7650954425079988
 20
290.5409882199509752
 30
0.0
 11
175.7650954425079988
 21
290.5409882199509752
 31
5.0
210
1.0
220
-0.0000000000000001
230
0.0
  0
LINE
  5
576
  8
A-DETL-___4
 10
175.7650954425079988
 20
286.0409882199509752
 30
5.0
 11
175.7650954425079988
 21
290.5409882199509752
 31
5.0
210
1.0
220
-0.0000000000000001
230
0.0
  0
LINE
  5
577
  8
A-DETL-___4
 10
175.7650954425079988
 20
286.0409882199509752
 30
0.0
 11
175.7650954425079988
 21
286.0409882199509752
 31
5.0
210
1.0
220
-0.0000000000000001
230
0.0
  0
ARC
  5
578
  8
A-DETL-___4
 10
195.7650954425097893
 20
160.7909882199483036
 30
5.0
 40
7.5
 50
180.0
 51
0.0
  0
LINE
  5
579
  8
A-DETL-___4
 10
188.2650954425097893
 20
160.7909882199483036
 30
5.0
 11
188.2650954425097893
 21
175.7909882199492131
 31
5.0
  0
ARC
  5
57A
  8
A-DETL-___4
 10
195.7650954425097893
 20
175.7909882199492131
 30
5.0
 40
7.5
 50
0.0
 51
180.0
  0
LINE
  5
57B
  8
A-DETL-___4
 10
203.2650954425097893
 20
175.7909882199492131
 30
5.0
 11
203.2650954425097893
 21
160.7909882199483036
 31
5.0
  0
ARC
  5
57C
  8
A-DETL-___4
 10
195.7650954425097893
 20
255.7909882199519984
 30
5.0
 40
7.5
 50
0.0
 51
180.0
  0
LINE
  5
57D
  8
A-DETL-___4
 10
203.2650954425097893
 20
255.7909882199519984
 30
5.0
 11
203.2650954425097893
 21
240.7909882199510037
 31
5.0
  0
ARC
  5
57E
  8
A-DETL-___4
 10
195.7650954425097893
 20
240.7909882199510037
 30
5.0
 40
7.5
 50
180.0
 51
0.0
  0
LINE
  5
57F
  8
A-DETL-___4
 10
188.2650954425097893
 20
240.7909882199510037
 30
5.0
 11
188.2650954425097893
 21
255.7909882199519984
 31
5.0
  0
LINE
  5
580
  8
A-DETL-___4
 10
175.7650954425079988
 20
286.0409882199509752
 30
5.0
 11
175.7650954425079988
 21
290.5409882199509752
 31
5.0
  0
LINE
  5
581
  8
A-DETL-___4
 10
175.7650954425079988
 20
290.5409882199509752
 30
5.0
 11
215.7650954425079988
 21
290.5409882199509752
 31
5.0
  0
LINE
  5
582
  8
A-DETL-___4
 10
215.7650954425079988
 20
290.5409882199509752
 30
5.0
 11
215.7650954425199075
 21
298.7909877945202766
 31
5.0
  0
ARC
  5
583
  8
A-DETL-___4
 10
213.7650954425189127
 20
298.7909877945231187
 30
5.0
 40
2.0000000000009091
 50
0.0
 51
90.0000000000521254
  0
LINE
  5
584
  8
A-DETL-___4
 10
213.7650954425199075
 20
300.7909877945240282
 30
5.0
 11
157.7022878946071955
 21
300.7909877945222092
 31
5.0
  0
ARC
  5
585
  8
A-DETL-___4
 10
157.7336916685634947
 20
298.7912343589759985
 30
5.0
 40
1.999999999999335
 50
90.8996888264241392
 51
187.1247376834041063
  0
ARC
  5
586
  8
A-DETL-___4
 10
153.7650954425197938
 20
298.2910075526605738
 30
5.0
 40
1.999999999999575
 50
269.9999999999739089
 51
7.2433305251003759
  0
LINE
  5
587
  8
A-DETL-___4
 10
153.7650954425189127
 20
296.2910075526615969
 30
5.0
 11
139.7650954425197938
 21
296.2910075526605738
 31
5.0
  0
LINE
  5
588
  8
A-DETL-___4
 10
139.7650954425197938
 20
296.2910075526605738
 30
5.0
 11
139.7650954425216128
 21
301.3918377879900277
 31
5.0
  0
ARC
  5
589
  8
A-DETL-___4
 10
137.765095449768495
 20
301.3879632608141037
 30
5.0
 40
2.0000037457398472
 50
0.1109968889374659
 51
180.110782362675792
  0
LINE
  5
58A
  8
A-DETL-___4
 10
135.7650954425216128
 20
301.3840962220173765
 30
5.0
 11
135.7650945452014071
 21
218.2909882199492131
 31
5.0
  0
LINE
  5
58B
  8
A-DETL-___4
 10
135.7650945452014071
 20
218.2909882199492131
 30
5.0
 11
130.7650953227193895
 21
218.2909882199492131
 31
5.0
  0
LINE
  5
58C
  8
A-DETL-___4
 10
130.7650953227193895
 20
218.2909882199492131
 30
5.0
 11
130.7650953227193895
 21
198.2909882199500942
 31
5.0
  0
LINE
  5
58D
  8
A-DETL-___4
 10
130.7650953227193895
 20
198.2909882199500942
 30
5.0
 11
135.7650926013847936
 21
198.2909882199500942
 31
5.0
  0
LINE
  5
58E
  8
A-DETL-___4
 10
135.7650926013847936
 20
198.2909882199500942
 30
5.0
 11
135.7650917040236891
 21
115.1940132017516021
 31
5.0
  0
ARC
  5
58F
  8
A-DETL-___4
 10
137.7650954497640043
 20
115.194013180152993
 30
5.0
 40
2.0000037457402859
 50
180.0
 51
0.110997538152402
  0
LINE
  5
590
  8
A-DETL-___4
 10
139.7650954425153031
 20
115.1978877083920025
 30
5.0
 11
139.7650954425153031
 21
120.2909688872423004
 31
5.0
  0
LINE
  5
591
  8
A-DETL-___4
 10
139.7650954425153031
 20
120.2909688872423004
 30
5.0
 11
153.7650954425153031
 21
120.2909688872423004
 31
5.0
  0
ARC
  5
592
  8
A-DETL-___4
 10
153.7650954425162126
 20
118.2909688872431957
 30
5.0
 40
1.9999999999990901
 50
359.9999999999740226
 51
90.0000000000260485
  0
LINE
  5
593
  8
A-DETL-___4
 10
155.7650954425153031
 20
118.2909688872423004
 30
5.0
 11
155.7650954425153031
 21
117.790988645380807
 31
5.0
  0
ARC
  5
594
  8
A-DETL-___4
 10
157.7650954425143937
 20
117.7909886453798975
 30
5.0
 40
1.9999999999990901
 50
180.0
 51
270.0000000000521254
  0
LINE
  5
595
  8
A-DETL-___4
 10
157.7650954425153031
 20
115.790988645380807
 30
5.0
 11
213.7650954425153031
 21
115.7909886453798975
 31
5.0
  0
ARC
  5
596
  8
A-DETL-___4
 10
213.7650954425162126
 20
117.7909886453790023
 30
5.0
 40
1.9999999999990901
 50
269.9999999999739089
 51
0.0000000000260592
  0
LINE
  5
597
  8
A-DETL-___4
 10
215.7650954425153031
 20
117.7909886453798975
 30
5.0
 11
215.7650954425153031
 21
126.0409882199500942
 31
5.0
  0
LINE
  5
598
  8
A-DETL-___4
 10
215.7650954425153031
 20
126.0409882199500942
 30
5.0
 11
175.7650954425106988
 21
126.0409882199500942
 31
5.0
  0
LINE
  5
599
  8
A-DETL-___4
 10
175.7650954425106988
 20
126.0409882199500942
 30
5.0
 11
175.7650954425106988
 21
130.5409882199500942
 31
5.0
  0
LINE
  5
59A
  8
A-DETL-___4
 10
175.7650954425106988
 20
130.5409882199500942
 30
5.0
 11
215.7650954425089083
 21
130.5409882199500942
 31
5.0
  0
LINE
  5
59B
  8
A-DETL-___4
 10
215.7650954425089083
 20
130.5409882199500942
 30
5.0
 11
215.7650954425089083
 21
286.0409882199509752
 31
5.0
  0
LINE
  5
59C
  8
A-DETL-___4
 10
215.7650954425089083
 20
286.0409882199509752
 30
5.0
 11
175.7650954425079988
 21
286.0409882199509752
 31
5.0
  0
ARC
  5
59D
  8
A-DETL-___4
 10
-195.7650954425097893
 20
160.7909882199483036
 30
0.0
 40
7.5
210
0.0
220
0.0
230
-1.0
 50
180.0
 51
0.0
  0
LINE
  5
59E
  8
A-DETL-___4
 10
203.2650954425097893
 20
160.7909882199483036
 30
0.0
 11
203.2650954425097893
 21
175.7909882199492131
 31
0.0
210
0.0
220
0.0
230
-1.0
  0
ARC
  5
59F
  8
A-DETL-___4
 10
-195.7650954425097893
 20
175.7909882199492131
 30
0.0
 40
7.5
210
0.0
220
0.0
230
-1.0
 50
0.0
 51
180.0
  0
LINE
  5
5A0
  8
A-DETL-___4
 10
188.2650954425097893
 20
175.7909882199492131
 30
0.0
 11
188.2650954425097893
 21
160.7909882199483036
 31
0.0
210
0.0
220
0.0
230
-1.0
  0
ARC
  5
5A1
  8
A-DETL-___4
 10
-195.7650954425097893
 20
255.7909882199519984
 30
0.0
 40
7.5
210
0.0
220
0.0
230
-1.0
 50
0.0
 51
180.0
  0
LINE
  5
5A2
  8
A-DETL-___4
 10
188.2650954425097893
 20
255.7909882199519984
 30
0.0
 11
188.2650954425097893
 21
240.7909882199510037
 31
0.0
210
0.0
220
0.0
230
-1.0
  0
ARC
  5
5A3
  8
A-DETL-___4
 10
-195.7650954425097893
 20
240.7909882199510037
 30
0.0
 40
7.5
210
0.0
220
0.0
230
-1.0
 50
180.0
 51
0.0
  0
LINE
  5
5A4
  8
A-DETL-___4
 10
203.2650954425097893
 20
240.7909882199510037
 30
0.0
 11
203.2650954425097893
 21
255.7909882199519984
 31
0.0
210
0.0
220
0.0
230
-1.0
  0
LINE
  5
5A5
  8
A-DETL-___4
 10
175.7650954425079988
 20
286.0409882199509752
 30
0.0
 11
175.7650954425079988
 21
290.5409882199509752
 31
0.0
210
0.0
220
0.0
230
-1.0
  0
LINE
  5
5A6
  8
A-DETL-___4
 10
215.7650954425089083
 20
286.0409882199509752
 30
0.0
 11
175.7650954425079988
 21
286.0409882199509752
 31
0.0
210
0.0
220
0.0
230
-1.0
  0
LINE
  5
5A7
  8
A-DETL-___4
 10
215.7650954425089083
 20
130.5409882199500942
 30
0.0
 11
215.7650954425089083
 21
286.0409882199509752
 31
0.0
210
0.0
220
0.0
230
-1.0
  0
LINE
  5
5A8
  8
A-DETL-___4
 10
175.7650954425106988
 20
130.5409882199500942
 30
0.0
 11
215.7650954425089083
 21
130.5409882199500942
 31
0.0
210
0.0
220
0.0
230
-1.0
  0
LINE
  5
5A9
  8
A-DETL-___4
 10
175.7650954425106988
 20
126.0409882199500942
 30
0.0
 11
175.7650954425106988
 21
130.5409882199500942
 31
0.0
210
0.0
220
0.0
230
-1.0
  0
LINE
  5
5AA
  8
A-DETL-___4
 10
215.7650954425153031
 20
126.0409882199500942
 30
0.0
 11
175.7650954425106988
 21
126.0409882199500942
 31
0.0
210
0.0
220
0.0
230
-1.0
  0
LINE
  5
5AB
  8
A-DETL-___4
 10
215.7650954425153031
 20
117.7909886453798975
 30
0.0
 11
215.7650954425153031
 21
126.0409882199500942
 31
0.0
210
0.0
220
0.0
230
-1.0
  0
ARC
  5
5AC
  8
A-DETL-___4
 10
-213.7650954425162126
 20
117.7909886453790023
 30
0.0
 40
1.9999999999990901
210
0.0
220
0.0
230
-1.0
 50
179.9999999999739089
 51
270.0000000000259774
  0
LINE
  5
5AD
  8
A-DETL-___4
 10
157.7650954425153031
 20
115.790988645380807
 30
0.0
 11
213.7650954425153031
 21
115.7909886453798975
 31
0.0
210
0.0
220
0.0
230
-1.0
  0
ARC
  5
5AE
  8
A-DETL-___4
 10
-157.7650954425143937
 20
117.7909886453798975
 30
0.0
 40
1.9999999999990901
210
0.0
220
0.0
230
-1.0
 50
269.9999999999478746
 51
0.0
  0
LINE
  5
5AF
  8
A-DETL-___4
 10
155.7650954425153031
 20
118.2909688872423004
 30
0.0
 11
155.7650954425153031
 21
117.790988645380807
 31
0.0
210
0.0
220
0.0
230
-1.0
  0
ARC
  5
5B0
  8
A-DETL-___4
 10
-153.7650954425162126
 20
118.2909688872431957
 30
0.0
 40
1.9999999999990901
210
0.0
220
0.0
230
-1.0
 50
89.9999999999739515
 51
180.0000000000260059
  0
LINE
  5
5B1
  8
A-DETL-___4
 10
139.7650954425153031
 20
120.2909688872423004
 30
0.0
 11
153.7650954425153031
 21
120.2909688872423004
 31
0.0
210
0.0
220
0.0
230
-1.0
  0
LINE
  5
5B2
  8
A-DETL-___4
 10
139.7650954425153031
 20
115.1978877083920025
 30
0.0
 11
139.7650954425153031
 21
120.2909688872423004
 31
0.0
210
0.0
220
0.0
230
-1.0
  0
ARC
  5
5B3
  8
A-DETL-___4
 10
-137.7650954497640043
 20
115.194013180152993
 30
0.0
 40
2.0000037457402859
210
0.0
220
0.0
230
-1.0
 50
179.8890024618476104
 51
0.0
  0
LINE
  5
5B4
  8
A-DETL-___4
 10
135.7650926013847936
 20
198.2909882199500942
 30
0.0
 11
135.7650917040236891
 21
115.1940132017516021
 31
0.0
210
0.0
220
0.0
230
-1.0
  0
LINE
  5
5B5
  8
A-DETL-___4
 10
130.7650953227193895
 20
198.2909882199500942
 30
0.0
 11
135.7650926013847936
 21
198.2909882199500942
 31
0.0
210
0.0
220
0.0
230
-1.0
  0
LINE
  5
5B6
  8
A-DETL-___4
 10
130.7650953227193895
 20
218.2909882199492131
 30
0.0
 11
130.7650953227193895
 21
198.2909882199500942
 31
0.0
210
0.0
220
0.0
230
-1.0
  0
LINE
  5
5B7
  8
A-DETL-___4
 10
135.7650945452014071
 20
218.2909882199492131
 30
0.0
 11
130.7650953227193895
 21
218.2909882199492131
 31
0.0
210
0.0
220
0.0
230
-1.0
  0
LINE
  5
5B8
  8
A-DETL-___4
 10
135.7650954425216128
 20
301.3840962220173765
 30
0.0
 11
135.7650945452014071
 21
218.2909882199492131
 31
0.0
210
0.0
220
0.0
230
-1.0
  0
ARC
  5
5B9
  8
A-DETL-___4
 10
-137.765095449768495
 20
301.3879632608141037
 30
0.0
 40
2.0000037457398472
210
0.0
220
0.0
230
-1.0
 50
359.8892176373241796
 51
179.8890031110624932
  0
LINE
  5
5BA
  8
A-DETL-___4
 10
139.7650954425197938
 20
296.2910075526605738
 30
0.0
 11
139.7650954425216128
 21
301.3918377879900277
 31
0.0
210
0.0
220
0.0
230
-1.0
  0
LINE
  5
5BB
  8
A-DETL-___4
 10
153.7650954425189127
 20
296.2910075526615969
 30
0.0
 11
139.7650954425197938
 21
296.2910075526605738
 31
0.0
210
0.0
220
0.0
230
-1.0
  0
ARC
  5
5BC
  8
A-DETL-___4
 10
-153.7650954425197938
 20
298.2910075526605738
 30
0.0
 40
1.999999999999575
210
0.0
220
0.0
230
-1.0
 50
172.7566694748996099
 51
270.0000000000260911
  0
ARC
  5
5BD
  8
A-DETL-___4
 10
-157.7336916685634947
 20
298.7912343589759985
 30
0.0
 40
1.999999999999335
210
0.0
220
0.0
230
-1.0
 50
352.8752623165959221
 51
89.100311173575804
  0
LINE
  5
5BE
  8
A-DETL-___4
 10
213.7650954425199075
 20
300.7909877945240282
 30
0.0
 11
157.7022878946071955
 21
300.7909877945222092
 31
0.0
210
0.0
220
0.0
230
-1.0
  0
ARC
  5
5BF
  8
A-DETL-___4
 10
-213.7650954425189127
 20
298.7909877945231187
 30
0.0
 40
2.0000000000009091
210
0.0
220
0.0
230
-1.0
 50
89.9999999999478888
 51
180.0
  0
LINE
  5
5C0
  8
A-DETL-___4
 10
215.7650954425079988
 20
290.5409882199509752
 30
0.0
 11
215.7650954425199075
 21
298.7909877945202766
 31
0.0
210
0.0
220
0.0
230
-1.0
  0
LINE
  5
5C1
  8
A-DETL-___4
 10
175.7650954425079988
 20
290.5409882199509752
 30
0.0
 11
215.7650954425079988
 21
290.5409882199509752
 31
0.0
210
0.0
220
0.0
230
-1.0
  0
ENDBLK
  5
5C3
  8
0
  0
BLOCK
  8
0
  2
*U8
 70
     1
 10
0.0
 20
0.0
 30
0.0
  3
*U8
  1

  0
TEXT
  5
5C5
  8
0
 62
     0
 10
175.2137960129720966
 20
208.2009882199488118
 30
0.0
 40
0.18
  1
185.0000
 50
359.9999999999990905
  0
ENDBLK
  5
5C7
  8
0
  0
ENDSEC
  0
SECTION
  2
ENTITIES
  0
INSERT
  5
FD
  8
0
  2
*U7
 10
0.0
 20
0.0
 30
0.0
  0
DIMENSION
  5
133
  8
0
  2
*D3
 10
175.7537960129687917
 20
115.7909886453804944
 30
5.0
 11
175.7537960129687917
 21
208.2909882199516005
 31
5.0
 70
     0
 51
0.000000000000916
 13
175.7537960129654948
 23
300.7909877945227208
 33
0.0
 14
175.753796012967598
 24
115.7909886453804944
 34
0.0
 50
269.999999999998181
  0
VIEWPORT
  5
4A
 67
     1
  8
0
 10
17.2475949928635508
 20
11.4974566955933408
 30
0.0
 40
36.3373219673022589
 41
27.1250431586904206
 68
     1
 69
     1
1001
ACAD
1000
MVIEW
1002
{
1070
    16
1010
0.0
1020
0.0
1030
0.0
1010
0.0
1020
0.0
1030
1.0
1040
0.0
1040
27.1250431586904206
1040
17.2475949928635508
1040
11.4974566955933408
1040
50.0
1040
0.0
1040
0.0
1070
     0
1070
  1000
1070
     1
1070
     3
1070
     0
1070
     0
1070
     0
1070
     0
1040
0.0
1040
0.0
1040
0.0
1040
0.5
1040
0.5
1040
0.5
1040
0.5
1070
     0
1002
{
1002
}
1002
}
  0
ENDSEC
  0
EOF
