  0
SECTION
  2
HEADER
  9
$ACADVER
  1
AC1009
  9
$INSBASE
 10
0.0
 20
0.0
 30
0.0
  9
$EXTMIN
 10
4.4328794459360656
 20
-8.3703378176866838
 30
0.0
  9
$EXTMAX
 10
191.3391003304305116
 20
170.7721391887261859
 30
0.0
  9
$LIMMIN
 10
0.0
 20
0.0
  9
$LIMMAX
 10
12.0
 20
9.0
  9
$ORTHOMODE
 70
     0
  9
$REGENMODE
 70
     1
  9
$FILLMODE
 70
     1
  9
$QTEXTMODE
 70
     0
  9
$MIRRTEXT
 70
     0
  9
$DRAGMODE
 70
     2
  9
$LTSCALE
 40
1.0
  9
$OSMODE
 70
    37
  9
$ATTMODE
 70
     1
  9
$TEXTSIZE
 40
0.2
  9
$TRACEWID
 40
0.05
  9
$TEXTSTYLE
  7
STANDARD
  9
$CLAYER
  8
0
  9
$CELTYPE
  6
BYLAYER
  9
$CECOLOR
 62
   256
  9
$DIMSCALE
 40
1.0
  9
$DIMASZ
 40
0.18
  9
$DIMEXO
 40
0.0625
  9
$DIMDLI
 40
0.38
  9
$DIMRND
 40
0.0
  9
$DIMDLE
 40
0.0
  9
$DIMEXE
 40
0.18
  9
$DIMTP
 40
0.0
  9
$DIMTM
 40
0.0
  9
$DIMTXT
 40
0.18
  9
$DIMCEN
 40
0.09
  9
$DIMTSZ
 40
0.0
  9
$DIMTOL
 70
     0
  9
$DIMLIM
 70
     0
  9
$DIMTIH
 70
     1
  9
$DIMTOH
 70
     1
  9
$DIMSE1
 70
     0
  9
$DIMSE2
 70
     0
  9
$DIMTAD
 70
     0
  9
$DIMZIN
 70
     0
  9
$DIMBLK
  1

  9
$DIMASO
 70
     1
  9
$DIMSHO
 70
     1
  9
$DIMPOST
  1

  9
$DIMAPOST
  1

  9
$DIMALT
 70
     0
  9
$DIMALTD
 70
     2
  9
$DIMALTF
 40
25.3999999999999986
  9
$DIMLFAC
 40
1.0
  9
$DIMTOFL
 70
     0
  9
$DIMTVP
 40
0.0
  9
$DIMTIX
 70
     0
  9
$DIMSOXD
 70
     0
  9
$DIMSAH
 70
     0
  9
$DIMBLK1
  1

  9
$DIMBLK2
  1

  9
$DIMSTYLE
  2
STANDARD
  9
$DIMCLRD
 70
     0
  9
$DIMCLRE
 70
     0
  9
$DIMCLRT
 70
     0
  9
$DIMTFAC
 40
1.0
  9
$DIMGAP
 40
0.09
  9
$LUNITS
 70
     2
  9
$LUPREC
 70
     4
  9
$SKETCHINC
 40
0.1
  9
$FILLETRAD
 40
0.0
  9
$AUNITS
 70
     0
  9
$AUPREC
 70
     0
  9
$MENU
  1
.
  9
$ELEVATION
 40
0.0
  9
$PELEVATION
 40
0.0
  9
$THICKNESS
 40
0.0
  9
$LIMCHECK
 70
     0
  9
$BLIPMODE
 70
     0
  9
$CHAMFERA
 40
0.0
  9
$CHAMFERB
 40
0.0
  9
$SKPOLY
 70
     0
  9
$TDCREATE
 40
2459148.4702546298503876
  9
$TDUPDATE
 40
2459148.9698379631154239
  9
$TDINDWG
 40
0.4995833333
  9
$TDUSRTIMER
 40
0.4995833333
  9
$USRTIMER
 70
     1
  9
$ANGBASE
 50
0.0
  9
$ANGDIR
 70
     0
  9
$PDMODE
 70
     0
  9
$PDSIZE
 40
0.0
  9
$PLINEWID
 40
0.0
  9
$COORDS
 70
     1
  9
$SPLFRAME
 70
     0
  9
$SPLINETYPE
 70
     6
  9
$SPLINESEGS
 70
     8
  9
$ATTDIA
 70
     1
  9
$ATTREQ
 70
     1
  9
$HANDLING
 70
     1
  9
$HANDSEED
  5
704
  9
$SURFTAB1
 70
     6
  9
$SURFTAB2
 70
     6
  9
$SURFTYPE
 70
     6
  9
$SURFU
 70
     6
  9
$SURFV
 70
     6
  9
$UCSNAME
  2

  9
$UCSORG
 10
0.0
 20
0.0
 30
0.0
  9
$UCSXDIR
 10
1.0
 20
0.0
 30
0.0
  9
$UCSYDIR
 10
0.0
 20
1.0
 30
0.0
  9
$PUCSNAME
  2

  9
$PUCSORG
 10
0.0
 20
0.0
 30
0.0
  9
$PUCSXDIR
 10
1.0
 20
0.0
 30
0.0
  9
$PUCSYDIR
 10
0.0
 20
1.0
 30
0.0
  9
$USERI1
 70
     0
  9
$USERI2
 70
     0
  9
$USERI3
 70
     0
  9
$USERI4
 70
     0
  9
$USERI5
 70
     0
  9
$USERR1
 40
0.0
  9
$USERR2
 40
0.0
  9
$USERR3
 40
0.0
  9
$USERR4
 40
0.0
  9
$USERR5
 40
0.0
  9
$WORLDVIEW
 70
     1
  9
$SHADEDGE
 70
     3
  9
$SHADEDIF
 70
    70
  9
$TILEMODE
 70
     1
  9
$MAXACTVP
 70
    64
  9
$PLIMCHECK
 70
     0
  9
$PEXTMIN
 10
0.0
 20
0.0
 30
0.0
  9
$PEXTMAX
 10
0.0
 20
0.0
 30
0.0
  9
$PLIMMIN
 10
0.0
 20
0.0
  9
$PLIMMAX
 10
12.0
 20
9.0
  9
$UNITMODE
 70
     0
  9
$VISRETAIN
 70
     1
  9
$PLINEGEN
 70
     0
  9
$PSLTSCALE
 70
     1
  0
ENDSEC
  0
SECTION
  2
TABLES
  0
TABLE
  2
VPORT
 70
     1
  0
VPORT
  2
*ACTIVE
 70
     0
 10
0.0
 20
0.0
 11
1.0
 21
1.0
 12
0.0
 22
0.0
 13
0.0
 23
0.0
 14
0.5
 24
0.5
 15
0.5
 25
0.5
 16
0.0
 26
0.0
 36
295.5272655924852074
 17
93.6785417178492708
 27
76.7086149421012209
 37
0.0
 40
142.7261441918107039
 41
1.4230769230769229
 42
49.9999999999999076
 43
0.0
 44
0.0
 50
0.0
 51
270.0
 71
     0
 72
  1000
 73
     1
 74
     3
 75
     0
 76
     1
 77
     0
 78
     0
  0
ENDTAB
  0
TABLE
  2
LTYPE
 70
     2
  0
LTYPE
  2
CONTINUOUS
 70
     0
  3
Solid line
 72
    65
 73
     0
 40
0.0
  0
ENDTAB
  0
TABLE
  2
LAYER
 70
     3
  0
LAYER
  2
0
 70
     0
 62
   254
  6
CONTINUOUS
  0
LAYER
  2
DEFPOINTS
 70
     0
 62
     7
  6
CONTINUOUS
  0
LAYER
  2
A-DETL-___2
 70
     0
 62
     2
  6
CONTINUOUS
  0
ENDTAB
  0
TABLE
  2
STYLE
 70
     2
  0
STYLE
  2
STANDARD
 70
     0
 40
0.0
 41
1.0
 50
0.0
 71
     0
 42
0.2
  3
txt
  4

  0
STYLE
  2
ANNOTATIVE
 70
     0
 40
0.0
 41
1.0
 50
0.0
 71
     0
 42
0.2
  3
txt
  4

  0
ENDTAB
  0
TABLE
  2
VIEW
 70
     5
  0
ENDTAB
  0
TABLE
  2
UCS
 70
     0
  0
ENDTAB
  0
TABLE
  2
APPID
 70
    13
  0
APPID
  2
ACAD
 70
     0
  0
APPID
  2
ACADANNOPO
 70
     0
  0
APPID
  2
ACADANNOTATIVE
 70
     0
  0
APPID
  2
ACAD_DSTYLE_DIMJAG
 70
     0
  0
APPID
  2
ACAD_DSTYLE_DIMTALN
 70
     0
  0
APPID
  2
ACAD_MLEADERVER
 70
     0
  0
APPID
  2
ACAD_NAV_VCDISPLAY
 70
     0
  0
APPID
  2
ACAECLAYERSTANDARD
 70
     0
  0
APPID
  2
RAK
 70
     0
  0
APPID
  2
ACAD_PSEXT
 70
     0
  0
APPID
  2
ACDBDYNAMICBLOCKGUID
 70
     0
  0
APPID
  2
ACAUTHENVIRON
 70
     0
  0
APPID
  2
ACDBDYNAMICBLOCKTRUENAME
 70
     0
  0
ENDTAB
  0
TABLE
  2
DIMSTYLE
 70
     3
  0
DIMSTYLE
  2
STANDARD
 70
     0
  3

  4

  5

  6

  7

 40
1.0
 41
0.18
 42
0.0625
 43
0.38
 44
0.18
 45
0.0
 46
0.0
 47
0.0
 48
0.0
140
0.18
141
0.09
142
0.0
143
25.3999999999999986
144
1.0
145
0.0
146
1.0
147
0.09
 71
     0
 72
     0
 73
     1
 74
     1
 75
     0
 76
     0
 77
     0
 78
     0
170
     0
171
     2
172
     0
173
     0
174
     0
175
     0
176
     0
177
     0
178
     0
  0
DIMSTYLE
  2
ANNOTATIVE
 70
     0
  3

  4

  5

  6

  7

 40
0.0
 41
0.18
 42
0.0625
 43
0.38
 44
0.18
 45
0.0
 46
0.0
 47
0.0
 48
0.0
140
0.18
141
0.09
142
0.0
143
25.3999999999999986
144
1.0
145
0.0
146
1.0
147
0.09
 71
     0
 72
     0
 73
     1
 74
     1
 75
     0
 76
     0
 77
     0
 78
     0
170
     0
171
     2
172
     0
173
     0
174
     0
175
     0
176
     0
177
     0
178
     0
  0
ENDTAB
  0
ENDSEC
  0
SECTION
  2
BLOCKS
  0
BLOCK
  8
0
  2
$MODEL_SPACE
 70
     0
 10
0.0
 20
0.0
 30
0.0
  3
$MODEL_SPACE
  1

  0
ENDBLK
  5
21
  8
0
  0
BLOCK
 67
     1
  8
0
  2
$PAPER_SPACE
 70
     0
 10
0.0
 20
0.0
 30
0.0
  3
$PAPER_SPACE
  1

  0
ENDBLK
  5
76
 67
     1
  8
0
  0
BLOCK
  8
0
  2
MOTOR_MOUNT_26MM
 70
     0
 10
0.0
 20
0.0
 30
0.0
  3
MOTOR_MOUNT_26MM
  1

  0
CIRCLE
  5
2B4
  8
A-DETL-___2
 10
-11.5
 20
-11.5
 30
0.0
 40
1.6000000000000001
  0
CIRCLE
  5
2B5
  8
A-DETL-___2
 10
0.0
 20
0.0
 30
0.0
 40
11.5
  0
CIRCLE
  5
2B6
  8
A-DETL-___2
 10
-11.5
 20
11.5
 30
0.0
 40
1.6000000000000001
  0
CIRCLE
  5
2B7
  8
A-DETL-___2
 10
11.5
 20
11.5
 30
0.0
 40
1.6000000000000001
  0
CIRCLE
  5
2B8
  8
A-DETL-___2
 10
11.5
 20
-11.5
 30
0.0
 40
1.6000000000000001
  0
ENDBLK
  5
2B9
  8
0
  0
BLOCK
  8
0
  2
*D4
 70
     1
 10
0.0
 20
0.0
 30
0.0
  3
*D4
  1

  0
LINE
  5
4AF
  8
0
 62
     0
 10
76.4328794459342333
 20
6.7096391887250908
 30
0.0
 11
76.4328794459342333
 21
-8.3703378176866821
 31
0.0
  0
LINE
  5
4B0
  8
0
 62
     0
 10
58.4328794459341978
 20
10.7096391887239406
 30
0.0
 11
58.4328794459341978
 21
-8.3703378176866838
 31
0.0
  0
LINE
  5
4B1
  8
0
 62
     0
 10
76.2528794459342407
 20
-8.1903378176866823
 30
0.0
 11
67.9575315605317627
 21
-8.1903378176866823
 31
0.0
  0
LINE
  5
4B2
  8
0
 62
     0
 10
58.6128794459342117
 20
-8.1903378176866823
 30
0.0
 11
66.9082273313366755
 21
-8.1903378176866823
 31
0.0
  0
SOLID
  5
4B3
  8
0
 62
     0
 10
76.2528794459342407
 20
-8.1603378176866812
 30
0.0
 11
76.2528794459342407
 21
-8.2203378176866817
 31
0.0
 12
76.4328794459342333
 22
-8.1903378176866823
 32
0.0
 13
76.4328794459342333
 23
-8.1903378176866823
 33
0.0
  0
SOLID
  5
4B4
  8
0
 62
     0
 10
58.6128794459342117
 20
-8.1603378176866812
 30
0.0
 11
58.6128794459342117
 21
-8.2203378176866817
 31
0.0
 12
58.4328794459341978
 22
-8.1903378176866823
 32
0.0
 13
58.4328794459341978
 23
-8.1903378176866823
 33
0.0
  0
INSERT
  5
4B5
  8
0
  2
*U11
 10
0.0
 20
0.0
 30
0.0
  0
POINT
  5
4B6
  8
DEFPOINTS
 62
     0
 10
76.4328794459342333
 20
6.7721391887250908
 30
0.0
  0
POINT
  5
4B7
  8
DEFPOINTS
 62
     0
 10
58.4328794459341978
 20
10.7721391887239406
 30
0.0
  0
POINT
  5
4B8
  8
DEFPOINTS
 62
     0
 10
58.4328794459341978
 20
-8.1903378176866823
 30
0.0
  0
ENDBLK
  5
460
  8
0
  0
BLOCK
  8
0
  2
*D5
 70
     1
 10
0.0
 20
0.0
 30
0.0
  3
*D5
  1

  0
LINE
  5
4B9
  8
0
 62
     0
 10
58.4953794459342475
 20
6.7721391887247862
 30
0.0
 11
70.7931735164675047
 21
6.7721391887247817
 31
0.0
  0
LINE
  5
4BA
  8
0
 62
     0
 10
76.3703794459342049
 20
10.7721391887239495
 30
0.0
 11
70.4331735164675194
 21
10.7721391887239495
 31
0.0
  0
LINE
  5
4BB
  8
0
 62
     0
 10
70.6131735164675121
 20
6.9521391887247823
 30
0.0
 11
70.6131735164675121
 21
8.5909113578921712
 31
0.0
  0
LINE
  5
4BC
  8
0
 62
     0
 10
70.6131735164675121
 20
10.5921391887239498
 30
0.0
 11
70.6131735164675121
 21
8.9533670195565644
 31
0.0
  0
SOLID
  5
4BD
  8
0
 62
     0
 10
70.5831735164675109
 20
6.9521391887247823
 30
0.0
 11
70.6431735164675132
 21
6.9521391887247823
 31
0.0
 12
70.6131735164675121
 22
6.7721391887247817
 32
0.0
 13
70.6131735164675121
 23
6.7721391887247817
 33
0.0
  0
SOLID
  5
4BE
  8
0
 62
     0
 10
70.5831735164675109
 20
10.5921391887239498
 30
0.0
 11
70.6431735164675132
 21
10.5921391887239498
 31
0.0
 12
70.6131735164675121
 22
10.7721391887239495
 32
0.0
 13
70.6131735164675121
 23
10.7721391887239495
 33
0.0
  0
INSERT
  5
4BF
  8
0
  2
*U12
 10
0.0
 20
0.0
 30
0.0
  0
POINT
  5
4C0
  8
DEFPOINTS
 62
     0
 10
58.4328794459342404
 20
6.7721391887247862
 30
0.0
  0
POINT
  5
4C1
  8
DEFPOINTS
 62
     0
 10
76.4328794459342049
 20
10.7721391887239495
 30
0.0
  0
POINT
  5
4C2
  8
DEFPOINTS
 62
     0
 10
70.6131735164675121
 20
10.7721391887239495
 30
0.0
  0
ENDBLK
  5
484
  8
0
  0
BLOCK
  8
0
  2
*D6
 70
     1
 10
0.0
 20
0.0
 30
0.0
  3
*D6
  1

  0
LINE
  5
4D2
  8
0
 62
     0
 10
70.7306735164675047
 20
6.7721391887247817
 30
0.0
 11
68.2537023767686719
 21
6.7721391887247826
 31
0.0
  0
LINE
  5
4D3
  8
0
 62
     0
 10
70.9306735164675217
 20
166.6526467935456139
 30
0.0
 11
68.2537023767687145
 21
166.6526467935456139
 31
0.0
  0
LINE
  5
4D4
  8
0
 62
     0
 10
68.4337023767686787
 20
6.9521391887247832
 30
0.0
 11
68.4337023767686929
 21
86.5311651603030327
 31
0.0
  0
LINE
  5
4D5
  8
0
 62
     0
 10
68.4337023767687214
 20
166.4726467935456071
 30
0.0
 11
68.4337023767686929
 21
86.8936208219674171
 31
0.0
  0
SOLID
  5
4D6
  8
0
 62
     0
 10
68.4037023767686776
 20
6.9521391887247832
 30
0.0
 11
68.4637023767686799
 21
6.9521391887247832
 31
0.0
 12
68.4337023767686787
 22
6.7721391887247826
 32
0.0
 13
68.4337023767686787
 23
6.7721391887247826
 33
0.0
  0
SOLID
  5
4D7
  8
0
 62
     0
 10
68.4037023767687202
 20
166.4726467935456071
 30
0.0
 11
68.4637023767687225
 21
166.4726467935456071
 31
0.0
 12
68.4337023767687214
 22
166.6526467935456139
 32
0.0
 13
68.4337023767687214
 23
166.6526467935456139
 33
0.0
  0
INSERT
  5
4D8
  8
0
  2
*U13
 10
0.0
 20
0.0
 30
0.0
  0
POINT
  5
4D9
  8
DEFPOINTS
 62
     0
 10
70.7931735164675047
 20
6.7721391887247817
 30
0.0
  0
POINT
  5
4DA
  8
DEFPOINTS
 62
     0
 10
70.9931735164675217
 20
166.6526467935456139
 30
0.0
  0
POINT
  5
4DB
  8
DEFPOINTS
 62
     0
 10
68.4337023767687214
 20
166.6526467935456139
 30
0.0
  0
ENDBLK
  5
4C6
  8
0
  0
BLOCK
  8
0
  2
*D7
 70
     1
 10
0.0
 20
0.0
 30
0.0
  3
*D7
  1

  0
LINE
  5
500
  8
0
 62
     0
 10
58.4328794459342404
 20
6.8346391887247862
 30
0.0
 11
58.4328794459342404
 21
22.3397323078550016
 31
0.0
  0
LINE
  5
501
  8
0
 62
     0
 10
114.4328794459359955
 20
10.8346391887253208
 30
0.0
 11
114.4328794459359955
 21
22.3397323078550016
 31
0.0
  0
LINE
  5
502
  8
0
 62
     0
 10
58.6128794459342402
 20
22.1597323078549984
 30
0.0
 11
85.8996325155122236
 21
22.1597323078549984
 31
0.0
  0
LINE
  5
503
  8
0
 62
     0
 10
114.2528794459360029
 20
22.1597323078549984
 30
0.0
 11
86.9661263763580763
 21
22.1597323078549984
 31
0.0
  0
SOLID
  5
504
  8
0
 62
     0
 10
58.6128794459342402
 20
22.1897323078550102
 30
0.0
 11
58.6128794459342402
 21
22.1297323078550008
 31
0.0
 12
58.4328794459342404
 22
22.1597323078549984
 32
0.0
 13
58.4328794459342404
 23
22.1597323078549984
 33
0.0
  0
SOLID
  5
505
  8
0
 62
     0
 10
114.2528794459360029
 20
22.1897323078550102
 30
0.0
 11
114.2528794459360029
 21
22.1297323078550008
 31
0.0
 12
114.4328794459359955
 22
22.1597323078549984
 32
0.0
 13
114.4328794459359955
 23
22.1597323078549984
 33
0.0
  0
INSERT
  5
506
  8
0
  2
*U14
 10
0.0
 20
0.0
 30
0.0
  0
POINT
  5
507
  8
DEFPOINTS
 62
     0
 10
58.4328794459342404
 20
6.7721391887247862
 30
0.0
  0
POINT
  5
508
  8
DEFPOINTS
 62
     0
 10
114.4328794459359955
 20
10.7721391887253208
 30
0.0
  0
POINT
  5
509
  8
DEFPOINTS
 62
     0
 10
114.4328794459359955
 20
22.1597323078549984
 30
0.0
  0
ENDBLK
  5
4F4
  8
0
  0
BLOCK
  8
0
  2
*D10
 70
     1
 10
0.0
 20
0.0
 30
0.0
  3
*D10
  1

  0
LINE
  5
537
  8
0
 62
     0
 10
103.9687208844958946
 20
22.363623907511549
 30
0.0
 11
104.6831116799810957
 21
22.363623907511549
 31
0.0
  0
LINE
  5
538
  8
0
 62
     0
 10
103.9687208844958946
 20
30.4500343115730914
 30
0.0
 11
104.6831116799810957
 21
30.4500343115730914
 31
0.0
  0
LINE
  5
539
  8
0
 62
     0
 10
104.5031116799810036
 20
22.5436239075115488
 30
0.0
 11
104.5031116799810036
 21
26.2256012787101191
 31
0.0
  0
LINE
  5
53A
  8
0
 62
     0
 10
104.5031116799810036
 20
30.2700343115730917
 30
0.0
 11
104.5031116799810036
 21
26.5880569403745213
 31
0.0
  0
SOLID
  5
53B
  8
0
 62
     0
 10
104.4731116799810025
 20
22.5436239075115488
 30
0.0
 11
104.5331116799810047
 21
22.5436239075115488
 31
0.0
 12
104.5031116799810036
 22
22.363623907511549
 32
0.0
 13
104.5031116799810036
 23
22.363623907511549
 33
0.0
  0
SOLID
  5
53C
  8
0
 62
     0
 10
104.4731116799810025
 20
30.2700343115730917
 30
0.0
 11
104.5331116799810047
 21
30.2700343115730917
 31
0.0
 12
104.5031116799810036
 22
30.4500343115730914
 32
0.0
 13
104.5031116799810036
 23
30.4500343115730914
 33
0.0
  0
INSERT
  5
53D
  8
0
  2
*U15
 10
0.0
 20
0.0
 30
0.0
  0
POINT
  5
53E
  8
DEFPOINTS
 62
     0
 10
103.9062208844958946
 20
22.363623907511549
 30
0.0
  0
POINT
  5
53F
  8
DEFPOINTS
 62
     0
 10
103.9062208844958946
 20
30.4500343115730914
 30
0.0
  0
POINT
  5
540
  8
DEFPOINTS
 62
     0
 10
104.5031116799810036
 20
30.4500343115730914
 30
0.0
  0
ENDBLK
  5
52B
  8
0
  0
BLOCK
  8
0
  2
*U11
 70
     1
 10
0.0
 20
0.0
 30
0.0
  3
*U11
  1

  0
TEXT
  5
6D6
  8
0
 62
     0
 10
66.9712150530283594
 20
-8.2791099868544862
 30
0.0
 40
0.18
  1
18.0000
  0
ENDBLK
  5
6D8
  8
0
  0
BLOCK
  8
0
  2
*U12
 70
     1
 10
0.0
 20
0.0
 30
0.0
  3
*U12
  1

  0
TEXT
  5
6DA
  8
0
 62
     0
 10
70.2337737893188034
 20
8.6833670195565773
 30
0.0
 40
0.18
  1
4.0000
  0
ENDBLK
  5
6DC
  8
0
  0
BLOCK
  8
0
  2
*U13
 70
     1
 10
0.0
 20
0.0
 30
0.0
  3
*U13
  1

  0
TEXT
  5
6DE
  8
0
 62
     0
 10
67.9008237955954144
 20
86.6236208219674353
 30
0.0
 40
0.18
  1
159.8805
  0
ENDBLK
  5
6E0
  8
0
  0
BLOCK
  8
0
  2
*U14
 70
     1
 10
0.0
 20
0.0
 30
0.0
  3
*U14
  1

  0
TEXT
  5
6E2
  8
0
 62
     0
 10
85.979809868854673
 20
22.0709601386872016
 30
0.0
 40
0.18
  1
56.0000
  0
ENDBLK
  5
6E4
  8
0
  0
BLOCK
  8
0
  2
*U15
 70
     1
 10
0.0
 20
0.0
 30
0.0
  3
*U15
  1

  0
TEXT
  5
701
  8
0
 62
     0
 10
104.1200284603357034
 20
26.3180569403745288
 30
0.0
 40
0.18
  1
8.0864
  0
ENDBLK
  5
703
  8
0
  0
ENDSEC
  0
SECTION
  2
ENTITIES
  0
CIRCLE
  5
301
  8
A-DETL-___2
 10
86.432879445935157
 20
108.7721391887262001
 30
0.0
 40
1.6000000000000001
  0
CIRCLE
  5
302
  8
A-DETL-___2
 10
86.432879445935157
 20
68.7721391887262286
 30
0.0
 40
1.6000000000000001
  0
CIRCLE
  5
303
  8
A-DETL-___2
 10
86.432879445935157
 20
148.7721391887261859
 30
0.0
 40
1.6000000000000001
  0
CIRCLE
  5
304
  8
A-DETL-___2
 10
86.432879445935157
 20
28.7721391887244096
 30
0.0
 40
1.6000000000000001
  0
POLYLINE
  5
305
  8
A-DETL-___2
 66
     1
 10
0.0
 20
0.0
 30
0.0
 70
     1
  0
VERTEX
  5
6AA
  8
A-DETL-___2
 10
58.4328794459360665
 20
98.7721391887256317
 30
0.0
  0
VERTEX
  5
6AB
  8
A-DETL-___2
 10
58.4328794459360665
 20
166.772139188725987
 30
0.0
  0
VERTEX
  5
6AC
  8
A-DETL-___2
 10
96.4328794459360665
 20
166.7721391887261859
 30
0.0
  0
VERTEX
  5
6AD
  8
A-DETL-___2
 10
96.4328794459342333
 20
170.7721391887261859
 30
0.0
  0
VERTEX
  5
6AE
  8
A-DETL-___2
 10
114.4328794459370044
 20
170.7721391887245943
 30
0.0
  0
VERTEX
  5
6AF
  8
A-DETL-___2
 10
114.4328794459359955
 20
78.772139188725518
 30
0.0
  0
VERTEX
  5
6B0
  8
A-DETL-___2
 10
114.4328794459359955
 20
78.7721391887262286
 30
0.0
  0
VERTEX
  5
6B1
  8
A-DETL-___2
 10
114.4328794459359955
 20
10.7721391887253208
 30
0.0
  0
VERTEX
  5
6B2
  8
A-DETL-___2
 10
76.4328794459342333
 20
10.7721391887239495
 30
0.0
  0
VERTEX
  5
6B3
  8
A-DETL-___2
 10
76.4328794459342333
 20
6.7721391887250908
 30
0.0
  0
VERTEX
  5
6B4
  8
A-DETL-___2
 10
58.4328794459342404
 20
6.7721391887247862
 30
0.0
  0
VERTEX
  5
6B5
  8
A-DETL-___2
 10
58.432879445933338
 20
98.7721391887261575
 30
0.0
  0
SEQEND
  5
6B6
  8
A-DETL-___2
  0
POLYLINE
  5
306
  8
A-DETL-___2
 66
     1
 10
0.0
 20
0.0
 30
0.0
 70
     1
  0
VERTEX
  5
6B7
  8
A-DETL-___2
 10
81.4328794459347023
 20
124.2721391887226048
 30
0.0
  0
VERTEX
  5
6B8
  8
A-DETL-___2
 10
81.4328794459347023
 20
133.2721391887234859
 30
0.0
 42
-0.4142135623730907
  0
VERTEX
  5
6B9
  8
A-DETL-___2
 10
85.4328794459347165
 20
137.2721391887234859
 30
0.0
  0
VERTEX
  5
6BA
  8
A-DETL-___2
 10
87.4328794459347023
 20
137.2721391887234859
 30
0.0
 42
-0.4142135623730951
  0
VERTEX
  5
6BB
  8
A-DETL-___2
 10
91.4328794459347023
 20
133.2721391887234859
 30
0.0
  0
VERTEX
  5
6BC
  8
A-DETL-___2
 10
91.4328794459347023
 20
124.2721391887226048
 30
0.0
 42
-0.4142135623730951
  0
VERTEX
  5
6BD
  8
A-DETL-___2
 10
87.4328794459347023
 20
120.2721391887226048
 30
0.0
  0
VERTEX
  5
6BE
  8
A-DETL-___2
 10
85.4328794459347165
 20
120.2721391887226048
 30
0.0
 42
-0.4142135623730907
  0
SEQEND
  5
6BF
  8
A-DETL-___2
  0
POLYLINE
  5
307
  8
A-DETL-___2
 66
     1
 10
0.0
 20
0.0
 30
0.0
 70
     1
  0
VERTEX
  5
6C0
  8
A-DETL-___2
 10
81.4328794459347023
 20
44.2721391887216811
 30
0.0
  0
VERTEX
  5
6C1
  8
A-DETL-___2
 10
81.4328794459347023
 20
53.2721391887225906
 30
0.0
 42
-0.4142135623730907
  0
VERTEX
  5
6C2
  8
A-DETL-___2
 10
85.4328794459347165
 20
57.2721391887225906
 30
0.0
  0
VERTEX
  5
6C3
  8
A-DETL-___2
 10
87.4328794459347023
 20
57.2721391887225906
 30
0.0
 42
-0.4142135623730951
  0
VERTEX
  5
6C4
  8
A-DETL-___2
 10
91.4328794459347023
 20
53.2721391887225906
 30
0.0
  0
VERTEX
  5
6C5
  8
A-DETL-___2
 10
91.4328794459347023
 20
44.2721391887216811
 30
0.0
 42
-0.4142135623730951
  0
VERTEX
  5
6C6
  8
A-DETL-___2
 10
87.4328794459347023
 20
40.2721391887216811
 30
0.0
  0
VERTEX
  5
6C7
  8
A-DETL-___2
 10
85.4328794459347165
 20
40.2721391887216811
 30
0.0
 42
-0.4142135623730907
  0
SEQEND
  5
6C8
  8
A-DETL-___2
  0
POLYLINE
  5
308
  8
A-DETL-___2
 66
     1
 10
0.0
 20
0.0
 30
0.0
 70
     1
  0
VERTEX
  5
6C9
  8
A-DETL-___2
 10
81.9328794459346881
 20
93.7721391887257738
 30
0.0
  0
VERTEX
  5
6CA
  8
A-DETL-___2
 10
90.9328794459355976
 20
93.7721391887257738
 30
0.0
 42
-0.4142135623730907
  0
VERTEX
  5
6CB
  8
A-DETL-___2
 10
94.9328794459356118
 20
89.7721391887257738
 30
0.0
  0
VERTEX
  5
6CC
  8
A-DETL-___2
 10
94.9328794459356118
 20
87.7721391887257738
 30
0.0
 42
-0.4142135623730951
  0
VERTEX
  5
6CD
  8
A-DETL-___2
 10
90.9328794459355976
 20
83.7721391887257738
 30
0.0
  0
VERTEX
  5
6CE
  8
A-DETL-___2
 10
81.9328794459346881
 20
83.7721391887257738
 30
0.0
 42
-0.4142135623730951
  0
VERTEX
  5
6CF
  8
A-DETL-___2
 10
77.9328794459347023
 20
87.7721391887257738
 30
0.0
  0
VERTEX
  5
6D0
  8
A-DETL-___2
 10
77.9328794459347023
 20
89.7721391887257738
 30
0.0
 42
-0.4142135623730907
  0
SEQEND
  5
6D1
  8
A-DETL-___2
  0
POLYLINE
  5
527
  8
A-DETL-___2
 66
     1
 10
0.0
 20
0.0
 30
0.0
 70
     1
  0
VERTEX
  5
6F7
  8
A-DETL-___2
 10
181.3391003304305116
 20
77.5384478971896556
 30
0.0
  0
VERTEX
  5
6F8
  8
A-DETL-___2
 10
181.3391003304305116
 20
86.5384478971905651
 30
0.0
 42
-0.4142135623730907
  0
VERTEX
  5
6F9
  8
A-DETL-___2
 10
185.3391003304305116
 20
90.5384478971905651
 30
0.0
  0
VERTEX
  5
6FA
  8
A-DETL-___2
 10
187.3391003304305116
 20
90.5384478971905651
 30
0.0
 42
-0.4142135623730951
  0
VERTEX
  5
6FB
  8
A-DETL-___2
 10
191.3391003304305116
 20
86.5384478971905651
 30
0.0
  0
VERTEX
  5
6FC
  8
A-DETL-___2
 10
191.3391003304305116
 20
77.5384478971896556
 30
0.0
 42
-0.4142135623730951
  0
VERTEX
  5
6FD
  8
A-DETL-___2
 10
187.3391003304305116
 20
73.5384478971896556
 30
0.0
  0
VERTEX
  5
6FE
  8
A-DETL-___2
 10
185.3391003304305116
 20
73.5384478971896556
 30
0.0
 42
-0.4142135623730907
  0
SEQEND
  5
6FF
  8
A-DETL-___2
  0
ENDSEC
  0
EOF
