  0
SECTION
  2
HEADER
  9
$ACADVER
  1
AC1009
  9
$INSBASE
 10
0.0
 20
0.0
 30
0.0
  9
$EXTMIN
 10
3714.7134139352710918
 20
4590.3398226222016092
 30
0.0
  9
$EXTMAX
 10
4064.9073668224928042
 20
4675.3398227419993418
 30
0.0
  9
$LIMMIN
 10
0.0
 20
0.0
  9
$LIMMAX
 10
12.0
 20
9.0
  9
$ORTHOMODE
 70
     0
  9
$REGENMODE
 70
     1
  9
$FILLMODE
 70
     1
  9
$QTEXTMODE
 70
     0
  9
$MIRRTEXT
 70
     0
  9
$DRAGMODE
 70
     2
  9
$LTSCALE
 40
1.0
  9
$OSMODE
 70
    37
  9
$ATTMODE
 70
     1
  9
$TEXTSIZE
 40
0.2
  9
$TRACEWID
 40
0.05
  9
$TEXTSTYLE
  7
STANDARD
  9
$CLAYER
  8
0
  9
$CELTYPE
  6
BYLAYER
  9
$CECOLOR
 62
   256
  9
$DIMSCALE
 40
1.0
  9
$DIMASZ
 40
0.18
  9
$DIMEXO
 40
0.0625
  9
$DIMDLI
 40
0.38
  9
$DIMRND
 40
0.0
  9
$DIMDLE
 40
0.0
  9
$DIMEXE
 40
0.18
  9
$DIMTP
 40
0.0
  9
$DIMTM
 40
0.0
  9
$DIMTXT
 40
0.18
  9
$DIMCEN
 40
0.09
  9
$DIMTSZ
 40
0.0
  9
$DIMTOL
 70
     0
  9
$DIMLIM
 70
     0
  9
$DIMTIH
 70
     1
  9
$DIMTOH
 70
     1
  9
$DIMSE1
 70
     0
  9
$DIMSE2
 70
     0
  9
$DIMTAD
 70
     0
  9
$DIMZIN
 70
     0
  9
$DIMBLK
  1

  9
$DIMASO
 70
     1
  9
$DIMSHO
 70
     1
  9
$DIMPOST
  1

  9
$DIMAPOST
  1

  9
$DIMALT
 70
     0
  9
$DIMALTD
 70
     2
  9
$DIMALTF
 40
25.3999999999999986
  9
$DIMLFAC
 40
1.0
  9
$DIMTOFL
 70
     0
  9
$DIMTVP
 40
0.0
  9
$DIMTIX
 70
     0
  9
$DIMSOXD
 70
     0
  9
$DIMSAH
 70
     0
  9
$DIMBLK1
  1

  9
$DIMBLK2
  1

  9
$DIMSTYLE
  2
STANDARD
  9
$DIMCLRD
 70
     0
  9
$DIMCLRE
 70
     0
  9
$DIMCLRT
 70
     0
  9
$DIMTFAC
 40
1.0
  9
$DIMGAP
 40
0.09
  9
$LUNITS
 70
     2
  9
$LUPREC
 70
     4
  9
$SKETCHINC
 40
0.1
  9
$FILLETRAD
 40
0.0
  9
$AUNITS
 70
     0
  9
$AUPREC
 70
     0
  9
$MENU
  1
.
  9
$ELEVATION
 40
0.0
  9
$PELEVATION
 40
0.0
  9
$THICKNESS
 40
0.0
  9
$LIMCHECK
 70
     0
  9
$BLIPMODE
 70
     0
  9
$CHAMFERA
 40
0.0
  9
$CHAMFERB
 40
0.0
  9
$SKPOLY
 70
     0
  9
$TDCREATE
 40
2459097.5346064819023013
  9
$TDUPDATE
 40
2459108.6061689821071923
  9
$TDINDWG
 40
0.0014699074
  9
$TDUSRTIMER
 40
0.0014699074
  9
$USRTIMER
 70
     1
  9
$ANGBASE
 50
0.0
  9
$ANGDIR
 70
     0
  9
$PDMODE
 70
     0
  9
$PDSIZE
 40
0.0
  9
$PLINEWID
 40
0.0
  9
$COORDS
 70
     1
  9
$SPLFRAME
 70
     0
  9
$SPLINETYPE
 70
     6
  9
$SPLINESEGS
 70
     8
  9
$ATTDIA
 70
     1
  9
$ATTREQ
 70
     1
  9
$HANDLING
 70
     1
  9
$HANDSEED
  5
2C2
  9
$SURFTAB1
 70
     6
  9
$SURFTAB2
 70
     6
  9
$SURFTYPE
 70
     6
  9
$SURFU
 70
     6
  9
$SURFV
 70
     6
  9
$UCSNAME
  2

  9
$UCSORG
 10
0.0
 20
0.0
 30
0.0
  9
$UCSXDIR
 10
1.0
 20
0.0
 30
0.0
  9
$UCSYDIR
 10
0.0
 20
1.0
 30
0.0
  9
$PUCSNAME
  2

  9
$PUCSORG
 10
0.0
 20
0.0
 30
0.0
  9
$PUCSXDIR
 10
1.0
 20
0.0
 30
0.0
  9
$PUCSYDIR
 10
0.0
 20
1.0
 30
0.0
  9
$USERI1
 70
     0
  9
$USERI2
 70
     0
  9
$USERI3
 70
     0
  9
$USERI4
 70
     0
  9
$USERI5
 70
     0
  9
$USERR1
 40
0.0
  9
$USERR2
 40
0.0
  9
$USERR3
 40
0.0
  9
$USERR4
 40
0.0
  9
$USERR5
 40
0.0
  9
$WORLDVIEW
 70
     1
  9
$SHADEDGE
 70
     3
  9
$SHADEDIF
 70
    70
  9
$TILEMODE
 70
     1
  9
$MAXACTVP
 70
    64
  9
$PLIMCHECK
 70
     0
  9
$PEXTMIN
 10
0.0
 20
0.0
 30
0.0
  9
$PEXTMAX
 10
0.0
 20
0.0
 30
0.0
  9
$PLIMMIN
 10
0.0
 20
0.0
  9
$PLIMMAX
 10
12.0
 20
9.0
  9
$UNITMODE
 70
     0
  9
$VISRETAIN
 70
     1
  9
$PLINEGEN
 70
     0
  9
$PSLTSCALE
 70
     1
  0
ENDSEC
  0
SECTION
  2
TABLES
  0
TABLE
  2
VPORT
 70
     1
  0
VPORT
  2
*ACTIVE
 70
     0
 10
0.0
 20
0.0
 11
1.0
 21
1.0
 12
66.1488815295571158
 22
0.0
 13
0.0
 23
0.0
 14
0.5
 24
0.5
 15
0.5
 25
0.5
 16
0.0
 26
0.0
 36
767.5911395568549551
 17
3889.8145722160002151
 27
4632.8398235377526362
 37
0.0
 40
360.3992783976777901
 41
1.4230769230769229
 42
50.0
 43
0.0
 44
0.0
 50
0.0
 51
90.0
 71
     0
 72
  1000
 73
     1
 74
     3
 75
     0
 76
     1
 77
     0
 78
     0
  0
ENDTAB
  0
TABLE
  2
LTYPE
 70
     1
  0
LTYPE
  2
CONTINUOUS
 70
     0
  3
Solid line
 72
    65
 73
     0
 40
0.0
  0
ENDTAB
  0
TABLE
  2
LAYER
 70
     3
  0
LAYER
  2
0
 70
     0
 62
     7
  6
CONTINUOUS
  0
LAYER
  2
A-DETL-___2
 70
     0
 62
     2
  6
CONTINUOUS
  0
LAYER
  2
A-DETL-___3
 70
     0
 62
     3
  6
CONTINUOUS
  0
ENDTAB
  0
TABLE
  2
STYLE
 70
     2
  0
STYLE
  2
STANDARD
 70
     0
 40
0.0
 41
1.0
 50
0.0
 71
     0
 42
0.2
  3
txt
  4

  0
STYLE
  2
ANNOTATIVE
 70
     0
 40
0.0
 41
1.0
 50
0.0
 71
     0
 42
0.2
  3
txt
  4

  0
ENDTAB
  0
TABLE
  2
VIEW
 70
     0
  0
ENDTAB
  0
TABLE
  2
UCS
 70
     0
  0
ENDTAB
  0
TABLE
  2
APPID
 70
    10
  0
APPID
  2
ACAD
 70
     0
  0
APPID
  2
ACADANNOPO
 70
     0
  0
APPID
  2
ACADANNOTATIVE
 70
     0
  0
APPID
  2
ACAD_DSTYLE_DIMJAG
 70
     0
  0
APPID
  2
ACAD_DSTYLE_DIMTALN
 70
     0
  0
APPID
  2
ACAD_MLEADERVER
 70
     0
  0
APPID
  2
ACAD_NAV_VCDISPLAY
 70
     0
  0
APPID
  2
RAK
 70
     0
  0
APPID
  2
ACAD_PSEXT
 70
     0
  0
APPID
  2
ACDBDYNAMICBLOCKGUID
 70
     0
  0
ENDTAB
  0
TABLE
  2
DIMSTYLE
 70
     2
  0
DIMSTYLE
  2
STANDARD
 70
     0
  3

  4

  5

  6

  7

 40
1.0
 41
0.18
 42
0.0625
 43
0.38
 44
0.18
 45
0.0
 46
0.0
 47
0.0
 48
0.0
140
0.18
141
0.09
142
0.0
143
25.3999999999999986
144
1.0
145
0.0
146
1.0
147
0.09
 71
     0
 72
     0
 73
     1
 74
     1
 75
     0
 76
     0
 77
     0
 78
     0
170
     0
171
     2
172
     0
173
     0
174
     0
175
     0
176
     0
177
     0
178
     0
  0
DIMSTYLE
  2
ANNOTATIVE
 70
     0
  3

  4

  5

  6

  7

 40
0.0
 41
0.18
 42
0.0625
 43
0.38
 44
0.18
 45
0.0
 46
0.0
 47
0.0
 48
0.0
140
0.18
141
0.09
142
0.0
143
25.3999999999999986
144
1.0
145
0.0
146
1.0
147
0.09
 71
     0
 72
     0
 73
     1
 74
     1
 75
     0
 76
     0
 77
     0
 78
     0
170
     0
171
     2
172
     0
173
     0
174
     0
175
     0
176
     0
177
     0
178
     0
  0
ENDTAB
  0
ENDSEC
  0
SECTION
  2
BLOCKS
  0
BLOCK
  8
0
  2
$MODEL_SPACE
 70
     0
 10
0.0
 20
0.0
 30
0.0
  3
$MODEL_SPACE
  1

  0
ENDBLK
  5
21
  8
0
  0
BLOCK
 67
     1
  8
0
  2
$PAPER_SPACE
 70
     0
 10
0.0
 20
0.0
 30
0.0
  3
$PAPER_SPACE
  1

  0
ENDBLK
  5
76
 67
     1
  8
0
  0
BLOCK
  8
0
  2
LOWER_MATRIX__SHORT_
 70
     0
 10
0.0
 20
0.0
 30
0.0
  3
LOWER_MATRIX__SHORT_
  1

  0
POLYLINE
  5
20E
  8
A-DETL-___3
 66
     1
 10
0.0
 20
0.0
 30
0.0
 70
     1
  0
VERTEX
  5
288
  8
A-DETL-___3
 10
18.0000018692253398
 20
168.0000198074868933
 30
0.0
  0
VERTEX
  5
289
  8
A-DETL-___3
 10
4.0000018692253434
 20
168.0000198074868933
 30
0.0
  0
VERTEX
  5
28A
  8
A-DETL-___3
 10
4.0000018692271624
 20
173.1008500428148977
 30
0.0
 42
0.9999981274326524
  0
VERTEX
  5
28B
  8
A-DETL-___3
 10
0.0000018692253434
 20
173.0931084768450887
 30
0.0
  0
VERTEX
  5
28C
  8
A-DETL-___3
 10
0.0000009719069567
 20
90.0000004747764564
 30
0.0
  0
VERTEX
  5
28D
  8
A-DETL-___3
 10
-4.9999982505696599
 20
90.0000004747764564
 30
0.0
  0
VERTEX
  5
28E
  8
A-DETL-___3
 10
-4.9999982505696599
 20
70.0000004747769253
 30
0.0
  0
VERTEX
  5
28F
  8
A-DETL-___3
 10
0.0000007559265214
 20
70.0000004747769253
 30
0.0
  0
VERTEX
  5
290
  8
A-DETL-___3
 10
-0.0000007559265214
 20
-69.999999525225121
 30
0.0
  0
VERTEX
  5
291
  8
A-DETL-___3
 10
-4.9999982505705702
 20
-69.999999525225121
 30
0.0
  0
VERTEX
  5
292
  8
A-DETL-___3
 10
-4.9999982505705702
 20
-89.9999995252246663
 30
0.0
  0
VERTEX
  5
293
  8
A-DETL-___3
 10
-0.0000009719051377
 20
-89.9999995252248937
 30
0.0
  0
VERTEX
  5
294
  8
A-DETL-___3
 10
-0.0000018692662707
 20
-173.0969745434233005
 30
0.0
 42
1.0009691056822889
  0
VERTEX
  5
295
  8
A-DETL-___3
 10
4.0000018692253434
 20
-173.0931000367824879
 30
0.0
  0
VERTEX
  5
296
  8
A-DETL-___3
 10
4.0000018692253434
 20
-168.00001885793219
 30
0.0
  0
VERTEX
  5
297
  8
A-DETL-___3
 10
18.0000018692253398
 20
-168.00001885793219
 30
0.0
 42
-0.4142135623730951
  0
VERTEX
  5
298
  8
A-DETL-___3
 10
20.0000018692253398
 20
-170.00001885793219
 30
0.0
  0
VERTEX
  5
299
  8
A-DETL-___3
 10
20.0000018692253398
 20
-170.4999990997937118
 30
0.0
 42
0.4142135623730951
  0
VERTEX
  5
29A
  8
A-DETL-___3
 10
22.0000018692253398
 20
-172.4999990997937118
 30
0.0
  0
VERTEX
  5
29B
  8
A-DETL-___3
 10
78.0000018692253434
 20
-172.4999990997945929
 30
0.0
 42
0.4142135623730951
  0
VERTEX
  5
29C
  8
A-DETL-___3
 10
80.0000018692253434
 20
-170.4999990997945929
 30
0.0
  0
VERTEX
  5
29D
  8
A-DETL-___3
 10
80.0000018692253434
 20
-162.2499995252248937
 30
0.0
  0
VERTEX
  5
29E
  8
A-DETL-___3
 10
40.0000018692207888
 20
-162.2499995252248937
 30
0.0
  0
VERTEX
  5
29F
  8
A-DETL-___3
 10
40.0000018692207888
 20
-157.7499995252248937
 30
0.0
  0
VERTEX
  5
2A0
  8
A-DETL-___3
 10
80.0000018692189769
 20
-157.7499995252248937
 30
0.0
  0
VERTEX
  5
2A1
  8
A-DETL-___3
 10
80.0000018692189769
 20
-2.2499995252239842
 30
0.0
  0
VERTEX
  5
2A2
  8
A-DETL-___3
 10
40.0000018692180603
 20
-2.2499995252239842
 30
0.0
  0
VERTEX
  5
2A3
  8
A-DETL-___3
 10
40.0000018692180603
 20
2.2500004747760149
 30
0.0
  0
VERTEX
  5
2A4
  8
A-DETL-___3
 10
80.0000018692180674
 20
2.2500004747760149
 30
0.0
  0
VERTEX
  5
2A5
  8
A-DETL-___3
 10
80.0000018692135342
 20
157.7500004747768969
 30
0.0
  0
VERTEX
  5
2A6
  8
A-DETL-___3
 10
40.00000186921352
 20
157.7500004747768969
 30
0.0
  0
VERTEX
  5
2A7
  8
A-DETL-___3
 10
40.00000186921352
 20
162.2500004747768969
 30
0.0
  0
VERTEX
  5
2A8
  8
A-DETL-___3
 10
80.0000018692253434
 20
162.2500004747768969
 30
0.0
  0
VERTEX
  5
2A9
  8
A-DETL-___3
 10
80.0000018692253434
 20
170.5000000493494099
 30
0.0
 42
0.4142135623730951
  0
VERTEX
  5
2AA
  8
A-DETL-___3
 10
78.0000018692253434
 20
172.5000000493494099
 30
0.0
  0
VERTEX
  5
2AB
  8
A-DETL-___3
 10
22.0000018692253398
 20
172.5000000493485004
 30
0.0
 42
0.4564801141993974
  0
VERTEX
  5
2AC
  8
A-DETL-___3
 10
19.9845588291263994
 20
170.248079624687108
 30
0.0
 42
-0.4511220289520624
  0
SEQEND
  5
2AD
  8
A-DETL-___3
  0
POLYLINE
  5
20F
  8
A-DETL-___3
 66
     1
 10
0.0
 20
0.0
 30
0.0
 70
     1
  0
VERTEX
  5
2AE
  8
A-DETL-___3
 10
52.5000018692198793
 20
-112.4999995252245952
 30
0.0
  0
VERTEX
  5
2AF
  8
A-DETL-___3
 10
52.5000018692198793
 20
-127.4999995252264995
 30
0.0
 42
0.9999999999999998
  0
VERTEX
  5
2B0
  8
A-DETL-___3
 10
67.5000018692198864
 20
-127.4999995252264995
 30
0.0
  0
VERTEX
  5
2B1
  8
A-DETL-___3
 10
67.5000018692198864
 20
-112.4999995252256042
 30
0.0
 42
0.9999999999999998
  0
SEQEND
  5
2B2
  8
A-DETL-___3
  0
POLYLINE
  5
210
  8
A-DETL-___3
 66
     1
 10
0.0
 20
0.0
 30
0.0
 70
     1
  0
VERTEX
  5
2B3
  8
A-DETL-___3
 10
52.5000018692198793
 20
-47.4999995252246592
 30
0.0
  0
VERTEX
  5
2B4
  8
A-DETL-___3
 10
52.5000018692198793
 20
-32.4999995252228473
 30
0.0
 42
-0.9999999999999998
  0
VERTEX
  5
2B5
  8
A-DETL-___3
 10
67.5000018692198864
 20
-32.4999995252228473
 30
0.0
  0
VERTEX
  5
2B6
  8
A-DETL-___3
 10
67.5000018692198864
 20
-47.4999995252237497
 30
0.0
 42
-0.9999999999999998
  0
SEQEND
  5
2B7
  8
A-DETL-___3
  0
POLYLINE
  5
211
  8
A-DETL-___3
 66
     1
 10
0.0
 20
0.0
 30
0.0
 70
     1
  0
VERTEX
  5
2B8
  8
A-DETL-___3
 10
52.5000018692198793
 20
112.5000004747768969
 30
0.0
  0
VERTEX
  5
2B9
  8
A-DETL-___3
 10
52.5000018692198793
 20
127.5000004747787017
 30
0.0
 42
-0.9999999999999998
  0
VERTEX
  5
2BA
  8
A-DETL-___3
 10
67.5000018692198864
 20
127.5000004747787017
 30
0.0
  0
VERTEX
  5
2BB
  8
A-DETL-___3
 10
67.5000018692198864
 20
112.5000004747778064
 30
0.0
 42
-0.9999999999999998
  0
SEQEND
  5
2BC
  8
A-DETL-___3
  0
POLYLINE
  5
212
  8
A-DETL-___3
 66
     1
 10
0.0
 20
0.0
 30
0.0
 70
     1
  0
VERTEX
  5
2BD
  8
A-DETL-___3
 10
52.5000018692198793
 20
47.5000004747769182
 30
0.0
  0
VERTEX
  5
2BE
  8
A-DETL-___3
 10
52.5000018692198793
 20
32.5000004747751134
 30
0.0
 42
0.9999999999999998
  0
VERTEX
  5
2BF
  8
A-DETL-___3
 10
67.5000018692198864
 20
32.5000004747751134
 30
0.0
  0
VERTEX
  5
2C0
  8
A-DETL-___3
 10
67.5000018692198864
 20
47.5000004747760087
 30
0.0
 42
0.9999999999999998
  0
SEQEND
  5
2C1
  8
A-DETL-___3
  0
ENDBLK
  5
213
  8
0
  0
BLOCK
  8
0
  2
A$CECE4F053
 70
     0
 10
0.0
 20
0.0
 30
0.0
  3
A$CECE4F053
  1

  0
INSERT
  5
21C
  8
0
  2
LOWER_MATRIX__SHORT_
 10
4593.4853583276299105
 20
4956.2095770889663982
 30
0.0
 50
270.0
  0
ENDBLK
  5
220
  8
0
  0
ENDSEC
  0
SECTION
  2
ENTITIES
  0
INSERT
  5
223
  8
0
  2
LOWER_MATRIX__SHORT_
 10
3889.8103913077961806
 20
4670.3398244914278621
 30
0.0
 50
270.0
  0
ENDSEC
  0
EOF
