# Rhino

mtllib G0.mtl
g 02_Amendities Offices
usemtl diffuse_Aqua
v 767987.71006785915 0 -2958409.8039759505
v 767987.71006785915 13 -2958409.8039759505
v 768151.14203291037 0 -2958373.6970367879
v 768151.14203291037 13 -2958373.6970367879
v 768170.08003304293 0 -2958510.4371256456
v 768170.08003304293 13 -2958510.4371256456
v 768130.65556140663 0 -2958517.4702731348
v 768130.65556140663 13 -2958517.4702731348
v 768124.58381266205 0 -2958483.434944497
v 768124.58381266205 13 -2958483.434944497
v 768084.96365685971 0 -2958490.8982877294
v 768084.96365685971 13 -2958490.8982877294
v 768100.39161217341 0 -2958572.7996520703
v 768100.39161217341 13 -2958572.7996520703
v 768139.4138297938 0 -2958562.3882279117
v 768139.4138297938 13 -2958562.3882279117
v 768133.11426995392 0 -2958538.008702483
v 768133.11426995392 13 -2958538.008702483
v 768174.51953973202 0 -2958531.2898889692
v 768174.51953973202 13 -2958531.2898889692
v 768192.68963185861 0 -2958643.264654289
v 768192.68963185861 13 -2958643.264654289
v 768040.92592332198 0 -2958667.8912793831
v 768040.92592332198 13 -2958667.8912793831
vt 0 0
vt 0 0.51869332790374756
vt 0.083333335816860199 0
vt 0.083333335816860199 0.51869332790374756
vt 0.083333335816860199 0
vt 0.083333335816860199 0.51869332790374756
vt 0.1666666716337204 0
vt 0.1666666716337204 0.51869332790374756
vt 0.1666666716337204 0
vt 0.1666666716337204 0.51869332790374756
vt 0.25 0
vt 0.25 0.51869332790374756
vt 0.25 0
vt 0.25 0.51869332790374756
vt 0.3333333432674408 0
vt 0.3333333432674408 0.51869332790374756
vt 0.3333333432674408 0
vt 0.3333333432674408 0.51869332790374756
vt 0.4166666567325592 0
vt 0.4166666567325592 0.51869332790374756
vt 0.4166666567325592 0
vt 0.4166666567325592 0.51869332790374756
vt 0.5 0
vt 0.5 0.51869332790374756
vt 0.5 0
vt 0.5 0.51869332790374756
vt 0.58333331346511841 0
vt 0.58333331346511841 0.51869332790374756
vt 0.58333331346511841 0
vt 0.58333331346511841 0.51869332790374756
vt 0.66666668653488159 0
vt 0.66666668653488159 0.51869332790374756
vt 0.66666668653488159 0
vt 0.66666668653488159 0.51869332790374756
vt 0.75 0
vt 0.75 0.51869332790374756
vt 0.75 0
vt 0.75 0.51869332790374756
vt 0.83333331346511841 0
vt 0.83333331346511841 0.51869332790374756
vt 0.83333331346511841 0
vt 0.83333331346511841 0.51869332790374756
vt 0.91666668653488159 0
vt 0.91666668653488159 0.51869332790374756
vt 0.91666668653488159 0
vt 0.91666668653488159 0.51869332790374756
vt 1 0
vt 1 0.51869332790374756
vt 0.23648439347743988 1
vt 0.23854999244213104 0.51869386434555054
vt 0.11792179942131042 0.54476755857467651
vt 0.11886173486709595 0.65989845991134644
vt 0.14912688732147217 0.6572335958480835
vt 0.14973247051239014 0.77316552400588989
vt 0.076759010553359985 0.77727663516998291
vt 0.078787684440612793 0.66131669282913208
vt 0.10081154853105545 0.66490137577056885
vt 0.099251709878444672 0.54437375068664551
vt 0 0.55822718143463135
vt 0.0057173073291778564 1
vt 0.23648439347743988 0.51869386434555054
vt 0.23854999244213104 1
vt 0.11792179942131042 0.97392630577087402
vt 0.11886173486709595 0.85879534482955933
vt 0.14912688732147217 0.86146026849746704
vt 0.14973247051239014 0.74552828073501587
vt 0.076759010553359985 0.74141716957092285
vt 0.078787684440612793 0.85737717151641846
vt 0.10081154853105545 0.85379242897033691
vt 0.099251709878444672 0.97432011365890503
vt 0 0.96046668291091919
vt 0.0057173073291778564 0.51869386434555054
vn -0.21572738885879517 0 0.97645360231399536
vn -0.21572738885879517 0 0.97645360231399536
vn -0.21572738885879517 0 0.97645360231399536
vn -0.21572738885879517 0 0.97645360231399536
vn 0.99054521322250366 0 0.13718686997890472
vn 0.99054521322250366 0 0.13718686997890472
vn 0.99054521322250366 0 0.13718686997890472
vn 0.99054521322250366 0 0.13718686997890472
vn 0.17562277615070343 0 -0.98445755243301392
vn 0.17562277615070343 0 -0.98445755243301392
vn 0.17562277615070343 0 -0.98445755243301392
vn 0.17562277615070343 0 -0.98445755243301392
vn -0.98445755243301392 0 -0.17562277615070343
vn -0.98445755243301392 0 -0.17562277615070343
vn -0.98445755243301392 0 -0.17562277615070343
vn -0.98445755243301392 0 -0.17562277615070343
vn 0.18511666357517242 0 -0.98271656036376953
vn 0.18511666357517242 0 -0.98271656036376953
vn 0.18511666357517242 0 -0.98271656036376953
vn 0.18511666357517242 0 -0.98271656036376953
vn 0.98271656036376953 0 0.18511666357517242
vn 0.98271656036376953 0 0.18511666357517242
vn 0.98271656036376953 0 0.18511666357517242
vn 0.98271656036376953 0 0.18511666357517242
vn -0.25778979063034058 0 0.96620100736618042
vn -0.25778979063034058 0 0.96620100736618042
vn -0.25778979063034058 0 0.96620100736618042
vn -0.25778979063034058 0 0.96620100736618042
vn -0.96819972991943359 0 -0.25017845630645752
vn -0.96819972991943359 0 -0.25017845630645752
vn -0.96819972991943359 0 -0.25017845630645752
vn -0.96819972991943359 0 -0.25017845630645752
vn -0.1601744145154953 0 0.98708873987197876
vn -0.1601744145154953 0 0.98708873987197876
vn -0.1601744145154953 0 0.98708873987197876
vn -0.1601744145154953 0 0.98708873987197876
vn 0.98708873987197876 0 0.1601744145154953
vn 0.98708873987197876 0 0.1601744145154953
vn 0.98708873987197876 0 0.1601744145154953
vn 0.98708873987197876 0 0.1601744145154953
vn 0.1601744145154953 0 -0.98708873987197876
vn 0.1601744145154953 0 -0.98708873987197876
vn 0.1601744145154953 0 -0.98708873987197876
vn 0.1601744145154953 0 -0.98708873987197876
vn -0.97939687967300415 0 -0.20194500684738159
vn -0.97939687967300415 0 -0.20194500684738159
vn -0.97939687967300415 0 -0.20194500684738159
vn -0.97939687967300415 0 -0.20194500684738159
vn 0 -1 0
vn 0 -1 0
vn 0 -1 0
vn 0 -1 0
vn 0 -1 0
vn 0 -1 0
vn 0 -1 0
vn 0 -1 0
vn 0 -1 0
vn 0 -1 0
vn 0 -1 0
vn 0 -1 0
vn 0 1 0
vn 0 1 0
vn 0 1 0
vn 0 1 0
vn 0 1 0
vn 0 1 0
vn 0 1 0
vn 0 1 0
vn 0 1 0
vn 0 1 0
vn 0 1 0
vn 0 1 0
f 23/60/60 21/59/59 19/58/58 17/57/57 15/56/56 13/55/55 11/54/54 9/53/53 7/52/52 5/51/51 3/50/50 1/49/49
f 22/71/71 24/72/72 2/61/61 4/62/62 6/63/63 8/64/64 10/65/65 12/66/66 14/67/67 16/68/68 18/69/69 20/70/70
f 1/1/1 3/3/3 4/4/4 2/2/2
f 3/5/5 5/7/7 6/8/8 4/6/6
f 5/9/9 7/11/11 8/12/12 6/10/10
f 7/13/13 9/15/15 10/16/16 8/14/14
f 9/17/17 11/19/19 12/20/20 10/18/18
f 11/21/21 13/23/23 14/24/24 12/22/22
f 13/25/25 15/27/27 16/28/28 14/26/26
f 15/29/29 17/31/31 18/32/32 16/30/30
f 17/33/33 19/35/35 20/36/36 18/34/34
f 19/37/37 21/39/39 22/40/40 20/38/38
f 21/41/41 23/43/43 24/44/44 22/42/42
f 23/45/45 1/47/47 2/48/48 24/46/46
