  0
SECTION
  2
HEADER
  9
$ACADVER
  1
AC1009
  9
$FILLMODE
 70
0
  9
$EXTMIN
 10
-3.3782
 20
-3.1242
 30
0.0000
  9
$EXTMAX
 10
36.9062
 20
30.8102
 30
0.0000
  0
ENDSEC
  0
SECTION
  2
TABLES
  0
TABLE
  2
LTYPE
 70
1
  0
LTYPE
  2
CONTINUOUS
 70
64
  3
Solid line
 72
65
 73
0
 40
0
  0
ENDTAB
  0
TABLE
  2
LAYER
 70
255
  0
LAYER
  2
17
 70
64
 62
110
  6
CONTINUOUS
  0
LAYER
  2
20
 70
64
 62
31
  6
CONTINUOUS
  0
LAYER
  2
22
 70
64
 62
253
  6
CONTINUOUS
  0
LAYER
  2
39
 70
64
 62
12
  6
CONTINUOUS
  0
LAYER
  2
40
 70
64
 62
132
  6
CONTINUOUS
  0
LAYER
  2
41
 70
64
 62
12
  6
CONTINUOUS
  0
LAYER
  2
42
 70
64
 62
132
  6
CONTINUOUS
  0
LAYER
  2
45
 70
64
 62
253
  6
CONTINUOUS
  0
LAYER
  2
48
 70
64
 62
253
  6
CONTINUOUS
  0
LAYER
  2
51
 70
64
 62
253
  6
CONTINUOUS
  0
LAYER
  2
52
 70
64
 62
253
  6
CONTINUOUS
  0
ENDTAB
  0
ENDSEC
  0
SECTION
  2
BLOCKS
  0
BLOCK
  8
0
  2
RECT
 70
64
 10
0.0000
 20
0.0000
 30
0.0000
  3
RECT
  0
SOLID
  8
0
 10
-0.5000
 20
-0.5000
 30
0.0000
 11
0.5000
 21
-0.5000
 31
0.0000
 12
-0.5000
 22
0.5000
 32
0.0000
 13
0.5000
 23
0.5000
 33
0.0000
  0
ENDBLK
  8
0
  0
BLOCK
  8
0
  2
PIE
 70
64
 10
0.0000
 20
0.0000
 30
0.0000
  3
PIE
  0
CIRCLE
  8
0
 10
0.0000
 20
0.0000
 30
0.0000
 40
0.5000
  0
ENDBLK
  8
0
  0
BLOCK
  8
0
  2
OCTAGONP
 70
64
 10
0.0000
 20
0.0000
 30
0.0000
  3
OCTAGONP
  0
POLYLINE
  8
0
 66
1
 10
0.0000
 20
0.0000
 30
0.0000
 40
0.0000
 41
0.0000
 70
1
  0
VERTEX
  8
0
 10
-0.5000
 20
-0.2071
 30
0.0000
  0
VERTEX
  8
0
 10
-0.5000
 20
0.2071
 30
0.0000
  0
VERTEX
  8
0
 10
-0.2071
 20
0.5000
 30
0.0000
  0
VERTEX
  8
0
 10
0.2071
 20
0.5000
 30
0.0000
  0
VERTEX
  8
0
 10
0.5000
 20
0.2071
 30
0.0000
  0
VERTEX
  8
0
 10
0.5000
 20
-0.2071
 30
0.0000
  0
VERTEX
  8
0
 10
0.2071
 20
-0.5000
 30
0.0000
  0
VERTEX
  8
0
 10
-0.2071
 20
-0.5000
 30
0.0000
  0
SEQEND
  8
0
  0
ENDBLK
  8
0
  0
BLOCK
  8
0
  2
SQUAREP
 70
64
 10
0.0000
 20
0.0000
 30
0.0000
  3
SQUAREP
  0
SOLID
  8
0
 10
-0.5000
 20
-0.5000
 30
0.0000
 11
0.5000
 21
-0.5000
 31
0.0000
 12
-0.5000
 22
0.5000
 32
0.0000
 13
0.5000
 23
0.5000
 33
0.0000
  0
ENDBLK
  8
0
  0
BLOCK
  8
0
  2
ROUNDP
 70
64
 10
0.0000
 20
0.0000
 30
0.0000
  3
ROUNDP
  0
CIRCLE
  8
0
 10
0.0000
 20
0.0000
 30
0.0000
 40
0.5000
  0
ENDBLK
  8
0
  0
BLOCK
  8
0
  2
ANNULUSP
 70
64
 10
0.0000
 20
0.0000
 30
0.0000
  3
ANNULUSP
  0
CIRCLE
  8
0
 10
0.0000
 20
0.0000
 30
0.0000
 40
0.5000
  0
ENDBLK
  8
0
  0
BLOCK
  8
0
  2
THERMALP
 70
64
 10
0.0000
 20
0.0000
 30
0.0000
  3
THERMALP
  0
LINE
  8
0
 10
-0.2379
 20
0.4500
 30
0.0000
 11
0.2379
 21
0.4500
 31
0.0000
  0
LINE
  8
0
 10
0.4500
 20
0.2379
 30
0.0000
 11
0.4500
 21
-0.2379
 31
0.0000
  0
LINE
  8
0
 10
0.2379
 20
-0.4500
 30
0.0000
 11
-0.2379
 21
-0.4500
 31
0.0000
  0
LINE
  8
0
 10
-0.4500
 20
-0.2379
 30
0.0000
 11
-0.4500
 21
0.2379
 31
0.0000
  0
ENDBLK
  8
0
  0
BLOCK
  8
0
  2
OCTAGONV
 70
64
 10
0.0000
 20
0.0000
 30
0.0000
  3
OCTAGONV
  0
POLYLINE
  8
0
 66
1
 10
0.0000
 20
0.0000
 30
0.0000
 40
0.0000
 41
0.0000
 70
1
  0
VERTEX
  8
0
 10
-0.5000
 20
-0.2071
 30
0.0000
  0
VERTEX
  8
0
 10
-0.5000
 20
0.2071
 30
0.0000
  0
VERTEX
  8
0
 10
-0.2071
 20
0.5000
 30
0.0000
  0
VERTEX
  8
0
 10
0.2071
 20
0.5000
 30
0.0000
  0
VERTEX
  8
0
 10
0.5000
 20
0.2071
 30
0.0000
  0
VERTEX
  8
0
 10
0.5000
 20
-0.2071
 30
0.0000
  0
VERTEX
  8
0
 10
0.2071
 20
-0.5000
 30
0.0000
  0
VERTEX
  8
0
 10
-0.2071
 20
-0.5000
 30
0.0000
  0
SEQEND
  8
0
  0
ENDBLK
  8
0
  0
BLOCK
  8
0
  2
SQUAREV
 70
64
 10
0.0000
 20
0.0000
 30
0.0000
  3
SQUAREV
  0
SOLID
  8
0
 10
-0.5000
 20
-0.5000
 30
0.0000
 11
0.5000
 21
-0.5000
 31
0.0000
 12
-0.5000
 22
0.5000
 32
0.0000
 13
0.5000
 23
0.5000
 33
0.0000
  0
ENDBLK
  8
0
  0
BLOCK
  8
0
  2
ROUNDV
 70
64
 10
0.0000
 20
0.0000
 30
0.0000
  3
ROUNDV
  0
CIRCLE
  8
0
 10
0.0000
 20
0.0000
 30
0.0000
 40
0.5000
  0
ENDBLK
  8
0
  0
BLOCK
  8
0
  2
ANNULUSV
 70
64
 10
0.0000
 20
0.0000
 30
0.0000
  3
ANNULUSV
  0
CIRCLE
  8
0
 10
0.0000
 20
0.0000
 30
0.0000
 40
0.5000
  0
ENDBLK
  8
0
  0
BLOCK
  8
0
  2
THERMALV
 70
64
 10
0.0000
 20
0.0000
 30
0.0000
  3
THERMALV
  0
LINE
  8
0
 10
-0.2379
 20
0.4500
 30
0.0000
 11
0.2379
 21
0.4500
 31
0.0000
  0
LINE
  8
0
 10
0.4500
 20
0.2379
 30
0.0000
 11
0.4500
 21
-0.2379
 31
0.0000
  0
LINE
  8
0
 10
0.2379
 20
-0.4500
 30
0.0000
 11
-0.2379
 21
-0.4500
 31
0.0000
  0
LINE
  8
0
 10
-0.4500
 20
-0.2379
 30
0.0000
 11
-0.4500
 21
0.2379
 31
0.0000
  0
ENDBLK
  8
0
  0
ENDSEC
  0
SECTION
  2
ENTITIES
  0
LINE
  8
20
 10
28.0210
 20
28.0090
 30
0.0000
 11
28.0210
 21
0.0000
 31
0.0000
  0
LINE
  8
20
 10
28.0210
 20
0.0000
 30
0.0000
 11
0.0000
 21
0.0000
 31
0.0000
  0
LINE
  8
20
 10
0.0000
 20
0.0000
 30
0.0000
 11
0.0000
 21
28.0090
 31
0.0000
  0
LINE
  8
20
 10
0.0000
 20
28.0090
 30
0.0000
 11
28.0210
 21
28.0090
 31
0.0000
  0
CIRCLE
  8
22
 10
14.0017
 20
5.2590
 30
0.0000
 40
1.7500
  0
CIRCLE
  8
20
 10
14.0260
 20
14.0110
 30
0.0000
 40
3.5000
  0
CIRCLE
  8
20
 10
14.0260
 20
14.0110
 30
0.0000
 40
3.5000
  0
CIRCLE
  8
20
 10
14.0260
 20
14.0110
 30
0.0000
 40
3.5000
  0
CIRCLE
  8
20
 10
14.0260
 20
14.0110
 30
0.0000
 40
3.5400
  0
CIRCLE
  8
48
 10
19.5834
 20
17.5768
 30
0.0000
 40
0.9158
  0
CIRCLE
  8
48
 10
19.5834
 20
15.0368
 30
0.0000
 40
0.9158
  0
CIRCLE
  8
48
 10
19.5834
 20
12.4968
 30
0.0000
 40
0.9158
  0
CIRCLE
  8
48
 10
19.5834
 20
9.9568
 30
0.0000
 40
0.9158
  0
LINE
  8
51
 10
22.7500
 20
20.7970
 30
0.0000
 11
23.7700
 21
20.7970
 31
0.0000
  0
LINE
  8
51
 10
22.7500
 20
19.7270
 30
0.0000
 11
23.7700
 21
19.7270
 31
0.0000
  0
LINE
  8
39
 10
21.4457
 20
21.0863
 30
0.0000
 11
25.0743
 21
21.0863
 31
0.0000
  0
LINE
  8
39
 10
25.0743
 20
21.0863
 30
0.0000
 11
25.0743
 21
19.4377
 31
0.0000
  0
LINE
  8
39
 10
25.0743
 20
19.4377
 30
0.0000
 11
21.4457
 21
19.4377
 31
0.0000
  0
LINE
  8
39
 10
21.4457
 20
19.4377
 30
0.0000
 11
21.4457
 21
21.0863
 31
0.0000
  0
INSERT
  8
51
  2
RECT
 10
23.9632
 20
20.2620
 30
0.0000
 41
0.5936
 42
1.3000
 43
1.0000
 50
0.0000
  0
INSERT
  8
51
  2
RECT
 10
22.5516
 20
20.2620
 30
0.0000
 41
0.5832
 42
1.3000
 43
1.0000
 50
0.0000
  0
LINE
  8
51
 10
4.4240
 20
8.3150
 30
0.0000
 11
5.4440
 21
8.3150
 31
0.0000
  0
LINE
  8
51
 10
4.4240
 20
7.2450
 30
0.0000
 11
5.4440
 21
7.2450
 31
0.0000
  0
LINE
  8
39
 10
3.1197
 20
8.6043
 30
0.0000
 11
6.7483
 21
8.6043
 31
0.0000
  0
LINE
  8
39
 10
6.7483
 20
8.6043
 30
0.0000
 11
6.7483
 21
6.9557
 31
0.0000
  0
LINE
  8
39
 10
6.7483
 20
6.9557
 30
0.0000
 11
3.1197
 21
6.9557
 31
0.0000
  0
LINE
  8
39
 10
3.1197
 20
6.9557
 30
0.0000
 11
3.1197
 21
8.6043
 31
0.0000
  0
INSERT
  8
51
  2
RECT
 10
5.6372
 20
7.7800
 30
0.0000
 41
0.5936
 42
1.3000
 43
1.0000
 50
0.0000
  0
INSERT
  8
51
  2
RECT
 10
4.2256
 20
7.7800
 30
0.0000
 41
0.5832
 42
1.3000
 43
1.0000
 50
0.0000
  0
LINE
  8
51
 10
4.3160
 20
20.8550
 30
0.0000
 11
5.3360
 21
20.8550
 31
0.0000
  0
LINE
  8
51
 10
4.3160
 20
19.7850
 30
0.0000
 11
5.3360
 21
19.7850
 31
0.0000
  0
LINE
  8
39
 10
3.0117
 20
21.1443
 30
0.0000
 11
6.6403
 21
21.1443
 31
0.0000
  0
LINE
  8
39
 10
6.6403
 20
21.1443
 30
0.0000
 11
6.6403
 21
19.4957
 31
0.0000
  0
LINE
  8
39
 10
6.6403
 20
19.4957
 30
0.0000
 11
3.0117
 21
19.4957
 31
0.0000
  0
LINE
  8
39
 10
3.0117
 20
19.4957
 30
0.0000
 11
3.0117
 21
21.1443
 31
0.0000
  0
INSERT
  8
51
  2
RECT
 10
5.5292
 20
20.3200
 30
0.0000
 41
0.5936
 42
1.3000
 43
1.0000
 50
0.0000
  0
INSERT
  8
51
  2
RECT
 10
4.1176
 20
20.3200
 30
0.0000
 41
0.5832
 42
1.3000
 43
1.0000
 50
0.0000
  0
LINE
  8
51
 10
22.6040
 20
8.1550
 30
0.0000
 11
23.6240
 21
8.1550
 31
0.0000
  0
LINE
  8
51
 10
22.6040
 20
7.0850
 30
0.0000
 11
23.6240
 21
7.0850
 31
0.0000
  0
LINE
  8
39
 10
21.2997
 20
8.4443
 30
0.0000
 11
24.9283
 21
8.4443
 31
0.0000
  0
LINE
  8
39
 10
24.9283
 20
8.4443
 30
0.0000
 11
24.9283
 21
6.7957
 31
0.0000
  0
LINE
  8
39
 10
24.9283
 20
6.7957
 30
0.0000
 11
21.2997
 21
6.7957
 31
0.0000
  0
LINE
  8
39
 10
21.2997
 20
6.7957
 30
0.0000
 11
21.2997
 21
8.4443
 31
0.0000
  0
INSERT
  8
51
  2
RECT
 10
23.8172
 20
7.6200
 30
0.0000
 41
0.5936
 42
1.3000
 43
1.0000
 50
0.0000
  0
INSERT
  8
51
  2
RECT
 10
22.4056
 20
7.6200
 30
0.0000
 41
0.5832
 42
1.3000
 43
1.0000
 50
0.0000
  0
INSERT
  8
51
  2
RECT
 10
19.6320
 20
17.5960
 30
0.0000
 41
0.5080
 42
0.5080
 43
1.0000
 50
90.0000
  0
INSERT
  8
51
  2
RECT
 10
19.6320
 20
15.0560
 30
0.0000
 41
0.5080
 42
0.5080
 43
1.0000
 50
90.0000
  0
INSERT
  8
51
  2
RECT
 10
19.6320
 20
12.5160
 30
0.0000
 41
0.5080
 42
0.5080
 43
1.0000
 50
90.0000
  0
INSERT
  8
51
  2
RECT
 10
19.6320
 20
9.9760
 30
0.0000
 41
0.5080
 42
0.5080
 43
1.0000
 50
90.0000
  0
INSERT
  8
17
  2
ROUNDP
 10
19.6320
 20
9.9760
 30
0.0000
 41
1.8796
 42
1.8796
 43
1.0000
 50
180.0000
  0
INSERT
  8
17
  2
ROUNDP
 10
19.6320
 20
9.9760
 30
0.0000
 41
1.8796
 42
1.8796
 43
1.0000
 50
180.0000
  0
INSERT
  8
17
  2
ROUNDP
 10
19.6320
 20
12.5160
 30
0.0000
 41
1.8796
 42
1.8796
 43
1.0000
 50
180.0000
  0
INSERT
  8
17
  2
ROUNDP
 10
19.6320
 20
12.5160
 30
0.0000
 41
1.8796
 42
1.8796
 43
1.0000
 50
180.0000
  0
INSERT
  8
17
  2
ROUNDP
 10
19.6320
 20
15.0560
 30
0.0000
 41
1.8796
 42
1.8796
 43
1.0000
 50
180.0000
  0
INSERT
  8
17
  2
ROUNDP
 10
19.6320
 20
15.0560
 30
0.0000
 41
1.8796
 42
1.8796
 43
1.0000
 50
180.0000
  0
INSERT
  8
17
  2
ROUNDP
 10
19.6320
 20
17.5960
 30
0.0000
 41
1.8796
 42
1.8796
 43
1.0000
 50
180.0000
  0
INSERT
  8
17
  2
ROUNDP
 10
19.6320
 20
17.5960
 30
0.0000
 41
1.8796
 42
1.8796
 43
1.0000
 50
180.0000
  0
LINE
  8
22
 10
26.6510
 20
16.0160
 30
0.0000
 11
26.6510
 21
10.9360
 31
0.0000
  0
LINE
  8
22
 10
24.4920
 20
17.7940
 30
0.0000
 11
23.0950
 21
17.7940
 31
0.0000
  0
LINE
  8
22
 10
23.0950
 20
10.1740
 30
0.0000
 11
23.0950
 21
9.1580
 31
0.0000
  0
LINE
  8
22
 10
23.0950
 20
9.1580
 30
0.0000
 11
24.4920
 21
9.1580
 31
0.0000
  0
LINE
  8
22
 10
23.0950
 20
17.7940
 30
0.0000
 11
23.0950
 21
16.7780
 31
0.0000
  0
CIRCLE
  8
22
 10
22.5300
 20
17.0760
 30
0.0000
 40
0.1047
  0
LINE
  8
39
 10
4.7670
 20
15.9840
 30
0.0000
 11
0.8210
 21
15.9840
 31
0.0000
  0
LINE
  8
39
 10
0.8210
 20
17.9500
 30
0.0000
 11
4.7670
 21
17.9500
 31
0.0000
  0
LINE
  8
39
 10
4.7670
 20
17.9500
 30
0.0000
 11
4.7670
 21
15.9840
 31
0.0000
  0
LINE
  8
39
 10
0.8210
 20
15.9840
 30
0.0000
 11
0.8210
 21
17.9500
 31
0.0000
  0
LINE
  8
51
 10
2.0828
 20
16.3320
 30
0.0000
 11
3.5052
 21
16.3320
 31
0.0000
  0
LINE
  8
51
 10
2.0828
 20
17.6020
 30
0.0000
 11
3.5052
 21
17.6020
 31
0.0000
  0
INSERT
  8
51
  2
RECT
 10
3.6576
 20
16.9670
 30
0.0000
 41
0.3556
 42
1.4224
 43
1.0000
 50
180.0000
  0
INSERT
  8
51
  2
RECT
 10
1.9304
 20
16.9670
 30
0.0000
 41
0.3556
 42
1.4224
 43
1.0000
 50
180.0000
  0
LINE
  8
39
 10
9.0850
 20
15.9840
 30
0.0000
 11
5.1390
 21
15.9840
 31
0.0000
  0
LINE
  8
39
 10
5.1390
 20
17.9500
 30
0.0000
 11
9.0850
 21
17.9500
 31
0.0000
  0
LINE
  8
39
 10
9.0850
 20
17.9500
 30
0.0000
 11
9.0850
 21
15.9840
 31
0.0000
  0
LINE
  8
39
 10
5.1390
 20
15.9840
 30
0.0000
 11
5.1390
 21
17.9500
 31
0.0000
  0
LINE
  8
51
 10
6.4008
 20
16.3320
 30
0.0000
 11
7.8232
 21
16.3320
 31
0.0000
  0
LINE
  8
51
 10
6.4008
 20
17.6020
 30
0.0000
 11
7.8232
 21
17.6020
 31
0.0000
  0
INSERT
  8
51
  2
RECT
 10
7.9756
 20
16.9670
 30
0.0000
 41
0.3556
 42
1.4224
 43
1.0000
 50
180.0000
  0
INSERT
  8
51
  2
RECT
 10
6.2484
 20
16.9670
 30
0.0000
 41
0.3556
 42
1.4224
 43
1.0000
 50
180.0000
  0
LINE
  8
39
 10
4.7670
 20
11.2090
 30
0.0000
 11
0.8210
 21
11.2090
 31
0.0000
  0
LINE
  8
39
 10
0.8210
 20
13.1750
 30
0.0000
 11
4.7670
 21
13.1750
 31
0.0000
  0
LINE
  8
39
 10
4.7670
 20
13.1750
 30
0.0000
 11
4.7670
 21
11.2090
 31
0.0000
  0
LINE
  8
39
 10
0.8210
 20
11.2090
 30
0.0000
 11
0.8210
 21
13.1750
 31
0.0000
  0
LINE
  8
51
 10
2.0828
 20
11.5570
 30
0.0000
 11
3.5052
 21
11.5570
 31
0.0000
  0
LINE
  8
51
 10
2.0828
 20
12.8270
 30
0.0000
 11
3.5052
 21
12.8270
 31
0.0000
  0
INSERT
  8
51
  2
RECT
 10
3.6576
 20
12.1920
 30
0.0000
 41
0.3556
 42
1.4224
 43
1.0000
 50
180.0000
  0
INSERT
  8
51
  2
RECT
 10
1.9304
 20
12.1920
 30
0.0000
 41
0.3556
 42
1.4224
 43
1.0000
 50
180.0000
  0
LINE
  8
39
 10
9.0850
 20
11.2090
 30
0.0000
 11
5.1390
 21
11.2090
 31
0.0000
  0
LINE
  8
39
 10
5.1390
 20
13.1750
 30
0.0000
 11
9.0850
 21
13.1750
 31
0.0000
  0
LINE
  8
39
 10
9.0850
 20
13.1750
 30
0.0000
 11
9.0850
 21
11.2090
 31
0.0000
  0
LINE
  8
39
 10
5.1390
 20
11.2090
 30
0.0000
 11
5.1390
 21
13.1750
 31
0.0000
  0
LINE
  8
51
 10
6.4008
 20
11.5570
 30
0.0000
 11
7.8232
 21
11.5570
 31
0.0000
  0
LINE
  8
51
 10
6.4008
 20
12.8270
 30
0.0000
 11
7.8232
 21
12.8270
 31
0.0000
  0
INSERT
  8
51
  2
RECT
 10
7.9756
 20
12.1920
 30
0.0000
 41
0.3556
 42
1.4224
 43
1.0000
 50
180.0000
  0
INSERT
  8
51
  2
RECT
 10
6.2484
 20
12.1920
 30
0.0000
 41
0.3556
 42
1.4224
 43
1.0000
 50
180.0000
  0
LINE
  8
51
 10
17.4780
 20
24.8920
 30
0.0000
 11
17.4780
 21
26.4160
 31
0.0000
  0
LINE
  8
51
 10
17.4780
 20
26.4160
 30
0.0000
 11
17.0180
 21
26.8760
 31
0.0000
  0
LINE
  8
51
 10
17.0180
 20
20.8760
 30
0.0000
 11
17.4780
 21
21.3360
 31
0.0000
  0
LINE
  8
51
 10
17.4780
 20
21.3360
 30
0.0000
 11
17.4780
 21
22.8600
 31
0.0000
  0
LINE
  8
51
 10
11.9380
 20
26.8760
 30
0.0000
 11
11.4780
 21
26.4160
 31
0.0000
  0
LINE
  8
51
 10
11.4780
 20
26.4160
 30
0.0000
 11
11.4780
 21
24.8920
 31
0.0000
  0
LINE
  8
51
 10
11.9380
 20
20.8760
 30
0.0000
 11
11.4780
 21
21.3360
 31
0.0000
  0
LINE
  8
51
 10
11.4780
 20
21.3360
 30
0.0000
 11
11.4780
 21
22.8600
 31
0.0000
  0
LINE
  8
51
 10
17.0180
 20
20.8760
 30
0.0000
 11
16.6370
 21
20.8760
 31
0.0000
  0
LINE
  8
51
 10
11.9380
 20
20.8760
 30
0.0000
 11
12.3190
 21
20.8760
 31
0.0000
  0
LINE
  8
51
 10
11.9380
 20
26.8760
 30
0.0000
 11
12.3190
 21
26.8760
 31
0.0000
  0
LINE
  8
51
 10
17.0180
 20
26.8760
 30
0.0000
 11
16.6370
 21
26.8760
 31
0.0000
  0
LINE
  8
39
 10
9.9780
 20
27.8760
 30
0.0000
 11
18.9780
 21
27.8760
 31
0.0000
  0
LINE
  8
39
 10
18.9780
 20
27.8760
 30
0.0000
 11
18.9780
 21
20.3760
 31
0.0000
  0
LINE
  8
39
 10
18.9780
 20
20.3760
 30
0.0000
 11
9.9780
 21
20.3760
 31
0.0000
  0
LINE
  8
39
 10
9.9780
 20
20.3760
 30
0.0000
 11
9.9780
 21
27.8760
 31
0.0000
  0
CIRCLE
  8
51
 10
12.3190
 20
21.7170
 30
0.0000
 40
0.5080
  0
CIRCLE
  8
51
 10
16.6370
 20
21.8440
 30
0.0000
 40
0.5080
  0
CIRCLE
  8
51
 10
16.6370
 20
26.0350
 30
0.0000
 40
0.5080
  0
CIRCLE
  8
51
 10
12.3190
 20
26.0350
 30
0.0000
 40
0.5080
  0
INSERT
  8
17
  2
ROUNDP
 10
11.2280
 20
26.1260
 30
0.0000
 41
1.6000
 42
1.6000
 43
1.0000
 50
0.0000
  0
INSERT
  8
17
  2
ROUNDP
 10
11.2280
 20
26.1260
 30
0.0000
 41
1.6000
 42
1.6000
 43
1.0000
 50
0.0000
  0
INSERT
  8
17
  2
ROUNDP
 10
17.7280
 20
26.1260
 30
0.0000
 41
1.6000
 42
1.6000
 43
1.0000
 50
0.0000
  0
INSERT
  8
17
  2
ROUNDP
 10
17.7280
 20
26.1260
 30
0.0000
 41
1.6000
 42
1.6000
 43
1.0000
 50
0.0000
  0
INSERT
  8
17
  2
ROUNDP
 10
11.2280
 20
21.6260
 30
0.0000
 41
1.6000
 42
1.6000
 43
1.0000
 50
0.0000
  0
INSERT
  8
17
  2
ROUNDP
 10
11.2280
 20
21.6260
 30
0.0000
 41
1.6000
 42
1.6000
 43
1.0000
 50
0.0000
  0
INSERT
  8
17
  2
ROUNDP
 10
17.7280
 20
21.6260
 30
0.0000
 41
1.6000
 42
1.6000
 43
1.0000
 50
0.0000
  0
INSERT
  8
17
  2
ROUNDP
 10
17.7280
 20
21.6260
 30
0.0000
 41
1.6000
 42
1.6000
 43
1.0000
 50
0.0000
  0
LINE
  8
51
 10
10.9700
 20
7.0680
 30
0.0000
 11
16.9700
 21
7.0680
 31
0.0000
  0
LINE
  8
51
 10
16.9700
 20
7.0680
 30
0.0000
 11
16.9700
 21
1.5680
 31
0.0000
  0
LINE
  8
51
 10
16.9700
 20
1.5680
 30
0.0000
 11
10.9700
 21
1.5680
 31
0.0000
  0
LINE
  8
51
 10
10.9700
 20
1.5680
 30
0.0000
 11
10.9700
 21
7.0680
 31
0.0000
  0
LINE
  8
51
 10
12.4700
 20
5.0680
 30
0.0000
 11
15.4700
 21
5.0680
 31
0.0000
  0
LINE
  8
51
 10
15.4700
 20
5.0680
 30
0.0000
 11
15.4700
 21
3.5680
 31
0.0000
  0
LINE
  8
51
 10
15.4700
 20
3.5680
 30
0.0000
 11
12.4700
 21
3.5680
 31
0.0000
  0
LINE
  8
51
 10
12.4700
 20
3.5680
 30
0.0000
 11
12.4700
 21
5.0680
 31
0.0000
  0
LINE
  8
51
 10
17.7300
 20
21.2060
 30
0.0000
 11
11.7300
 21
21.2060
 31
0.0000
  0
LINE
  8
51
 10
11.7300
 20
21.2060
 30
0.0000
 11
11.7300
 21
26.7060
 31
0.0000
  0
LINE
  8
51
 10
11.7300
 20
26.7060
 30
0.0000
 11
17.7300
 21
26.7060
 31
0.0000
  0
LINE
  8
51
 10
17.7300
 20
26.7060
 30
0.0000
 11
17.7300
 21
21.2060
 31
0.0000
  0
LINE
  8
51
 10
16.2300
 20
23.2060
 30
0.0000
 11
13.2300
 21
23.2060
 31
0.0000
  0
LINE
  8
51
 10
13.2300
 20
23.2060
 30
0.0000
 11
13.2300
 21
24.7060
 31
0.0000
  0
LINE
  8
51
 10
13.2300
 20
24.7060
 30
0.0000
 11
16.2300
 21
24.7060
 31
0.0000
  0
LINE
  8
51
 10
16.2300
 20
24.7060
 30
0.0000
 11
16.2300
 21
23.2060
 31
0.0000
  0
LINE
  8
51
 10
16.9700
 20
5.3340
 30
0.0000
 11
16.9700
 21
6.8580
 31
0.0000
  0
LINE
  8
51
 10
16.9700
 20
6.8580
 30
0.0000
 11
16.5100
 21
7.3180
 31
0.0000
  0
LINE
  8
51
 10
16.5100
 20
1.3180
 30
0.0000
 11
16.9700
 21
1.7780
 31
0.0000
  0
LINE
  8
51
 10
16.9700
 20
1.7780
 30
0.0000
 11
16.9700
 21
3.3020
 31
0.0000
  0
LINE
  8
51
 10
11.4300
 20
7.3180
 30
0.0000
 11
10.9700
 21
6.8580
 31
0.0000
  0
LINE
  8
51
 10
10.9700
 20
6.8580
 30
0.0000
 11
10.9700
 21
5.3340
 31
0.0000
  0
LINE
  8
51
 10
11.4300
 20
1.3180
 30
0.0000
 11
10.9700
 21
1.7780
 31
0.0000
  0
LINE
  8
51
 10
10.9700
 20
1.7780
 30
0.0000
 11
10.9700
 21
3.3020
 31
0.0000
  0
LINE
  8
51
 10
16.5100
 20
1.3180
 30
0.0000
 11
16.1290
 21
1.3180
 31
0.0000
  0
LINE
  8
51
 10
11.4300
 20
1.3180
 30
0.0000
 11
11.8110
 21
1.3180
 31
0.0000
  0
LINE
  8
51
 10
11.4300
 20
7.3180
 30
0.0000
 11
11.8110
 21
7.3180
 31
0.0000
  0
LINE
  8
51
 10
16.5100
 20
7.3180
 30
0.0000
 11
16.1290
 21
7.3180
 31
0.0000
  0
LINE
  8
39
 10
9.4700
 20
8.3180
 30
0.0000
 11
18.4700
 21
8.3180
 31
0.0000
  0
LINE
  8
39
 10
18.4700
 20
8.3180
 30
0.0000
 11
18.4700
 21
0.8180
 31
0.0000
  0
LINE
  8
39
 10
18.4700
 20
0.8180
 30
0.0000
 11
9.4700
 21
0.8180
 31
0.0000
  0
LINE
  8
39
 10
9.4700
 20
0.8180
 30
0.0000
 11
9.4700
 21
8.3180
 31
0.0000
  0
CIRCLE
  8
51
 10
11.8110
 20
2.1590
 30
0.0000
 40
0.5080
  0
CIRCLE
  8
51
 10
16.1290
 20
2.2860
 30
0.0000
 40
0.5080
  0
CIRCLE
  8
51
 10
16.1290
 20
6.4770
 30
0.0000
 40
0.5080
  0
CIRCLE
  8
51
 10
11.8110
 20
6.4770
 30
0.0000
 40
0.5080
  0
INSERT
  8
17
  2
ROUNDP
 10
10.7200
 20
6.5680
 30
0.0000
 41
1.6000
 42
1.6000
 43
1.0000
 50
0.0000
  0
INSERT
  8
17
  2
ROUNDP
 10
10.7200
 20
6.5680
 30
0.0000
 41
1.6000
 42
1.6000
 43
1.0000
 50
0.0000
  0
INSERT
  8
17
  2
ROUNDP
 10
17.2200
 20
6.5680
 30
0.0000
 41
1.6000
 42
1.6000
 43
1.0000
 50
0.0000
  0
INSERT
  8
17
  2
ROUNDP
 10
17.2200
 20
6.5680
 30
0.0000
 41
1.6000
 42
1.6000
 43
1.0000
 50
0.0000
  0
INSERT
  8
17
  2
ROUNDP
 10
10.7200
 20
2.0680
 30
0.0000
 41
1.6000
 42
1.6000
 43
1.0000
 50
0.0000
  0
INSERT
  8
17
  2
ROUNDP
 10
10.7200
 20
2.0680
 30
0.0000
 41
1.6000
 42
1.6000
 43
1.0000
 50
0.0000
  0
INSERT
  8
17
  2
ROUNDP
 10
17.2200
 20
2.0680
 30
0.0000
 41
1.6000
 42
1.6000
 43
1.0000
 50
0.0000
  0
INSERT
  8
17
  2
ROUNDP
 10
17.2200
 20
2.0680
 30
0.0000
 41
1.6000
 42
1.6000
 43
1.0000
 50
0.0000
  0
ENDSEC
  0
EOF
