  0
SECTION
  2
HEADER
  9
$ACADVER
  1
AC1009
  9
$FILLMODE
 70
1
  9
$EXTMIN
 10
-0.1395
 20
0.2095
 30
0.0000
  9
$EXTMAX
 10
27.8825
 20
28.2195
 30
0.0000
  0
ENDSEC
  0
SECTION
  2
TABLES
  0
TABLE
  2
LTYPE
 70
1
  0
LTYPE
  2
CONTINUOUS
 70
64
  3
Solid line
 72
65
 73
0
 40
0
  0
ENDTAB
  0
TABLE
  2
LAYER
 70
255
  0
LAYER
  2
1
 70
64
 62
12
  6
CONTINUOUS
  0
LAYER
  2
16
 70
64
 62
132
  6
CONTINUOUS
  0
LAYER
  2
17
 70
64
 62
110
  6
CONTINUOUS
  0
LAYER
  2
18
 70
64
 62
110
  6
CONTINUOUS
  0
LAYER
  2
19
 70
64
 62
53
  6
CONTINUOUS
  0
LAYER
  2
20
 70
64
 62
31
  6
CONTINUOUS
  0
LAYER
  2
21
 70
64
 62
253
  6
CONTINUOUS
  0
LAYER
  2
22
 70
64
 62
253
  6
CONTINUOUS
  0
LAYER
  2
23
 70
64
 62
53
  6
CONTINUOUS
  0
LAYER
  2
24
 70
64
 62
53
  6
CONTINUOUS
  0
LAYER
  2
25
 70
64
 62
253
  6
CONTINUOUS
  0
LAYER
  2
26
 70
64
 62
253
  6
CONTINUOUS
  0
LAYER
  2
27
 70
64
 62
253
  6
CONTINUOUS
  0
LAYER
  2
28
 70
64
 62
253
  6
CONTINUOUS
  0
LAYER
  2
39
 70
64
 62
12
  6
CONTINUOUS
  0
LAYER
  2
40
 70
64
 62
132
  6
CONTINUOUS
  0
LAYER
  2
41
 70
64
 62
12
  6
CONTINUOUS
  0
LAYER
  2
42
 70
64
 62
132
  6
CONTINUOUS
  0
LAYER
  2
43
 70
64
 62
110
  6
CONTINUOUS
  0
LAYER
  2
48
 70
64
 62
253
  6
CONTINUOUS
  0
LAYER
  2
49
 70
64
 62
253
  6
CONTINUOUS
  0
LAYER
  2
51
 70
64
 62
253
  6
CONTINUOUS
  0
LAYER
  2
52
 70
64
 62
253
  6
CONTINUOUS
  0
LAYER
  2
101
 70
64
 62
1
  6
CONTINUOUS
  0
LAYER
  2
102
 70
64
 62
253
  6
CONTINUOUS
  0
LAYER
  2
103
 70
64
 62
253
  6
CONTINUOUS
  0
LAYER
  2
104
 70
64
 62
41
  6
CONTINUOUS
  0
LAYER
  2
105
 70
64
 62
253
  6
CONTINUOUS
  0
LAYER
  2
106
 70
64
 62
253
  6
CONTINUOUS
  0
LAYER
  2
107
 70
64
 62
253
  6
CONTINUOUS
  0
LAYER
  2
108
 70
64
 62
3
  6
CONTINUOUS
  0
LAYER
  2
109
 70
64
 62
4
  6
CONTINUOUS
  0
LAYER
  2
110
 70
64
 62
253
  6
CONTINUOUS
  0
LAYER
  2
111
 70
64
 62
253
  6
CONTINUOUS
  0
LAYER
  2
112
 70
64
 62
253
  6
CONTINUOUS
  0
LAYER
  2
116
 70
64
 62
5
  6
CONTINUOUS
  0
LAYER
  2
117
 70
64
 62
253
  6
CONTINUOUS
  0
LAYER
  2
119
 70
64
 62
253
  6
CONTINUOUS
  0
LAYER
  2
120
 70
64
 62
253
  6
CONTINUOUS
  0
LAYER
  2
121
 70
64
 62
253
  6
CONTINUOUS
  0
LAYER
  2
122
 70
64
 62
253
  6
CONTINUOUS
  0
LAYER
  2
123
 70
64
 62
253
  6
CONTINUOUS
  0
LAYER
  2
124
 70
64
 62
253
  6
CONTINUOUS
  0
LAYER
  2
125
 70
64
 62
253
  6
CONTINUOUS
  0
LAYER
  2
126
 70
64
 62
253
  6
CONTINUOUS
  0
LAYER
  2
127
 70
64
 62
253
  6
CONTINUOUS
  0
LAYER
  2
128
 70
64
 62
253
  6
CONTINUOUS
  0
LAYER
  2
129
 70
64
 62
253
  6
CONTINUOUS
  0
LAYER
  2
130
 70
64
 62
253
  6
CONTINUOUS
  0
LAYER
  2
131
 70
64
 62
253
  6
CONTINUOUS
  0
LAYER
  2
132
 70
64
 62
253
  6
CONTINUOUS
  0
LAYER
  2
133
 70
64
 62
253
  6
CONTINUOUS
  0
LAYER
  2
136
 70
64
 62
253
  6
CONTINUOUS
  0
LAYER
  2
137
 70
64
 62
253
  6
CONTINUOUS
  0
LAYER
  2
138
 70
64
 62
253
  6
CONTINUOUS
  0
LAYER
  2
139
 70
64
 62
253
  6
CONTINUOUS
  0
LAYER
  2
140
 70
64
 62
253
  6
CONTINUOUS
  0
LAYER
  2
141
 70
64
 62
253
  6
CONTINUOUS
  0
LAYER
  2
142
 70
64
 62
253
  6
CONTINUOUS
  0
LAYER
  2
143
 70
64
 62
253
  6
CONTINUOUS
  0
LAYER
  2
144
 70
64
 62
253
  6
CONTINUOUS
  0
LAYER
  2
145
 70
64
 62
253
  6
CONTINUOUS
  0
LAYER
  2
146
 70
64
 62
253
  6
CONTINUOUS
  0
LAYER
  2
147
 70
64
 62
253
  6
CONTINUOUS
  0
LAYER
  2
148
 70
64
 62
253
  6
CONTINUOUS
  0
LAYER
  2
149
 70
64
 62
253
  6
CONTINUOUS
  0
LAYER
  2
150
 70
64
 62
253
  6
CONTINUOUS
  0
LAYER
  2
151
 70
64
 62
253
  6
CONTINUOUS
  0
LAYER
  2
152
 70
64
 62
253
  6
CONTINUOUS
  0
LAYER
  2
191
 70
64
 62
253
  6
CONTINUOUS
  0
LAYER
  2
192
 70
64
 62
253
  6
CONTINUOUS
  0
LAYER
  2
193
 70
64
 62
253
  6
CONTINUOUS
  0
LAYER
  2
194
 70
64
 62
253
  6
CONTINUOUS
  0
LAYER
  2
195
 70
64
 62
253
  6
CONTINUOUS
  0
LAYER
  2
196
 70
64
 62
253
  6
CONTINUOUS
  0
LAYER
  2
199
 70
64
 62
253
  6
CONTINUOUS
  0
LAYER
  2
200
 70
64
 62
132
  6
CONTINUOUS
  0
LAYER
  2
203
 70
64
 62
12
  6
CONTINUOUS
  0
LAYER
  2
204
 70
64
 62
40
  6
CONTINUOUS
  0
LAYER
  2
205
 70
64
 62
53
  6
CONTINUOUS
  0
LAYER
  2
206
 70
64
 62
253
  6
CONTINUOUS
  0
LAYER
  2
207
 70
64
 62
59
  6
CONTINUOUS
  0
LAYER
  2
208
 70
64
 62
5
  6
CONTINUOUS
  0
LAYER
  2
209
 70
64
 62
253
  6
CONTINUOUS
  0
LAYER
  2
210
 70
64
 62
253
  6
CONTINUOUS
  0
LAYER
  2
211
 70
64
 62
253
  6
CONTINUOUS
  0
LAYER
  2
212
 70
64
 62
253
  6
CONTINUOUS
  0
LAYER
  2
213
 70
64
 62
253
  6
CONTINUOUS
  0
LAYER
  2
214
 70
64
 62
253
  6
CONTINUOUS
  0
LAYER
  2
215
 70
64
 62
253
  6
CONTINUOUS
  0
LAYER
  2
216
 70
64
 62
253
  6
CONTINUOUS
  0
LAYER
  2
225
 70
64
 62
253
  6
CONTINUOUS
  0
LAYER
  2
226
 70
64
 62
253
  6
CONTINUOUS
  0
LAYER
  2
227
 70
64
 62
253
  6
CONTINUOUS
  0
LAYER
  2
228
 70
64
 62
253
  6
CONTINUOUS
  0
LAYER
  2
229
 70
64
 62
253
  6
CONTINUOUS
  0
LAYER
  2
230
 70
64
 62
253
  6
CONTINUOUS
  0
LAYER
  2
248
 70
64
 62
253
  6
CONTINUOUS
  0
LAYER
  2
249
 70
64
 62
253
  6
CONTINUOUS
  0
LAYER
  2
254
 70
64
 62
253
  6
CONTINUOUS
  0
LAYER
  2
255
 70
64
 62
253
  6
CONTINUOUS
  0
ENDTAB
  0
ENDSEC
  0
SECTION
  2
BLOCKS
  0
BLOCK
  8
0
  2
RECT
 70
64
 10
0.0000
 20
0.0000
 30
0.0000
  3
RECT
  0
SOLID
  8
0
 10
-0.5000
 20
-0.5000
 30
0.0000
 11
0.5000
 21
-0.5000
 31
0.0000
 12
-0.5000
 22
0.5000
 32
0.0000
 13
0.5000
 23
0.5000
 33
0.0000
  0
ENDBLK
  8
0
  0
BLOCK
  8
0
  2
PIE
 70
64
 10
0.0000
 20
0.0000
 30
0.0000
  3
PIE
  0
POLYLINE
  8
0
 66
1
 10
0.0000
 20
0.0000
 30
0.0000
 40
0.5000
 41
0.5000
 70
0
  0
VERTEX
  8
0
 10
0.0000
 20
-0.2500
 30
0.0000
 42
1.0000
  0
VERTEX
  8
0
 10
0.0000
 20
0.2500
 30
0.0000
 42
1.0000
  0
VERTEX
  8
0
 10
0.0000
 20
-0.2500
 30
0.0000
  0
SEQEND
  8
0
  0
ENDBLK
  8
0
  0
BLOCK
  8
0
  2
OCTAGONP
 70
64
 10
0.0000
 20
0.0000
 30
0.0000
  3
OCTAGONP
  0
POLYLINE
  8
0
 66
1
 10
0.0000
 20
0.0000
 30
0.0000
 40
0.5000
 41
0.5000
 70
0
  0
VERTEX
  8
0
 10
-0.2500
 20
-0.1036
 30
0.0000
  0
VERTEX
  8
0
 10
-0.2500
 20
0.1036
 30
0.0000
  0
VERTEX
  8
0
 10
-0.1036
 20
0.2500
 30
0.0000
  0
VERTEX
  8
0
 10
0.1036
 20
0.2500
 30
0.0000
  0
VERTEX
  8
0
 10
0.2500
 20
0.1036
 30
0.0000
  0
VERTEX
  8
0
 10
0.2500
 20
-0.1036
 30
0.0000
  0
VERTEX
  8
0
 10
0.1036
 20
-0.2500
 30
0.0000
  0
VERTEX
  8
0
 10
-0.1036
 20
-0.2500
 30
0.0000
  0
VERTEX
  8
0
 10
-0.2500
 20
-0.1036
 30
0.0000
  0
VERTEX
  8
0
 10
-0.2500
 20
0.1036
 30
0.0000
  0
SEQEND
  8
0
  0
ENDBLK
  8
0
  0
BLOCK
  8
0
  2
SQUAREP
 70
64
 10
0.0000
 20
0.0000
 30
0.0000
  3
SQUAREP
  0
SOLID
  8
0
 10
-0.5000
 20
-0.5000
 30
0.0000
 11
0.5000
 21
-0.5000
 31
0.0000
 12
-0.5000
 22
0.5000
 32
0.0000
 13
0.5000
 23
0.5000
 33
0.0000
  0
ENDBLK
  8
0
  0
BLOCK
  8
0
  2
ROUNDP
 70
64
 10
0.0000
 20
0.0000
 30
0.0000
  3
ROUNDP
  0
POLYLINE
  8
0
 66
1
 10
0.0000
 20
0.0000
 30
0.0000
 40
0.5000
 41
0.5000
 70
0
  0
VERTEX
  8
0
 10
0.0000
 20
-0.2500
 30
0.0000
 42
1.0000
  0
VERTEX
  8
0
 10
0.0000
 20
0.2500
 30
0.0000
 42
1.0000
  0
VERTEX
  8
0
 10
0.0000
 20
-0.2500
 30
0.0000
  0
SEQEND
  8
0
  0
ENDBLK
  8
0
  0
BLOCK
  8
0
  2
ANNULUSP
 70
64
 10
0.0000
 20
0.0000
 30
0.0000
  3
ANNULUSP
  0
POLYLINE
  8
0
 66
1
 10
0.0000
 20
0.0000
 30
0.0000
 40
0.5000
 41
0.5000
 70
0
  0
VERTEX
  8
0
 10
0.0000
 20
-0.2500
 30
0.0000
 42
1.0000
  0
VERTEX
  8
0
 10
0.0000
 20
0.2500
 30
0.0000
 42
1.0000
  0
VERTEX
  8
0
 10
0.0000
 20
-0.2500
 30
0.0000
  0
SEQEND
  8
0
  0
ENDBLK
  8
0
  0
BLOCK
  8
0
  2
THERMALP
 70
64
 10
0.0000
 20
0.0000
 30
0.0000
  3
THERMALP
  0
POLYLINE
  8
0
 66
1
 10
0.0000
 20
0.0000
 30
0.0000
 40
0.1000
 41
0.1000
 70
0
  0
VERTEX
  8
0
 10
-0.2379
 20
0.4500
 30
0.0000
  0
VERTEX
  8
0
 10
0.2379
 20
0.4500
 30
0.0000
  0
SEQEND
  8
0
  0
POLYLINE
  8
0
 66
1
 10
0.0000
 20
0.0000
 30
0.0000
 40
0.0500
 41
0.0500
 70
0
  0
VERTEX
  8
0
 10
0.2379
 20
0.4250
 30
0.0000
 42
1.0000
  0
VERTEX
  8
0
 10
0.2379
 20
0.4750
 30
0.0000
  0
SEQEND
  8
0
  0
POLYLINE
  8
0
 66
1
 10
0.0000
 20
0.0000
 30
0.0000
 40
0.0500
 41
0.0500
 70
0
  0
VERTEX
  8
0
 10
-0.2379
 20
0.4750
 30
0.0000
 42
1.0000
  0
VERTEX
  8
0
 10
-0.2379
 20
0.4250
 30
0.0000
  0
SEQEND
  8
0
  0
POLYLINE
  8
0
 66
1
 10
0.0000
 20
0.0000
 30
0.0000
 40
0.1000
 41
0.1000
 70
0
  0
VERTEX
  8
0
 10
0.4500
 20
0.2379
 30
0.0000
  0
VERTEX
  8
0
 10
0.4500
 20
-0.2379
 30
0.0000
  0
SEQEND
  8
0
  0
POLYLINE
  8
0
 66
1
 10
0.0000
 20
0.0000
 30
0.0000
 40
0.0500
 41
0.0500
 70
0
  0
VERTEX
  8
0
 10
0.4250
 20
-0.2379
 30
0.0000
 42
1.0000
  0
VERTEX
  8
0
 10
0.4750
 20
-0.2379
 30
0.0000
  0
SEQEND
  8
0
  0
POLYLINE
  8
0
 66
1
 10
0.0000
 20
0.0000
 30
0.0000
 40
0.0500
 41
0.0500
 70
0
  0
VERTEX
  8
0
 10
0.4750
 20
0.2379
 30
0.0000
 42
1.0000
  0
VERTEX
  8
0
 10
0.4250
 20
0.2379
 30
0.0000
  0
SEQEND
  8
0
  0
POLYLINE
  8
0
 66
1
 10
0.0000
 20
0.0000
 30
0.0000
 40
0.1000
 41
0.1000
 70
0
  0
VERTEX
  8
0
 10
0.2379
 20
-0.4500
 30
0.0000
  0
VERTEX
  8
0
 10
-0.2379
 20
-0.4500
 30
0.0000
  0
SEQEND
  8
0
  0
POLYLINE
  8
0
 66
1
 10
0.0000
 20
0.0000
 30
0.0000
 40
0.0500
 41
0.0500
 70
0
  0
VERTEX
  8
0
 10
-0.2379
 20
-0.4250
 30
0.0000
 42
1.0000
  0
VERTEX
  8
0
 10
-0.2379
 20
-0.4750
 30
0.0000
  0
SEQEND
  8
0
  0
POLYLINE
  8
0
 66
1
 10
0.0000
 20
0.0000
 30
0.0000
 40
0.0500
 41
0.0500
 70
0
  0
VERTEX
  8
0
 10
0.2379
 20
-0.4750
 30
0.0000
 42
1.0000
  0
VERTEX
  8
0
 10
0.2379
 20
-0.4250
 30
0.0000
  0
SEQEND
  8
0
  0
POLYLINE
  8
0
 66
1
 10
0.0000
 20
0.0000
 30
0.0000
 40
0.1000
 41
0.1000
 70
0
  0
VERTEX
  8
0
 10
-0.4500
 20
-0.2379
 30
0.0000
  0
VERTEX
  8
0
 10
-0.4500
 20
0.2379
 30
0.0000
  0
SEQEND
  8
0
  0
POLYLINE
  8
0
 66
1
 10
0.0000
 20
0.0000
 30
0.0000
 40
0.0500
 41
0.0500
 70
0
  0
VERTEX
  8
0
 10
-0.4250
 20
0.2379
 30
0.0000
 42
1.0000
  0
VERTEX
  8
0
 10
-0.4750
 20
0.2379
 30
0.0000
  0
SEQEND
  8
0
  0
POLYLINE
  8
0
 66
1
 10
0.0000
 20
0.0000
 30
0.0000
 40
0.0500
 41
0.0500
 70
0
  0
VERTEX
  8
0
 10
-0.4750
 20
-0.2379
 30
0.0000
 42
1.0000
  0
VERTEX
  8
0
 10
-0.4250
 20
-0.2379
 30
0.0000
  0
SEQEND
  8
0
  0
ENDBLK
  8
0
  0
BLOCK
  8
0
  2
OCTAGONV
 70
64
 10
0.0000
 20
0.0000
 30
0.0000
  3
OCTAGONV
  0
POLYLINE
  8
0
 66
1
 10
0.0000
 20
0.0000
 30
0.0000
 40
0.5000
 41
0.5000
 70
0
  0
VERTEX
  8
0
 10
-0.2500
 20
-0.1036
 30
0.0000
  0
VERTEX
  8
0
 10
-0.2500
 20
0.1036
 30
0.0000
  0
VERTEX
  8
0
 10
-0.1036
 20
0.2500
 30
0.0000
  0
VERTEX
  8
0
 10
0.1036
 20
0.2500
 30
0.0000
  0
VERTEX
  8
0
 10
0.2500
 20
0.1036
 30
0.0000
  0
VERTEX
  8
0
 10
0.2500
 20
-0.1036
 30
0.0000
  0
VERTEX
  8
0
 10
0.1036
 20
-0.2500
 30
0.0000
  0
VERTEX
  8
0
 10
-0.1036
 20
-0.2500
 30
0.0000
  0
VERTEX
  8
0
 10
-0.2500
 20
-0.1036
 30
0.0000
  0
VERTEX
  8
0
 10
-0.2500
 20
0.1036
 30
0.0000
  0
SEQEND
  8
0
  0
ENDBLK
  8
0
  0
BLOCK
  8
0
  2
SQUAREV
 70
64
 10
0.0000
 20
0.0000
 30
0.0000
  3
SQUAREV
  0
SOLID
  8
0
 10
-0.5000
 20
-0.5000
 30
0.0000
 11
0.5000
 21
-0.5000
 31
0.0000
 12
-0.5000
 22
0.5000
 32
0.0000
 13
0.5000
 23
0.5000
 33
0.0000
  0
ENDBLK
  8
0
  0
BLOCK
  8
0
  2
ROUNDV
 70
64
 10
0.0000
 20
0.0000
 30
0.0000
  3
ROUNDV
  0
POLYLINE
  8
0
 66
1
 10
0.0000
 20
0.0000
 30
0.0000
 40
0.5000
 41
0.5000
 70
0
  0
VERTEX
  8
0
 10
0.0000
 20
-0.2500
 30
0.0000
 42
1.0000
  0
VERTEX
  8
0
 10
0.0000
 20
0.2500
 30
0.0000
 42
1.0000
  0
VERTEX
  8
0
 10
0.0000
 20
-0.2500
 30
0.0000
  0
SEQEND
  8
0
  0
ENDBLK
  8
0
  0
BLOCK
  8
0
  2
ANNULUSV
 70
64
 10
0.0000
 20
0.0000
 30
0.0000
  3
ANNULUSV
  0
POLYLINE
  8
0
 66
1
 10
0.0000
 20
0.0000
 30
0.0000
 40
0.5000
 41
0.5000
 70
0
  0
VERTEX
  8
0
 10
0.0000
 20
-0.2500
 30
0.0000
 42
1.0000
  0
VERTEX
  8
0
 10
0.0000
 20
0.2500
 30
0.0000
 42
1.0000
  0
VERTEX
  8
0
 10
0.0000
 20
-0.2500
 30
0.0000
  0
SEQEND
  8
0
  0
ENDBLK
  8
0
  0
BLOCK
  8
0
  2
THERMALV
 70
64
 10
0.0000
 20
0.0000
 30
0.0000
  3
THERMALV
  0
POLYLINE
  8
0
 66
1
 10
0.0000
 20
0.0000
 30
0.0000
 40
0.1000
 41
0.1000
 70
0
  0
VERTEX
  8
0
 10
-0.2379
 20
0.4500
 30
0.0000
  0
VERTEX
  8
0
 10
0.2379
 20
0.4500
 30
0.0000
  0
SEQEND
  8
0
  0
POLYLINE
  8
0
 66
1
 10
0.0000
 20
0.0000
 30
0.0000
 40
0.0500
 41
0.0500
 70
0
  0
VERTEX
  8
0
 10
0.2379
 20
0.4250
 30
0.0000
 42
1.0000
  0
VERTEX
  8
0
 10
0.2379
 20
0.4750
 30
0.0000
  0
SEQEND
  8
0
  0
POLYLINE
  8
0
 66
1
 10
0.0000
 20
0.0000
 30
0.0000
 40
0.0500
 41
0.0500
 70
0
  0
VERTEX
  8
0
 10
-0.2379
 20
0.4750
 30
0.0000
 42
1.0000
  0
VERTEX
  8
0
 10
-0.2379
 20
0.4250
 30
0.0000
  0
SEQEND
  8
0
  0
POLYLINE
  8
0
 66
1
 10
0.0000
 20
0.0000
 30
0.0000
 40
0.1000
 41
0.1000
 70
0
  0
VERTEX
  8
0
 10
0.4500
 20
0.2379
 30
0.0000
  0
VERTEX
  8
0
 10
0.4500
 20
-0.2379
 30
0.0000
  0
SEQEND
  8
0
  0
POLYLINE
  8
0
 66
1
 10
0.0000
 20
0.0000
 30
0.0000
 40
0.0500
 41
0.0500
 70
0
  0
VERTEX
  8
0
 10
0.4250
 20
-0.2379
 30
0.0000
 42
1.0000
  0
VERTEX
  8
0
 10
0.4750
 20
-0.2379
 30
0.0000
  0
SEQEND
  8
0
  0
POLYLINE
  8
0
 66
1
 10
0.0000
 20
0.0000
 30
0.0000
 40
0.0500
 41
0.0500
 70
0
  0
VERTEX
  8
0
 10
0.4750
 20
0.2379
 30
0.0000
 42
1.0000
  0
VERTEX
  8
0
 10
0.4250
 20
0.2379
 30
0.0000
  0
SEQEND
  8
0
  0
POLYLINE
  8
0
 66
1
 10
0.0000
 20
0.0000
 30
0.0000
 40
0.1000
 41
0.1000
 70
0
  0
VERTEX
  8
0
 10
0.2379
 20
-0.4500
 30
0.0000
  0
VERTEX
  8
0
 10
-0.2379
 20
-0.4500
 30
0.0000
  0
SEQEND
  8
0
  0
POLYLINE
  8
0
 66
1
 10
0.0000
 20
0.0000
 30
0.0000
 40
0.0500
 41
0.0500
 70
0
  0
VERTEX
  8
0
 10
-0.2379
 20
-0.4250
 30
0.0000
 42
1.0000
  0
VERTEX
  8
0
 10
-0.2379
 20
-0.4750
 30
0.0000
  0
SEQEND
  8
0
  0
POLYLINE
  8
0
 66
1
 10
0.0000
 20
0.0000
 30
0.0000
 40
0.0500
 41
0.0500
 70
0
  0
VERTEX
  8
0
 10
0.2379
 20
-0.4750
 30
0.0000
 42
1.0000
  0
VERTEX
  8
0
 10
0.2379
 20
-0.4250
 30
0.0000
  0
SEQEND
  8
0
  0
POLYLINE
  8
0
 66
1
 10
0.0000
 20
0.0000
 30
0.0000
 40
0.1000
 41
0.1000
 70
0
  0
VERTEX
  8
0
 10
-0.4500
 20
-0.2379
 30
0.0000
  0
VERTEX
  8
0
 10
-0.4500
 20
0.2379
 30
0.0000
  0
SEQEND
  8
0
  0
POLYLINE
  8
0
 66
1
 10
0.0000
 20
0.0000
 30
0.0000
 40
0.0500
 41
0.0500
 70
0
  0
VERTEX
  8
0
 10
-0.4250
 20
0.2379
 30
0.0000
 42
1.0000
  0
VERTEX
  8
0
 10
-0.4750
 20
0.2379
 30
0.0000
  0
SEQEND
  8
0
  0
POLYLINE
  8
0
 66
1
 10
0.0000
 20
0.0000
 30
0.0000
 40
0.0500
 41
0.0500
 70
0
  0
VERTEX
  8
0
 10
-0.4750
 20
-0.2379
 30
0.0000
 42
1.0000
  0
VERTEX
  8
0
 10
-0.4250
 20
-0.2379
 30
0.0000
  0
SEQEND
  8
0
  0
ENDBLK
  8
0
  0
BLOCK
  8
0
  2
LONGP100
 70
64
 10
0.0000
 20
0.0000
 30
0.0000
  3
LONGP100
  0
POLYLINE
  8
0
 66
1
 10
0.0000
 20
0.0000
 30
0.0000
 40
1.0000
 41
1.0000
 70
0
  0
VERTEX
  8
0
 10
-0.5000
 20
0.0000
 30
0.0000
  0
VERTEX
  8
0
 10
0.5000
 20
0.0000
 30
0.0000
  0
SEQEND
  8
0
  0
POLYLINE
  8
0
 66
1
 10
0.0000
 20
0.0000
 30
0.0000
 40
0.5000
 41
0.5000
 70
0
  0
VERTEX
  8
0
 10
0.5000
 20
-0.2500
 30
0.0000
 42
1.0000
  0
VERTEX
  8
0
 10
0.5000
 20
0.2500
 30
0.0000
  0
SEQEND
  8
0
  0
POLYLINE
  8
0
 66
1
 10
0.0000
 20
0.0000
 30
0.0000
 40
0.5000
 41
0.5000
 70
0
  0
VERTEX
  8
0
 10
-0.5000
 20
0.2500
 30
0.0000
 42
1.0000
  0
VERTEX
  8
0
 10
-0.5000
 20
-0.2500
 30
0.0000
  0
SEQEND
  8
0
  0
ENDBLK
  8
0
  0
BLOCK
  8
0
  2
RECT208000X96000R17
 70
64
 10
0.0000
 20
0.0000
 30
0.0000
  3
RECT208000X96000R17
  0
POLYLINE
  8
0
 66
1
 10
0.0000
 20
0.0000
 30
0.0000
 40
0.0510
 41
0.0510
 70
1
  0
VERTEX
  8
0
 10
0.6245
 20
-0.2490
 30
0.0000
  0
VERTEX
  8
0
 10
0.6245
 20
0.2490
 30
0.0000
 42
0.4142
  0
VERTEX
  8
0
 10
0.5990
 20
0.2745
 30
0.0000
  0
VERTEX
  8
0
 10
-0.5990
 20
0.2745
 30
0.0000
 42
0.4142
  0
VERTEX
  8
0
 10
-0.6245
 20
0.2490
 30
0.0000
  0
VERTEX
  8
0
 10
-0.6245
 20
-0.2490
 30
0.0000
 42
0.4142
  0
VERTEX
  8
0
 10
-0.5990
 20
-0.2745
 30
0.0000
  0
VERTEX
  8
0
 10
0.5990
 20
-0.2745
 30
0.0000
 42
0.4142
  0
SEQEND
  8
0
  0
SOLID
  8
0
 10
-0.6118
 20
-0.2618
 30
0.0000
 11
0.6118
 21
-0.2618
 31
0.0000
 12
-0.6118
 22
0.2618
 32
0.0000
 13
0.6118
 23
0.2618
 33
0.0000
  0
ENDBLK
  8
0
  0
ENDSEC
  0
SECTION
  2
ENTITIES
  0
POLYLINE
  8
20
 66
1
 10
0.0000
 20
0.0000
 30
0.0000
 40
0.0010
 41
0.0010
 70
0
  0
VERTEX
  8
20
 10
27.8820
 20
28.2190
 30
0.0000
  0
VERTEX
  8
20
 10
27.8820
 20
0.2100
 30
0.0000
  0
SEQEND
  8
0
  0
POLYLINE
  8
20
 66
1
 10
0.0000
 20
0.0000
 30
0.0000
 40
0.0005
 41
0.0005
 70
0
  0
VERTEX
  8
20
 10
27.8818
 20
0.2100
 30
0.0000
 42
1.0000
  0
VERTEX
  8
20
 10
27.8823
 20
0.2100
 30
0.0000
  0
SEQEND
  8
0
  0
POLYLINE
  8
20
 66
1
 10
0.0000
 20
0.0000
 30
0.0000
 40
0.0005
 41
0.0005
 70
0
  0
VERTEX
  8
20
 10
27.8823
 20
28.2190
 30
0.0000
 42
1.0000
  0
VERTEX
  8
20
 10
27.8818
 20
28.2190
 30
0.0000
  0
SEQEND
  8
0
  0
POLYLINE
  8
20
 66
1
 10
0.0000
 20
0.0000
 30
0.0000
 40
0.0010
 41
0.0010
 70
0
  0
VERTEX
  8
20
 10
27.8820
 20
0.2100
 30
0.0000
  0
VERTEX
  8
20
 10
-0.1390
 20
0.2100
 30
0.0000
  0
SEQEND
  8
0
  0
POLYLINE
  8
20
 66
1
 10
0.0000
 20
0.0000
 30
0.0000
 40
0.0005
 41
0.0005
 70
0
  0
VERTEX
  8
20
 10
-0.1390
 20
0.2103
 30
0.0000
 42
1.0000
  0
VERTEX
  8
20
 10
-0.1390
 20
0.2098
 30
0.0000
  0
SEQEND
  8
0
  0
POLYLINE
  8
20
 66
1
 10
0.0000
 20
0.0000
 30
0.0000
 40
0.0005
 41
0.0005
 70
0
  0
VERTEX
  8
20
 10
27.8820
 20
0.2098
 30
0.0000
 42
1.0000
  0
VERTEX
  8
20
 10
27.8820
 20
0.2103
 30
0.0000
  0
SEQEND
  8
0
  0
POLYLINE
  8
20
 66
1
 10
0.0000
 20
0.0000
 30
0.0000
 40
0.0010
 41
0.0010
 70
0
  0
VERTEX
  8
20
 10
-0.1390
 20
0.2100
 30
0.0000
  0
VERTEX
  8
20
 10
-0.1390
 20
28.2190
 30
0.0000
  0
SEQEND
  8
0
  0
POLYLINE
  8
20
 66
1
 10
0.0000
 20
0.0000
 30
0.0000
 40
0.0005
 41
0.0005
 70
0
  0
VERTEX
  8
20
 10
-0.1388
 20
28.2190
 30
0.0000
 42
1.0000
  0
VERTEX
  8
20
 10
-0.1393
 20
28.2190
 30
0.0000
  0
SEQEND
  8
0
  0
POLYLINE
  8
20
 66
1
 10
0.0000
 20
0.0000
 30
0.0000
 40
0.0005
 41
0.0005
 70
0
  0
VERTEX
  8
20
 10
-0.1393
 20
0.2100
 30
0.0000
 42
1.0000
  0
VERTEX
  8
20
 10
-0.1388
 20
0.2100
 30
0.0000
  0
SEQEND
  8
0
  0
POLYLINE
  8
20
 66
1
 10
0.0000
 20
0.0000
 30
0.0000
 40
0.0010
 41
0.0010
 70
0
  0
VERTEX
  8
20
 10
-0.1390
 20
28.2190
 30
0.0000
  0
VERTEX
  8
20
 10
27.8820
 20
28.2190
 30
0.0000
  0
SEQEND
  8
0
  0
POLYLINE
  8
20
 66
1
 10
0.0000
 20
0.0000
 30
0.0000
 40
0.0005
 41
0.0005
 70
0
  0
VERTEX
  8
20
 10
27.8820
 20
28.2188
 30
0.0000
 42
1.0000
  0
VERTEX
  8
20
 10
27.8820
 20
28.2193
 30
0.0000
  0
SEQEND
  8
0
  0
POLYLINE
  8
20
 66
1
 10
0.0000
 20
0.0000
 30
0.0000
 40
0.0005
 41
0.0005
 70
0
  0
VERTEX
  8
20
 10
-0.1390
 20
28.2193
 30
0.0000
 42
1.0000
  0
VERTEX
  8
20
 10
-0.1390
 20
28.2188
 30
0.0000
  0
SEQEND
  8
0
  0
POLYLINE
  8
48
 66
1
 10
0.0000
 20
0.0000
 30
0.0000
 40
0.0010
 41
0.0010
 70
0
  0
VERTEX
  8
48
 10
22.6110
 20
21.0070
 30
0.0000
  0
VERTEX
  8
48
 10
23.6310
 20
21.0070
 30
0.0000
  0
SEQEND
  8
0
  0
POLYLINE
  8
48
 66
1
 10
0.0000
 20
0.0000
 30
0.0000
 40
0.0005
 41
0.0005
 70
0
  0
VERTEX
  8
48
 10
23.6310
 20
21.0068
 30
0.0000
 42
1.0000
  0
VERTEX
  8
48
 10
23.6310
 20
21.0073
 30
0.0000
  0
SEQEND
  8
0
  0
POLYLINE
  8
48
 66
1
 10
0.0000
 20
0.0000
 30
0.0000
 40
0.0005
 41
0.0005
 70
0
  0
VERTEX
  8
48
 10
22.6110
 20
21.0073
 30
0.0000
 42
1.0000
  0
VERTEX
  8
48
 10
22.6110
 20
21.0068
 30
0.0000
  0
SEQEND
  8
0
  0
POLYLINE
  8
48
 66
1
 10
0.0000
 20
0.0000
 30
0.0000
 40
0.0010
 41
0.0010
 70
0
  0
VERTEX
  8
48
 10
22.6110
 20
19.9370
 30
0.0000
  0
VERTEX
  8
48
 10
23.6310
 20
19.9370
 30
0.0000
  0
SEQEND
  8
0
  0
POLYLINE
  8
48
 66
1
 10
0.0000
 20
0.0000
 30
0.0000
 40
0.0005
 41
0.0005
 70
0
  0
VERTEX
  8
48
 10
23.6310
 20
19.9367
 30
0.0000
 42
1.0000
  0
VERTEX
  8
48
 10
23.6310
 20
19.9373
 30
0.0000
  0
SEQEND
  8
0
  0
POLYLINE
  8
48
 66
1
 10
0.0000
 20
0.0000
 30
0.0000
 40
0.0005
 41
0.0005
 70
0
  0
VERTEX
  8
48
 10
22.6110
 20
19.9373
 30
0.0000
 42
1.0000
  0
VERTEX
  8
48
 10
22.6110
 20
19.9367
 30
0.0000
  0
SEQEND
  8
0
  0
POLYLINE
  8
48
 66
1
 10
0.0000
 20
0.0000
 30
0.0000
 40
0.0010
 41
0.0010
 70
0
  0
VERTEX
  8
48
 10
21.3067
 20
21.2963
 30
0.0000
  0
VERTEX
  8
48
 10
24.9353
 20
21.2963
 30
0.0000
  0
SEQEND
  8
0
  0
POLYLINE
  8
48
 66
1
 10
0.0000
 20
0.0000
 30
0.0000
 40
0.0005
 41
0.0005
 70
0
  0
VERTEX
  8
48
 10
24.9353
 20
21.2961
 30
0.0000
 42
1.0000
  0
VERTEX
  8
48
 10
24.9353
 20
21.2966
 30
0.0000
  0
SEQEND
  8
0
  0
POLYLINE
  8
48
 66
1
 10
0.0000
 20
0.0000
 30
0.0000
 40
0.0005
 41
0.0005
 70
0
  0
VERTEX
  8
48
 10
21.3067
 20
21.2966
 30
0.0000
 42
1.0000
  0
VERTEX
  8
48
 10
21.3067
 20
21.2961
 30
0.0000
  0
SEQEND
  8
0
  0
POLYLINE
  8
48
 66
1
 10
0.0000
 20
0.0000
 30
0.0000
 40
0.0010
 41
0.0010
 70
0
  0
VERTEX
  8
48
 10
24.9353
 20
21.2963
 30
0.0000
  0
VERTEX
  8
48
 10
24.9353
 20
19.6477
 30
0.0000
  0
SEQEND
  8
0
  0
POLYLINE
  8
48
 66
1
 10
0.0000
 20
0.0000
 30
0.0000
 40
0.0005
 41
0.0005
 70
0
  0
VERTEX
  8
48
 10
24.9351
 20
19.6477
 30
0.0000
 42
1.0000
  0
VERTEX
  8
48
 10
24.9356
 20
19.6477
 30
0.0000
  0
SEQEND
  8
0
  0
POLYLINE
  8
48
 66
1
 10
0.0000
 20
0.0000
 30
0.0000
 40
0.0005
 41
0.0005
 70
0
  0
VERTEX
  8
48
 10
24.9356
 20
21.2963
 30
0.0000
 42
1.0000
  0
VERTEX
  8
48
 10
24.9351
 20
21.2963
 30
0.0000
  0
SEQEND
  8
0
  0
POLYLINE
  8
48
 66
1
 10
0.0000
 20
0.0000
 30
0.0000
 40
0.0010
 41
0.0010
 70
0
  0
VERTEX
  8
48
 10
24.9353
 20
19.6477
 30
0.0000
  0
VERTEX
  8
48
 10
21.3067
 20
19.6477
 30
0.0000
  0
SEQEND
  8
0
  0
POLYLINE
  8
48
 66
1
 10
0.0000
 20
0.0000
 30
0.0000
 40
0.0005
 41
0.0005
 70
0
  0
VERTEX
  8
48
 10
21.3067
 20
19.6480
 30
0.0000
 42
1.0000
  0
VERTEX
  8
48
 10
21.3067
 20
19.6474
 30
0.0000
  0
SEQEND
  8
0
  0
POLYLINE
  8
48
 66
1
 10
0.0000
 20
0.0000
 30
0.0000
 40
0.0005
 41
0.0005
 70
0
  0
VERTEX
  8
48
 10
24.9353
 20
19.6474
 30
0.0000
 42
1.0000
  0
VERTEX
  8
48
 10
24.9353
 20
19.6480
 30
0.0000
  0
SEQEND
  8
0
  0
POLYLINE
  8
48
 66
1
 10
0.0000
 20
0.0000
 30
0.0000
 40
0.0010
 41
0.0010
 70
0
  0
VERTEX
  8
48
 10
21.3067
 20
19.6477
 30
0.0000
  0
VERTEX
  8
48
 10
21.3067
 20
21.2963
 30
0.0000
  0
SEQEND
  8
0
  0
POLYLINE
  8
48
 66
1
 10
0.0000
 20
0.0000
 30
0.0000
 40
0.0005
 41
0.0005
 70
0
  0
VERTEX
  8
48
 10
21.3070
 20
21.2963
 30
0.0000
 42
1.0000
  0
VERTEX
  8
48
 10
21.3064
 20
21.2963
 30
0.0000
  0
SEQEND
  8
0
  0
POLYLINE
  8
48
 66
1
 10
0.0000
 20
0.0000
 30
0.0000
 40
0.0005
 41
0.0005
 70
0
  0
VERTEX
  8
48
 10
21.3064
 20
19.6477
 30
0.0000
 42
1.0000
  0
VERTEX
  8
48
 10
21.3070
 20
19.6477
 30
0.0000
  0
SEQEND
  8
0
  0
POLYLINE
  8
48
 66
1
 10
0.0000
 20
0.0000
 30
0.0000
 40
0.0010
 41
0.0010
 70
0
  0
VERTEX
  8
48
 10
4.2850
 20
8.5250
 30
0.0000
  0
VERTEX
  8
48
 10
5.3050
 20
8.5250
 30
0.0000
  0
SEQEND
  8
0
  0
POLYLINE
  8
48
 66
1
 10
0.0000
 20
0.0000
 30
0.0000
 40
0.0005
 41
0.0005
 70
0
  0
VERTEX
  8
48
 10
5.3050
 20
8.5248
 30
0.0000
 42
1.0000
  0
VERTEX
  8
48
 10
5.3050
 20
8.5252
 30
0.0000
  0
SEQEND
  8
0
  0
POLYLINE
  8
48
 66
1
 10
0.0000
 20
0.0000
 30
0.0000
 40
0.0005
 41
0.0005
 70
0
  0
VERTEX
  8
48
 10
4.2850
 20
8.5252
 30
0.0000
 42
1.0000
  0
VERTEX
  8
48
 10
4.2850
 20
8.5248
 30
0.0000
  0
SEQEND
  8
0
  0
POLYLINE
  8
48
 66
1
 10
0.0000
 20
0.0000
 30
0.0000
 40
0.0010
 41
0.0010
 70
0
  0
VERTEX
  8
48
 10
4.2850
 20
7.4550
 30
0.0000
  0
VERTEX
  8
48
 10
5.3050
 20
7.4550
 30
0.0000
  0
SEQEND
  8
0
  0
POLYLINE
  8
48
 66
1
 10
0.0000
 20
0.0000
 30
0.0000
 40
0.0005
 41
0.0005
 70
0
  0
VERTEX
  8
48
 10
5.3050
 20
7.4547
 30
0.0000
 42
1.0000
  0
VERTEX
  8
48
 10
5.3050
 20
7.4553
 30
0.0000
  0
SEQEND
  8
0
  0
POLYLINE
  8
48
 66
1
 10
0.0000
 20
0.0000
 30
0.0000
 40
0.0005
 41
0.0005
 70
0
  0
VERTEX
  8
48
 10
4.2850
 20
7.4553
 30
0.0000
 42
1.0000
  0
VERTEX
  8
48
 10
4.2850
 20
7.4547
 30
0.0000
  0
SEQEND
  8
0
  0
POLYLINE
  8
48
 66
1
 10
0.0000
 20
0.0000
 30
0.0000
 40
0.0010
 41
0.0010
 70
0
  0
VERTEX
  8
48
 10
2.9807
 20
8.8143
 30
0.0000
  0
VERTEX
  8
48
 10
6.6093
 20
8.8143
 30
0.0000
  0
SEQEND
  8
0
  0
POLYLINE
  8
48
 66
1
 10
0.0000
 20
0.0000
 30
0.0000
 40
0.0005
 41
0.0005
 70
0
  0
VERTEX
  8
48
 10
6.6093
 20
8.8141
 30
0.0000
 42
1.0000
  0
VERTEX
  8
48
 10
6.6093
 20
8.8146
 30
0.0000
  0
SEQEND
  8
0
  0
POLYLINE
  8
48
 66
1
 10
0.0000
 20
0.0000
 30
0.0000
 40
0.0005
 41
0.0005
 70
0
  0
VERTEX
  8
48
 10
2.9807
 20
8.8146
 30
0.0000
 42
1.0000
  0
VERTEX
  8
48
 10
2.9807
 20
8.8141
 30
0.0000
  0
SEQEND
  8
0
  0
POLYLINE
  8
48
 66
1
 10
0.0000
 20
0.0000
 30
0.0000
 40
0.0010
 41
0.0010
 70
0
  0
VERTEX
  8
48
 10
6.6093
 20
8.8143
 30
0.0000
  0
VERTEX
  8
48
 10
6.6093
 20
7.1657
 30
0.0000
  0
SEQEND
  8
0
  0
POLYLINE
  8
48
 66
1
 10
0.0000
 20
0.0000
 30
0.0000
 40
0.0005
 41
0.0005
 70
0
  0
VERTEX
  8
48
 10
6.6090
 20
7.1657
 30
0.0000
 42
1.0000
  0
VERTEX
  8
48
 10
6.6096
 20
7.1657
 30
0.0000
  0
SEQEND
  8
0
  0
POLYLINE
  8
48
 66
1
 10
0.0000
 20
0.0000
 30
0.0000
 40
0.0005
 41
0.0005
 70
0
  0
VERTEX
  8
48
 10
6.6096
 20
8.8143
 30
0.0000
 42
1.0000
  0
VERTEX
  8
48
 10
6.6090
 20
8.8143
 30
0.0000
  0
SEQEND
  8
0
  0
POLYLINE
  8
48
 66
1
 10
0.0000
 20
0.0000
 30
0.0000
 40
0.0010
 41
0.0010
 70
0
  0
VERTEX
  8
48
 10
6.6093
 20
7.1657
 30
0.0000
  0
VERTEX
  8
48
 10
2.9807
 20
7.1657
 30
0.0000
  0
SEQEND
  8
0
  0
POLYLINE
  8
48
 66
1
 10
0.0000
 20
0.0000
 30
0.0000
 40
0.0005
 41
0.0005
 70
0
  0
VERTEX
  8
48
 10
2.9807
 20
7.1660
 30
0.0000
 42
1.0000
  0
VERTEX
  8
48
 10
2.9807
 20
7.1654
 30
0.0000
  0
SEQEND
  8
0
  0
POLYLINE
  8
48
 66
1
 10
0.0000
 20
0.0000
 30
0.0000
 40
0.0005
 41
0.0005
 70
0
  0
VERTEX
  8
48
 10
6.6093
 20
7.1654
 30
0.0000
 42
1.0000
  0
VERTEX
  8
48
 10
6.6093
 20
7.1660
 30
0.0000
  0
SEQEND
  8
0
  0
POLYLINE
  8
48
 66
1
 10
0.0000
 20
0.0000
 30
0.0000
 40
0.0010
 41
0.0010
 70
0
  0
VERTEX
  8
48
 10
2.9807
 20
7.1657
 30
0.0000
  0
VERTEX
  8
48
 10
2.9807
 20
8.8143
 30
0.0000
  0
SEQEND
  8
0
  0
POLYLINE
  8
48
 66
1
 10
0.0000
 20
0.0000
 30
0.0000
 40
0.0005
 41
0.0005
 70
0
  0
VERTEX
  8
48
 10
2.9809
 20
8.8143
 30
0.0000
 42
1.0000
  0
VERTEX
  8
48
 10
2.9805
 20
8.8143
 30
0.0000
  0
SEQEND
  8
0
  0
POLYLINE
  8
48
 66
1
 10
0.0000
 20
0.0000
 30
0.0000
 40
0.0005
 41
0.0005
 70
0
  0
VERTEX
  8
48
 10
2.9805
 20
7.1657
 30
0.0000
 42
1.0000
  0
VERTEX
  8
48
 10
2.9809
 20
7.1657
 30
0.0000
  0
SEQEND
  8
0
  0
POLYLINE
  8
48
 66
1
 10
0.0000
 20
0.0000
 30
0.0000
 40
0.0010
 41
0.0010
 70
0
  0
VERTEX
  8
48
 10
4.1770
 20
21.0650
 30
0.0000
  0
VERTEX
  8
48
 10
5.1970
 20
21.0650
 30
0.0000
  0
SEQEND
  8
0
  0
POLYLINE
  8
48
 66
1
 10
0.0000
 20
0.0000
 30
0.0000
 40
0.0005
 41
0.0005
 70
0
  0
VERTEX
  8
48
 10
5.1970
 20
21.0648
 30
0.0000
 42
1.0000
  0
VERTEX
  8
48
 10
5.1970
 20
21.0653
 30
0.0000
  0
SEQEND
  8
0
  0
POLYLINE
  8
48
 66
1
 10
0.0000
 20
0.0000
 30
0.0000
 40
0.0005
 41
0.0005
 70
0
  0
VERTEX
  8
48
 10
4.1770
 20
21.0653
 30
0.0000
 42
1.0000
  0
VERTEX
  8
48
 10
4.1770
 20
21.0648
 30
0.0000
  0
SEQEND
  8
0
  0
POLYLINE
  8
48
 66
1
 10
0.0000
 20
0.0000
 30
0.0000
 40
0.0010
 41
0.0010
 70
0
  0
VERTEX
  8
48
 10
4.1770
 20
19.9950
 30
0.0000
  0
VERTEX
  8
48
 10
5.1970
 20
19.9950
 30
0.0000
  0
SEQEND
  8
0
  0
POLYLINE
  8
48
 66
1
 10
0.0000
 20
0.0000
 30
0.0000
 40
0.0005
 41
0.0005
 70
0
  0
VERTEX
  8
48
 10
5.1970
 20
19.9947
 30
0.0000
 42
1.0000
  0
VERTEX
  8
48
 10
5.1970
 20
19.9953
 30
0.0000
  0
SEQEND
  8
0
  0
POLYLINE
  8
48
 66
1
 10
0.0000
 20
0.0000
 30
0.0000
 40
0.0005
 41
0.0005
 70
0
  0
VERTEX
  8
48
 10
4.1770
 20
19.9953
 30
0.0000
 42
1.0000
  0
VERTEX
  8
48
 10
4.1770
 20
19.9947
 30
0.0000
  0
SEQEND
  8
0
  0
POLYLINE
  8
48
 66
1
 10
0.0000
 20
0.0000
 30
0.0000
 40
0.0010
 41
0.0010
 70
0
  0
VERTEX
  8
48
 10
2.8727
 20
21.3543
 30
0.0000
  0
VERTEX
  8
48
 10
6.5013
 20
21.3543
 30
0.0000
  0
SEQEND
  8
0
  0
POLYLINE
  8
48
 66
1
 10
0.0000
 20
0.0000
 30
0.0000
 40
0.0005
 41
0.0005
 70
0
  0
VERTEX
  8
48
 10
6.5013
 20
21.3541
 30
0.0000
 42
1.0000
  0
VERTEX
  8
48
 10
6.5013
 20
21.3546
 30
0.0000
  0
SEQEND
  8
0
  0
POLYLINE
  8
48
 66
1
 10
0.0000
 20
0.0000
 30
0.0000
 40
0.0005
 41
0.0005
 70
0
  0
VERTEX
  8
48
 10
2.8727
 20
21.3546
 30
0.0000
 42
1.0000
  0
VERTEX
  8
48
 10
2.8727
 20
21.3541
 30
0.0000
  0
SEQEND
  8
0
  0
POLYLINE
  8
48
 66
1
 10
0.0000
 20
0.0000
 30
0.0000
 40
0.0010
 41
0.0010
 70
0
  0
VERTEX
  8
48
 10
6.5013
 20
21.3543
 30
0.0000
  0
VERTEX
  8
48
 10
6.5013
 20
19.7057
 30
0.0000
  0
SEQEND
  8
0
  0
POLYLINE
  8
48
 66
1
 10
0.0000
 20
0.0000
 30
0.0000
 40
0.0005
 41
0.0005
 70
0
  0
VERTEX
  8
48
 10
6.5011
 20
19.7057
 30
0.0000
 42
1.0000
  0
VERTEX
  8
48
 10
6.5016
 20
19.7057
 30
0.0000
  0
SEQEND
  8
0
  0
POLYLINE
  8
48
 66
1
 10
0.0000
 20
0.0000
 30
0.0000
 40
0.0005
 41
0.0005
 70
0
  0
VERTEX
  8
48
 10
6.5016
 20
21.3543
 30
0.0000
 42
1.0000
  0
VERTEX
  8
48
 10
6.5011
 20
21.3543
 30
0.0000
  0
SEQEND
  8
0
  0
POLYLINE
  8
48
 66
1
 10
0.0000
 20
0.0000
 30
0.0000
 40
0.0010
 41
0.0010
 70
0
  0
VERTEX
  8
48
 10
6.5013
 20
19.7057
 30
0.0000
  0
VERTEX
  8
48
 10
2.8727
 20
19.7057
 30
0.0000
  0
SEQEND
  8
0
  0
POLYLINE
  8
48
 66
1
 10
0.0000
 20
0.0000
 30
0.0000
 40
0.0005
 41
0.0005
 70
0
  0
VERTEX
  8
48
 10
2.8727
 20
19.7060
 30
0.0000
 42
1.0000
  0
VERTEX
  8
48
 10
2.8727
 20
19.7054
 30
0.0000
  0
SEQEND
  8
0
  0
POLYLINE
  8
48
 66
1
 10
0.0000
 20
0.0000
 30
0.0000
 40
0.0005
 41
0.0005
 70
0
  0
VERTEX
  8
48
 10
6.5013
 20
19.7054
 30
0.0000
 42
1.0000
  0
VERTEX
  8
48
 10
6.5013
 20
19.7060
 30
0.0000
  0
SEQEND
  8
0
  0
POLYLINE
  8
48
 66
1
 10
0.0000
 20
0.0000
 30
0.0000
 40
0.0010
 41
0.0010
 70
0
  0
VERTEX
  8
48
 10
2.8727
 20
19.7057
 30
0.0000
  0
VERTEX
  8
48
 10
2.8727
 20
21.3543
 30
0.0000
  0
SEQEND
  8
0
  0
POLYLINE
  8
48
 66
1
 10
0.0000
 20
0.0000
 30
0.0000
 40
0.0005
 41
0.0005
 70
0
  0
VERTEX
  8
48
 10
2.8729
 20
21.3543
 30
0.0000
 42
1.0000
  0
VERTEX
  8
48
 10
2.8725
 20
21.3543
 30
0.0000
  0
SEQEND
  8
0
  0
POLYLINE
  8
48
 66
1
 10
0.0000
 20
0.0000
 30
0.0000
 40
0.0005
 41
0.0005
 70
0
  0
VERTEX
  8
48
 10
2.8725
 20
19.7057
 30
0.0000
 42
1.0000
  0
VERTEX
  8
48
 10
2.8729
 20
19.7057
 30
0.0000
  0
SEQEND
  8
0
  0
POLYLINE
  8
48
 66
1
 10
0.0000
 20
0.0000
 30
0.0000
 40
0.0010
 41
0.0010
 70
0
  0
VERTEX
  8
48
 10
22.4650
 20
8.3650
 30
0.0000
  0
VERTEX
  8
48
 10
23.4850
 20
8.3650
 30
0.0000
  0
SEQEND
  8
0
  0
POLYLINE
  8
48
 66
1
 10
0.0000
 20
0.0000
 30
0.0000
 40
0.0005
 41
0.0005
 70
0
  0
VERTEX
  8
48
 10
23.4850
 20
8.3648
 30
0.0000
 42
1.0000
  0
VERTEX
  8
48
 10
23.4850
 20
8.3652
 30
0.0000
  0
SEQEND
  8
0
  0
POLYLINE
  8
48
 66
1
 10
0.0000
 20
0.0000
 30
0.0000
 40
0.0005
 41
0.0005
 70
0
  0
VERTEX
  8
48
 10
22.4650
 20
8.3652
 30
0.0000
 42
1.0000
  0
VERTEX
  8
48
 10
22.4650
 20
8.3648
 30
0.0000
  0
SEQEND
  8
0
  0
POLYLINE
  8
48
 66
1
 10
0.0000
 20
0.0000
 30
0.0000
 40
0.0010
 41
0.0010
 70
0
  0
VERTEX
  8
48
 10
22.4650
 20
7.2950
 30
0.0000
  0
VERTEX
  8
48
 10
23.4850
 20
7.2950
 30
0.0000
  0
SEQEND
  8
0
  0
POLYLINE
  8
48
 66
1
 10
0.0000
 20
0.0000
 30
0.0000
 40
0.0005
 41
0.0005
 70
0
  0
VERTEX
  8
48
 10
23.4850
 20
7.2947
 30
0.0000
 42
1.0000
  0
VERTEX
  8
48
 10
23.4850
 20
7.2953
 30
0.0000
  0
SEQEND
  8
0
  0
POLYLINE
  8
48
 66
1
 10
0.0000
 20
0.0000
 30
0.0000
 40
0.0005
 41
0.0005
 70
0
  0
VERTEX
  8
48
 10
22.4650
 20
7.2953
 30
0.0000
 42
1.0000
  0
VERTEX
  8
48
 10
22.4650
 20
7.2947
 30
0.0000
  0
SEQEND
  8
0
  0
POLYLINE
  8
48
 66
1
 10
0.0000
 20
0.0000
 30
0.0000
 40
0.0010
 41
0.0010
 70
0
  0
VERTEX
  8
48
 10
21.1607
 20
8.6543
 30
0.0000
  0
VERTEX
  8
48
 10
24.7893
 20
8.6543
 30
0.0000
  0
SEQEND
  8
0
  0
POLYLINE
  8
48
 66
1
 10
0.0000
 20
0.0000
 30
0.0000
 40
0.0005
 41
0.0005
 70
0
  0
VERTEX
  8
48
 10
24.7893
 20
8.6541
 30
0.0000
 42
1.0000
  0
VERTEX
  8
48
 10
24.7893
 20
8.6546
 30
0.0000
  0
SEQEND
  8
0
  0
POLYLINE
  8
48
 66
1
 10
0.0000
 20
0.0000
 30
0.0000
 40
0.0005
 41
0.0005
 70
0
  0
VERTEX
  8
48
 10
21.1607
 20
8.6546
 30
0.0000
 42
1.0000
  0
VERTEX
  8
48
 10
21.1607
 20
8.6541
 30
0.0000
  0
SEQEND
  8
0
  0
POLYLINE
  8
48
 66
1
 10
0.0000
 20
0.0000
 30
0.0000
 40
0.0010
 41
0.0010
 70
0
  0
VERTEX
  8
48
 10
24.7893
 20
8.6543
 30
0.0000
  0
VERTEX
  8
48
 10
24.7893
 20
7.0057
 30
0.0000
  0
SEQEND
  8
0
  0
POLYLINE
  8
48
 66
1
 10
0.0000
 20
0.0000
 30
0.0000
 40
0.0005
 41
0.0005
 70
0
  0
VERTEX
  8
48
 10
24.7890
 20
7.0057
 30
0.0000
 42
1.0000
  0
VERTEX
  8
48
 10
24.7896
 20
7.0057
 30
0.0000
  0
SEQEND
  8
0
  0
POLYLINE
  8
48
 66
1
 10
0.0000
 20
0.0000
 30
0.0000
 40
0.0005
 41
0.0005
 70
0
  0
VERTEX
  8
48
 10
24.7896
 20
8.6543
 30
0.0000
 42
1.0000
  0
VERTEX
  8
48
 10
24.7890
 20
8.6543
 30
0.0000
  0
SEQEND
  8
0
  0
POLYLINE
  8
48
 66
1
 10
0.0000
 20
0.0000
 30
0.0000
 40
0.0010
 41
0.0010
 70
0
  0
VERTEX
  8
48
 10
24.7893
 20
7.0057
 30
0.0000
  0
VERTEX
  8
48
 10
21.1607
 20
7.0057
 30
0.0000
  0
SEQEND
  8
0
  0
POLYLINE
  8
48
 66
1
 10
0.0000
 20
0.0000
 30
0.0000
 40
0.0005
 41
0.0005
 70
0
  0
VERTEX
  8
48
 10
21.1607
 20
7.0060
 30
0.0000
 42
1.0000
  0
VERTEX
  8
48
 10
21.1607
 20
7.0054
 30
0.0000
  0
SEQEND
  8
0
  0
POLYLINE
  8
48
 66
1
 10
0.0000
 20
0.0000
 30
0.0000
 40
0.0005
 41
0.0005
 70
0
  0
VERTEX
  8
48
 10
24.7893
 20
7.0054
 30
0.0000
 42
1.0000
  0
VERTEX
  8
48
 10
24.7893
 20
7.0060
 30
0.0000
  0
SEQEND
  8
0
  0
POLYLINE
  8
48
 66
1
 10
0.0000
 20
0.0000
 30
0.0000
 40
0.0010
 41
0.0010
 70
0
  0
VERTEX
  8
48
 10
21.1607
 20
7.0057
 30
0.0000
  0
VERTEX
  8
48
 10
21.1607
 20
8.6543
 30
0.0000
  0
SEQEND
  8
0
  0
POLYLINE
  8
48
 66
1
 10
0.0000
 20
0.0000
 30
0.0000
 40
0.0005
 41
0.0005
 70
0
  0
VERTEX
  8
48
 10
21.1610
 20
8.6543
 30
0.0000
 42
1.0000
  0
VERTEX
  8
48
 10
21.1605
 20
8.6543
 30
0.0000
  0
SEQEND
  8
0
  0
POLYLINE
  8
48
 66
1
 10
0.0000
 20
0.0000
 30
0.0000
 40
0.0005
 41
0.0005
 70
0
  0
VERTEX
  8
48
 10
21.1605
 20
7.0057
 30
0.0000
 42
1.0000
  0
VERTEX
  8
48
 10
21.1610
 20
7.0057
 30
0.0000
  0
SEQEND
  8
0
  0
POLYLINE
  8
48
 66
1
 10
0.0000
 20
0.0000
 30
0.0000
 40
0.0010
 41
0.0010
 70
0
  0
VERTEX
  8
48
 10
26.5120
 20
16.2260
 30
0.0000
  0
VERTEX
  8
48
 10
26.5120
 20
11.1460
 30
0.0000
  0
SEQEND
  8
0
  0
POLYLINE
  8
48
 66
1
 10
0.0000
 20
0.0000
 30
0.0000
 40
0.0005
 41
0.0005
 70
0
  0
VERTEX
  8
48
 10
26.5117
 20
11.1460
 30
0.0000
 42
1.0000
  0
VERTEX
  8
48
 10
26.5123
 20
11.1460
 30
0.0000
  0
SEQEND
  8
0
  0
POLYLINE
  8
48
 66
1
 10
0.0000
 20
0.0000
 30
0.0000
 40
0.0005
 41
0.0005
 70
0
  0
VERTEX
  8
48
 10
26.5123
 20
16.2260
 30
0.0000
 42
1.0000
  0
VERTEX
  8
48
 10
26.5117
 20
16.2260
 30
0.0000
  0
SEQEND
  8
0
  0
POLYLINE
  8
48
 66
1
 10
0.0000
 20
0.0000
 30
0.0000
 40
0.0010
 41
0.0010
 70
0
  0
VERTEX
  8
48
 10
24.3530
 20
18.0040
 30
0.0000
  0
VERTEX
  8
48
 10
22.9560
 20
18.0040
 30
0.0000
  0
SEQEND
  8
0
  0
POLYLINE
  8
48
 66
1
 10
0.0000
 20
0.0000
 30
0.0000
 40
0.0005
 41
0.0005
 70
0
  0
VERTEX
  8
48
 10
22.9560
 20
18.0043
 30
0.0000
 42
1.0000
  0
VERTEX
  8
48
 10
22.9560
 20
18.0038
 30
0.0000
  0
SEQEND
  8
0
  0
POLYLINE
  8
48
 66
1
 10
0.0000
 20
0.0000
 30
0.0000
 40
0.0005
 41
0.0005
 70
0
  0
VERTEX
  8
48
 10
24.3530
 20
18.0038
 30
0.0000
 42
1.0000
  0
VERTEX
  8
48
 10
24.3530
 20
18.0043
 30
0.0000
  0
SEQEND
  8
0
  0
POLYLINE
  8
48
 66
1
 10
0.0000
 20
0.0000
 30
0.0000
 40
0.0010
 41
0.0010
 70
0
  0
VERTEX
  8
48
 10
22.9560
 20
10.3840
 30
0.0000
  0
VERTEX
  8
48
 10
22.9560
 20
9.3680
 30
0.0000
  0
SEQEND
  8
0
  0
POLYLINE
  8
48
 66
1
 10
0.0000
 20
0.0000
 30
0.0000
 40
0.0005
 41
0.0005
 70
0
  0
VERTEX
  8
48
 10
22.9557
 20
9.3680
 30
0.0000
 42
1.0000
  0
VERTEX
  8
48
 10
22.9563
 20
9.3680
 30
0.0000
  0
SEQEND
  8
0
  0
POLYLINE
  8
48
 66
1
 10
0.0000
 20
0.0000
 30
0.0000
 40
0.0005
 41
0.0005
 70
0
  0
VERTEX
  8
48
 10
22.9563
 20
10.3840
 30
0.0000
 42
1.0000
  0
VERTEX
  8
48
 10
22.9557
 20
10.3840
 30
0.0000
  0
SEQEND
  8
0
  0
POLYLINE
  8
48
 66
1
 10
0.0000
 20
0.0000
 30
0.0000
 40
0.0010
 41
0.0010
 70
0
  0
VERTEX
  8
48
 10
22.9560
 20
9.3680
 30
0.0000
  0
VERTEX
  8
48
 10
24.3530
 20
9.3680
 30
0.0000
  0
SEQEND
  8
0
  0
POLYLINE
  8
48
 66
1
 10
0.0000
 20
0.0000
 30
0.0000
 40
0.0005
 41
0.0005
 70
0
  0
VERTEX
  8
48
 10
24.3530
 20
9.3678
 30
0.0000
 42
1.0000
  0
VERTEX
  8
48
 10
24.3530
 20
9.3682
 30
0.0000
  0
SEQEND
  8
0
  0
POLYLINE
  8
48
 66
1
 10
0.0000
 20
0.0000
 30
0.0000
 40
0.0005
 41
0.0005
 70
0
  0
VERTEX
  8
48
 10
22.9560
 20
9.3682
 30
0.0000
 42
1.0000
  0
VERTEX
  8
48
 10
22.9560
 20
9.3678
 30
0.0000
  0
SEQEND
  8
0
  0
POLYLINE
  8
48
 66
1
 10
0.0000
 20
0.0000
 30
0.0000
 40
0.0010
 41
0.0010
 70
0
  0
VERTEX
  8
48
 10
22.9560
 20
18.0040
 30
0.0000
  0
VERTEX
  8
48
 10
22.9560
 20
16.9880
 30
0.0000
  0
SEQEND
  8
0
  0
POLYLINE
  8
48
 66
1
 10
0.0000
 20
0.0000
 30
0.0000
 40
0.0005
 41
0.0005
 70
0
  0
VERTEX
  8
48
 10
22.9557
 20
16.9880
 30
0.0000
 42
1.0000
  0
VERTEX
  8
48
 10
22.9563
 20
16.9880
 30
0.0000
  0
SEQEND
  8
0
  0
POLYLINE
  8
48
 66
1
 10
0.0000
 20
0.0000
 30
0.0000
 40
0.0005
 41
0.0005
 70
0
  0
VERTEX
  8
48
 10
22.9563
 20
18.0040
 30
0.0000
 42
1.0000
  0
VERTEX
  8
48
 10
22.9557
 20
18.0040
 30
0.0000
  0
SEQEND
  8
0
  0
POLYLINE
  8
48
 66
1
 10
0.0000
 20
0.0000
 30
0.0000
 40
0.0010
 41
0.0010
 70
0
  0
VERTEX
  8
48
 10
4.6280
 20
16.1940
 30
0.0000
  0
VERTEX
  8
48
 10
0.6820
 20
16.1940
 30
0.0000
  0
SEQEND
  8
0
  0
POLYLINE
  8
48
 66
1
 10
0.0000
 20
0.0000
 30
0.0000
 40
0.0005
 41
0.0005
 70
0
  0
VERTEX
  8
48
 10
0.6820
 20
16.1943
 30
0.0000
 42
1.0000
  0
VERTEX
  8
48
 10
0.6820
 20
16.1937
 30
0.0000
  0
SEQEND
  8
0
  0
POLYLINE
  8
48
 66
1
 10
0.0000
 20
0.0000
 30
0.0000
 40
0.0005
 41
0.0005
 70
0
  0
VERTEX
  8
48
 10
4.6280
 20
16.1937
 30
0.0000
 42
1.0000
  0
VERTEX
  8
48
 10
4.6280
 20
16.1943
 30
0.0000
  0
SEQEND
  8
0
  0
POLYLINE
  8
48
 66
1
 10
0.0000
 20
0.0000
 30
0.0000
 40
0.0010
 41
0.0010
 70
0
  0
VERTEX
  8
48
 10
0.6820
 20
18.1600
 30
0.0000
  0
VERTEX
  8
48
 10
4.6280
 20
18.1600
 30
0.0000
  0
SEQEND
  8
0
  0
POLYLINE
  8
48
 66
1
 10
0.0000
 20
0.0000
 30
0.0000
 40
0.0005
 41
0.0005
 70
0
  0
VERTEX
  8
48
 10
4.6280
 20
18.1597
 30
0.0000
 42
1.0000
  0
VERTEX
  8
48
 10
4.6280
 20
18.1603
 30
0.0000
  0
SEQEND
  8
0
  0
POLYLINE
  8
48
 66
1
 10
0.0000
 20
0.0000
 30
0.0000
 40
0.0005
 41
0.0005
 70
0
  0
VERTEX
  8
48
 10
0.6820
 20
18.1603
 30
0.0000
 42
1.0000
  0
VERTEX
  8
48
 10
0.6820
 20
18.1597
 30
0.0000
  0
SEQEND
  8
0
  0
POLYLINE
  8
48
 66
1
 10
0.0000
 20
0.0000
 30
0.0000
 40
0.0010
 41
0.0010
 70
0
  0
VERTEX
  8
48
 10
4.6280
 20
18.1600
 30
0.0000
  0
VERTEX
  8
48
 10
4.6280
 20
16.1940
 30
0.0000
  0
SEQEND
  8
0
  0
POLYLINE
  8
48
 66
1
 10
0.0000
 20
0.0000
 30
0.0000
 40
0.0005
 41
0.0005
 70
0
  0
VERTEX
  8
48
 10
4.6277
 20
16.1940
 30
0.0000
 42
1.0000
  0
VERTEX
  8
48
 10
4.6283
 20
16.1940
 30
0.0000
  0
SEQEND
  8
0
  0
POLYLINE
  8
48
 66
1
 10
0.0000
 20
0.0000
 30
0.0000
 40
0.0005
 41
0.0005
 70
0
  0
VERTEX
  8
48
 10
4.6283
 20
18.1600
 30
0.0000
 42
1.0000
  0
VERTEX
  8
48
 10
4.6277
 20
18.1600
 30
0.0000
  0
SEQEND
  8
0
  0
POLYLINE
  8
48
 66
1
 10
0.0000
 20
0.0000
 30
0.0000
 40
0.0010
 41
0.0010
 70
0
  0
VERTEX
  8
48
 10
0.6820
 20
16.1940
 30
0.0000
  0
VERTEX
  8
48
 10
0.6820
 20
18.1600
 30
0.0000
  0
SEQEND
  8
0
  0
POLYLINE
  8
48
 66
1
 10
0.0000
 20
0.0000
 30
0.0000
 40
0.0005
 41
0.0005
 70
0
  0
VERTEX
  8
48
 10
0.6823
 20
18.1600
 30
0.0000
 42
1.0000
  0
VERTEX
  8
48
 10
0.6818
 20
18.1600
 30
0.0000
  0
SEQEND
  8
0
  0
POLYLINE
  8
48
 66
1
 10
0.0000
 20
0.0000
 30
0.0000
 40
0.0005
 41
0.0005
 70
0
  0
VERTEX
  8
48
 10
0.6818
 20
16.1940
 30
0.0000
 42
1.0000
  0
VERTEX
  8
48
 10
0.6823
 20
16.1940
 30
0.0000
  0
SEQEND
  8
0
  0
POLYLINE
  8
48
 66
1
 10
0.0000
 20
0.0000
 30
0.0000
 40
0.0010
 41
0.0010
 70
0
  0
VERTEX
  8
48
 10
1.9438
 20
16.5420
 30
0.0000
  0
VERTEX
  8
48
 10
3.3662
 20
16.5420
 30
0.0000
  0
SEQEND
  8
0
  0
POLYLINE
  8
48
 66
1
 10
0.0000
 20
0.0000
 30
0.0000
 40
0.0005
 41
0.0005
 70
0
  0
VERTEX
  8
48
 10
3.3662
 20
16.5418
 30
0.0000
 42
1.0000
  0
VERTEX
  8
48
 10
3.3662
 20
16.5423
 30
0.0000
  0
SEQEND
  8
0
  0
POLYLINE
  8
48
 66
1
 10
0.0000
 20
0.0000
 30
0.0000
 40
0.0005
 41
0.0005
 70
0
  0
VERTEX
  8
48
 10
1.9438
 20
16.5423
 30
0.0000
 42
1.0000
  0
VERTEX
  8
48
 10
1.9438
 20
16.5418
 30
0.0000
  0
SEQEND
  8
0
  0
POLYLINE
  8
48
 66
1
 10
0.0000
 20
0.0000
 30
0.0000
 40
0.0010
 41
0.0010
 70
0
  0
VERTEX
  8
48
 10
1.9438
 20
17.8120
 30
0.0000
  0
VERTEX
  8
48
 10
3.3662
 20
17.8120
 30
0.0000
  0
SEQEND
  8
0
  0
POLYLINE
  8
48
 66
1
 10
0.0000
 20
0.0000
 30
0.0000
 40
0.0005
 41
0.0005
 70
0
  0
VERTEX
  8
48
 10
3.3662
 20
17.8117
 30
0.0000
 42
1.0000
  0
VERTEX
  8
48
 10
3.3662
 20
17.8123
 30
0.0000
  0
SEQEND
  8
0
  0
POLYLINE
  8
48
 66
1
 10
0.0000
 20
0.0000
 30
0.0000
 40
0.0005
 41
0.0005
 70
0
  0
VERTEX
  8
48
 10
1.9438
 20
17.8123
 30
0.0000
 42
1.0000
  0
VERTEX
  8
48
 10
1.9438
 20
17.8117
 30
0.0000
  0
SEQEND
  8
0
  0
POLYLINE
  8
48
 66
1
 10
0.0000
 20
0.0000
 30
0.0000
 40
0.0010
 41
0.0010
 70
0
  0
VERTEX
  8
48
 10
8.9460
 20
16.1940
 30
0.0000
  0
VERTEX
  8
48
 10
5.0000
 20
16.1940
 30
0.0000
  0
SEQEND
  8
0
  0
POLYLINE
  8
48
 66
1
 10
0.0000
 20
0.0000
 30
0.0000
 40
0.0005
 41
0.0005
 70
0
  0
VERTEX
  8
48
 10
5.0000
 20
16.1943
 30
0.0000
 42
1.0000
  0
VERTEX
  8
48
 10
5.0000
 20
16.1937
 30
0.0000
  0
SEQEND
  8
0
  0
POLYLINE
  8
48
 66
1
 10
0.0000
 20
0.0000
 30
0.0000
 40
0.0005
 41
0.0005
 70
0
  0
VERTEX
  8
48
 10
8.9460
 20
16.1937
 30
0.0000
 42
1.0000
  0
VERTEX
  8
48
 10
8.9460
 20
16.1943
 30
0.0000
  0
SEQEND
  8
0
  0
POLYLINE
  8
48
 66
1
 10
0.0000
 20
0.0000
 30
0.0000
 40
0.0010
 41
0.0010
 70
0
  0
VERTEX
  8
48
 10
5.0000
 20
18.1600
 30
0.0000
  0
VERTEX
  8
48
 10
8.9460
 20
18.1600
 30
0.0000
  0
SEQEND
  8
0
  0
POLYLINE
  8
48
 66
1
 10
0.0000
 20
0.0000
 30
0.0000
 40
0.0005
 41
0.0005
 70
0
  0
VERTEX
  8
48
 10
8.9460
 20
18.1597
 30
0.0000
 42
1.0000
  0
VERTEX
  8
48
 10
8.9460
 20
18.1603
 30
0.0000
  0
SEQEND
  8
0
  0
POLYLINE
  8
48
 66
1
 10
0.0000
 20
0.0000
 30
0.0000
 40
0.0005
 41
0.0005
 70
0
  0
VERTEX
  8
48
 10
5.0000
 20
18.1603
 30
0.0000
 42
1.0000
  0
VERTEX
  8
48
 10
5.0000
 20
18.1597
 30
0.0000
  0
SEQEND
  8
0
  0
POLYLINE
  8
48
 66
1
 10
0.0000
 20
0.0000
 30
0.0000
 40
0.0010
 41
0.0010
 70
0
  0
VERTEX
  8
48
 10
8.9460
 20
18.1600
 30
0.0000
  0
VERTEX
  8
48
 10
8.9460
 20
16.1940
 30
0.0000
  0
SEQEND
  8
0
  0
POLYLINE
  8
48
 66
1
 10
0.0000
 20
0.0000
 30
0.0000
 40
0.0005
 41
0.0005
 70
0
  0
VERTEX
  8
48
 10
8.9458
 20
16.1940
 30
0.0000
 42
1.0000
  0
VERTEX
  8
48
 10
8.9462
 20
16.1940
 30
0.0000
  0
SEQEND
  8
0
  0
POLYLINE
  8
48
 66
1
 10
0.0000
 20
0.0000
 30
0.0000
 40
0.0005
 41
0.0005
 70
0
  0
VERTEX
  8
48
 10
8.9462
 20
18.1600
 30
0.0000
 42
1.0000
  0
VERTEX
  8
48
 10
8.9458
 20
18.1600
 30
0.0000
  0
SEQEND
  8
0
  0
POLYLINE
  8
48
 66
1
 10
0.0000
 20
0.0000
 30
0.0000
 40
0.0010
 41
0.0010
 70
0
  0
VERTEX
  8
48
 10
5.0000
 20
16.1940
 30
0.0000
  0
VERTEX
  8
48
 10
5.0000
 20
18.1600
 30
0.0000
  0
SEQEND
  8
0
  0
POLYLINE
  8
48
 66
1
 10
0.0000
 20
0.0000
 30
0.0000
 40
0.0005
 41
0.0005
 70
0
  0
VERTEX
  8
48
 10
5.0003
 20
18.1600
 30
0.0000
 42
1.0000
  0
VERTEX
  8
48
 10
4.9997
 20
18.1600
 30
0.0000
  0
SEQEND
  8
0
  0
POLYLINE
  8
48
 66
1
 10
0.0000
 20
0.0000
 30
0.0000
 40
0.0005
 41
0.0005
 70
0
  0
VERTEX
  8
48
 10
4.9997
 20
16.1940
 30
0.0000
 42
1.0000
  0
VERTEX
  8
48
 10
5.0003
 20
16.1940
 30
0.0000
  0
SEQEND
  8
0
  0
POLYLINE
  8
48
 66
1
 10
0.0000
 20
0.0000
 30
0.0000
 40
0.0010
 41
0.0010
 70
0
  0
VERTEX
  8
48
 10
6.2618
 20
16.5420
 30
0.0000
  0
VERTEX
  8
48
 10
7.6842
 20
16.5420
 30
0.0000
  0
SEQEND
  8
0
  0
POLYLINE
  8
48
 66
1
 10
0.0000
 20
0.0000
 30
0.0000
 40
0.0005
 41
0.0005
 70
0
  0
VERTEX
  8
48
 10
7.6842
 20
16.5418
 30
0.0000
 42
1.0000
  0
VERTEX
  8
48
 10
7.6842
 20
16.5423
 30
0.0000
  0
SEQEND
  8
0
  0
POLYLINE
  8
48
 66
1
 10
0.0000
 20
0.0000
 30
0.0000
 40
0.0005
 41
0.0005
 70
0
  0
VERTEX
  8
48
 10
6.2618
 20
16.5423
 30
0.0000
 42
1.0000
  0
VERTEX
  8
48
 10
6.2618
 20
16.5418
 30
0.0000
  0
SEQEND
  8
0
  0
POLYLINE
  8
48
 66
1
 10
0.0000
 20
0.0000
 30
0.0000
 40
0.0010
 41
0.0010
 70
0
  0
VERTEX
  8
48
 10
6.2618
 20
17.8120
 30
0.0000
  0
VERTEX
  8
48
 10
7.6842
 20
17.8120
 30
0.0000
  0
SEQEND
  8
0
  0
POLYLINE
  8
48
 66
1
 10
0.0000
 20
0.0000
 30
0.0000
 40
0.0005
 41
0.0005
 70
0
  0
VERTEX
  8
48
 10
7.6842
 20
17.8117
 30
0.0000
 42
1.0000
  0
VERTEX
  8
48
 10
7.6842
 20
17.8123
 30
0.0000
  0
SEQEND
  8
0
  0
POLYLINE
  8
48
 66
1
 10
0.0000
 20
0.0000
 30
0.0000
 40
0.0005
 41
0.0005
 70
0
  0
VERTEX
  8
48
 10
6.2618
 20
17.8123
 30
0.0000
 42
1.0000
  0
VERTEX
  8
48
 10
6.2618
 20
17.8117
 30
0.0000
  0
SEQEND
  8
0
  0
POLYLINE
  8
48
 66
1
 10
0.0000
 20
0.0000
 30
0.0000
 40
0.0010
 41
0.0010
 70
0
  0
VERTEX
  8
48
 10
4.6280
 20
11.4190
 30
0.0000
  0
VERTEX
  8
48
 10
0.6820
 20
11.4190
 30
0.0000
  0
SEQEND
  8
0
  0
POLYLINE
  8
48
 66
1
 10
0.0000
 20
0.0000
 30
0.0000
 40
0.0005
 41
0.0005
 70
0
  0
VERTEX
  8
48
 10
0.6820
 20
11.4192
 30
0.0000
 42
1.0000
  0
VERTEX
  8
48
 10
0.6820
 20
11.4188
 30
0.0000
  0
SEQEND
  8
0
  0
POLYLINE
  8
48
 66
1
 10
0.0000
 20
0.0000
 30
0.0000
 40
0.0005
 41
0.0005
 70
0
  0
VERTEX
  8
48
 10
4.6280
 20
11.4188
 30
0.0000
 42
1.0000
  0
VERTEX
  8
48
 10
4.6280
 20
11.4192
 30
0.0000
  0
SEQEND
  8
0
  0
POLYLINE
  8
48
 66
1
 10
0.0000
 20
0.0000
 30
0.0000
 40
0.0010
 41
0.0010
 70
0
  0
VERTEX
  8
48
 10
0.6820
 20
13.3850
 30
0.0000
  0
VERTEX
  8
48
 10
4.6280
 20
13.3850
 30
0.0000
  0
SEQEND
  8
0
  0
POLYLINE
  8
48
 66
1
 10
0.0000
 20
0.0000
 30
0.0000
 40
0.0005
 41
0.0005
 70
0
  0
VERTEX
  8
48
 10
4.6280
 20
13.3848
 30
0.0000
 42
1.0000
  0
VERTEX
  8
48
 10
4.6280
 20
13.3852
 30
0.0000
  0
SEQEND
  8
0
  0
POLYLINE
  8
48
 66
1
 10
0.0000
 20
0.0000
 30
0.0000
 40
0.0005
 41
0.0005
 70
0
  0
VERTEX
  8
48
 10
0.6820
 20
13.3852
 30
0.0000
 42
1.0000
  0
VERTEX
  8
48
 10
0.6820
 20
13.3848
 30
0.0000
  0
SEQEND
  8
0
  0
POLYLINE
  8
48
 66
1
 10
0.0000
 20
0.0000
 30
0.0000
 40
0.0010
 41
0.0010
 70
0
  0
VERTEX
  8
48
 10
4.6280
 20
13.3850
 30
0.0000
  0
VERTEX
  8
48
 10
4.6280
 20
11.4190
 30
0.0000
  0
SEQEND
  8
0
  0
POLYLINE
  8
48
 66
1
 10
0.0000
 20
0.0000
 30
0.0000
 40
0.0005
 41
0.0005
 70
0
  0
VERTEX
  8
48
 10
4.6277
 20
11.4190
 30
0.0000
 42
1.0000
  0
VERTEX
  8
48
 10
4.6283
 20
11.4190
 30
0.0000
  0
SEQEND
  8
0
  0
POLYLINE
  8
48
 66
1
 10
0.0000
 20
0.0000
 30
0.0000
 40
0.0005
 41
0.0005
 70
0
  0
VERTEX
  8
48
 10
4.6283
 20
13.3850
 30
0.0000
 42
1.0000
  0
VERTEX
  8
48
 10
4.6277
 20
13.3850
 30
0.0000
  0
SEQEND
  8
0
  0
POLYLINE
  8
48
 66
1
 10
0.0000
 20
0.0000
 30
0.0000
 40
0.0010
 41
0.0010
 70
0
  0
VERTEX
  8
48
 10
0.6820
 20
11.4190
 30
0.0000
  0
VERTEX
  8
48
 10
0.6820
 20
13.3850
 30
0.0000
  0
SEQEND
  8
0
  0
POLYLINE
  8
48
 66
1
 10
0.0000
 20
0.0000
 30
0.0000
 40
0.0005
 41
0.0005
 70
0
  0
VERTEX
  8
48
 10
0.6823
 20
13.3850
 30
0.0000
 42
1.0000
  0
VERTEX
  8
48
 10
0.6818
 20
13.3850
 30
0.0000
  0
SEQEND
  8
0
  0
POLYLINE
  8
48
 66
1
 10
0.0000
 20
0.0000
 30
0.0000
 40
0.0005
 41
0.0005
 70
0
  0
VERTEX
  8
48
 10
0.6818
 20
11.4190
 30
0.0000
 42
1.0000
  0
VERTEX
  8
48
 10
0.6823
 20
11.4190
 30
0.0000
  0
SEQEND
  8
0
  0
POLYLINE
  8
48
 66
1
 10
0.0000
 20
0.0000
 30
0.0000
 40
0.0010
 41
0.0010
 70
0
  0
VERTEX
  8
48
 10
1.9438
 20
11.7670
 30
0.0000
  0
VERTEX
  8
48
 10
3.3662
 20
11.7670
 30
0.0000
  0
SEQEND
  8
0
  0
POLYLINE
  8
48
 66
1
 10
0.0000
 20
0.0000
 30
0.0000
 40
0.0005
 41
0.0005
 70
0
  0
VERTEX
  8
48
 10
3.3662
 20
11.7668
 30
0.0000
 42
1.0000
  0
VERTEX
  8
48
 10
3.3662
 20
11.7673
 30
0.0000
  0
SEQEND
  8
0
  0
POLYLINE
  8
48
 66
1
 10
0.0000
 20
0.0000
 30
0.0000
 40
0.0005
 41
0.0005
 70
0
  0
VERTEX
  8
48
 10
1.9438
 20
11.7673
 30
0.0000
 42
1.0000
  0
VERTEX
  8
48
 10
1.9438
 20
11.7668
 30
0.0000
  0
SEQEND
  8
0
  0
POLYLINE
  8
48
 66
1
 10
0.0000
 20
0.0000
 30
0.0000
 40
0.0010
 41
0.0010
 70
0
  0
VERTEX
  8
48
 10
1.9438
 20
13.0370
 30
0.0000
  0
VERTEX
  8
48
 10
3.3662
 20
13.0370
 30
0.0000
  0
SEQEND
  8
0
  0
POLYLINE
  8
48
 66
1
 10
0.0000
 20
0.0000
 30
0.0000
 40
0.0005
 41
0.0005
 70
0
  0
VERTEX
  8
48
 10
3.3662
 20
13.0368
 30
0.0000
 42
1.0000
  0
VERTEX
  8
48
 10
3.3662
 20
13.0373
 30
0.0000
  0
SEQEND
  8
0
  0
POLYLINE
  8
48
 66
1
 10
0.0000
 20
0.0000
 30
0.0000
 40
0.0005
 41
0.0005
 70
0
  0
VERTEX
  8
48
 10
1.9438
 20
13.0373
 30
0.0000
 42
1.0000
  0
VERTEX
  8
48
 10
1.9438
 20
13.0368
 30
0.0000
  0
SEQEND
  8
0
  0
POLYLINE
  8
48
 66
1
 10
0.0000
 20
0.0000
 30
0.0000
 40
0.0010
 41
0.0010
 70
0
  0
VERTEX
  8
48
 10
8.9460
 20
11.4190
 30
0.0000
  0
VERTEX
  8
48
 10
5.0000
 20
11.4190
 30
0.0000
  0
SEQEND
  8
0
  0
POLYLINE
  8
48
 66
1
 10
0.0000
 20
0.0000
 30
0.0000
 40
0.0005
 41
0.0005
 70
0
  0
VERTEX
  8
48
 10
5.0000
 20
11.4192
 30
0.0000
 42
1.0000
  0
VERTEX
  8
48
 10
5.0000
 20
11.4188
 30
0.0000
  0
SEQEND
  8
0
  0
POLYLINE
  8
48
 66
1
 10
0.0000
 20
0.0000
 30
0.0000
 40
0.0005
 41
0.0005
 70
0
  0
VERTEX
  8
48
 10
8.9460
 20
11.4188
 30
0.0000
 42
1.0000
  0
VERTEX
  8
48
 10
8.9460
 20
11.4192
 30
0.0000
  0
SEQEND
  8
0
  0
POLYLINE
  8
48
 66
1
 10
0.0000
 20
0.0000
 30
0.0000
 40
0.0010
 41
0.0010
 70
0
  0
VERTEX
  8
48
 10
5.0000
 20
13.3850
 30
0.0000
  0
VERTEX
  8
48
 10
8.9460
 20
13.3850
 30
0.0000
  0
SEQEND
  8
0
  0
POLYLINE
  8
48
 66
1
 10
0.0000
 20
0.0000
 30
0.0000
 40
0.0005
 41
0.0005
 70
0
  0
VERTEX
  8
48
 10
8.9460
 20
13.3848
 30
0.0000
 42
1.0000
  0
VERTEX
  8
48
 10
8.9460
 20
13.3852
 30
0.0000
  0
SEQEND
  8
0
  0
POLYLINE
  8
48
 66
1
 10
0.0000
 20
0.0000
 30
0.0000
 40
0.0005
 41
0.0005
 70
0
  0
VERTEX
  8
48
 10
5.0000
 20
13.3852
 30
0.0000
 42
1.0000
  0
VERTEX
  8
48
 10
5.0000
 20
13.3848
 30
0.0000
  0
SEQEND
  8
0
  0
POLYLINE
  8
48
 66
1
 10
0.0000
 20
0.0000
 30
0.0000
 40
0.0010
 41
0.0010
 70
0
  0
VERTEX
  8
48
 10
8.9460
 20
13.3850
 30
0.0000
  0
VERTEX
  8
48
 10
8.9460
 20
11.4190
 30
0.0000
  0
SEQEND
  8
0
  0
POLYLINE
  8
48
 66
1
 10
0.0000
 20
0.0000
 30
0.0000
 40
0.0005
 41
0.0005
 70
0
  0
VERTEX
  8
48
 10
8.9458
 20
11.4190
 30
0.0000
 42
1.0000
  0
VERTEX
  8
48
 10
8.9462
 20
11.4190
 30
0.0000
  0
SEQEND
  8
0
  0
POLYLINE
  8
48
 66
1
 10
0.0000
 20
0.0000
 30
0.0000
 40
0.0005
 41
0.0005
 70
0
  0
VERTEX
  8
48
 10
8.9462
 20
13.3850
 30
0.0000
 42
1.0000
  0
VERTEX
  8
48
 10
8.9458
 20
13.3850
 30
0.0000
  0
SEQEND
  8
0
  0
POLYLINE
  8
48
 66
1
 10
0.0000
 20
0.0000
 30
0.0000
 40
0.0010
 41
0.0010
 70
0
  0
VERTEX
  8
48
 10
5.0000
 20
11.4190
 30
0.0000
  0
VERTEX
  8
48
 10
5.0000
 20
13.3850
 30
0.0000
  0
SEQEND
  8
0
  0
POLYLINE
  8
48
 66
1
 10
0.0000
 20
0.0000
 30
0.0000
 40
0.0005
 41
0.0005
 70
0
  0
VERTEX
  8
48
 10
5.0003
 20
13.3850
 30
0.0000
 42
1.0000
  0
VERTEX
  8
48
 10
4.9997
 20
13.3850
 30
0.0000
  0
SEQEND
  8
0
  0
POLYLINE
  8
48
 66
1
 10
0.0000
 20
0.0000
 30
0.0000
 40
0.0005
 41
0.0005
 70
0
  0
VERTEX
  8
48
 10
4.9997
 20
11.4190
 30
0.0000
 42
1.0000
  0
VERTEX
  8
48
 10
5.0003
 20
11.4190
 30
0.0000
  0
SEQEND
  8
0
  0
POLYLINE
  8
48
 66
1
 10
0.0000
 20
0.0000
 30
0.0000
 40
0.0010
 41
0.0010
 70
0
  0
VERTEX
  8
48
 10
6.2618
 20
11.7670
 30
0.0000
  0
VERTEX
  8
48
 10
7.6842
 20
11.7670
 30
0.0000
  0
SEQEND
  8
0
  0
POLYLINE
  8
48
 66
1
 10
0.0000
 20
0.0000
 30
0.0000
 40
0.0005
 41
0.0005
 70
0
  0
VERTEX
  8
48
 10
7.6842
 20
11.7668
 30
0.0000
 42
1.0000
  0
VERTEX
  8
48
 10
7.6842
 20
11.7673
 30
0.0000
  0
SEQEND
  8
0
  0
POLYLINE
  8
48
 66
1
 10
0.0000
 20
0.0000
 30
0.0000
 40
0.0005
 41
0.0005
 70
0
  0
VERTEX
  8
48
 10
6.2618
 20
11.7673
 30
0.0000
 42
1.0000
  0
VERTEX
  8
48
 10
6.2618
 20
11.7668
 30
0.0000
  0
SEQEND
  8
0
  0
POLYLINE
  8
48
 66
1
 10
0.0000
 20
0.0000
 30
0.0000
 40
0.0010
 41
0.0010
 70
0
  0
VERTEX
  8
48
 10
6.2618
 20
13.0370
 30
0.0000
  0
VERTEX
  8
48
 10
7.6842
 20
13.0370
 30
0.0000
  0
SEQEND
  8
0
  0
POLYLINE
  8
48
 66
1
 10
0.0000
 20
0.0000
 30
0.0000
 40
0.0005
 41
0.0005
 70
0
  0
VERTEX
  8
48
 10
7.6842
 20
13.0368
 30
0.0000
 42
1.0000
  0
VERTEX
  8
48
 10
7.6842
 20
13.0373
 30
0.0000
  0
SEQEND
  8
0
  0
POLYLINE
  8
48
 66
1
 10
0.0000
 20
0.0000
 30
0.0000
 40
0.0005
 41
0.0005
 70
0
  0
VERTEX
  8
48
 10
6.2618
 20
13.0373
 30
0.0000
 42
1.0000
  0
VERTEX
  8
48
 10
6.2618
 20
13.0368
 30
0.0000
  0
SEQEND
  8
0
  0
POLYLINE
  8
48
 66
1
 10
0.0000
 20
0.0000
 30
0.0000
 40
0.0010
 41
0.0010
 70
0
  0
VERTEX
  8
48
 10
17.3390
 20
25.1020
 30
0.0000
  0
VERTEX
  8
48
 10
17.3390
 20
26.6260
 30
0.0000
  0
SEQEND
  8
0
  0
POLYLINE
  8
48
 66
1
 10
0.0000
 20
0.0000
 30
0.0000
 40
0.0005
 41
0.0005
 70
0
  0
VERTEX
  8
48
 10
17.3393
 20
26.6260
 30
0.0000
 42
1.0000
  0
VERTEX
  8
48
 10
17.3388
 20
26.6260
 30
0.0000
  0
SEQEND
  8
0
  0
POLYLINE
  8
48
 66
1
 10
0.0000
 20
0.0000
 30
0.0000
 40
0.0005
 41
0.0005
 70
0
  0
VERTEX
  8
48
 10
17.3388
 20
25.1020
 30
0.0000
 42
1.0000
  0
VERTEX
  8
48
 10
17.3393
 20
25.1020
 30
0.0000
  0
SEQEND
  8
0
  0
POLYLINE
  8
48
 66
1
 10
0.0000
 20
0.0000
 30
0.0000
 40
0.0010
 41
0.0010
 70
0
  0
VERTEX
  8
48
 10
17.3390
 20
26.6260
 30
0.0000
  0
VERTEX
  8
48
 10
16.8790
 20
27.0860
 30
0.0000
  0
SEQEND
  8
0
  0
POLYLINE
  8
48
 66
1
 10
0.0000
 20
0.0000
 30
0.0000
 40
0.0005
 41
0.0005
 70
0
  0
VERTEX
  8
48
 10
16.8792
 20
27.0862
 30
0.0000
 42
1.0000
  0
VERTEX
  8
48
 10
16.8788
 20
27.0858
 30
0.0000
  0
SEQEND
  8
0
  0
POLYLINE
  8
48
 66
1
 10
0.0000
 20
0.0000
 30
0.0000
 40
0.0005
 41
0.0005
 70
0
  0
VERTEX
  8
48
 10
17.3388
 20
26.6258
 30
0.0000
 42
1.0000
  0
VERTEX
  8
48
 10
17.3392
 20
26.6262
 30
0.0000
  0
SEQEND
  8
0
  0
POLYLINE
  8
48
 66
1
 10
0.0000
 20
0.0000
 30
0.0000
 40
0.0010
 41
0.0010
 70
0
  0
VERTEX
  8
48
 10
16.8790
 20
21.0860
 30
0.0000
  0
VERTEX
  8
48
 10
17.3390
 20
21.5460
 30
0.0000
  0
SEQEND
  8
0
  0
POLYLINE
  8
48
 66
1
 10
0.0000
 20
0.0000
 30
0.0000
 40
0.0005
 41
0.0005
 70
0
  0
VERTEX
  8
48
 10
17.3392
 20
21.5458
 30
0.0000
 42
1.0000
  0
VERTEX
  8
48
 10
17.3388
 20
21.5462
 30
0.0000
  0
SEQEND
  8
0
  0
POLYLINE
  8
48
 66
1
 10
0.0000
 20
0.0000
 30
0.0000
 40
0.0005
 41
0.0005
 70
0
  0
VERTEX
  8
48
 10
16.8788
 20
21.0862
 30
0.0000
 42
1.0000
  0
VERTEX
  8
48
 10
16.8792
 20
21.0858
 30
0.0000
  0
SEQEND
  8
0
  0
POLYLINE
  8
48
 66
1
 10
0.0000
 20
0.0000
 30
0.0000
 40
0.0010
 41
0.0010
 70
0
  0
VERTEX
  8
48
 10
17.3390
 20
21.5460
 30
0.0000
  0
VERTEX
  8
48
 10
17.3390
 20
23.0700
 30
0.0000
  0
SEQEND
  8
0
  0
POLYLINE
  8
48
 66
1
 10
0.0000
 20
0.0000
 30
0.0000
 40
0.0005
 41
0.0005
 70
0
  0
VERTEX
  8
48
 10
17.3393
 20
23.0700
 30
0.0000
 42
1.0000
  0
VERTEX
  8
48
 10
17.3388
 20
23.0700
 30
0.0000
  0
SEQEND
  8
0
  0
POLYLINE
  8
48
 66
1
 10
0.0000
 20
0.0000
 30
0.0000
 40
0.0005
 41
0.0005
 70
0
  0
VERTEX
  8
48
 10
17.3388
 20
21.5460
 30
0.0000
 42
1.0000
  0
VERTEX
  8
48
 10
17.3393
 20
21.5460
 30
0.0000
  0
SEQEND
  8
0
  0
POLYLINE
  8
48
 66
1
 10
0.0000
 20
0.0000
 30
0.0000
 40
0.0010
 41
0.0010
 70
0
  0
VERTEX
  8
48
 10
11.7990
 20
27.0860
 30
0.0000
  0
VERTEX
  8
48
 10
11.3390
 20
26.6260
 30
0.0000
  0
SEQEND
  8
0
  0
POLYLINE
  8
48
 66
1
 10
0.0000
 20
0.0000
 30
0.0000
 40
0.0005
 41
0.0005
 70
0
  0
VERTEX
  8
48
 10
11.3388
 20
26.6262
 30
0.0000
 42
1.0000
  0
VERTEX
  8
48
 10
11.3392
 20
26.6258
 30
0.0000
  0
SEQEND
  8
0
  0
POLYLINE
  8
48
 66
1
 10
0.0000
 20
0.0000
 30
0.0000
 40
0.0005
 41
0.0005
 70
0
  0
VERTEX
  8
48
 10
11.7992
 20
27.0858
 30
0.0000
 42
1.0000
  0
VERTEX
  8
48
 10
11.7988
 20
27.0862
 30
0.0000
  0
SEQEND
  8
0
  0
POLYLINE
  8
48
 66
1
 10
0.0000
 20
0.0000
 30
0.0000
 40
0.0010
 41
0.0010
 70
0
  0
VERTEX
  8
48
 10
11.3390
 20
26.6260
 30
0.0000
  0
VERTEX
  8
48
 10
11.3390
 20
25.1020
 30
0.0000
  0
SEQEND
  8
0
  0
POLYLINE
  8
48
 66
1
 10
0.0000
 20
0.0000
 30
0.0000
 40
0.0005
 41
0.0005
 70
0
  0
VERTEX
  8
48
 10
11.3388
 20
25.1020
 30
0.0000
 42
1.0000
  0
VERTEX
  8
48
 10
11.3392
 20
25.1020
 30
0.0000
  0
SEQEND
  8
0
  0
POLYLINE
  8
48
 66
1
 10
0.0000
 20
0.0000
 30
0.0000
 40
0.0005
 41
0.0005
 70
0
  0
VERTEX
  8
48
 10
11.3392
 20
26.6260
 30
0.0000
 42
1.0000
  0
VERTEX
  8
48
 10
11.3388
 20
26.6260
 30
0.0000
  0
SEQEND
  8
0
  0
POLYLINE
  8
48
 66
1
 10
0.0000
 20
0.0000
 30
0.0000
 40
0.0010
 41
0.0010
 70
0
  0
VERTEX
  8
48
 10
11.7990
 20
21.0860
 30
0.0000
  0
VERTEX
  8
48
 10
11.3390
 20
21.5460
 30
0.0000
  0
SEQEND
  8
0
  0
POLYLINE
  8
48
 66
1
 10
0.0000
 20
0.0000
 30
0.0000
 40
0.0005
 41
0.0005
 70
0
  0
VERTEX
  8
48
 10
11.3392
 20
21.5462
 30
0.0000
 42
1.0000
  0
VERTEX
  8
48
 10
11.3388
 20
21.5458
 30
0.0000
  0
SEQEND
  8
0
  0
POLYLINE
  8
48
 66
1
 10
0.0000
 20
0.0000
 30
0.0000
 40
0.0005
 41
0.0005
 70
0
  0
VERTEX
  8
48
 10
11.7988
 20
21.0858
 30
0.0000
 42
1.0000
  0
VERTEX
  8
48
 10
11.7992
 20
21.0862
 30
0.0000
  0
SEQEND
  8
0
  0
POLYLINE
  8
48
 66
1
 10
0.0000
 20
0.0000
 30
0.0000
 40
0.0010
 41
0.0010
 70
0
  0
VERTEX
  8
48
 10
11.3390
 20
21.5460
 30
0.0000
  0
VERTEX
  8
48
 10
11.3390
 20
23.0700
 30
0.0000
  0
SEQEND
  8
0
  0
POLYLINE
  8
48
 66
1
 10
0.0000
 20
0.0000
 30
0.0000
 40
0.0005
 41
0.0005
 70
0
  0
VERTEX
  8
48
 10
11.3392
 20
23.0700
 30
0.0000
 42
1.0000
  0
VERTEX
  8
48
 10
11.3388
 20
23.0700
 30
0.0000
  0
SEQEND
  8
0
  0
POLYLINE
  8
48
 66
1
 10
0.0000
 20
0.0000
 30
0.0000
 40
0.0005
 41
0.0005
 70
0
  0
VERTEX
  8
48
 10
11.3388
 20
21.5460
 30
0.0000
 42
1.0000
  0
VERTEX
  8
48
 10
11.3392
 20
21.5460
 30
0.0000
  0
SEQEND
  8
0
  0
POLYLINE
  8
48
 66
1
 10
0.0000
 20
0.0000
 30
0.0000
 40
0.0010
 41
0.0010
 70
0
  0
VERTEX
  8
48
 10
16.8790
 20
21.0860
 30
0.0000
  0
VERTEX
  8
48
 10
16.4980
 20
21.0860
 30
0.0000
  0
SEQEND
  8
0
  0
POLYLINE
  8
48
 66
1
 10
0.0000
 20
0.0000
 30
0.0000
 40
0.0005
 41
0.0005
 70
0
  0
VERTEX
  8
48
 10
16.4980
 20
21.0863
 30
0.0000
 42
1.0000
  0
VERTEX
  8
48
 10
16.4980
 20
21.0858
 30
0.0000
  0
SEQEND
  8
0
  0
POLYLINE
  8
48
 66
1
 10
0.0000
 20
0.0000
 30
0.0000
 40
0.0005
 41
0.0005
 70
0
  0
VERTEX
  8
48
 10
16.8790
 20
21.0858
 30
0.0000
 42
1.0000
  0
VERTEX
  8
48
 10
16.8790
 20
21.0863
 30
0.0000
  0
SEQEND
  8
0
  0
POLYLINE
  8
48
 66
1
 10
0.0000
 20
0.0000
 30
0.0000
 40
0.0010
 41
0.0010
 70
0
  0
VERTEX
  8
48
 10
11.7990
 20
21.0860
 30
0.0000
  0
VERTEX
  8
48
 10
12.1800
 20
21.0860
 30
0.0000
  0
SEQEND
  8
0
  0
POLYLINE
  8
48
 66
1
 10
0.0000
 20
0.0000
 30
0.0000
 40
0.0005
 41
0.0005
 70
0
  0
VERTEX
  8
48
 10
12.1800
 20
21.0858
 30
0.0000
 42
1.0000
  0
VERTEX
  8
48
 10
12.1800
 20
21.0863
 30
0.0000
  0
SEQEND
  8
0
  0
POLYLINE
  8
48
 66
1
 10
0.0000
 20
0.0000
 30
0.0000
 40
0.0005
 41
0.0005
 70
0
  0
VERTEX
  8
48
 10
11.7990
 20
21.0863
 30
0.0000
 42
1.0000
  0
VERTEX
  8
48
 10
11.7990
 20
21.0858
 30
0.0000
  0
SEQEND
  8
0
  0
POLYLINE
  8
48
 66
1
 10
0.0000
 20
0.0000
 30
0.0000
 40
0.0010
 41
0.0010
 70
0
  0
VERTEX
  8
48
 10
11.7990
 20
27.0860
 30
0.0000
  0
VERTEX
  8
48
 10
12.1800
 20
27.0860
 30
0.0000
  0
SEQEND
  8
0
  0
POLYLINE
  8
48
 66
1
 10
0.0000
 20
0.0000
 30
0.0000
 40
0.0005
 41
0.0005
 70
0
  0
VERTEX
  8
48
 10
12.1800
 20
27.0858
 30
0.0000
 42
1.0000
  0
VERTEX
  8
48
 10
12.1800
 20
27.0863
 30
0.0000
  0
SEQEND
  8
0
  0
POLYLINE
  8
48
 66
1
 10
0.0000
 20
0.0000
 30
0.0000
 40
0.0005
 41
0.0005
 70
0
  0
VERTEX
  8
48
 10
11.7990
 20
27.0863
 30
0.0000
 42
1.0000
  0
VERTEX
  8
48
 10
11.7990
 20
27.0858
 30
0.0000
  0
SEQEND
  8
0
  0
POLYLINE
  8
48
 66
1
 10
0.0000
 20
0.0000
 30
0.0000
 40
0.0010
 41
0.0010
 70
0
  0
VERTEX
  8
48
 10
16.8790
 20
27.0860
 30
0.0000
  0
VERTEX
  8
48
 10
16.4980
 20
27.0860
 30
0.0000
  0
SEQEND
  8
0
  0
POLYLINE
  8
48
 66
1
 10
0.0000
 20
0.0000
 30
0.0000
 40
0.0005
 41
0.0005
 70
0
  0
VERTEX
  8
48
 10
16.4980
 20
27.0863
 30
0.0000
 42
1.0000
  0
VERTEX
  8
48
 10
16.4980
 20
27.0858
 30
0.0000
  0
SEQEND
  8
0
  0
POLYLINE
  8
48
 66
1
 10
0.0000
 20
0.0000
 30
0.0000
 40
0.0005
 41
0.0005
 70
0
  0
VERTEX
  8
48
 10
16.8790
 20
27.0858
 30
0.0000
 42
1.0000
  0
VERTEX
  8
48
 10
16.8790
 20
27.0863
 30
0.0000
  0
SEQEND
  8
0
  0
POLYLINE
  8
48
 66
1
 10
0.0000
 20
0.0000
 30
0.0000
 40
0.0010
 41
0.0010
 70
0
  0
VERTEX
  8
48
 10
9.8390
 20
28.0860
 30
0.0000
  0
VERTEX
  8
48
 10
18.8390
 20
28.0860
 30
0.0000
  0
SEQEND
  8
0
  0
POLYLINE
  8
48
 66
1
 10
0.0000
 20
0.0000
 30
0.0000
 40
0.0005
 41
0.0005
 70
0
  0
VERTEX
  8
48
 10
18.8390
 20
28.0858
 30
0.0000
 42
1.0000
  0
VERTEX
  8
48
 10
18.8390
 20
28.0863
 30
0.0000
  0
SEQEND
  8
0
  0
POLYLINE
  8
48
 66
1
 10
0.0000
 20
0.0000
 30
0.0000
 40
0.0005
 41
0.0005
 70
0
  0
VERTEX
  8
48
 10
9.8390
 20
28.0863
 30
0.0000
 42
1.0000
  0
VERTEX
  8
48
 10
9.8390
 20
28.0858
 30
0.0000
  0
SEQEND
  8
0
  0
POLYLINE
  8
48
 66
1
 10
0.0000
 20
0.0000
 30
0.0000
 40
0.0010
 41
0.0010
 70
0
  0
VERTEX
  8
48
 10
18.8390
 20
28.0860
 30
0.0000
  0
VERTEX
  8
48
 10
18.8390
 20
20.5860
 30
0.0000
  0
SEQEND
  8
0
  0
POLYLINE
  8
48
 66
1
 10
0.0000
 20
0.0000
 30
0.0000
 40
0.0005
 41
0.0005
 70
0
  0
VERTEX
  8
48
 10
18.8388
 20
20.5860
 30
0.0000
 42
1.0000
  0
VERTEX
  8
48
 10
18.8393
 20
20.5860
 30
0.0000
  0
SEQEND
  8
0
  0
POLYLINE
  8
48
 66
1
 10
0.0000
 20
0.0000
 30
0.0000
 40
0.0005
 41
0.0005
 70
0
  0
VERTEX
  8
48
 10
18.8393
 20
28.0860
 30
0.0000
 42
1.0000
  0
VERTEX
  8
48
 10
18.8388
 20
28.0860
 30
0.0000
  0
SEQEND
  8
0
  0
POLYLINE
  8
48
 66
1
 10
0.0000
 20
0.0000
 30
0.0000
 40
0.0010
 41
0.0010
 70
0
  0
VERTEX
  8
48
 10
18.8390
 20
20.5860
 30
0.0000
  0
VERTEX
  8
48
 10
9.8390
 20
20.5860
 30
0.0000
  0
SEQEND
  8
0
  0
POLYLINE
  8
48
 66
1
 10
0.0000
 20
0.0000
 30
0.0000
 40
0.0005
 41
0.0005
 70
0
  0
VERTEX
  8
48
 10
9.8390
 20
20.5863
 30
0.0000
 42
1.0000
  0
VERTEX
  8
48
 10
9.8390
 20
20.5858
 30
0.0000
  0
SEQEND
  8
0
  0
POLYLINE
  8
48
 66
1
 10
0.0000
 20
0.0000
 30
0.0000
 40
0.0005
 41
0.0005
 70
0
  0
VERTEX
  8
48
 10
18.8390
 20
20.5858
 30
0.0000
 42
1.0000
  0
VERTEX
  8
48
 10
18.8390
 20
20.5863
 30
0.0000
  0
SEQEND
  8
0
  0
POLYLINE
  8
48
 66
1
 10
0.0000
 20
0.0000
 30
0.0000
 40
0.0010
 41
0.0010
 70
0
  0
VERTEX
  8
48
 10
9.8390
 20
20.5860
 30
0.0000
  0
VERTEX
  8
48
 10
9.8390
 20
28.0860
 30
0.0000
  0
SEQEND
  8
0
  0
POLYLINE
  8
48
 66
1
 10
0.0000
 20
0.0000
 30
0.0000
 40
0.0005
 41
0.0005
 70
0
  0
VERTEX
  8
48
 10
9.8392
 20
28.0860
 30
0.0000
 42
1.0000
  0
VERTEX
  8
48
 10
9.8388
 20
28.0860
 30
0.0000
  0
SEQEND
  8
0
  0
POLYLINE
  8
48
 66
1
 10
0.0000
 20
0.0000
 30
0.0000
 40
0.0005
 41
0.0005
 70
0
  0
VERTEX
  8
48
 10
9.8388
 20
20.5860
 30
0.0000
 42
1.0000
  0
VERTEX
  8
48
 10
9.8392
 20
20.5860
 30
0.0000
  0
SEQEND
  8
0
  0
POLYLINE
  8
48
 66
1
 10
0.0000
 20
0.0000
 30
0.0000
 40
0.0010
 41
0.0010
 70
0
  0
VERTEX
  8
48
 10
10.8310
 20
7.2780
 30
0.0000
  0
VERTEX
  8
48
 10
16.8310
 20
7.2780
 30
0.0000
  0
SEQEND
  8
0
  0
POLYLINE
  8
48
 66
1
 10
0.0000
 20
0.0000
 30
0.0000
 40
0.0005
 41
0.0005
 70
0
  0
VERTEX
  8
48
 10
16.8310
 20
7.2778
 30
0.0000
 42
1.0000
  0
VERTEX
  8
48
 10
16.8310
 20
7.2783
 30
0.0000
  0
SEQEND
  8
0
  0
POLYLINE
  8
48
 66
1
 10
0.0000
 20
0.0000
 30
0.0000
 40
0.0005
 41
0.0005
 70
0
  0
VERTEX
  8
48
 10
10.8310
 20
7.2783
 30
0.0000
 42
1.0000
  0
VERTEX
  8
48
 10
10.8310
 20
7.2778
 30
0.0000
  0
SEQEND
  8
0
  0
POLYLINE
  8
48
 66
1
 10
0.0000
 20
0.0000
 30
0.0000
 40
0.0010
 41
0.0010
 70
0
  0
VERTEX
  8
48
 10
16.8310
 20
7.2780
 30
0.0000
  0
VERTEX
  8
48
 10
16.8310
 20
7.0680
 30
0.0000
  0
SEQEND
  8
0
  0
POLYLINE
  8
48
 66
1
 10
0.0000
 20
0.0000
 30
0.0000
 40
0.0005
 41
0.0005
 70
0
  0
VERTEX
  8
48
 10
16.8307
 20
7.0680
 30
0.0000
 42
1.0000
  0
VERTEX
  8
48
 10
16.8313
 20
7.0680
 30
0.0000
  0
SEQEND
  8
0
  0
POLYLINE
  8
48
 66
1
 10
0.0000
 20
0.0000
 30
0.0000
 40
0.0005
 41
0.0005
 70
0
  0
VERTEX
  8
48
 10
16.8313
 20
7.2780
 30
0.0000
 42
1.0000
  0
VERTEX
  8
48
 10
16.8307
 20
7.2780
 30
0.0000
  0
SEQEND
  8
0
  0
POLYLINE
  8
48
 66
1
 10
0.0000
 20
0.0000
 30
0.0000
 40
0.0010
 41
0.0010
 70
0
  0
VERTEX
  8
48
 10
16.8310
 20
7.0680
 30
0.0000
  0
VERTEX
  8
48
 10
16.8310
 20
1.9880
 30
0.0000
  0
SEQEND
  8
0
  0
POLYLINE
  8
48
 66
1
 10
0.0000
 20
0.0000
 30
0.0000
 40
0.0005
 41
0.0005
 70
0
  0
VERTEX
  8
48
 10
16.8307
 20
1.9880
 30
0.0000
 42
1.0000
  0
VERTEX
  8
48
 10
16.8313
 20
1.9880
 30
0.0000
  0
SEQEND
  8
0
  0
POLYLINE
  8
48
 66
1
 10
0.0000
 20
0.0000
 30
0.0000
 40
0.0005
 41
0.0005
 70
0
  0
VERTEX
  8
48
 10
16.8313
 20
7.0680
 30
0.0000
 42
1.0000
  0
VERTEX
  8
48
 10
16.8307
 20
7.0680
 30
0.0000
  0
SEQEND
  8
0
  0
POLYLINE
  8
48
 66
1
 10
0.0000
 20
0.0000
 30
0.0000
 40
0.0010
 41
0.0010
 70
0
  0
VERTEX
  8
48
 10
16.8310
 20
1.9880
 30
0.0000
  0
VERTEX
  8
48
 10
16.8310
 20
1.7780
 30
0.0000
  0
SEQEND
  8
0
  0
POLYLINE
  8
48
 66
1
 10
0.0000
 20
0.0000
 30
0.0000
 40
0.0005
 41
0.0005
 70
0
  0
VERTEX
  8
48
 10
16.8307
 20
1.7780
 30
0.0000
 42
1.0000
  0
VERTEX
  8
48
 10
16.8313
 20
1.7780
 30
0.0000
  0
SEQEND
  8
0
  0
POLYLINE
  8
48
 66
1
 10
0.0000
 20
0.0000
 30
0.0000
 40
0.0005
 41
0.0005
 70
0
  0
VERTEX
  8
48
 10
16.8313
 20
1.9880
 30
0.0000
 42
1.0000
  0
VERTEX
  8
48
 10
16.8307
 20
1.9880
 30
0.0000
  0
SEQEND
  8
0
  0
POLYLINE
  8
48
 66
1
 10
0.0000
 20
0.0000
 30
0.0000
 40
0.0010
 41
0.0010
 70
0
  0
VERTEX
  8
48
 10
16.8310
 20
1.7780
 30
0.0000
  0
VERTEX
  8
48
 10
10.8310
 20
1.7780
 30
0.0000
  0
SEQEND
  8
0
  0
POLYLINE
  8
48
 66
1
 10
0.0000
 20
0.0000
 30
0.0000
 40
0.0005
 41
0.0005
 70
0
  0
VERTEX
  8
48
 10
10.8310
 20
1.7783
 30
0.0000
 42
1.0000
  0
VERTEX
  8
48
 10
10.8310
 20
1.7777
 30
0.0000
  0
SEQEND
  8
0
  0
POLYLINE
  8
48
 66
1
 10
0.0000
 20
0.0000
 30
0.0000
 40
0.0005
 41
0.0005
 70
0
  0
VERTEX
  8
48
 10
16.8310
 20
1.7777
 30
0.0000
 42
1.0000
  0
VERTEX
  8
48
 10
16.8310
 20
1.7783
 30
0.0000
  0
SEQEND
  8
0
  0
POLYLINE
  8
48
 66
1
 10
0.0000
 20
0.0000
 30
0.0000
 40
0.0010
 41
0.0010
 70
0
  0
VERTEX
  8
48
 10
10.8310
 20
1.7780
 30
0.0000
  0
VERTEX
  8
48
 10
10.8310
 20
1.9880
 30
0.0000
  0
SEQEND
  8
0
  0
POLYLINE
  8
48
 66
1
 10
0.0000
 20
0.0000
 30
0.0000
 40
0.0005
 41
0.0005
 70
0
  0
VERTEX
  8
48
 10
10.8313
 20
1.9880
 30
0.0000
 42
1.0000
  0
VERTEX
  8
48
 10
10.8308
 20
1.9880
 30
0.0000
  0
SEQEND
  8
0
  0
POLYLINE
  8
48
 66
1
 10
0.0000
 20
0.0000
 30
0.0000
 40
0.0005
 41
0.0005
 70
0
  0
VERTEX
  8
48
 10
10.8308
 20
1.7780
 30
0.0000
 42
1.0000
  0
VERTEX
  8
48
 10
10.8313
 20
1.7780
 30
0.0000
  0
SEQEND
  8
0
  0
POLYLINE
  8
48
 66
1
 10
0.0000
 20
0.0000
 30
0.0000
 40
0.0010
 41
0.0010
 70
0
  0
VERTEX
  8
48
 10
10.8310
 20
1.9880
 30
0.0000
  0
VERTEX
  8
48
 10
10.8310
 20
7.0680
 30
0.0000
  0
SEQEND
  8
0
  0
POLYLINE
  8
48
 66
1
 10
0.0000
 20
0.0000
 30
0.0000
 40
0.0005
 41
0.0005
 70
0
  0
VERTEX
  8
48
 10
10.8313
 20
7.0680
 30
0.0000
 42
1.0000
  0
VERTEX
  8
48
 10
10.8308
 20
7.0680
 30
0.0000
  0
SEQEND
  8
0
  0
POLYLINE
  8
48
 66
1
 10
0.0000
 20
0.0000
 30
0.0000
 40
0.0005
 41
0.0005
 70
0
  0
VERTEX
  8
48
 10
10.8308
 20
1.9880
 30
0.0000
 42
1.0000
  0
VERTEX
  8
48
 10
10.8313
 20
1.9880
 30
0.0000
  0
SEQEND
  8
0
  0
POLYLINE
  8
48
 66
1
 10
0.0000
 20
0.0000
 30
0.0000
 40
0.0010
 41
0.0010
 70
0
  0
VERTEX
  8
48
 10
10.8310
 20
7.0680
 30
0.0000
  0
VERTEX
  8
48
 10
10.8310
 20
7.2780
 30
0.0000
  0
SEQEND
  8
0
  0
POLYLINE
  8
48
 66
1
 10
0.0000
 20
0.0000
 30
0.0000
 40
0.0005
 41
0.0005
 70
0
  0
VERTEX
  8
48
 10
10.8313
 20
7.2780
 30
0.0000
 42
1.0000
  0
VERTEX
  8
48
 10
10.8308
 20
7.2780
 30
0.0000
  0
SEQEND
  8
0
  0
POLYLINE
  8
48
 66
1
 10
0.0000
 20
0.0000
 30
0.0000
 40
0.0005
 41
0.0005
 70
0
  0
VERTEX
  8
48
 10
10.8308
 20
7.0680
 30
0.0000
 42
1.0000
  0
VERTEX
  8
48
 10
10.8313
 20
7.0680
 30
0.0000
  0
SEQEND
  8
0
  0
POLYLINE
  8
48
 66
1
 10
0.0000
 20
0.0000
 30
0.0000
 40
0.0010
 41
0.0010
 70
0
  0
VERTEX
  8
48
 10
12.3310
 20
5.2780
 30
0.0000
  0
VERTEX
  8
48
 10
15.3310
 20
5.2780
 30
0.0000
  0
SEQEND
  8
0
  0
POLYLINE
  8
48
 66
1
 10
0.0000
 20
0.0000
 30
0.0000
 40
0.0005
 41
0.0005
 70
0
  0
VERTEX
  8
48
 10
15.3310
 20
5.2778
 30
0.0000
 42
1.0000
  0
VERTEX
  8
48
 10
15.3310
 20
5.2783
 30
0.0000
  0
SEQEND
  8
0
  0
POLYLINE
  8
48
 66
1
 10
0.0000
 20
0.0000
 30
0.0000
 40
0.0005
 41
0.0005
 70
0
  0
VERTEX
  8
48
 10
12.3310
 20
5.2783
 30
0.0000
 42
1.0000
  0
VERTEX
  8
48
 10
12.3310
 20
5.2778
 30
0.0000
  0
SEQEND
  8
0
  0
POLYLINE
  8
48
 66
1
 10
0.0000
 20
0.0000
 30
0.0000
 40
0.0010
 41
0.0010
 70
0
  0
VERTEX
  8
48
 10
15.3310
 20
5.2780
 30
0.0000
  0
VERTEX
  8
48
 10
15.3310
 20
3.7780
 30
0.0000
  0
SEQEND
  8
0
  0
POLYLINE
  8
48
 66
1
 10
0.0000
 20
0.0000
 30
0.0000
 40
0.0005
 41
0.0005
 70
0
  0
VERTEX
  8
48
 10
15.3308
 20
3.7780
 30
0.0000
 42
1.0000
  0
VERTEX
  8
48
 10
15.3313
 20
3.7780
 30
0.0000
  0
SEQEND
  8
0
  0
POLYLINE
  8
48
 66
1
 10
0.0000
 20
0.0000
 30
0.0000
 40
0.0005
 41
0.0005
 70
0
  0
VERTEX
  8
48
 10
15.3313
 20
5.2780
 30
0.0000
 42
1.0000
  0
VERTEX
  8
48
 10
15.3308
 20
5.2780
 30
0.0000
  0
SEQEND
  8
0
  0
POLYLINE
  8
48
 66
1
 10
0.0000
 20
0.0000
 30
0.0000
 40
0.0010
 41
0.0010
 70
0
  0
VERTEX
  8
48
 10
15.3310
 20
3.7780
 30
0.0000
  0
VERTEX
  8
48
 10
12.3310
 20
3.7780
 30
0.0000
  0
SEQEND
  8
0
  0
POLYLINE
  8
48
 66
1
 10
0.0000
 20
0.0000
 30
0.0000
 40
0.0005
 41
0.0005
 70
0
  0
VERTEX
  8
48
 10
12.3310
 20
3.7782
 30
0.0000
 42
1.0000
  0
VERTEX
  8
48
 10
12.3310
 20
3.7778
 30
0.0000
  0
SEQEND
  8
0
  0
POLYLINE
  8
48
 66
1
 10
0.0000
 20
0.0000
 30
0.0000
 40
0.0005
 41
0.0005
 70
0
  0
VERTEX
  8
48
 10
15.3310
 20
3.7778
 30
0.0000
 42
1.0000
  0
VERTEX
  8
48
 10
15.3310
 20
3.7782
 30
0.0000
  0
SEQEND
  8
0
  0
POLYLINE
  8
48
 66
1
 10
0.0000
 20
0.0000
 30
0.0000
 40
0.0010
 41
0.0010
 70
0
  0
VERTEX
  8
48
 10
12.3310
 20
3.7780
 30
0.0000
  0
VERTEX
  8
48
 10
12.3310
 20
5.2780
 30
0.0000
  0
SEQEND
  8
0
  0
POLYLINE
  8
48
 66
1
 10
0.0000
 20
0.0000
 30
0.0000
 40
0.0005
 41
0.0005
 70
0
  0
VERTEX
  8
48
 10
12.3313
 20
5.2780
 30
0.0000
 42
1.0000
  0
VERTEX
  8
48
 10
12.3308
 20
5.2780
 30
0.0000
  0
SEQEND
  8
0
  0
POLYLINE
  8
48
 66
1
 10
0.0000
 20
0.0000
 30
0.0000
 40
0.0005
 41
0.0005
 70
0
  0
VERTEX
  8
48
 10
12.3308
 20
3.7780
 30
0.0000
 42
1.0000
  0
VERTEX
  8
48
 10
12.3313
 20
3.7780
 30
0.0000
  0
SEQEND
  8
0
  0
POLYLINE
  8
48
 66
1
 10
0.0000
 20
0.0000
 30
0.0000
 40
0.0010
 41
0.0010
 70
0
  0
VERTEX
  8
48
 10
17.5910
 20
21.4160
 30
0.0000
  0
VERTEX
  8
48
 10
11.5910
 20
21.4160
 30
0.0000
  0
SEQEND
  8
0
  0
POLYLINE
  8
48
 66
1
 10
0.0000
 20
0.0000
 30
0.0000
 40
0.0005
 41
0.0005
 70
0
  0
VERTEX
  8
48
 10
11.5910
 20
21.4163
 30
0.0000
 42
1.0000
  0
VERTEX
  8
48
 10
11.5910
 20
21.4157
 30
0.0000
  0
SEQEND
  8
0
  0
POLYLINE
  8
48
 66
1
 10
0.0000
 20
0.0000
 30
0.0000
 40
0.0005
 41
0.0005
 70
0
  0
VERTEX
  8
48
 10
17.5910
 20
21.4157
 30
0.0000
 42
1.0000
  0
VERTEX
  8
48
 10
17.5910
 20
21.4163
 30
0.0000
  0
SEQEND
  8
0
  0
POLYLINE
  8
48
 66
1
 10
0.0000
 20
0.0000
 30
0.0000
 40
0.0010
 41
0.0010
 70
0
  0
VERTEX
  8
48
 10
11.5910
 20
21.4160
 30
0.0000
  0
VERTEX
  8
48
 10
11.5910
 20
26.9160
 30
0.0000
  0
SEQEND
  8
0
  0
POLYLINE
  8
48
 66
1
 10
0.0000
 20
0.0000
 30
0.0000
 40
0.0005
 41
0.0005
 70
0
  0
VERTEX
  8
48
 10
11.5913
 20
26.9160
 30
0.0000
 42
1.0000
  0
VERTEX
  8
48
 10
11.5908
 20
26.9160
 30
0.0000
  0
SEQEND
  8
0
  0
POLYLINE
  8
48
 66
1
 10
0.0000
 20
0.0000
 30
0.0000
 40
0.0005
 41
0.0005
 70
0
  0
VERTEX
  8
48
 10
11.5908
 20
21.4160
 30
0.0000
 42
1.0000
  0
VERTEX
  8
48
 10
11.5913
 20
21.4160
 30
0.0000
  0
SEQEND
  8
0
  0
POLYLINE
  8
48
 66
1
 10
0.0000
 20
0.0000
 30
0.0000
 40
0.0010
 41
0.0010
 70
0
  0
VERTEX
  8
48
 10
11.5910
 20
26.9160
 30
0.0000
  0
VERTEX
  8
48
 10
17.5910
 20
26.9160
 30
0.0000
  0
SEQEND
  8
0
  0
POLYLINE
  8
48
 66
1
 10
0.0000
 20
0.0000
 30
0.0000
 40
0.0005
 41
0.0005
 70
0
  0
VERTEX
  8
48
 10
17.5910
 20
26.9157
 30
0.0000
 42
1.0000
  0
VERTEX
  8
48
 10
17.5910
 20
26.9163
 30
0.0000
  0
SEQEND
  8
0
  0
POLYLINE
  8
48
 66
1
 10
0.0000
 20
0.0000
 30
0.0000
 40
0.0005
 41
0.0005
 70
0
  0
VERTEX
  8
48
 10
11.5910
 20
26.9163
 30
0.0000
 42
1.0000
  0
VERTEX
  8
48
 10
11.5910
 20
26.9157
 30
0.0000
  0
SEQEND
  8
0
  0
POLYLINE
  8
48
 66
1
 10
0.0000
 20
0.0000
 30
0.0000
 40
0.0010
 41
0.0010
 70
0
  0
VERTEX
  8
48
 10
17.5910
 20
26.9160
 30
0.0000
  0
VERTEX
  8
48
 10
17.5910
 20
21.4160
 30
0.0000
  0
SEQEND
  8
0
  0
POLYLINE
  8
48
 66
1
 10
0.0000
 20
0.0000
 30
0.0000
 40
0.0005
 41
0.0005
 70
0
  0
VERTEX
  8
48
 10
17.5907
 20
21.4160
 30
0.0000
 42
1.0000
  0
VERTEX
  8
48
 10
17.5913
 20
21.4160
 30
0.0000
  0
SEQEND
  8
0
  0
POLYLINE
  8
48
 66
1
 10
0.0000
 20
0.0000
 30
0.0000
 40
0.0005
 41
0.0005
 70
0
  0
VERTEX
  8
48
 10
17.5913
 20
26.9160
 30
0.0000
 42
1.0000
  0
VERTEX
  8
48
 10
17.5907
 20
26.9160
 30
0.0000
  0
SEQEND
  8
0
  0
POLYLINE
  8
48
 66
1
 10
0.0000
 20
0.0000
 30
0.0000
 40
0.0010
 41
0.0010
 70
0
  0
VERTEX
  8
48
 10
16.0910
 20
23.4160
 30
0.0000
  0
VERTEX
  8
48
 10
13.0910
 20
23.4160
 30
0.0000
  0
SEQEND
  8
0
  0
POLYLINE
  8
48
 66
1
 10
0.0000
 20
0.0000
 30
0.0000
 40
0.0005
 41
0.0005
 70
0
  0
VERTEX
  8
48
 10
13.0910
 20
23.4163
 30
0.0000
 42
1.0000
  0
VERTEX
  8
48
 10
13.0910
 20
23.4157
 30
0.0000
  0
SEQEND
  8
0
  0
POLYLINE
  8
48
 66
1
 10
0.0000
 20
0.0000
 30
0.0000
 40
0.0005
 41
0.0005
 70
0
  0
VERTEX
  8
48
 10
16.0910
 20
23.4157
 30
0.0000
 42
1.0000
  0
VERTEX
  8
48
 10
16.0910
 20
23.4163
 30
0.0000
  0
SEQEND
  8
0
  0
POLYLINE
  8
48
 66
1
 10
0.0000
 20
0.0000
 30
0.0000
 40
0.0010
 41
0.0010
 70
0
  0
VERTEX
  8
48
 10
13.0910
 20
23.4160
 30
0.0000
  0
VERTEX
  8
48
 10
13.0910
 20
24.9160
 30
0.0000
  0
SEQEND
  8
0
  0
POLYLINE
  8
48
 66
1
 10
0.0000
 20
0.0000
 30
0.0000
 40
0.0005
 41
0.0005
 70
0
  0
VERTEX
  8
48
 10
13.0913
 20
24.9160
 30
0.0000
 42
1.0000
  0
VERTEX
  8
48
 10
13.0908
 20
24.9160
 30
0.0000
  0
SEQEND
  8
0
  0
POLYLINE
  8
48
 66
1
 10
0.0000
 20
0.0000
 30
0.0000
 40
0.0005
 41
0.0005
 70
0
  0
VERTEX
  8
48
 10
13.0908
 20
23.4160
 30
0.0000
 42
1.0000
  0
VERTEX
  8
48
 10
13.0913
 20
23.4160
 30
0.0000
  0
SEQEND
  8
0
  0
POLYLINE
  8
48
 66
1
 10
0.0000
 20
0.0000
 30
0.0000
 40
0.0010
 41
0.0010
 70
0
  0
VERTEX
  8
48
 10
13.0910
 20
24.9160
 30
0.0000
  0
VERTEX
  8
48
 10
16.0910
 20
24.9160
 30
0.0000
  0
SEQEND
  8
0
  0
POLYLINE
  8
48
 66
1
 10
0.0000
 20
0.0000
 30
0.0000
 40
0.0005
 41
0.0005
 70
0
  0
VERTEX
  8
48
 10
16.0910
 20
24.9157
 30
0.0000
 42
1.0000
  0
VERTEX
  8
48
 10
16.0910
 20
24.9163
 30
0.0000
  0
SEQEND
  8
0
  0
POLYLINE
  8
48
 66
1
 10
0.0000
 20
0.0000
 30
0.0000
 40
0.0005
 41
0.0005
 70
0
  0
VERTEX
  8
48
 10
13.0910
 20
24.9163
 30
0.0000
 42
1.0000
  0
VERTEX
  8
48
 10
13.0910
 20
24.9157
 30
0.0000
  0
SEQEND
  8
0
  0
POLYLINE
  8
48
 66
1
 10
0.0000
 20
0.0000
 30
0.0000
 40
0.0010
 41
0.0010
 70
0
  0
VERTEX
  8
48
 10
16.0910
 20
24.9160
 30
0.0000
  0
VERTEX
  8
48
 10
16.0910
 20
23.4160
 30
0.0000
  0
SEQEND
  8
0
  0
POLYLINE
  8
48
 66
1
 10
0.0000
 20
0.0000
 30
0.0000
 40
0.0005
 41
0.0005
 70
0
  0
VERTEX
  8
48
 10
16.0907
 20
23.4160
 30
0.0000
 42
1.0000
  0
VERTEX
  8
48
 10
16.0913
 20
23.4160
 30
0.0000
  0
SEQEND
  8
0
  0
POLYLINE
  8
48
 66
1
 10
0.0000
 20
0.0000
 30
0.0000
 40
0.0005
 41
0.0005
 70
0
  0
VERTEX
  8
48
 10
16.0913
 20
24.9160
 30
0.0000
 42
1.0000
  0
VERTEX
  8
48
 10
16.0907
 20
24.9160
 30
0.0000
  0
SEQEND
  8
0
  0
POLYLINE
  8
48
 66
1
 10
0.0000
 20
0.0000
 30
0.0000
 40
0.0010
 41
0.0010
 70
0
  0
VERTEX
  8
48
 10
16.8310
 20
7.0680
 30
0.0000
  0
VERTEX
  8
48
 10
16.3710
 20
7.5280
 30
0.0000
  0
SEQEND
  8
0
  0
POLYLINE
  8
48
 66
1
 10
0.0000
 20
0.0000
 30
0.0000
 40
0.0005
 41
0.0005
 70
0
  0
VERTEX
  8
48
 10
16.3712
 20
7.5282
 30
0.0000
 42
1.0000
  0
VERTEX
  8
48
 10
16.3708
 20
7.5278
 30
0.0000
  0
SEQEND
  8
0
  0
POLYLINE
  8
48
 66
1
 10
0.0000
 20
0.0000
 30
0.0000
 40
0.0005
 41
0.0005
 70
0
  0
VERTEX
  8
48
 10
16.8308
 20
7.0678
 30
0.0000
 42
1.0000
  0
VERTEX
  8
48
 10
16.8312
 20
7.0682
 30
0.0000
  0
SEQEND
  8
0
  0
POLYLINE
  8
48
 66
1
 10
0.0000
 20
0.0000
 30
0.0000
 40
0.0010
 41
0.0010
 70
0
  0
VERTEX
  8
48
 10
16.3710
 20
1.5280
 30
0.0000
  0
VERTEX
  8
48
 10
16.8310
 20
1.9880
 30
0.0000
  0
SEQEND
  8
0
  0
POLYLINE
  8
48
 66
1
 10
0.0000
 20
0.0000
 30
0.0000
 40
0.0005
 41
0.0005
 70
0
  0
VERTEX
  8
48
 10
16.8312
 20
1.9878
 30
0.0000
 42
1.0000
  0
VERTEX
  8
48
 10
16.8308
 20
1.9882
 30
0.0000
  0
SEQEND
  8
0
  0
POLYLINE
  8
48
 66
1
 10
0.0000
 20
0.0000
 30
0.0000
 40
0.0005
 41
0.0005
 70
0
  0
VERTEX
  8
48
 10
16.3708
 20
1.5282
 30
0.0000
 42
1.0000
  0
VERTEX
  8
48
 10
16.3712
 20
1.5278
 30
0.0000
  0
SEQEND
  8
0
  0
POLYLINE
  8
48
 66
1
 10
0.0000
 20
0.0000
 30
0.0000
 40
0.0010
 41
0.0010
 70
0
  0
VERTEX
  8
48
 10
11.2910
 20
7.5280
 30
0.0000
  0
VERTEX
  8
48
 10
10.8310
 20
7.0680
 30
0.0000
  0
SEQEND
  8
0
  0
POLYLINE
  8
48
 66
1
 10
0.0000
 20
0.0000
 30
0.0000
 40
0.0005
 41
0.0005
 70
0
  0
VERTEX
  8
48
 10
10.8308
 20
7.0682
 30
0.0000
 42
1.0000
  0
VERTEX
  8
48
 10
10.8312
 20
7.0678
 30
0.0000
  0
SEQEND
  8
0
  0
POLYLINE
  8
48
 66
1
 10
0.0000
 20
0.0000
 30
0.0000
 40
0.0005
 41
0.0005
 70
0
  0
VERTEX
  8
48
 10
11.2912
 20
7.5278
 30
0.0000
 42
1.0000
  0
VERTEX
  8
48
 10
11.2908
 20
7.5282
 30
0.0000
  0
SEQEND
  8
0
  0
POLYLINE
  8
48
 66
1
 10
0.0000
 20
0.0000
 30
0.0000
 40
0.0010
 41
0.0010
 70
0
  0
VERTEX
  8
48
 10
11.2910
 20
1.5280
 30
0.0000
  0
VERTEX
  8
48
 10
10.8310
 20
1.9880
 30
0.0000
  0
SEQEND
  8
0
  0
POLYLINE
  8
48
 66
1
 10
0.0000
 20
0.0000
 30
0.0000
 40
0.0005
 41
0.0005
 70
0
  0
VERTEX
  8
48
 10
10.8312
 20
1.9882
 30
0.0000
 42
1.0000
  0
VERTEX
  8
48
 10
10.8308
 20
1.9878
 30
0.0000
  0
SEQEND
  8
0
  0
POLYLINE
  8
48
 66
1
 10
0.0000
 20
0.0000
 30
0.0000
 40
0.0005
 41
0.0005
 70
0
  0
VERTEX
  8
48
 10
11.2908
 20
1.5278
 30
0.0000
 42
1.0000
  0
VERTEX
  8
48
 10
11.2912
 20
1.5282
 30
0.0000
  0
SEQEND
  8
0
  0
POLYLINE
  8
48
 66
1
 10
0.0000
 20
0.0000
 30
0.0000
 40
0.0010
 41
0.0010
 70
0
  0
VERTEX
  8
48
 10
16.3710
 20
1.5280
 30
0.0000
  0
VERTEX
  8
48
 10
15.9900
 20
1.5280
 30
0.0000
  0
SEQEND
  8
0
  0
POLYLINE
  8
48
 66
1
 10
0.0000
 20
0.0000
 30
0.0000
 40
0.0005
 41
0.0005
 70
0
  0
VERTEX
  8
48
 10
15.9900
 20
1.5283
 30
0.0000
 42
1.0000
  0
VERTEX
  8
48
 10
15.9900
 20
1.5277
 30
0.0000
  0
SEQEND
  8
0
  0
POLYLINE
  8
48
 66
1
 10
0.0000
 20
0.0000
 30
0.0000
 40
0.0005
 41
0.0005
 70
0
  0
VERTEX
  8
48
 10
16.3710
 20
1.5277
 30
0.0000
 42
1.0000
  0
VERTEX
  8
48
 10
16.3710
 20
1.5283
 30
0.0000
  0
SEQEND
  8
0
  0
POLYLINE
  8
48
 66
1
 10
0.0000
 20
0.0000
 30
0.0000
 40
0.0010
 41
0.0010
 70
0
  0
VERTEX
  8
48
 10
11.2910
 20
1.5280
 30
0.0000
  0
VERTEX
  8
48
 10
11.6720
 20
1.5280
 30
0.0000
  0
SEQEND
  8
0
  0
POLYLINE
  8
48
 66
1
 10
0.0000
 20
0.0000
 30
0.0000
 40
0.0005
 41
0.0005
 70
0
  0
VERTEX
  8
48
 10
11.6720
 20
1.5277
 30
0.0000
 42
1.0000
  0
VERTEX
  8
48
 10
11.6720
 20
1.5283
 30
0.0000
  0
SEQEND
  8
0
  0
POLYLINE
  8
48
 66
1
 10
0.0000
 20
0.0000
 30
0.0000
 40
0.0005
 41
0.0005
 70
0
  0
VERTEX
  8
48
 10
11.2910
 20
1.5283
 30
0.0000
 42
1.0000
  0
VERTEX
  8
48
 10
11.2910
 20
1.5277
 30
0.0000
  0
SEQEND
  8
0
  0
POLYLINE
  8
48
 66
1
 10
0.0000
 20
0.0000
 30
0.0000
 40
0.0010
 41
0.0010
 70
0
  0
VERTEX
  8
48
 10
11.2910
 20
7.5280
 30
0.0000
  0
VERTEX
  8
48
 10
11.6720
 20
7.5280
 30
0.0000
  0
SEQEND
  8
0
  0
POLYLINE
  8
48
 66
1
 10
0.0000
 20
0.0000
 30
0.0000
 40
0.0005
 41
0.0005
 70
0
  0
VERTEX
  8
48
 10
11.6720
 20
7.5278
 30
0.0000
 42
1.0000
  0
VERTEX
  8
48
 10
11.6720
 20
7.5283
 30
0.0000
  0
SEQEND
  8
0
  0
POLYLINE
  8
48
 66
1
 10
0.0000
 20
0.0000
 30
0.0000
 40
0.0005
 41
0.0005
 70
0
  0
VERTEX
  8
48
 10
11.2910
 20
7.5283
 30
0.0000
 42
1.0000
  0
VERTEX
  8
48
 10
11.2910
 20
7.5278
 30
0.0000
  0
SEQEND
  8
0
  0
POLYLINE
  8
48
 66
1
 10
0.0000
 20
0.0000
 30
0.0000
 40
0.0010
 41
0.0010
 70
0
  0
VERTEX
  8
48
 10
16.3710
 20
7.5280
 30
0.0000
  0
VERTEX
  8
48
 10
15.9900
 20
7.5280
 30
0.0000
  0
SEQEND
  8
0
  0
POLYLINE
  8
48
 66
1
 10
0.0000
 20
0.0000
 30
0.0000
 40
0.0005
 41
0.0005
 70
0
  0
VERTEX
  8
48
 10
15.9900
 20
7.5283
 30
0.0000
 42
1.0000
  0
VERTEX
  8
48
 10
15.9900
 20
7.5278
 30
0.0000
  0
SEQEND
  8
0
  0
POLYLINE
  8
48
 66
1
 10
0.0000
 20
0.0000
 30
0.0000
 40
0.0005
 41
0.0005
 70
0
  0
VERTEX
  8
48
 10
16.3710
 20
7.5278
 30
0.0000
 42
1.0000
  0
VERTEX
  8
48
 10
16.3710
 20
7.5283
 30
0.0000
  0
SEQEND
  8
0
  0
POLYLINE
  8
48
 66
1
 10
0.0000
 20
0.0000
 30
0.0000
 40
0.0010
 41
0.0010
 70
0
  0
VERTEX
  8
48
 10
9.3310
 20
8.5280
 30
0.0000
  0
VERTEX
  8
48
 10
18.3310
 20
8.5280
 30
0.0000
  0
SEQEND
  8
0
  0
POLYLINE
  8
48
 66
1
 10
0.0000
 20
0.0000
 30
0.0000
 40
0.0005
 41
0.0005
 70
0
  0
VERTEX
  8
48
 10
18.3310
 20
8.5278
 30
0.0000
 42
1.0000
  0
VERTEX
  8
48
 10
18.3310
 20
8.5282
 30
0.0000
  0
SEQEND
  8
0
  0
POLYLINE
  8
48
 66
1
 10
0.0000
 20
0.0000
 30
0.0000
 40
0.0005
 41
0.0005
 70
0
  0
VERTEX
  8
48
 10
9.3310
 20
8.5282
 30
0.0000
 42
1.0000
  0
VERTEX
  8
48
 10
9.3310
 20
8.5278
 30
0.0000
  0
SEQEND
  8
0
  0
POLYLINE
  8
48
 66
1
 10
0.0000
 20
0.0000
 30
0.0000
 40
0.0010
 41
0.0010
 70
0
  0
VERTEX
  8
48
 10
18.3310
 20
8.5280
 30
0.0000
  0
VERTEX
  8
48
 10
18.3310
 20
1.0280
 30
0.0000
  0
SEQEND
  8
0
  0
POLYLINE
  8
48
 66
1
 10
0.0000
 20
0.0000
 30
0.0000
 40
0.0005
 41
0.0005
 70
0
  0
VERTEX
  8
48
 10
18.3307
 20
1.0280
 30
0.0000
 42
1.0000
  0
VERTEX
  8
48
 10
18.3313
 20
1.0280
 30
0.0000
  0
SEQEND
  8
0
  0
POLYLINE
  8
48
 66
1
 10
0.0000
 20
0.0000
 30
0.0000
 40
0.0005
 41
0.0005
 70
0
  0
VERTEX
  8
48
 10
18.3313
 20
8.5280
 30
0.0000
 42
1.0000
  0
VERTEX
  8
48
 10
18.3307
 20
8.5280
 30
0.0000
  0
SEQEND
  8
0
  0
POLYLINE
  8
48
 66
1
 10
0.0000
 20
0.0000
 30
0.0000
 40
0.0010
 41
0.0010
 70
0
  0
VERTEX
  8
48
 10
18.3310
 20
1.0280
 30
0.0000
  0
VERTEX
  8
48
 10
9.3310
 20
1.0280
 30
0.0000
  0
SEQEND
  8
0
  0
POLYLINE
  8
48
 66
1
 10
0.0000
 20
0.0000
 30
0.0000
 40
0.0005
 41
0.0005
 70
0
  0
VERTEX
  8
48
 10
9.3310
 20
1.0283
 30
0.0000
 42
1.0000
  0
VERTEX
  8
48
 10
9.3310
 20
1.0277
 30
0.0000
  0
SEQEND
  8
0
  0
POLYLINE
  8
48
 66
1
 10
0.0000
 20
0.0000
 30
0.0000
 40
0.0005
 41
0.0005
 70
0
  0
VERTEX
  8
48
 10
18.3310
 20
1.0277
 30
0.0000
 42
1.0000
  0
VERTEX
  8
48
 10
18.3310
 20
1.0283
 30
0.0000
  0
SEQEND
  8
0
  0
POLYLINE
  8
48
 66
1
 10
0.0000
 20
0.0000
 30
0.0000
 40
0.0010
 41
0.0010
 70
0
  0
VERTEX
  8
48
 10
9.3310
 20
1.0280
 30
0.0000
  0
VERTEX
  8
48
 10
9.3310
 20
8.5280
 30
0.0000
  0
SEQEND
  8
0
  0
POLYLINE
  8
48
 66
1
 10
0.0000
 20
0.0000
 30
0.0000
 40
0.0005
 41
0.0005
 70
0
  0
VERTEX
  8
48
 10
9.3313
 20
8.5280
 30
0.0000
 42
1.0000
  0
VERTEX
  8
48
 10
9.3308
 20
8.5280
 30
0.0000
  0
SEQEND
  8
0
  0
POLYLINE
  8
48
 66
1
 10
0.0000
 20
0.0000
 30
0.0000
 40
0.0005
 41
0.0005
 70
0
  0
VERTEX
  8
48
 10
9.3308
 20
1.0280
 30
0.0000
 42
1.0000
  0
VERTEX
  8
48
 10
9.3313
 20
1.0280
 30
0.0000
  0
SEQEND
  8
0
  0
POLYLINE
  8
48
 66
1
 10
0.0000
 20
0.0000
 30
0.0000
 40
0.0010
 41
0.0010
 70
0
  0
VERTEX
  8
48
 10
13.8627
 20
3.7190
 30
0.0000
 42
1.0000
  0
VERTEX
  8
48
 10
13.8627
 20
7.2190
 30
0.0000
 42
1.0000
  0
VERTEX
  8
48
 10
13.8627
 20
3.7190
 30
0.0000
  0
SEQEND
  8
0
  0
POLYLINE
  8
48
 66
1
 10
0.0000
 20
0.0000
 30
0.0000
 40
0.0010
 41
0.0010
 70
0
  0
VERTEX
  8
48
 10
13.8870
 20
10.7210
 30
0.0000
 42
1.0000
  0
VERTEX
  8
48
 10
13.8870
 20
17.7210
 30
0.0000
 42
1.0000
  0
VERTEX
  8
48
 10
13.8870
 20
10.7210
 30
0.0000
  0
SEQEND
  8
0
  0
POLYLINE
  8
48
 66
1
 10
0.0000
 20
0.0000
 30
0.0000
 40
0.0010
 41
0.0010
 70
0
  0
VERTEX
  8
48
 10
13.8870
 20
10.7210
 30
0.0000
 42
1.0000
  0
VERTEX
  8
48
 10
13.8870
 20
17.7210
 30
0.0000
 42
1.0000
  0
VERTEX
  8
48
 10
13.8870
 20
10.7210
 30
0.0000
  0
SEQEND
  8
0
  0
POLYLINE
  8
48
 66
1
 10
0.0000
 20
0.0000
 30
0.0000
 40
0.0010
 41
0.0010
 70
0
  0
VERTEX
  8
48
 10
13.8870
 20
10.7210
 30
0.0000
 42
1.0000
  0
VERTEX
  8
48
 10
13.8870
 20
17.7210
 30
0.0000
 42
1.0000
  0
VERTEX
  8
48
 10
13.8870
 20
10.7210
 30
0.0000
  0
SEQEND
  8
0
  0
POLYLINE
  8
48
 66
1
 10
0.0000
 20
0.0000
 30
0.0000
 40
0.0010
 41
0.0010
 70
0
  0
VERTEX
  8
48
 10
13.8870
 20
10.6810
 30
0.0000
 42
1.0000
  0
VERTEX
  8
48
 10
13.8870
 20
17.7610
 30
0.0000
 42
1.0000
  0
VERTEX
  8
48
 10
13.8870
 20
10.6810
 30
0.0000
  0
SEQEND
  8
0
  0
POLYLINE
  8
48
 66
1
 10
0.0000
 20
0.0000
 30
0.0000
 40
0.0010
 41
0.0010
 70
0
  0
VERTEX
  8
48
 10
19.4444
 20
16.8710
 30
0.0000
 42
1.0000
  0
VERTEX
  8
48
 10
19.4444
 20
18.7026
 30
0.0000
 42
1.0000
  0
VERTEX
  8
48
 10
19.4444
 20
16.8710
 30
0.0000
  0
SEQEND
  8
0
  0
POLYLINE
  8
48
 66
1
 10
0.0000
 20
0.0000
 30
0.0000
 40
0.0010
 41
0.0010
 70
0
  0
VERTEX
  8
48
 10
19.4444
 20
14.3310
 30
0.0000
 42
1.0000
  0
VERTEX
  8
48
 10
19.4444
 20
16.1626
 30
0.0000
 42
1.0000
  0
VERTEX
  8
48
 10
19.4444
 20
14.3310
 30
0.0000
  0
SEQEND
  8
0
  0
POLYLINE
  8
48
 66
1
 10
0.0000
 20
0.0000
 30
0.0000
 40
0.0010
 41
0.0010
 70
0
  0
VERTEX
  8
48
 10
19.4444
 20
11.7910
 30
0.0000
 42
1.0000
  0
VERTEX
  8
48
 10
19.4444
 20
13.6226
 30
0.0000
 42
1.0000
  0
VERTEX
  8
48
 10
19.4444
 20
11.7910
 30
0.0000
  0
SEQEND
  8
0
  0
POLYLINE
  8
48
 66
1
 10
0.0000
 20
0.0000
 30
0.0000
 40
0.0010
 41
0.0010
 70
0
  0
VERTEX
  8
48
 10
19.4444
 20
9.2510
 30
0.0000
 42
1.0000
  0
VERTEX
  8
48
 10
19.4444
 20
11.0826
 30
0.0000
 42
1.0000
  0
VERTEX
  8
48
 10
19.4444
 20
9.2510
 30
0.0000
  0
SEQEND
  8
0
  0
POLYLINE
  8
48
 66
1
 10
0.0000
 20
0.0000
 30
0.0000
 40
0.0010
 41
0.0010
 70
0
  0
VERTEX
  8
48
 10
22.3910
 20
17.1813
 30
0.0000
 42
1.0000
  0
VERTEX
  8
48
 10
22.3910
 20
17.3907
 30
0.0000
 42
1.0000
  0
VERTEX
  8
48
 10
22.3910
 20
17.1813
 30
0.0000
  0
SEQEND
  8
0
  0
POLYLINE
  8
48
 66
1
 10
0.0000
 20
0.0000
 30
0.0000
 40
0.0010
 41
0.0010
 70
0
  0
VERTEX
  8
48
 10
12.1800
 20
21.4190
 30
0.0000
 42
1.0000
  0
VERTEX
  8
48
 10
12.1800
 20
22.4350
 30
0.0000
 42
1.0000
  0
VERTEX
  8
48
 10
12.1800
 20
21.4190
 30
0.0000
  0
SEQEND
  8
0
  0
POLYLINE
  8
48
 66
1
 10
0.0000
 20
0.0000
 30
0.0000
 40
0.0010
 41
0.0010
 70
0
  0
VERTEX
  8
48
 10
16.4980
 20
21.5460
 30
0.0000
 42
1.0000
  0
VERTEX
  8
48
 10
16.4980
 20
22.5620
 30
0.0000
 42
1.0000
  0
VERTEX
  8
48
 10
16.4980
 20
21.5460
 30
0.0000
  0
SEQEND
  8
0
  0
POLYLINE
  8
48
 66
1
 10
0.0000
 20
0.0000
 30
0.0000
 40
0.0010
 41
0.0010
 70
0
  0
VERTEX
  8
48
 10
16.4980
 20
25.7370
 30
0.0000
 42
1.0000
  0
VERTEX
  8
48
 10
16.4980
 20
26.7530
 30
0.0000
 42
1.0000
  0
VERTEX
  8
48
 10
16.4980
 20
25.7370
 30
0.0000
  0
SEQEND
  8
0
  0
POLYLINE
  8
48
 66
1
 10
0.0000
 20
0.0000
 30
0.0000
 40
0.0010
 41
0.0010
 70
0
  0
VERTEX
  8
48
 10
12.1800
 20
25.7370
 30
0.0000
 42
1.0000
  0
VERTEX
  8
48
 10
12.1800
 20
26.7530
 30
0.0000
 42
1.0000
  0
VERTEX
  8
48
 10
12.1800
 20
25.7370
 30
0.0000
  0
SEQEND
  8
0
  0
POLYLINE
  8
48
 66
1
 10
0.0000
 20
0.0000
 30
0.0000
 40
0.0010
 41
0.0010
 70
0
  0
VERTEX
  8
48
 10
11.6720
 20
1.8610
 30
0.0000
 42
1.0000
  0
VERTEX
  8
48
 10
11.6720
 20
2.8770
 30
0.0000
 42
1.0000
  0
VERTEX
  8
48
 10
11.6720
 20
1.8610
 30
0.0000
  0
SEQEND
  8
0
  0
POLYLINE
  8
48
 66
1
 10
0.0000
 20
0.0000
 30
0.0000
 40
0.0010
 41
0.0010
 70
0
  0
VERTEX
  8
48
 10
15.9900
 20
1.9880
 30
0.0000
 42
1.0000
  0
VERTEX
  8
48
 10
15.9900
 20
3.0040
 30
0.0000
 42
1.0000
  0
VERTEX
  8
48
 10
15.9900
 20
1.9880
 30
0.0000
  0
SEQEND
  8
0
  0
POLYLINE
  8
48
 66
1
 10
0.0000
 20
0.0000
 30
0.0000
 40
0.0010
 41
0.0010
 70
0
  0
VERTEX
  8
48
 10
15.9900
 20
6.1790
 30
0.0000
 42
1.0000
  0
VERTEX
  8
48
 10
15.9900
 20
7.1950
 30
0.0000
 42
1.0000
  0
VERTEX
  8
48
 10
15.9900
 20
6.1790
 30
0.0000
  0
SEQEND
  8
0
  0
POLYLINE
  8
48
 66
1
 10
0.0000
 20
0.0000
 30
0.0000
 40
0.0010
 41
0.0010
 70
0
  0
VERTEX
  8
48
 10
11.6720
 20
6.1790
 30
0.0000
 42
1.0000
  0
VERTEX
  8
48
 10
11.6720
 20
7.1950
 30
0.0000
 42
1.0000
  0
VERTEX
  8
48
 10
11.6720
 20
6.1790
 30
0.0000
  0
SEQEND
  8
0
  0
POINT
  8
23
 10
25.2890
 20
17.3780
 30
0.0000
  0
POLYLINE
  8
51
 66
1
 10
0.0000
 20
0.0000
 30
0.0000
 40
0.1016
 41
0.1016
 70
0
  0
VERTEX
  8
51
 10
25.7990
 20
16.8430
 30
0.0000
  0
VERTEX
  8
51
 10
24.7790
 20
16.8430
 30
0.0000
  0
SEQEND
  8
0
  0
POLYLINE
  8
51
 66
1
 10
0.0000
 20
0.0000
 30
0.0000
 40
0.0508
 41
0.0508
 70
0
  0
VERTEX
  8
51
 10
24.7790
 20
16.8684
 30
0.0000
 42
1.0000
  0
VERTEX
  8
51
 10
24.7790
 20
16.8176
 30
0.0000
  0
SEQEND
  8
0
  0
POLYLINE
  8
51
 66
1
 10
0.0000
 20
0.0000
 30
0.0000
 40
0.0508
 41
0.0508
 70
0
  0
VERTEX
  8
51
 10
25.7990
 20
16.8176
 30
0.0000
 42
1.0000
  0
VERTEX
  8
51
 10
25.7990
 20
16.8684
 30
0.0000
  0
SEQEND
  8
0
  0
POLYLINE
  8
51
 66
1
 10
0.0000
 20
0.0000
 30
0.0000
 40
0.1016
 41
0.1016
 70
0
  0
VERTEX
  8
51
 10
25.7990
 20
17.9130
 30
0.0000
  0
VERTEX
  8
51
 10
24.7790
 20
17.9130
 30
0.0000
  0
SEQEND
  8
0
  0
POLYLINE
  8
51
 66
1
 10
0.0000
 20
0.0000
 30
0.0000
 40
0.0508
 41
0.0508
 70
0
  0
VERTEX
  8
51
 10
24.7790
 20
17.9384
 30
0.0000
 42
1.0000
  0
VERTEX
  8
51
 10
24.7790
 20
17.8876
 30
0.0000
  0
SEQEND
  8
0
  0
POLYLINE
  8
51
 66
1
 10
0.0000
 20
0.0000
 30
0.0000
 40
0.0508
 41
0.0508
 70
0
  0
VERTEX
  8
51
 10
25.7990
 20
17.8876
 30
0.0000
 42
1.0000
  0
VERTEX
  8
51
 10
25.7990
 20
17.9384
 30
0.0000
  0
SEQEND
  8
0
  0
POLYLINE
  8
39
 66
1
 10
0.0000
 20
0.0000
 30
0.0000
 40
0.0508
 41
0.0508
 70
0
  0
VERTEX
  8
39
 10
27.1033
 20
16.5537
 30
0.0000
  0
VERTEX
  8
39
 10
23.4747
 20
16.5537
 30
0.0000
  0
SEQEND
  8
0
  0
POLYLINE
  8
39
 66
1
 10
0.0000
 20
0.0000
 30
0.0000
 40
0.0254
 41
0.0254
 70
0
  0
VERTEX
  8
39
 10
23.4747
 20
16.5664
 30
0.0000
 42
1.0000
  0
VERTEX
  8
39
 10
23.4747
 20
16.5410
 30
0.0000
  0
SEQEND
  8
0
  0
POLYLINE
  8
39
 66
1
 10
0.0000
 20
0.0000
 30
0.0000
 40
0.0254
 41
0.0254
 70
0
  0
VERTEX
  8
39
 10
27.1033
 20
16.5410
 30
0.0000
 42
1.0000
  0
VERTEX
  8
39
 10
27.1033
 20
16.5664
 30
0.0000
  0
SEQEND
  8
0
  0
POLYLINE
  8
39
 66
1
 10
0.0000
 20
0.0000
 30
0.0000
 40
0.0508
 41
0.0508
 70
0
  0
VERTEX
  8
39
 10
23.4747
 20
16.5537
 30
0.0000
  0
VERTEX
  8
39
 10
23.4747
 20
18.2023
 30
0.0000
  0
SEQEND
  8
0
  0
POLYLINE
  8
39
 66
1
 10
0.0000
 20
0.0000
 30
0.0000
 40
0.0254
 41
0.0254
 70
0
  0
VERTEX
  8
39
 10
23.4874
 20
18.2023
 30
0.0000
 42
1.0000
  0
VERTEX
  8
39
 10
23.4620
 20
18.2023
 30
0.0000
  0
SEQEND
  8
0
  0
POLYLINE
  8
39
 66
1
 10
0.0000
 20
0.0000
 30
0.0000
 40
0.0254
 41
0.0254
 70
0
  0
VERTEX
  8
39
 10
23.4620
 20
16.5537
 30
0.0000
 42
1.0000
  0
VERTEX
  8
39
 10
23.4874
 20
16.5537
 30
0.0000
  0
SEQEND
  8
0
  0
POLYLINE
  8
39
 66
1
 10
0.0000
 20
0.0000
 30
0.0000
 40
0.0508
 41
0.0508
 70
0
  0
VERTEX
  8
39
 10
23.4747
 20
18.2023
 30
0.0000
  0
VERTEX
  8
39
 10
27.1033
 20
18.2023
 30
0.0000
  0
SEQEND
  8
0
  0
POLYLINE
  8
39
 66
1
 10
0.0000
 20
0.0000
 30
0.0000
 40
0.0254
 41
0.0254
 70
0
  0
VERTEX
  8
39
 10
27.1033
 20
18.1896
 30
0.0000
 42
1.0000
  0
VERTEX
  8
39
 10
27.1033
 20
18.2150
 30
0.0000
  0
SEQEND
  8
0
  0
POLYLINE
  8
39
 66
1
 10
0.0000
 20
0.0000
 30
0.0000
 40
0.0254
 41
0.0254
 70
0
  0
VERTEX
  8
39
 10
23.4747
 20
18.2150
 30
0.0000
 42
1.0000
  0
VERTEX
  8
39
 10
23.4747
 20
18.1896
 30
0.0000
  0
SEQEND
  8
0
  0
POLYLINE
  8
39
 66
1
 10
0.0000
 20
0.0000
 30
0.0000
 40
0.0508
 41
0.0508
 70
0
  0
VERTEX
  8
39
 10
27.1033
 20
18.2023
 30
0.0000
  0
VERTEX
  8
39
 10
27.1033
 20
16.5537
 30
0.0000
  0
SEQEND
  8
0
  0
POLYLINE
  8
39
 66
1
 10
0.0000
 20
0.0000
 30
0.0000
 40
0.0254
 41
0.0254
 70
0
  0
VERTEX
  8
39
 10
27.0906
 20
16.5537
 30
0.0000
 42
1.0000
  0
VERTEX
  8
39
 10
27.1160
 20
16.5537
 30
0.0000
  0
SEQEND
  8
0
  0
POLYLINE
  8
39
 66
1
 10
0.0000
 20
0.0000
 30
0.0000
 40
0.0254
 41
0.0254
 70
0
  0
VERTEX
  8
39
 10
27.1160
 20
18.2023
 30
0.0000
 42
1.0000
  0
VERTEX
  8
39
 10
27.0906
 20
18.2023
 30
0.0000
  0
SEQEND
  8
0
  0
POLYLINE
  8
21
 66
1
 10
0.0000
 20
0.0000
 30
0.0000
 40
0.2032
 41
0.2032
 70
0
  0
VERTEX
  8
21
 10
27.1432
 20
16.4890
 30
0.0000
  0
VERTEX
  8
21
 10
23.4348
 20
16.4890
 30
0.0000
  0
SEQEND
  8
0
  0
POLYLINE
  8
21
 66
1
 10
0.0000
 20
0.0000
 30
0.0000
 40
0.1016
 41
0.1016
 70
0
  0
VERTEX
  8
21
 10
23.4348
 20
16.5398
 30
0.0000
 42
1.0000
  0
VERTEX
  8
21
 10
23.4348
 20
16.4382
 30
0.0000
  0
SEQEND
  8
0
  0
POLYLINE
  8
21
 66
1
 10
0.0000
 20
0.0000
 30
0.0000
 40
0.1016
 41
0.1016
 70
0
  0
VERTEX
  8
21
 10
27.1432
 20
16.4382
 30
0.0000
 42
1.0000
  0
VERTEX
  8
21
 10
27.1432
 20
16.5398
 30
0.0000
  0
SEQEND
  8
0
  0
POLYLINE
  8
21
 66
1
 10
0.0000
 20
0.0000
 30
0.0000
 40
0.2032
 41
0.2032
 70
0
  0
VERTEX
  8
21
 10
23.4348
 20
16.4890
 30
0.0000
  0
VERTEX
  8
21
 10
23.4348
 20
18.2670
 30
0.0000
  0
SEQEND
  8
0
  0
POLYLINE
  8
21
 66
1
 10
0.0000
 20
0.0000
 30
0.0000
 40
0.1016
 41
0.1016
 70
0
  0
VERTEX
  8
21
 10
23.4856
 20
18.2670
 30
0.0000
 42
1.0000
  0
VERTEX
  8
21
 10
23.3840
 20
18.2670
 30
0.0000
  0
SEQEND
  8
0
  0
POLYLINE
  8
21
 66
1
 10
0.0000
 20
0.0000
 30
0.0000
 40
0.1016
 41
0.1016
 70
0
  0
VERTEX
  8
21
 10
23.3840
 20
16.4890
 30
0.0000
 42
1.0000
  0
VERTEX
  8
21
 10
23.4856
 20
16.4890
 30
0.0000
  0
SEQEND
  8
0
  0
POLYLINE
  8
21
 66
1
 10
0.0000
 20
0.0000
 30
0.0000
 40
0.2032
 41
0.2032
 70
0
  0
VERTEX
  8
21
 10
23.4348
 20
18.2670
 30
0.0000
  0
VERTEX
  8
21
 10
27.1432
 20
18.2670
 30
0.0000
  0
SEQEND
  8
0
  0
POLYLINE
  8
21
 66
1
 10
0.0000
 20
0.0000
 30
0.0000
 40
0.1016
 41
0.1016
 70
0
  0
VERTEX
  8
21
 10
27.1432
 20
18.2162
 30
0.0000
 42
1.0000
  0
VERTEX
  8
21
 10
27.1432
 20
18.3178
 30
0.0000
  0
SEQEND
  8
0
  0
POLYLINE
  8
21
 66
1
 10
0.0000
 20
0.0000
 30
0.0000
 40
0.1016
 41
0.1016
 70
0
  0
VERTEX
  8
21
 10
23.4348
 20
18.3178
 30
0.0000
 42
1.0000
  0
VERTEX
  8
21
 10
23.4348
 20
18.2162
 30
0.0000
  0
SEQEND
  8
0
  0
POLYLINE
  8
21
 66
1
 10
0.0000
 20
0.0000
 30
0.0000
 40
0.2032
 41
0.2032
 70
0
  0
VERTEX
  8
21
 10
27.1432
 20
18.2670
 30
0.0000
  0
VERTEX
  8
21
 10
27.1432
 20
16.4890
 30
0.0000
  0
SEQEND
  8
0
  0
POLYLINE
  8
21
 66
1
 10
0.0000
 20
0.0000
 30
0.0000
 40
0.1016
 41
0.1016
 70
0
  0
VERTEX
  8
21
 10
27.0924
 20
16.4890
 30
0.0000
 42
1.0000
  0
VERTEX
  8
21
 10
27.1940
 20
16.4890
 30
0.0000
  0
SEQEND
  8
0
  0
POLYLINE
  8
21
 66
1
 10
0.0000
 20
0.0000
 30
0.0000
 40
0.1016
 41
0.1016
 70
0
  0
VERTEX
  8
21
 10
27.1940
 20
18.2670
 30
0.0000
 42
1.0000
  0
VERTEX
  8
21
 10
27.0924
 20
18.2670
 30
0.0000
  0
SEQEND
  8
0
  0
INSERT
  8
51
  2
RECT
 10
24.5858
 20
17.3780
 30
0.0000
 41
0.5936
 42
1.3000
 43
1.0000
 50
180.0000
  0
INSERT
  8
51
  2
RECT
 10
25.9974
 20
17.3780
 30
0.0000
 41
0.5832
 42
1.3000
 43
1.0000
 50
180.0000
  0
INSERT
  8
1
  2
RECT
 10
26.3050
 20
17.3780
 30
0.0000
 41
1.2000
 42
1.3000
 43
1.0000
 50
180.0000
  0
INSERT
  8
1
  2
RECT
 10
24.2730
 20
17.3780
 30
0.0000
 41
1.2000
 42
1.3000
 43
1.0000
 50
180.0000
  0
POLYLINE
  8
25
 66
1
 10
0.0000
 20
0.0000
 30
0.0000
 40
0.1524
 41
0.1524
 70
0
  0
VERTEX
  8
25
 10
26.3043
 20
15.3714
 30
0.0000
  0
VERTEX
  8
25
 10
26.1575
 20
15.3714
 30
0.0000
  0
SEQEND
  8
0
  0
POLYLINE
  8
25
 66
1
 10
0.0000
 20
0.0000
 30
0.0000
 40
0.0762
 41
0.0762
 70
0
  0
VERTEX
  8
25
 10
26.1575
 20
15.4095
 30
0.0000
 42
1.0000
  0
VERTEX
  8
25
 10
26.1575
 20
15.3333
 30
0.0000
  0
SEQEND
  8
0
  0
POLYLINE
  8
25
 66
1
 10
0.0000
 20
0.0000
 30
0.0000
 40
0.0762
 41
0.0762
 70
0
  0
VERTEX
  8
25
 10
26.3043
 20
15.3333
 30
0.0000
 42
1.0000
  0
VERTEX
  8
25
 10
26.3043
 20
15.4095
 30
0.0000
  0
SEQEND
  8
0
  0
POLYLINE
  8
25
 66
1
 10
0.0000
 20
0.0000
 30
0.0000
 40
0.1524
 41
0.1524
 70
0
  0
VERTEX
  8
25
 10
26.0108
 20
15.5182
 30
0.0000
 42
0.4142
  0
VERTEX
  8
25
 10
26.1575
 20
15.3714
 30
0.0000
  0
SEQEND
  8
0
  0
POLYLINE
  8
25
 66
1
 10
0.0000
 20
0.0000
 30
0.0000
 40
0.0762
 41
0.0762
 70
0
  0
VERTEX
  8
25
 10
26.0489
 20
15.5182
 30
0.0000
 42
1.0000
  0
VERTEX
  8
25
 10
25.9727
 20
15.5182
 30
0.0000
  0
SEQEND
  8
0
  0
POLYLINE
  8
25
 66
1
 10
0.0000
 20
0.0000
 30
0.0000
 40
0.0762
 41
0.0762
 70
0
  0
VERTEX
  8
25
 10
26.1575
 20
15.3333
 30
0.0000
 42
1.0000
  0
VERTEX
  8
25
 10
26.1575
 20
15.4095
 30
0.0000
  0
SEQEND
  8
0
  0
POLYLINE
  8
25
 66
1
 10
0.0000
 20
0.0000
 30
0.0000
 40
0.1524
 41
0.1524
 70
0
  0
VERTEX
  8
25
 10
26.0108
 20
15.5182
 30
0.0000
  0
VERTEX
  8
25
 10
26.0108
 20
15.8850
 30
0.0000
  0
SEQEND
  8
0
  0
POLYLINE
  8
25
 66
1
 10
0.0000
 20
0.0000
 30
0.0000
 40
0.0762
 41
0.0762
 70
0
  0
VERTEX
  8
25
 10
26.0489
 20
15.8850
 30
0.0000
 42
1.0000
  0
VERTEX
  8
25
 10
25.9727
 20
15.8850
 30
0.0000
  0
SEQEND
  8
0
  0
POLYLINE
  8
25
 66
1
 10
0.0000
 20
0.0000
 30
0.0000
 40
0.0762
 41
0.0762
 70
0
  0
VERTEX
  8
25
 10
25.9727
 20
15.5182
 30
0.0000
 42
1.0000
  0
VERTEX
  8
25
 10
26.0489
 20
15.5182
 30
0.0000
  0
SEQEND
  8
0
  0
POLYLINE
  8
25
 66
1
 10
0.0000
 20
0.0000
 30
0.0000
 40
0.1524
 41
0.1524
 70
0
  0
VERTEX
  8
25
 10
26.1575
 20
16.0318
 30
0.0000
 42
0.4142
  0
VERTEX
  8
25
 10
26.0108
 20
15.8850
 30
0.0000
  0
SEQEND
  8
0
  0
POLYLINE
  8
25
 66
1
 10
0.0000
 20
0.0000
 30
0.0000
 40
0.0762
 41
0.0762
 70
0
  0
VERTEX
  8
25
 10
26.1575
 20
15.9937
 30
0.0000
 42
1.0000
  0
VERTEX
  8
25
 10
26.1575
 20
16.0699
 30
0.0000
  0
SEQEND
  8
0
  0
POLYLINE
  8
25
 66
1
 10
0.0000
 20
0.0000
 30
0.0000
 40
0.0762
 41
0.0762
 70
0
  0
VERTEX
  8
25
 10
25.9727
 20
15.8850
 30
0.0000
 42
1.0000
  0
VERTEX
  8
25
 10
26.0489
 20
15.8850
 30
0.0000
  0
SEQEND
  8
0
  0
POLYLINE
  8
25
 66
1
 10
0.0000
 20
0.0000
 30
0.0000
 40
0.1524
 41
0.1524
 70
0
  0
VERTEX
  8
25
 10
26.1575
 20
16.0318
 30
0.0000
  0
VERTEX
  8
25
 10
26.3043
 20
16.0318
 30
0.0000
  0
SEQEND
  8
0
  0
POLYLINE
  8
25
 66
1
 10
0.0000
 20
0.0000
 30
0.0000
 40
0.0762
 41
0.0762
 70
0
  0
VERTEX
  8
25
 10
26.3043
 20
15.9937
 30
0.0000
 42
1.0000
  0
VERTEX
  8
25
 10
26.3043
 20
16.0699
 30
0.0000
  0
SEQEND
  8
0
  0
POLYLINE
  8
25
 66
1
 10
0.0000
 20
0.0000
 30
0.0000
 40
0.0762
 41
0.0762
 70
0
  0
VERTEX
  8
25
 10
26.1575
 20
16.0699
 30
0.0000
 42
1.0000
  0
VERTEX
  8
25
 10
26.1575
 20
15.9937
 30
0.0000
  0
SEQEND
  8
0
  0
POLYLINE
  8
25
 66
1
 10
0.0000
 20
0.0000
 30
0.0000
 40
0.1524
 41
0.1524
 70
0
  0
VERTEX
  8
25
 10
26.6239
 20
15.8850
 30
0.0000
  0
VERTEX
  8
25
 10
26.8074
 20
16.0318
 30
0.0000
  0
SEQEND
  8
0
  0
POLYLINE
  8
25
 66
1
 10
0.0000
 20
0.0000
 30
0.0000
 40
0.0762
 41
0.0762
 70
0
  0
VERTEX
  8
25
 10
26.8312
 20
16.0020
 30
0.0000
 42
1.0000
  0
VERTEX
  8
25
 10
26.7836
 20
16.0616
 30
0.0000
  0
SEQEND
  8
0
  0
POLYLINE
  8
25
 66
1
 10
0.0000
 20
0.0000
 30
0.0000
 40
0.0762
 41
0.0762
 70
0
  0
VERTEX
  8
25
 10
26.6001
 20
15.9148
 30
0.0000
 42
1.0000
  0
VERTEX
  8
25
 10
26.6477
 20
15.8553
 30
0.0000
  0
SEQEND
  8
0
  0
POLYLINE
  8
25
 66
1
 10
0.0000
 20
0.0000
 30
0.0000
 40
0.1524
 41
0.1524
 70
0
  0
VERTEX
  8
25
 10
26.8074
 20
16.0318
 30
0.0000
  0
VERTEX
  8
25
 10
26.8074
 20
15.3714
 30
0.0000
  0
SEQEND
  8
0
  0
POLYLINE
  8
25
 66
1
 10
0.0000
 20
0.0000
 30
0.0000
 40
0.0762
 41
0.0762
 70
0
  0
VERTEX
  8
25
 10
26.7693
 20
15.3714
 30
0.0000
 42
1.0000
  0
VERTEX
  8
25
 10
26.8455
 20
15.3714
 30
0.0000
  0
SEQEND
  8
0
  0
POLYLINE
  8
25
 66
1
 10
0.0000
 20
0.0000
 30
0.0000
 40
0.0762
 41
0.0762
 70
0
  0
VERTEX
  8
25
 10
26.8455
 20
16.0318
 30
0.0000
 42
1.0000
  0
VERTEX
  8
25
 10
26.7693
 20
16.0318
 30
0.0000
  0
SEQEND
  8
0
  0
POLYLINE
  8
25
 66
1
 10
0.0000
 20
0.0000
 30
0.0000
 40
0.1524
 41
0.1524
 70
0
  0
VERTEX
  8
25
 10
26.6239
 20
15.3714
 30
0.0000
  0
VERTEX
  8
25
 10
26.9908
 20
15.3714
 30
0.0000
  0
SEQEND
  8
0
  0
POLYLINE
  8
25
 66
1
 10
0.0000
 20
0.0000
 30
0.0000
 40
0.0762
 41
0.0762
 70
0
  0
VERTEX
  8
25
 10
26.9908
 20
15.3333
 30
0.0000
 42
1.0000
  0
VERTEX
  8
25
 10
26.9908
 20
15.4095
 30
0.0000
  0
SEQEND
  8
0
  0
POLYLINE
  8
25
 66
1
 10
0.0000
 20
0.0000
 30
0.0000
 40
0.0762
 41
0.0762
 70
0
  0
VERTEX
  8
25
 10
26.6239
 20
15.4095
 30
0.0000
 42
1.0000
  0
VERTEX
  8
25
 10
26.6239
 20
15.3333
 30
0.0000
  0
SEQEND
  8
0
  0
POLYLINE
  8
27
 66
1
 10
0.0000
 20
0.0000
 30
0.0000
 40
0.0508
 41
0.0508
 70
0
  0
VERTEX
  8
27
 10
25.1108
 20
19.0530
 30
0.0000
 42
0.1139
  0
VERTEX
  8
27
 10
25.0642
 20
18.8512
 30
0.0000
  0
SEQEND
  8
0
  0
POLYLINE
  8
27
 66
1
 10
0.0000
 20
0.0000
 30
0.0000
 40
0.0254
 41
0.0254
 70
0
  0
VERTEX
  8
27
 10
25.1222
 20
19.0474
 30
0.0000
 42
1.0000
  0
VERTEX
  8
27
 10
25.0994
 20
19.0586
 30
0.0000
  0
SEQEND
  8
0
  0
POLYLINE
  8
27
 66
1
 10
0.0000
 20
0.0000
 30
0.0000
 40
0.0254
 41
0.0254
 70
0
  0
VERTEX
  8
27
 10
25.0515
 20
18.8512
 30
0.0000
 42
1.0000
  0
VERTEX
  8
27
 10
25.0769
 20
18.8512
 30
0.0000
  0
SEQEND
  8
0
  0
POLYLINE
  8
27
 66
1
 10
0.0000
 20
0.0000
 30
0.0000
 40
0.0508
 41
0.0508
 70
0
  0
VERTEX
  8
27
 10
25.2195
 20
19.1306
 30
0.0000
 42
0.3205
  0
VERTEX
  8
27
 10
25.1108
 20
19.0530
 30
0.0000
  0
SEQEND
  8
0
  0
POLYLINE
  8
27
 66
1
 10
0.0000
 20
0.0000
 30
0.0000
 40
0.0254
 41
0.0254
 70
0
  0
VERTEX
  8
27
 10
25.2195
 20
19.1179
 30
0.0000
 42
1.0000
  0
VERTEX
  8
27
 10
25.2195
 20
19.1433
 30
0.0000
  0
SEQEND
  8
0
  0
POLYLINE
  8
27
 66
1
 10
0.0000
 20
0.0000
 30
0.0000
 40
0.0254
 41
0.0254
 70
0
  0
VERTEX
  8
27
 10
25.0988
 20
19.0571
 30
0.0000
 42
1.0000
  0
VERTEX
  8
27
 10
25.1228
 20
19.0489
 30
0.0000
  0
SEQEND
  8
0
  0
POLYLINE
  8
27
 66
1
 10
0.0000
 20
0.0000
 30
0.0000
 40
0.0508
 41
0.0508
 70
0
  0
VERTEX
  8
27
 10
25.3281
 20
19.0530
 30
0.0000
 42
0.3205
  0
VERTEX
  8
27
 10
25.2195
 20
19.1306
 30
0.0000
  0
SEQEND
  8
0
  0
POLYLINE
  8
27
 66
1
 10
0.0000
 20
0.0000
 30
0.0000
 40
0.0254
 41
0.0254
 70
0
  0
VERTEX
  8
27
 10
25.3161
 20
19.0489
 30
0.0000
 42
1.0000
  0
VERTEX
  8
27
 10
25.3401
 20
19.0571
 30
0.0000
  0
SEQEND
  8
0
  0
POLYLINE
  8
27
 66
1
 10
0.0000
 20
0.0000
 30
0.0000
 40
0.0254
 41
0.0254
 70
0
  0
VERTEX
  8
27
 10
25.2195
 20
19.1433
 30
0.0000
 42
1.0000
  0
VERTEX
  8
27
 10
25.2195
 20
19.1179
 30
0.0000
  0
SEQEND
  8
0
  0
POLYLINE
  8
27
 66
1
 10
0.0000
 20
0.0000
 30
0.0000
 40
0.0508
 41
0.0508
 70
0
  0
VERTEX
  8
27
 10
25.3747
 20
18.8512
 30
0.0000
 42
0.1139
  0
VERTEX
  8
27
 10
25.3281
 20
19.0530
 30
0.0000
  0
SEQEND
  8
0
  0
POLYLINE
  8
27
 66
1
 10
0.0000
 20
0.0000
 30
0.0000
 40
0.0254
 41
0.0254
 70
0
  0
VERTEX
  8
27
 10
25.3620
 20
18.8512
 30
0.0000
 42
1.0000
  0
VERTEX
  8
27
 10
25.3874
 20
18.8512
 30
0.0000
  0
SEQEND
  8
0
  0
POLYLINE
  8
27
 66
1
 10
0.0000
 20
0.0000
 30
0.0000
 40
0.0254
 41
0.0254
 70
0
  0
VERTEX
  8
27
 10
25.3395
 20
19.0586
 30
0.0000
 42
1.0000
  0
VERTEX
  8
27
 10
25.3167
 20
19.0474
 30
0.0000
  0
SEQEND
  8
0
  0
POLYLINE
  8
27
 66
1
 10
0.0000
 20
0.0000
 30
0.0000
 40
0.0508
 41
0.0508
 70
0
  0
VERTEX
  8
27
 10
25.0642
 20
18.8512
 30
0.0000
 42
0.1139
  0
VERTEX
  8
27
 10
25.1108
 20
18.6494
 30
0.0000
  0
SEQEND
  8
0
  0
POLYLINE
  8
27
 66
1
 10
0.0000
 20
0.0000
 30
0.0000
 40
0.0254
 41
0.0254
 70
0
  0
VERTEX
  8
27
 10
25.0769
 20
18.8512
 30
0.0000
 42
1.0000
  0
VERTEX
  8
27
 10
25.0515
 20
18.8512
 30
0.0000
  0
SEQEND
  8
0
  0
POLYLINE
  8
27
 66
1
 10
0.0000
 20
0.0000
 30
0.0000
 40
0.0254
 41
0.0254
 70
0
  0
VERTEX
  8
27
 10
25.0994
 20
18.6438
 30
0.0000
 42
1.0000
  0
VERTEX
  8
27
 10
25.1222
 20
18.6550
 30
0.0000
  0
SEQEND
  8
0
  0
POLYLINE
  8
27
 66
1
 10
0.0000
 20
0.0000
 30
0.0000
 40
0.0508
 41
0.0508
 70
0
  0
VERTEX
  8
27
 10
25.1108
 20
18.6494
 30
0.0000
 42
0.3205
  0
VERTEX
  8
27
 10
25.2195
 20
18.5718
 30
0.0000
  0
SEQEND
  8
0
  0
POLYLINE
  8
27
 66
1
 10
0.0000
 20
0.0000
 30
0.0000
 40
0.0254
 41
0.0254
 70
0
  0
VERTEX
  8
27
 10
25.1228
 20
18.6535
 30
0.0000
 42
1.0000
  0
VERTEX
  8
27
 10
25.0988
 20
18.6453
 30
0.0000
  0
SEQEND
  8
0
  0
POLYLINE
  8
27
 66
1
 10
0.0000
 20
0.0000
 30
0.0000
 40
0.0254
 41
0.0254
 70
0
  0
VERTEX
  8
27
 10
25.2195
 20
18.5591
 30
0.0000
 42
1.0000
  0
VERTEX
  8
27
 10
25.2195
 20
18.5845
 30
0.0000
  0
SEQEND
  8
0
  0
POLYLINE
  8
27
 66
1
 10
0.0000
 20
0.0000
 30
0.0000
 40
0.0508
 41
0.0508
 70
0
  0
VERTEX
  8
27
 10
25.3281
 20
18.6494
 30
0.0000
 42
0.1139
  0
VERTEX
  8
27
 10
25.3747
 20
18.8512
 30
0.0000
  0
SEQEND
  8
0
  0
POLYLINE
  8
27
 66
1
 10
0.0000
 20
0.0000
 30
0.0000
 40
0.0254
 41
0.0254
 70
0
  0
VERTEX
  8
27
 10
25.3167
 20
18.6550
 30
0.0000
 42
1.0000
  0
VERTEX
  8
27
 10
25.3395
 20
18.6438
 30
0.0000
  0
SEQEND
  8
0
  0
POLYLINE
  8
27
 66
1
 10
0.0000
 20
0.0000
 30
0.0000
 40
0.0254
 41
0.0254
 70
0
  0
VERTEX
  8
27
 10
25.3874
 20
18.8512
 30
0.0000
 42
1.0000
  0
VERTEX
  8
27
 10
25.3620
 20
18.8512
 30
0.0000
  0
SEQEND
  8
0
  0
POLYLINE
  8
27
 66
1
 10
0.0000
 20
0.0000
 30
0.0000
 40
0.0508
 41
0.0508
 70
0
  0
VERTEX
  8
27
 10
25.2195
 20
18.5718
 30
0.0000
 42
0.3205
  0
VERTEX
  8
27
 10
25.3281
 20
18.6494
 30
0.0000
  0
SEQEND
  8
0
  0
POLYLINE
  8
27
 66
1
 10
0.0000
 20
0.0000
 30
0.0000
 40
0.0254
 41
0.0254
 70
0
  0
VERTEX
  8
27
 10
25.2195
 20
18.5845
 30
0.0000
 42
1.0000
  0
VERTEX
  8
27
 10
25.2195
 20
18.5591
 30
0.0000
  0
SEQEND
  8
0
  0
POLYLINE
  8
27
 66
1
 10
0.0000
 20
0.0000
 30
0.0000
 40
0.0254
 41
0.0254
 70
0
  0
VERTEX
  8
27
 10
25.3401
 20
18.6453
 30
0.0000
 42
1.0000
  0
VERTEX
  8
27
 10
25.3161
 20
18.6535
 30
0.0000
  0
SEQEND
  8
0
  0
POLYLINE
  8
27
 66
1
 10
0.0000
 20
0.0000
 30
0.0000
 40
0.0508
 41
0.0508
 70
0
  0
VERTEX
  8
27
 10
25.0953
 20
18.6960
 30
0.0000
  0
VERTEX
  8
27
 10
25.3436
 20
19.0064
 30
0.0000
  0
SEQEND
  8
0
  0
POLYLINE
  8
27
 66
1
 10
0.0000
 20
0.0000
 30
0.0000
 40
0.0254
 41
0.0254
 70
0
  0
VERTEX
  8
27
 10
25.3535
 20
18.9985
 30
0.0000
 42
1.0000
  0
VERTEX
  8
27
 10
25.3337
 20
19.0144
 30
0.0000
  0
SEQEND
  8
0
  0
POLYLINE
  8
27
 66
1
 10
0.0000
 20
0.0000
 30
0.0000
 40
0.0254
 41
0.0254
 70
0
  0
VERTEX
  8
27
 10
25.0854
 20
18.7039
 30
0.0000
 42
1.0000
  0
VERTEX
  8
27
 10
25.1052
 20
18.6880
 30
0.0000
  0
SEQEND
  8
0
  0
POLYLINE
  8
27
 66
1
 10
0.0000
 20
0.0000
 30
0.0000
 40
0.0508
 41
0.0508
 70
0
  0
VERTEX
  8
27
 10
25.5880
 20
18.5718
 30
0.0000
  0
VERTEX
  8
27
 10
25.5880
 20
18.6028
 30
0.0000
  0
SEQEND
  8
0
  0
POLYLINE
  8
27
 66
1
 10
0.0000
 20
0.0000
 30
0.0000
 40
0.0254
 41
0.0254
 70
0
  0
VERTEX
  8
27
 10
25.6007
 20
18.6028
 30
0.0000
 42
1.0000
  0
VERTEX
  8
27
 10
25.5753
 20
18.6028
 30
0.0000
  0
SEQEND
  8
0
  0
POLYLINE
  8
27
 66
1
 10
0.0000
 20
0.0000
 30
0.0000
 40
0.0254
 41
0.0254
 70
0
  0
VERTEX
  8
27
 10
25.5753
 20
18.5718
 30
0.0000
 42
1.0000
  0
VERTEX
  8
27
 10
25.6007
 20
18.5718
 30
0.0000
  0
SEQEND
  8
0
  0
POLYLINE
  8
27
 66
1
 10
0.0000
 20
0.0000
 30
0.0000
 40
0.0508
 41
0.0508
 70
0
  0
VERTEX
  8
27
 10
25.5880
 20
18.6028
 30
0.0000
  0
VERTEX
  8
27
 10
25.6190
 20
18.6028
 30
0.0000
  0
SEQEND
  8
0
  0
POLYLINE
  8
27
 66
1
 10
0.0000
 20
0.0000
 30
0.0000
 40
0.0254
 41
0.0254
 70
0
  0
VERTEX
  8
27
 10
25.6190
 20
18.5901
 30
0.0000
 42
1.0000
  0
VERTEX
  8
27
 10
25.6190
 20
18.6155
 30
0.0000
  0
SEQEND
  8
0
  0
POLYLINE
  8
27
 66
1
 10
0.0000
 20
0.0000
 30
0.0000
 40
0.0254
 41
0.0254
 70
0
  0
VERTEX
  8
27
 10
25.5880
 20
18.6155
 30
0.0000
 42
1.0000
  0
VERTEX
  8
27
 10
25.5880
 20
18.5901
 30
0.0000
  0
SEQEND
  8
0
  0
POLYLINE
  8
27
 66
1
 10
0.0000
 20
0.0000
 30
0.0000
 40
0.0508
 41
0.0508
 70
0
  0
VERTEX
  8
27
 10
25.6190
 20
18.6028
 30
0.0000
  0
VERTEX
  8
27
 10
25.6190
 20
18.5718
 30
0.0000
  0
SEQEND
  8
0
  0
POLYLINE
  8
27
 66
1
 10
0.0000
 20
0.0000
 30
0.0000
 40
0.0254
 41
0.0254
 70
0
  0
VERTEX
  8
27
 10
25.6063
 20
18.5718
 30
0.0000
 42
1.0000
  0
VERTEX
  8
27
 10
25.6317
 20
18.5718
 30
0.0000
  0
SEQEND
  8
0
  0
POLYLINE
  8
27
 66
1
 10
0.0000
 20
0.0000
 30
0.0000
 40
0.0254
 41
0.0254
 70
0
  0
VERTEX
  8
27
 10
25.6317
 20
18.6028
 30
0.0000
 42
1.0000
  0
VERTEX
  8
27
 10
25.6063
 20
18.6028
 30
0.0000
  0
SEQEND
  8
0
  0
POLYLINE
  8
27
 66
1
 10
0.0000
 20
0.0000
 30
0.0000
 40
0.0508
 41
0.0508
 70
0
  0
VERTEX
  8
27
 10
25.6190
 20
18.5718
 30
0.0000
  0
VERTEX
  8
27
 10
25.5880
 20
18.5718
 30
0.0000
  0
SEQEND
  8
0
  0
POLYLINE
  8
27
 66
1
 10
0.0000
 20
0.0000
 30
0.0000
 40
0.0254
 41
0.0254
 70
0
  0
VERTEX
  8
27
 10
25.5880
 20
18.5845
 30
0.0000
 42
1.0000
  0
VERTEX
  8
27
 10
25.5880
 20
18.5591
 30
0.0000
  0
SEQEND
  8
0
  0
POLYLINE
  8
27
 66
1
 10
0.0000
 20
0.0000
 30
0.0000
 40
0.0254
 41
0.0254
 70
0
  0
VERTEX
  8
27
 10
25.6190
 20
18.5591
 30
0.0000
 42
1.0000
  0
VERTEX
  8
27
 10
25.6190
 20
18.5845
 30
0.0000
  0
SEQEND
  8
0
  0
POLYLINE
  8
27
 66
1
 10
0.0000
 20
0.0000
 30
0.0000
 40
0.0508
 41
0.0508
 70
0
  0
VERTEX
  8
27
 10
25.8323
 20
19.0064
 30
0.0000
  0
VERTEX
  8
27
 10
25.9875
 20
19.1306
 30
0.0000
  0
SEQEND
  8
0
  0
POLYLINE
  8
27
 66
1
 10
0.0000
 20
0.0000
 30
0.0000
 40
0.0254
 41
0.0254
 70
0
  0
VERTEX
  8
27
 10
25.9955
 20
19.1207
 30
0.0000
 42
1.0000
  0
VERTEX
  8
27
 10
25.9796
 20
19.1405
 30
0.0000
  0
SEQEND
  8
0
  0
POLYLINE
  8
27
 66
1
 10
0.0000
 20
0.0000
 30
0.0000
 40
0.0254
 41
0.0254
 70
0
  0
VERTEX
  8
27
 10
25.8244
 20
19.0163
 30
0.0000
 42
1.0000
  0
VERTEX
  8
27
 10
25.8403
 20
18.9965
 30
0.0000
  0
SEQEND
  8
0
  0
POLYLINE
  8
27
 66
1
 10
0.0000
 20
0.0000
 30
0.0000
 40
0.0508
 41
0.0508
 70
0
  0
VERTEX
  8
27
 10
25.9875
 20
19.1306
 30
0.0000
  0
VERTEX
  8
27
 10
25.9875
 20
18.5718
 30
0.0000
  0
SEQEND
  8
0
  0
POLYLINE
  8
27
 66
1
 10
0.0000
 20
0.0000
 30
0.0000
 40
0.0254
 41
0.0254
 70
0
  0
VERTEX
  8
27
 10
25.9748
 20
18.5718
 30
0.0000
 42
1.0000
  0
VERTEX
  8
27
 10
26.0002
 20
18.5718
 30
0.0000
  0
SEQEND
  8
0
  0
POLYLINE
  8
27
 66
1
 10
0.0000
 20
0.0000
 30
0.0000
 40
0.0254
 41
0.0254
 70
0
  0
VERTEX
  8
27
 10
26.0002
 20
19.1306
 30
0.0000
 42
1.0000
  0
VERTEX
  8
27
 10
25.9748
 20
19.1306
 30
0.0000
  0
SEQEND
  8
0
  0
POLYLINE
  8
27
 66
1
 10
0.0000
 20
0.0000
 30
0.0000
 40
0.0508
 41
0.0508
 70
0
  0
VERTEX
  8
27
 10
25.8323
 20
18.5718
 30
0.0000
  0
VERTEX
  8
27
 10
26.1428
 20
18.5718
 30
0.0000
  0
SEQEND
  8
0
  0
POLYLINE
  8
27
 66
1
 10
0.0000
 20
0.0000
 30
0.0000
 40
0.0254
 41
0.0254
 70
0
  0
VERTEX
  8
27
 10
26.1428
 20
18.5591
 30
0.0000
 42
1.0000
  0
VERTEX
  8
27
 10
26.1428
 20
18.5845
 30
0.0000
  0
SEQEND
  8
0
  0
POLYLINE
  8
27
 66
1
 10
0.0000
 20
0.0000
 30
0.0000
 40
0.0254
 41
0.0254
 70
0
  0
VERTEX
  8
27
 10
25.8323
 20
18.5845
 30
0.0000
 42
1.0000
  0
VERTEX
  8
27
 10
25.8323
 20
18.5591
 30
0.0000
  0
SEQEND
  8
0
  0
POLYLINE
  8
27
 66
1
 10
0.0000
 20
0.0000
 30
0.0000
 40
0.0508
 41
0.0508
 70
0
  0
VERTEX
  8
27
 10
26.3937
 20
18.9443
 30
0.0000
  0
VERTEX
  8
27
 10
26.3937
 20
18.6649
 30
0.0000
  0
SEQEND
  8
0
  0
POLYLINE
  8
27
 66
1
 10
0.0000
 20
0.0000
 30
0.0000
 40
0.0254
 41
0.0254
 70
0
  0
VERTEX
  8
27
 10
26.3810
 20
18.6649
 30
0.0000
 42
1.0000
  0
VERTEX
  8
27
 10
26.4064
 20
18.6649
 30
0.0000
  0
SEQEND
  8
0
  0
POLYLINE
  8
27
 66
1
 10
0.0000
 20
0.0000
 30
0.0000
 40
0.0254
 41
0.0254
 70
0
  0
VERTEX
  8
27
 10
26.4064
 20
18.9443
 30
0.0000
 42
1.0000
  0
VERTEX
  8
27
 10
26.3810
 20
18.9443
 30
0.0000
  0
SEQEND
  8
0
  0
POLYLINE
  8
27
 66
1
 10
0.0000
 20
0.0000
 30
0.0000
 40
0.0508
 41
0.0508
 70
0
  0
VERTEX
  8
27
 10
26.3937
 20
18.6649
 30
0.0000
 42
0.4142
  0
VERTEX
  8
27
 10
26.4868
 20
18.5718
 30
0.0000
  0
SEQEND
  8
0
  0
POLYLINE
  8
27
 66
1
 10
0.0000
 20
0.0000
 30
0.0000
 40
0.0254
 41
0.0254
 70
0
  0
VERTEX
  8
27
 10
26.4064
 20
18.6649
 30
0.0000
 42
1.0000
  0
VERTEX
  8
27
 10
26.3810
 20
18.6649
 30
0.0000
  0
SEQEND
  8
0
  0
POLYLINE
  8
27
 66
1
 10
0.0000
 20
0.0000
 30
0.0000
 40
0.0254
 41
0.0254
 70
0
  0
VERTEX
  8
27
 10
26.4868
 20
18.5591
 30
0.0000
 42
1.0000
  0
VERTEX
  8
27
 10
26.4868
 20
18.5845
 30
0.0000
  0
SEQEND
  8
0
  0
POLYLINE
  8
27
 66
1
 10
0.0000
 20
0.0000
 30
0.0000
 40
0.0508
 41
0.0508
 70
0
  0
VERTEX
  8
27
 10
26.4868
 20
18.5718
 30
0.0000
  0
VERTEX
  8
27
 10
26.6421
 20
18.5718
 30
0.0000
  0
SEQEND
  8
0
  0
POLYLINE
  8
27
 66
1
 10
0.0000
 20
0.0000
 30
0.0000
 40
0.0254
 41
0.0254
 70
0
  0
VERTEX
  8
27
 10
26.6421
 20
18.5591
 30
0.0000
 42
1.0000
  0
VERTEX
  8
27
 10
26.6421
 20
18.5845
 30
0.0000
  0
SEQEND
  8
0
  0
POLYLINE
  8
27
 66
1
 10
0.0000
 20
0.0000
 30
0.0000
 40
0.0254
 41
0.0254
 70
0
  0
VERTEX
  8
27
 10
26.4868
 20
18.5845
 30
0.0000
 42
1.0000
  0
VERTEX
  8
27
 10
26.4868
 20
18.5591
 30
0.0000
  0
SEQEND
  8
0
  0
POLYLINE
  8
27
 66
1
 10
0.0000
 20
0.0000
 30
0.0000
 40
0.0508
 41
0.0508
 70
0
  0
VERTEX
  8
27
 10
26.6421
 20
18.5718
 30
0.0000
  0
VERTEX
  8
27
 10
26.6421
 20
18.9443
 30
0.0000
  0
SEQEND
  8
0
  0
POLYLINE
  8
27
 66
1
 10
0.0000
 20
0.0000
 30
0.0000
 40
0.0254
 41
0.0254
 70
0
  0
VERTEX
  8
27
 10
26.6548
 20
18.9443
 30
0.0000
 42
1.0000
  0
VERTEX
  8
27
 10
26.6294
 20
18.9443
 30
0.0000
  0
SEQEND
  8
0
  0
POLYLINE
  8
27
 66
1
 10
0.0000
 20
0.0000
 30
0.0000
 40
0.0254
 41
0.0254
 70
0
  0
VERTEX
  8
27
 10
26.6294
 20
18.5718
 30
0.0000
 42
1.0000
  0
VERTEX
  8
27
 10
26.6548
 20
18.5718
 30
0.0000
  0
SEQEND
  8
0
  0
POLYLINE
  8
27
 66
1
 10
0.0000
 20
0.0000
 30
0.0000
 40
0.0508
 41
0.0508
 70
0
  0
VERTEX
  8
27
 10
26.9174
 20
18.5718
 30
0.0000
  0
VERTEX
  8
27
 10
26.9174
 20
19.0375
 30
0.0000
  0
SEQEND
  8
0
  0
POLYLINE
  8
27
 66
1
 10
0.0000
 20
0.0000
 30
0.0000
 40
0.0254
 41
0.0254
 70
0
  0
VERTEX
  8
27
 10
26.9301
 20
19.0375
 30
0.0000
 42
1.0000
  0
VERTEX
  8
27
 10
26.9047
 20
19.0375
 30
0.0000
  0
SEQEND
  8
0
  0
POLYLINE
  8
27
 66
1
 10
0.0000
 20
0.0000
 30
0.0000
 40
0.0254
 41
0.0254
 70
0
  0
VERTEX
  8
27
 10
26.9047
 20
18.5718
 30
0.0000
 42
1.0000
  0
VERTEX
  8
27
 10
26.9301
 20
18.5718
 30
0.0000
  0
SEQEND
  8
0
  0
POLYLINE
  8
27
 66
1
 10
0.0000
 20
0.0000
 30
0.0000
 40
0.0508
 41
0.0508
 70
0
  0
VERTEX
  8
27
 10
27.0106
 20
19.1306
 30
0.0000
 42
0.4142
  0
VERTEX
  8
27
 10
26.9174
 20
19.0375
 30
0.0000
  0
SEQEND
  8
0
  0
POLYLINE
  8
27
 66
1
 10
0.0000
 20
0.0000
 30
0.0000
 40
0.0254
 41
0.0254
 70
0
  0
VERTEX
  8
27
 10
27.0106
 20
19.1179
 30
0.0000
 42
1.0000
  0
VERTEX
  8
27
 10
27.0106
 20
19.1433
 30
0.0000
  0
SEQEND
  8
0
  0
POLYLINE
  8
27
 66
1
 10
0.0000
 20
0.0000
 30
0.0000
 40
0.0254
 41
0.0254
 70
0
  0
VERTEX
  8
27
 10
26.9047
 20
19.0375
 30
0.0000
 42
1.0000
  0
VERTEX
  8
27
 10
26.9301
 20
19.0375
 30
0.0000
  0
SEQEND
  8
0
  0
POLYLINE
  8
27
 66
1
 10
0.0000
 20
0.0000
 30
0.0000
 40
0.0508
 41
0.0508
 70
0
  0
VERTEX
  8
27
 10
27.0106
 20
19.1306
 30
0.0000
  0
VERTEX
  8
27
 10
27.0416
 20
19.1306
 30
0.0000
  0
SEQEND
  8
0
  0
POLYLINE
  8
27
 66
1
 10
0.0000
 20
0.0000
 30
0.0000
 40
0.0254
 41
0.0254
 70
0
  0
VERTEX
  8
27
 10
27.0416
 20
19.1179
 30
0.0000
 42
1.0000
  0
VERTEX
  8
27
 10
27.0416
 20
19.1433
 30
0.0000
  0
SEQEND
  8
0
  0
POLYLINE
  8
27
 66
1
 10
0.0000
 20
0.0000
 30
0.0000
 40
0.0254
 41
0.0254
 70
0
  0
VERTEX
  8
27
 10
27.0106
 20
19.1433
 30
0.0000
 42
1.0000
  0
VERTEX
  8
27
 10
27.0106
 20
19.1179
 30
0.0000
  0
SEQEND
  8
0
  0
POLYLINE
  8
27
 66
1
 10
0.0000
 20
0.0000
 30
0.0000
 40
0.0508
 41
0.0508
 70
0
  0
VERTEX
  8
27
 10
26.8553
 20
18.9443
 30
0.0000
  0
VERTEX
  8
27
 10
27.0416
 20
18.9443
 30
0.0000
  0
SEQEND
  8
0
  0
POLYLINE
  8
27
 66
1
 10
0.0000
 20
0.0000
 30
0.0000
 40
0.0254
 41
0.0254
 70
0
  0
VERTEX
  8
27
 10
27.0416
 20
18.9316
 30
0.0000
 42
1.0000
  0
VERTEX
  8
27
 10
27.0416
 20
18.9570
 30
0.0000
  0
SEQEND
  8
0
  0
POLYLINE
  8
27
 66
1
 10
0.0000
 20
0.0000
 30
0.0000
 40
0.0254
 41
0.0254
 70
0
  0
VERTEX
  8
27
 10
26.8553
 20
18.9570
 30
0.0000
 42
1.0000
  0
VERTEX
  8
27
 10
26.8553
 20
18.9316
 30
0.0000
  0
SEQEND
  8
0
  0
POINT
  8
23
 10
19.4850
 20
10.1460
 30
0.0000
  0
POLYLINE
  8
21
 66
1
 10
0.0000
 20
0.0000
 30
0.0000
 40
0.2032
 41
0.2032
 70
0
  0
VERTEX
  8
21
 10
18.8500
 20
8.8760
 30
0.0000
  0
VERTEX
  8
21
 10
20.1200
 20
8.8760
 30
0.0000
  0
SEQEND
  8
0
  0
POLYLINE
  8
21
 66
1
 10
0.0000
 20
0.0000
 30
0.0000
 40
0.1016
 41
0.1016
 70
0
  0
VERTEX
  8
21
 10
20.1200
 20
8.8252
 30
0.0000
 42
1.0000
  0
VERTEX
  8
21
 10
20.1200
 20
8.9268
 30
0.0000
  0
SEQEND
  8
0
  0
POLYLINE
  8
21
 66
1
 10
0.0000
 20
0.0000
 30
0.0000
 40
0.1016
 41
0.1016
 70
0
  0
VERTEX
  8
21
 10
18.8500
 20
8.9268
 30
0.0000
 42
1.0000
  0
VERTEX
  8
21
 10
18.8500
 20
8.8252
 30
0.0000
  0
SEQEND
  8
0
  0
POLYLINE
  8
21
 66
1
 10
0.0000
 20
0.0000
 30
0.0000
 40
0.2032
 41
0.2032
 70
0
  0
VERTEX
  8
21
 10
18.8500
 20
19.0360
 30
0.0000
  0
VERTEX
  8
21
 10
20.1200
 20
19.0360
 30
0.0000
  0
SEQEND
  8
0
  0
POLYLINE
  8
21
 66
1
 10
0.0000
 20
0.0000
 30
0.0000
 40
0.1016
 41
0.1016
 70
0
  0
VERTEX
  8
21
 10
20.1200
 20
18.9852
 30
0.0000
 42
1.0000
  0
VERTEX
  8
21
 10
20.1200
 20
19.0868
 30
0.0000
  0
SEQEND
  8
0
  0
POLYLINE
  8
21
 66
1
 10
0.0000
 20
0.0000
 30
0.0000
 40
0.1016
 41
0.1016
 70
0
  0
VERTEX
  8
21
 10
18.8500
 20
19.0868
 30
0.0000
 42
1.0000
  0
VERTEX
  8
21
 10
18.8500
 20
18.9852
 30
0.0000
  0
SEQEND
  8
0
  0
INSERT
  8
51
  2
RECT
 10
19.4850
 20
17.7660
 30
0.0000
 41
0.5080
 42
0.5080
 43
1.0000
 50
90.0000
  0
INSERT
  8
51
  2
RECT
 10
19.4850
 20
15.2260
 30
0.0000
 41
0.5080
 42
0.5080
 43
1.0000
 50
90.0000
  0
INSERT
  8
51
  2
RECT
 10
19.4850
 20
12.6860
 30
0.0000
 41
0.5080
 42
0.5080
 43
1.0000
 50
90.0000
  0
INSERT
  8
51
  2
RECT
 10
19.4850
 20
10.1460
 30
0.0000
 41
0.5080
 42
0.5080
 43
1.0000
 50
90.0000
  0
INSERT
  8
17
  2
LONGP100
 10
19.4850
 20
10.1460
 30
0.0000
 41
1.8796
 42
1.8796
 43
1.0000
 50
180.0000
  0
INSERT
  8
17
  2
LONGP100
 10
19.4850
 20
10.1460
 30
0.0000
 41
1.8796
 42
1.8796
 43
1.0000
 50
180.0000
  0
INSERT
  8
17
  2
LONGP100
 10
19.4850
 20
12.6860
 30
0.0000
 41
1.8796
 42
1.8796
 43
1.0000
 50
180.0000
  0
INSERT
  8
17
  2
LONGP100
 10
19.4850
 20
12.6860
 30
0.0000
 41
1.8796
 42
1.8796
 43
1.0000
 50
180.0000
  0
INSERT
  8
17
  2
LONGP100
 10
19.4850
 20
15.2260
 30
0.0000
 41
1.8796
 42
1.8796
 43
1.0000
 50
180.0000
  0
INSERT
  8
17
  2
LONGP100
 10
19.4850
 20
15.2260
 30
0.0000
 41
1.8796
 42
1.8796
 43
1.0000
 50
180.0000
  0
INSERT
  8
17
  2
LONGP100
 10
19.4850
 20
17.7660
 30
0.0000
 41
1.8796
 42
1.8796
 43
1.0000
 50
180.0000
  0
INSERT
  8
17
  2
LONGP100
 10
19.4850
 20
17.7660
 30
0.0000
 41
1.8796
 42
1.8796
 43
1.0000
 50
180.0000
  0
POLYLINE
  8
25
 66
1
 10
0.0000
 20
0.0000
 30
0.0000
 40
0.1270
 41
0.1270
 70
0
  0
VERTEX
  8
25
 10
16.9069
 20
9.1004
 30
0.0000
  0
VERTEX
  8
25
 10
17.2823
 20
9.1004
 30
0.0000
  0
SEQEND
  8
0
  0
POLYLINE
  8
25
 66
1
 10
0.0000
 20
0.0000
 30
0.0000
 40
0.0635
 41
0.0635
 70
0
  0
VERTEX
  8
25
 10
17.2823
 20
9.0686
 30
0.0000
 42
1.0000
  0
VERTEX
  8
25
 10
17.2823
 20
9.1321
 30
0.0000
  0
SEQEND
  8
0
  0
POLYLINE
  8
25
 66
1
 10
0.0000
 20
0.0000
 30
0.0000
 40
0.0635
 41
0.0635
 70
0
  0
VERTEX
  8
25
 10
16.9069
 20
9.1321
 30
0.0000
 42
1.0000
  0
VERTEX
  8
25
 10
16.9069
 20
9.0686
 30
0.0000
  0
SEQEND
  8
0
  0
POLYLINE
  8
25
 66
1
 10
0.0000
 20
0.0000
 30
0.0000
 40
0.1270
 41
0.1270
 70
0
  0
VERTEX
  8
25
 10
17.3895
 20
8.9931
 30
0.0000
 42
0.4142
  0
VERTEX
  8
25
 10
17.2823
 20
9.1004
 30
0.0000
  0
SEQEND
  8
0
  0
POLYLINE
  8
25
 66
1
 10
0.0000
 20
0.0000
 30
0.0000
 40
0.0635
 41
0.0635
 70
0
  0
VERTEX
  8
25
 10
17.3578
 20
8.9931
 30
0.0000
 42
1.0000
  0
VERTEX
  8
25
 10
17.4213
 20
8.9931
 30
0.0000
  0
SEQEND
  8
0
  0
POLYLINE
  8
25
 66
1
 10
0.0000
 20
0.0000
 30
0.0000
 40
0.0635
 41
0.0635
 70
0
  0
VERTEX
  8
25
 10
17.2823
 20
9.1321
 30
0.0000
 42
1.0000
  0
VERTEX
  8
25
 10
17.2823
 20
9.0686
 30
0.0000
  0
SEQEND
  8
0
  0
POLYLINE
  8
25
 66
1
 10
0.0000
 20
0.0000
 30
0.0000
 40
0.1270
 41
0.1270
 70
0
  0
VERTEX
  8
25
 10
17.3895
 20
8.9931
 30
0.0000
  0
VERTEX
  8
25
 10
17.3895
 20
8.9395
 30
0.0000
  0
SEQEND
  8
0
  0
POLYLINE
  8
25
 66
1
 10
0.0000
 20
0.0000
 30
0.0000
 40
0.0635
 41
0.0635
 70
0
  0
VERTEX
  8
25
 10
17.3578
 20
8.9395
 30
0.0000
 42
1.0000
  0
VERTEX
  8
25
 10
17.4213
 20
8.9395
 30
0.0000
  0
SEQEND
  8
0
  0
POLYLINE
  8
25
 66
1
 10
0.0000
 20
0.0000
 30
0.0000
 40
0.0635
 41
0.0635
 70
0
  0
VERTEX
  8
25
 10
17.4213
 20
8.9931
 30
0.0000
 42
1.0000
  0
VERTEX
  8
25
 10
17.3578
 20
8.9931
 30
0.0000
  0
SEQEND
  8
0
  0
POLYLINE
  8
25
 66
1
 10
0.0000
 20
0.0000
 30
0.0000
 40
0.1270
 41
0.1270
 70
0
  0
VERTEX
  8
25
 10
17.0141
 20
9.3952
 30
0.0000
  0
VERTEX
  8
25
 10
16.9069
 20
9.5292
 30
0.0000
  0
SEQEND
  8
0
  0
POLYLINE
  8
25
 66
1
 10
0.0000
 20
0.0000
 30
0.0000
 40
0.0635
 41
0.0635
 70
0
  0
VERTEX
  8
25
 10
16.9317
 20
9.5490
 30
0.0000
 42
1.0000
  0
VERTEX
  8
25
 10
16.8821
 20
9.5094
 30
0.0000
  0
SEQEND
  8
0
  0
POLYLINE
  8
25
 66
1
 10
0.0000
 20
0.0000
 30
0.0000
 40
0.0635
 41
0.0635
 70
0
  0
VERTEX
  8
25
 10
16.9894
 20
9.3753
 30
0.0000
 42
1.0000
  0
VERTEX
  8
25
 10
17.0389
 20
9.4150
 30
0.0000
  0
SEQEND
  8
0
  0
POLYLINE
  8
25
 66
1
 10
0.0000
 20
0.0000
 30
0.0000
 40
0.1270
 41
0.1270
 70
0
  0
VERTEX
  8
25
 10
16.9069
 20
9.5292
 30
0.0000
  0
VERTEX
  8
25
 10
17.3895
 20
9.5292
 30
0.0000
  0
SEQEND
  8
0
  0
POLYLINE
  8
25
 66
1
 10
0.0000
 20
0.0000
 30
0.0000
 40
0.0635
 41
0.0635
 70
0
  0
VERTEX
  8
25
 10
17.3895
 20
9.4975
 30
0.0000
 42
1.0000
  0
VERTEX
  8
25
 10
17.3895
 20
9.5610
 30
0.0000
  0
SEQEND
  8
0
  0
POLYLINE
  8
25
 66
1
 10
0.0000
 20
0.0000
 30
0.0000
 40
0.0635
 41
0.0635
 70
0
  0
VERTEX
  8
25
 10
16.9069
 20
9.5610
 30
0.0000
 42
1.0000
  0
VERTEX
  8
25
 10
16.9069
 20
9.4975
 30
0.0000
  0
SEQEND
  8
0
  0
POLYLINE
  8
25
 66
1
 10
0.0000
 20
0.0000
 30
0.0000
 40
0.1270
 41
0.1270
 70
0
  0
VERTEX
  8
25
 10
17.3895
 20
9.3952
 30
0.0000
  0
VERTEX
  8
25
 10
17.3895
 20
9.6633
 30
0.0000
  0
SEQEND
  8
0
  0
POLYLINE
  8
25
 66
1
 10
0.0000
 20
0.0000
 30
0.0000
 40
0.0635
 41
0.0635
 70
0
  0
VERTEX
  8
25
 10
17.4213
 20
9.6633
 30
0.0000
 42
1.0000
  0
VERTEX
  8
25
 10
17.3578
 20
9.6633
 30
0.0000
  0
SEQEND
  8
0
  0
POLYLINE
  8
25
 66
1
 10
0.0000
 20
0.0000
 30
0.0000
 40
0.0635
 41
0.0635
 70
0
  0
VERTEX
  8
25
 10
17.3578
 20
9.3952
 30
0.0000
 42
1.0000
  0
VERTEX
  8
25
 10
17.4213
 20
9.3952
 30
0.0000
  0
SEQEND
  8
0
  0
POINT
  8
23
 10
22.8920
 20
13.6920
 30
0.0000
  0
POLYLINE
  8
39
 66
1
 10
0.0000
 20
0.0000
 30
0.0000
 40
0.0508
 41
0.0508
 70
0
  0
VERTEX
  8
39
 10
23.8750
 20
15.6650
 30
0.0000
  0
VERTEX
  8
39
 10
23.8750
 20
11.7190
 30
0.0000
  0
SEQEND
  8
0
  0
POLYLINE
  8
39
 66
1
 10
0.0000
 20
0.0000
 30
0.0000
 40
0.0254
 41
0.0254
 70
0
  0
VERTEX
  8
39
 10
23.8623
 20
11.7190
 30
0.0000
 42
1.0000
  0
VERTEX
  8
39
 10
23.8877
 20
11.7190
 30
0.0000
  0
SEQEND
  8
0
  0
POLYLINE
  8
39
 66
1
 10
0.0000
 20
0.0000
 30
0.0000
 40
0.0254
 41
0.0254
 70
0
  0
VERTEX
  8
39
 10
23.8877
 20
15.6650
 30
0.0000
 42
1.0000
  0
VERTEX
  8
39
 10
23.8623
 20
15.6650
 30
0.0000
  0
SEQEND
  8
0
  0
POLYLINE
  8
39
 66
1
 10
0.0000
 20
0.0000
 30
0.0000
 40
0.0508
 41
0.0508
 70
0
  0
VERTEX
  8
39
 10
21.9090
 20
11.7190
 30
0.0000
  0
VERTEX
  8
39
 10
21.9090
 20
15.6650
 30
0.0000
  0
SEQEND
  8
0
  0
POLYLINE
  8
39
 66
1
 10
0.0000
 20
0.0000
 30
0.0000
 40
0.0254
 41
0.0254
 70
0
  0
VERTEX
  8
39
 10
21.9217
 20
15.6650
 30
0.0000
 42
1.0000
  0
VERTEX
  8
39
 10
21.8963
 20
15.6650
 30
0.0000
  0
SEQEND
  8
0
  0
POLYLINE
  8
39
 66
1
 10
0.0000
 20
0.0000
 30
0.0000
 40
0.0254
 41
0.0254
 70
0
  0
VERTEX
  8
39
 10
21.8963
 20
11.7190
 30
0.0000
 42
1.0000
  0
VERTEX
  8
39
 10
21.9217
 20
11.7190
 30
0.0000
  0
SEQEND
  8
0
  0
POLYLINE
  8
39
 66
1
 10
0.0000
 20
0.0000
 30
0.0000
 40
0.0508
 41
0.0508
 70
0
  0
VERTEX
  8
39
 10
21.9090
 20
15.6650
 30
0.0000
  0
VERTEX
  8
39
 10
23.8750
 20
15.6650
 30
0.0000
  0
SEQEND
  8
0
  0
POLYLINE
  8
39
 66
1
 10
0.0000
 20
0.0000
 30
0.0000
 40
0.0254
 41
0.0254
 70
0
  0
VERTEX
  8
39
 10
23.8750
 20
15.6523
 30
0.0000
 42
1.0000
  0
VERTEX
  8
39
 10
23.8750
 20
15.6777
 30
0.0000
  0
SEQEND
  8
0
  0
POLYLINE
  8
39
 66
1
 10
0.0000
 20
0.0000
 30
0.0000
 40
0.0254
 41
0.0254
 70
0
  0
VERTEX
  8
39
 10
21.9090
 20
15.6777
 30
0.0000
 42
1.0000
  0
VERTEX
  8
39
 10
21.9090
 20
15.6523
 30
0.0000
  0
SEQEND
  8
0
  0
POLYLINE
  8
39
 66
1
 10
0.0000
 20
0.0000
 30
0.0000
 40
0.0508
 41
0.0508
 70
0
  0
VERTEX
  8
39
 10
23.8750
 20
11.7190
 30
0.0000
  0
VERTEX
  8
39
 10
21.9090
 20
11.7190
 30
0.0000
  0
SEQEND
  8
0
  0
POLYLINE
  8
39
 66
1
 10
0.0000
 20
0.0000
 30
0.0000
 40
0.0254
 41
0.0254
 70
0
  0
VERTEX
  8
39
 10
21.9090
 20
11.7317
 30
0.0000
 42
1.0000
  0
VERTEX
  8
39
 10
21.9090
 20
11.7063
 30
0.0000
  0
SEQEND
  8
0
  0
POLYLINE
  8
39
 66
1
 10
0.0000
 20
0.0000
 30
0.0000
 40
0.0254
 41
0.0254
 70
0
  0
VERTEX
  8
39
 10
23.8750
 20
11.7063
 30
0.0000
 42
1.0000
  0
VERTEX
  8
39
 10
23.8750
 20
11.7317
 30
0.0000
  0
SEQEND
  8
0
  0
POLYLINE
  8
51
 66
1
 10
0.0000
 20
0.0000
 30
0.0000
 40
0.1524
 41
0.1524
 70
0
  0
VERTEX
  8
51
 10
23.5270
 20
12.9808
 30
0.0000
  0
VERTEX
  8
51
 10
23.5270
 20
14.4032
 30
0.0000
  0
SEQEND
  8
0
  0
POLYLINE
  8
51
 66
1
 10
0.0000
 20
0.0000
 30
0.0000
 40
0.0762
 41
0.0762
 70
0
  0
VERTEX
  8
51
 10
23.5651
 20
14.4032
 30
0.0000
 42
1.0000
  0
VERTEX
  8
51
 10
23.4889
 20
14.4032
 30
0.0000
  0
SEQEND
  8
0
  0
POLYLINE
  8
51
 66
1
 10
0.0000
 20
0.0000
 30
0.0000
 40
0.0762
 41
0.0762
 70
0
  0
VERTEX
  8
51
 10
23.4889
 20
12.9808
 30
0.0000
 42
1.0000
  0
VERTEX
  8
51
 10
23.5651
 20
12.9808
 30
0.0000
  0
SEQEND
  8
0
  0
POLYLINE
  8
51
 66
1
 10
0.0000
 20
0.0000
 30
0.0000
 40
0.1524
 41
0.1524
 70
0
  0
VERTEX
  8
51
 10
22.2570
 20
12.9808
 30
0.0000
  0
VERTEX
  8
51
 10
22.2570
 20
14.4032
 30
0.0000
  0
SEQEND
  8
0
  0
POLYLINE
  8
51
 66
1
 10
0.0000
 20
0.0000
 30
0.0000
 40
0.0762
 41
0.0762
 70
0
  0
VERTEX
  8
51
 10
22.2951
 20
14.4032
 30
0.0000
 42
1.0000
  0
VERTEX
  8
51
 10
22.2189
 20
14.4032
 30
0.0000
  0
SEQEND
  8
0
  0
POLYLINE
  8
51
 66
1
 10
0.0000
 20
0.0000
 30
0.0000
 40
0.0762
 41
0.0762
 70
0
  0
VERTEX
  8
51
 10
22.2189
 20
12.9808
 30
0.0000
 42
1.0000
  0
VERTEX
  8
51
 10
22.2951
 20
12.9808
 30
0.0000
  0
SEQEND
  8
0
  0
INSERT
  8
51
  2
RECT
 10
22.8920
 20
14.5556
 30
0.0000
 41
0.3556
 42
1.4224
 43
1.0000
 50
270.0000
  0
INSERT
  8
51
  2
RECT
 10
22.8920
 20
12.8284
 30
0.0000
 41
0.3556
 42
1.4224
 43
1.0000
 50
270.0000
  0
INSERT
  8
1
  2
RECT
 10
22.8920
 20
14.6420
 30
0.0000
 41
1.3000
 42
1.6000
 43
1.0000
 50
270.0000
  0
INSERT
  8
1
  2
RECT
 10
22.8920
 20
12.7420
 30
0.0000
 41
1.3000
 42
1.6000
 43
1.0000
 50
270.0000
  0
POLYLINE
  8
25
 66
1
 10
0.0000
 20
0.0000
 30
0.0000
 40
0.1016
 41
0.1016
 70
0
  0
VERTEX
  8
25
 10
25.3812
 20
7.2210
 30
0.0000
  0
VERTEX
  8
25
 10
24.2128
 20
7.2210
 30
0.0000
  0
SEQEND
  8
0
  0
POLYLINE
  8
25
 66
1
 10
0.0000
 20
0.0000
 30
0.0000
 40
0.0508
 41
0.0508
 70
0
  0
VERTEX
  8
25
 10
24.2128
 20
7.2464
 30
0.0000
 42
1.0000
  0
VERTEX
  8
25
 10
24.2128
 20
7.1956
 30
0.0000
  0
SEQEND
  8
0
  0
POLYLINE
  8
25
 66
1
 10
0.0000
 20
0.0000
 30
0.0000
 40
0.0508
 41
0.0508
 70
0
  0
VERTEX
  8
25
 10
25.3812
 20
7.1956
 30
0.0000
 42
1.0000
  0
VERTEX
  8
25
 10
25.3812
 20
7.2464
 30
0.0000
  0
SEQEND
  8
0
  0
POLYLINE
  8
25
 66
1
 10
0.0000
 20
0.0000
 30
0.0000
 40
0.1016
 41
0.1016
 70
0
  0
VERTEX
  8
25
 10
24.2128
 20
7.2210
 30
0.0000
  0
VERTEX
  8
25
 10
24.2128
 20
7.5455
 30
0.0000
  0
SEQEND
  8
0
  0
POLYLINE
  8
25
 66
1
 10
0.0000
 20
0.0000
 30
0.0000
 40
0.0508
 41
0.0508
 70
0
  0
VERTEX
  8
25
 10
24.2382
 20
7.5455
 30
0.0000
 42
1.0000
  0
VERTEX
  8
25
 10
24.1874
 20
7.5455
 30
0.0000
  0
SEQEND
  8
0
  0
POLYLINE
  8
25
 66
1
 10
0.0000
 20
0.0000
 30
0.0000
 40
0.0508
 41
0.0508
 70
0
  0
VERTEX
  8
25
 10
24.1874
 20
7.2210
 30
0.0000
 42
1.0000
  0
VERTEX
  8
25
 10
24.2382
 20
7.2210
 30
0.0000
  0
SEQEND
  8
0
  0
POLYLINE
  8
25
 66
1
 10
0.0000
 20
0.0000
 30
0.0000
 40
0.1016
 41
0.1016
 70
0
  0
VERTEX
  8
25
 10
24.8619
 20
7.5455
 30
0.0000
 42
1.0000
  0
VERTEX
  8
25
 10
24.2128
 20
7.5455
 30
0.0000
  0
SEQEND
  8
0
  0
POLYLINE
  8
25
 66
1
 10
0.0000
 20
0.0000
 30
0.0000
 40
0.0508
 41
0.0508
 70
0
  0
VERTEX
  8
25
 10
24.8365
 20
7.5455
 30
0.0000
 42
1.0000
  0
VERTEX
  8
25
 10
24.8873
 20
7.5455
 30
0.0000
  0
SEQEND
  8
0
  0
POLYLINE
  8
25
 66
1
 10
0.0000
 20
0.0000
 30
0.0000
 40
0.0508
 41
0.0508
 70
0
  0
VERTEX
  8
25
 10
24.1874
 20
7.5455
 30
0.0000
 42
1.0000
  0
VERTEX
  8
25
 10
24.2382
 20
7.5455
 30
0.0000
  0
SEQEND
  8
0
  0
POLYLINE
  8
25
 66
1
 10
0.0000
 20
0.0000
 30
0.0000
 40
0.1016
 41
0.1016
 70
0
  0
VERTEX
  8
25
 10
24.8619
 20
7.5455
 30
0.0000
  0
VERTEX
  8
25
 10
24.8619
 20
7.2210
 30
0.0000
  0
SEQEND
  8
0
  0
POLYLINE
  8
25
 66
1
 10
0.0000
 20
0.0000
 30
0.0000
 40
0.0508
 41
0.0508
 70
0
  0
VERTEX
  8
25
 10
24.8365
 20
7.2210
 30
0.0000
 42
1.0000
  0
VERTEX
  8
25
 10
24.8873
 20
7.2210
 30
0.0000
  0
SEQEND
  8
0
  0
POLYLINE
  8
25
 66
1
 10
0.0000
 20
0.0000
 30
0.0000
 40
0.0508
 41
0.0508
 70
0
  0
VERTEX
  8
25
 10
24.8873
 20
7.5455
 30
0.0000
 42
1.0000
  0
VERTEX
  8
25
 10
24.8365
 20
7.5455
 30
0.0000
  0
SEQEND
  8
0
  0
POLYLINE
  8
25
 66
1
 10
0.0000
 20
0.0000
 30
0.0000
 40
0.1016
 41
0.1016
 70
0
  0
VERTEX
  8
25
 10
25.3812
 20
7.8701
 30
0.0000
  0
VERTEX
  8
25
 10
24.8619
 20
7.6104
 30
0.0000
  0
SEQEND
  8
0
  0
POLYLINE
  8
25
 66
1
 10
0.0000
 20
0.0000
 30
0.0000
 40
0.0508
 41
0.0508
 70
0
  0
VERTEX
  8
25
 10
24.8506
 20
7.6331
 30
0.0000
 42
1.0000
  0
VERTEX
  8
25
 10
24.8733
 20
7.5877
 30
0.0000
  0
SEQEND
  8
0
  0
POLYLINE
  8
25
 66
1
 10
0.0000
 20
0.0000
 30
0.0000
 40
0.0508
 41
0.0508
 70
0
  0
VERTEX
  8
25
 10
25.3926
 20
7.8474
 30
0.0000
 42
1.0000
  0
VERTEX
  8
25
 10
25.3698
 20
7.8928
 30
0.0000
  0
SEQEND
  8
0
  0
POLYLINE
  8
25
 66
1
 10
0.0000
 20
0.0000
 30
0.0000
 40
0.1016
 41
0.1016
 70
0
  0
VERTEX
  8
25
 10
24.2128
 20
8.6162
 30
0.0000
  0
VERTEX
  8
25
 10
25.1216
 20
8.3566
 30
0.0000
  0
SEQEND
  8
0
  0
POLYLINE
  8
25
 66
1
 10
0.0000
 20
0.0000
 30
0.0000
 40
0.0508
 41
0.0508
 70
0
  0
VERTEX
  8
25
 10
25.1146
 20
8.3322
 30
0.0000
 42
1.0000
  0
VERTEX
  8
25
 10
25.1285
 20
8.3810
 30
0.0000
  0
SEQEND
  8
0
  0
POLYLINE
  8
25
 66
1
 10
0.0000
 20
0.0000
 30
0.0000
 40
0.0508
 41
0.0508
 70
0
  0
VERTEX
  8
25
 10
24.2198
 20
8.6407
 30
0.0000
 42
1.0000
  0
VERTEX
  8
25
 10
24.2058
 20
8.5918
 30
0.0000
  0
SEQEND
  8
0
  0
POLYLINE
  8
25
 66
1
 10
0.0000
 20
0.0000
 30
0.0000
 40
0.1016
 41
0.1016
 70
0
  0
VERTEX
  8
25
 10
25.1216
 20
8.3566
 30
0.0000
  0
VERTEX
  8
25
 10
25.1216
 20
9.0057
 30
0.0000
  0
SEQEND
  8
0
  0
POLYLINE
  8
25
 66
1
 10
0.0000
 20
0.0000
 30
0.0000
 40
0.0508
 41
0.0508
 70
0
  0
VERTEX
  8
25
 10
25.1470
 20
9.0057
 30
0.0000
 42
1.0000
  0
VERTEX
  8
25
 10
25.0962
 20
9.0057
 30
0.0000
  0
SEQEND
  8
0
  0
POLYLINE
  8
25
 66
1
 10
0.0000
 20
0.0000
 30
0.0000
 40
0.0508
 41
0.0508
 70
0
  0
VERTEX
  8
25
 10
25.0962
 20
8.3566
 30
0.0000
 42
1.0000
  0
VERTEX
  8
25
 10
25.1470
 20
8.3566
 30
0.0000
  0
SEQEND
  8
0
  0
POLYLINE
  8
25
 66
1
 10
0.0000
 20
0.0000
 30
0.0000
 40
0.1016
 41
0.1016
 70
0
  0
VERTEX
  8
25
 10
24.8619
 20
8.8110
 30
0.0000
  0
VERTEX
  8
25
 10
25.3812
 20
8.8110
 30
0.0000
  0
SEQEND
  8
0
  0
POLYLINE
  8
25
 66
1
 10
0.0000
 20
0.0000
 30
0.0000
 40
0.0508
 41
0.0508
 70
0
  0
VERTEX
  8
25
 10
25.3812
 20
8.7856
 30
0.0000
 42
1.0000
  0
VERTEX
  8
25
 10
25.3812
 20
8.8364
 30
0.0000
  0
SEQEND
  8
0
  0
POLYLINE
  8
25
 66
1
 10
0.0000
 20
0.0000
 30
0.0000
 40
0.0508
 41
0.0508
 70
0
  0
VERTEX
  8
25
 10
24.8619
 20
8.8364
 30
0.0000
 42
1.0000
  0
VERTEX
  8
25
 10
24.8619
 20
8.7856
 30
0.0000
  0
SEQEND
  8
0
  0
POLYLINE
  8
25
 66
1
 10
0.0000
 20
0.0000
 30
0.0000
 40
0.1016
 41
0.1016
 70
0
  0
VERTEX
  8
25
 10
25.5110
 20
9.4502
 30
0.0000
  0
VERTEX
  8
25
 10
25.5110
 20
9.9695
 30
0.0000
  0
SEQEND
  8
0
  0
POLYLINE
  8
25
 66
1
 10
0.0000
 20
0.0000
 30
0.0000
 40
0.0508
 41
0.0508
 70
0
  0
VERTEX
  8
25
 10
25.5364
 20
9.9695
 30
0.0000
 42
1.0000
  0
VERTEX
  8
25
 10
25.4856
 20
9.9695
 30
0.0000
  0
SEQEND
  8
0
  0
POLYLINE
  8
25
 66
1
 10
0.0000
 20
0.0000
 30
0.0000
 40
0.0508
 41
0.0508
 70
0
  0
VERTEX
  8
25
 10
25.4856
 20
9.4502
 30
0.0000
 42
1.0000
  0
VERTEX
  8
25
 10
25.5364
 20
9.4502
 30
0.0000
  0
SEQEND
  8
0
  0
POLYLINE
  8
25
 66
1
 10
0.0000
 20
0.0000
 30
0.0000
 40
0.1016
 41
0.1016
 70
0
  0
VERTEX
  8
25
 10
25.3812
 20
10.4521
 30
0.0000
  0
VERTEX
  8
25
 10
24.2128
 20
10.4521
 30
0.0000
  0
SEQEND
  8
0
  0
POLYLINE
  8
25
 66
1
 10
0.0000
 20
0.0000
 30
0.0000
 40
0.0508
 41
0.0508
 70
0
  0
VERTEX
  8
25
 10
24.2128
 20
10.4775
 30
0.0000
 42
1.0000
  0
VERTEX
  8
25
 10
24.2128
 20
10.4267
 30
0.0000
  0
SEQEND
  8
0
  0
POLYLINE
  8
25
 66
1
 10
0.0000
 20
0.0000
 30
0.0000
 40
0.0508
 41
0.0508
 70
0
  0
VERTEX
  8
25
 10
25.3812
 20
10.4267
 30
0.0000
 42
1.0000
  0
VERTEX
  8
25
 10
25.3812
 20
10.4775
 30
0.0000
  0
SEQEND
  8
0
  0
POLYLINE
  8
25
 66
1
 10
0.0000
 20
0.0000
 30
0.0000
 40
0.1016
 41
0.1016
 70
0
  0
VERTEX
  8
25
 10
24.2128
 20
10.4521
 30
0.0000
  0
VERTEX
  8
25
 10
24.2128
 20
10.7767
 30
0.0000
  0
SEQEND
  8
0
  0
POLYLINE
  8
25
 66
1
 10
0.0000
 20
0.0000
 30
0.0000
 40
0.0508
 41
0.0508
 70
0
  0
VERTEX
  8
25
 10
24.2382
 20
10.7767
 30
0.0000
 42
1.0000
  0
VERTEX
  8
25
 10
24.1874
 20
10.7767
 30
0.0000
  0
SEQEND
  8
0
  0
POLYLINE
  8
25
 66
1
 10
0.0000
 20
0.0000
 30
0.0000
 40
0.0508
 41
0.0508
 70
0
  0
VERTEX
  8
25
 10
24.1874
 20
10.4521
 30
0.0000
 42
1.0000
  0
VERTEX
  8
25
 10
24.2382
 20
10.4521
 30
0.0000
  0
SEQEND
  8
0
  0
POLYLINE
  8
25
 66
1
 10
0.0000
 20
0.0000
 30
0.0000
 40
0.1016
 41
0.1016
 70
0
  0
VERTEX
  8
25
 10
24.5374
 20
11.1012
 30
0.0000
 42
0.4142
  0
VERTEX
  8
25
 10
24.2128
 20
10.7767
 30
0.0000
  0
SEQEND
  8
0
  0
POLYLINE
  8
25
 66
1
 10
0.0000
 20
0.0000
 30
0.0000
 40
0.0508
 41
0.0508
 70
0
  0
VERTEX
  8
25
 10
24.5374
 20
11.0758
 30
0.0000
 42
1.0000
  0
VERTEX
  8
25
 10
24.5374
 20
11.1266
 30
0.0000
  0
SEQEND
  8
0
  0
POLYLINE
  8
25
 66
1
 10
0.0000
 20
0.0000
 30
0.0000
 40
0.0508
 41
0.0508
 70
0
  0
VERTEX
  8
25
 10
24.1874
 20
10.7767
 30
0.0000
 42
1.0000
  0
VERTEX
  8
25
 10
24.2382
 20
10.7767
 30
0.0000
  0
SEQEND
  8
0
  0
POLYLINE
  8
25
 66
1
 10
0.0000
 20
0.0000
 30
0.0000
 40
0.1016
 41
0.1016
 70
0
  0
VERTEX
  8
25
 10
24.5374
 20
11.1012
 30
0.0000
  0
VERTEX
  8
25
 10
25.0566
 20
11.1012
 30
0.0000
  0
SEQEND
  8
0
  0
POLYLINE
  8
25
 66
1
 10
0.0000
 20
0.0000
 30
0.0000
 40
0.0508
 41
0.0508
 70
0
  0
VERTEX
  8
25
 10
25.0566
 20
11.0758
 30
0.0000
 42
1.0000
  0
VERTEX
  8
25
 10
25.0566
 20
11.1266
 30
0.0000
  0
SEQEND
  8
0
  0
POLYLINE
  8
25
 66
1
 10
0.0000
 20
0.0000
 30
0.0000
 40
0.0508
 41
0.0508
 70
0
  0
VERTEX
  8
25
 10
24.5374
 20
11.1266
 30
0.0000
 42
1.0000
  0
VERTEX
  8
25
 10
24.5374
 20
11.0758
 30
0.0000
  0
SEQEND
  8
0
  0
POLYLINE
  8
25
 66
1
 10
0.0000
 20
0.0000
 30
0.0000
 40
0.1016
 41
0.1016
 70
0
  0
VERTEX
  8
25
 10
25.3812
 20
10.7767
 30
0.0000
 42
0.4142
  0
VERTEX
  8
25
 10
25.0566
 20
11.1012
 30
0.0000
  0
SEQEND
  8
0
  0
POLYLINE
  8
25
 66
1
 10
0.0000
 20
0.0000
 30
0.0000
 40
0.0508
 41
0.0508
 70
0
  0
VERTEX
  8
25
 10
25.3558
 20
10.7767
 30
0.0000
 42
1.0000
  0
VERTEX
  8
25
 10
25.4066
 20
10.7766
 30
0.0000
  0
SEQEND
  8
0
  0
POLYLINE
  8
25
 66
1
 10
0.0000
 20
0.0000
 30
0.0000
 40
0.0508
 41
0.0508
 70
0
  0
VERTEX
  8
25
 10
25.0566
 20
11.1266
 30
0.0000
 42
1.0000
  0
VERTEX
  8
25
 10
25.0566
 20
11.0758
 30
0.0000
  0
SEQEND
  8
0
  0
POLYLINE
  8
25
 66
1
 10
0.0000
 20
0.0000
 30
0.0000
 40
0.1016
 41
0.1016
 70
0
  0
VERTEX
  8
25
 10
25.3812
 20
10.7767
 30
0.0000
  0
VERTEX
  8
25
 10
25.3812
 20
10.4521
 30
0.0000
  0
SEQEND
  8
0
  0
POLYLINE
  8
25
 66
1
 10
0.0000
 20
0.0000
 30
0.0000
 40
0.0508
 41
0.0508
 70
0
  0
VERTEX
  8
25
 10
25.3558
 20
10.4521
 30
0.0000
 42
1.0000
  0
VERTEX
  8
25
 10
25.4066
 20
10.4521
 30
0.0000
  0
SEQEND
  8
0
  0
POLYLINE
  8
25
 66
1
 10
0.0000
 20
0.0000
 30
0.0000
 40
0.0508
 41
0.0508
 70
0
  0
VERTEX
  8
25
 10
25.4066
 20
10.7767
 30
0.0000
 42
1.0000
  0
VERTEX
  8
25
 10
25.3558
 20
10.7767
 30
0.0000
  0
SEQEND
  8
0
  0
POLYLINE
  8
25
 66
1
 10
0.0000
 20
0.0000
 30
0.0000
 40
0.1016
 41
0.1016
 70
0
  0
VERTEX
  8
25
 10
25.0566
 20
11.6332
 30
0.0000
  0
VERTEX
  8
25
 10
24.5374
 20
11.6332
 30
0.0000
  0
SEQEND
  8
0
  0
POLYLINE
  8
25
 66
1
 10
0.0000
 20
0.0000
 30
0.0000
 40
0.0508
 41
0.0508
 70
0
  0
VERTEX
  8
25
 10
24.5374
 20
11.6586
 30
0.0000
 42
1.0000
  0
VERTEX
  8
25
 10
24.5374
 20
11.6078
 30
0.0000
  0
SEQEND
  8
0
  0
POLYLINE
  8
25
 66
1
 10
0.0000
 20
0.0000
 30
0.0000
 40
0.0508
 41
0.0508
 70
0
  0
VERTEX
  8
25
 10
25.0566
 20
11.6078
 30
0.0000
 42
1.0000
  0
VERTEX
  8
25
 10
25.0566
 20
11.6586
 30
0.0000
  0
SEQEND
  8
0
  0
POLYLINE
  8
25
 66
1
 10
0.0000
 20
0.0000
 30
0.0000
 40
0.1016
 41
0.1016
 70
0
  0
VERTEX
  8
25
 10
24.5374
 20
12.2823
 30
0.0000
 42
1.0000
  0
VERTEX
  8
25
 10
24.5374
 20
11.6332
 30
0.0000
  0
SEQEND
  8
0
  0
POLYLINE
  8
25
 66
1
 10
0.0000
 20
0.0000
 30
0.0000
 40
0.0508
 41
0.0508
 70
0
  0
VERTEX
  8
25
 10
24.5374
 20
12.2569
 30
0.0000
 42
1.0000
  0
VERTEX
  8
25
 10
24.5374
 20
12.3077
 30
0.0000
  0
SEQEND
  8
0
  0
POLYLINE
  8
25
 66
1
 10
0.0000
 20
0.0000
 30
0.0000
 40
0.0508
 41
0.0508
 70
0
  0
VERTEX
  8
25
 10
24.5374
 20
11.6078
 30
0.0000
 42
1.0000
  0
VERTEX
  8
25
 10
24.5374
 20
11.6586
 30
0.0000
  0
SEQEND
  8
0
  0
POLYLINE
  8
25
 66
1
 10
0.0000
 20
0.0000
 30
0.0000
 40
0.1016
 41
0.1016
 70
0
  0
VERTEX
  8
25
 10
24.5374
 20
12.2823
 30
0.0000
  0
VERTEX
  8
25
 10
25.0566
 20
12.2823
 30
0.0000
  0
SEQEND
  8
0
  0
POLYLINE
  8
25
 66
1
 10
0.0000
 20
0.0000
 30
0.0000
 40
0.0508
 41
0.0508
 70
0
  0
VERTEX
  8
25
 10
25.0566
 20
12.2569
 30
0.0000
 42
1.0000
  0
VERTEX
  8
25
 10
25.0566
 20
12.3077
 30
0.0000
  0
SEQEND
  8
0
  0
POLYLINE
  8
25
 66
1
 10
0.0000
 20
0.0000
 30
0.0000
 40
0.0508
 41
0.0508
 70
0
  0
VERTEX
  8
25
 10
24.5374
 20
12.3077
 30
0.0000
 42
1.0000
  0
VERTEX
  8
25
 10
24.5374
 20
12.2569
 30
0.0000
  0
SEQEND
  8
0
  0
POLYLINE
  8
25
 66
1
 10
0.0000
 20
0.0000
 30
0.0000
 40
0.1016
 41
0.1016
 70
0
  0
VERTEX
  8
25
 10
25.0566
 20
11.6332
 30
0.0000
 42
1.0000
  0
VERTEX
  8
25
 10
25.0566
 20
12.2823
 30
0.0000
  0
SEQEND
  8
0
  0
POLYLINE
  8
25
 66
1
 10
0.0000
 20
0.0000
 30
0.0000
 40
0.0508
 41
0.0508
 70
0
  0
VERTEX
  8
25
 10
25.0566
 20
11.6586
 30
0.0000
 42
1.0000
  0
VERTEX
  8
25
 10
25.0566
 20
11.6078
 30
0.0000
  0
SEQEND
  8
0
  0
POLYLINE
  8
25
 66
1
 10
0.0000
 20
0.0000
 30
0.0000
 40
0.0508
 41
0.0508
 70
0
  0
VERTEX
  8
25
 10
25.0566
 20
12.3077
 30
0.0000
 42
1.0000
  0
VERTEX
  8
25
 10
25.0566
 20
12.2569
 30
0.0000
  0
SEQEND
  8
0
  0
POLYLINE
  8
25
 66
1
 10
0.0000
 20
0.0000
 30
0.0000
 40
0.1016
 41
0.1016
 70
0
  0
VERTEX
  8
25
 10
24.2128
 20
12.7339
 30
0.0000
  0
VERTEX
  8
25
 10
25.3812
 20
12.9935
 30
0.0000
  0
SEQEND
  8
0
  0
POLYLINE
  8
25
 66
1
 10
0.0000
 20
0.0000
 30
0.0000
 40
0.0508
 41
0.0508
 70
0
  0
VERTEX
  8
25
 10
25.3867
 20
12.9687
 30
0.0000
 42
1.0000
  0
VERTEX
  8
25
 10
25.3757
 20
13.0183
 30
0.0000
  0
SEQEND
  8
0
  0
POLYLINE
  8
25
 66
1
 10
0.0000
 20
0.0000
 30
0.0000
 40
0.0508
 41
0.0508
 70
0
  0
VERTEX
  8
25
 10
24.2073
 20
12.7587
 30
0.0000
 42
1.0000
  0
VERTEX
  8
25
 10
24.2183
 20
12.7091
 30
0.0000
  0
SEQEND
  8
0
  0
POLYLINE
  8
25
 66
1
 10
0.0000
 20
0.0000
 30
0.0000
 40
0.1016
 41
0.1016
 70
0
  0
VERTEX
  8
25
 10
25.3812
 20
12.9935
 30
0.0000
  0
VERTEX
  8
25
 10
24.6023
 20
13.2531
 30
0.0000
  0
SEQEND
  8
0
  0
POLYLINE
  8
25
 66
1
 10
0.0000
 20
0.0000
 30
0.0000
 40
0.0508
 41
0.0508
 70
0
  0
VERTEX
  8
25
 10
24.6103
 20
13.2772
 30
0.0000
 42
1.0000
  0
VERTEX
  8
25
 10
24.5942
 20
13.2291
 30
0.0000
  0
SEQEND
  8
0
  0
POLYLINE
  8
25
 66
1
 10
0.0000
 20
0.0000
 30
0.0000
 40
0.0508
 41
0.0508
 70
0
  0
VERTEX
  8
25
 10
25.3732
 20
12.9694
 30
0.0000
 42
1.0000
  0
VERTEX
  8
25
 10
25.3892
 20
13.0176
 30
0.0000
  0
SEQEND
  8
0
  0
POLYLINE
  8
25
 66
1
 10
0.0000
 20
0.0000
 30
0.0000
 40
0.1016
 41
0.1016
 70
0
  0
VERTEX
  8
25
 10
24.6023
 20
13.2531
 30
0.0000
  0
VERTEX
  8
25
 10
25.3812
 20
13.5128
 30
0.0000
  0
SEQEND
  8
0
  0
POLYLINE
  8
25
 66
1
 10
0.0000
 20
0.0000
 30
0.0000
 40
0.0508
 41
0.0508
 70
0
  0
VERTEX
  8
25
 10
25.3892
 20
13.4887
 30
0.0000
 42
1.0000
  0
VERTEX
  8
25
 10
25.3732
 20
13.5369
 30
0.0000
  0
SEQEND
  8
0
  0
POLYLINE
  8
25
 66
1
 10
0.0000
 20
0.0000
 30
0.0000
 40
0.0508
 41
0.0508
 70
0
  0
VERTEX
  8
25
 10
24.5942
 20
13.2772
 30
0.0000
 42
1.0000
  0
VERTEX
  8
25
 10
24.6103
 20
13.2291
 30
0.0000
  0
SEQEND
  8
0
  0
POLYLINE
  8
25
 66
1
 10
0.0000
 20
0.0000
 30
0.0000
 40
0.1016
 41
0.1016
 70
0
  0
VERTEX
  8
25
 10
25.3812
 20
13.5128
 30
0.0000
  0
VERTEX
  8
25
 10
24.2128
 20
13.7724
 30
0.0000
  0
SEQEND
  8
0
  0
POLYLINE
  8
25
 66
1
 10
0.0000
 20
0.0000
 30
0.0000
 40
0.0508
 41
0.0508
 70
0
  0
VERTEX
  8
25
 10
24.2183
 20
13.7972
 30
0.0000
 42
1.0000
  0
VERTEX
  8
25
 10
24.2073
 20
13.7476
 30
0.0000
  0
SEQEND
  8
0
  0
POLYLINE
  8
25
 66
1
 10
0.0000
 20
0.0000
 30
0.0000
 40
0.0508
 41
0.0508
 70
0
  0
VERTEX
  8
25
 10
25.3757
 20
13.4880
 30
0.0000
 42
1.0000
  0
VERTEX
  8
25
 10
25.3867
 20
13.5376
 30
0.0000
  0
SEQEND
  8
0
  0
POLYLINE
  8
25
 66
1
 10
0.0000
 20
0.0000
 30
0.0000
 40
0.1016
 41
0.1016
 70
0
  0
VERTEX
  8
25
 10
25.3812
 20
14.2621
 30
0.0000
  0
VERTEX
  8
25
 10
24.2128
 20
14.2621
 30
0.0000
  0
SEQEND
  8
0
  0
POLYLINE
  8
25
 66
1
 10
0.0000
 20
0.0000
 30
0.0000
 40
0.0508
 41
0.0508
 70
0
  0
VERTEX
  8
25
 10
24.2128
 20
14.2875
 30
0.0000
 42
1.0000
  0
VERTEX
  8
25
 10
24.2128
 20
14.2367
 30
0.0000
  0
SEQEND
  8
0
  0
POLYLINE
  8
25
 66
1
 10
0.0000
 20
0.0000
 30
0.0000
 40
0.0508
 41
0.0508
 70
0
  0
VERTEX
  8
25
 10
25.3812
 20
14.2367
 30
0.0000
 42
1.0000
  0
VERTEX
  8
25
 10
25.3812
 20
14.2875
 30
0.0000
  0
SEQEND
  8
0
  0
POLYLINE
  8
25
 66
1
 10
0.0000
 20
0.0000
 30
0.0000
 40
0.1016
 41
0.1016
 70
0
  0
VERTEX
  8
25
 10
24.2128
 20
14.2621
 30
0.0000
  0
VERTEX
  8
25
 10
25.3812
 20
14.9112
 30
0.0000
  0
SEQEND
  8
0
  0
POLYLINE
  8
25
 66
1
 10
0.0000
 20
0.0000
 30
0.0000
 40
0.0508
 41
0.0508
 70
0
  0
VERTEX
  8
25
 10
25.3935
 20
14.8890
 30
0.0000
 42
1.0000
  0
VERTEX
  8
25
 10
25.3689
 20
14.9334
 30
0.0000
  0
SEQEND
  8
0
  0
POLYLINE
  8
25
 66
1
 10
0.0000
 20
0.0000
 30
0.0000
 40
0.0508
 41
0.0508
 70
0
  0
VERTEX
  8
25
 10
24.2005
 20
14.2843
 30
0.0000
 42
1.0000
  0
VERTEX
  8
25
 10
24.2251
 20
14.2399
 30
0.0000
  0
SEQEND
  8
0
  0
POLYLINE
  8
25
 66
1
 10
0.0000
 20
0.0000
 30
0.0000
 40
0.1016
 41
0.1016
 70
0
  0
VERTEX
  8
25
 10
25.3812
 20
14.9112
 30
0.0000
  0
VERTEX
  8
25
 10
24.2128
 20
14.9112
 30
0.0000
  0
SEQEND
  8
0
  0
POLYLINE
  8
25
 66
1
 10
0.0000
 20
0.0000
 30
0.0000
 40
0.0508
 41
0.0508
 70
0
  0
VERTEX
  8
25
 10
24.2128
 20
14.9366
 30
0.0000
 42
1.0000
  0
VERTEX
  8
25
 10
24.2128
 20
14.8858
 30
0.0000
  0
SEQEND
  8
0
  0
POLYLINE
  8
25
 66
1
 10
0.0000
 20
0.0000
 30
0.0000
 40
0.0508
 41
0.0508
 70
0
  0
VERTEX
  8
25
 10
25.3812
 20
14.8858
 30
0.0000
 42
1.0000
  0
VERTEX
  8
25
 10
25.3812
 20
14.9366
 30
0.0000
  0
SEQEND
  8
0
  0
POLYLINE
  8
27
 66
1
 10
0.0000
 20
0.0000
 30
0.0000
 40
0.1016
 41
0.1016
 70
0
  0
VERTEX
  8
27
 10
20.6624
 20
11.9211
 30
0.0000
  0
VERTEX
  8
27
 10
20.4028
 20
12.2456
 30
0.0000
  0
SEQEND
  8
0
  0
POLYLINE
  8
27
 66
1
 10
0.0000
 20
0.0000
 30
0.0000
 40
0.0508
 41
0.0508
 70
0
  0
VERTEX
  8
27
 10
20.4226
 20
12.2615
 30
0.0000
 42
1.0000
  0
VERTEX
  8
27
 10
20.3830
 20
12.2297
 30
0.0000
  0
SEQEND
  8
0
  0
POLYLINE
  8
27
 66
1
 10
0.0000
 20
0.0000
 30
0.0000
 40
0.0508
 41
0.0508
 70
0
  0
VERTEX
  8
27
 10
20.6426
 20
11.9052
 30
0.0000
 42
1.0000
  0
VERTEX
  8
27
 10
20.6823
 20
11.9369
 30
0.0000
  0
SEQEND
  8
0
  0
POLYLINE
  8
27
 66
1
 10
0.0000
 20
0.0000
 30
0.0000
 40
0.1016
 41
0.1016
 70
0
  0
VERTEX
  8
27
 10
20.4028
 20
12.2456
 30
0.0000
  0
VERTEX
  8
27
 10
21.5712
 20
12.2456
 30
0.0000
  0
SEQEND
  8
0
  0
POLYLINE
  8
27
 66
1
 10
0.0000
 20
0.0000
 30
0.0000
 40
0.0508
 41
0.0508
 70
0
  0
VERTEX
  8
27
 10
21.5712
 20
12.2202
 30
0.0000
 42
1.0000
  0
VERTEX
  8
27
 10
21.5712
 20
12.2710
 30
0.0000
  0
SEQEND
  8
0
  0
POLYLINE
  8
27
 66
1
 10
0.0000
 20
0.0000
 30
0.0000
 40
0.0508
 41
0.0508
 70
0
  0
VERTEX
  8
27
 10
20.4028
 20
12.2710
 30
0.0000
 42
1.0000
  0
VERTEX
  8
27
 10
20.4028
 20
12.2202
 30
0.0000
  0
SEQEND
  8
0
  0
POLYLINE
  8
27
 66
1
 10
0.0000
 20
0.0000
 30
0.0000
 40
0.1016
 41
0.1016
 70
0
  0
VERTEX
  8
27
 10
21.5712
 20
11.9211
 30
0.0000
  0
VERTEX
  8
27
 10
21.5712
 20
12.5702
 30
0.0000
  0
SEQEND
  8
0
  0
POLYLINE
  8
27
 66
1
 10
0.0000
 20
0.0000
 30
0.0000
 40
0.0508
 41
0.0508
 70
0
  0
VERTEX
  8
27
 10
21.5966
 20
12.5702
 30
0.0000
 42
1.0000
  0
VERTEX
  8
27
 10
21.5458
 20
12.5702
 30
0.0000
  0
SEQEND
  8
0
  0
POLYLINE
  8
27
 66
1
 10
0.0000
 20
0.0000
 30
0.0000
 40
0.0508
 41
0.0508
 70
0
  0
VERTEX
  8
27
 10
21.5458
 20
11.9211
 30
0.0000
 42
1.0000
  0
VERTEX
  8
27
 10
21.5966
 20
11.9211
 30
0.0000
  0
SEQEND
  8
0
  0
POLYLINE
  8
27
 66
1
 10
0.0000
 20
0.0000
 30
0.0000
 40
0.1016
 41
0.1016
 70
0
  0
VERTEX
  8
27
 10
20.5651
 20
13.1614
 30
0.0000
 42
0.1139
  0
VERTEX
  8
27
 10
20.9870
 20
13.0641
 30
0.0000
  0
SEQEND
  8
0
  0
POLYLINE
  8
27
 66
1
 10
0.0000
 20
0.0000
 30
0.0000
 40
0.0508
 41
0.0508
 70
0
  0
VERTEX
  8
27
 10
20.5762
 20
13.1843
 30
0.0000
 42
1.0000
  0
VERTEX
  8
27
 10
20.5539
 20
13.1386
 30
0.0000
  0
SEQEND
  8
0
  0
POLYLINE
  8
27
 66
1
 10
0.0000
 20
0.0000
 30
0.0000
 40
0.0508
 41
0.0508
 70
0
  0
VERTEX
  8
27
 10
20.9870
 20
13.0387
 30
0.0000
 42
1.0000
  0
VERTEX
  8
27
 10
20.9870
 20
13.0895
 30
0.0000
  0
SEQEND
  8
0
  0
POLYLINE
  8
27
 66
1
 10
0.0000
 20
0.0000
 30
0.0000
 40
0.1016
 41
0.1016
 70
0
  0
VERTEX
  8
27
 10
20.4028
 20
13.3886
 30
0.0000
 42
0.3205
  0
VERTEX
  8
27
 10
20.5651
 20
13.1614
 30
0.0000
  0
SEQEND
  8
0
  0
POLYLINE
  8
27
 66
1
 10
0.0000
 20
0.0000
 30
0.0000
 40
0.0508
 41
0.0508
 70
0
  0
VERTEX
  8
27
 10
20.4282
 20
13.3886
 30
0.0000
 42
1.0000
  0
VERTEX
  8
27
 10
20.3774
 20
13.3886
 30
0.0000
  0
SEQEND
  8
0
  0
POLYLINE
  8
27
 66
1
 10
0.0000
 20
0.0000
 30
0.0000
 40
0.0508
 41
0.0508
 70
0
  0
VERTEX
  8
27
 10
20.5568
 20
13.1374
 30
0.0000
 42
1.0000
  0
VERTEX
  8
27
 10
20.5733
 20
13.1855
 30
0.0000
  0
SEQEND
  8
0
  0
POLYLINE
  8
27
 66
1
 10
0.0000
 20
0.0000
 30
0.0000
 40
0.1016
 41
0.1016
 70
0
  0
VERTEX
  8
27
 10
20.5651
 20
13.6158
 30
0.0000
 42
0.3205
  0
VERTEX
  8
27
 10
20.4028
 20
13.3886
 30
0.0000
  0
SEQEND
  8
0
  0
POLYLINE
  8
27
 66
1
 10
0.0000
 20
0.0000
 30
0.0000
 40
0.0508
 41
0.0508
 70
0
  0
VERTEX
  8
27
 10
20.5733
 20
13.5918
 30
0.0000
 42
1.0000
  0
VERTEX
  8
27
 10
20.5568
 20
13.6398
 30
0.0000
  0
SEQEND
  8
0
  0
POLYLINE
  8
27
 66
1
 10
0.0000
 20
0.0000
 30
0.0000
 40
0.0508
 41
0.0508
 70
0
  0
VERTEX
  8
27
 10
20.3774
 20
13.3886
 30
0.0000
 42
1.0000
  0
VERTEX
  8
27
 10
20.4282
 20
13.3886
 30
0.0000
  0
SEQEND
  8
0
  0
POLYLINE
  8
27
 66
1
 10
0.0000
 20
0.0000
 30
0.0000
 40
0.1016
 41
0.1016
 70
0
  0
VERTEX
  8
27
 10
20.9870
 20
13.7132
 30
0.0000
 42
0.1139
  0
VERTEX
  8
27
 10
20.5651
 20
13.6158
 30
0.0000
  0
SEQEND
  8
0
  0
POLYLINE
  8
27
 66
1
 10
0.0000
 20
0.0000
 30
0.0000
 40
0.0508
 41
0.0508
 70
0
  0
VERTEX
  8
27
 10
20.9870
 20
13.6878
 30
0.0000
 42
1.0000
  0
VERTEX
  8
27
 10
20.9870
 20
13.7386
 30
0.0000
  0
SEQEND
  8
0
  0
POLYLINE
  8
27
 66
1
 10
0.0000
 20
0.0000
 30
0.0000
 40
0.0508
 41
0.0508
 70
0
  0
VERTEX
  8
27
 10
20.5539
 20
13.6386
 30
0.0000
 42
1.0000
  0
VERTEX
  8
27
 10
20.5762
 20
13.5930
 30
0.0000
  0
SEQEND
  8
0
  0
POLYLINE
  8
27
 66
1
 10
0.0000
 20
0.0000
 30
0.0000
 40
0.1016
 41
0.1016
 70
0
  0
VERTEX
  8
27
 10
20.9870
 20
13.0641
 30
0.0000
 42
0.1139
  0
VERTEX
  8
27
 10
21.4089
 20
13.1614
 30
0.0000
  0
SEQEND
  8
0
  0
POLYLINE
  8
27
 66
1
 10
0.0000
 20
0.0000
 30
0.0000
 40
0.0508
 41
0.0508
 70
0
  0
VERTEX
  8
27
 10
20.9870
 20
13.0895
 30
0.0000
 42
1.0000
  0
VERTEX
  8
27
 10
20.9870
 20
13.0387
 30
0.0000
  0
SEQEND
  8
0
  0
POLYLINE
  8
27
 66
1
 10
0.0000
 20
0.0000
 30
0.0000
 40
0.0508
 41
0.0508
 70
0
  0
VERTEX
  8
27
 10
21.4201
 20
13.1386
 30
0.0000
 42
1.0000
  0
VERTEX
  8
27
 10
21.3978
 20
13.1843
 30
0.0000
  0
SEQEND
  8
0
  0
POLYLINE
  8
27
 66
1
 10
0.0000
 20
0.0000
 30
0.0000
 40
0.1016
 41
0.1016
 70
0
  0
VERTEX
  8
27
 10
21.4089
 20
13.1614
 30
0.0000
 42
0.3205
  0
VERTEX
  8
27
 10
21.5712
 20
13.3886
 30
0.0000
  0
SEQEND
  8
0
  0
POLYLINE
  8
27
 66
1
 10
0.0000
 20
0.0000
 30
0.0000
 40
0.0508
 41
0.0508
 70
0
  0
VERTEX
  8
27
 10
21.4007
 20
13.1855
 30
0.0000
 42
1.0000
  0
VERTEX
  8
27
 10
21.4172
 20
13.1374
 30
0.0000
  0
SEQEND
  8
0
  0
POLYLINE
  8
27
 66
1
 10
0.0000
 20
0.0000
 30
0.0000
 40
0.0508
 41
0.0508
 70
0
  0
VERTEX
  8
27
 10
21.5966
 20
13.3886
 30
0.0000
 42
1.0000
  0
VERTEX
  8
27
 10
21.5458
 20
13.3886
 30
0.0000
  0
SEQEND
  8
0
  0
POLYLINE
  8
27
 66
1
 10
0.0000
 20
0.0000
 30
0.0000
 40
0.1016
 41
0.1016
 70
0
  0
VERTEX
  8
27
 10
21.4089
 20
13.6158
 30
0.0000
 42
0.1139
  0
VERTEX
  8
27
 10
20.9870
 20
13.7132
 30
0.0000
  0
SEQEND
  8
0
  0
POLYLINE
  8
27
 66
1
 10
0.0000
 20
0.0000
 30
0.0000
 40
0.0508
 41
0.0508
 70
0
  0
VERTEX
  8
27
 10
21.3978
 20
13.5930
 30
0.0000
 42
1.0000
  0
VERTEX
  8
27
 10
21.4201
 20
13.6386
 30
0.0000
  0
SEQEND
  8
0
  0
POLYLINE
  8
27
 66
1
 10
0.0000
 20
0.0000
 30
0.0000
 40
0.0508
 41
0.0508
 70
0
  0
VERTEX
  8
27
 10
20.9870
 20
13.7386
 30
0.0000
 42
1.0000
  0
VERTEX
  8
27
 10
20.9870
 20
13.6878
 30
0.0000
  0
SEQEND
  8
0
  0
POLYLINE
  8
27
 66
1
 10
0.0000
 20
0.0000
 30
0.0000
 40
0.1016
 41
0.1016
 70
0
  0
VERTEX
  8
27
 10
21.5712
 20
13.3886
 30
0.0000
 42
0.3205
  0
VERTEX
  8
27
 10
21.4089
 20
13.6158
 30
0.0000
  0
SEQEND
  8
0
  0
POLYLINE
  8
27
 66
1
 10
0.0000
 20
0.0000
 30
0.0000
 40
0.0508
 41
0.0508
 70
0
  0
VERTEX
  8
27
 10
21.5458
 20
13.3886
 30
0.0000
 42
1.0000
  0
VERTEX
  8
27
 10
21.5966
 20
13.3886
 30
0.0000
  0
SEQEND
  8
0
  0
POLYLINE
  8
27
 66
1
 10
0.0000
 20
0.0000
 30
0.0000
 40
0.0508
 41
0.0508
 70
0
  0
VERTEX
  8
27
 10
21.4172
 20
13.6398
 30
0.0000
 42
1.0000
  0
VERTEX
  8
27
 10
21.4007
 20
13.5918
 30
0.0000
  0
SEQEND
  8
0
  0
POLYLINE
  8
27
 66
1
 10
0.0000
 20
0.0000
 30
0.0000
 40
0.1016
 41
0.1016
 70
0
  0
VERTEX
  8
27
 10
21.3116
 20
13.1290
 30
0.0000
  0
VERTEX
  8
27
 10
20.6624
 20
13.6483
 30
0.0000
  0
SEQEND
  8
0
  0
POLYLINE
  8
27
 66
1
 10
0.0000
 20
0.0000
 30
0.0000
 40
0.0508
 41
0.0508
 70
0
  0
VERTEX
  8
27
 10
20.6783
 20
13.6681
 30
0.0000
 42
1.0000
  0
VERTEX
  8
27
 10
20.6466
 20
13.6284
 30
0.0000
  0
SEQEND
  8
0
  0
POLYLINE
  8
27
 66
1
 10
0.0000
 20
0.0000
 30
0.0000
 40
0.0508
 41
0.0508
 70
0
  0
VERTEX
  8
27
 10
21.2957
 20
13.1091
 30
0.0000
 42
1.0000
  0
VERTEX
  8
27
 10
21.3274
 20
13.1488
 30
0.0000
  0
SEQEND
  8
0
  0
POLYLINE
  8
27
 66
1
 10
0.0000
 20
0.0000
 30
0.0000
 40
0.1016
 41
0.1016
 70
0
  0
VERTEX
  8
27
 10
21.5712
 20
14.2621
 30
0.0000
  0
VERTEX
  8
27
 10
20.4028
 20
14.2621
 30
0.0000
  0
SEQEND
  8
0
  0
POLYLINE
  8
27
 66
1
 10
0.0000
 20
0.0000
 30
0.0000
 40
0.0508
 41
0.0508
 70
0
  0
VERTEX
  8
27
 10
20.4028
 20
14.2875
 30
0.0000
 42
1.0000
  0
VERTEX
  8
27
 10
20.4028
 20
14.2367
 30
0.0000
  0
SEQEND
  8
0
  0
POLYLINE
  8
27
 66
1
 10
0.0000
 20
0.0000
 30
0.0000
 40
0.0508
 41
0.0508
 70
0
  0
VERTEX
  8
27
 10
21.5712
 20
14.2367
 30
0.0000
 42
1.0000
  0
VERTEX
  8
27
 10
21.5712
 20
14.2875
 30
0.0000
  0
SEQEND
  8
0
  0
POLYLINE
  8
27
 66
1
 10
0.0000
 20
0.0000
 30
0.0000
 40
0.1016
 41
0.1016
 70
0
  0
VERTEX
  8
27
 10
20.4028
 20
14.9112
 30
0.0000
  0
VERTEX
  8
27
 10
21.1168
 20
14.2621
 30
0.0000
  0
SEQEND
  8
0
  0
POLYLINE
  8
27
 66
1
 10
0.0000
 20
0.0000
 30
0.0000
 40
0.0508
 41
0.0508
 70
0
  0
VERTEX
  8
27
 10
21.0997
 20
14.2433
 30
0.0000
 42
1.0000
  0
VERTEX
  8
27
 10
21.1339
 20
14.2809
 30
0.0000
  0
SEQEND
  8
0
  0
POLYLINE
  8
27
 66
1
 10
0.0000
 20
0.0000
 30
0.0000
 40
0.0508
 41
0.0508
 70
0
  0
VERTEX
  8
27
 10
20.4199
 20
14.9300
 30
0.0000
 42
1.0000
  0
VERTEX
  8
27
 10
20.3857
 20
14.8924
 30
0.0000
  0
SEQEND
  8
0
  0
POLYLINE
  8
27
 66
1
 10
0.0000
 20
0.0000
 30
0.0000
 40
0.1016
 41
0.1016
 70
0
  0
VERTEX
  8
27
 10
21.5712
 20
14.9112
 30
0.0000
  0
VERTEX
  8
27
 10
20.8572
 20
14.5217
 30
0.0000
  0
SEQEND
  8
0
  0
POLYLINE
  8
27
 66
1
 10
0.0000
 20
0.0000
 30
0.0000
 40
0.0508
 41
0.0508
 70
0
  0
VERTEX
  8
27
 10
20.8450
 20
14.5440
 30
0.0000
 42
1.0000
  0
VERTEX
  8
27
 10
20.8693
 20
14.4994
 30
0.0000
  0
SEQEND
  8
0
  0
POLYLINE
  8
27
 66
1
 10
0.0000
 20
0.0000
 30
0.0000
 40
0.0508
 41
0.0508
 70
0
  0
VERTEX
  8
27
 10
21.5834
 20
14.8889
 30
0.0000
 42
1.0000
  0
VERTEX
  8
27
 10
21.5590
 20
14.9335
 30
0.0000
  0
SEQEND
  8
0
  0
POINT
  8
23
 10
25.9280
 20
13.7230
 30
0.0000
  0
POLYLINE
  8
51
 66
1
 10
0.0000
 20
0.0000
 30
0.0000
 40
0.1500
 41
0.1500
 70
0
  0
VERTEX
  8
51
 10
27.4480
 20
13.0230
 30
0.0000
  0
VERTEX
  8
51
 10
24.4080
 20
13.0230
 30
0.0000
  0
SEQEND
  8
0
  0
POLYLINE
  8
51
 66
1
 10
0.0000
 20
0.0000
 30
0.0000
 40
0.0750
 41
0.0750
 70
0
  0
VERTEX
  8
51
 10
24.4080
 20
13.0605
 30
0.0000
 42
1.0000
  0
VERTEX
  8
51
 10
24.4080
 20
12.9855
 30
0.0000
  0
SEQEND
  8
0
  0
POLYLINE
  8
51
 66
1
 10
0.0000
 20
0.0000
 30
0.0000
 40
0.0750
 41
0.0750
 70
0
  0
VERTEX
  8
51
 10
27.4480
 20
12.9855
 30
0.0000
 42
1.0000
  0
VERTEX
  8
51
 10
27.4480
 20
13.0605
 30
0.0000
  0
SEQEND
  8
0
  0
POLYLINE
  8
51
 66
1
 10
0.0000
 20
0.0000
 30
0.0000
 40
0.1500
 41
0.1500
 70
0
  0
VERTEX
  8
51
 10
24.4080
 20
13.0230
 30
0.0000
  0
VERTEX
  8
51
 10
24.4080
 20
14.4230
 30
0.0000
  0
SEQEND
  8
0
  0
POLYLINE
  8
51
 66
1
 10
0.0000
 20
0.0000
 30
0.0000
 40
0.0750
 41
0.0750
 70
0
  0
VERTEX
  8
51
 10
24.4455
 20
14.4230
 30
0.0000
 42
1.0000
  0
VERTEX
  8
51
 10
24.3705
 20
14.4230
 30
0.0000
  0
SEQEND
  8
0
  0
POLYLINE
  8
51
 66
1
 10
0.0000
 20
0.0000
 30
0.0000
 40
0.0750
 41
0.0750
 70
0
  0
VERTEX
  8
51
 10
24.3705
 20
13.0230
 30
0.0000
 42
1.0000
  0
VERTEX
  8
51
 10
24.4455
 20
13.0230
 30
0.0000
  0
SEQEND
  8
0
  0
POLYLINE
  8
51
 66
1
 10
0.0000
 20
0.0000
 30
0.0000
 40
0.1500
 41
0.1500
 70
0
  0
VERTEX
  8
51
 10
24.4080
 20
14.4230
 30
0.0000
  0
VERTEX
  8
51
 10
27.4480
 20
14.4230
 30
0.0000
  0
SEQEND
  8
0
  0
POLYLINE
  8
51
 66
1
 10
0.0000
 20
0.0000
 30
0.0000
 40
0.0750
 41
0.0750
 70
0
  0
VERTEX
  8
51
 10
27.4480
 20
14.3855
 30
0.0000
 42
1.0000
  0
VERTEX
  8
51
 10
27.4480
 20
14.4605
 30
0.0000
  0
SEQEND
  8
0
  0
POLYLINE
  8
51
 66
1
 10
0.0000
 20
0.0000
 30
0.0000
 40
0.0750
 41
0.0750
 70
0
  0
VERTEX
  8
51
 10
24.4080
 20
14.4605
 30
0.0000
 42
1.0000
  0
VERTEX
  8
51
 10
24.4080
 20
14.3855
 30
0.0000
  0
SEQEND
  8
0
  0
POLYLINE
  8
51
 66
1
 10
0.0000
 20
0.0000
 30
0.0000
 40
0.1500
 41
0.1500
 70
0
  0
VERTEX
  8
51
 10
27.4480
 20
14.4230
 30
0.0000
  0
VERTEX
  8
51
 10
27.4480
 20
13.0230
 30
0.0000
  0
SEQEND
  8
0
  0
POLYLINE
  8
51
 66
1
 10
0.0000
 20
0.0000
 30
0.0000
 40
0.0750
 41
0.0750
 70
0
  0
VERTEX
  8
51
 10
27.4105
 20
13.0230
 30
0.0000
 42
1.0000
  0
VERTEX
  8
51
 10
27.4855
 20
13.0230
 30
0.0000
  0
SEQEND
  8
0
  0
POLYLINE
  8
51
 66
1
 10
0.0000
 20
0.0000
 30
0.0000
 40
0.0750
 41
0.0750
 70
0
  0
VERTEX
  8
51
 10
27.4855
 20
14.4230
 30
0.0000
 42
1.0000
  0
VERTEX
  8
51
 10
27.4105
 20
14.4230
 30
0.0000
  0
SEQEND
  8
0
  0
POLYLINE
  8
21
 66
1
 10
0.0000
 20
0.0000
 30
0.0000
 40
0.1500
 41
0.1500
 70
0
  0
VERTEX
  8
21
 10
24.4080
 20
13.6980
 30
0.0000
  0
VERTEX
  8
21
 10
24.4080
 20
14.4230
 30
0.0000
  0
SEQEND
  8
0
  0
POLYLINE
  8
21
 66
1
 10
0.0000
 20
0.0000
 30
0.0000
 40
0.0750
 41
0.0750
 70
0
  0
VERTEX
  8
21
 10
24.4455
 20
14.4230
 30
0.0000
 42
1.0000
  0
VERTEX
  8
21
 10
24.3705
 20
14.4230
 30
0.0000
  0
SEQEND
  8
0
  0
POLYLINE
  8
21
 66
1
 10
0.0000
 20
0.0000
 30
0.0000
 40
0.0750
 41
0.0750
 70
0
  0
VERTEX
  8
21
 10
24.3705
 20
13.6980
 30
0.0000
 42
1.0000
  0
VERTEX
  8
21
 10
24.4455
 20
13.6980
 30
0.0000
  0
SEQEND
  8
0
  0
POLYLINE
  8
21
 66
1
 10
0.0000
 20
0.0000
 30
0.0000
 40
0.1500
 41
0.1500
 70
0
  0
VERTEX
  8
21
 10
27.4480
 20
14.4230
 30
0.0000
  0
VERTEX
  8
21
 10
26.6030
 20
14.4230
 30
0.0000
  0
SEQEND
  8
0
  0
POLYLINE
  8
21
 66
1
 10
0.0000
 20
0.0000
 30
0.0000
 40
0.0750
 41
0.0750
 70
0
  0
VERTEX
  8
21
 10
26.6030
 20
14.4605
 30
0.0000
 42
1.0000
  0
VERTEX
  8
21
 10
26.6030
 20
14.3855
 30
0.0000
  0
SEQEND
  8
0
  0
POLYLINE
  8
21
 66
1
 10
0.0000
 20
0.0000
 30
0.0000
 40
0.0750
 41
0.0750
 70
0
  0
VERTEX
  8
21
 10
27.4480
 20
14.3855
 30
0.0000
 42
1.0000
  0
VERTEX
  8
21
 10
27.4480
 20
14.4605
 30
0.0000
  0
SEQEND
  8
0
  0
POLYLINE
  8
21
 66
1
 10
0.0000
 20
0.0000
 30
0.0000
 40
0.1500
 41
0.1500
 70
0
  0
VERTEX
  8
21
 10
25.2530
 20
14.4230
 30
0.0000
  0
VERTEX
  8
21
 10
24.4080
 20
14.4230
 30
0.0000
  0
SEQEND
  8
0
  0
POLYLINE
  8
21
 66
1
 10
0.0000
 20
0.0000
 30
0.0000
 40
0.0750
 41
0.0750
 70
0
  0
VERTEX
  8
21
 10
24.4080
 20
14.4605
 30
0.0000
 42
1.0000
  0
VERTEX
  8
21
 10
24.4080
 20
14.3855
 30
0.0000
  0
SEQEND
  8
0
  0
POLYLINE
  8
21
 66
1
 10
0.0000
 20
0.0000
 30
0.0000
 40
0.0750
 41
0.0750
 70
0
  0
VERTEX
  8
21
 10
25.2530
 20
14.3855
 30
0.0000
 42
1.0000
  0
VERTEX
  8
21
 10
25.2530
 20
14.4605
 30
0.0000
  0
SEQEND
  8
0
  0
POLYLINE
  8
21
 66
1
 10
0.0000
 20
0.0000
 30
0.0000
 40
0.1500
 41
0.1500
 70
0
  0
VERTEX
  8
21
 10
27.4480
 20
13.6980
 30
0.0000
  0
VERTEX
  8
21
 10
27.4480
 20
14.4230
 30
0.0000
  0
SEQEND
  8
0
  0
POLYLINE
  8
21
 66
1
 10
0.0000
 20
0.0000
 30
0.0000
 40
0.0750
 41
0.0750
 70
0
  0
VERTEX
  8
21
 10
27.4855
 20
14.4230
 30
0.0000
 42
1.0000
  0
VERTEX
  8
21
 10
27.4105
 20
14.4230
 30
0.0000
  0
SEQEND
  8
0
  0
POLYLINE
  8
21
 66
1
 10
0.0000
 20
0.0000
 30
0.0000
 40
0.0750
 41
0.0750
 70
0
  0
VERTEX
  8
21
 10
27.4105
 20
13.6980
 30
0.0000
 42
1.0000
  0
VERTEX
  8
21
 10
27.4855
 20
13.6980
 30
0.0000
  0
SEQEND
  8
0
  0
POLYLINE
  8
21
 66
1
 10
0.0000
 20
0.0000
 30
0.0000
 40
0.1500
 41
0.1500
 70
0
  0
VERTEX
  8
21
 10
26.2030
 20
13.0230
 30
0.0000
  0
VERTEX
  8
21
 10
25.6530
 20
13.0230
 30
0.0000
  0
SEQEND
  8
0
  0
POLYLINE
  8
21
 66
1
 10
0.0000
 20
0.0000
 30
0.0000
 40
0.0750
 41
0.0750
 70
0
  0
VERTEX
  8
21
 10
25.6530
 20
13.0605
 30
0.0000
 42
1.0000
  0
VERTEX
  8
21
 10
25.6530
 20
12.9855
 30
0.0000
  0
SEQEND
  8
0
  0
POLYLINE
  8
21
 66
1
 10
0.0000
 20
0.0000
 30
0.0000
 40
0.0750
 41
0.0750
 70
0
  0
VERTEX
  8
21
 10
26.2030
 20
12.9855
 30
0.0000
 42
1.0000
  0
VERTEX
  8
21
 10
26.2030
 20
13.0605
 30
0.0000
  0
SEQEND
  8
0
  0
INSERT
  8
1
  2
RECT208000X96000R17
 10
24.9780
 20
12.6730
 30
0.0000
 41
1.0000
 42
1.0000
 43
1.0000
 50
90.0000
  0
INSERT
  8
1
  2
RECT208000X96000R17
 10
26.8780
 20
12.6730
 30
0.0000
 41
1.0000
 42
1.0000
 43
1.0000
 50
90.0000
  0
INSERT
  8
1
  2
RECT208000X96000R17
 10
25.9280
 20
14.7730
 30
0.0000
 41
1.0000
 42
1.0000
 43
1.0000
 50
90.0000
  0
POLYLINE
  8
25
 66
1
 10
0.0000
 20
0.0000
 30
0.0000
 40
0.0762
 41
0.0762
 70
0
  0
VERTEX
  8
25
 10
23.1461
 20
13.0611
 30
0.0000
  0
VERTEX
  8
25
 10
23.8133
 20
13.0611
 30
0.0000
  0
SEQEND
  8
0
  0
POLYLINE
  8
25
 66
1
 10
0.0000
 20
0.0000
 30
0.0000
 40
0.0381
 41
0.0381
 70
0
  0
VERTEX
  8
25
 10
23.8133
 20
13.0421
 30
0.0000
 42
1.0000
  0
VERTEX
  8
25
 10
23.8133
 20
13.0802
 30
0.0000
  0
SEQEND
  8
0
  0
POLYLINE
  8
25
 66
1
 10
0.0000
 20
0.0000
 30
0.0000
 40
0.0381
 41
0.0381
 70
0
  0
VERTEX
  8
25
 10
23.1461
 20
13.0802
 30
0.0000
 42
1.0000
  0
VERTEX
  8
25
 10
23.1461
 20
13.0421
 30
0.0000
  0
SEQEND
  8
0
  0
POLYLINE
  8
25
 66
1
 10
0.0000
 20
0.0000
 30
0.0000
 40
0.0762
 41
0.0762
 70
0
  0
VERTEX
  8
25
 10
23.8133
 20
13.0611
 30
0.0000
 42
1.0000
  0
VERTEX
  8
25
 10
23.8133
 20
13.5743
 30
0.0000
  0
SEQEND
  8
0
  0
POLYLINE
  8
25
 66
1
 10
0.0000
 20
0.0000
 30
0.0000
 40
0.0381
 41
0.0381
 70
0
  0
VERTEX
  8
25
 10
23.8133
 20
13.0802
 30
0.0000
 42
1.0000
  0
VERTEX
  8
25
 10
23.8133
 20
13.0421
 30
0.0000
  0
SEQEND
  8
0
  0
POLYLINE
  8
25
 66
1
 10
0.0000
 20
0.0000
 30
0.0000
 40
0.0381
 41
0.0381
 70
0
  0
VERTEX
  8
25
 10
23.8133
 20
13.5934
 30
0.0000
 42
1.0000
  0
VERTEX
  8
25
 10
23.8133
 20
13.5553
 30
0.0000
  0
SEQEND
  8
0
  0
POLYLINE
  8
25
 66
1
 10
0.0000
 20
0.0000
 30
0.0000
 40
0.0762
 41
0.0762
 70
0
  0
VERTEX
  8
25
 10
23.8133
 20
13.5743
 30
0.0000
  0
VERTEX
  8
25
 10
23.1461
 20
13.5743
 30
0.0000
  0
SEQEND
  8
0
  0
POLYLINE
  8
25
 66
1
 10
0.0000
 20
0.0000
 30
0.0000
 40
0.0381
 41
0.0381
 70
0
  0
VERTEX
  8
25
 10
23.1461
 20
13.5934
 30
0.0000
 42
1.0000
  0
VERTEX
  8
25
 10
23.1461
 20
13.5553
 30
0.0000
  0
SEQEND
  8
0
  0
POLYLINE
  8
25
 66
1
 10
0.0000
 20
0.0000
 30
0.0000
 40
0.0381
 41
0.0381
 70
0
  0
VERTEX
  8
25
 10
23.8133
 20
13.5553
 30
0.0000
 42
1.0000
  0
VERTEX
  8
25
 10
23.8133
 20
13.5934
 30
0.0000
  0
SEQEND
  8
0
  0
POLYLINE
  8
25
 66
1
 10
0.0000
 20
0.0000
 30
0.0000
 40
0.0762
 41
0.0762
 70
0
  0
VERTEX
  8
25
 10
23.3514
 20
13.9911
 30
0.0000
  0
VERTEX
  8
25
 10
23.1461
 20
14.2477
 30
0.0000
  0
SEQEND
  8
0
  0
POLYLINE
  8
25
 66
1
 10
0.0000
 20
0.0000
 30
0.0000
 40
0.0381
 41
0.0381
 70
0
  0
VERTEX
  8
25
 10
23.1610
 20
14.2596
 30
0.0000
 42
1.0000
  0
VERTEX
  8
25
 10
23.1312
 20
14.2358
 30
0.0000
  0
SEQEND
  8
0
  0
POLYLINE
  8
25
 66
1
 10
0.0000
 20
0.0000
 30
0.0000
 40
0.0381
 41
0.0381
 70
0
  0
VERTEX
  8
25
 10
23.3365
 20
13.9792
 30
0.0000
 42
1.0000
  0
VERTEX
  8
25
 10
23.3663
 20
14.0030
 30
0.0000
  0
SEQEND
  8
0
  0
POLYLINE
  8
25
 66
1
 10
0.0000
 20
0.0000
 30
0.0000
 40
0.0762
 41
0.0762
 70
0
  0
VERTEX
  8
25
 10
23.1461
 20
14.2477
 30
0.0000
  0
VERTEX
  8
25
 10
24.0699
 20
14.2477
 30
0.0000
  0
SEQEND
  8
0
  0
POLYLINE
  8
25
 66
1
 10
0.0000
 20
0.0000
 30
0.0000
 40
0.0381
 41
0.0381
 70
0
  0
VERTEX
  8
25
 10
24.0699
 20
14.2287
 30
0.0000
 42
1.0000
  0
VERTEX
  8
25
 10
24.0699
 20
14.2668
 30
0.0000
  0
SEQEND
  8
0
  0
POLYLINE
  8
25
 66
1
 10
0.0000
 20
0.0000
 30
0.0000
 40
0.0381
 41
0.0381
 70
0
  0
VERTEX
  8
25
 10
23.1461
 20
14.2668
 30
0.0000
 42
1.0000
  0
VERTEX
  8
25
 10
23.1461
 20
14.2287
 30
0.0000
  0
SEQEND
  8
0
  0
POLYLINE
  8
25
 66
1
 10
0.0000
 20
0.0000
 30
0.0000
 40
0.0762
 41
0.0762
 70
0
  0
VERTEX
  8
25
 10
24.0699
 20
13.9911
 30
0.0000
  0
VERTEX
  8
25
 10
24.0699
 20
14.5043
 30
0.0000
  0
SEQEND
  8
0
  0
POLYLINE
  8
25
 66
1
 10
0.0000
 20
0.0000
 30
0.0000
 40
0.0381
 41
0.0381
 70
0
  0
VERTEX
  8
25
 10
24.0890
 20
14.5043
 30
0.0000
 42
1.0000
  0
VERTEX
  8
25
 10
24.0509
 20
14.5043
 30
0.0000
  0
SEQEND
  8
0
  0
POLYLINE
  8
25
 66
1
 10
0.0000
 20
0.0000
 30
0.0000
 40
0.0381
 41
0.0381
 70
0
  0
VERTEX
  8
25
 10
24.0509
 20
13.9911
 30
0.0000
 42
1.0000
  0
VERTEX
  8
25
 10
24.0890
 20
13.9911
 30
0.0000
  0
SEQEND
  8
0
  0
POLYLINE
  8
1
 66
1
 10
0.0000
 20
0.0000
 30
0.0000
 40
0.2032
 41
0.2032
 70
0
  0
VERTEX
  8
1
 10
19.4850
 20
12.6860
 30
0.0000
  0
VERTEX
  8
1
 10
22.8920
 20
12.7420
 30
0.0000
  0
SEQEND
  8
0
  0
POLYLINE
  8
1
 66
1
 10
0.0000
 20
0.0000
 30
0.0000
 40
0.1016
 41
0.1016
 70
0
  0
VERTEX
  8
1
 10
22.8928
 20
12.6912
 30
0.0000
 42
1.0000
  0
VERTEX
  8
1
 10
22.8912
 20
12.7928
 30
0.0000
  0
SEQEND
  8
0
  0
POLYLINE
  8
1
 66
1
 10
0.0000
 20
0.0000
 30
0.0000
 40
0.1016
 41
0.1016
 70
0
  0
VERTEX
  8
1
 10
19.4842
 20
12.7368
 30
0.0000
 42
1.0000
  0
VERTEX
  8
1
 10
19.4858
 20
12.6352
 30
0.0000
  0
SEQEND
  8
0
  0
POLYLINE
  8
1
 66
1
 10
0.0000
 20
0.0000
 30
0.0000
 40
0.2032
 41
0.2032
 70
0
  0
VERTEX
  8
1
 10
22.8920
 20
12.7420
 30
0.0000
  0
VERTEX
  8
1
 10
23.0300
 20
12.6040
 30
0.0000
  0
SEQEND
  8
0
  0
POLYLINE
  8
1
 66
1
 10
0.0000
 20
0.0000
 30
0.0000
 40
0.1016
 41
0.1016
 70
0
  0
VERTEX
  8
1
 10
22.9941
 20
12.5681
 30
0.0000
 42
1.0000
  0
VERTEX
  8
1
 10
23.0659
 20
12.6399
 30
0.0000
  0
SEQEND
  8
0
  0
POLYLINE
  8
1
 66
1
 10
0.0000
 20
0.0000
 30
0.0000
 40
0.1016
 41
0.1016
 70
0
  0
VERTEX
  8
1
 10
22.9279
 20
12.7779
 30
0.0000
 42
1.0000
  0
VERTEX
  8
1
 10
22.8561
 20
12.7061
 30
0.0000
  0
SEQEND
  8
0
  0
POLYLINE
  8
1
 66
1
 10
0.0000
 20
0.0000
 30
0.0000
 40
0.2032
 41
0.2032
 70
0
  0
VERTEX
  8
1
 10
26.8780
 20
11.6420
 30
0.0000
  0
VERTEX
  8
1
 10
26.8780
 20
12.6730
 30
0.0000
  0
SEQEND
  8
0
  0
POLYLINE
  8
1
 66
1
 10
0.0000
 20
0.0000
 30
0.0000
 40
0.1016
 41
0.1016
 70
0
  0
VERTEX
  8
1
 10
26.9288
 20
12.6730
 30
0.0000
 42
1.0000
  0
VERTEX
  8
1
 10
26.8272
 20
12.6730
 30
0.0000
  0
SEQEND
  8
0
  0
POLYLINE
  8
1
 66
1
 10
0.0000
 20
0.0000
 30
0.0000
 40
0.1016
 41
0.1016
 70
0
  0
VERTEX
  8
1
 10
26.8272
 20
11.6420
 30
0.0000
 42
1.0000
  0
VERTEX
  8
1
 10
26.9288
 20
11.6420
 30
0.0000
  0
SEQEND
  8
0
  0
POLYLINE
  8
1
 66
1
 10
0.0000
 20
0.0000
 30
0.0000
 40
0.2032
 41
0.2032
 70
0
  0
VERTEX
  8
1
 10
26.1010
 20
10.8650
 30
0.0000
  0
VERTEX
  8
1
 10
26.8780
 20
11.6420
 30
0.0000
  0
SEQEND
  8
0
  0
POLYLINE
  8
1
 66
1
 10
0.0000
 20
0.0000
 30
0.0000
 40
0.1016
 41
0.1016
 70
0
  0
VERTEX
  8
1
 10
26.9139
 20
11.6061
 30
0.0000
 42
1.0000
  0
VERTEX
  8
1
 10
26.8421
 20
11.6779
 30
0.0000
  0
SEQEND
  8
0
  0
POLYLINE
  8
1
 66
1
 10
0.0000
 20
0.0000
 30
0.0000
 40
0.1016
 41
0.1016
 70
0
  0
VERTEX
  8
1
 10
26.0651
 20
10.9009
 30
0.0000
 42
1.0000
  0
VERTEX
  8
1
 10
26.1369
 20
10.8291
 30
0.0000
  0
SEQEND
  8
0
  0
POLYLINE
  8
1
 66
1
 10
0.0000
 20
0.0000
 30
0.0000
 40
0.2540
 41
0.2540
 70
0
  0
VERTEX
  8
1
 10
19.4850
 20
12.6860
 30
0.0000
  0
VERTEX
  8
1
 10
22.9480
 20
12.6860
 30
0.0000
  0
SEQEND
  8
0
  0
POLYLINE
  8
1
 66
1
 10
0.0000
 20
0.0000
 30
0.0000
 40
0.1270
 41
0.1270
 70
0
  0
VERTEX
  8
1
 10
22.9480
 20
12.6225
 30
0.0000
 42
1.0000
  0
VERTEX
  8
1
 10
22.9480
 20
12.7495
 30
0.0000
  0
SEQEND
  8
0
  0
POLYLINE
  8
1
 66
1
 10
0.0000
 20
0.0000
 30
0.0000
 40
0.1270
 41
0.1270
 70
0
  0
VERTEX
  8
1
 10
19.4850
 20
12.7495
 30
0.0000
 42
1.0000
  0
VERTEX
  8
1
 10
19.4850
 20
12.6225
 30
0.0000
  0
SEQEND
  8
0
  0
POLYLINE
  8
1
 66
1
 10
0.0000
 20
0.0000
 30
0.0000
 40
0.2540
 41
0.2540
 70
0
  0
VERTEX
  8
1
 10
22.9480
 20
12.6860
 30
0.0000
  0
VERTEX
  8
1
 10
23.0300
 20
12.6040
 30
0.0000
  0
SEQEND
  8
0
  0
POLYLINE
  8
1
 66
1
 10
0.0000
 20
0.0000
 30
0.0000
 40
0.1270
 41
0.1270
 70
0
  0
VERTEX
  8
1
 10
22.9851
 20
12.5591
 30
0.0000
 42
1.0000
  0
VERTEX
  8
1
 10
23.0749
 20
12.6489
 30
0.0000
  0
SEQEND
  8
0
  0
POLYLINE
  8
1
 66
1
 10
0.0000
 20
0.0000
 30
0.0000
 40
0.1270
 41
0.1270
 70
0
  0
VERTEX
  8
1
 10
22.9929
 20
12.7309
 30
0.0000
 42
1.0000
  0
VERTEX
  8
1
 10
22.9031
 20
12.6411
 30
0.0000
  0
SEQEND
  8
0
  0
POLYLINE
  8
1
 66
1
 10
0.0000
 20
0.0000
 30
0.0000
 40
0.2540
 41
0.2540
 70
0
  0
VERTEX
  8
1
 10
22.8920
 20
12.7420
 30
0.0000
  0
VERTEX
  8
1
 10
22.9480
 20
12.6860
 30
0.0000
  0
SEQEND
  8
0
  0
POLYLINE
  8
1
 66
1
 10
0.0000
 20
0.0000
 30
0.0000
 40
0.1270
 41
0.1270
 70
0
  0
VERTEX
  8
1
 10
22.9031
 20
12.6411
 30
0.0000
 42
1.0000
  0
VERTEX
  8
1
 10
22.9929
 20
12.7309
 30
0.0000
  0
SEQEND
  8
0
  0
POLYLINE
  8
1
 66
1
 10
0.0000
 20
0.0000
 30
0.0000
 40
0.1270
 41
0.1270
 70
0
  0
VERTEX
  8
1
 10
22.9369
 20
12.7869
 30
0.0000
 42
1.0000
  0
VERTEX
  8
1
 10
22.8471
 20
12.6971
 30
0.0000
  0
SEQEND
  8
0
  0
POLYLINE
  8
1
 66
1
 10
0.0000
 20
0.0000
 30
0.0000
 40
0.2540
 41
0.2540
 70
0
  0
VERTEX
  8
1
 10
23.0300
 20
12.6040
 30
0.0000
  0
VERTEX
  8
1
 10
23.0300
 20
11.2890
 30
0.0000
  0
SEQEND
  8
0
  0
POLYLINE
  8
1
 66
1
 10
0.0000
 20
0.0000
 30
0.0000
 40
0.1270
 41
0.1270
 70
0
  0
VERTEX
  8
1
 10
22.9665
 20
11.2890
 30
0.0000
 42
1.0000
  0
VERTEX
  8
1
 10
23.0935
 20
11.2890
 30
0.0000
  0
SEQEND
  8
0
  0
POLYLINE
  8
1
 66
1
 10
0.0000
 20
0.0000
 30
0.0000
 40
0.1270
 41
0.1270
 70
0
  0
VERTEX
  8
1
 10
23.0935
 20
12.6040
 30
0.0000
 42
1.0000
  0
VERTEX
  8
1
 10
22.9665
 20
12.6040
 30
0.0000
  0
SEQEND
  8
0
  0
POLYLINE
  8
1
 66
1
 10
0.0000
 20
0.0000
 30
0.0000
 40
0.2540
 41
0.2540
 70
0
  0
VERTEX
  8
1
 10
23.0300
 20
11.2890
 30
0.0000
  0
VERTEX
  8
1
 10
23.4540
 20
10.8650
 30
0.0000
  0
SEQEND
  8
0
  0
POLYLINE
  8
1
 66
1
 10
0.0000
 20
0.0000
 30
0.0000
 40
0.1270
 41
0.1270
 70
0
  0
VERTEX
  8
1
 10
23.4091
 20
10.8201
 30
0.0000
 42
1.0000
  0
VERTEX
  8
1
 10
23.4989
 20
10.9099
 30
0.0000
  0
SEQEND
  8
0
  0
POLYLINE
  8
1
 66
1
 10
0.0000
 20
0.0000
 30
0.0000
 40
0.1270
 41
0.1270
 70
0
  0
VERTEX
  8
1
 10
23.0749
 20
11.3339
 30
0.0000
 42
1.0000
  0
VERTEX
  8
1
 10
22.9851
 20
11.2441
 30
0.0000
  0
SEQEND
  8
0
  0
POLYLINE
  8
1
 66
1
 10
0.0000
 20
0.0000
 30
0.0000
 40
0.2540
 41
0.2540
 70
0
  0
VERTEX
  8
1
 10
23.4540
 20
10.8650
 30
0.0000
  0
VERTEX
  8
1
 10
26.1010
 20
10.8650
 30
0.0000
  0
SEQEND
  8
0
  0
POLYLINE
  8
1
 66
1
 10
0.0000
 20
0.0000
 30
0.0000
 40
0.1270
 41
0.1270
 70
0
  0
VERTEX
  8
1
 10
26.1010
 20
10.8015
 30
0.0000
 42
1.0000
  0
VERTEX
  8
1
 10
26.1010
 20
10.9285
 30
0.0000
  0
SEQEND
  8
0
  0
POLYLINE
  8
1
 66
1
 10
0.0000
 20
0.0000
 30
0.0000
 40
0.1270
 41
0.1270
 70
0
  0
VERTEX
  8
1
 10
23.4540
 20
10.9285
 30
0.0000
 42
1.0000
  0
VERTEX
  8
1
 10
23.4540
 20
10.8015
 30
0.0000
  0
SEQEND
  8
0
  0
POLYLINE
  8
1
 66
1
 10
0.0000
 20
0.0000
 30
0.0000
 40
0.2032
 41
0.2032
 70
0
  0
VERTEX
  8
1
 10
25.9280
 20
14.7730
 30
0.0000
  0
VERTEX
  8
1
 10
25.9280
 20
17.0010
 30
0.0000
  0
SEQEND
  8
0
  0
POLYLINE
  8
1
 66
1
 10
0.0000
 20
0.0000
 30
0.0000
 40
0.1016
 41
0.1016
 70
0
  0
VERTEX
  8
1
 10
25.9788
 20
17.0010
 30
0.0000
 42
1.0000
  0
VERTEX
  8
1
 10
25.8772
 20
17.0010
 30
0.0000
  0
SEQEND
  8
0
  0
POLYLINE
  8
1
 66
1
 10
0.0000
 20
0.0000
 30
0.0000
 40
0.1016
 41
0.1016
 70
0
  0
VERTEX
  8
1
 10
25.8772
 20
14.7730
 30
0.0000
 42
1.0000
  0
VERTEX
  8
1
 10
25.9788
 20
14.7730
 30
0.0000
  0
SEQEND
  8
0
  0
POLYLINE
  8
1
 66
1
 10
0.0000
 20
0.0000
 30
0.0000
 40
0.2032
 41
0.2032
 70
0
  0
VERTEX
  8
1
 10
25.9280
 20
17.0010
 30
0.0000
  0
VERTEX
  8
1
 10
26.3050
 20
17.3780
 30
0.0000
  0
SEQEND
  8
0
  0
POLYLINE
  8
1
 66
1
 10
0.0000
 20
0.0000
 30
0.0000
 40
0.1016
 41
0.1016
 70
0
  0
VERTEX
  8
1
 10
26.3409
 20
17.3421
 30
0.0000
 42
1.0000
  0
VERTEX
  8
1
 10
26.2691
 20
17.4139
 30
0.0000
  0
SEQEND
  8
0
  0
POLYLINE
  8
1
 66
1
 10
0.0000
 20
0.0000
 30
0.0000
 40
0.1016
 41
0.1016
 70
0
  0
VERTEX
  8
1
 10
25.8921
 20
17.0369
 30
0.0000
 42
1.0000
  0
VERTEX
  8
1
 10
25.9639
 20
16.9651
 30
0.0000
  0
SEQEND
  8
0
  0
POLYLINE
  8
1
 66
1
 10
0.0000
 20
0.0000
 30
0.0000
 40
0.2032
 41
0.2032
 70
0
  0
VERTEX
  8
1
 10
19.4850
 20
17.7660
 30
0.0000
  0
VERTEX
  8
1
 10
22.4290
 20
17.7660
 30
0.0000
  0
SEQEND
  8
0
  0
POLYLINE
  8
1
 66
1
 10
0.0000
 20
0.0000
 30
0.0000
 40
0.1016
 41
0.1016
 70
0
  0
VERTEX
  8
1
 10
22.4290
 20
17.7152
 30
0.0000
 42
1.0000
  0
VERTEX
  8
1
 10
22.4290
 20
17.8168
 30
0.0000
  0
SEQEND
  8
0
  0
POLYLINE
  8
1
 66
1
 10
0.0000
 20
0.0000
 30
0.0000
 40
0.1016
 41
0.1016
 70
0
  0
VERTEX
  8
1
 10
19.4850
 20
17.8168
 30
0.0000
 42
1.0000
  0
VERTEX
  8
1
 10
19.4850
 20
17.7152
 30
0.0000
  0
SEQEND
  8
0
  0
POLYLINE
  8
1
 66
1
 10
0.0000
 20
0.0000
 30
0.0000
 40
0.2032
 41
0.2032
 70
0
  0
VERTEX
  8
1
 10
22.4290
 20
17.7660
 30
0.0000
  0
VERTEX
  8
1
 10
23.3970
 20
18.7340
 30
0.0000
  0
SEQEND
  8
0
  0
POLYLINE
  8
1
 66
1
 10
0.0000
 20
0.0000
 30
0.0000
 40
0.1016
 41
0.1016
 70
0
  0
VERTEX
  8
1
 10
23.4329
 20
18.6981
 30
0.0000
 42
1.0000
  0
VERTEX
  8
1
 10
23.3611
 20
18.7699
 30
0.0000
  0
SEQEND
  8
0
  0
POLYLINE
  8
1
 66
1
 10
0.0000
 20
0.0000
 30
0.0000
 40
0.1016
 41
0.1016
 70
0
  0
VERTEX
  8
1
 10
22.3931
 20
17.8019
 30
0.0000
 42
1.0000
  0
VERTEX
  8
1
 10
22.4649
 20
17.7301
 30
0.0000
  0
SEQEND
  8
0
  0
POLYLINE
  8
1
 66
1
 10
0.0000
 20
0.0000
 30
0.0000
 40
0.2032
 41
0.2032
 70
0
  0
VERTEX
  8
1
 10
23.3970
 20
18.7340
 30
0.0000
  0
VERTEX
  8
1
 10
25.7810
 20
18.7340
 30
0.0000
  0
SEQEND
  8
0
  0
POLYLINE
  8
1
 66
1
 10
0.0000
 20
0.0000
 30
0.0000
 40
0.1016
 41
0.1016
 70
0
  0
VERTEX
  8
1
 10
25.7810
 20
18.6832
 30
0.0000
 42
1.0000
  0
VERTEX
  8
1
 10
25.7810
 20
18.7848
 30
0.0000
  0
SEQEND
  8
0
  0
POLYLINE
  8
1
 66
1
 10
0.0000
 20
0.0000
 30
0.0000
 40
0.1016
 41
0.1016
 70
0
  0
VERTEX
  8
1
 10
23.3970
 20
18.7848
 30
0.0000
 42
1.0000
  0
VERTEX
  8
1
 10
23.3970
 20
18.6832
 30
0.0000
  0
SEQEND
  8
0
  0
POLYLINE
  8
1
 66
1
 10
0.0000
 20
0.0000
 30
0.0000
 40
0.2032
 41
0.2032
 70
0
  0
VERTEX
  8
1
 10
26.3050
 20
18.2100
 30
0.0000
  0
VERTEX
  8
1
 10
26.3050
 20
17.3780
 30
0.0000
  0
SEQEND
  8
0
  0
POLYLINE
  8
1
 66
1
 10
0.0000
 20
0.0000
 30
0.0000
 40
0.1016
 41
0.1016
 70
0
  0
VERTEX
  8
1
 10
26.2542
 20
17.3780
 30
0.0000
 42
1.0000
  0
VERTEX
  8
1
 10
26.3558
 20
17.3780
 30
0.0000
  0
SEQEND
  8
0
  0
POLYLINE
  8
1
 66
1
 10
0.0000
 20
0.0000
 30
0.0000
 40
0.1016
 41
0.1016
 70
0
  0
VERTEX
  8
1
 10
26.3558
 20
18.2100
 30
0.0000
 42
1.0000
  0
VERTEX
  8
1
 10
26.2542
 20
18.2100
 30
0.0000
  0
SEQEND
  8
0
  0
POLYLINE
  8
1
 66
1
 10
0.0000
 20
0.0000
 30
0.0000
 40
0.2032
 41
0.2032
 70
0
  0
VERTEX
  8
1
 10
25.7810
 20
18.7340
 30
0.0000
  0
VERTEX
  8
1
 10
26.3050
 20
18.2100
 30
0.0000
  0
SEQEND
  8
0
  0
POLYLINE
  8
1
 66
1
 10
0.0000
 20
0.0000
 30
0.0000
 40
0.1016
 41
0.1016
 70
0
  0
VERTEX
  8
1
 10
26.2691
 20
18.1741
 30
0.0000
 42
1.0000
  0
VERTEX
  8
1
 10
26.3409
 20
18.2459
 30
0.0000
  0
SEQEND
  8
0
  0
POLYLINE
  8
1
 66
1
 10
0.0000
 20
0.0000
 30
0.0000
 40
0.1016
 41
0.1016
 70
0
  0
VERTEX
  8
1
 10
25.8169
 20
18.7699
 30
0.0000
 42
1.0000
  0
VERTEX
  8
1
 10
25.7451
 20
18.6981
 30
0.0000
  0
SEQEND
  8
0
  0
POLYLINE
  8
1
 66
1
 10
0.0000
 20
0.0000
 30
0.0000
 40
0.2032
 41
0.2032
 70
0
  0
VERTEX
  8
1
 10
24.2730
 20
17.2730
 30
0.0000
  0
VERTEX
  8
1
 10
24.2730
 20
17.3780
 30
0.0000
  0
SEQEND
  8
0
  0
POLYLINE
  8
1
 66
1
 10
0.0000
 20
0.0000
 30
0.0000
 40
0.1016
 41
0.1016
 70
0
  0
VERTEX
  8
1
 10
24.3238
 20
17.3780
 30
0.0000
 42
1.0000
  0
VERTEX
  8
1
 10
24.2222
 20
17.3780
 30
0.0000
  0
SEQEND
  8
0
  0
POLYLINE
  8
1
 66
1
 10
0.0000
 20
0.0000
 30
0.0000
 40
0.1016
 41
0.1016
 70
0
  0
VERTEX
  8
1
 10
24.2222
 20
17.2730
 30
0.0000
 42
1.0000
  0
VERTEX
  8
1
 10
24.3238
 20
17.2730
 30
0.0000
  0
SEQEND
  8
0
  0
POLYLINE
  8
1
 66
1
 10
0.0000
 20
0.0000
 30
0.0000
 40
0.4064
 41
0.4064
 70
0
  0
VERTEX
  8
1
 10
24.2730
 20
17.3780
 30
0.0000
  0
VERTEX
  8
1
 10
24.1680
 20
17.2730
 30
0.0000
  0
SEQEND
  8
0
  0
POLYLINE
  8
1
 66
1
 10
0.0000
 20
0.0000
 30
0.0000
 40
0.2032
 41
0.2032
 70
0
  0
VERTEX
  8
1
 10
24.0962
 20
17.3448
 30
0.0000
 42
1.0000
  0
VERTEX
  8
1
 10
24.2398
 20
17.2012
 30
0.0000
  0
SEQEND
  8
0
  0
POLYLINE
  8
1
 66
1
 10
0.0000
 20
0.0000
 30
0.0000
 40
0.2032
 41
0.2032
 70
0
  0
VERTEX
  8
1
 10
24.3448
 20
17.3062
 30
0.0000
 42
1.0000
  0
VERTEX
  8
1
 10
24.2012
 20
17.4498
 30
0.0000
  0
SEQEND
  8
0
  0
POLYLINE
  8
1
 66
1
 10
0.0000
 20
0.0000
 30
0.0000
 40
0.4064
 41
0.4064
 70
0
  0
VERTEX
  8
1
 10
19.4850
 20
15.2260
 30
0.0000
  0
VERTEX
  8
1
 10
19.4960
 20
15.2260
 30
0.0000
  0
SEQEND
  8
0
  0
POLYLINE
  8
1
 66
1
 10
0.0000
 20
0.0000
 30
0.0000
 40
0.2032
 41
0.2032
 70
0
  0
VERTEX
  8
1
 10
19.4960
 20
15.1244
 30
0.0000
 42
1.0000
  0
VERTEX
  8
1
 10
19.4960
 20
15.3276
 30
0.0000
  0
SEQEND
  8
0
  0
POLYLINE
  8
1
 66
1
 10
0.0000
 20
0.0000
 30
0.0000
 40
0.2032
 41
0.2032
 70
0
  0
VERTEX
  8
1
 10
19.4850
 20
15.3276
 30
0.0000
 42
1.0000
  0
VERTEX
  8
1
 10
19.4850
 20
15.1244
 30
0.0000
  0
SEQEND
  8
0
  0
POLYLINE
  8
1
 66
1
 10
0.0000
 20
0.0000
 30
0.0000
 40
0.4064
 41
0.4064
 70
0
  0
VERTEX
  8
1
 10
22.8830
 20
14.8020
 30
0.0000
  0
VERTEX
  8
1
 10
22.3590
 20
14.8020
 30
0.0000
  0
SEQEND
  8
0
  0
POLYLINE
  8
1
 66
1
 10
0.0000
 20
0.0000
 30
0.0000
 40
0.2032
 41
0.2032
 70
0
  0
VERTEX
  8
1
 10
22.3590
 20
14.9036
 30
0.0000
 42
1.0000
  0
VERTEX
  8
1
 10
22.3590
 20
14.7004
 30
0.0000
  0
SEQEND
  8
0
  0
POLYLINE
  8
1
 66
1
 10
0.0000
 20
0.0000
 30
0.0000
 40
0.2032
 41
0.2032
 70
0
  0
VERTEX
  8
1
 10
22.8830
 20
14.7004
 30
0.0000
 42
1.0000
  0
VERTEX
  8
1
 10
22.8830
 20
14.9036
 30
0.0000
  0
SEQEND
  8
0
  0
POLYLINE
  8
1
 66
1
 10
0.0000
 20
0.0000
 30
0.0000
 40
0.4064
 41
0.4064
 70
0
  0
VERTEX
  8
1
 10
19.4850
 20
15.2260
 30
0.0000
  0
VERTEX
  8
1
 10
21.9350
 20
15.2260
 30
0.0000
  0
SEQEND
  8
0
  0
POLYLINE
  8
1
 66
1
 10
0.0000
 20
0.0000
 30
0.0000
 40
0.2032
 41
0.2032
 70
0
  0
VERTEX
  8
1
 10
21.9350
 20
15.1244
 30
0.0000
 42
1.0000
  0
VERTEX
  8
1
 10
21.9350
 20
15.3276
 30
0.0000
  0
SEQEND
  8
0
  0
POLYLINE
  8
1
 66
1
 10
0.0000
 20
0.0000
 30
0.0000
 40
0.2032
 41
0.2032
 70
0
  0
VERTEX
  8
1
 10
19.4850
 20
15.3276
 30
0.0000
 42
1.0000
  0
VERTEX
  8
1
 10
19.4850
 20
15.1244
 30
0.0000
  0
SEQEND
  8
0
  0
POLYLINE
  8
1
 66
1
 10
0.0000
 20
0.0000
 30
0.0000
 40
0.4064
 41
0.4064
 70
0
  0
VERTEX
  8
1
 10
22.3590
 20
14.8020
 30
0.0000
  0
VERTEX
  8
1
 10
21.9350
 20
15.2260
 30
0.0000
  0
SEQEND
  8
0
  0
POLYLINE
  8
1
 66
1
 10
0.0000
 20
0.0000
 30
0.0000
 40
0.2032
 41
0.2032
 70
0
  0
VERTEX
  8
1
 10
22.0068
 20
15.2978
 30
0.0000
 42
1.0000
  0
VERTEX
  8
1
 10
21.8632
 20
15.1542
 30
0.0000
  0
SEQEND
  8
0
  0
POLYLINE
  8
1
 66
1
 10
0.0000
 20
0.0000
 30
0.0000
 40
0.2032
 41
0.2032
 70
0
  0
VERTEX
  8
1
 10
22.2872
 20
14.7302
 30
0.0000
 42
1.0000
  0
VERTEX
  8
1
 10
22.4308
 20
14.8738
 30
0.0000
  0
SEQEND
  8
0
  0
POLYLINE
  8
1
 66
1
 10
0.0000
 20
0.0000
 30
0.0000
 40
0.4064
 41
0.4064
 70
0
  0
VERTEX
  8
1
 10
22.8920
 20
14.7930
 30
0.0000
  0
VERTEX
  8
1
 10
22.8920
 20
14.6420
 30
0.0000
  0
SEQEND
  8
0
  0
POLYLINE
  8
1
 66
1
 10
0.0000
 20
0.0000
 30
0.0000
 40
0.2032
 41
0.2032
 70
0
  0
VERTEX
  8
1
 10
22.7904
 20
14.6420
 30
0.0000
 42
1.0000
  0
VERTEX
  8
1
 10
22.9936
 20
14.6420
 30
0.0000
  0
SEQEND
  8
0
  0
POLYLINE
  8
1
 66
1
 10
0.0000
 20
0.0000
 30
0.0000
 40
0.2032
 41
0.2032
 70
0
  0
VERTEX
  8
1
 10
22.9936
 20
14.7930
 30
0.0000
 42
1.0000
  0
VERTEX
  8
1
 10
22.7904
 20
14.7930
 30
0.0000
  0
SEQEND
  8
0
  0
POLYLINE
  8
1
 66
1
 10
0.0000
 20
0.0000
 30
0.0000
 40
0.4064
 41
0.4064
 70
0
  0
VERTEX
  8
1
 10
22.8920
 20
14.7930
 30
0.0000
  0
VERTEX
  8
1
 10
22.8830
 20
14.8020
 30
0.0000
  0
SEQEND
  8
0
  0
POLYLINE
  8
1
 66
1
 10
0.0000
 20
0.0000
 30
0.0000
 40
0.2032
 41
0.2032
 70
0
  0
VERTEX
  8
1
 10
22.9548
 20
14.8738
 30
0.0000
 42
1.0000
  0
VERTEX
  8
1
 10
22.8112
 20
14.7302
 30
0.0000
  0
SEQEND
  8
0
  0
POLYLINE
  8
1
 66
1
 10
0.0000
 20
0.0000
 30
0.0000
 40
0.2032
 41
0.2032
 70
0
  0
VERTEX
  8
1
 10
22.8202
 20
14.7212
 30
0.0000
 42
1.0000
  0
VERTEX
  8
1
 10
22.9638
 20
14.8648
 30
0.0000
  0
SEQEND
  8
0
  0
POLYLINE
  8
1
 66
1
 10
0.0000
 20
0.0000
 30
0.0000
 40
0.4064
 41
0.4064
 70
0
  0
VERTEX
  8
1
 10
22.8920
 20
14.6420
 30
0.0000
  0
VERTEX
  8
1
 10
24.2100
 20
14.6420
 30
0.0000
  0
SEQEND
  8
0
  0
POLYLINE
  8
1
 66
1
 10
0.0000
 20
0.0000
 30
0.0000
 40
0.2032
 41
0.2032
 70
0
  0
VERTEX
  8
1
 10
24.2100
 20
14.5404
 30
0.0000
 42
1.0000
  0
VERTEX
  8
1
 10
24.2100
 20
14.7436
 30
0.0000
  0
SEQEND
  8
0
  0
POLYLINE
  8
1
 66
1
 10
0.0000
 20
0.0000
 30
0.0000
 40
0.2032
 41
0.2032
 70
0
  0
VERTEX
  8
1
 10
22.8920
 20
14.7436
 30
0.0000
 42
1.0000
  0
VERTEX
  8
1
 10
22.8920
 20
14.5404
 30
0.0000
  0
SEQEND
  8
0
  0
POLYLINE
  8
1
 66
1
 10
0.0000
 20
0.0000
 30
0.0000
 40
0.4064
 41
0.4064
 70
0
  0
VERTEX
  8
1
 10
24.9780
 20
13.8740
 30
0.0000
  0
VERTEX
  8
1
 10
24.9780
 20
12.6730
 30
0.0000
  0
SEQEND
  8
0
  0
POLYLINE
  8
1
 66
1
 10
0.0000
 20
0.0000
 30
0.0000
 40
0.2032
 41
0.2032
 70
0
  0
VERTEX
  8
1
 10
24.8764
 20
12.6730
 30
0.0000
 42
1.0000
  0
VERTEX
  8
1
 10
25.0796
 20
12.6730
 30
0.0000
  0
SEQEND
  8
0
  0
POLYLINE
  8
1
 66
1
 10
0.0000
 20
0.0000
 30
0.0000
 40
0.2032
 41
0.2032
 70
0
  0
VERTEX
  8
1
 10
25.0796
 20
13.8740
 30
0.0000
 42
1.0000
  0
VERTEX
  8
1
 10
24.8764
 20
13.8740
 30
0.0000
  0
SEQEND
  8
0
  0
POLYLINE
  8
1
 66
1
 10
0.0000
 20
0.0000
 30
0.0000
 40
0.4064
 41
0.4064
 70
0
  0
VERTEX
  8
1
 10
24.2100
 20
14.6420
 30
0.0000
  0
VERTEX
  8
1
 10
24.9780
 20
13.8740
 30
0.0000
  0
SEQEND
  8
0
  0
POLYLINE
  8
1
 66
1
 10
0.0000
 20
0.0000
 30
0.0000
 40
0.2032
 41
0.2032
 70
0
  0
VERTEX
  8
1
 10
24.9062
 20
13.8022
 30
0.0000
 42
1.0000
  0
VERTEX
  8
1
 10
25.0498
 20
13.9458
 30
0.0000
  0
SEQEND
  8
0
  0
POLYLINE
  8
1
 66
1
 10
0.0000
 20
0.0000
 30
0.0000
 40
0.2032
 41
0.2032
 70
0
  0
VERTEX
  8
1
 10
24.2818
 20
14.7138
 30
0.0000
 42
1.0000
  0
VERTEX
  8
1
 10
24.1382
 20
14.5702
 30
0.0000
  0
SEQEND
  8
0
  0
POLYLINE
  8
1
 66
1
 10
0.0000
 20
0.0000
 30
0.0000
 40
0.4064
 41
0.4064
 70
0
  0
VERTEX
  8
1
 10
22.8920
 20
14.6420
 30
0.0000
  0
VERTEX
  8
1
 10
22.8920
 20
15.6120
 30
0.0000
  0
SEQEND
  8
0
  0
POLYLINE
  8
1
 66
1
 10
0.0000
 20
0.0000
 30
0.0000
 40
0.2032
 41
0.2032
 70
0
  0
VERTEX
  8
1
 10
22.9936
 20
15.6120
 30
0.0000
 42
1.0000
  0
VERTEX
  8
1
 10
22.7904
 20
15.6120
 30
0.0000
  0
SEQEND
  8
0
  0
POLYLINE
  8
1
 66
1
 10
0.0000
 20
0.0000
 30
0.0000
 40
0.2032
 41
0.2032
 70
0
  0
VERTEX
  8
1
 10
22.7904
 20
14.6420
 30
0.0000
 42
1.0000
  0
VERTEX
  8
1
 10
22.9936
 20
14.6420
 30
0.0000
  0
SEQEND
  8
0
  0
POLYLINE
  8
1
 66
1
 10
0.0000
 20
0.0000
 30
0.0000
 40
0.4064
 41
0.4064
 70
0
  0
VERTEX
  8
1
 10
24.2450
 20
16.9650
 30
0.0000
  0
VERTEX
  8
1
 10
22.8920
 20
15.6120
 30
0.0000
  0
SEQEND
  8
0
  0
POLYLINE
  8
1
 66
1
 10
0.0000
 20
0.0000
 30
0.0000
 40
0.2032
 41
0.2032
 70
0
  0
VERTEX
  8
1
 10
22.8202
 20
15.6838
 30
0.0000
 42
1.0000
  0
VERTEX
  8
1
 10
22.9638
 20
15.5402
 30
0.0000
  0
SEQEND
  8
0
  0
POLYLINE
  8
1
 66
1
 10
0.0000
 20
0.0000
 30
0.0000
 40
0.2032
 41
0.2032
 70
0
  0
VERTEX
  8
1
 10
24.3168
 20
16.8932
 30
0.0000
 42
1.0000
  0
VERTEX
  8
1
 10
24.1732
 20
17.0368
 30
0.0000
  0
SEQEND
  8
0
  0
POLYLINE
  8
1
 66
1
 10
0.0000
 20
0.0000
 30
0.0000
 40
0.4064
 41
0.4064
 70
0
  0
VERTEX
  8
1
 10
24.2450
 20
17.2450
 30
0.0000
  0
VERTEX
  8
1
 10
24.2730
 20
17.2730
 30
0.0000
  0
SEQEND
  8
0
  0
POLYLINE
  8
1
 66
1
 10
0.0000
 20
0.0000
 30
0.0000
 40
0.2032
 41
0.2032
 70
0
  0
VERTEX
  8
1
 10
24.3448
 20
17.2012
 30
0.0000
 42
1.0000
  0
VERTEX
  8
1
 10
24.2012
 20
17.3448
 30
0.0000
  0
SEQEND
  8
0
  0
POLYLINE
  8
1
 66
1
 10
0.0000
 20
0.0000
 30
0.0000
 40
0.2032
 41
0.2032
 70
0
  0
VERTEX
  8
1
 10
24.1732
 20
17.3168
 30
0.0000
 42
1.0000
  0
VERTEX
  8
1
 10
24.3168
 20
17.1732
 30
0.0000
  0
SEQEND
  8
0
  0
POLYLINE
  8
1
 66
1
 10
0.0000
 20
0.0000
 30
0.0000
 40
0.4064
 41
0.4064
 70
0
  0
VERTEX
  8
1
 10
24.2450
 20
16.9650
 30
0.0000
  0
VERTEX
  8
1
 10
24.2450
 20
17.2450
 30
0.0000
  0
SEQEND
  8
0
  0
POLYLINE
  8
1
 66
1
 10
0.0000
 20
0.0000
 30
0.0000
 40
0.2032
 41
0.2032
 70
0
  0
VERTEX
  8
1
 10
24.3466
 20
17.2450
 30
0.0000
 42
1.0000
  0
VERTEX
  8
1
 10
24.1434
 20
17.2450
 30
0.0000
  0
SEQEND
  8
0
  0
POLYLINE
  8
1
 66
1
 10
0.0000
 20
0.0000
 30
0.0000
 40
0.2032
 41
0.2032
 70
0
  0
VERTEX
  8
1
 10
24.1434
 20
16.9650
 30
0.0000
 42
1.0000
  0
VERTEX
  8
1
 10
24.3466
 20
16.9650
 30
0.0000
  0
SEQEND
  8
0
  0
ENDSEC
  0
EOF
