  0
SECTION
  2
HEADER
  9
$ACADVER
  1
AC1009
  9
$FILLMODE
 70
1
  9
$EXTMIN
 10
-16.8640
 20
-4.6720
 30
0.0000
  9
$EXTMAX
 10
108.3040
 20
160.9330
 30
0.0000
  0
ENDSEC
  0
SECTION
  2
TABLES
  0
TABLE
  2
LTYPE
 70
1
  0
LTYPE
  2
CONTINUOUS
 70
64
  3
Solid line
 72
65
 73
0
 40
0
  0
ENDTAB
  0
TABLE
  2
LAYER
 70
255
  0
LAYER
  2
17
 70
64
 62
110
  6
CONTINUOUS
  0
LAYER
  2
48
 70
64
 62
253
  6
CONTINUOUS
  0
ENDTAB
  0
ENDSEC
  0
SECTION
  2
BLOCKS
  0
BLOCK
  8
0
  2
RECT
 70
64
 10
0.0000
 20
0.0000
 30
0.0000
  3
RECT
  0
SOLID
  8
0
 10
-0.5000
 20
-0.5000
 30
0.0000
 11
0.5000
 21
-0.5000
 31
0.0000
 12
-0.5000
 22
0.5000
 32
0.0000
 13
0.5000
 23
0.5000
 33
0.0000
  0
ENDBLK
  8
0
  0
BLOCK
  8
0
  2
PIE
 70
64
 10
0.0000
 20
0.0000
 30
0.0000
  3
PIE
  0
POLYLINE
  8
0
 66
1
 10
0.0000
 20
0.0000
 30
0.0000
 40
0.5000
 41
0.5000
 70
0
  0
VERTEX
  8
0
 10
0.0000
 20
-0.2500
 30
0.0000
 42
1.0000
  0
VERTEX
  8
0
 10
0.0000
 20
0.2500
 30
0.0000
 42
1.0000
  0
VERTEX
  8
0
 10
0.0000
 20
-0.2500
 30
0.0000
  0
SEQEND
  8
0
  0
ENDBLK
  8
0
  0
BLOCK
  8
0
  2
OCTAGONP
 70
64
 10
0.0000
 20
0.0000
 30
0.0000
  3
OCTAGONP
  0
POLYLINE
  8
0
 66
1
 10
0.0000
 20
0.0000
 30
0.0000
 40
0.5000
 41
0.5000
 70
0
  0
VERTEX
  8
0
 10
-0.2500
 20
-0.1036
 30
0.0000
  0
VERTEX
  8
0
 10
-0.2500
 20
0.1036
 30
0.0000
  0
VERTEX
  8
0
 10
-0.1036
 20
0.2500
 30
0.0000
  0
VERTEX
  8
0
 10
0.1036
 20
0.2500
 30
0.0000
  0
VERTEX
  8
0
 10
0.2500
 20
0.1036
 30
0.0000
  0
VERTEX
  8
0
 10
0.2500
 20
-0.1036
 30
0.0000
  0
VERTEX
  8
0
 10
0.1036
 20
-0.2500
 30
0.0000
  0
VERTEX
  8
0
 10
-0.1036
 20
-0.2500
 30
0.0000
  0
VERTEX
  8
0
 10
-0.2500
 20
-0.1036
 30
0.0000
  0
VERTEX
  8
0
 10
-0.2500
 20
0.1036
 30
0.0000
  0
SEQEND
  8
0
  0
ENDBLK
  8
0
  0
BLOCK
  8
0
  2
SQUAREP
 70
64
 10
0.0000
 20
0.0000
 30
0.0000
  3
SQUAREP
  0
SOLID
  8
0
 10
-0.5000
 20
-0.5000
 30
0.0000
 11
0.5000
 21
-0.5000
 31
0.0000
 12
-0.5000
 22
0.5000
 32
0.0000
 13
0.5000
 23
0.5000
 33
0.0000
  0
ENDBLK
  8
0
  0
BLOCK
  8
0
  2
ROUNDP
 70
64
 10
0.0000
 20
0.0000
 30
0.0000
  3
ROUNDP
  0
POLYLINE
  8
0
 66
1
 10
0.0000
 20
0.0000
 30
0.0000
 40
0.5000
 41
0.5000
 70
0
  0
VERTEX
  8
0
 10
0.0000
 20
-0.2500
 30
0.0000
 42
1.0000
  0
VERTEX
  8
0
 10
0.0000
 20
0.2500
 30
0.0000
 42
1.0000
  0
VERTEX
  8
0
 10
0.0000
 20
-0.2500
 30
0.0000
  0
SEQEND
  8
0
  0
ENDBLK
  8
0
  0
BLOCK
  8
0
  2
ANNULUSP
 70
64
 10
0.0000
 20
0.0000
 30
0.0000
  3
ANNULUSP
  0
POLYLINE
  8
0
 66
1
 10
0.0000
 20
0.0000
 30
0.0000
 40
0.5000
 41
0.5000
 70
0
  0
VERTEX
  8
0
 10
0.0000
 20
-0.2500
 30
0.0000
 42
1.0000
  0
VERTEX
  8
0
 10
0.0000
 20
0.2500
 30
0.0000
 42
1.0000
  0
VERTEX
  8
0
 10
0.0000
 20
-0.2500
 30
0.0000
  0
SEQEND
  8
0
  0
ENDBLK
  8
0
  0
BLOCK
  8
0
  2
THERMALP
 70
64
 10
0.0000
 20
0.0000
 30
0.0000
  3
THERMALP
  0
POLYLINE
  8
0
 66
1
 10
0.0000
 20
0.0000
 30
0.0000
 40
0.1000
 41
0.1000
 70
0
  0
VERTEX
  8
0
 10
-0.2379
 20
0.4500
 30
0.0000
  0
VERTEX
  8
0
 10
0.2379
 20
0.4500
 30
0.0000
  0
SEQEND
  8
0
  0
POLYLINE
  8
0
 66
1
 10
0.0000
 20
0.0000
 30
0.0000
 40
0.0500
 41
0.0500
 70
0
  0
VERTEX
  8
0
 10
0.2379
 20
0.4250
 30
0.0000
 42
1.0000
  0
VERTEX
  8
0
 10
0.2379
 20
0.4750
 30
0.0000
  0
SEQEND
  8
0
  0
POLYLINE
  8
0
 66
1
 10
0.0000
 20
0.0000
 30
0.0000
 40
0.0500
 41
0.0500
 70
0
  0
VERTEX
  8
0
 10
-0.2379
 20
0.4750
 30
0.0000
 42
1.0000
  0
VERTEX
  8
0
 10
-0.2379
 20
0.4250
 30
0.0000
  0
SEQEND
  8
0
  0
POLYLINE
  8
0
 66
1
 10
0.0000
 20
0.0000
 30
0.0000
 40
0.1000
 41
0.1000
 70
0
  0
VERTEX
  8
0
 10
0.4500
 20
0.2379
 30
0.0000
  0
VERTEX
  8
0
 10
0.4500
 20
-0.2379
 30
0.0000
  0
SEQEND
  8
0
  0
POLYLINE
  8
0
 66
1
 10
0.0000
 20
0.0000
 30
0.0000
 40
0.0500
 41
0.0500
 70
0
  0
VERTEX
  8
0
 10
0.4250
 20
-0.2379
 30
0.0000
 42
1.0000
  0
VERTEX
  8
0
 10
0.4750
 20
-0.2379
 30
0.0000
  0
SEQEND
  8
0
  0
POLYLINE
  8
0
 66
1
 10
0.0000
 20
0.0000
 30
0.0000
 40
0.0500
 41
0.0500
 70
0
  0
VERTEX
  8
0
 10
0.4750
 20
0.2379
 30
0.0000
 42
1.0000
  0
VERTEX
  8
0
 10
0.4250
 20
0.2379
 30
0.0000
  0
SEQEND
  8
0
  0
POLYLINE
  8
0
 66
1
 10
0.0000
 20
0.0000
 30
0.0000
 40
0.1000
 41
0.1000
 70
0
  0
VERTEX
  8
0
 10
0.2379
 20
-0.4500
 30
0.0000
  0
VERTEX
  8
0
 10
-0.2379
 20
-0.4500
 30
0.0000
  0
SEQEND
  8
0
  0
POLYLINE
  8
0
 66
1
 10
0.0000
 20
0.0000
 30
0.0000
 40
0.0500
 41
0.0500
 70
0
  0
VERTEX
  8
0
 10
-0.2379
 20
-0.4250
 30
0.0000
 42
1.0000
  0
VERTEX
  8
0
 10
-0.2379
 20
-0.4750
 30
0.0000
  0
SEQEND
  8
0
  0
POLYLINE
  8
0
 66
1
 10
0.0000
 20
0.0000
 30
0.0000
 40
0.0500
 41
0.0500
 70
0
  0
VERTEX
  8
0
 10
0.2379
 20
-0.4750
 30
0.0000
 42
1.0000
  0
VERTEX
  8
0
 10
0.2379
 20
-0.4250
 30
0.0000
  0
SEQEND
  8
0
  0
POLYLINE
  8
0
 66
1
 10
0.0000
 20
0.0000
 30
0.0000
 40
0.1000
 41
0.1000
 70
0
  0
VERTEX
  8
0
 10
-0.4500
 20
-0.2379
 30
0.0000
  0
VERTEX
  8
0
 10
-0.4500
 20
0.2379
 30
0.0000
  0
SEQEND
  8
0
  0
POLYLINE
  8
0
 66
1
 10
0.0000
 20
0.0000
 30
0.0000
 40
0.0500
 41
0.0500
 70
0
  0
VERTEX
  8
0
 10
-0.4250
 20
0.2379
 30
0.0000
 42
1.0000
  0
VERTEX
  8
0
 10
-0.4750
 20
0.2379
 30
0.0000
  0
SEQEND
  8
0
  0
POLYLINE
  8
0
 66
1
 10
0.0000
 20
0.0000
 30
0.0000
 40
0.0500
 41
0.0500
 70
0
  0
VERTEX
  8
0
 10
-0.4750
 20
-0.2379
 30
0.0000
 42
1.0000
  0
VERTEX
  8
0
 10
-0.4250
 20
-0.2379
 30
0.0000
  0
SEQEND
  8
0
  0
ENDBLK
  8
0
  0
BLOCK
  8
0
  2
OCTAGONV
 70
64
 10
0.0000
 20
0.0000
 30
0.0000
  3
OCTAGONV
  0
POLYLINE
  8
0
 66
1
 10
0.0000
 20
0.0000
 30
0.0000
 40
0.5000
 41
0.5000
 70
0
  0
VERTEX
  8
0
 10
-0.2500
 20
-0.1036
 30
0.0000
  0
VERTEX
  8
0
 10
-0.2500
 20
0.1036
 30
0.0000
  0
VERTEX
  8
0
 10
-0.1036
 20
0.2500
 30
0.0000
  0
VERTEX
  8
0
 10
0.1036
 20
0.2500
 30
0.0000
  0
VERTEX
  8
0
 10
0.2500
 20
0.1036
 30
0.0000
  0
VERTEX
  8
0
 10
0.2500
 20
-0.1036
 30
0.0000
  0
VERTEX
  8
0
 10
0.1036
 20
-0.2500
 30
0.0000
  0
VERTEX
  8
0
 10
-0.1036
 20
-0.2500
 30
0.0000
  0
VERTEX
  8
0
 10
-0.2500
 20
-0.1036
 30
0.0000
  0
VERTEX
  8
0
 10
-0.2500
 20
0.1036
 30
0.0000
  0
SEQEND
  8
0
  0
ENDBLK
  8
0
  0
BLOCK
  8
0
  2
SQUAREV
 70
64
 10
0.0000
 20
0.0000
 30
0.0000
  3
SQUAREV
  0
SOLID
  8
0
 10
-0.5000
 20
-0.5000
 30
0.0000
 11
0.5000
 21
-0.5000
 31
0.0000
 12
-0.5000
 22
0.5000
 32
0.0000
 13
0.5000
 23
0.5000
 33
0.0000
  0
ENDBLK
  8
0
  0
BLOCK
  8
0
  2
ROUNDV
 70
64
 10
0.0000
 20
0.0000
 30
0.0000
  3
ROUNDV
  0
POLYLINE
  8
0
 66
1
 10
0.0000
 20
0.0000
 30
0.0000
 40
0.5000
 41
0.5000
 70
0
  0
VERTEX
  8
0
 10
0.0000
 20
-0.2500
 30
0.0000
 42
1.0000
  0
VERTEX
  8
0
 10
0.0000
 20
0.2500
 30
0.0000
 42
1.0000
  0
VERTEX
  8
0
 10
0.0000
 20
-0.2500
 30
0.0000
  0
SEQEND
  8
0
  0
ENDBLK
  8
0
  0
BLOCK
  8
0
  2
ANNULUSV
 70
64
 10
0.0000
 20
0.0000
 30
0.0000
  3
ANNULUSV
  0
POLYLINE
  8
0
 66
1
 10
0.0000
 20
0.0000
 30
0.0000
 40
0.5000
 41
0.5000
 70
0
  0
VERTEX
  8
0
 10
0.0000
 20
-0.2500
 30
0.0000
 42
1.0000
  0
VERTEX
  8
0
 10
0.0000
 20
0.2500
 30
0.0000
 42
1.0000
  0
VERTEX
  8
0
 10
0.0000
 20
-0.2500
 30
0.0000
  0
SEQEND
  8
0
  0
ENDBLK
  8
0
  0
BLOCK
  8
0
  2
THERMALV
 70
64
 10
0.0000
 20
0.0000
 30
0.0000
  3
THERMALV
  0
POLYLINE
  8
0
 66
1
 10
0.0000
 20
0.0000
 30
0.0000
 40
0.1000
 41
0.1000
 70
0
  0
VERTEX
  8
0
 10
-0.2379
 20
0.4500
 30
0.0000
  0
VERTEX
  8
0
 10
0.2379
 20
0.4500
 30
0.0000
  0
SEQEND
  8
0
  0
POLYLINE
  8
0
 66
1
 10
0.0000
 20
0.0000
 30
0.0000
 40
0.0500
 41
0.0500
 70
0
  0
VERTEX
  8
0
 10
0.2379
 20
0.4250
 30
0.0000
 42
1.0000
  0
VERTEX
  8
0
 10
0.2379
 20
0.4750
 30
0.0000
  0
SEQEND
  8
0
  0
POLYLINE
  8
0
 66
1
 10
0.0000
 20
0.0000
 30
0.0000
 40
0.0500
 41
0.0500
 70
0
  0
VERTEX
  8
0
 10
-0.2379
 20
0.4750
 30
0.0000
 42
1.0000
  0
VERTEX
  8
0
 10
-0.2379
 20
0.4250
 30
0.0000
  0
SEQEND
  8
0
  0
POLYLINE
  8
0
 66
1
 10
0.0000
 20
0.0000
 30
0.0000
 40
0.1000
 41
0.1000
 70
0
  0
VERTEX
  8
0
 10
0.4500
 20
0.2379
 30
0.0000
  0
VERTEX
  8
0
 10
0.4500
 20
-0.2379
 30
0.0000
  0
SEQEND
  8
0
  0
POLYLINE
  8
0
 66
1
 10
0.0000
 20
0.0000
 30
0.0000
 40
0.0500
 41
0.0500
 70
0
  0
VERTEX
  8
0
 10
0.4250
 20
-0.2379
 30
0.0000
 42
1.0000
  0
VERTEX
  8
0
 10
0.4750
 20
-0.2379
 30
0.0000
  0
SEQEND
  8
0
  0
POLYLINE
  8
0
 66
1
 10
0.0000
 20
0.0000
 30
0.0000
 40
0.0500
 41
0.0500
 70
0
  0
VERTEX
  8
0
 10
0.4750
 20
0.2379
 30
0.0000
 42
1.0000
  0
VERTEX
  8
0
 10
0.4250
 20
0.2379
 30
0.0000
  0
SEQEND
  8
0
  0
POLYLINE
  8
0
 66
1
 10
0.0000
 20
0.0000
 30
0.0000
 40
0.1000
 41
0.1000
 70
0
  0
VERTEX
  8
0
 10
0.2379
 20
-0.4500
 30
0.0000
  0
VERTEX
  8
0
 10
-0.2379
 20
-0.4500
 30
0.0000
  0
SEQEND
  8
0
  0
POLYLINE
  8
0
 66
1
 10
0.0000
 20
0.0000
 30
0.0000
 40
0.0500
 41
0.0500
 70
0
  0
VERTEX
  8
0
 10
-0.2379
 20
-0.4250
 30
0.0000
 42
1.0000
  0
VERTEX
  8
0
 10
-0.2379
 20
-0.4750
 30
0.0000
  0
SEQEND
  8
0
  0
POLYLINE
  8
0
 66
1
 10
0.0000
 20
0.0000
 30
0.0000
 40
0.0500
 41
0.0500
 70
0
  0
VERTEX
  8
0
 10
0.2379
 20
-0.4750
 30
0.0000
 42
1.0000
  0
VERTEX
  8
0
 10
0.2379
 20
-0.4250
 30
0.0000
  0
SEQEND
  8
0
  0
POLYLINE
  8
0
 66
1
 10
0.0000
 20
0.0000
 30
0.0000
 40
0.1000
 41
0.1000
 70
0
  0
VERTEX
  8
0
 10
-0.4500
 20
-0.2379
 30
0.0000
  0
VERTEX
  8
0
 10
-0.4500
 20
0.2379
 30
0.0000
  0
SEQEND
  8
0
  0
POLYLINE
  8
0
 66
1
 10
0.0000
 20
0.0000
 30
0.0000
 40
0.0500
 41
0.0500
 70
0
  0
VERTEX
  8
0
 10
-0.4250
 20
0.2379
 30
0.0000
 42
1.0000
  0
VERTEX
  8
0
 10
-0.4750
 20
0.2379
 30
0.0000
  0
SEQEND
  8
0
  0
POLYLINE
  8
0
 66
1
 10
0.0000
 20
0.0000
 30
0.0000
 40
0.0500
 41
0.0500
 70
0
  0
VERTEX
  8
0
 10
-0.4750
 20
-0.2379
 30
0.0000
 42
1.0000
  0
VERTEX
  8
0
 10
-0.4250
 20
-0.2379
 30
0.0000
  0
SEQEND
  8
0
  0
ENDBLK
  8
0
  0
ENDSEC
  0
SECTION
  2
ENTITIES
  0
POLYLINE
  8
48
 66
1
 10
0.0000
 20
0.0000
 30
0.0000
 40
0.0100
 41
0.0100
 70
0
  0
VERTEX
  8
48
 10
39.1310
 20
70.9280
 30
0.0000
 42
0.4142
  0
VERTEX
  8
48
 10
43.1310
 20
74.9280
 30
0.0000
  0
SEQEND
  8
0
  0
POLYLINE
  8
48
 66
1
 10
0.0000
 20
0.0000
 30
0.0000
 40
0.0050
 41
0.0050
 70
0
  0
VERTEX
  8
48
 10
39.1310
 20
70.9305
 30
0.0000
 42
1.0000
  0
VERTEX
  8
48
 10
39.1310
 20
70.9255
 30
0.0000
  0
SEQEND
  8
0
  0
POLYLINE
  8
48
 66
1
 10
0.0000
 20
0.0000
 30
0.0000
 40
0.0050
 41
0.0050
 70
0
  0
VERTEX
  8
48
 10
43.1335
 20
74.9280
 30
0.0000
 42
1.0000
  0
VERTEX
  8
48
 10
43.1285
 20
74.9280
 30
0.0000
  0
SEQEND
  8
0
  0
POLYLINE
  8
48
 66
1
 10
0.0000
 20
0.0000
 30
0.0000
 40
0.0100
 41
0.0100
 70
0
  0
VERTEX
  8
48
 10
37.1310
 20
70.9280
 30
0.0000
  0
VERTEX
  8
48
 10
39.1310
 20
70.9280
 30
0.0000
  0
SEQEND
  8
0
  0
POLYLINE
  8
48
 66
1
 10
0.0000
 20
0.0000
 30
0.0000
 40
0.0050
 41
0.0050
 70
0
  0
VERTEX
  8
48
 10
39.1310
 20
70.9255
 30
0.0000
 42
1.0000
  0
VERTEX
  8
48
 10
39.1310
 20
70.9305
 30
0.0000
  0
SEQEND
  8
0
  0
POLYLINE
  8
48
 66
1
 10
0.0000
 20
0.0000
 30
0.0000
 40
0.0050
 41
0.0050
 70
0
  0
VERTEX
  8
48
 10
37.1310
 20
70.9305
 30
0.0000
 42
1.0000
  0
VERTEX
  8
48
 10
37.1310
 20
70.9255
 30
0.0000
  0
SEQEND
  8
0
  0
POLYLINE
  8
48
 66
1
 10
0.0000
 20
0.0000
 30
0.0000
 40
0.0100
 41
0.0100
 70
0
  0
VERTEX
  8
48
 10
33.1310
 20
76.1190
 30
0.0000
 42
0.4142
  0
VERTEX
  8
48
 10
37.1310
 20
70.9280
 30
0.0000
  0
SEQEND
  8
0
  0
POLYLINE
  8
48
 66
1
 10
0.0000
 20
0.0000
 30
0.0000
 40
0.0050
 41
0.0050
 70
0
  0
VERTEX
  8
48
 10
33.1335
 20
76.1187
 30
0.0000
 42
1.0000
  0
VERTEX
  8
48
 10
33.1285
 20
76.1193
 30
0.0000
  0
SEQEND
  8
0
  0
POLYLINE
  8
48
 66
1
 10
0.0000
 20
0.0000
 30
0.0000
 40
0.0050
 41
0.0050
 70
0
  0
VERTEX
  8
48
 10
37.1307
 20
70.9255
 30
0.0000
 42
1.0000
  0
VERTEX
  8
48
 10
37.1313
 20
70.9305
 30
0.0000
  0
SEQEND
  8
0
  0
POLYLINE
  8
48
 66
1
 10
0.0000
 20
0.0000
 30
0.0000
 40
0.0100
 41
0.0100
 70
0
  0
VERTEX
  8
48
 10
33.1310
 20
84.1190
 30
0.0000
  0
VERTEX
  8
48
 10
33.1310
 20
76.1190
 30
0.0000
  0
SEQEND
  8
0
  0
POLYLINE
  8
48
 66
1
 10
0.0000
 20
0.0000
 30
0.0000
 40
0.0050
 41
0.0050
 70
0
  0
VERTEX
  8
48
 10
33.1285
 20
76.1190
 30
0.0000
 42
1.0000
  0
VERTEX
  8
48
 10
33.1335
 20
76.1190
 30
0.0000
  0
SEQEND
  8
0
  0
POLYLINE
  8
48
 66
1
 10
0.0000
 20
0.0000
 30
0.0000
 40
0.0050
 41
0.0050
 70
0
  0
VERTEX
  8
48
 10
33.1335
 20
84.1190
 30
0.0000
 42
1.0000
  0
VERTEX
  8
48
 10
33.1285
 20
84.1190
 30
0.0000
  0
SEQEND
  8
0
  0
POLYLINE
  8
48
 66
1
 10
0.0000
 20
0.0000
 30
0.0000
 40
0.0100
 41
0.0100
 70
0
  0
VERTEX
  8
48
 10
37.1310
 20
86.9280
 30
0.0000
 42
0.4142
  0
VERTEX
  8
48
 10
33.1310
 20
84.1190
 30
0.0000
  0
SEQEND
  8
0
  0
POLYLINE
  8
48
 66
1
 10
0.0000
 20
0.0000
 30
0.0000
 40
0.0050
 41
0.0050
 70
0
  0
VERTEX
  8
48
 10
37.1306
 20
86.9255
 30
0.0000
 42
1.0000
  0
VERTEX
  8
48
 10
37.1314
 20
86.9305
 30
0.0000
  0
SEQEND
  8
0
  0
POLYLINE
  8
48
 66
1
 10
0.0000
 20
0.0000
 30
0.0000
 40
0.0050
 41
0.0050
 70
0
  0
VERTEX
  8
48
 10
33.1285
 20
84.1194
 30
0.0000
 42
1.0000
  0
VERTEX
  8
48
 10
33.1335
 20
84.1186
 30
0.0000
  0
SEQEND
  8
0
  0
POLYLINE
  8
48
 66
1
 10
0.0000
 20
0.0000
 30
0.0000
 40
0.0100
 41
0.0100
 70
0
  0
VERTEX
  8
48
 10
39.1310
 20
86.9280
 30
0.0000
  0
VERTEX
  8
48
 10
37.1310
 20
86.9280
 30
0.0000
  0
SEQEND
  8
0
  0
POLYLINE
  8
48
 66
1
 10
0.0000
 20
0.0000
 30
0.0000
 40
0.0050
 41
0.0050
 70
0
  0
VERTEX
  8
48
 10
37.1310
 20
86.9305
 30
0.0000
 42
1.0000
  0
VERTEX
  8
48
 10
37.1310
 20
86.9255
 30
0.0000
  0
SEQEND
  8
0
  0
POLYLINE
  8
48
 66
1
 10
0.0000
 20
0.0000
 30
0.0000
 40
0.0050
 41
0.0050
 70
0
  0
VERTEX
  8
48
 10
39.1310
 20
86.9255
 30
0.0000
 42
1.0000
  0
VERTEX
  8
48
 10
39.1310
 20
86.9305
 30
0.0000
  0
SEQEND
  8
0
  0
POLYLINE
  8
48
 66
1
 10
0.0000
 20
0.0000
 30
0.0000
 40
0.0100
 41
0.0100
 70
0
  0
VERTEX
  8
48
 10
43.1310
 20
82.9280
 30
0.0000
 42
0.4142
  0
VERTEX
  8
48
 10
39.1310
 20
86.9280
 30
0.0000
  0
SEQEND
  8
0
  0
POLYLINE
  8
48
 66
1
 10
0.0000
 20
0.0000
 30
0.0000
 40
0.0050
 41
0.0050
 70
0
  0
VERTEX
  8
48
 10
43.1285
 20
82.9280
 30
0.0000
 42
1.0000
  0
VERTEX
  8
48
 10
43.1335
 20
82.9280
 30
0.0000
  0
SEQEND
  8
0
  0
POLYLINE
  8
48
 66
1
 10
0.0000
 20
0.0000
 30
0.0000
 40
0.0050
 41
0.0050
 70
0
  0
VERTEX
  8
48
 10
39.1310
 20
86.9305
 30
0.0000
 42
1.0000
  0
VERTEX
  8
48
 10
39.1310
 20
86.9255
 30
0.0000
  0
SEQEND
  8
0
  0
POLYLINE
  8
48
 66
1
 10
0.0000
 20
0.0000
 30
0.0000
 40
0.0100
 41
0.0100
 70
0
  0
VERTEX
  8
48
 10
43.1310
 20
74.9280
 30
0.0000
  0
VERTEX
  8
48
 10
43.1310
 20
82.9280
 30
0.0000
  0
SEQEND
  8
0
  0
POLYLINE
  8
48
 66
1
 10
0.0000
 20
0.0000
 30
0.0000
 40
0.0050
 41
0.0050
 70
0
  0
VERTEX
  8
48
 10
43.1335
 20
82.9280
 30
0.0000
 42
1.0000
  0
VERTEX
  8
48
 10
43.1285
 20
82.9280
 30
0.0000
  0
SEQEND
  8
0
  0
POLYLINE
  8
48
 66
1
 10
0.0000
 20
0.0000
 30
0.0000
 40
0.0050
 41
0.0050
 70
0
  0
VERTEX
  8
48
 10
43.1285
 20
74.9280
 30
0.0000
 42
1.0000
  0
VERTEX
  8
48
 10
43.1335
 20
74.9280
 30
0.0000
  0
SEQEND
  8
0
  0
POLYLINE
  8
48
 66
1
 10
0.0000
 20
0.0000
 30
0.0000
 40
0.0100
 41
0.0100
 70
0
  0
VERTEX
  8
48
 10
39.1310
 20
46.9280
 30
0.0000
  0
VERTEX
  8
48
 10
37.1310
 20
46.9280
 30
0.0000
  0
SEQEND
  8
0
  0
POLYLINE
  8
48
 66
1
 10
0.0000
 20
0.0000
 30
0.0000
 40
0.0050
 41
0.0050
 70
0
  0
VERTEX
  8
48
 10
37.1310
 20
46.9305
 30
0.0000
 42
1.0000
  0
VERTEX
  8
48
 10
37.1310
 20
46.9255
 30
0.0000
  0
SEQEND
  8
0
  0
POLYLINE
  8
48
 66
1
 10
0.0000
 20
0.0000
 30
0.0000
 40
0.0050
 41
0.0050
 70
0
  0
VERTEX
  8
48
 10
39.1310
 20
46.9255
 30
0.0000
 42
1.0000
  0
VERTEX
  8
48
 10
39.1310
 20
46.9305
 30
0.0000
  0
SEQEND
  8
0
  0
POLYLINE
  8
48
 66
1
 10
0.0000
 20
0.0000
 30
0.0000
 40
0.0100
 41
0.0100
 70
0
  0
VERTEX
  8
48
 10
37.1310
 20
46.9280
 30
0.0000
 42
0.4142
  0
VERTEX
  8
48
 10
33.1310
 20
42.9280
 30
0.0000
  0
SEQEND
  8
0
  0
POLYLINE
  8
48
 66
1
 10
0.0000
 20
0.0000
 30
0.0000
 40
0.0050
 41
0.0050
 70
0
  0
VERTEX
  8
48
 10
37.1310
 20
46.9255
 30
0.0000
 42
1.0000
  0
VERTEX
  8
48
 10
37.1310
 20
46.9305
 30
0.0000
  0
SEQEND
  8
0
  0
POLYLINE
  8
48
 66
1
 10
0.0000
 20
0.0000
 30
0.0000
 40
0.0050
 41
0.0050
 70
0
  0
VERTEX
  8
48
 10
33.1285
 20
42.9280
 30
0.0000
 42
1.0000
  0
VERTEX
  8
48
 10
33.1335
 20
42.9280
 30
0.0000
  0
SEQEND
  8
0
  0
POLYLINE
  8
48
 66
1
 10
0.0000
 20
0.0000
 30
0.0000
 40
0.0100
 41
0.0100
 70
0
  0
VERTEX
  8
48
 10
33.1310
 20
42.9280
 30
0.0000
  0
VERTEX
  8
48
 10
33.1310
 20
34.9280
 30
0.0000
  0
SEQEND
  8
0
  0
POLYLINE
  8
48
 66
1
 10
0.0000
 20
0.0000
 30
0.0000
 40
0.0050
 41
0.0050
 70
0
  0
VERTEX
  8
48
 10
33.1285
 20
34.9280
 30
0.0000
 42
1.0000
  0
VERTEX
  8
48
 10
33.1335
 20
34.9280
 30
0.0000
  0
SEQEND
  8
0
  0
POLYLINE
  8
48
 66
1
 10
0.0000
 20
0.0000
 30
0.0000
 40
0.0050
 41
0.0050
 70
0
  0
VERTEX
  8
48
 10
33.1335
 20
42.9280
 30
0.0000
 42
1.0000
  0
VERTEX
  8
48
 10
33.1285
 20
42.9280
 30
0.0000
  0
SEQEND
  8
0
  0
POLYLINE
  8
48
 66
1
 10
0.0000
 20
0.0000
 30
0.0000
 40
0.0100
 41
0.0100
 70
0
  0
VERTEX
  8
48
 10
33.1310
 20
34.9280
 30
0.0000
 42
0.4142
  0
VERTEX
  8
48
 10
37.1310
 20
30.9280
 30
0.0000
  0
SEQEND
  8
0
  0
POLYLINE
  8
48
 66
1
 10
0.0000
 20
0.0000
 30
0.0000
 40
0.0050
 41
0.0050
 70
0
  0
VERTEX
  8
48
 10
33.1335
 20
34.9280
 30
0.0000
 42
1.0000
  0
VERTEX
  8
48
 10
33.1285
 20
34.9280
 30
0.0000
  0
SEQEND
  8
0
  0
POLYLINE
  8
48
 66
1
 10
0.0000
 20
0.0000
 30
0.0000
 40
0.0050
 41
0.0050
 70
0
  0
VERTEX
  8
48
 10
37.1310
 20
30.9255
 30
0.0000
 42
1.0000
  0
VERTEX
  8
48
 10
37.1310
 20
30.9305
 30
0.0000
  0
SEQEND
  8
0
  0
POLYLINE
  8
48
 66
1
 10
0.0000
 20
0.0000
 30
0.0000
 40
0.0100
 41
0.0100
 70
0
  0
VERTEX
  8
48
 10
37.1310
 20
30.9280
 30
0.0000
  0
VERTEX
  8
48
 10
39.1310
 20
30.9280
 30
0.0000
  0
SEQEND
  8
0
  0
POLYLINE
  8
48
 66
1
 10
0.0000
 20
0.0000
 30
0.0000
 40
0.0050
 41
0.0050
 70
0
  0
VERTEX
  8
48
 10
39.1310
 20
30.9255
 30
0.0000
 42
1.0000
  0
VERTEX
  8
48
 10
39.1310
 20
30.9305
 30
0.0000
  0
SEQEND
  8
0
  0
POLYLINE
  8
48
 66
1
 10
0.0000
 20
0.0000
 30
0.0000
 40
0.0050
 41
0.0050
 70
0
  0
VERTEX
  8
48
 10
37.1310
 20
30.9305
 30
0.0000
 42
1.0000
  0
VERTEX
  8
48
 10
37.1310
 20
30.9255
 30
0.0000
  0
SEQEND
  8
0
  0
POLYLINE
  8
48
 66
1
 10
0.0000
 20
0.0000
 30
0.0000
 40
0.0100
 41
0.0100
 70
0
  0
VERTEX
  8
48
 10
39.1310
 20
30.9280
 30
0.0000
 42
0.4142
  0
VERTEX
  8
48
 10
43.1310
 20
34.9280
 30
0.0000
  0
SEQEND
  8
0
  0
POLYLINE
  8
48
 66
1
 10
0.0000
 20
0.0000
 30
0.0000
 40
0.0050
 41
0.0050
 70
0
  0
VERTEX
  8
48
 10
39.1310
 20
30.9305
 30
0.0000
 42
1.0000
  0
VERTEX
  8
48
 10
39.1310
 20
30.9255
 30
0.0000
  0
SEQEND
  8
0
  0
POLYLINE
  8
48
 66
1
 10
0.0000
 20
0.0000
 30
0.0000
 40
0.0050
 41
0.0050
 70
0
  0
VERTEX
  8
48
 10
43.1335
 20
34.9280
 30
0.0000
 42
1.0000
  0
VERTEX
  8
48
 10
43.1285
 20
34.9280
 30
0.0000
  0
SEQEND
  8
0
  0
POLYLINE
  8
48
 66
1
 10
0.0000
 20
0.0000
 30
0.0000
 40
0.0100
 41
0.0100
 70
0
  0
VERTEX
  8
48
 10
43.1310
 20
34.9280
 30
0.0000
  0
VERTEX
  8
48
 10
43.1310
 20
42.9280
 30
0.0000
  0
SEQEND
  8
0
  0
POLYLINE
  8
48
 66
1
 10
0.0000
 20
0.0000
 30
0.0000
 40
0.0050
 41
0.0050
 70
0
  0
VERTEX
  8
48
 10
43.1335
 20
42.9280
 30
0.0000
 42
1.0000
  0
VERTEX
  8
48
 10
43.1285
 20
42.9280
 30
0.0000
  0
SEQEND
  8
0
  0
POLYLINE
  8
48
 66
1
 10
0.0000
 20
0.0000
 30
0.0000
 40
0.0050
 41
0.0050
 70
0
  0
VERTEX
  8
48
 10
43.1285
 20
34.9280
 30
0.0000
 42
1.0000
  0
VERTEX
  8
48
 10
43.1335
 20
34.9280
 30
0.0000
  0
SEQEND
  8
0
  0
POLYLINE
  8
48
 66
1
 10
0.0000
 20
0.0000
 30
0.0000
 40
0.0100
 41
0.0100
 70
0
  0
VERTEX
  8
48
 10
43.1310
 20
42.9280
 30
0.0000
 42
0.4142
  0
VERTEX
  8
48
 10
39.1310
 20
46.9280
 30
0.0000
  0
SEQEND
  8
0
  0
POLYLINE
  8
48
 66
1
 10
0.0000
 20
0.0000
 30
0.0000
 40
0.0050
 41
0.0050
 70
0
  0
VERTEX
  8
48
 10
43.1285
 20
42.9280
 30
0.0000
 42
1.0000
  0
VERTEX
  8
48
 10
43.1335
 20
42.9280
 30
0.0000
  0
SEQEND
  8
0
  0
POLYLINE
  8
48
 66
1
 10
0.0000
 20
0.0000
 30
0.0000
 40
0.0050
 41
0.0050
 70
0
  0
VERTEX
  8
48
 10
39.1310
 20
46.9305
 30
0.0000
 42
1.0000
  0
VERTEX
  8
48
 10
39.1310
 20
46.9255
 30
0.0000
  0
SEQEND
  8
0
  0
POLYLINE
  8
48
 66
1
 10
0.0000
 20
0.0000
 30
0.0000
 40
0.0100
 41
0.0100
 70
0
  0
VERTEX
  8
48
 10
37.1310
 20
126.9280
 30
0.0000
 42
0.4142
  0
VERTEX
  8
48
 10
33.1310
 20
122.9280
 30
0.0000
  0
SEQEND
  8
0
  0
POLYLINE
  8
48
 66
1
 10
0.0000
 20
0.0000
 30
0.0000
 40
0.0050
 41
0.0050
 70
0
  0
VERTEX
  8
48
 10
37.1310
 20
126.9255
 30
0.0000
 42
1.0000
  0
VERTEX
  8
48
 10
37.1310
 20
126.9305
 30
0.0000
  0
SEQEND
  8
0
  0
POLYLINE
  8
48
 66
1
 10
0.0000
 20
0.0000
 30
0.0000
 40
0.0050
 41
0.0050
 70
0
  0
VERTEX
  8
48
 10
33.1285
 20
122.9280
 30
0.0000
 42
1.0000
  0
VERTEX
  8
48
 10
33.1335
 20
122.9280
 30
0.0000
  0
SEQEND
  8
0
  0
POLYLINE
  8
48
 66
1
 10
0.0000
 20
0.0000
 30
0.0000
 40
0.0100
 41
0.0100
 70
0
  0
VERTEX
  8
48
 10
33.1310
 20
122.9280
 30
0.0000
  0
VERTEX
  8
48
 10
33.1310
 20
114.9280
 30
0.0000
  0
SEQEND
  8
0
  0
POLYLINE
  8
48
 66
1
 10
0.0000
 20
0.0000
 30
0.0000
 40
0.0050
 41
0.0050
 70
0
  0
VERTEX
  8
48
 10
33.1285
 20
114.9280
 30
0.0000
 42
1.0000
  0
VERTEX
  8
48
 10
33.1335
 20
114.9280
 30
0.0000
  0
SEQEND
  8
0
  0
POLYLINE
  8
48
 66
1
 10
0.0000
 20
0.0000
 30
0.0000
 40
0.0050
 41
0.0050
 70
0
  0
VERTEX
  8
48
 10
33.1335
 20
122.9280
 30
0.0000
 42
1.0000
  0
VERTEX
  8
48
 10
33.1285
 20
122.9280
 30
0.0000
  0
SEQEND
  8
0
  0
POLYLINE
  8
48
 66
1
 10
0.0000
 20
0.0000
 30
0.0000
 40
0.0100
 41
0.0100
 70
0
  0
VERTEX
  8
48
 10
33.1310
 20
114.9280
 30
0.0000
 42
0.4142
  0
VERTEX
  8
48
 10
37.1310
 20
110.9280
 30
0.0000
  0
SEQEND
  8
0
  0
POLYLINE
  8
48
 66
1
 10
0.0000
 20
0.0000
 30
0.0000
 40
0.0050
 41
0.0050
 70
0
  0
VERTEX
  8
48
 10
33.1335
 20
114.9280
 30
0.0000
 42
1.0000
  0
VERTEX
  8
48
 10
33.1285
 20
114.9280
 30
0.0000
  0
SEQEND
  8
0
  0
POLYLINE
  8
48
 66
1
 10
0.0000
 20
0.0000
 30
0.0000
 40
0.0050
 41
0.0050
 70
0
  0
VERTEX
  8
48
 10
37.1310
 20
110.9255
 30
0.0000
 42
1.0000
  0
VERTEX
  8
48
 10
37.1310
 20
110.9305
 30
0.0000
  0
SEQEND
  8
0
  0
POLYLINE
  8
48
 66
1
 10
0.0000
 20
0.0000
 30
0.0000
 40
0.0100
 41
0.0100
 70
0
  0
VERTEX
  8
48
 10
37.1310
 20
110.9280
 30
0.0000
  0
VERTEX
  8
48
 10
39.1310
 20
110.9280
 30
0.0000
  0
SEQEND
  8
0
  0
POLYLINE
  8
48
 66
1
 10
0.0000
 20
0.0000
 30
0.0000
 40
0.0050
 41
0.0050
 70
0
  0
VERTEX
  8
48
 10
39.1310
 20
110.9255
 30
0.0000
 42
1.0000
  0
VERTEX
  8
48
 10
39.1310
 20
110.9305
 30
0.0000
  0
SEQEND
  8
0
  0
POLYLINE
  8
48
 66
1
 10
0.0000
 20
0.0000
 30
0.0000
 40
0.0050
 41
0.0050
 70
0
  0
VERTEX
  8
48
 10
37.1310
 20
110.9305
 30
0.0000
 42
1.0000
  0
VERTEX
  8
48
 10
37.1310
 20
110.9255
 30
0.0000
  0
SEQEND
  8
0
  0
POLYLINE
  8
48
 66
1
 10
0.0000
 20
0.0000
 30
0.0000
 40
0.0100
 41
0.0100
 70
0
  0
VERTEX
  8
48
 10
39.1310
 20
110.9280
 30
0.0000
 42
0.4142
  0
VERTEX
  8
48
 10
43.1310
 20
114.9280
 30
0.0000
  0
SEQEND
  8
0
  0
POLYLINE
  8
48
 66
1
 10
0.0000
 20
0.0000
 30
0.0000
 40
0.0050
 41
0.0050
 70
0
  0
VERTEX
  8
48
 10
39.1310
 20
110.9305
 30
0.0000
 42
1.0000
  0
VERTEX
  8
48
 10
39.1310
 20
110.9255
 30
0.0000
  0
SEQEND
  8
0
  0
POLYLINE
  8
48
 66
1
 10
0.0000
 20
0.0000
 30
0.0000
 40
0.0050
 41
0.0050
 70
0
  0
VERTEX
  8
48
 10
43.1335
 20
114.9280
 30
0.0000
 42
1.0000
  0
VERTEX
  8
48
 10
43.1285
 20
114.9280
 30
0.0000
  0
SEQEND
  8
0
  0
POLYLINE
  8
48
 66
1
 10
0.0000
 20
0.0000
 30
0.0000
 40
0.0100
 41
0.0100
 70
0
  0
VERTEX
  8
48
 10
43.1310
 20
114.9280
 30
0.0000
  0
VERTEX
  8
48
 10
43.1310
 20
122.9280
 30
0.0000
  0
SEQEND
  8
0
  0
POLYLINE
  8
48
 66
1
 10
0.0000
 20
0.0000
 30
0.0000
 40
0.0050
 41
0.0050
 70
0
  0
VERTEX
  8
48
 10
43.1335
 20
122.9280
 30
0.0000
 42
1.0000
  0
VERTEX
  8
48
 10
43.1285
 20
122.9280
 30
0.0000
  0
SEQEND
  8
0
  0
POLYLINE
  8
48
 66
1
 10
0.0000
 20
0.0000
 30
0.0000
 40
0.0050
 41
0.0050
 70
0
  0
VERTEX
  8
48
 10
43.1285
 20
114.9280
 30
0.0000
 42
1.0000
  0
VERTEX
  8
48
 10
43.1335
 20
114.9280
 30
0.0000
  0
SEQEND
  8
0
  0
POLYLINE
  8
48
 66
1
 10
0.0000
 20
0.0000
 30
0.0000
 40
0.0100
 41
0.0100
 70
0
  0
VERTEX
  8
48
 10
43.1310
 20
122.9280
 30
0.0000
 42
0.4142
  0
VERTEX
  8
48
 10
39.1310
 20
126.9280
 30
0.0000
  0
SEQEND
  8
0
  0
POLYLINE
  8
48
 66
1
 10
0.0000
 20
0.0000
 30
0.0000
 40
0.0050
 41
0.0050
 70
0
  0
VERTEX
  8
48
 10
43.1285
 20
122.9280
 30
0.0000
 42
1.0000
  0
VERTEX
  8
48
 10
43.1335
 20
122.9280
 30
0.0000
  0
SEQEND
  8
0
  0
POLYLINE
  8
48
 66
1
 10
0.0000
 20
0.0000
 30
0.0000
 40
0.0050
 41
0.0050
 70
0
  0
VERTEX
  8
48
 10
39.1310
 20
126.9305
 30
0.0000
 42
1.0000
  0
VERTEX
  8
48
 10
39.1310
 20
126.9255
 30
0.0000
  0
SEQEND
  8
0
  0
POLYLINE
  8
48
 66
1
 10
0.0000
 20
0.0000
 30
0.0000
 40
0.0100
 41
0.0100
 70
0
  0
VERTEX
  8
48
 10
39.1310
 20
126.9280
 30
0.0000
  0
VERTEX
  8
48
 10
37.1310
 20
126.9280
 30
0.0000
  0
SEQEND
  8
0
  0
POLYLINE
  8
48
 66
1
 10
0.0000
 20
0.0000
 30
0.0000
 40
0.0050
 41
0.0050
 70
0
  0
VERTEX
  8
48
 10
37.1310
 20
126.9305
 30
0.0000
 42
1.0000
  0
VERTEX
  8
48
 10
37.1310
 20
126.9255
 30
0.0000
  0
SEQEND
  8
0
  0
POLYLINE
  8
48
 66
1
 10
0.0000
 20
0.0000
 30
0.0000
 40
0.0050
 41
0.0050
 70
0
  0
VERTEX
  8
48
 10
39.1310
 20
126.9255
 30
0.0000
 42
1.0000
  0
VERTEX
  8
48
 10
39.1310
 20
126.9305
 30
0.0000
  0
SEQEND
  8
0
  0
POLYLINE
  8
48
 66
1
 10
0.0000
 20
0.0000
 30
0.0000
 40
0.0100
 41
0.0100
 70
0
  0
VERTEX
  8
48
 10
38.1310
 20
156.9280
 30
0.0000
  0
VERTEX
  8
48
 10
80.1310
 20
156.9280
 30
0.0000
  0
SEQEND
  8
0
  0
POLYLINE
  8
48
 66
1
 10
0.0000
 20
0.0000
 30
0.0000
 40
0.0050
 41
0.0050
 70
0
  0
VERTEX
  8
48
 10
80.1310
 20
156.9255
 30
0.0000
 42
1.0000
  0
VERTEX
  8
48
 10
80.1310
 20
156.9305
 30
0.0000
  0
SEQEND
  8
0
  0
POLYLINE
  8
48
 66
1
 10
0.0000
 20
0.0000
 30
0.0000
 40
0.0050
 41
0.0050
 70
0
  0
VERTEX
  8
48
 10
38.1310
 20
156.9305
 30
0.0000
 42
1.0000
  0
VERTEX
  8
48
 10
38.1310
 20
156.9255
 30
0.0000
  0
SEQEND
  8
0
  0
POLYLINE
  8
48
 66
1
 10
0.0000
 20
0.0000
 30
0.0000
 40
0.0100
 41
0.0100
 70
0
  0
VERTEX
  8
48
 10
80.1310
 20
156.9280
 30
0.0000
  0
VERTEX
  8
48
 10
80.1310
 20
78.9280
 30
0.0000
  0
SEQEND
  8
0
  0
POLYLINE
  8
48
 66
1
 10
0.0000
 20
0.0000
 30
0.0000
 40
0.0050
 41
0.0050
 70
0
  0
VERTEX
  8
48
 10
80.1285
 20
78.9280
 30
0.0000
 42
1.0000
  0
VERTEX
  8
48
 10
80.1335
 20
78.9280
 30
0.0000
  0
SEQEND
  8
0
  0
POLYLINE
  8
48
 66
1
 10
0.0000
 20
0.0000
 30
0.0000
 40
0.0050
 41
0.0050
 70
0
  0
VERTEX
  8
48
 10
80.1335
 20
156.9280
 30
0.0000
 42
1.0000
  0
VERTEX
  8
48
 10
80.1285
 20
156.9280
 30
0.0000
  0
SEQEND
  8
0
  0
POLYLINE
  8
48
 66
1
 10
0.0000
 20
0.0000
 30
0.0000
 40
0.0100
 41
0.0100
 70
0
  0
VERTEX
  8
48
 10
80.1310
 20
78.9280
 30
0.0000
  0
VERTEX
  8
48
 10
76.1310
 20
78.9280
 30
0.0000
  0
SEQEND
  8
0
  0
POLYLINE
  8
48
 66
1
 10
0.0000
 20
0.0000
 30
0.0000
 40
0.0050
 41
0.0050
 70
0
  0
VERTEX
  8
48
 10
76.1310
 20
78.9305
 30
0.0000
 42
1.0000
  0
VERTEX
  8
48
 10
76.1310
 20
78.9255
 30
0.0000
  0
SEQEND
  8
0
  0
POLYLINE
  8
48
 66
1
 10
0.0000
 20
0.0000
 30
0.0000
 40
0.0050
 41
0.0050
 70
0
  0
VERTEX
  8
48
 10
80.1310
 20
78.9255
 30
0.0000
 42
1.0000
  0
VERTEX
  8
48
 10
80.1310
 20
78.9305
 30
0.0000
  0
SEQEND
  8
0
  0
POLYLINE
  8
48
 66
1
 10
0.0000
 20
0.0000
 30
0.0000
 40
0.0100
 41
0.0100
 70
0
  0
VERTEX
  8
48
 10
76.1310
 20
78.9280
 30
0.0000
  0
VERTEX
  8
48
 10
76.1310
 20
-3.0720
 30
0.0000
  0
SEQEND
  8
0
  0
POLYLINE
  8
48
 66
1
 10
0.0000
 20
0.0000
 30
0.0000
 40
0.0050
 41
0.0050
 70
0
  0
VERTEX
  8
48
 10
76.1285
 20
-3.0720
 30
0.0000
 42
1.0000
  0
VERTEX
  8
48
 10
76.1335
 20
-3.0720
 30
0.0000
  0
SEQEND
  8
0
  0
POLYLINE
  8
48
 66
1
 10
0.0000
 20
0.0000
 30
0.0000
 40
0.0050
 41
0.0050
 70
0
  0
VERTEX
  8
48
 10
76.1335
 20
78.9280
 30
0.0000
 42
1.0000
  0
VERTEX
  8
48
 10
76.1285
 20
78.9280
 30
0.0000
  0
SEQEND
  8
0
  0
POLYLINE
  8
48
 66
1
 10
0.0000
 20
0.0000
 30
0.0000
 40
0.0100
 41
0.0100
 70
0
  0
VERTEX
  8
48
 10
76.1310
 20
-3.0720
 30
0.0000
  0
VERTEX
  8
48
 10
38.1310
 20
-3.0720
 30
0.0000
  0
SEQEND
  8
0
  0
POLYLINE
  8
48
 66
1
 10
0.0000
 20
0.0000
 30
0.0000
 40
0.0050
 41
0.0050
 70
0
  0
VERTEX
  8
48
 10
38.1310
 20
-3.0695
 30
0.0000
 42
1.0000
  0
VERTEX
  8
48
 10
38.1310
 20
-3.0745
 30
0.0000
  0
SEQEND
  8
0
  0
POLYLINE
  8
48
 66
1
 10
0.0000
 20
0.0000
 30
0.0000
 40
0.0050
 41
0.0050
 70
0
  0
VERTEX
  8
48
 10
76.1310
 20
-3.0745
 30
0.0000
 42
1.0000
  0
VERTEX
  8
48
 10
76.1310
 20
-3.0695
 30
0.0000
  0
SEQEND
  8
0
  0
POLYLINE
  8
48
 66
1
 10
0.0000
 20
0.0000
 30
0.0000
 40
0.0100
 41
0.0100
 70
0
  0
VERTEX
  8
48
 10
38.1310
 20
-3.0720
 30
0.0000
  0
VERTEX
  8
48
 10
38.1310
 20
0.9280
 30
0.0000
  0
SEQEND
  8
0
  0
POLYLINE
  8
48
 66
1
 10
0.0000
 20
0.0000
 30
0.0000
 40
0.0050
 41
0.0050
 70
0
  0
VERTEX
  8
48
 10
38.1335
 20
0.9280
 30
0.0000
 42
1.0000
  0
VERTEX
  8
48
 10
38.1285
 20
0.9280
 30
0.0000
  0
SEQEND
  8
0
  0
POLYLINE
  8
48
 66
1
 10
0.0000
 20
0.0000
 30
0.0000
 40
0.0050
 41
0.0050
 70
0
  0
VERTEX
  8
48
 10
38.1285
 20
-3.0720
 30
0.0000
 42
1.0000
  0
VERTEX
  8
48
 10
38.1335
 20
-3.0720
 30
0.0000
  0
SEQEND
  8
0
  0
POLYLINE
  8
48
 66
1
 10
0.0000
 20
0.0000
 30
0.0000
 40
0.0100
 41
0.0100
 70
0
  0
VERTEX
  8
48
 10
38.1310
 20
0.9280
 30
0.0000
  0
VERTEX
  8
48
 10
-3.8690
 20
0.9280
 30
0.0000
  0
SEQEND
  8
0
  0
POLYLINE
  8
48
 66
1
 10
0.0000
 20
0.0000
 30
0.0000
 40
0.0050
 41
0.0050
 70
0
  0
VERTEX
  8
48
 10
-3.8690
 20
0.9305
 30
0.0000
 42
1.0000
  0
VERTEX
  8
48
 10
-3.8690
 20
0.9255
 30
0.0000
  0
SEQEND
  8
0
  0
POLYLINE
  8
48
 66
1
 10
0.0000
 20
0.0000
 30
0.0000
 40
0.0050
 41
0.0050
 70
0
  0
VERTEX
  8
48
 10
38.1310
 20
0.9255
 30
0.0000
 42
1.0000
  0
VERTEX
  8
48
 10
38.1310
 20
0.9305
 30
0.0000
  0
SEQEND
  8
0
  0
POLYLINE
  8
48
 66
1
 10
0.0000
 20
0.0000
 30
0.0000
 40
0.0100
 41
0.0100
 70
0
  0
VERTEX
  8
48
 10
-3.8690
 20
0.9280
 30
0.0000
  0
VERTEX
  8
48
 10
-3.8690
 20
78.9280
 30
0.0000
  0
SEQEND
  8
0
  0
POLYLINE
  8
48
 66
1
 10
0.0000
 20
0.0000
 30
0.0000
 40
0.0050
 41
0.0050
 70
0
  0
VERTEX
  8
48
 10
-3.8665
 20
78.9280
 30
0.0000
 42
1.0000
  0
VERTEX
  8
48
 10
-3.8715
 20
78.9280
 30
0.0000
  0
SEQEND
  8
0
  0
POLYLINE
  8
48
 66
1
 10
0.0000
 20
0.0000
 30
0.0000
 40
0.0050
 41
0.0050
 70
0
  0
VERTEX
  8
48
 10
-3.8715
 20
0.9280
 30
0.0000
 42
1.0000
  0
VERTEX
  8
48
 10
-3.8665
 20
0.9280
 30
0.0000
  0
SEQEND
  8
0
  0
POLYLINE
  8
48
 66
1
 10
0.0000
 20
0.0000
 30
0.0000
 40
0.0100
 41
0.0100
 70
0
  0
VERTEX
  8
48
 10
-3.8690
 20
78.9280
 30
0.0000
  0
VERTEX
  8
48
 10
0.1310
 20
78.9280
 30
0.0000
  0
SEQEND
  8
0
  0
POLYLINE
  8
48
 66
1
 10
0.0000
 20
0.0000
 30
0.0000
 40
0.0050
 41
0.0050
 70
0
  0
VERTEX
  8
48
 10
0.1310
 20
78.9255
 30
0.0000
 42
1.0000
  0
VERTEX
  8
48
 10
0.1310
 20
78.9305
 30
0.0000
  0
SEQEND
  8
0
  0
POLYLINE
  8
48
 66
1
 10
0.0000
 20
0.0000
 30
0.0000
 40
0.0050
 41
0.0050
 70
0
  0
VERTEX
  8
48
 10
-3.8690
 20
78.9305
 30
0.0000
 42
1.0000
  0
VERTEX
  8
48
 10
-3.8690
 20
78.9255
 30
0.0000
  0
SEQEND
  8
0
  0
POLYLINE
  8
48
 66
1
 10
0.0000
 20
0.0000
 30
0.0000
 40
0.0100
 41
0.0100
 70
0
  0
VERTEX
  8
48
 10
0.1310
 20
78.9280
 30
0.0000
  0
VERTEX
  8
48
 10
0.1310
 20
160.9280
 30
0.0000
  0
SEQEND
  8
0
  0
POLYLINE
  8
48
 66
1
 10
0.0000
 20
0.0000
 30
0.0000
 40
0.0050
 41
0.0050
 70
0
  0
VERTEX
  8
48
 10
0.1335
 20
160.9280
 30
0.0000
 42
1.0000
  0
VERTEX
  8
48
 10
0.1285
 20
160.9280
 30
0.0000
  0
SEQEND
  8
0
  0
POLYLINE
  8
48
 66
1
 10
0.0000
 20
0.0000
 30
0.0000
 40
0.0050
 41
0.0050
 70
0
  0
VERTEX
  8
48
 10
0.1285
 20
78.9280
 30
0.0000
 42
1.0000
  0
VERTEX
  8
48
 10
0.1335
 20
78.9280
 30
0.0000
  0
SEQEND
  8
0
  0
POLYLINE
  8
48
 66
1
 10
0.0000
 20
0.0000
 30
0.0000
 40
0.0100
 41
0.0100
 70
0
  0
VERTEX
  8
48
 10
0.1310
 20
160.9280
 30
0.0000
  0
VERTEX
  8
48
 10
38.1310
 20
160.9280
 30
0.0000
  0
SEQEND
  8
0
  0
POLYLINE
  8
48
 66
1
 10
0.0000
 20
0.0000
 30
0.0000
 40
0.0050
 41
0.0050
 70
0
  0
VERTEX
  8
48
 10
38.1310
 20
160.9255
 30
0.0000
 42
1.0000
  0
VERTEX
  8
48
 10
38.1310
 20
160.9305
 30
0.0000
  0
SEQEND
  8
0
  0
POLYLINE
  8
48
 66
1
 10
0.0000
 20
0.0000
 30
0.0000
 40
0.0050
 41
0.0050
 70
0
  0
VERTEX
  8
48
 10
0.1310
 20
160.9305
 30
0.0000
 42
1.0000
  0
VERTEX
  8
48
 10
0.1310
 20
160.9255
 30
0.0000
  0
SEQEND
  8
0
  0
POLYLINE
  8
48
 66
1
 10
0.0000
 20
0.0000
 30
0.0000
 40
0.0100
 41
0.0100
 70
0
  0
VERTEX
  8
48
 10
38.1310
 20
160.9280
 30
0.0000
  0
VERTEX
  8
48
 10
38.1310
 20
156.9280
 30
0.0000
  0
SEQEND
  8
0
  0
POLYLINE
  8
48
 66
1
 10
0.0000
 20
0.0000
 30
0.0000
 40
0.0050
 41
0.0050
 70
0
  0
VERTEX
  8
48
 10
38.1285
 20
156.9280
 30
0.0000
 42
1.0000
  0
VERTEX
  8
48
 10
38.1335
 20
156.9280
 30
0.0000
  0
SEQEND
  8
0
  0
POLYLINE
  8
48
 66
1
 10
0.0000
 20
0.0000
 30
0.0000
 40
0.0050
 41
0.0050
 70
0
  0
VERTEX
  8
48
 10
38.1335
 20
160.9280
 30
0.0000
 42
1.0000
  0
VERTEX
  8
48
 10
38.1285
 20
160.9280
 30
0.0000
  0
SEQEND
  8
0
  0
POLYLINE
  8
48
 66
1
 10
0.0000
 20
0.0000
 30
0.0000
 40
0.0100
 41
0.0100
 70
0
  0
VERTEX
  8
48
 10
26.1812
 20
38.1461
 30
0.0000
  0
VERTEX
  8
48
 10
26.1812
 20
40.1461
 30
0.0000
  0
SEQEND
  8
0
  0
POLYLINE
  8
48
 66
1
 10
0.0000
 20
0.0000
 30
0.0000
 40
0.0050
 41
0.0050
 70
0
  0
VERTEX
  8
48
 10
26.1837
 20
40.1461
 30
0.0000
 42
1.0000
  0
VERTEX
  8
48
 10
26.1787
 20
40.1461
 30
0.0000
  0
SEQEND
  8
0
  0
POLYLINE
  8
48
 66
1
 10
0.0000
 20
0.0000
 30
0.0000
 40
0.0050
 41
0.0050
 70
0
  0
VERTEX
  8
48
 10
26.1787
 20
38.1461
 30
0.0000
 42
1.0000
  0
VERTEX
  8
48
 10
26.1837
 20
38.1461
 30
0.0000
  0
SEQEND
  8
0
  0
POLYLINE
  8
48
 66
1
 10
0.0000
 20
0.0000
 30
0.0000
 40
0.0100
 41
0.0100
 70
0
  0
VERTEX
  8
48
 10
26.1812
 20
40.1461
 30
0.0000
 42
0.4142
  0
VERTEX
  8
48
 10
22.1812
 20
44.1461
 30
0.0000
  0
SEQEND
  8
0
  0
POLYLINE
  8
48
 66
1
 10
0.0000
 20
0.0000
 30
0.0000
 40
0.0050
 41
0.0050
 70
0
  0
VERTEX
  8
48
 10
26.1787
 20
40.1461
 30
0.0000
 42
1.0000
  0
VERTEX
  8
48
 10
26.1837
 20
40.1461
 30
0.0000
  0
SEQEND
  8
0
  0
POLYLINE
  8
48
 66
1
 10
0.0000
 20
0.0000
 30
0.0000
 40
0.0050
 41
0.0050
 70
0
  0
VERTEX
  8
48
 10
22.1812
 20
44.1486
 30
0.0000
 42
1.0000
  0
VERTEX
  8
48
 10
22.1812
 20
44.1436
 30
0.0000
  0
SEQEND
  8
0
  0
POLYLINE
  8
48
 66
1
 10
0.0000
 20
0.0000
 30
0.0000
 40
0.0100
 41
0.0100
 70
0
  0
VERTEX
  8
48
 10
22.1812
 20
44.1461
 30
0.0000
  0
VERTEX
  8
48
 10
14.1812
 20
44.1461
 30
0.0000
  0
SEQEND
  8
0
  0
POLYLINE
  8
48
 66
1
 10
0.0000
 20
0.0000
 30
0.0000
 40
0.0050
 41
0.0050
 70
0
  0
VERTEX
  8
48
 10
14.1812
 20
44.1486
 30
0.0000
 42
1.0000
  0
VERTEX
  8
48
 10
14.1812
 20
44.1436
 30
0.0000
  0
SEQEND
  8
0
  0
POLYLINE
  8
48
 66
1
 10
0.0000
 20
0.0000
 30
0.0000
 40
0.0050
 41
0.0050
 70
0
  0
VERTEX
  8
48
 10
22.1812
 20
44.1436
 30
0.0000
 42
1.0000
  0
VERTEX
  8
48
 10
22.1812
 20
44.1486
 30
0.0000
  0
SEQEND
  8
0
  0
POLYLINE
  8
48
 66
1
 10
0.0000
 20
0.0000
 30
0.0000
 40
0.0100
 41
0.0100
 70
0
  0
VERTEX
  8
48
 10
14.1812
 20
44.1461
 30
0.0000
 42
0.4142
  0
VERTEX
  8
48
 10
10.1812
 20
40.1461
 30
0.0000
  0
SEQEND
  8
0
  0
POLYLINE
  8
48
 66
1
 10
0.0000
 20
0.0000
 30
0.0000
 40
0.0050
 41
0.0050
 70
0
  0
VERTEX
  8
48
 10
14.1812
 20
44.1436
 30
0.0000
 42
1.0000
  0
VERTEX
  8
48
 10
14.1812
 20
44.1486
 30
0.0000
  0
SEQEND
  8
0
  0
POLYLINE
  8
48
 66
1
 10
0.0000
 20
0.0000
 30
0.0000
 40
0.0050
 41
0.0050
 70
0
  0
VERTEX
  8
48
 10
10.1787
 20
40.1461
 30
0.0000
 42
1.0000
  0
VERTEX
  8
48
 10
10.1837
 20
40.1461
 30
0.0000
  0
SEQEND
  8
0
  0
POLYLINE
  8
48
 66
1
 10
0.0000
 20
0.0000
 30
0.0000
 40
0.0100
 41
0.0100
 70
0
  0
VERTEX
  8
48
 10
10.1812
 20
40.1461
 30
0.0000
  0
VERTEX
  8
48
 10
10.1812
 20
38.1461
 30
0.0000
  0
SEQEND
  8
0
  0
POLYLINE
  8
48
 66
1
 10
0.0000
 20
0.0000
 30
0.0000
 40
0.0050
 41
0.0050
 70
0
  0
VERTEX
  8
48
 10
10.1787
 20
38.1461
 30
0.0000
 42
1.0000
  0
VERTEX
  8
48
 10
10.1837
 20
38.1461
 30
0.0000
  0
SEQEND
  8
0
  0
POLYLINE
  8
48
 66
1
 10
0.0000
 20
0.0000
 30
0.0000
 40
0.0050
 41
0.0050
 70
0
  0
VERTEX
  8
48
 10
10.1837
 20
40.1461
 30
0.0000
 42
1.0000
  0
VERTEX
  8
48
 10
10.1787
 20
40.1461
 30
0.0000
  0
SEQEND
  8
0
  0
POLYLINE
  8
48
 66
1
 10
0.0000
 20
0.0000
 30
0.0000
 40
0.0100
 41
0.0100
 70
0
  0
VERTEX
  8
48
 10
10.1812
 20
38.1461
 30
0.0000
 42
0.4142
  0
VERTEX
  8
48
 10
14.1812
 20
34.1461
 30
0.0000
  0
SEQEND
  8
0
  0
POLYLINE
  8
48
 66
1
 10
0.0000
 20
0.0000
 30
0.0000
 40
0.0050
 41
0.0050
 70
0
  0
VERTEX
  8
48
 10
10.1837
 20
38.1461
 30
0.0000
 42
1.0000
  0
VERTEX
  8
48
 10
10.1787
 20
38.1461
 30
0.0000
  0
SEQEND
  8
0
  0
POLYLINE
  8
48
 66
1
 10
0.0000
 20
0.0000
 30
0.0000
 40
0.0050
 41
0.0050
 70
0
  0
VERTEX
  8
48
 10
14.1812
 20
34.1436
 30
0.0000
 42
1.0000
  0
VERTEX
  8
48
 10
14.1812
 20
34.1486
 30
0.0000
  0
SEQEND
  8
0
  0
POLYLINE
  8
48
 66
1
 10
0.0000
 20
0.0000
 30
0.0000
 40
0.0100
 41
0.0100
 70
0
  0
VERTEX
  8
48
 10
14.1812
 20
34.1461
 30
0.0000
  0
VERTEX
  8
48
 10
22.1812
 20
34.1461
 30
0.0000
  0
SEQEND
  8
0
  0
POLYLINE
  8
48
 66
1
 10
0.0000
 20
0.0000
 30
0.0000
 40
0.0050
 41
0.0050
 70
0
  0
VERTEX
  8
48
 10
22.1812
 20
34.1436
 30
0.0000
 42
1.0000
  0
VERTEX
  8
48
 10
22.1812
 20
34.1486
 30
0.0000
  0
SEQEND
  8
0
  0
POLYLINE
  8
48
 66
1
 10
0.0000
 20
0.0000
 30
0.0000
 40
0.0050
 41
0.0050
 70
0
  0
VERTEX
  8
48
 10
14.1812
 20
34.1486
 30
0.0000
 42
1.0000
  0
VERTEX
  8
48
 10
14.1812
 20
34.1436
 30
0.0000
  0
SEQEND
  8
0
  0
POLYLINE
  8
48
 66
1
 10
0.0000
 20
0.0000
 30
0.0000
 40
0.0100
 41
0.0100
 70
0
  0
VERTEX
  8
48
 10
22.1812
 20
34.1461
 30
0.0000
 42
0.4142
  0
VERTEX
  8
48
 10
26.1812
 20
38.1461
 30
0.0000
  0
SEQEND
  8
0
  0
POLYLINE
  8
48
 66
1
 10
0.0000
 20
0.0000
 30
0.0000
 40
0.0050
 41
0.0050
 70
0
  0
VERTEX
  8
48
 10
22.1812
 20
34.1486
 30
0.0000
 42
1.0000
  0
VERTEX
  8
48
 10
22.1812
 20
34.1436
 30
0.0000
  0
SEQEND
  8
0
  0
POLYLINE
  8
48
 66
1
 10
0.0000
 20
0.0000
 30
0.0000
 40
0.0050
 41
0.0050
 70
0
  0
VERTEX
  8
48
 10
26.1837
 20
38.1461
 30
0.0000
 42
1.0000
  0
VERTEX
  8
48
 10
26.1787
 20
38.1461
 30
0.0000
  0
SEQEND
  8
0
  0
POLYLINE
  8
48
 66
1
 10
0.0000
 20
0.0000
 30
0.0000
 40
0.0100
 41
0.0100
 70
0
  0
VERTEX
  8
48
 10
50.5171
 20
38.1461
 30
0.0000
  0
VERTEX
  8
48
 10
50.5171
 20
40.1461
 30
0.0000
  0
SEQEND
  8
0
  0
POLYLINE
  8
48
 66
1
 10
0.0000
 20
0.0000
 30
0.0000
 40
0.0050
 41
0.0050
 70
0
  0
VERTEX
  8
48
 10
50.5196
 20
40.1461
 30
0.0000
 42
1.0000
  0
VERTEX
  8
48
 10
50.5146
 20
40.1461
 30
0.0000
  0
SEQEND
  8
0
  0
POLYLINE
  8
48
 66
1
 10
0.0000
 20
0.0000
 30
0.0000
 40
0.0050
 41
0.0050
 70
0
  0
VERTEX
  8
48
 10
50.5146
 20
38.1461
 30
0.0000
 42
1.0000
  0
VERTEX
  8
48
 10
50.5196
 20
38.1461
 30
0.0000
  0
SEQEND
  8
0
  0
POLYLINE
  8
48
 66
1
 10
0.0000
 20
0.0000
 30
0.0000
 40
0.0100
 41
0.0100
 70
0
  0
VERTEX
  8
48
 10
54.5171
 20
44.1461
 30
0.0000
 42
0.4142
  0
VERTEX
  8
48
 10
50.5171
 20
40.1461
 30
0.0000
  0
SEQEND
  8
0
  0
POLYLINE
  8
48
 66
1
 10
0.0000
 20
0.0000
 30
0.0000
 40
0.0050
 41
0.0050
 70
0
  0
VERTEX
  8
48
 10
54.5171
 20
44.1436
 30
0.0000
 42
1.0000
  0
VERTEX
  8
48
 10
54.5171
 20
44.1486
 30
0.0000
  0
SEQEND
  8
0
  0
POLYLINE
  8
48
 66
1
 10
0.0000
 20
0.0000
 30
0.0000
 40
0.0050
 41
0.0050
 70
0
  0
VERTEX
  8
48
 10
50.5146
 20
40.1461
 30
0.0000
 42
1.0000
  0
VERTEX
  8
48
 10
50.5196
 20
40.1461
 30
0.0000
  0
SEQEND
  8
0
  0
POLYLINE
  8
48
 66
1
 10
0.0000
 20
0.0000
 30
0.0000
 40
0.0100
 41
0.0100
 70
0
  0
VERTEX
  8
48
 10
54.5171
 20
44.1461
 30
0.0000
  0
VERTEX
  8
48
 10
62.5171
 20
44.1461
 30
0.0000
  0
SEQEND
  8
0
  0
POLYLINE
  8
48
 66
1
 10
0.0000
 20
0.0000
 30
0.0000
 40
0.0050
 41
0.0050
 70
0
  0
VERTEX
  8
48
 10
62.5171
 20
44.1436
 30
0.0000
 42
1.0000
  0
VERTEX
  8
48
 10
62.5171
 20
44.1486
 30
0.0000
  0
SEQEND
  8
0
  0
POLYLINE
  8
48
 66
1
 10
0.0000
 20
0.0000
 30
0.0000
 40
0.0050
 41
0.0050
 70
0
  0
VERTEX
  8
48
 10
54.5171
 20
44.1486
 30
0.0000
 42
1.0000
  0
VERTEX
  8
48
 10
54.5171
 20
44.1436
 30
0.0000
  0
SEQEND
  8
0
  0
POLYLINE
  8
48
 66
1
 10
0.0000
 20
0.0000
 30
0.0000
 40
0.0100
 41
0.0100
 70
0
  0
VERTEX
  8
48
 10
66.5171
 20
40.1461
 30
0.0000
 42
0.4142
  0
VERTEX
  8
48
 10
62.5171
 20
44.1461
 30
0.0000
  0
SEQEND
  8
0
  0
POLYLINE
  8
48
 66
1
 10
0.0000
 20
0.0000
 30
0.0000
 40
0.0050
 41
0.0050
 70
0
  0
VERTEX
  8
48
 10
66.5146
 20
40.1461
 30
0.0000
 42
1.0000
  0
VERTEX
  8
48
 10
66.5196
 20
40.1461
 30
0.0000
  0
SEQEND
  8
0
  0
POLYLINE
  8
48
 66
1
 10
0.0000
 20
0.0000
 30
0.0000
 40
0.0050
 41
0.0050
 70
0
  0
VERTEX
  8
48
 10
62.5171
 20
44.1486
 30
0.0000
 42
1.0000
  0
VERTEX
  8
48
 10
62.5171
 20
44.1436
 30
0.0000
  0
SEQEND
  8
0
  0
POLYLINE
  8
48
 66
1
 10
0.0000
 20
0.0000
 30
0.0000
 40
0.0100
 41
0.0100
 70
0
  0
VERTEX
  8
48
 10
66.5171
 20
40.1461
 30
0.0000
  0
VERTEX
  8
48
 10
66.5171
 20
38.1461
 30
0.0000
  0
SEQEND
  8
0
  0
POLYLINE
  8
48
 66
1
 10
0.0000
 20
0.0000
 30
0.0000
 40
0.0050
 41
0.0050
 70
0
  0
VERTEX
  8
48
 10
66.5146
 20
38.1461
 30
0.0000
 42
1.0000
  0
VERTEX
  8
48
 10
66.5196
 20
38.1461
 30
0.0000
  0
SEQEND
  8
0
  0
POLYLINE
  8
48
 66
1
 10
0.0000
 20
0.0000
 30
0.0000
 40
0.0050
 41
0.0050
 70
0
  0
VERTEX
  8
48
 10
66.5196
 20
40.1461
 30
0.0000
 42
1.0000
  0
VERTEX
  8
48
 10
66.5146
 20
40.1461
 30
0.0000
  0
SEQEND
  8
0
  0
POLYLINE
  8
48
 66
1
 10
0.0000
 20
0.0000
 30
0.0000
 40
0.0100
 41
0.0100
 70
0
  0
VERTEX
  8
48
 10
62.5171
 20
34.1461
 30
0.0000
 42
0.4142
  0
VERTEX
  8
48
 10
66.5171
 20
38.1461
 30
0.0000
  0
SEQEND
  8
0
  0
POLYLINE
  8
48
 66
1
 10
0.0000
 20
0.0000
 30
0.0000
 40
0.0050
 41
0.0050
 70
0
  0
VERTEX
  8
48
 10
62.5171
 20
34.1486
 30
0.0000
 42
1.0000
  0
VERTEX
  8
48
 10
62.5171
 20
34.1436
 30
0.0000
  0
SEQEND
  8
0
  0
POLYLINE
  8
48
 66
1
 10
0.0000
 20
0.0000
 30
0.0000
 40
0.0050
 41
0.0050
 70
0
  0
VERTEX
  8
48
 10
66.5196
 20
38.1461
 30
0.0000
 42
1.0000
  0
VERTEX
  8
48
 10
66.5146
 20
38.1461
 30
0.0000
  0
SEQEND
  8
0
  0
POLYLINE
  8
48
 66
1
 10
0.0000
 20
0.0000
 30
0.0000
 40
0.0100
 41
0.0100
 70
0
  0
VERTEX
  8
48
 10
62.5171
 20
34.1461
 30
0.0000
  0
VERTEX
  8
48
 10
54.5171
 20
34.1461
 30
0.0000
  0
SEQEND
  8
0
  0
POLYLINE
  8
48
 66
1
 10
0.0000
 20
0.0000
 30
0.0000
 40
0.0050
 41
0.0050
 70
0
  0
VERTEX
  8
48
 10
54.5171
 20
34.1486
 30
0.0000
 42
1.0000
  0
VERTEX
  8
48
 10
54.5171
 20
34.1436
 30
0.0000
  0
SEQEND
  8
0
  0
POLYLINE
  8
48
 66
1
 10
0.0000
 20
0.0000
 30
0.0000
 40
0.0050
 41
0.0050
 70
0
  0
VERTEX
  8
48
 10
62.5171
 20
34.1436
 30
0.0000
 42
1.0000
  0
VERTEX
  8
48
 10
62.5171
 20
34.1486
 30
0.0000
  0
SEQEND
  8
0
  0
POLYLINE
  8
48
 66
1
 10
0.0000
 20
0.0000
 30
0.0000
 40
0.0100
 41
0.0100
 70
0
  0
VERTEX
  8
48
 10
50.5171
 20
38.1461
 30
0.0000
 42
0.4142
  0
VERTEX
  8
48
 10
54.5171
 20
34.1461
 30
0.0000
  0
SEQEND
  8
0
  0
POLYLINE
  8
48
 66
1
 10
0.0000
 20
0.0000
 30
0.0000
 40
0.0050
 41
0.0050
 70
0
  0
VERTEX
  8
48
 10
50.5196
 20
38.1461
 30
0.0000
 42
1.0000
  0
VERTEX
  8
48
 10
50.5146
 20
38.1461
 30
0.0000
  0
SEQEND
  8
0
  0
POLYLINE
  8
48
 66
1
 10
0.0000
 20
0.0000
 30
0.0000
 40
0.0050
 41
0.0050
 70
0
  0
VERTEX
  8
48
 10
54.5171
 20
34.1436
 30
0.0000
 42
1.0000
  0
VERTEX
  8
48
 10
54.5171
 20
34.1486
 30
0.0000
  0
SEQEND
  8
0
  0
POLYLINE
  8
48
 66
1
 10
0.0000
 20
0.0000
 30
0.0000
 40
0.0100
 41
0.0100
 70
0
  0
VERTEX
  8
48
 10
26.1812
 20
119.7099
 30
0.0000
  0
VERTEX
  8
48
 10
26.1812
 20
117.7099
 30
0.0000
  0
SEQEND
  8
0
  0
POLYLINE
  8
48
 66
1
 10
0.0000
 20
0.0000
 30
0.0000
 40
0.0050
 41
0.0050
 70
0
  0
VERTEX
  8
48
 10
26.1787
 20
117.7099
 30
0.0000
 42
1.0000
  0
VERTEX
  8
48
 10
26.1837
 20
117.7099
 30
0.0000
  0
SEQEND
  8
0
  0
POLYLINE
  8
48
 66
1
 10
0.0000
 20
0.0000
 30
0.0000
 40
0.0050
 41
0.0050
 70
0
  0
VERTEX
  8
48
 10
26.1837
 20
119.7099
 30
0.0000
 42
1.0000
  0
VERTEX
  8
48
 10
26.1787
 20
119.7099
 30
0.0000
  0
SEQEND
  8
0
  0
POLYLINE
  8
48
 66
1
 10
0.0000
 20
0.0000
 30
0.0000
 40
0.0100
 41
0.0100
 70
0
  0
VERTEX
  8
48
 10
22.1812
 20
113.7099
 30
0.0000
 42
0.4142
  0
VERTEX
  8
48
 10
26.1812
 20
117.7099
 30
0.0000
  0
SEQEND
  8
0
  0
POLYLINE
  8
48
 66
1
 10
0.0000
 20
0.0000
 30
0.0000
 40
0.0050
 41
0.0050
 70
0
  0
VERTEX
  8
48
 10
22.1812
 20
113.7124
 30
0.0000
 42
1.0000
  0
VERTEX
  8
48
 10
22.1812
 20
113.7074
 30
0.0000
  0
SEQEND
  8
0
  0
POLYLINE
  8
48
 66
1
 10
0.0000
 20
0.0000
 30
0.0000
 40
0.0050
 41
0.0050
 70
0
  0
VERTEX
  8
48
 10
26.1837
 20
117.7099
 30
0.0000
 42
1.0000
  0
VERTEX
  8
48
 10
26.1787
 20
117.7099
 30
0.0000
  0
SEQEND
  8
0
  0
POLYLINE
  8
48
 66
1
 10
0.0000
 20
0.0000
 30
0.0000
 40
0.0100
 41
0.0100
 70
0
  0
VERTEX
  8
48
 10
22.1812
 20
113.7099
 30
0.0000
  0
VERTEX
  8
48
 10
14.1812
 20
113.7099
 30
0.0000
  0
SEQEND
  8
0
  0
POLYLINE
  8
48
 66
1
 10
0.0000
 20
0.0000
 30
0.0000
 40
0.0050
 41
0.0050
 70
0
  0
VERTEX
  8
48
 10
14.1812
 20
113.7124
 30
0.0000
 42
1.0000
  0
VERTEX
  8
48
 10
14.1812
 20
113.7074
 30
0.0000
  0
SEQEND
  8
0
  0
POLYLINE
  8
48
 66
1
 10
0.0000
 20
0.0000
 30
0.0000
 40
0.0050
 41
0.0050
 70
0
  0
VERTEX
  8
48
 10
22.1812
 20
113.7074
 30
0.0000
 42
1.0000
  0
VERTEX
  8
48
 10
22.1812
 20
113.7124
 30
0.0000
  0
SEQEND
  8
0
  0
POLYLINE
  8
48
 66
1
 10
0.0000
 20
0.0000
 30
0.0000
 40
0.0100
 41
0.0100
 70
0
  0
VERTEX
  8
48
 10
10.1812
 20
117.7099
 30
0.0000
 42
0.4142
  0
VERTEX
  8
48
 10
14.1812
 20
113.7099
 30
0.0000
  0
SEQEND
  8
0
  0
POLYLINE
  8
48
 66
1
 10
0.0000
 20
0.0000
 30
0.0000
 40
0.0050
 41
0.0050
 70
0
  0
VERTEX
  8
48
 10
10.1837
 20
117.7099
 30
0.0000
 42
1.0000
  0
VERTEX
  8
48
 10
10.1787
 20
117.7099
 30
0.0000
  0
SEQEND
  8
0
  0
POLYLINE
  8
48
 66
1
 10
0.0000
 20
0.0000
 30
0.0000
 40
0.0050
 41
0.0050
 70
0
  0
VERTEX
  8
48
 10
14.1812
 20
113.7074
 30
0.0000
 42
1.0000
  0
VERTEX
  8
48
 10
14.1812
 20
113.7124
 30
0.0000
  0
SEQEND
  8
0
  0
POLYLINE
  8
48
 66
1
 10
0.0000
 20
0.0000
 30
0.0000
 40
0.0100
 41
0.0100
 70
0
  0
VERTEX
  8
48
 10
10.1812
 20
117.7099
 30
0.0000
  0
VERTEX
  8
48
 10
10.1812
 20
119.7099
 30
0.0000
  0
SEQEND
  8
0
  0
POLYLINE
  8
48
 66
1
 10
0.0000
 20
0.0000
 30
0.0000
 40
0.0050
 41
0.0050
 70
0
  0
VERTEX
  8
48
 10
10.1837
 20
119.7099
 30
0.0000
 42
1.0000
  0
VERTEX
  8
48
 10
10.1787
 20
119.7099
 30
0.0000
  0
SEQEND
  8
0
  0
POLYLINE
  8
48
 66
1
 10
0.0000
 20
0.0000
 30
0.0000
 40
0.0050
 41
0.0050
 70
0
  0
VERTEX
  8
48
 10
10.1787
 20
117.7099
 30
0.0000
 42
1.0000
  0
VERTEX
  8
48
 10
10.1837
 20
117.7099
 30
0.0000
  0
SEQEND
  8
0
  0
POLYLINE
  8
48
 66
1
 10
0.0000
 20
0.0000
 30
0.0000
 40
0.0100
 41
0.0100
 70
0
  0
VERTEX
  8
48
 10
14.1812
 20
123.7099
 30
0.0000
 42
0.4142
  0
VERTEX
  8
48
 10
10.1812
 20
119.7099
 30
0.0000
  0
SEQEND
  8
0
  0
POLYLINE
  8
48
 66
1
 10
0.0000
 20
0.0000
 30
0.0000
 40
0.0050
 41
0.0050
 70
0
  0
VERTEX
  8
48
 10
14.1812
 20
123.7074
 30
0.0000
 42
1.0000
  0
VERTEX
  8
48
 10
14.1812
 20
123.7124
 30
0.0000
  0
SEQEND
  8
0
  0
POLYLINE
  8
48
 66
1
 10
0.0000
 20
0.0000
 30
0.0000
 40
0.0050
 41
0.0050
 70
0
  0
VERTEX
  8
48
 10
10.1787
 20
119.7099
 30
0.0000
 42
1.0000
  0
VERTEX
  8
48
 10
10.1837
 20
119.7099
 30
0.0000
  0
SEQEND
  8
0
  0
POLYLINE
  8
48
 66
1
 10
0.0000
 20
0.0000
 30
0.0000
 40
0.0100
 41
0.0100
 70
0
  0
VERTEX
  8
48
 10
14.1812
 20
123.7099
 30
0.0000
  0
VERTEX
  8
48
 10
22.1812
 20
123.7099
 30
0.0000
  0
SEQEND
  8
0
  0
POLYLINE
  8
48
 66
1
 10
0.0000
 20
0.0000
 30
0.0000
 40
0.0050
 41
0.0050
 70
0
  0
VERTEX
  8
48
 10
22.1812
 20
123.7074
 30
0.0000
 42
1.0000
  0
VERTEX
  8
48
 10
22.1812
 20
123.7124
 30
0.0000
  0
SEQEND
  8
0
  0
POLYLINE
  8
48
 66
1
 10
0.0000
 20
0.0000
 30
0.0000
 40
0.0050
 41
0.0050
 70
0
  0
VERTEX
  8
48
 10
14.1812
 20
123.7124
 30
0.0000
 42
1.0000
  0
VERTEX
  8
48
 10
14.1812
 20
123.7074
 30
0.0000
  0
SEQEND
  8
0
  0
POLYLINE
  8
48
 66
1
 10
0.0000
 20
0.0000
 30
0.0000
 40
0.0100
 41
0.0100
 70
0
  0
VERTEX
  8
48
 10
26.1812
 20
119.7099
 30
0.0000
 42
0.4142
  0
VERTEX
  8
48
 10
22.1812
 20
123.7099
 30
0.0000
  0
SEQEND
  8
0
  0
POLYLINE
  8
48
 66
1
 10
0.0000
 20
0.0000
 30
0.0000
 40
0.0050
 41
0.0050
 70
0
  0
VERTEX
  8
48
 10
26.1787
 20
119.7099
 30
0.0000
 42
1.0000
  0
VERTEX
  8
48
 10
26.1837
 20
119.7099
 30
0.0000
  0
SEQEND
  8
0
  0
POLYLINE
  8
48
 66
1
 10
0.0000
 20
0.0000
 30
0.0000
 40
0.0050
 41
0.0050
 70
0
  0
VERTEX
  8
48
 10
22.1812
 20
123.7124
 30
0.0000
 42
1.0000
  0
VERTEX
  8
48
 10
22.1812
 20
123.7074
 30
0.0000
  0
SEQEND
  8
0
  0
POLYLINE
  8
48
 66
1
 10
0.0000
 20
0.0000
 30
0.0000
 40
0.0100
 41
0.0100
 70
0
  0
VERTEX
  8
48
 10
50.5171
 20
119.7099
 30
0.0000
  0
VERTEX
  8
48
 10
50.5171
 20
117.7099
 30
0.0000
  0
SEQEND
  8
0
  0
POLYLINE
  8
48
 66
1
 10
0.0000
 20
0.0000
 30
0.0000
 40
0.0050
 41
0.0050
 70
0
  0
VERTEX
  8
48
 10
50.5146
 20
117.7099
 30
0.0000
 42
1.0000
  0
VERTEX
  8
48
 10
50.5196
 20
117.7099
 30
0.0000
  0
SEQEND
  8
0
  0
POLYLINE
  8
48
 66
1
 10
0.0000
 20
0.0000
 30
0.0000
 40
0.0050
 41
0.0050
 70
0
  0
VERTEX
  8
48
 10
50.5196
 20
119.7099
 30
0.0000
 42
1.0000
  0
VERTEX
  8
48
 10
50.5146
 20
119.7099
 30
0.0000
  0
SEQEND
  8
0
  0
POLYLINE
  8
48
 66
1
 10
0.0000
 20
0.0000
 30
0.0000
 40
0.0100
 41
0.0100
 70
0
  0
VERTEX
  8
48
 10
50.5171
 20
117.7099
 30
0.0000
 42
0.4142
  0
VERTEX
  8
48
 10
54.5171
 20
113.7099
 30
0.0000
  0
SEQEND
  8
0
  0
POLYLINE
  8
48
 66
1
 10
0.0000
 20
0.0000
 30
0.0000
 40
0.0050
 41
0.0050
 70
0
  0
VERTEX
  8
48
 10
50.5196
 20
117.7099
 30
0.0000
 42
1.0000
  0
VERTEX
  8
48
 10
50.5146
 20
117.7099
 30
0.0000
  0
SEQEND
  8
0
  0
POLYLINE
  8
48
 66
1
 10
0.0000
 20
0.0000
 30
0.0000
 40
0.0050
 41
0.0050
 70
0
  0
VERTEX
  8
48
 10
54.5171
 20
113.7074
 30
0.0000
 42
1.0000
  0
VERTEX
  8
48
 10
54.5171
 20
113.7124
 30
0.0000
  0
SEQEND
  8
0
  0
POLYLINE
  8
48
 66
1
 10
0.0000
 20
0.0000
 30
0.0000
 40
0.0100
 41
0.0100
 70
0
  0
VERTEX
  8
48
 10
54.5171
 20
113.7099
 30
0.0000
  0
VERTEX
  8
48
 10
62.5171
 20
113.7099
 30
0.0000
  0
SEQEND
  8
0
  0
POLYLINE
  8
48
 66
1
 10
0.0000
 20
0.0000
 30
0.0000
 40
0.0050
 41
0.0050
 70
0
  0
VERTEX
  8
48
 10
62.5171
 20
113.7074
 30
0.0000
 42
1.0000
  0
VERTEX
  8
48
 10
62.5171
 20
113.7124
 30
0.0000
  0
SEQEND
  8
0
  0
POLYLINE
  8
48
 66
1
 10
0.0000
 20
0.0000
 30
0.0000
 40
0.0050
 41
0.0050
 70
0
  0
VERTEX
  8
48
 10
54.5171
 20
113.7124
 30
0.0000
 42
1.0000
  0
VERTEX
  8
48
 10
54.5171
 20
113.7074
 30
0.0000
  0
SEQEND
  8
0
  0
POLYLINE
  8
48
 66
1
 10
0.0000
 20
0.0000
 30
0.0000
 40
0.0100
 41
0.0100
 70
0
  0
VERTEX
  8
48
 10
62.5171
 20
113.7099
 30
0.0000
 42
0.4142
  0
VERTEX
  8
48
 10
66.5171
 20
117.7099
 30
0.0000
  0
SEQEND
  8
0
  0
POLYLINE
  8
48
 66
1
 10
0.0000
 20
0.0000
 30
0.0000
 40
0.0050
 41
0.0050
 70
0
  0
VERTEX
  8
48
 10
62.5171
 20
113.7124
 30
0.0000
 42
1.0000
  0
VERTEX
  8
48
 10
62.5171
 20
113.7074
 30
0.0000
  0
SEQEND
  8
0
  0
POLYLINE
  8
48
 66
1
 10
0.0000
 20
0.0000
 30
0.0000
 40
0.0050
 41
0.0050
 70
0
  0
VERTEX
  8
48
 10
66.5196
 20
117.7099
 30
0.0000
 42
1.0000
  0
VERTEX
  8
48
 10
66.5146
 20
117.7099
 30
0.0000
  0
SEQEND
  8
0
  0
POLYLINE
  8
48
 66
1
 10
0.0000
 20
0.0000
 30
0.0000
 40
0.0100
 41
0.0100
 70
0
  0
VERTEX
  8
48
 10
66.5171
 20
117.7099
 30
0.0000
  0
VERTEX
  8
48
 10
66.5171
 20
119.7099
 30
0.0000
  0
SEQEND
  8
0
  0
POLYLINE
  8
48
 66
1
 10
0.0000
 20
0.0000
 30
0.0000
 40
0.0050
 41
0.0050
 70
0
  0
VERTEX
  8
48
 10
66.5196
 20
119.7099
 30
0.0000
 42
1.0000
  0
VERTEX
  8
48
 10
66.5146
 20
119.7099
 30
0.0000
  0
SEQEND
  8
0
  0
POLYLINE
  8
48
 66
1
 10
0.0000
 20
0.0000
 30
0.0000
 40
0.0050
 41
0.0050
 70
0
  0
VERTEX
  8
48
 10
66.5146
 20
117.7099
 30
0.0000
 42
1.0000
  0
VERTEX
  8
48
 10
66.5196
 20
117.7099
 30
0.0000
  0
SEQEND
  8
0
  0
POLYLINE
  8
48
 66
1
 10
0.0000
 20
0.0000
 30
0.0000
 40
0.0100
 41
0.0100
 70
0
  0
VERTEX
  8
48
 10
66.5171
 20
119.7099
 30
0.0000
 42
0.4142
  0
VERTEX
  8
48
 10
62.5171
 20
123.7099
 30
0.0000
  0
SEQEND
  8
0
  0
POLYLINE
  8
48
 66
1
 10
0.0000
 20
0.0000
 30
0.0000
 40
0.0050
 41
0.0050
 70
0
  0
VERTEX
  8
48
 10
66.5146
 20
119.7099
 30
0.0000
 42
1.0000
  0
VERTEX
  8
48
 10
66.5196
 20
119.7099
 30
0.0000
  0
SEQEND
  8
0
  0
POLYLINE
  8
48
 66
1
 10
0.0000
 20
0.0000
 30
0.0000
 40
0.0050
 41
0.0050
 70
0
  0
VERTEX
  8
48
 10
62.5171
 20
123.7124
 30
0.0000
 42
1.0000
  0
VERTEX
  8
48
 10
62.5171
 20
123.7074
 30
0.0000
  0
SEQEND
  8
0
  0
POLYLINE
  8
48
 66
1
 10
0.0000
 20
0.0000
 30
0.0000
 40
0.0100
 41
0.0100
 70
0
  0
VERTEX
  8
48
 10
62.5171
 20
123.7099
 30
0.0000
  0
VERTEX
  8
48
 10
54.5171
 20
123.7099
 30
0.0000
  0
SEQEND
  8
0
  0
POLYLINE
  8
48
 66
1
 10
0.0000
 20
0.0000
 30
0.0000
 40
0.0050
 41
0.0050
 70
0
  0
VERTEX
  8
48
 10
54.5171
 20
123.7124
 30
0.0000
 42
1.0000
  0
VERTEX
  8
48
 10
54.5171
 20
123.7074
 30
0.0000
  0
SEQEND
  8
0
  0
POLYLINE
  8
48
 66
1
 10
0.0000
 20
0.0000
 30
0.0000
 40
0.0050
 41
0.0050
 70
0
  0
VERTEX
  8
48
 10
62.5171
 20
123.7074
 30
0.0000
 42
1.0000
  0
VERTEX
  8
48
 10
62.5171
 20
123.7124
 30
0.0000
  0
SEQEND
  8
0
  0
POLYLINE
  8
48
 66
1
 10
0.0000
 20
0.0000
 30
0.0000
 40
0.0100
 41
0.0100
 70
0
  0
VERTEX
  8
48
 10
54.5171
 20
123.7099
 30
0.0000
 42
0.4142
  0
VERTEX
  8
48
 10
50.5171
 20
119.7099
 30
0.0000
  0
SEQEND
  8
0
  0
POLYLINE
  8
48
 66
1
 10
0.0000
 20
0.0000
 30
0.0000
 40
0.0050
 41
0.0050
 70
0
  0
VERTEX
  8
48
 10
54.5171
 20
123.7074
 30
0.0000
 42
1.0000
  0
VERTEX
  8
48
 10
54.5171
 20
123.7124
 30
0.0000
  0
SEQEND
  8
0
  0
POLYLINE
  8
48
 66
1
 10
0.0000
 20
0.0000
 30
0.0000
 40
0.0050
 41
0.0050
 70
0
  0
VERTEX
  8
48
 10
50.5146
 20
119.7099
 30
0.0000
 42
1.0000
  0
VERTEX
  8
48
 10
50.5196
 20
119.7099
 30
0.0000
  0
SEQEND
  8
0
  0
POLYLINE
  8
48
 66
1
 10
0.0000
 20
0.0000
 30
0.0000
 40
0.0100
 41
0.0100
 70
0
  0
VERTEX
  8
48
 10
18.1310
 20
77.3280
 30
0.0000
 42
1.0000
  0
VERTEX
  8
48
 10
18.1310
 20
80.5280
 30
0.0000
 42
1.0000
  0
VERTEX
  8
48
 10
18.1310
 20
77.3280
 30
0.0000
  0
SEQEND
  8
0
  0
POLYLINE
  8
48
 66
1
 10
0.0000
 20
0.0000
 30
0.0000
 40
0.0100
 41
0.0100
 70
0
  0
VERTEX
  8
48
 10
29.6310
 20
5.8280
 30
0.0000
 42
1.0000
  0
VERTEX
  8
48
 10
29.6310
 20
9.0280
 30
0.0000
 42
1.0000
  0
VERTEX
  8
48
 10
29.6310
 20
5.8280
 30
0.0000
  0
SEQEND
  8
0
  0
POLYLINE
  8
48
 66
1
 10
0.0000
 20
0.0000
 30
0.0000
 40
0.0100
 41
0.0100
 70
0
  0
VERTEX
  8
48
 10
18.1310
 20
7.4280
 30
0.0000
 42
1.0000
  0
VERTEX
  8
48
 10
18.1310
 20
30.4280
 30
0.0000
 42
1.0000
  0
VERTEX
  8
48
 10
18.1310
 20
7.4280
 30
0.0000
  0
SEQEND
  8
0
  0
POLYLINE
  8
48
 66
1
 10
0.0000
 20
0.0000
 30
0.0000
 40
0.0100
 41
0.0100
 70
0
  0
VERTEX
  8
48
 10
46.6310
 20
5.8280
 30
0.0000
 42
1.0000
  0
VERTEX
  8
48
 10
46.6310
 20
9.0280
 30
0.0000
 42
1.0000
  0
VERTEX
  8
48
 10
46.6310
 20
5.8280
 30
0.0000
  0
SEQEND
  8
0
  0
POLYLINE
  8
48
 66
1
 10
0.0000
 20
0.0000
 30
0.0000
 40
0.0100
 41
0.0100
 70
0
  0
VERTEX
  8
48
 10
69.6310
 20
28.8280
 30
0.0000
 42
1.0000
  0
VERTEX
  8
48
 10
69.6310
 20
32.0280
 30
0.0000
 42
1.0000
  0
VERTEX
  8
48
 10
69.6310
 20
28.8280
 30
0.0000
  0
SEQEND
  8
0
  0
POLYLINE
  8
48
 66
1
 10
0.0000
 20
0.0000
 30
0.0000
 40
0.0100
 41
0.0100
 70
0
  0
VERTEX
  8
48
 10
46.6310
 20
28.8280
 30
0.0000
 42
1.0000
  0
VERTEX
  8
48
 10
46.6310
 20
32.0280
 30
0.0000
 42
1.0000
  0
VERTEX
  8
48
 10
46.6310
 20
28.8280
 30
0.0000
  0
SEQEND
  8
0
  0
POLYLINE
  8
48
 66
1
 10
0.0000
 20
0.0000
 30
0.0000
 40
0.0100
 41
0.0100
 70
0
  0
VERTEX
  8
48
 10
29.6310
 20
45.8280
 30
0.0000
 42
1.0000
  0
VERTEX
  8
48
 10
29.6310
 20
49.0280
 30
0.0000
 42
1.0000
  0
VERTEX
  8
48
 10
29.6310
 20
45.8280
 30
0.0000
  0
SEQEND
  8
0
  0
POLYLINE
  8
48
 66
1
 10
0.0000
 20
0.0000
 30
0.0000
 40
0.0100
 41
0.0100
 70
0
  0
VERTEX
  8
48
 10
18.1310
 20
47.4280
 30
0.0000
 42
1.0000
  0
VERTEX
  8
48
 10
18.1310
 20
70.4280
 30
0.0000
 42
1.0000
  0
VERTEX
  8
48
 10
18.1310
 20
47.4280
 30
0.0000
  0
SEQEND
  8
0
  0
POLYLINE
  8
48
 66
1
 10
0.0000
 20
0.0000
 30
0.0000
 40
0.0100
 41
0.0100
 70
0
  0
VERTEX
  8
48
 10
6.6310
 20
85.8280
 30
0.0000
 42
1.0000
  0
VERTEX
  8
48
 10
6.6310
 20
89.0280
 30
0.0000
 42
1.0000
  0
VERTEX
  8
48
 10
6.6310
 20
85.8280
 30
0.0000
  0
SEQEND
  8
0
  0
POLYLINE
  8
48
 66
1
 10
0.0000
 20
0.0000
 30
0.0000
 40
0.0100
 41
0.0100
 70
0
  0
VERTEX
  8
48
 10
29.6310
 20
108.8280
 30
0.0000
 42
1.0000
  0
VERTEX
  8
48
 10
29.6310
 20
112.0280
 30
0.0000
 42
1.0000
  0
VERTEX
  8
48
 10
29.6310
 20
108.8280
 30
0.0000
  0
SEQEND
  8
0
  0
POLYLINE
  8
48
 66
1
 10
0.0000
 20
0.0000
 30
0.0000
 40
0.0100
 41
0.0100
 70
0
  0
VERTEX
  8
48
 10
6.6310
 20
108.8280
 30
0.0000
 42
1.0000
  0
VERTEX
  8
48
 10
6.6310
 20
112.0280
 30
0.0000
 42
1.0000
  0
VERTEX
  8
48
 10
6.6310
 20
108.8280
 30
0.0000
  0
SEQEND
  8
0
  0
POLYLINE
  8
48
 66
1
 10
0.0000
 20
0.0000
 30
0.0000
 40
0.0100
 41
0.0100
 70
0
  0
VERTEX
  8
48
 10
29.6310
 20
125.8280
 30
0.0000
 42
1.0000
  0
VERTEX
  8
48
 10
29.6310
 20
129.0280
 30
0.0000
 42
1.0000
  0
VERTEX
  8
48
 10
29.6310
 20
125.8280
 30
0.0000
  0
SEQEND
  8
0
  0
POLYLINE
  8
48
 66
1
 10
0.0000
 20
0.0000
 30
0.0000
 40
0.0100
 41
0.0100
 70
0
  0
VERTEX
  8
48
 10
18.1310
 20
127.4280
 30
0.0000
 42
1.0000
  0
VERTEX
  8
48
 10
18.1310
 20
150.4280
 30
0.0000
 42
1.0000
  0
VERTEX
  8
48
 10
18.1310
 20
127.4280
 30
0.0000
  0
SEQEND
  8
0
  0
POLYLINE
  8
48
 66
1
 10
0.0000
 20
0.0000
 30
0.0000
 40
0.0100
 41
0.0100
 70
0
  0
VERTEX
  8
48
 10
46.6310
 20
45.8280
 30
0.0000
 42
1.0000
  0
VERTEX
  8
48
 10
46.6310
 20
49.0280
 30
0.0000
 42
1.0000
  0
VERTEX
  8
48
 10
46.6310
 20
45.8280
 30
0.0000
  0
SEQEND
  8
0
  0
POLYLINE
  8
48
 66
1
 10
0.0000
 20
0.0000
 30
0.0000
 40
0.0100
 41
0.0100
 70
0
  0
VERTEX
  8
48
 10
69.6310
 20
68.8280
 30
0.0000
 42
1.0000
  0
VERTEX
  8
48
 10
69.6310
 20
72.0280
 30
0.0000
 42
1.0000
  0
VERTEX
  8
48
 10
69.6310
 20
68.8280
 30
0.0000
  0
SEQEND
  8
0
  0
POLYLINE
  8
48
 66
1
 10
0.0000
 20
0.0000
 30
0.0000
 40
0.0100
 41
0.0100
 70
0
  0
VERTEX
  8
48
 10
46.6310
 20
68.8280
 30
0.0000
 42
1.0000
  0
VERTEX
  8
48
 10
46.6310
 20
72.0280
 30
0.0000
 42
1.0000
  0
VERTEX
  8
48
 10
46.6310
 20
68.8280
 30
0.0000
  0
SEQEND
  8
0
  0
POLYLINE
  8
48
 66
1
 10
0.0000
 20
0.0000
 30
0.0000
 40
0.0100
 41
0.0100
 70
0
  0
VERTEX
  8
48
 10
69.6310
 20
85.8280
 30
0.0000
 42
1.0000
  0
VERTEX
  8
48
 10
69.6310
 20
89.0280
 30
0.0000
 42
1.0000
  0
VERTEX
  8
48
 10
69.6310
 20
85.8280
 30
0.0000
  0
SEQEND
  8
0
  0
POLYLINE
  8
48
 66
1
 10
0.0000
 20
0.0000
 30
0.0000
 40
0.0100
 41
0.0100
 70
0
  0
VERTEX
  8
48
 10
58.1310
 20
87.4280
 30
0.0000
 42
1.0000
  0
VERTEX
  8
48
 10
58.1310
 20
110.4280
 30
0.0000
 42
1.0000
  0
VERTEX
  8
48
 10
58.1310
 20
87.4280
 30
0.0000
  0
SEQEND
  8
0
  0
POLYLINE
  8
48
 66
1
 10
0.0000
 20
0.0000
 30
0.0000
 40
0.0100
 41
0.0100
 70
0
  0
VERTEX
  8
48
 10
46.6310
 20
125.8280
 30
0.0000
 42
1.0000
  0
VERTEX
  8
48
 10
46.6310
 20
129.0280
 30
0.0000
 42
1.0000
  0
VERTEX
  8
48
 10
46.6310
 20
125.8280
 30
0.0000
  0
SEQEND
  8
0
  0
POLYLINE
  8
48
 66
1
 10
0.0000
 20
0.0000
 30
0.0000
 40
0.0100
 41
0.0100
 70
0
  0
VERTEX
  8
48
 10
69.6310
 20
148.8280
 30
0.0000
 42
1.0000
  0
VERTEX
  8
48
 10
69.6310
 20
152.0280
 30
0.0000
 42
1.0000
  0
VERTEX
  8
48
 10
69.6310
 20
148.8280
 30
0.0000
  0
SEQEND
  8
0
  0
POLYLINE
  8
48
 66
1
 10
0.0000
 20
0.0000
 30
0.0000
 40
0.0100
 41
0.0100
 70
0
  0
VERTEX
  8
48
 10
46.6310
 20
148.8280
 30
0.0000
 42
1.0000
  0
VERTEX
  8
48
 10
46.6310
 20
152.0280
 30
0.0000
 42
1.0000
  0
VERTEX
  8
48
 10
46.6310
 20
148.8280
 30
0.0000
  0
SEQEND
  8
0
  0
POLYLINE
  8
48
 66
1
 10
0.0000
 20
0.0000
 30
0.0000
 40
0.0100
 41
0.0100
 70
0
  0
VERTEX
  8
48
 10
38.1310
 20
137.3280
 30
0.0000
 42
1.0000
  0
VERTEX
  8
48
 10
38.1310
 20
140.5280
 30
0.0000
 42
1.0000
  0
VERTEX
  8
48
 10
38.1310
 20
137.3280
 30
0.0000
  0
SEQEND
  8
0
  0
POLYLINE
  8
48
 66
1
 10
0.0000
 20
0.0000
 30
0.0000
 40
0.0100
 41
0.0100
 70
0
  0
VERTEX
  8
48
 10
58.1310
 20
127.4280
 30
0.0000
 42
1.0000
  0
VERTEX
  8
48
 10
58.1310
 20
150.4280
 30
0.0000
 42
1.0000
  0
VERTEX
  8
48
 10
58.1310
 20
127.4280
 30
0.0000
  0
SEQEND
  8
0
  0
POLYLINE
  8
48
 66
1
 10
0.0000
 20
0.0000
 30
0.0000
 40
0.0100
 41
0.0100
 70
0
  0
VERTEX
  8
48
 10
69.6310
 20
125.8280
 30
0.0000
 42
1.0000
  0
VERTEX
  8
48
 10
69.6310
 20
129.0280
 30
0.0000
 42
1.0000
  0
VERTEX
  8
48
 10
69.6310
 20
125.8280
 30
0.0000
  0
SEQEND
  8
0
  0
POLYLINE
  8
48
 66
1
 10
0.0000
 20
0.0000
 30
0.0000
 40
0.0100
 41
0.0100
 70
0
  0
VERTEX
  8
48
 10
46.6310
 20
108.8280
 30
0.0000
 42
1.0000
  0
VERTEX
  8
48
 10
46.6310
 20
112.0280
 30
0.0000
 42
1.0000
  0
VERTEX
  8
48
 10
46.6310
 20
108.8280
 30
0.0000
  0
SEQEND
  8
0
  0
POLYLINE
  8
48
 66
1
 10
0.0000
 20
0.0000
 30
0.0000
 40
0.0100
 41
0.0100
 70
0
  0
VERTEX
  8
48
 10
69.6310
 20
108.8280
 30
0.0000
 42
1.0000
  0
VERTEX
  8
48
 10
69.6310
 20
112.0280
 30
0.0000
 42
1.0000
  0
VERTEX
  8
48
 10
69.6310
 20
108.8280
 30
0.0000
  0
SEQEND
  8
0
  0
POLYLINE
  8
48
 66
1
 10
0.0000
 20
0.0000
 30
0.0000
 40
0.0100
 41
0.0100
 70
0
  0
VERTEX
  8
48
 10
46.6310
 20
85.8280
 30
0.0000
 42
1.0000
  0
VERTEX
  8
48
 10
46.6310
 20
89.0280
 30
0.0000
 42
1.0000
  0
VERTEX
  8
48
 10
46.6310
 20
85.8280
 30
0.0000
  0
SEQEND
  8
0
  0
POLYLINE
  8
48
 66
1
 10
0.0000
 20
0.0000
 30
0.0000
 40
0.0100
 41
0.0100
 70
0
  0
VERTEX
  8
48
 10
58.0670
 20
47.2680
 30
0.0000
 42
1.0000
  0
VERTEX
  8
48
 10
58.0670
 20
70.2680
 30
0.0000
 42
1.0000
  0
VERTEX
  8
48
 10
58.0670
 20
47.2680
 30
0.0000
  0
SEQEND
  8
0
  0
POLYLINE
  8
48
 66
1
 10
0.0000
 20
0.0000
 30
0.0000
 40
0.0100
 41
0.0100
 70
0
  0
VERTEX
  8
48
 10
69.6310
 20
45.8280
 30
0.0000
 42
1.0000
  0
VERTEX
  8
48
 10
69.6310
 20
49.0280
 30
0.0000
 42
1.0000
  0
VERTEX
  8
48
 10
69.6310
 20
45.8280
 30
0.0000
  0
SEQEND
  8
0
  0
POLYLINE
  8
48
 66
1
 10
0.0000
 20
0.0000
 30
0.0000
 40
0.0100
 41
0.0100
 70
0
  0
VERTEX
  8
48
 10
29.6310
 20
148.8280
 30
0.0000
 42
1.0000
  0
VERTEX
  8
48
 10
29.6310
 20
152.0280
 30
0.0000
 42
1.0000
  0
VERTEX
  8
48
 10
29.6310
 20
148.8280
 30
0.0000
  0
SEQEND
  8
0
  0
POLYLINE
  8
48
 66
1
 10
0.0000
 20
0.0000
 30
0.0000
 40
0.0100
 41
0.0100
 70
0
  0
VERTEX
  8
48
 10
6.6310
 20
148.8280
 30
0.0000
 42
1.0000
  0
VERTEX
  8
48
 10
6.6310
 20
152.0280
 30
0.0000
 42
1.0000
  0
VERTEX
  8
48
 10
6.6310
 20
148.8280
 30
0.0000
  0
SEQEND
  8
0
  0
POLYLINE
  8
48
 66
1
 10
0.0000
 20
0.0000
 30
0.0000
 40
0.0100
 41
0.0100
 70
0
  0
VERTEX
  8
48
 10
6.6310
 20
125.8280
 30
0.0000
 42
1.0000
  0
VERTEX
  8
48
 10
6.6310
 20
129.0280
 30
0.0000
 42
1.0000
  0
VERTEX
  8
48
 10
6.6310
 20
125.8280
 30
0.0000
  0
SEQEND
  8
0
  0
POLYLINE
  8
48
 66
1
 10
0.0000
 20
0.0000
 30
0.0000
 40
0.0100
 41
0.0100
 70
0
  0
VERTEX
  8
48
 10
18.1310
 20
87.4280
 30
0.0000
 42
1.0000
  0
VERTEX
  8
48
 10
18.1310
 20
110.4280
 30
0.0000
 42
1.0000
  0
VERTEX
  8
48
 10
18.1310
 20
87.4280
 30
0.0000
  0
SEQEND
  8
0
  0
POLYLINE
  8
48
 66
1
 10
0.0000
 20
0.0000
 30
0.0000
 40
0.0100
 41
0.0100
 70
0
  0
VERTEX
  8
48
 10
6.6310
 20
68.8280
 30
0.0000
 42
1.0000
  0
VERTEX
  8
48
 10
6.6310
 20
72.0280
 30
0.0000
 42
1.0000
  0
VERTEX
  8
48
 10
6.6310
 20
68.8280
 30
0.0000
  0
SEQEND
  8
0
  0
POLYLINE
  8
48
 66
1
 10
0.0000
 20
0.0000
 30
0.0000
 40
0.0100
 41
0.0100
 70
0
  0
VERTEX
  8
48
 10
29.6310
 20
85.8280
 30
0.0000
 42
1.0000
  0
VERTEX
  8
48
 10
29.6310
 20
89.0280
 30
0.0000
 42
1.0000
  0
VERTEX
  8
48
 10
29.6310
 20
85.8280
 30
0.0000
  0
SEQEND
  8
0
  0
POLYLINE
  8
48
 66
1
 10
0.0000
 20
0.0000
 30
0.0000
 40
0.0100
 41
0.0100
 70
0
  0
VERTEX
  8
48
 10
6.6310
 20
45.8280
 30
0.0000
 42
1.0000
  0
VERTEX
  8
48
 10
6.6310
 20
49.0280
 30
0.0000
 42
1.0000
  0
VERTEX
  8
48
 10
6.6310
 20
45.8280
 30
0.0000
  0
SEQEND
  8
0
  0
POLYLINE
  8
48
 66
1
 10
0.0000
 20
0.0000
 30
0.0000
 40
0.0100
 41
0.0100
 70
0
  0
VERTEX
  8
48
 10
29.6310
 20
68.8280
 30
0.0000
 42
1.0000
  0
VERTEX
  8
48
 10
29.6310
 20
72.0280
 30
0.0000
 42
1.0000
  0
VERTEX
  8
48
 10
29.6310
 20
68.8280
 30
0.0000
  0
SEQEND
  8
0
  0
POLYLINE
  8
48
 66
1
 10
0.0000
 20
0.0000
 30
0.0000
 40
0.0100
 41
0.0100
 70
0
  0
VERTEX
  8
48
 10
69.6310
 20
5.8280
 30
0.0000
 42
1.0000
  0
VERTEX
  8
48
 10
69.6310
 20
9.0280
 30
0.0000
 42
1.0000
  0
VERTEX
  8
48
 10
69.6310
 20
5.8280
 30
0.0000
  0
SEQEND
  8
0
  0
POLYLINE
  8
48
 66
1
 10
0.0000
 20
0.0000
 30
0.0000
 40
0.0100
 41
0.0100
 70
0
  0
VERTEX
  8
48
 10
58.1310
 20
7.4280
 30
0.0000
 42
1.0000
  0
VERTEX
  8
48
 10
58.1310
 20
30.4280
 30
0.0000
 42
1.0000
  0
VERTEX
  8
48
 10
58.1310
 20
7.4280
 30
0.0000
  0
SEQEND
  8
0
  0
POLYLINE
  8
48
 66
1
 10
0.0000
 20
0.0000
 30
0.0000
 40
0.0100
 41
0.0100
 70
0
  0
VERTEX
  8
48
 10
6.6310
 20
28.8280
 30
0.0000
 42
1.0000
  0
VERTEX
  8
48
 10
6.6310
 20
32.0280
 30
0.0000
 42
1.0000
  0
VERTEX
  8
48
 10
6.6310
 20
28.8280
 30
0.0000
  0
SEQEND
  8
0
  0
POLYLINE
  8
48
 66
1
 10
0.0000
 20
0.0000
 30
0.0000
 40
0.0100
 41
0.0100
 70
0
  0
VERTEX
  8
48
 10
29.6310
 20
28.8280
 30
0.0000
 42
1.0000
  0
VERTEX
  8
48
 10
29.6310
 20
32.0280
 30
0.0000
 42
1.0000
  0
VERTEX
  8
48
 10
29.6310
 20
28.8280
 30
0.0000
  0
SEQEND
  8
0
  0
POLYLINE
  8
48
 66
1
 10
0.0000
 20
0.0000
 30
0.0000
 40
0.0100
 41
0.0100
 70
0
  0
VERTEX
  8
48
 10
38.1310
 20
17.3280
 30
0.0000
 42
1.0000
  0
VERTEX
  8
48
 10
38.1310
 20
20.5280
 30
0.0000
 42
1.0000
  0
VERTEX
  8
48
 10
38.1310
 20
17.3280
 30
0.0000
  0
SEQEND
  8
0
  0
POLYLINE
  8
48
 66
1
 10
0.0000
 20
0.0000
 30
0.0000
 40
0.0100
 41
0.0100
 70
0
  0
VERTEX
  8
48
 10
6.6310
 20
5.8280
 30
0.0000
 42
1.0000
  0
VERTEX
  8
48
 10
6.6310
 20
9.0280
 30
0.0000
 42
1.0000
  0
VERTEX
  8
48
 10
6.6310
 20
5.8280
 30
0.0000
  0
SEQEND
  8
0
  0
POLYLINE
  8
48
 66
1
 10
0.0000
 20
0.0000
 30
0.0000
 40
0.0100
 41
0.0100
 70
0
  0
VERTEX
  8
48
 10
38.1310
 20
97.3280
 30
0.0000
 42
1.0000
  0
VERTEX
  8
48
 10
38.1310
 20
100.5280
 30
0.0000
 42
1.0000
  0
VERTEX
  8
48
 10
38.1310
 20
97.3280
 30
0.0000
  0
SEQEND
  8
0
  0
POLYLINE
  8
48
 66
1
 10
0.0000
 20
0.0000
 30
0.0000
 40
0.0100
 41
0.0100
 70
0
  0
VERTEX
  8
48
 10
58.1310
 20
77.3280
 30
0.0000
 42
1.0000
  0
VERTEX
  8
48
 10
58.1310
 20
80.5280
 30
0.0000
 42
1.0000
  0
VERTEX
  8
48
 10
58.1310
 20
77.3280
 30
0.0000
  0
SEQEND
  8
0
  0
INSERT
  8
17
  2
ROUNDP
 10
67.5640
 20
27.6860
 30
0.0000
 41
1.7780
 42
1.7780
 43
1.0000
 50
270.0000
  0
INSERT
  8
17
  2
ROUNDP
 10
67.5640
 20
27.6860
 30
0.0000
 41
1.7780
 42
1.7780
 43
1.0000
 50
270.0000
  0
INSERT
  8
17
  2
ROUNDP
 10
65.0240
 20
27.6860
 30
0.0000
 41
1.7780
 42
1.7780
 43
1.0000
 50
270.0000
  0
INSERT
  8
17
  2
ROUNDP
 10
65.0240
 20
27.6860
 30
0.0000
 41
1.7780
 42
1.7780
 43
1.0000
 50
270.0000
  0
INSERT
  8
17
  2
ROUNDP
 10
62.4840
 20
27.6860
 30
0.0000
 41
1.7780
 42
1.7780
 43
1.0000
 50
270.0000
  0
INSERT
  8
17
  2
ROUNDP
 10
62.4840
 20
27.6860
 30
0.0000
 41
1.7780
 42
1.7780
 43
1.0000
 50
270.0000
  0
INSERT
  8
17
  2
ROUNDP
 10
59.9440
 20
27.6860
 30
0.0000
 41
1.7780
 42
1.7780
 43
1.0000
 50
270.0000
  0
INSERT
  8
17
  2
ROUNDP
 10
59.9440
 20
27.6860
 30
0.0000
 41
1.7780
 42
1.7780
 43
1.0000
 50
270.0000
  0
INSERT
  8
17
  2
ROUNDP
 10
16.2560
 20
27.9400
 30
0.0000
 41
1.7780
 42
1.7780
 43
1.0000
 50
270.0000
  0
INSERT
  8
17
  2
ROUNDP
 10
16.2560
 20
27.9400
 30
0.0000
 41
1.7780
 42
1.7780
 43
1.0000
 50
270.0000
  0
INSERT
  8
17
  2
ROUNDP
 10
13.7160
 20
27.9400
 30
0.0000
 41
1.7780
 42
1.7780
 43
1.0000
 50
270.0000
  0
INSERT
  8
17
  2
ROUNDP
 10
13.7160
 20
27.9400
 30
0.0000
 41
1.7780
 42
1.7780
 43
1.0000
 50
270.0000
  0
INSERT
  8
17
  2
ROUNDP
 10
11.1760
 20
27.9400
 30
0.0000
 41
1.7780
 42
1.7780
 43
1.0000
 50
270.0000
  0
INSERT
  8
17
  2
ROUNDP
 10
11.1760
 20
27.9400
 30
0.0000
 41
1.7780
 42
1.7780
 43
1.0000
 50
270.0000
  0
INSERT
  8
17
  2
ROUNDP
 10
8.6360
 20
27.9400
 30
0.0000
 41
1.7780
 42
1.7780
 43
1.0000
 50
270.0000
  0
INSERT
  8
17
  2
ROUNDP
 10
8.6360
 20
27.9400
 30
0.0000
 41
1.7780
 42
1.7780
 43
1.0000
 50
270.0000
  0
INSERT
  8
17
  2
ROUNDP
 10
41.4020
 20
8.8900
 30
0.0000
 41
1.7780
 42
1.7780
 43
1.0000
 50
270.0000
  0
INSERT
  8
17
  2
ROUNDP
 10
41.4020
 20
8.8900
 30
0.0000
 41
1.7780
 42
1.7780
 43
1.0000
 50
270.0000
  0
INSERT
  8
17
  2
ROUNDP
 10
38.8620
 20
8.8900
 30
0.0000
 41
1.7780
 42
1.7780
 43
1.0000
 50
270.0000
  0
INSERT
  8
17
  2
ROUNDP
 10
38.8620
 20
8.8900
 30
0.0000
 41
1.7780
 42
1.7780
 43
1.0000
 50
270.0000
  0
INSERT
  8
17
  2
ROUNDP
 10
36.3220
 20
8.8900
 30
0.0000
 41
1.7780
 42
1.7780
 43
1.0000
 50
270.0000
  0
INSERT
  8
17
  2
ROUNDP
 10
36.3220
 20
8.8900
 30
0.0000
 41
1.7780
 42
1.7780
 43
1.0000
 50
270.0000
  0
INSERT
  8
17
  2
ROUNDP
 10
33.7820
 20
8.8900
 30
0.0000
 41
1.7780
 42
1.7780
 43
1.0000
 50
270.0000
  0
INSERT
  8
17
  2
ROUNDP
 10
33.7820
 20
8.8900
 30
0.0000
 41
1.7780
 42
1.7780
 43
1.0000
 50
270.0000
  0
INSERT
  8
17
  2
ROUNDP
 10
41.4020
 20
48.7680
 30
0.0000
 41
1.7780
 42
1.7780
 43
1.0000
 50
270.0000
  0
INSERT
  8
17
  2
ROUNDP
 10
41.4020
 20
48.7680
 30
0.0000
 41
1.7780
 42
1.7780
 43
1.0000
 50
270.0000
  0
INSERT
  8
17
  2
ROUNDP
 10
38.8620
 20
48.7680
 30
0.0000
 41
1.7780
 42
1.7780
 43
1.0000
 50
270.0000
  0
INSERT
  8
17
  2
ROUNDP
 10
38.8620
 20
48.7680
 30
0.0000
 41
1.7780
 42
1.7780
 43
1.0000
 50
270.0000
  0
INSERT
  8
17
  2
ROUNDP
 10
36.3220
 20
48.7680
 30
0.0000
 41
1.7780
 42
1.7780
 43
1.0000
 50
270.0000
  0
INSERT
  8
17
  2
ROUNDP
 10
36.3220
 20
48.7680
 30
0.0000
 41
1.7780
 42
1.7780
 43
1.0000
 50
270.0000
  0
INSERT
  8
17
  2
ROUNDP
 10
33.7820
 20
48.7680
 30
0.0000
 41
1.7780
 42
1.7780
 43
1.0000
 50
270.0000
  0
INSERT
  8
17
  2
ROUNDP
 10
33.7820
 20
48.7680
 30
0.0000
 41
1.7780
 42
1.7780
 43
1.0000
 50
270.0000
  0
INSERT
  8
17
  2
ROUNDP
 10
59.9440
 20
130.5560
 30
0.0000
 41
1.7780
 42
1.7780
 43
1.0000
 50
90.0000
  0
INSERT
  8
17
  2
ROUNDP
 10
59.9440
 20
130.5560
 30
0.0000
 41
1.7780
 42
1.7780
 43
1.0000
 50
90.0000
  0
INSERT
  8
17
  2
ROUNDP
 10
62.4840
 20
130.5560
 30
0.0000
 41
1.7780
 42
1.7780
 43
1.0000
 50
90.0000
  0
INSERT
  8
17
  2
ROUNDP
 10
62.4840
 20
130.5560
 30
0.0000
 41
1.7780
 42
1.7780
 43
1.0000
 50
90.0000
  0
INSERT
  8
17
  2
ROUNDP
 10
65.0240
 20
130.5560
 30
0.0000
 41
1.7780
 42
1.7780
 43
1.0000
 50
90.0000
  0
INSERT
  8
17
  2
ROUNDP
 10
65.0240
 20
130.5560
 30
0.0000
 41
1.7780
 42
1.7780
 43
1.0000
 50
90.0000
  0
INSERT
  8
17
  2
ROUNDP
 10
67.5640
 20
130.5560
 30
0.0000
 41
1.7780
 42
1.7780
 43
1.0000
 50
90.0000
  0
INSERT
  8
17
  2
ROUNDP
 10
67.5640
 20
130.5560
 30
0.0000
 41
1.7780
 42
1.7780
 43
1.0000
 50
90.0000
  0
INSERT
  8
17
  2
ROUNDP
 10
8.6360
 20
130.0480
 30
0.0000
 41
1.7780
 42
1.7780
 43
1.0000
 50
90.0000
  0
INSERT
  8
17
  2
ROUNDP
 10
8.6360
 20
130.0480
 30
0.0000
 41
1.7780
 42
1.7780
 43
1.0000
 50
90.0000
  0
INSERT
  8
17
  2
ROUNDP
 10
11.1760
 20
130.0480
 30
0.0000
 41
1.7780
 42
1.7780
 43
1.0000
 50
90.0000
  0
INSERT
  8
17
  2
ROUNDP
 10
11.1760
 20
130.0480
 30
0.0000
 41
1.7780
 42
1.7780
 43
1.0000
 50
90.0000
  0
INSERT
  8
17
  2
ROUNDP
 10
13.7160
 20
130.0480
 30
0.0000
 41
1.7780
 42
1.7780
 43
1.0000
 50
90.0000
  0
INSERT
  8
17
  2
ROUNDP
 10
13.7160
 20
130.0480
 30
0.0000
 41
1.7780
 42
1.7780
 43
1.0000
 50
90.0000
  0
INSERT
  8
17
  2
ROUNDP
 10
16.2560
 20
130.0480
 30
0.0000
 41
1.7780
 42
1.7780
 43
1.0000
 50
90.0000
  0
INSERT
  8
17
  2
ROUNDP
 10
16.2560
 20
130.0480
 30
0.0000
 41
1.7780
 42
1.7780
 43
1.0000
 50
90.0000
  0
INSERT
  8
17
  2
ROUNDP
 10
34.7020
 20
147.5470
 30
0.0000
 41
1.7780
 42
1.7780
 43
1.0000
 50
90.0000
  0
INSERT
  8
17
  2
ROUNDP
 10
34.7020
 20
147.5470
 30
0.0000
 41
1.7780
 42
1.7780
 43
1.0000
 50
90.0000
  0
INSERT
  8
17
  2
ROUNDP
 10
37.2420
 20
147.5470
 30
0.0000
 41
1.7780
 42
1.7780
 43
1.0000
 50
90.0000
  0
INSERT
  8
17
  2
ROUNDP
 10
37.2420
 20
147.5470
 30
0.0000
 41
1.7780
 42
1.7780
 43
1.0000
 50
90.0000
  0
INSERT
  8
17
  2
ROUNDP
 10
39.7820
 20
147.5470
 30
0.0000
 41
1.7780
 42
1.7780
 43
1.0000
 50
90.0000
  0
INSERT
  8
17
  2
ROUNDP
 10
39.7820
 20
147.5470
 30
0.0000
 41
1.7780
 42
1.7780
 43
1.0000
 50
90.0000
  0
INSERT
  8
17
  2
ROUNDP
 10
42.3220
 20
147.5470
 30
0.0000
 41
1.7780
 42
1.7780
 43
1.0000
 50
90.0000
  0
INSERT
  8
17
  2
ROUNDP
 10
42.3220
 20
147.5470
 30
0.0000
 41
1.7780
 42
1.7780
 43
1.0000
 50
90.0000
  0
INSERT
  8
17
  2
ROUNDP
 10
26.8650
 20
98.8070
 30
0.0000
 41
1.7780
 42
1.7780
 43
1.0000
 50
180.0000
  0
INSERT
  8
17
  2
ROUNDP
 10
26.8650
 20
98.8070
 30
0.0000
 41
1.7780
 42
1.7780
 43
1.0000
 50
180.0000
  0
INSERT
  8
17
  2
ROUNDP
 10
26.8650
 20
101.3470
 30
0.0000
 41
1.7780
 42
1.7780
 43
1.0000
 50
180.0000
  0
INSERT
  8
17
  2
ROUNDP
 10
26.8650
 20
101.3470
 30
0.0000
 41
1.7780
 42
1.7780
 43
1.0000
 50
180.0000
  0
INSERT
  8
17
  2
ROUNDP
 10
26.8650
 20
103.8870
 30
0.0000
 41
1.7780
 42
1.7780
 43
1.0000
 50
180.0000
  0
INSERT
  8
17
  2
ROUNDP
 10
26.8650
 20
103.8870
 30
0.0000
 41
1.7780
 42
1.7780
 43
1.0000
 50
180.0000
  0
INSERT
  8
17
  2
ROUNDP
 10
26.8650
 20
106.4270
 30
0.0000
 41
1.7780
 42
1.7780
 43
1.0000
 50
180.0000
  0
INSERT
  8
17
  2
ROUNDP
 10
26.8650
 20
106.4270
 30
0.0000
 41
1.7780
 42
1.7780
 43
1.0000
 50
180.0000
  0
INSERT
  8
17
  2
SQUAREP
 10
40.1840
 20
76.9620
 30
0.0000
 41
3.0000
 42
3.0000
 43
1.0000
 50
0.0000
  0
INSERT
  8
17
  2
SQUAREP
 10
40.1840
 20
76.9620
 30
0.0000
 41
3.0000
 42
3.0000
 43
1.0000
 50
0.0000
  0
INSERT
  8
17
  2
OCTAGONP
 10
44.1440
 20
76.9620
 30
0.0000
 41
3.0000
 42
3.0000
 43
1.0000
 50
0.0000
  0
INSERT
  8
17
  2
OCTAGONP
 10
44.1440
 20
76.9620
 30
0.0000
 41
3.0000
 42
3.0000
 43
1.0000
 50
0.0000
  0
INSERT
  8
17
  2
SQUAREP
 10
32.0560
 20
76.9620
 30
0.0000
 41
3.0000
 42
3.0000
 43
1.0000
 50
0.0000
  0
INSERT
  8
17
  2
SQUAREP
 10
32.0560
 20
76.9620
 30
0.0000
 41
3.0000
 42
3.0000
 43
1.0000
 50
0.0000
  0
INSERT
  8
17
  2
OCTAGONP
 10
36.0160
 20
76.9620
 30
0.0000
 41
3.0000
 42
3.0000
 43
1.0000
 50
0.0000
  0
INSERT
  8
17
  2
OCTAGONP
 10
36.0160
 20
76.9620
 30
0.0000
 41
3.0000
 42
3.0000
 43
1.0000
 50
0.0000
  0
INSERT
  8
17
  2
ROUNDP
 10
30.6200
 20
113.7240
 30
0.0000
 41
1.5748
 42
1.5748
 43
1.0000
 50
0.0000
  0
INSERT
  8
17
  2
ROUNDP
 10
30.6200
 20
113.7240
 30
0.0000
 41
1.5748
 42
1.5748
 43
1.0000
 50
0.0000
  0
INSERT
  8
17
  2
ROUNDP
 10
30.6200
 20
111.1840
 30
0.0000
 41
1.5748
 42
1.5748
 43
1.0000
 50
0.0000
  0
INSERT
  8
17
  2
ROUNDP
 10
30.6200
 20
111.1840
 30
0.0000
 41
1.5748
 42
1.5748
 43
1.0000
 50
0.0000
  0
INSERT
  8
17
  2
ROUNDP
 10
30.6200
 20
108.6440
 30
0.0000
 41
1.5748
 42
1.5748
 43
1.0000
 50
0.0000
  0
INSERT
  8
17
  2
ROUNDP
 10
30.6200
 20
108.6440
 30
0.0000
 41
1.5748
 42
1.5748
 43
1.0000
 50
0.0000
  0
INSERT
  8
17
  2
ROUNDP
 10
30.6200
 20
106.1040
 30
0.0000
 41
1.5748
 42
1.5748
 43
1.0000
 50
0.0000
  0
INSERT
  8
17
  2
ROUNDP
 10
30.6200
 20
106.1040
 30
0.0000
 41
1.5748
 42
1.5748
 43
1.0000
 50
0.0000
  0
INSERT
  8
17
  2
ROUNDP
 10
45.8600
 20
111.1840
 30
0.0000
 41
1.5748
 42
1.5748
 43
1.0000
 50
0.0000
  0
INSERT
  8
17
  2
ROUNDP
 10
45.8600
 20
111.1840
 30
0.0000
 41
1.5748
 42
1.5748
 43
1.0000
 50
0.0000
  0
INSERT
  8
17
  2
ROUNDP
 10
35.7000
 20
83.2440
 30
0.0000
 41
1.5748
 42
1.5748
 43
1.0000
 50
0.0000
  0
INSERT
  8
17
  2
ROUNDP
 10
35.7000
 20
83.2440
 30
0.0000
 41
1.5748
 42
1.5748
 43
1.0000
 50
0.0000
  0
INSERT
  8
17
  2
ROUNDP
 10
30.6200
 20
103.5640
 30
0.0000
 41
1.5748
 42
1.5748
 43
1.0000
 50
0.0000
  0
INSERT
  8
17
  2
ROUNDP
 10
30.6200
 20
103.5640
 30
0.0000
 41
1.5748
 42
1.5748
 43
1.0000
 50
0.0000
  0
INSERT
  8
17
  2
ROUNDP
 10
30.6200
 20
101.0240
 30
0.0000
 41
1.5748
 42
1.5748
 43
1.0000
 50
0.0000
  0
INSERT
  8
17
  2
ROUNDP
 10
30.6200
 20
101.0240
 30
0.0000
 41
1.5748
 42
1.5748
 43
1.0000
 50
0.0000
  0
INSERT
  8
17
  2
ROUNDP
 10
30.6200
 20
98.4840
 30
0.0000
 41
1.5748
 42
1.5748
 43
1.0000
 50
0.0000
  0
INSERT
  8
17
  2
ROUNDP
 10
30.6200
 20
98.4840
 30
0.0000
 41
1.5748
 42
1.5748
 43
1.0000
 50
0.0000
  0
INSERT
  8
17
  2
ROUNDP
 10
30.6200
 20
95.9440
 30
0.0000
 41
1.5748
 42
1.5748
 43
1.0000
 50
0.0000
  0
INSERT
  8
17
  2
ROUNDP
 10
30.6200
 20
95.9440
 30
0.0000
 41
1.5748
 42
1.5748
 43
1.0000
 50
0.0000
  0
INSERT
  8
17
  2
ROUNDP
 10
30.6200
 20
93.4040
 30
0.0000
 41
1.5748
 42
1.5748
 43
1.0000
 50
0.0000
  0
INSERT
  8
17
  2
ROUNDP
 10
30.6200
 20
93.4040
 30
0.0000
 41
1.5748
 42
1.5748
 43
1.0000
 50
0.0000
  0
INSERT
  8
17
  2
ROUNDP
 10
30.6200
 20
90.8640
 30
0.0000
 41
1.5748
 42
1.5748
 43
1.0000
 50
0.0000
  0
INSERT
  8
17
  2
ROUNDP
 10
30.6200
 20
90.8640
 30
0.0000
 41
1.5748
 42
1.5748
 43
1.0000
 50
0.0000
  0
INSERT
  8
17
  2
ROUNDP
 10
30.6200
 20
88.3240
 30
0.0000
 41
1.5748
 42
1.5748
 43
1.0000
 50
0.0000
  0
INSERT
  8
17
  2
ROUNDP
 10
30.6200
 20
88.3240
 30
0.0000
 41
1.5748
 42
1.5748
 43
1.0000
 50
0.0000
  0
INSERT
  8
17
  2
ROUNDP
 10
30.6200
 20
85.7840
 30
0.0000
 41
1.5748
 42
1.5748
 43
1.0000
 50
0.0000
  0
INSERT
  8
17
  2
ROUNDP
 10
30.6200
 20
85.7840
 30
0.0000
 41
1.5748
 42
1.5748
 43
1.0000
 50
0.0000
  0
INSERT
  8
17
  2
ROUNDP
 10
30.6200
 20
83.2440
 30
0.0000
 41
1.5748
 42
1.5748
 43
1.0000
 50
0.0000
  0
INSERT
  8
17
  2
ROUNDP
 10
30.6200
 20
83.2440
 30
0.0000
 41
1.5748
 42
1.5748
 43
1.0000
 50
0.0000
  0
INSERT
  8
17
  2
ROUNDP
 10
45.8600
 20
83.2440
 30
0.0000
 41
1.5748
 42
1.5748
 43
1.0000
 50
0.0000
  0
INSERT
  8
17
  2
ROUNDP
 10
45.8600
 20
83.2440
 30
0.0000
 41
1.5748
 42
1.5748
 43
1.0000
 50
0.0000
  0
INSERT
  8
17
  2
ROUNDP
 10
45.8600
 20
85.7840
 30
0.0000
 41
1.5748
 42
1.5748
 43
1.0000
 50
0.0000
  0
INSERT
  8
17
  2
ROUNDP
 10
45.8600
 20
85.7840
 30
0.0000
 41
1.5748
 42
1.5748
 43
1.0000
 50
0.0000
  0
INSERT
  8
17
  2
ROUNDP
 10
45.8600
 20
88.3240
 30
0.0000
 41
1.5748
 42
1.5748
 43
1.0000
 50
0.0000
  0
INSERT
  8
17
  2
ROUNDP
 10
45.8600
 20
88.3240
 30
0.0000
 41
1.5748
 42
1.5748
 43
1.0000
 50
0.0000
  0
INSERT
  8
17
  2
ROUNDP
 10
45.8600
 20
90.8640
 30
0.0000
 41
1.5748
 42
1.5748
 43
1.0000
 50
0.0000
  0
INSERT
  8
17
  2
ROUNDP
 10
45.8600
 20
90.8640
 30
0.0000
 41
1.5748
 42
1.5748
 43
1.0000
 50
0.0000
  0
INSERT
  8
17
  2
ROUNDP
 10
45.8600
 20
93.4040
 30
0.0000
 41
1.5748
 42
1.5748
 43
1.0000
 50
0.0000
  0
INSERT
  8
17
  2
ROUNDP
 10
45.8600
 20
93.4040
 30
0.0000
 41
1.5748
 42
1.5748
 43
1.0000
 50
0.0000
  0
INSERT
  8
17
  2
ROUNDP
 10
45.8600
 20
95.9440
 30
0.0000
 41
1.5748
 42
1.5748
 43
1.0000
 50
0.0000
  0
INSERT
  8
17
  2
ROUNDP
 10
45.8600
 20
95.9440
 30
0.0000
 41
1.5748
 42
1.5748
 43
1.0000
 50
0.0000
  0
INSERT
  8
17
  2
ROUNDP
 10
45.8600
 20
98.4840
 30
0.0000
 41
1.5748
 42
1.5748
 43
1.0000
 50
0.0000
  0
INSERT
  8
17
  2
ROUNDP
 10
45.8600
 20
98.4840
 30
0.0000
 41
1.5748
 42
1.5748
 43
1.0000
 50
0.0000
  0
INSERT
  8
17
  2
ROUNDP
 10
45.8600
 20
101.0240
 30
0.0000
 41
1.5748
 42
1.5748
 43
1.0000
 50
0.0000
  0
INSERT
  8
17
  2
ROUNDP
 10
45.8600
 20
101.0240
 30
0.0000
 41
1.5748
 42
1.5748
 43
1.0000
 50
0.0000
  0
INSERT
  8
17
  2
ROUNDP
 10
45.8600
 20
103.5640
 30
0.0000
 41
1.5748
 42
1.5748
 43
1.0000
 50
0.0000
  0
INSERT
  8
17
  2
ROUNDP
 10
45.8600
 20
103.5640
 30
0.0000
 41
1.5748
 42
1.5748
 43
1.0000
 50
0.0000
  0
INSERT
  8
17
  2
ROUNDP
 10
45.8600
 20
106.1040
 30
0.0000
 41
1.5748
 42
1.5748
 43
1.0000
 50
0.0000
  0
INSERT
  8
17
  2
ROUNDP
 10
45.8600
 20
106.1040
 30
0.0000
 41
1.5748
 42
1.5748
 43
1.0000
 50
0.0000
  0
INSERT
  8
17
  2
ROUNDP
 10
45.8600
 20
108.6440
 30
0.0000
 41
1.5748
 42
1.5748
 43
1.0000
 50
0.0000
  0
INSERT
  8
17
  2
ROUNDP
 10
45.8600
 20
108.6440
 30
0.0000
 41
1.5748
 42
1.5748
 43
1.0000
 50
0.0000
  0
INSERT
  8
17
  2
ROUNDP
 10
43.3200
 20
88.3240
 30
0.0000
 41
1.5748
 42
1.5748
 43
1.0000
 50
0.0000
  0
INSERT
  8
17
  2
ROUNDP
 10
43.3200
 20
88.3240
 30
0.0000
 41
1.5748
 42
1.5748
 43
1.0000
 50
0.0000
  0
INSERT
  8
17
  2
ROUNDP
 10
43.3200
 20
90.8640
 30
0.0000
 41
1.5748
 42
1.5748
 43
1.0000
 50
0.0000
  0
INSERT
  8
17
  2
ROUNDP
 10
43.3200
 20
90.8640
 30
0.0000
 41
1.5748
 42
1.5748
 43
1.0000
 50
0.0000
  0
INSERT
  8
17
  2
ROUNDP
 10
40.7800
 20
88.3240
 30
0.0000
 41
1.5748
 42
1.5748
 43
1.0000
 50
0.0000
  0
INSERT
  8
17
  2
ROUNDP
 10
40.7800
 20
88.3240
 30
0.0000
 41
1.5748
 42
1.5748
 43
1.0000
 50
0.0000
  0
INSERT
  8
17
  2
ROUNDP
 10
40.7800
 20
90.8640
 30
0.0000
 41
1.5748
 42
1.5748
 43
1.0000
 50
0.0000
  0
INSERT
  8
17
  2
ROUNDP
 10
40.7800
 20
90.8640
 30
0.0000
 41
1.5748
 42
1.5748
 43
1.0000
 50
0.0000
  0
INSERT
  8
17
  2
ROUNDP
 10
38.2400
 20
88.3240
 30
0.0000
 41
1.5748
 42
1.5748
 43
1.0000
 50
0.0000
  0
INSERT
  8
17
  2
ROUNDP
 10
38.2400
 20
88.3240
 30
0.0000
 41
1.5748
 42
1.5748
 43
1.0000
 50
0.0000
  0
INSERT
  8
17
  2
ROUNDP
 10
38.2400
 20
90.8640
 30
0.0000
 41
1.5748
 42
1.5748
 43
1.0000
 50
0.0000
  0
INSERT
  8
17
  2
ROUNDP
 10
38.2400
 20
90.8640
 30
0.0000
 41
1.5748
 42
1.5748
 43
1.0000
 50
0.0000
  0
INSERT
  8
17
  2
ROUNDP
 10
35.7000
 20
88.3240
 30
0.0000
 41
1.5748
 42
1.5748
 43
1.0000
 50
0.0000
  0
INSERT
  8
17
  2
ROUNDP
 10
35.7000
 20
88.3240
 30
0.0000
 41
1.5748
 42
1.5748
 43
1.0000
 50
0.0000
  0
INSERT
  8
17
  2
ROUNDP
 10
35.7000
 20
90.8640
 30
0.0000
 41
1.5748
 42
1.5748
 43
1.0000
 50
0.0000
  0
INSERT
  8
17
  2
ROUNDP
 10
35.7000
 20
90.8640
 30
0.0000
 41
1.5748
 42
1.5748
 43
1.0000
 50
0.0000
  0
INSERT
  8
17
  2
ROUNDP
 10
33.1600
 20
88.3240
 30
0.0000
 41
1.5748
 42
1.5748
 43
1.0000
 50
0.0000
  0
INSERT
  8
17
  2
ROUNDP
 10
33.1600
 20
88.3240
 30
0.0000
 41
1.5748
 42
1.5748
 43
1.0000
 50
0.0000
  0
INSERT
  8
17
  2
ROUNDP
 10
33.1600
 20
90.8640
 30
0.0000
 41
1.5748
 42
1.5748
 43
1.0000
 50
0.0000
  0
INSERT
  8
17
  2
ROUNDP
 10
33.1600
 20
90.8640
 30
0.0000
 41
1.5748
 42
1.5748
 43
1.0000
 50
0.0000
  0
INSERT
  8
17
  2
ROUNDP
 10
30.6200
 20
116.2640
 30
0.0000
 41
1.5748
 42
1.5748
 43
1.0000
 50
0.0000
  0
INSERT
  8
17
  2
ROUNDP
 10
30.6200
 20
116.2640
 30
0.0000
 41
1.5748
 42
1.5748
 43
1.0000
 50
0.0000
  0
INSERT
  8
17
  2
ROUNDP
 10
38.2400
 20
83.2440
 30
0.0000
 41
1.5748
 42
1.5748
 43
1.0000
 50
0.0000
  0
INSERT
  8
17
  2
ROUNDP
 10
38.2400
 20
83.2440
 30
0.0000
 41
1.5748
 42
1.5748
 43
1.0000
 50
0.0000
  0
INSERT
  8
17
  2
ROUNDP
 10
45.8600
 20
113.7240
 30
0.0000
 41
1.5748
 42
1.5748
 43
1.0000
 50
0.0000
  0
INSERT
  8
17
  2
ROUNDP
 10
45.8600
 20
113.7240
 30
0.0000
 41
1.5748
 42
1.5748
 43
1.0000
 50
0.0000
  0
INSERT
  8
17
  2
ROUNDP
 10
40.7800
 20
83.2440
 30
0.0000
 41
1.5748
 42
1.5748
 43
1.0000
 50
0.0000
  0
INSERT
  8
17
  2
ROUNDP
 10
40.7800
 20
83.2440
 30
0.0000
 41
1.5748
 42
1.5748
 43
1.0000
 50
0.0000
  0
INSERT
  8
17
  2
ROUNDP
 10
43.3200
 20
83.2440
 30
0.0000
 41
1.5748
 42
1.5748
 43
1.0000
 50
0.0000
  0
INSERT
  8
17
  2
ROUNDP
 10
43.3200
 20
83.2440
 30
0.0000
 41
1.5748
 42
1.5748
 43
1.0000
 50
0.0000
  0
INSERT
  8
17
  2
ROUNDP
 10
33.1600
 20
83.2440
 30
0.0000
 41
1.5748
 42
1.5748
 43
1.0000
 50
0.0000
  0
INSERT
  8
17
  2
ROUNDP
 10
33.1600
 20
83.2440
 30
0.0000
 41
1.5748
 42
1.5748
 43
1.0000
 50
0.0000
  0
INSERT
  8
17
  2
ROUNDP
 10
45.8600
 20
116.2640
 30
0.0000
 41
1.5748
 42
1.5748
 43
1.0000
 50
0.0000
  0
INSERT
  8
17
  2
ROUNDP
 10
45.8600
 20
116.2640
 30
0.0000
 41
1.5748
 42
1.5748
 43
1.0000
 50
0.0000
  0
ENDSEC
  0
EOF
